<svg width="338" height="474" viewBox="0 0 338 474" fill="none" xmlns="http://www.w3.org/2000/svg">
<rect x="2.5" y="2.5" width="331" height="469" rx="32.5" fill="url(#paint0_linear)" stroke="url(#paint1_linear)" stroke-width="5"/>
<mask id="mask0" mask-type="alpha" maskUnits="userSpaceOnUse" x="2" y="0" width="336" height="474">
<rect x="4.5" y="2.5" width="331" height="469" rx="41.5" fill="url(#paint2_linear)" stroke="url(#paint3_linear)" stroke-width="5"/>
</mask>
<g mask="url(#mask0)">
<path d="M198.89 5.0093C198.89 5.0093 97.8208 47.0947 93.9888 101.845C90.1568 156.595 112.775 152.615 106.069 185.086C99.3631 217.557 -10.9124 255.616 18.7856 356.766C48.4837 457.916 142.368 370.584 242 469H35C18.4315 469 5 455.569 5 439V35.0014C5 18.4323 18.4323 5.00064 35.0014 5.00144L198.89 5.0093Z" fill="url(#paint4_linear)" fill-opacity="0.5"/>
</g>
<path opacity="0.46" d="M219.887 378C202.092 377.978 184.702 372.68 169.917 362.777C155.131 352.875 143.613 338.811 136.819 322.363C130.024 305.916 128.258 287.824 131.743 270.373C135.229 252.922 143.809 236.896 156.4 224.321C168.992 211.745 185.028 203.185 202.483 199.721C219.939 196.258 238.029 198.046 254.468 204.862C270.906 211.677 284.956 223.212 294.84 238.01C304.724 252.808 310 270.204 310 288C309.958 311.876 300.447 334.761 283.553 351.633C266.66 368.506 243.763 377.988 219.887 378ZM219.887 222.747C206.985 222.764 194.378 226.607 183.659 233.788C172.94 240.969 164.59 251.166 159.665 263.091C154.74 275.016 153.461 288.134 155.989 300.786C158.517 313.438 164.739 325.056 173.868 334.173C182.998 343.29 194.625 349.496 207.28 352.006C219.936 354.517 233.051 353.219 244.97 348.278C256.888 343.336 267.074 334.972 274.24 324.243C281.406 313.515 285.231 300.902 285.231 288C285.177 270.703 278.27 254.132 266.022 241.918C253.774 229.704 237.184 222.843 219.887 222.837V222.747Z" fill="url(#paint5_linear)"/>
<path opacity="0.46" d="M99.9498 126C92.0407 125.99 84.3121 123.636 77.7407 119.234C71.1694 114.833 66.0503 108.583 63.0305 101.273C60.0106 93.9627 59.2257 85.9216 60.7747 78.1657C62.3238 70.4097 66.1374 63.2871 71.7335 57.698C77.3296 52.1089 84.457 48.3043 92.2148 46.7649C99.9727 45.2256 108.013 46.0207 115.319 49.0496C122.625 52.0786 128.869 57.2055 133.262 63.7824C137.655 70.3593 140 78.0909 140 86C139.981 96.6116 135.754 106.783 128.246 114.281C120.738 121.78 110.561 125.995 99.9498 126ZM99.9498 56.9985C94.2156 57.0064 88.6124 58.7141 83.8484 61.9056C79.0844 65.0972 75.3735 69.6294 73.1846 74.9294C70.9957 80.2294 70.4271 86.0594 71.5506 91.6825C72.6742 97.3056 75.4395 102.469 79.497 106.521C83.5545 110.573 88.7222 113.331 94.3468 114.447C99.9715 115.563 105.801 114.986 111.098 112.79C116.395 110.594 120.922 106.877 124.107 102.108C127.292 97.3398 128.991 91.7342 128.991 86C128.968 78.3124 125.898 70.9477 120.454 65.5193C115.011 60.0908 107.637 57.0412 99.9498 57.0386V56.9985Z" fill="url(#paint6_linear)"/>
<path d="M45.6565 228.308C50.5845 228.308 54.2145 224.92 54.2145 220.3C54.2145 215.68 50.5845 212.292 45.6565 212.292C40.7285 212.292 37.0985 215.68 37.0985 220.3C37.0985 224.92 40.7285 228.308 45.6565 228.308ZM45.6565 224.7C43.3245 224.7 41.4985 222.962 41.4985 220.3C41.4985 217.638 43.3245 215.9 45.6565 215.9C47.9885 215.9 49.8145 217.638 49.8145 220.3C49.8145 222.962 47.9885 224.7 45.6565 224.7Z" fill="black"/>
<path d="M69.8367 212.6H56.1087V216.054H60.8387V228H65.1287V216.054H69.8367V212.6Z" fill="black"/>
<path d="M79.9848 212.6H72.9448V228H77.3008V223.974H79.9848C84.1868 223.974 86.8268 221.796 86.8268 218.298C86.8268 214.778 84.1868 212.6 79.9848 212.6ZM79.7208 220.542H77.3008V216.032H79.7208C81.5248 216.032 82.4268 216.868 82.4268 218.298C82.4268 219.706 81.5248 220.542 79.7208 220.542Z" fill="black"/>
<path d="M94.2122 224.634V221.818H101.054V218.562H94.2122V215.966H101.978V212.6H89.9002V228H102.264V224.634H94.2122Z" fill="black"/>
<path d="M120.3 224.546V212.6H107.892L107.716 217.352C107.562 221.466 107.056 224.502 105.098 224.546H104.548V231.102H108.552V228H118.408V231.102H122.39V224.546H120.3ZM111.522 217.726L111.588 216.054H116.01V224.546H110.18C111.082 223.248 111.412 220.74 111.522 217.726Z" fill="black"/>
<path d="M137.581 228H142.113L135.293 212.6H131.003L124.205 228H128.649L129.859 225.008H136.371L137.581 228ZM131.135 221.796L133.115 216.868L135.095 221.796H131.135Z" fill="black"/>
<path d="M154.702 228H159.608L154.746 220.036L159.564 212.6H154.988L151.314 218.584H149.224V212.6H144.89V228H149.224V222.104H151.204L154.702 228Z" fill="black"/>
<path d="M174.32 212.6H160.592V216.054H165.322V228H169.612V216.054H174.32V212.6Z" fill="black"/>
<path d="M177.428 228H181.542L187.878 218.98V228H192.168V212.6H188.076L181.718 221.642V212.6H177.428V228Z" fill="black"/>
<path d="M203.614 212.6H196.574V228H200.93V223.974H203.614C207.816 223.974 210.456 221.796 210.456 218.298C210.456 214.778 207.816 212.6 203.614 212.6ZM203.35 220.542H200.93V216.032H203.35C205.154 216.032 206.056 216.868 206.056 218.298C206.056 219.706 205.154 220.542 203.35 220.542Z" fill="black"/>
<path d="M221.313 228.308C226.241 228.308 229.871 224.92 229.871 220.3C229.871 215.68 226.241 212.292 221.313 212.292C216.385 212.292 212.755 215.68 212.755 220.3C212.755 224.92 216.385 228.308 221.313 228.308ZM221.313 224.7C218.981 224.7 217.155 222.962 217.155 220.3C217.155 217.638 218.981 215.9 221.313 215.9C223.645 215.9 225.471 217.638 225.471 220.3C225.471 222.962 223.645 224.7 221.313 224.7Z" fill="black"/>
<path d="M244.52 219.948C245.84 219.288 246.61 218.122 246.61 216.604C246.61 214.052 244.454 212.6 240.78 212.6H233.3V228H241.198C245.158 228 247.314 226.306 247.314 223.6C247.314 221.752 246.302 220.52 244.52 219.948ZM237.59 215.724H240.362C241.594 215.724 242.21 216.252 242.21 217.242C242.21 218.254 241.594 218.76 240.362 218.76H237.59V215.724ZM241.022 224.876H237.59V221.708H241.022C242.276 221.708 242.914 222.214 242.914 223.27C242.914 224.326 242.276 224.876 241.022 224.876Z" fill="black"/>
<path d="M262.607 228H267.139L260.319 212.6H256.029L249.231 228H253.675L254.885 225.008H261.397L262.607 228ZM256.161 221.796L258.141 216.868L260.121 221.796H256.161Z" fill="black"/>
<path d="M281.638 212.6H267.91V216.054H272.64V228H276.93V216.054H281.638V212.6Z" fill="black"/>
<path d="M292.6 217.506H289.036V212.6H284.746V228H292.028C296.032 228 298.518 226.13 298.518 222.522C298.518 219.156 296.34 217.506 292.6 217.506ZM291.742 224.876H289.036V220.608H291.742C293.216 220.608 294.14 221.158 294.14 222.61C294.14 224.062 293.194 224.876 291.742 224.876Z" fill="black"/>
<path d="M139.029 245.948C140.349 245.288 141.119 244.122 141.119 242.604C141.119 240.052 138.963 238.6 135.289 238.6H127.809V254H135.707C139.667 254 141.823 252.306 141.823 249.6C141.823 247.752 140.811 246.52 139.029 245.948ZM132.099 241.724H134.871C136.103 241.724 136.719 242.252 136.719 243.242C136.719 244.254 136.103 244.76 134.871 244.76H132.099V241.724ZM135.531 250.876H132.099V247.708H135.531C136.785 247.708 137.423 248.214 137.423 249.27C137.423 250.326 136.785 250.876 135.531 250.876Z" fill="black"/>
<path d="M145.281 254H149.395L155.73 244.98V254H160.021V238.6H155.928L149.571 247.642V238.6H145.281V254Z" fill="black"/>
<path d="M178.838 250.546V238.6H166.43L166.254 243.352C166.1 247.466 165.594 250.502 163.636 250.546H163.086V257.102H167.09V254H176.946V257.102H180.928V250.546H178.838ZM170.06 243.726L170.126 242.054H174.548V250.546H168.718C169.62 249.248 169.95 246.74 170.06 243.726Z" fill="black"/>
<path d="M188.423 250.634V247.818H195.265V244.562H188.423V241.966H196.189V238.6H184.111V254H196.475V250.634H188.423Z" fill="black"/>
<path d="M207.604 254.308C212.532 254.308 216.162 250.92 216.162 246.3C216.162 241.68 212.532 238.292 207.604 238.292C202.676 238.292 199.046 241.68 199.046 246.3C199.046 250.92 202.676 254.308 207.604 254.308ZM207.604 250.7C205.272 250.7 203.446 248.962 203.446 246.3C203.446 243.638 205.272 241.9 207.604 241.9C209.936 241.9 211.762 243.638 211.762 246.3C211.762 248.962 209.936 250.7 207.604 250.7Z" fill="black"/>
<path fill-rule="evenodd" clip-rule="evenodd" d="M55.9294 228.953C53.4232 231.692 49.7188 233.308 45.6565 233.308C38.2888 233.308 32.0985 227.993 32.0985 220.3C32.0985 212.607 38.2888 207.292 45.6565 207.292C48.1752 207.292 50.5564 207.913 52.5996 209.038C53.5023 208.149 54.7414 207.6 56.1087 207.6H69.8367C70.3793 207.6 70.9016 207.686 71.3908 207.846C71.8799 207.686 72.4022 207.6 72.9448 207.6H79.9848C82.1839 207.6 84.4057 208.029 86.361 209.068C87.2661 208.161 88.5176 207.6 89.9002 207.6H101.978C103.085 207.6 104.107 207.959 104.935 208.568C105.764 207.959 106.788 207.6 107.892 207.6H120.3C123.061 207.6 125.3 209.839 125.3 212.6V213.138L126.429 210.581C127.228 208.769 129.022 207.6 131.003 207.6H135.293C137.271 207.6 139.063 208.766 139.865 210.575L140.11 211.129C140.738 209.085 142.64 207.6 144.89 207.6H149.224C150.297 207.6 151.291 207.938 152.106 208.514C152.936 207.928 153.939 207.6 154.988 207.6H159.564C159.736 207.6 159.907 207.609 160.076 207.626C160.245 207.609 160.417 207.6 160.592 207.6H174.32C174.862 207.6 175.384 207.686 175.874 207.846C176.363 207.686 176.885 207.6 177.428 207.6H181.718C182.925 207.6 184.033 208.028 184.897 208.741C185.782 208.012 186.902 207.6 188.076 207.6H192.168C192.958 207.6 193.706 207.784 194.371 208.11C195.036 207.784 195.784 207.6 196.574 207.6H203.614C206.53 207.6 209.485 208.355 211.806 210.283C211.922 210.379 212.035 210.477 212.145 210.577C214.577 208.492 217.812 207.292 221.313 207.292C224.257 207.292 227.013 208.141 229.262 209.651C230.171 208.408 231.641 207.6 233.3 207.6H240.78C243.168 207.6 245.754 208.055 247.893 209.517C249.059 210.313 249.974 211.332 250.605 212.506L251.455 210.581C252.255 208.769 254.048 207.6 256.029 207.6H260.319C261.802 207.6 263.18 208.255 264.115 209.345C265.032 208.277 266.392 207.6 267.91 207.6H281.638C282.181 207.6 282.703 207.686 283.192 207.846C283.681 207.686 284.204 207.6 284.746 207.6H289.036C291.787 207.6 294.019 209.821 294.036 212.568C296.134 212.755 298.319 213.392 300.14 214.892C302.549 216.875 303.518 219.691 303.518 222.522C303.518 225.567 302.41 228.463 299.942 230.483C297.627 232.378 294.726 233 292.028 233H284.746C283.165 233 281.755 232.266 280.838 231.119C279.922 232.266 278.512 233 276.93 233H272.64C271.624 233 270.678 232.697 269.889 232.176C269.085 232.706 268.131 233 267.139 233H262.607C260.707 233 258.984 231.925 258.141 230.248C257.297 231.925 255.575 233 253.675 233H249.231C248.198 233 247.208 232.681 246.384 232.11C244.731 232.756 242.939 233 241.198 233H233.3C231.641 233 230.171 232.192 229.262 230.949C227.013 232.459 224.257 233.308 221.313 233.308C216.595 233.308 212.361 231.129 209.924 227.542C208.656 228.204 207.276 228.613 205.864 228.817C205.474 231.19 203.414 233 200.93 233H196.574C195.784 233 195.036 232.816 194.371 232.49C193.706 232.816 192.958 233 192.168 233H187.878C186.675 233 185.572 232.576 184.71 231.868C183.826 232.592 182.71 233 181.542 233H177.428C175.846 233 174.436 232.266 173.52 231.119C172.603 232.266 171.193 233 169.612 233H165.322C164.259 233 163.274 232.669 162.464 232.104C161.64 232.677 160.647 233 159.608 233H154.702C153.712 233 152.764 232.708 151.963 232.183C151.176 232.7 150.235 233 149.224 233H144.89C144.407 233 143.94 232.932 143.499 232.804C143.054 232.933 142.588 233 142.113 233H137.581C135.681 233 133.958 231.925 133.115 230.248C132.271 231.925 130.549 233 128.649 233H127.017C126.911 233.257 126.785 233.504 126.64 233.738C127.015 233.648 127.407 233.6 127.809 233.6H135.289C137.428 233.6 139.726 233.965 141.719 235.091C142.626 234.171 143.886 233.6 145.281 233.6H149.571C150.778 233.6 151.885 234.028 152.75 234.741C153.634 234.012 154.755 233.6 155.928 233.6H160.021C161.24 233.6 162.358 234.037 163.226 234.762C164.095 234.036 165.213 233.6 166.43 233.6H178.838C179.806 233.6 180.709 233.875 181.475 234.351C182.24 233.875 183.144 233.6 184.111 233.6H196.189C197.736 233.6 199.118 234.302 200.035 235.405C202.211 234.049 204.823 233.292 207.604 233.292C214.971 233.292 221.162 238.607 221.162 246.3C221.162 253.993 214.971 259.308 207.604 259.308C204.903 259.308 202.36 258.594 200.223 257.31C199.307 258.346 197.967 259 196.475 259H185.556C184.808 260.82 183.018 262.102 180.928 262.102H176.946C174.857 262.102 173.067 260.82 172.319 259H171.718C170.97 260.82 169.18 262.102 167.09 262.102H163.086C160.997 262.102 159.207 260.82 158.459 259H155.73C154.528 259 153.425 258.576 152.562 257.868C151.679 258.592 150.563 259 149.395 259H145.281C143.967 259 142.773 258.494 141.88 257.666C139.97 258.648 137.802 259 135.707 259H127.809C125.048 259 122.809 256.761 122.809 254V238.6C122.809 237.633 123.084 236.73 123.56 235.964C123.184 236.054 122.793 236.102 122.39 236.102H118.408C116.318 236.102 114.528 234.82 113.781 233H113.179C112.432 234.82 110.642 236.102 108.552 236.102H104.548C102.458 236.102 100.668 234.82 99.9208 233H89.9002C87.1905 233 84.9842 230.844 84.9026 228.155C84.0406 228.469 83.1442 228.686 82.2344 228.817C81.8446 231.19 79.7841 233 77.3008 233H72.9448C71.3631 233 69.953 232.266 69.0368 231.119C68.1205 232.266 66.7104 233 65.1287 233H60.8387C58.4031 233 56.3742 231.258 55.9294 228.953ZM60.8387 228H65.1287V216.054H69.8367V212.6H56.1087V216.054H60.8387V228ZM72.9448 228H77.3008V223.974H79.9848C82.0382 223.974 83.7186 223.454 84.9002 222.514C86.1366 221.53 86.8268 220.087 86.8268 218.298C86.8268 216.498 86.1366 215.049 84.9002 214.063C83.7186 213.12 82.0382 212.6 79.9848 212.6H72.9448V228ZM77.3008 220.542H79.7208C79.811 220.542 79.899 220.54 79.9848 220.536C81.243 220.475 82.015 219.97 82.3008 219.127C82.3848 218.879 82.4268 218.602 82.4268 218.298C82.4268 217.989 82.3848 217.709 82.3008 217.458C82.015 216.604 81.243 216.099 79.9848 216.038C79.899 216.034 79.811 216.032 79.7208 216.032H77.3008V220.542ZM54.2063 220.679C54.2118 220.554 54.2145 220.427 54.2145 220.3C54.2145 218.709 53.7842 217.265 53.0187 216.054C52.517 215.261 51.8715 214.568 51.1087 214C49.655 212.919 47.7758 212.292 45.6565 212.292C40.7285 212.292 37.0985 215.68 37.0985 220.3C37.0985 224.92 40.7285 228.308 45.6565 228.308C50.4486 228.308 54.0133 225.104 54.2063 220.679ZM89.9002 228H102.264V224.634H94.2122V221.818H101.054V218.562H94.2122V215.966H101.978V212.6H89.9002V228ZM104.548 224.546V231.102H108.552V228H118.408V231.102H122.39V224.546H120.3V212.6H107.892L107.716 217.352C107.713 217.427 107.71 217.501 107.707 217.575C107.707 217.579 107.707 217.583 107.707 217.587C107.627 219.51 107.465 221.184 107.104 222.408C107.055 222.573 107.003 222.729 106.947 222.877C106.885 223.041 106.818 223.194 106.746 223.336C106.389 224.039 105.907 224.466 105.252 224.536C105.228 224.539 105.204 224.541 105.18 224.542C105.153 224.544 105.126 224.545 105.098 224.546H104.548ZM116.01 224.546V216.054H111.588L111.522 217.726C111.499 218.357 111.466 218.966 111.421 219.546C111.336 220.629 111.206 221.613 111.01 222.454C110.966 222.643 110.919 222.826 110.868 223C110.687 223.619 110.461 224.141 110.18 224.546H116.01ZM142.113 228L135.293 212.6H131.003L124.205 228H128.649L129.859 225.008H136.371L137.581 228H142.113ZM135.095 221.796L133.115 216.868L131.135 221.796H135.095ZM145.281 254H149.395L155.73 244.98V254H160.021V238.6H155.928L149.571 247.642V238.6H145.281V254ZM127.809 238.6V254H135.707C137.707 254 139.246 253.568 140.281 252.792C141.156 252.135 141.67 251.232 141.794 250.135C141.814 249.961 141.823 249.783 141.823 249.6C141.823 249.488 141.82 249.378 141.812 249.27C141.743 248.262 141.351 247.454 140.682 246.854C140.557 246.743 140.424 246.639 140.281 246.542C139.921 246.298 139.502 246.1 139.029 245.948C139.529 245.698 139.95 245.376 140.281 244.989C140.381 244.872 140.472 244.749 140.555 244.62C140.817 244.214 140.992 243.753 141.071 243.242C141.103 243.037 141.119 242.824 141.119 242.604C141.119 242.133 141.046 241.699 140.903 241.304C140.762 240.916 140.553 240.566 140.281 240.257C139.333 239.182 137.616 238.6 135.289 238.6H127.809ZM132.099 241.724V244.76H134.871C135.116 244.76 135.336 244.74 135.531 244.7C136.142 244.576 136.517 244.259 136.657 243.749C136.661 243.733 136.665 243.718 136.669 243.702C136.703 243.562 136.719 243.409 136.719 243.242C136.719 243.075 136.702 242.921 136.667 242.78C136.651 242.719 136.633 242.66 136.611 242.604C136.532 242.403 136.411 242.236 136.247 242.103C136.179 242.048 136.103 241.998 136.02 241.955C135.82 241.85 135.576 241.78 135.289 241.747C135.159 241.732 135.02 241.724 134.871 241.724H132.099ZM132.099 247.708V250.876H135.531C135.591 250.876 135.65 250.875 135.707 250.872C136.236 250.849 136.643 250.719 136.928 250.485C136.991 250.434 137.048 250.377 137.099 250.315C137.101 250.313 137.103 250.31 137.105 250.308C137.26 250.118 137.358 249.882 137.4 249.6C137.412 249.523 137.419 249.442 137.422 249.358C137.423 249.329 137.423 249.3 137.423 249.27C137.423 248.834 137.315 248.493 137.099 248.241C136.792 247.883 136.268 247.708 135.531 247.708H132.099ZM163.086 250.546V257.102H167.09V254H176.946V257.102H180.928V250.546H178.838V238.6H166.43L166.254 243.352C166.252 243.427 166.249 243.501 166.246 243.575C166.245 243.579 166.245 243.583 166.245 243.587C166.166 245.51 166.003 247.184 165.642 248.408C165.54 248.755 165.421 249.066 165.284 249.336C165.203 249.496 165.115 249.642 165.021 249.772C164.684 250.235 164.258 250.506 163.718 250.542C163.691 250.544 163.664 250.545 163.636 250.546H163.086ZM174.548 250.546V242.054H170.126L170.06 243.726C170.037 244.357 170.005 244.966 169.959 245.546C169.874 246.629 169.744 247.613 169.548 248.454C169.504 248.644 169.457 248.826 169.406 249C169.225 249.619 169 250.141 168.718 250.546H174.548ZM184.111 254H196.475V250.634H188.423V247.818H195.265V244.562H188.423V241.966H196.189V238.6H184.111V254ZM199.893 242.666C199.594 243.255 199.368 243.89 199.225 244.562C199.122 245.046 199.062 245.549 199.049 246.068C199.047 246.145 199.046 246.222 199.046 246.3C199.046 246.315 199.046 246.33 199.046 246.344C199.048 246.852 199.095 247.344 199.182 247.818C199.313 248.533 199.537 249.208 199.843 249.833C199.979 250.11 200.131 250.377 200.298 250.634C200.632 251.147 201.027 251.616 201.475 252.035C202.999 253.461 205.139 254.308 207.604 254.308C212.532 254.308 216.162 250.92 216.162 246.3C216.162 241.68 212.532 238.292 207.604 238.292C204.981 238.292 202.725 239.252 201.189 240.846C200.857 241.191 200.559 241.565 200.298 241.966C200.151 242.191 200.016 242.425 199.893 242.666ZM149.224 228V222.104H151.204L154.702 228H159.608L154.746 220.036L159.564 212.6H154.988L151.314 218.584H149.224V212.6H144.89V228H149.224ZM165.322 228H169.612V216.054H174.32V212.6H160.592V216.054H165.322V228ZM177.428 228H181.542L187.878 218.98V228H192.168V212.6H188.076L181.718 221.642V212.6H177.428V228ZM196.574 212.6V228H200.93V223.974H203.614C205.377 223.974 206.865 223.591 207.999 222.887C209.006 222.262 209.733 221.385 210.124 220.3C210.342 219.695 210.456 219.025 210.456 218.298C210.456 216.773 209.961 215.501 209.058 214.547C207.876 213.3 205.996 212.6 203.614 212.6H196.574ZM200.93 216.032V220.542H203.35C203.441 220.542 203.529 220.54 203.614 220.536C204.873 220.475 205.645 219.97 205.93 219.127C206.014 218.879 206.056 218.602 206.056 218.298C206.056 217.989 206.014 217.708 205.93 217.458C205.645 216.604 204.873 216.099 203.614 216.038C203.529 216.034 203.441 216.032 203.35 216.032H200.93ZM213.729 224.172C215.126 226.693 217.91 228.308 221.313 228.308C224.284 228.308 226.783 227.076 228.3 225.086C229.298 223.775 229.871 222.134 229.871 220.3C229.871 218.466 229.298 216.825 228.3 215.514C226.783 213.524 224.284 212.292 221.313 212.292C218.697 212.292 216.447 213.247 214.911 214.833C213.991 215.784 213.327 216.962 212.995 218.298C212.838 218.932 212.755 219.602 212.755 220.3C212.755 221.73 213.102 223.042 213.729 224.172ZM233.3 228H241.198C242.379 228 243.399 227.849 244.25 227.566C244.963 227.329 245.557 226.998 246.026 226.585C246.747 225.95 247.173 225.121 247.284 224.135C247.304 223.961 247.314 223.783 247.314 223.6C247.314 223.488 247.31 223.378 247.303 223.27C247.253 222.547 247.038 221.928 246.673 221.414C246.529 221.211 246.362 221.024 246.172 220.854C245.735 220.463 245.18 220.16 244.52 219.948C245.171 219.622 245.689 219.173 246.046 218.62C246.307 218.214 246.483 217.753 246.562 217.242C246.594 217.037 246.61 216.824 246.61 216.604C246.61 216.133 246.536 215.699 246.393 215.304C245.761 213.565 243.775 212.6 240.78 212.6H233.3V228ZM237.59 224.876H241.022C241.082 224.876 241.141 224.875 241.198 224.872C241.726 224.849 242.134 224.719 242.419 224.485C242.482 224.434 242.539 224.377 242.59 224.315C242.592 224.313 242.594 224.31 242.596 224.308C242.75 224.118 242.849 223.882 242.891 223.6C242.902 223.523 242.909 223.442 242.912 223.358C242.913 223.329 242.914 223.3 242.914 223.27C242.914 222.834 242.805 222.493 242.59 222.241C242.283 221.883 241.759 221.708 241.022 221.708H237.59V224.876ZM240.362 218.76C240.606 218.76 240.826 218.74 241.022 218.7C241.632 218.576 242.007 218.259 242.147 217.749C242.152 217.733 242.156 217.718 242.16 217.702C242.193 217.562 242.21 217.409 242.21 217.242C242.21 217.075 242.192 216.921 242.157 216.78C242.142 216.719 242.123 216.66 242.101 216.604C242.022 216.403 241.901 216.236 241.737 216.103C241.669 216.048 241.593 215.998 241.51 215.955C241.31 215.85 241.066 215.78 240.78 215.747C240.649 215.732 240.51 215.724 240.362 215.724H237.59V218.76H240.362ZM272.64 228H276.93V216.054H281.638V212.6H267.91V216.054H272.64V228ZM284.746 228H292.028C296 228 298.478 226.16 298.518 222.61C298.518 222.581 298.518 222.551 298.518 222.522C298.518 219.156 296.34 217.506 292.6 217.506H289.036V212.6H284.746V228ZM289.036 224.876H291.742C291.84 224.876 291.935 224.872 292.028 224.865C293.049 224.785 293.777 224.267 294.036 223.383C294.105 223.15 294.14 222.892 294.14 222.61C294.14 222.58 294.14 222.551 294.139 222.522C294.133 222.273 294.098 222.052 294.036 221.856C293.83 221.198 293.325 220.832 292.6 220.685C292.341 220.633 292.054 220.608 291.742 220.608H289.036V224.876ZM249.231 228H253.675L254.885 225.008H261.397L262.607 228H267.139L260.319 212.6H256.029L249.231 228ZM256.161 221.796H260.121L258.141 216.868L256.161 221.796ZM46.2832 220.008C46.0395 219.758 45.7644 219.7 45.6565 219.7C45.5487 219.7 45.2735 219.758 45.0299 220.008C44.924 220.116 44.8628 220.224 44.8321 220.3C44.8628 220.376 44.924 220.484 45.0299 220.592C45.2735 220.842 45.5487 220.9 45.6565 220.9C45.7644 220.9 46.0395 220.842 46.2832 220.592C46.389 220.484 46.4502 220.376 46.4809 220.3C46.4502 220.224 46.389 220.116 46.2832 220.008ZM221.939 220.008C221.696 219.758 221.421 219.7 221.313 219.7C221.205 219.7 220.93 219.758 220.686 220.008C220.58 220.116 220.519 220.224 220.488 220.3C220.519 220.376 220.58 220.484 220.686 220.592C220.93 220.842 221.205 220.9 221.313 220.9C221.421 220.9 221.696 220.842 221.939 220.592C222.045 220.484 222.106 220.376 222.137 220.3C222.106 220.224 222.045 220.116 221.939 220.008ZM208.23 246.008C207.987 245.758 207.711 245.7 207.604 245.7C207.496 245.7 207.221 245.758 206.977 246.008C206.871 246.116 206.81 246.224 206.779 246.3C206.81 246.376 206.871 246.484 206.977 246.592C207.221 246.842 207.496 246.9 207.604 246.9C207.711 246.9 207.987 246.842 208.23 246.592C208.336 246.484 208.397 246.376 208.428 246.3C208.397 246.224 208.336 246.116 208.23 246.008ZM41.4985 220.3C41.4985 222.962 43.3245 224.7 45.6565 224.7C47.9885 224.7 49.8145 222.962 49.8145 220.3C49.8145 217.638 47.9885 215.9 45.6565 215.9C43.3245 215.9 41.4985 217.638 41.4985 220.3ZM217.155 220.3C217.155 222.962 218.981 224.7 221.313 224.7C223.645 224.7 225.471 222.962 225.471 220.3C225.471 217.638 223.645 215.9 221.313 215.9C218.981 215.9 217.155 217.638 217.155 220.3ZM203.446 246.3C203.446 248.962 205.272 250.7 207.604 250.7C209.936 250.7 211.762 248.962 211.762 246.3C211.762 243.638 209.936 241.9 207.604 241.9C205.272 241.9 203.446 243.638 203.446 246.3Z" fill="white"/>
<rect x="16" y="282" width="304" height="91" rx="24" fill="white"/>
<rect x="16" y="397" width="125" height="43" rx="13" fill="white"/>
<rect x="195" y="397" width="125" height="43" rx="13" fill="white"/>
<path d="M51.285 317.14C54.323 317.14 56.563 315.012 56.563 312.1C56.563 309.188 54.323 307.06 51.285 307.06C48.247 307.06 46.007 309.202 46.007 312.1C46.007 314.998 48.247 317.14 51.285 317.14ZM51.285 315.544C49.311 315.544 47.841 314.102 47.841 312.1C47.841 310.098 49.311 308.656 51.285 308.656C53.259 308.656 54.729 310.098 54.729 312.1C54.729 314.102 53.259 315.544 51.285 315.544ZM64.1644 309.524H57.1644V311.008H59.7964V317H61.5464V311.008H64.1644V309.524ZM69.5778 309.44C68.5558 309.44 67.6878 309.79 67.0998 310.504V309.524H65.4338V319.716H67.1838V316.09C67.7858 316.776 68.6258 317.098 69.5778 317.098C71.7618 317.098 73.3718 315.586 73.3718 313.262C73.3718 310.952 71.7618 309.44 69.5778 309.44ZM69.3818 315.6C68.1218 315.6 67.1558 314.69 67.1558 313.262C67.1558 311.834 68.1218 310.924 69.3818 310.924C70.6418 310.924 71.5938 311.834 71.5938 313.262C71.5938 314.69 70.6418 315.6 69.3818 315.6ZM82.1135 313.304C82.1135 310.966 80.5175 309.44 78.3335 309.44C76.1075 309.44 74.4695 311.036 74.4695 313.262C74.4695 315.488 76.0935 317.098 78.5995 317.098C79.8875 317.098 80.9375 316.678 81.6095 315.88L80.6715 314.802C80.1395 315.348 79.4815 315.614 78.6415 315.614C77.3395 315.614 76.4295 314.914 76.2195 313.822H82.0855C82.0995 313.654 82.1135 313.444 82.1135 313.304ZM78.3335 310.84C79.4815 310.84 80.3075 311.582 80.4475 312.66H76.2055C76.3735 311.568 77.1995 310.84 78.3335 310.84ZM90.8059 315.516V309.524H84.6459L84.5479 312.086C84.4639 313.836 84.2819 315.474 83.2319 315.516H82.8819V318.666H84.5059V317H90.2739V318.666H91.9119V315.516H90.8059ZM86.1439 312.212L86.1859 311.008H89.0559V315.516H85.3739C85.9759 314.942 86.0879 313.612 86.1439 312.212ZM96.2608 309.44C95.0568 309.44 93.8948 309.748 93.0968 310.364L93.7828 311.638C94.3428 311.176 95.2108 310.896 96.0508 310.896C97.2968 310.896 97.9128 311.498 97.9128 312.52V312.632H95.9808C93.7128 312.632 92.8728 313.612 92.8728 314.858C92.8728 316.16 93.9508 317.098 95.6588 317.098C96.7788 317.098 97.5908 316.734 98.0108 316.09V317H99.6628V312.618C99.6628 310.462 98.4168 309.44 96.2608 309.44ZM96.0228 315.824C95.1268 315.824 94.5948 315.418 94.5948 314.788C94.5948 314.242 94.9168 313.794 96.1068 313.794H97.9128V314.662C97.6188 315.432 96.8768 315.824 96.0228 315.824ZM107.19 317H109.248L106.35 313.122L109.066 309.524H107.19L104.978 312.548H103.578V309.524H101.828V317H103.578V314.004H104.936L107.19 317ZM116.309 309.524H109.309V311.008H111.941V317H113.691V311.008H116.309V309.524ZM117.578 317H119.188L123.304 312.072V317H125.054V309.524H123.458L119.328 314.452V309.524H117.578V317ZM131.552 309.44C130.53 309.44 129.662 309.79 129.074 310.504V309.524H127.408V319.716H129.158V316.09C129.76 316.776 130.6 317.098 131.552 317.098C133.736 317.098 135.346 315.586 135.346 313.262C135.346 310.952 133.736 309.44 131.552 309.44ZM131.356 315.6C130.096 315.6 129.13 314.69 129.13 313.262C129.13 311.834 130.096 310.924 131.356 310.924C132.616 310.924 133.568 311.834 133.568 313.262C133.568 314.69 132.616 315.6 131.356 315.6ZM140.42 317.098C142.744 317.098 144.41 315.502 144.41 313.262C144.41 311.022 142.744 309.44 140.42 309.44C138.124 309.44 136.444 311.022 136.444 313.262C136.444 315.502 138.124 317.098 140.42 317.098ZM140.42 315.6C139.16 315.6 138.208 314.69 138.208 313.262C138.208 311.834 139.16 310.924 140.42 310.924C141.694 310.924 142.646 311.834 142.646 313.262C142.646 314.69 141.694 315.6 140.42 315.6ZM151.557 313.108C152.271 312.8 152.705 312.226 152.705 311.456C152.705 310.224 151.613 309.524 149.793 309.524H146.139V317H149.947C151.963 317 152.943 316.216 152.943 314.9C152.943 313.99 152.481 313.388 151.557 313.108ZM147.805 310.798H149.639C150.535 310.798 150.997 311.092 150.997 311.708C150.997 312.324 150.535 312.646 149.639 312.646H147.805V310.798ZM149.807 315.726H147.805V313.808H149.863C150.815 313.808 151.249 314.13 151.249 314.788C151.249 315.432 150.745 315.726 149.807 315.726ZM157.593 309.44C156.389 309.44 155.227 309.748 154.429 310.364L155.115 311.638C155.675 311.176 156.543 310.896 157.383 310.896C158.629 310.896 159.245 311.498 159.245 312.52V312.632H157.313C155.045 312.632 154.205 313.612 154.205 314.858C154.205 316.16 155.283 317.098 156.991 317.098C158.111 317.098 158.923 316.734 159.343 316.09V317H160.995V312.618C160.995 310.462 159.749 309.44 157.593 309.44ZM157.355 315.824C156.459 315.824 155.927 315.418 155.927 314.788C155.927 314.242 156.249 313.794 157.439 313.794H159.245V314.662C158.951 315.432 158.209 315.824 157.355 315.824ZM169.082 309.524H162.082V311.008H164.714V317H166.464V311.008H169.082V309.524ZM174.104 311.988L172.102 311.974V309.524H170.352V317L173.852 317.014C175.896 317.028 177.058 316.09 177.058 314.452C177.058 312.898 176.022 311.988 174.104 311.988ZM173.698 315.726L172.102 315.712V313.178L173.698 313.192C174.734 313.206 175.28 313.57 175.28 314.424C175.28 315.292 174.72 315.74 173.698 315.726ZM187.883 313.108C188.597 312.8 189.031 312.226 189.031 311.456C189.031 310.224 187.939 309.524 186.119 309.524H182.465V317H186.273C188.289 317 189.269 316.216 189.269 314.9C189.269 313.99 188.807 313.388 187.883 313.108ZM184.131 310.798H185.965C186.861 310.798 187.323 311.092 187.323 311.708C187.323 312.324 186.861 312.646 185.965 312.646H184.131V310.798ZM186.133 315.726H184.131V313.808H186.189C187.141 313.808 187.575 314.13 187.575 314.788C187.575 315.432 187.071 315.726 186.133 315.726ZM191.133 317H192.743L196.859 312.072V317H198.609V309.524H197.013L192.883 314.452V309.524H191.133V317ZM207.837 315.516V309.524H201.677L201.579 312.086C201.495 313.836 201.313 315.474 200.263 315.516H199.913V318.666H201.537V317H207.305V318.666H208.943V315.516H207.837ZM203.175 312.212L203.217 311.008H206.087V315.516H202.405C203.007 314.942 203.119 313.612 203.175 312.212ZM217.506 313.304C217.506 310.966 215.91 309.44 213.726 309.44C211.5 309.44 209.862 311.036 209.862 313.262C209.862 315.488 211.486 317.098 213.992 317.098C215.28 317.098 216.33 316.678 217.002 315.88L216.064 314.802C215.532 315.348 214.874 315.614 214.034 315.614C212.732 315.614 211.822 314.914 211.612 313.822H217.478C217.492 313.654 217.506 313.444 217.506 313.304ZM213.726 310.84C214.874 310.84 215.7 311.582 215.84 312.66H211.598C211.766 311.568 212.592 310.84 213.726 310.84ZM222.752 317.098C225.076 317.098 226.742 315.502 226.742 313.262C226.742 311.022 225.076 309.44 222.752 309.44C220.456 309.44 218.776 311.022 218.776 313.262C218.776 315.502 220.456 317.098 222.752 317.098ZM222.752 315.6C221.492 315.6 220.54 314.69 220.54 313.262C220.54 311.834 221.492 310.924 222.752 310.924C224.026 310.924 224.978 311.834 224.978 313.262C224.978 314.69 224.026 315.6 222.752 315.6ZM235.672 317.098C237.996 317.098 239.662 315.502 239.662 313.262C239.662 311.022 237.996 309.44 235.672 309.44C233.376 309.44 231.696 311.022 231.696 313.262C231.696 315.502 233.376 317.098 235.672 317.098ZM235.672 315.6C234.412 315.6 233.46 314.69 233.46 313.262C233.46 311.834 234.412 310.924 235.672 310.924C236.946 310.924 237.898 311.834 237.898 313.262C237.898 314.69 236.946 315.6 235.672 315.6ZM241.391 317H243.141V314.046H246.907V317H248.657V309.524H246.907V312.562H243.141V309.524H241.391V317ZM251.73 309.524L251.604 312.408C251.52 313.962 251.478 315.558 250.33 315.558C250.232 315.558 250.12 315.544 249.994 315.516L249.91 316.986C250.274 317.084 250.596 317.14 250.876 317.14C252.64 317.14 253.032 315.152 253.158 312.492L253.228 311.008H256.028V317H257.778V309.524H251.73ZM262.921 309.44C261.717 309.44 260.555 309.748 259.757 310.364L260.443 311.638C261.003 311.176 261.871 310.896 262.711 310.896C263.957 310.896 264.573 311.498 264.573 312.52V312.632H262.641C260.373 312.632 259.533 313.612 259.533 314.858C259.533 316.16 260.611 317.098 262.319 317.098C263.439 317.098 264.251 316.734 264.671 316.09V317H266.323V312.618C266.323 310.462 265.077 309.44 262.921 309.44ZM262.683 315.824C261.787 315.824 261.255 315.418 261.255 314.788C261.255 314.242 261.577 313.794 262.767 313.794H264.573V314.662C264.279 315.432 263.537 315.824 262.683 315.824ZM272.115 308.642C273.613 308.642 274.439 307.942 274.467 306.584H273.277C273.263 307.256 272.815 307.676 272.101 307.676C271.373 307.676 270.953 307.256 270.939 306.584H269.777C269.791 307.942 270.617 308.642 272.115 308.642ZM268.489 317H270.099L274.215 312.072V317H275.965V309.524H274.369L270.239 314.452V309.524H268.489V317ZM278.319 317H280.069V314.046H283.835V317H285.585V309.524H283.835V312.562H280.069V309.524H278.319V317ZM45.9901 333.098C47.4461 333.098 48.6081 332.468 49.1821 331.348L47.8381 330.564C47.3901 331.278 46.7181 331.6 45.9761 331.6C44.6881 331.6 43.7081 330.718 43.7081 329.262C43.7081 327.82 44.6881 326.924 45.9761 326.924C46.7181 326.924 47.3901 327.246 47.8381 327.96L49.1821 327.176C48.6081 326.042 47.4461 325.44 45.9901 325.44C43.6241 325.44 41.9441 327.022 41.9441 329.262C41.9441 331.502 43.6241 333.098 45.9901 333.098ZM54.592 325.524V333H56.342V327.008H60.024V333H61.76V325.524H54.592ZM67.4533 333.098C69.7773 333.098 71.4433 331.502 71.4433 329.262C71.4433 327.022 69.7773 325.44 67.4533 325.44C65.1573 325.44 63.4773 327.022 63.4773 329.262C63.4773 331.502 65.1573 333.098 67.4533 333.098ZM67.4533 331.6C66.1933 331.6 65.2413 330.69 65.2413 329.262C65.2413 327.834 66.1933 326.924 67.4533 326.924C68.7273 326.924 69.6793 327.834 69.6793 329.262C69.6793 330.69 68.7273 331.6 67.4533 331.6ZM82.1041 333L82.0901 325.524H80.4521L77.6661 330.2L75.0061 325.524H73.1721V333H74.7681V328.03L77.2461 332.216H78.0021L80.5221 328.044V333H82.1041ZM87.7834 333.098C90.1074 333.098 91.7734 331.502 91.7734 329.262C91.7734 327.022 90.1074 325.44 87.7834 325.44C85.4874 325.44 83.8074 327.022 83.8074 329.262C83.8074 331.502 85.4874 333.098 87.7834 333.098ZM87.7834 331.6C86.5234 331.6 85.5714 330.69 85.5714 329.262C85.5714 327.834 86.5234 326.924 87.7834 326.924C89.0574 326.924 90.0094 327.834 90.0094 329.262C90.0094 330.69 89.0574 331.6 87.7834 331.6ZM104.52 331.516V325.524H102.77V331.516H99.9002V325.524H98.1502V331.516H95.2522V325.524H93.5022V333H103.96V334.54H105.598V331.516H104.52ZM110.625 327.988L108.623 327.974V325.524H106.873V333L110.373 333.014C112.417 333.028 113.579 332.09 113.579 330.452C113.579 328.898 112.543 327.988 110.625 327.988ZM110.219 331.726L108.623 331.712V329.178L110.219 329.192C111.255 329.206 111.801 329.57 111.801 330.424C111.801 331.292 111.241 331.74 110.219 331.726ZM121.949 325.44C120.003 325.44 118.505 326.63 118.155 328.422H116.867V325.524H115.117V333H116.867V330.004H118.127C118.449 331.852 119.961 333.098 121.949 333.098C124.203 333.098 125.841 331.502 125.841 329.262C125.841 327.008 124.203 325.44 121.949 325.44ZM121.949 331.614C120.731 331.614 119.807 330.704 119.807 329.262C119.807 327.82 120.731 326.924 121.949 326.924C123.167 326.924 124.105 327.82 124.105 329.262C124.105 330.704 123.167 331.614 121.949 331.614ZM135.474 325.888C134.326 325.888 133.346 326.35 132.688 327.148C132.842 325.524 133.696 324.684 135.502 324.306L138.652 323.662L138.4 322.094L134.928 322.836C132.268 323.396 131.008 325.146 131.008 328.142C131.008 331.404 132.52 333.14 135.082 333.14C137.434 333.14 139.072 331.67 139.072 329.472C139.072 327.358 137.616 325.888 135.474 325.888ZM135.124 331.726C133.836 331.726 132.94 330.816 132.94 329.514C132.94 328.212 133.822 327.372 135.124 327.372C136.412 327.372 137.28 328.212 137.28 329.514C137.28 330.802 136.412 331.726 135.124 331.726ZM147.766 329.304C147.766 326.966 146.17 325.44 143.986 325.44C141.76 325.44 140.122 327.036 140.122 329.262C140.122 331.488 141.746 333.098 144.252 333.098C145.54 333.098 146.59 332.678 147.262 331.88L146.324 330.802C145.792 331.348 145.134 331.614 144.294 331.614C142.992 331.614 142.082 330.914 141.872 329.822H147.738C147.752 329.654 147.766 329.444 147.766 329.304ZM143.986 326.84C145.134 326.84 145.96 327.582 146.1 328.66H141.858C142.026 327.568 142.852 326.84 143.986 326.84ZM153.082 333.098C154.538 333.098 155.7 332.468 156.274 331.348L154.93 330.564C154.482 331.278 153.81 331.6 153.068 331.6C151.78 331.6 150.8 330.718 150.8 329.262C150.8 327.82 151.78 326.924 153.068 326.924C153.81 326.924 154.482 327.246 154.93 327.96L156.274 327.176C155.7 326.042 154.538 325.44 153.082 325.44C150.716 325.44 149.036 327.022 149.036 329.262C149.036 331.502 150.716 333.098 153.082 333.098ZM157.815 325.524V333H159.565V327.008H163.247V333H164.983V325.524H157.815ZM168.072 325.524L167.946 328.408C167.862 329.962 167.82 331.558 166.672 331.558C166.574 331.558 166.462 331.544 166.336 331.516L166.252 332.986C166.616 333.084 166.938 333.14 167.218 333.14C168.982 333.14 169.374 331.152 169.5 328.492L169.57 327.008H172.37V333H174.12V325.524H168.072ZM179.263 325.44C178.059 325.44 176.897 325.748 176.099 326.364L176.785 327.638C177.345 327.176 178.213 326.896 179.053 326.896C180.299 326.896 180.915 327.498 180.915 328.52V328.632H178.983C176.715 328.632 175.875 329.612 175.875 330.858C175.875 332.16 176.953 333.098 178.661 333.098C179.781 333.098 180.593 332.734 181.013 332.09V333H182.665V328.618C182.665 326.462 181.419 325.44 179.263 325.44ZM179.025 331.824C178.129 331.824 177.597 331.418 177.597 330.788C177.597 330.242 177.919 329.794 179.109 329.794H180.915V330.662C180.621 331.432 179.879 331.824 179.025 331.824ZM190.752 325.524H183.752V327.008H186.384V333H188.134V327.008H190.752V325.524ZM192.022 333H193.772V330.046H197.538V333H199.288V325.524H197.538V328.562H193.772V325.524H192.022V333ZM204.965 333.098C207.289 333.098 208.955 331.502 208.955 329.262C208.955 327.022 207.289 325.44 204.965 325.44C202.669 325.44 200.989 327.022 200.989 329.262C200.989 331.502 202.669 333.098 204.965 333.098ZM204.965 331.6C203.705 331.6 202.753 330.69 202.753 329.262C202.753 327.834 203.705 326.924 204.965 326.924C206.239 326.924 207.191 327.834 207.191 329.262C207.191 330.69 206.239 331.6 204.965 331.6ZM216.424 325.524H210.684V333H212.434V327.008H216.424V325.524ZM220.701 333.098C223.025 333.098 224.691 331.502 224.691 329.262C224.691 327.022 223.025 325.44 220.701 325.44C218.405 325.44 216.725 327.022 216.725 329.262C216.725 331.502 218.405 333.098 220.701 333.098ZM220.701 331.6C219.441 331.6 218.489 330.69 218.489 329.262C218.489 327.834 219.441 326.924 220.701 326.924C221.975 326.924 222.927 327.834 222.927 329.262C222.927 330.69 221.975 331.6 220.701 331.6ZM233.691 333.098C235.147 333.098 236.309 332.468 236.883 331.348L235.539 330.564C235.091 331.278 234.419 331.6 233.677 331.6C232.389 331.6 231.409 330.718 231.409 329.262C231.409 327.82 232.389 326.924 233.677 326.924C234.419 326.924 235.091 327.246 235.539 327.96L236.883 327.176C236.309 326.042 235.147 325.44 233.691 325.44C231.325 325.44 229.645 327.022 229.645 329.262C229.645 331.502 231.325 333.098 233.691 333.098ZM245.315 329.304C245.315 326.966 243.719 325.44 241.535 325.44C239.309 325.44 237.671 327.036 237.671 329.262C237.671 331.488 239.295 333.098 241.801 333.098C243.089 333.098 244.139 332.678 244.811 331.88L243.873 330.802C243.341 331.348 242.683 331.614 241.843 331.614C240.541 331.614 239.631 330.914 239.421 329.822H245.287C245.301 329.654 245.315 329.444 245.315 329.304ZM241.535 326.84C242.683 326.84 243.509 327.582 243.649 328.66H239.407C239.575 327.568 240.401 326.84 241.535 326.84ZM251.373 325.44C250.351 325.44 249.483 325.79 248.895 326.504V325.524H247.229V335.716H248.979V332.09C249.581 332.776 250.421 333.098 251.373 333.098C253.557 333.098 255.167 331.586 255.167 329.262C255.167 326.952 253.557 325.44 251.373 325.44ZM251.177 331.6C249.917 331.6 248.951 330.69 248.951 329.262C248.951 327.834 249.917 326.924 251.177 326.924C252.437 326.924 253.389 327.834 253.389 329.262C253.389 330.69 252.437 331.6 251.177 331.6ZM262.326 329.108C263.04 328.8 263.474 328.226 263.474 327.456C263.474 326.224 262.382 325.524 260.562 325.524H256.908V333H260.716C262.732 333 263.712 332.216 263.712 330.9C263.712 329.99 263.25 329.388 262.326 329.108ZM258.574 326.798H260.408C261.304 326.798 261.766 327.092 261.766 327.708C261.766 328.324 261.304 328.646 260.408 328.646H258.574V326.798ZM260.576 331.726H258.574V329.808H260.632C261.584 329.808 262.018 330.13 262.018 330.788C262.018 331.432 261.514 331.726 260.576 331.726ZM265.576 333H267.186L271.302 328.072V333H273.052V325.524H271.456L267.326 330.452V325.524H265.576V333ZM278.808 333.098C280.264 333.098 281.426 332.468 282 331.348L280.656 330.564C280.208 331.278 279.536 331.6 278.794 331.6C277.506 331.6 276.526 330.718 276.526 329.262C276.526 327.82 277.506 326.924 278.794 326.924C279.536 326.924 280.208 327.246 280.656 327.96L282 327.176C281.426 326.042 280.264 325.44 278.808 325.44C276.442 325.44 274.762 327.022 274.762 329.262C274.762 331.502 276.442 333.098 278.808 333.098ZM286.327 325.44C285.123 325.44 283.961 325.748 283.163 326.364L283.849 327.638C284.409 327.176 285.277 326.896 286.117 326.896C287.363 326.896 287.979 327.498 287.979 328.52V328.632H286.047C283.779 328.632 282.939 329.612 282.939 330.858C282.939 332.16 284.017 333.098 285.725 333.098C286.845 333.098 287.657 332.734 288.077 332.09V333H289.729V328.618C289.729 326.462 288.483 325.44 286.327 325.44ZM286.089 331.824C285.193 331.824 284.661 331.418 284.661 330.788C284.661 330.242 284.983 329.794 286.173 329.794H287.979V330.662C287.685 331.432 286.943 331.824 286.089 331.824ZM125.731 347.516V341.524H119.571L119.473 344.086C119.389 345.836 119.207 347.474 118.157 347.516H117.807V350.666H119.431V349H125.199V350.666H126.837V347.516H125.731ZM121.069 344.212L121.111 343.008H123.981V347.516H120.299C120.901 346.942 121.013 345.612 121.069 344.212ZM129.128 341.524L129.002 344.408C128.918 345.962 128.876 347.558 127.728 347.558C127.63 347.558 127.518 347.544 127.392 347.516L127.308 348.986C127.672 349.084 127.994 349.14 128.274 349.14C130.038 349.14 130.43 347.152 130.556 344.492L130.626 343.008H133.426V349H135.176V341.524H129.128ZM140.416 341.524C138.33 341.524 137 342.462 137 344.212C137 345.36 137.602 346.144 138.666 346.508L136.902 349H138.778L140.304 346.746H142.278V349H143.846V341.524H140.416ZM140.472 342.994H142.278V345.528H140.416C139.338 345.528 138.778 345.136 138.778 344.268C138.778 343.372 139.394 342.994 140.472 342.994ZM159.002 349L158.988 341.524H157.35L154.564 346.2L151.904 341.524H150.07V349H151.666V344.03L154.144 348.216H154.9L157.42 344.044V349H159.002ZM164.681 349.098C167.005 349.098 168.671 347.502 168.671 345.262C168.671 343.022 167.005 341.44 164.681 341.44C162.385 341.44 160.705 343.022 160.705 345.262C160.705 347.502 162.385 349.098 164.681 349.098ZM164.681 347.6C163.421 347.6 162.469 346.69 162.469 345.262C162.469 343.834 163.421 342.924 164.681 342.924C165.955 342.924 166.907 343.834 166.907 345.262C166.907 346.69 165.955 347.6 164.681 347.6ZM170.4 349H172.15V346.046H175.916V349H177.666V341.524H175.916V344.562H172.15V341.524H170.4V349ZM185.933 341.524H178.933V343.008H181.565V349H183.315V343.008H185.933V341.524ZM189.988 341.44C188.784 341.44 187.622 341.748 186.824 342.364L187.51 343.638C188.07 343.176 188.938 342.896 189.778 342.896C191.024 342.896 191.64 343.498 191.64 344.52V344.632H189.708C187.44 344.632 186.6 345.612 186.6 346.858C186.6 348.16 187.678 349.098 189.386 349.098C190.506 349.098 191.318 348.734 191.738 348.09V349H193.39V344.618C193.39 342.462 192.144 341.44 189.988 341.44ZM189.75 347.824C188.854 347.824 188.322 347.418 188.322 346.788C188.322 346.242 188.644 345.794 189.834 345.794H191.64V346.662C191.346 347.432 190.604 347.824 189.75 347.824ZM204.474 349H206.56L204.096 345.136L206.364 341.524H204.502L202.668 344.548H201.394V341.524H199.658V344.548H198.37L196.55 341.524H194.688L196.956 345.136L194.506 349H196.578L198.398 346.004H199.658V349H201.394V346.004H202.654L204.474 349ZM210.51 341.44C209.306 341.44 208.144 341.748 207.346 342.364L208.032 343.638C208.592 343.176 209.46 342.896 210.3 342.896C211.546 342.896 212.162 343.498 212.162 344.52V344.632H210.23C207.962 344.632 207.122 345.612 207.122 346.858C207.122 348.16 208.2 349.098 209.908 349.098C211.028 349.098 211.84 348.734 212.26 348.09V349H213.912V344.618C213.912 342.462 212.666 341.44 210.51 341.44ZM210.272 347.824C209.376 347.824 208.844 347.418 208.844 346.788C208.844 346.242 209.166 345.794 210.356 345.794H212.162V346.662C211.868 347.432 211.126 347.824 210.272 347.824ZM216.609 349.098C217.239 349.098 217.757 348.608 217.757 347.936C217.757 347.236 217.239 346.774 216.609 346.774C215.979 346.774 215.461 347.236 215.461 347.936C215.461 348.608 215.979 349.098 216.609 349.098Z" fill="black"/>
<g filter="url(#filter0_di)">
<path d="M179.101 126H139.497C134.274 126 130 130.274 130 135.497V167.503C130 172.726 134.274 177 139.497 177H179.101C184.324 177 188.598 172.726 188.598 167.503V135.497C188.598 130.179 184.324 126 179.101 126Z" fill="white"/>
<path d="M209.777 131.223C209.207 131.318 208.637 131.603 208.162 131.888L193.346 140.436V162.469L208.257 171.017C211.011 172.631 214.43 171.682 216.045 168.927C216.52 168.073 216.805 167.123 216.805 166.078V136.732C216.805 133.218 213.481 130.369 209.777 131.223Z" fill="white"/>
</g>
<path d="M250 5C250 26.7478 241.361 47.6048 225.983 62.9828C210.605 78.3607 189.748 87 168 87C146.252 87 125.395 78.3607 110.017 62.9828C94.6393 47.6048 86 26.7478 86 5.00002L168 5H250Z" fill="white"/>
<path d="M156 26V34.7429H163.53V66H175V26H156Z" fill="#46BBCE"/>
<path d="M48.032 423.216C48.032 414.96 35.328 417.52 35.328 414.096C35.328 412.976 36.288 412.08 38.944 412.08C40.896 412.08 43.008 412.656 45.152 413.808L47.104 409.104C45.312 408.048 42.976 407.408 40.608 407.216V403.76H36.768V407.28C31.584 407.92 29.056 410.896 29.056 414.416C29.056 422.736 41.792 420.144 41.792 423.696C41.792 424.784 40.768 425.52 38.144 425.52C35.552 425.52 32.736 424.624 30.752 423.312L28.672 427.984C30.528 429.264 33.568 430.192 36.768 430.416V433.84H40.608V430.288C45.6 429.552 48.032 426.608 48.032 423.216Z" fill="#00BCBC"/>
<path d="M60.58 417.26H59.44L59.66 414.6H65.5V412H56.96L56.24 419.88H59.82C62.36 419.88 63.08 420.6 63.08 421.7C63.08 422.84 62.08 423.52 60.46 423.52C59 423.52 57.54 423.06 56.48 422.26L55.2 424.74C56.56 425.7 58.6 426.24 60.54 426.24C64.54 426.24 66.36 424.08 66.36 421.6C66.36 419.12 64.72 417.26 60.58 417.26ZM73.6745 426.24C77.1345 426.24 79.6745 423.62 79.6745 419C79.6745 414.38 77.1345 411.76 73.6745 411.76C70.2345 411.76 67.6745 414.38 67.6745 419C67.6745 423.62 70.2345 426.24 73.6745 426.24ZM73.6745 423.5C72.0745 423.5 70.9545 422.18 70.9545 419C70.9545 415.82 72.0745 414.5 73.6745 414.5C75.2945 414.5 76.4145 415.82 76.4145 419C76.4145 422.18 75.2945 423.5 73.6745 423.5ZM92.9128 426.24C96.3728 426.24 98.9128 423.62 98.9128 419C98.9128 414.38 96.3728 411.76 92.9128 411.76C89.4728 411.76 86.9128 414.38 86.9128 419C86.9128 423.62 89.4728 426.24 92.9128 426.24ZM92.9128 423.5C91.3128 423.5 90.1928 422.18 90.1928 419C90.1928 415.82 91.3128 414.5 92.9128 414.5C94.5328 414.5 95.6528 415.82 95.6528 419C95.6528 422.18 94.5328 423.5 92.9128 423.5ZM106.487 426.24C109.947 426.24 112.487 423.62 112.487 419C112.487 414.38 109.947 411.76 106.487 411.76C103.047 411.76 100.487 414.38 100.487 419C100.487 423.62 103.047 426.24 106.487 426.24ZM106.487 423.5C104.887 423.5 103.767 422.18 103.767 419C103.767 415.82 104.887 414.5 106.487 414.5C108.107 414.5 109.227 415.82 109.227 419C109.227 422.18 108.107 423.5 106.487 423.5ZM120.061 426.24C123.521 426.24 126.061 423.62 126.061 419C126.061 414.38 123.521 411.76 120.061 411.76C116.621 411.76 114.061 414.38 114.061 419C114.061 423.62 116.621 426.24 120.061 426.24ZM120.061 423.5C118.461 423.5 117.341 422.18 117.341 419C117.341 415.82 118.461 414.5 120.061 414.5C121.681 414.5 122.801 415.82 122.801 419C122.801 422.18 121.681 423.5 120.061 423.5Z" fill="black"/>
<path d="M246.6 420.42H244.32V417.8H241.26V420.42H237.5L243.62 412H240.22L233.62 420.88V423.06H241.16V426H244.32V423.06H246.6V420.42ZM252.33 417.26H251.19L251.41 414.6H257.25V412H248.71L247.99 419.88H251.57C254.11 419.88 254.83 420.6 254.83 421.7C254.83 422.84 253.83 423.52 252.21 423.52C250.75 423.52 249.29 423.06 248.23 422.26L246.95 424.74C248.31 425.7 250.35 426.24 252.29 426.24C256.29 426.24 258.11 424.08 258.11 421.6C258.11 419.12 256.47 417.26 252.33 417.26ZM279.129 426L279.089 415.24H276.169L272.509 421.46L269.069 415.24H265.809V426H268.629V419.54L271.769 424.96H273.089L276.309 419.56V426H279.129ZM282.117 426H284.997L290.217 419.6V426H293.317V415.24H290.457L285.217 421.64V415.24H282.117V426ZM296.316 426H299.416V421.98H304.096V426H307.216V415.24H304.096V419.44H299.416V415.24H296.316V426Z" fill="black"/>
<path d="M216.5 406C209.595 406 204 411.595 204 418.5C204 425.405 209.595 431 216.5 431C223.405 431 229 425.405 229 418.5C229 411.595 223.405 406 216.5 406Z" fill="#00BCBC"/>
<path fill-rule="evenodd" clip-rule="evenodd" d="M215.961 410C214.878 410 214 410.878 214 411.961V419.153C214 419.311 214.019 419.464 214.054 419.611C214.047 420.263 214.376 420.901 214.974 421.262L220.414 424.535C221.313 425.077 222.481 424.786 223.022 423.887C223.563 422.988 223.273 421.82 222.374 421.279L217.923 418.6V411.961C217.923 410.878 217.045 410 215.961 410Z" fill="white"/>
<g filter="url(#filter1_d)">
<path d="M162.531 400.393L185.975 433.213C179.766 434.57 168.698 428.331 168.698 428.331C168.698 428.331 160.834 438.706 154.912 440L162.531 400.393Z" fill="white"/>
<path fill-rule="evenodd" clip-rule="evenodd" d="M154.912 440L158.469 421.51C161.522 424.284 164.956 426.604 168.698 428.331C168.698 428.331 160.834 438.706 154.912 440Z" fill="#BBFFF9"/>
</g>
<defs>
<filter id="filter0_di" x="124" y="120" width="106.805" height="71" filterUnits="userSpaceOnUse" color-interpolation-filters="sRGB">
<feFlood flood-opacity="0" result="BackgroundImageFix"/>
<feColorMatrix in="SourceAlpha" type="matrix" values="0 0 0 0 0 0 0 0 0 0 0 0 0 0 0 0 0 0 127 0"/>
<feOffset dx="4" dy="4"/>
<feGaussianBlur stdDeviation="5"/>
<feColorMatrix type="matrix" values="0 0 0 0 0.1715 0 0 0 0 0.816667 0 0 0 0 0.816667 0 0 0 1 0"/>
<feBlend mode="normal" in2="BackgroundImageFix" result="effect1_dropShadow"/>
<feBlend mode="normal" in="SourceGraphic" in2="effect1_dropShadow" result="shape"/>
<feColorMatrix in="SourceAlpha" type="matrix" values="0 0 0 0 0 0 0 0 0 0 0 0 0 0 0 0 0 0 127 0" result="hardAlpha"/>
<feOffset dx="-4" dy="-4"/>
<feGaussianBlur stdDeviation="4.5"/>
<feComposite in2="hardAlpha" operator="arithmetic" k2="-1" k3="1"/>
<feColorMatrix type="matrix" values="0 0 0 0 0.441945 0 0 0 0 0.887146 0 0 0 0 0.895833 0 0 0 0.52 0"/>
<feBlend mode="normal" in2="shape" result="effect2_innerShadow"/>
</filter>
<filter id="filter1_d" x="143" y="393" width="52.975" height="57.0001" filterUnits="userSpaceOnUse" color-interpolation-filters="sRGB">
<feFlood flood-opacity="0" result="BackgroundImageFix"/>
<feColorMatrix in="SourceAlpha" type="matrix" values="0 0 0 0 0 0 0 0 0 0 0 0 0 0 0 0 0 0 127 0"/>
<feOffset dx="3" dy="3"/>
<feGaussianBlur stdDeviation="3.5"/>
<feColorMatrix type="matrix" values="0 0 0 0 0.279 0 0 0 0 0.9 0 0 0 0 0.840225 0 0 0 1 0"/>
<feBlend mode="normal" in2="BackgroundImageFix" result="effect1_dropShadow"/>
<feBlend mode="normal" in="SourceGraphic" in2="effect1_dropShadow" result="shape"/>
</filter>
<linearGradient id="paint0_linear" x1="5.5" y1="-157" x2="289.5" y2="495.5" gradientUnits="userSpaceOnUse">
<stop stop-color="#00C2FF"/>
<stop offset="1" stop-color="#1EE7CF"/>
</linearGradient>
<linearGradient id="paint1_linear" x1="49" y1="11" x2="301.5" y2="474" gradientUnits="userSpaceOnUse">
<stop stop-color="#19D2EB"/>
<stop offset="1" stop-color="#55F5DF"/>
</linearGradient>
<linearGradient id="paint2_linear" x1="59.5" y1="-9" x2="291.5" y2="495.5" gradientUnits="userSpaceOnUse">
<stop stop-color="#00E0FF"/>
<stop offset="1" stop-color="#42F2D1"/>
</linearGradient>
<linearGradient id="paint3_linear" x1="51" y1="11" x2="303.5" y2="474" gradientUnits="userSpaceOnUse">
<stop stop-color="#B2F6FF"/>
<stop offset="1" stop-color="#28D7BE"/>
</linearGradient>
<linearGradient id="paint4_linear" x1="27" y1="473.49" x2="247.084" y2="60.8524" gradientUnits="userSpaceOnUse">
<stop stop-color="#73F5FF"/>
<stop offset="0.99" stop-color="#7AFFEC"/>
</linearGradient>
<linearGradient id="paint5_linear" x1="129.774" y1="288" x2="310" y2="288" gradientUnits="userSpaceOnUse">
<stop stop-color="white"/>
<stop offset="0.99" stop-color="white" stop-opacity="0.4"/>
</linearGradient>
<linearGradient id="paint6_linear" x1="59.8997" y1="86" x2="140" y2="86" gradientUnits="userSpaceOnUse">
<stop stop-color="white"/>
<stop offset="0.99" stop-color="white" stop-opacity="0.4"/>
</linearGradient>
</defs>
</svg>
