<svg width="338" height="474" viewBox="0 0 338 474" fill="none" xmlns="http://www.w3.org/2000/svg">
<rect x="2.5" y="2.5" width="331" height="469" rx="32.5" fill="url(#paint0_linear)" stroke="url(#paint1_linear)" stroke-width="5"/>
<mask id="mask0" mask-type="alpha" maskUnits="userSpaceOnUse" x="2" y="0" width="336" height="474">
<rect x="4.5" y="2.5" width="331" height="469" rx="41.5" fill="url(#paint2_linear)" stroke="url(#paint3_linear)" stroke-width="5"/>
</mask>
<g mask="url(#mask0)">
<path d="M198.89 5.0093C198.89 5.0093 97.8208 47.0947 93.9888 101.845C90.1568 156.595 112.775 152.615 106.069 185.086C99.3632 217.557 -10.9124 255.616 18.7856 356.766C48.4837 457.916 142.368 370.584 242 469H35C18.4315 469 5 455.569 5 439V35.0014C5 18.4323 18.4323 5.00064 35.0014 5.00144L198.89 5.0093Z" fill="url(#paint4_linear)" fill-opacity="0.5"/>
</g>
<path opacity="0.46" d="M219.887 378C202.092 377.978 184.702 372.68 169.917 362.777C155.131 352.875 143.613 338.811 136.819 322.363C130.024 305.916 128.258 287.824 131.743 270.373C135.229 252.922 143.809 236.896 156.4 224.321C168.992 211.745 185.028 203.185 202.483 199.721C219.939 196.258 238.029 198.046 254.468 204.862C270.906 211.677 284.956 223.212 294.84 238.01C304.724 252.808 310 270.204 310 288C309.958 311.876 300.447 334.761 283.553 351.633C266.66 368.506 243.763 377.988 219.887 378ZM219.887 222.747C206.985 222.764 194.378 226.607 183.659 233.788C172.94 240.969 164.59 251.166 159.665 263.091C154.74 275.016 153.461 288.134 155.989 300.786C158.517 313.438 164.739 325.056 173.868 334.173C182.998 343.29 194.625 349.496 207.28 352.006C219.936 354.517 233.051 353.219 244.97 348.278C256.888 343.336 267.074 334.972 274.24 324.243C281.406 313.515 285.231 300.902 285.231 288C285.177 270.703 278.27 254.132 266.022 241.918C253.774 229.704 237.184 222.843 219.887 222.837V222.747Z" fill="url(#paint5_linear)"/>
<path opacity="0.46" d="M99.9498 126C92.0407 125.99 84.3121 123.636 77.7407 119.234C71.1694 114.833 66.0503 108.583 63.0305 101.273C60.0106 93.9627 59.2257 85.9216 60.7747 78.1657C62.3238 70.4097 66.1374 63.2871 71.7335 57.698C77.3296 52.1089 84.457 48.3043 92.2148 46.7649C99.9727 45.2256 108.013 46.0207 115.319 49.0496C122.625 52.0786 128.869 57.2055 133.262 63.7824C137.655 70.3593 140 78.0909 140 86C139.981 96.6116 135.754 106.783 128.246 114.281C120.738 121.78 110.561 125.995 99.9498 126ZM99.9498 56.9985C94.2156 57.0064 88.6124 58.7141 83.8484 61.9056C79.0844 65.0972 75.3735 69.6294 73.1846 74.9294C70.9957 80.2294 70.4271 86.0594 71.5506 91.6825C72.6742 97.3056 75.4395 102.469 79.497 106.521C83.5545 110.573 88.7222 113.331 94.3468 114.447C99.9715 115.563 105.801 114.986 111.098 112.79C116.395 110.594 120.922 106.877 124.107 102.108C127.292 97.3398 128.991 91.7342 128.991 86C128.968 78.3124 125.898 70.9477 120.454 65.5193C115.011 60.0908 107.637 57.0412 99.9498 57.0386V56.9985Z" fill="url(#paint6_linear)"/>
<mask id="path-6-outside-1" maskUnits="userSpaceOnUse" x="42.1936" y="234.292" width="256" height="55" fill="black">
<rect fill="white" x="42.1936" y="234.292" width="256" height="55"/>
<path d="M59.0956 239.6L55.3776 247.036L51.7916 239.6H47.1936L53.1776 250.688C52.6056 251.524 51.9896 251.876 51.1316 251.876C50.6696 251.876 50.1856 251.788 49.5916 251.612L48.5576 254.824C49.5036 255.198 50.4056 255.396 51.2856 255.396C53.5956 255.396 55.5976 254.076 56.9616 251.502L63.3416 239.6H59.0956Z"/>
<path d="M72.0261 255.308C74.8641 255.308 77.1521 254.274 78.6481 252.404L75.8761 249.896C74.9081 251.062 73.7201 251.7 72.2461 251.7C69.7161 251.7 67.9561 249.94 67.9561 247.3C67.9561 244.66 69.7161 242.9 72.2461 242.9C73.7201 242.9 74.9081 243.538 75.8761 244.704L78.6481 242.196C77.1521 240.326 74.8641 239.292 72.0261 239.292C67.1421 239.292 63.5561 242.614 63.5561 247.3C63.5561 251.986 67.1421 255.308 72.0261 255.308Z"/>
<path d="M92.895 239.6H79.167V243.054H83.897V255H88.187V243.054H92.895V239.6Z"/>
<path d="M105.966 255H110.498L103.678 239.6H99.3876L92.5896 255H97.0336L98.2436 252.008H104.756L105.966 255ZM99.5196 248.796L101.5 243.868L103.48 248.796H99.5196Z"/>
<path d="M122.558 239.6V245.386H116.618V239.6H112.262V255H116.618V248.994H122.558V255H126.914V239.6H122.558Z"/>
<path d="M137.791 255.308C142.719 255.308 146.349 251.92 146.349 247.3C146.349 242.68 142.719 239.292 137.791 239.292C132.863 239.292 129.233 242.68 129.233 247.3C129.233 251.92 132.863 255.308 137.791 255.308ZM137.791 251.7C135.459 251.7 133.633 249.962 133.633 247.3C133.633 244.638 135.459 242.9 137.791 242.9C140.123 242.9 141.949 244.638 141.949 247.3C141.949 249.962 140.123 251.7 137.791 251.7Z"/>
<path d="M159.898 246.948C161.218 246.288 161.988 245.122 161.988 243.604C161.988 241.052 159.832 239.6 156.158 239.6H148.678V255H156.576C160.536 255 162.692 253.306 162.692 250.6C162.692 248.752 161.68 247.52 159.898 246.948ZM152.968 242.724H155.74C156.972 242.724 157.588 243.252 157.588 244.242C157.588 245.254 156.972 245.76 155.74 245.76H152.968V242.724ZM156.4 251.876H152.968V248.708H156.4C157.654 248.708 158.292 249.214 158.292 250.27C158.292 251.326 157.654 251.876 156.4 251.876Z"/>
<path d="M174.773 255H179.679L174.817 247.036L179.635 239.6H175.059L171.385 245.584H169.295V239.6H164.961V255H169.295V249.104H171.275L174.773 255Z"/>
<path d="M192.548 255H197.08L190.26 239.6H185.97L179.172 255H183.616L184.826 252.008H191.338L192.548 255ZM186.102 248.796L188.082 243.868L190.062 248.796H186.102Z"/>
<path d="M205.247 239.6V255H209.537V243.054H215.389V255H219.701V239.6H205.247Z"/>
<path d="M222.993 255H227.107L233.443 245.98V255H237.733V239.6H233.641L227.283 248.642V239.6H222.993V255Z"/>
<path d="M248.08 239.6H241.04V255H245.396V250.974H248.08C252.282 250.974 254.922 248.796 254.922 245.298C254.922 241.778 252.282 239.6 248.08 239.6ZM247.816 247.542H245.396V243.032H247.816C249.62 243.032 250.522 243.868 250.522 245.298C250.522 246.706 249.62 247.542 247.816 247.542Z"/>
<path d="M267.958 255H272.49L265.67 239.6H261.38L254.582 255H259.026L260.236 252.008H266.748L267.958 255ZM261.512 248.796L263.492 243.868L265.472 248.796H261.512Z"/>
<path d="M285.889 239.6H272.161V243.054H276.891V255H281.181V243.054H285.889V239.6Z"/>
<path d="M286.465 250.336H292.889V247.124H286.465V250.336Z"/>
<path d="M61.3591 281.308C64.1971 281.308 66.4851 280.274 67.9811 278.404L65.2091 275.896C64.2411 277.062 63.0531 277.7 61.5791 277.7C59.0491 277.7 57.2891 275.94 57.2891 273.3C57.2891 270.66 59.0491 268.9 61.5791 268.9C63.0531 268.9 64.2411 269.538 65.2091 270.704L67.9811 268.196C66.4851 266.326 64.1971 265.292 61.3591 265.292C56.4751 265.292 52.8891 268.614 52.8891 273.3C52.8891 277.986 56.4751 281.308 61.3591 281.308Z"/>
<path d="M79.6729 281H84.5789L79.7169 273.036L84.5349 265.6H79.9589L76.2849 271.584H74.1949V265.6H69.8609V281H74.1949V275.104H76.1749L79.6729 281Z"/>
<path d="M93.4583 281.308C98.3863 281.308 102.016 277.92 102.016 273.3C102.016 268.68 98.3863 265.292 93.4583 265.292C88.5303 265.292 84.9003 268.68 84.9003 273.3C84.9003 277.92 88.5303 281.308 93.4583 281.308ZM93.4583 277.7C91.1263 277.7 89.3003 275.962 89.3003 273.3C89.3003 270.638 91.1263 268.9 93.4583 268.9C95.7903 268.9 97.6163 270.638 97.6163 273.3C97.6163 275.962 95.7903 277.7 93.4583 277.7Z"/>
<path d="M115.631 265.6H104.345V281H108.635V269.054H115.609L115.631 265.6Z"/>
<path d="M123.816 281.308C128.744 281.308 132.374 277.92 132.374 273.3C132.374 268.68 128.744 265.292 123.816 265.292C118.888 265.292 115.258 268.68 115.258 273.3C115.258 277.92 118.888 281.308 123.816 281.308ZM123.816 277.7C121.484 277.7 119.658 275.962 119.658 273.3C119.658 270.638 121.484 268.9 123.816 268.9C126.148 268.9 127.974 270.638 127.974 273.3C127.974 275.962 126.148 277.7 123.816 277.7Z"/>
<path d="M148.145 265.6H141.105V281H145.461V276.974H148.145C152.347 276.974 154.987 274.796 154.987 271.298C154.987 267.778 152.347 265.6 148.145 265.6ZM147.881 273.542H145.461V269.032H147.881C149.685 269.032 150.587 269.868 150.587 271.298C150.587 272.706 149.685 273.542 147.881 273.542Z"/>
<path d="M161.273 277.634V274.818H168.115V271.562H161.273V268.966H169.039V265.6H156.961V281H169.325V277.634H161.273Z"/>
<path d="M186.26 277.546V265.6H173.852L173.676 270.352C173.522 274.466 173.016 277.502 171.058 277.546H170.508V284.102H174.512V281H184.368V284.102H188.35V277.546H186.26ZM177.482 270.726L177.548 269.054H181.97V277.546H176.14C177.042 276.248 177.372 273.74 177.482 270.726Z"/>
<path d="M202.441 281H206.973L200.153 265.6H195.863L189.065 281H193.509L194.719 278.008H201.231L202.441 281ZM195.995 274.796L197.975 269.868L199.955 274.796H195.995Z"/>
<path d="M218.462 281H223.368L218.506 273.036L223.324 265.6H218.748L215.074 271.584H212.984V265.6H208.65V281H212.984V275.104H214.964L218.462 281Z"/>
<path d="M236.98 265.6H223.252V269.054H227.982V281H232.272V269.054H236.98V265.6Z"/>
<path d="M246.341 281.308C251.269 281.308 254.899 277.92 254.899 273.3C254.899 268.68 251.269 265.292 246.341 265.292C241.413 265.292 237.783 268.68 237.783 273.3C237.783 277.92 241.413 281.308 246.341 281.308ZM246.341 277.7C244.009 277.7 242.183 275.962 242.183 273.3C242.183 270.638 244.009 268.9 246.341 268.9C248.673 268.9 250.499 270.638 250.499 273.3C250.499 275.962 248.673 277.7 246.341 277.7Z"/>
<path d="M264.268 265.6H257.228V281H261.584V276.974H264.268C268.47 276.974 271.11 274.796 271.11 271.298C271.11 267.778 268.47 265.6 264.268 265.6ZM264.004 273.542H261.584V269.032H264.004C265.808 269.032 266.71 269.868 266.71 271.298C266.71 272.706 265.808 273.542 264.004 273.542Z"/>
<path d="M284.146 281H288.678L281.858 265.6H277.568L270.77 281H275.214L276.424 278.008H282.936L284.146 281ZM277.7 274.796L279.68 269.868L281.66 274.796H277.7Z"/>
</mask>
<path d="M59.0956 239.6L55.3776 247.036L51.7916 239.6H47.1936L53.1776 250.688C52.6056 251.524 51.9896 251.876 51.1316 251.876C50.6696 251.876 50.1856 251.788 49.5916 251.612L48.5576 254.824C49.5036 255.198 50.4056 255.396 51.2856 255.396C53.5956 255.396 55.5976 254.076 56.9616 251.502L63.3416 239.6H59.0956Z" fill="black"/>
<path d="M72.0261 255.308C74.8641 255.308 77.1521 254.274 78.6481 252.404L75.8761 249.896C74.9081 251.062 73.7201 251.7 72.2461 251.7C69.7161 251.7 67.9561 249.94 67.9561 247.3C67.9561 244.66 69.7161 242.9 72.2461 242.9C73.7201 242.9 74.9081 243.538 75.8761 244.704L78.6481 242.196C77.1521 240.326 74.8641 239.292 72.0261 239.292C67.1421 239.292 63.5561 242.614 63.5561 247.3C63.5561 251.986 67.1421 255.308 72.0261 255.308Z" fill="black"/>
<path d="M92.895 239.6H79.167V243.054H83.897V255H88.187V243.054H92.895V239.6Z" fill="black"/>
<path d="M105.966 255H110.498L103.678 239.6H99.3876L92.5896 255H97.0336L98.2436 252.008H104.756L105.966 255ZM99.5196 248.796L101.5 243.868L103.48 248.796H99.5196Z" fill="black"/>
<path d="M122.558 239.6V245.386H116.618V239.6H112.262V255H116.618V248.994H122.558V255H126.914V239.6H122.558Z" fill="black"/>
<path d="M137.791 255.308C142.719 255.308 146.349 251.92 146.349 247.3C146.349 242.68 142.719 239.292 137.791 239.292C132.863 239.292 129.233 242.68 129.233 247.3C129.233 251.92 132.863 255.308 137.791 255.308ZM137.791 251.7C135.459 251.7 133.633 249.962 133.633 247.3C133.633 244.638 135.459 242.9 137.791 242.9C140.123 242.9 141.949 244.638 141.949 247.3C141.949 249.962 140.123 251.7 137.791 251.7Z" fill="black"/>
<path d="M159.898 246.948C161.218 246.288 161.988 245.122 161.988 243.604C161.988 241.052 159.832 239.6 156.158 239.6H148.678V255H156.576C160.536 255 162.692 253.306 162.692 250.6C162.692 248.752 161.68 247.52 159.898 246.948ZM152.968 242.724H155.74C156.972 242.724 157.588 243.252 157.588 244.242C157.588 245.254 156.972 245.76 155.74 245.76H152.968V242.724ZM156.4 251.876H152.968V248.708H156.4C157.654 248.708 158.292 249.214 158.292 250.27C158.292 251.326 157.654 251.876 156.4 251.876Z" fill="black"/>
<path d="M174.773 255H179.679L174.817 247.036L179.635 239.6H175.059L171.385 245.584H169.295V239.6H164.961V255H169.295V249.104H171.275L174.773 255Z" fill="black"/>
<path d="M192.548 255H197.08L190.26 239.6H185.97L179.172 255H183.616L184.826 252.008H191.338L192.548 255ZM186.102 248.796L188.082 243.868L190.062 248.796H186.102Z" fill="black"/>
<path d="M205.247 239.6V255H209.537V243.054H215.389V255H219.701V239.6H205.247Z" fill="black"/>
<path d="M222.993 255H227.107L233.443 245.98V255H237.733V239.6H233.641L227.283 248.642V239.6H222.993V255Z" fill="black"/>
<path d="M248.08 239.6H241.04V255H245.396V250.974H248.08C252.282 250.974 254.922 248.796 254.922 245.298C254.922 241.778 252.282 239.6 248.08 239.6ZM247.816 247.542H245.396V243.032H247.816C249.62 243.032 250.522 243.868 250.522 245.298C250.522 246.706 249.62 247.542 247.816 247.542Z" fill="black"/>
<path d="M267.958 255H272.49L265.67 239.6H261.38L254.582 255H259.026L260.236 252.008H266.748L267.958 255ZM261.512 248.796L263.492 243.868L265.472 248.796H261.512Z" fill="black"/>
<path d="M285.889 239.6H272.161V243.054H276.891V255H281.181V243.054H285.889V239.6Z" fill="black"/>
<path d="M286.465 250.336H292.889V247.124H286.465V250.336Z" fill="black"/>
<path d="M61.3591 281.308C64.1971 281.308 66.4851 280.274 67.9811 278.404L65.2091 275.896C64.2411 277.062 63.0531 277.7 61.5791 277.7C59.0491 277.7 57.2891 275.94 57.2891 273.3C57.2891 270.66 59.0491 268.9 61.5791 268.9C63.0531 268.9 64.2411 269.538 65.2091 270.704L67.9811 268.196C66.4851 266.326 64.1971 265.292 61.3591 265.292C56.4751 265.292 52.8891 268.614 52.8891 273.3C52.8891 277.986 56.4751 281.308 61.3591 281.308Z" fill="black"/>
<path d="M79.6729 281H84.5789L79.7169 273.036L84.5349 265.6H79.9589L76.2849 271.584H74.1949V265.6H69.8609V281H74.1949V275.104H76.1749L79.6729 281Z" fill="black"/>
<path d="M93.4583 281.308C98.3863 281.308 102.016 277.92 102.016 273.3C102.016 268.68 98.3863 265.292 93.4583 265.292C88.5303 265.292 84.9003 268.68 84.9003 273.3C84.9003 277.92 88.5303 281.308 93.4583 281.308ZM93.4583 277.7C91.1263 277.7 89.3003 275.962 89.3003 273.3C89.3003 270.638 91.1263 268.9 93.4583 268.9C95.7903 268.9 97.6163 270.638 97.6163 273.3C97.6163 275.962 95.7903 277.7 93.4583 277.7Z" fill="black"/>
<path d="M115.631 265.6H104.345V281H108.635V269.054H115.609L115.631 265.6Z" fill="black"/>
<path d="M123.816 281.308C128.744 281.308 132.374 277.92 132.374 273.3C132.374 268.68 128.744 265.292 123.816 265.292C118.888 265.292 115.258 268.68 115.258 273.3C115.258 277.92 118.888 281.308 123.816 281.308ZM123.816 277.7C121.484 277.7 119.658 275.962 119.658 273.3C119.658 270.638 121.484 268.9 123.816 268.9C126.148 268.9 127.974 270.638 127.974 273.3C127.974 275.962 126.148 277.7 123.816 277.7Z" fill="black"/>
<path d="M148.145 265.6H141.105V281H145.461V276.974H148.145C152.347 276.974 154.987 274.796 154.987 271.298C154.987 267.778 152.347 265.6 148.145 265.6ZM147.881 273.542H145.461V269.032H147.881C149.685 269.032 150.587 269.868 150.587 271.298C150.587 272.706 149.685 273.542 147.881 273.542Z" fill="black"/>
<path d="M161.273 277.634V274.818H168.115V271.562H161.273V268.966H169.039V265.6H156.961V281H169.325V277.634H161.273Z" fill="black"/>
<path d="M186.26 277.546V265.6H173.852L173.676 270.352C173.522 274.466 173.016 277.502 171.058 277.546H170.508V284.102H174.512V281H184.368V284.102H188.35V277.546H186.26ZM177.482 270.726L177.548 269.054H181.97V277.546H176.14C177.042 276.248 177.372 273.74 177.482 270.726Z" fill="black"/>
<path d="M202.441 281H206.973L200.153 265.6H195.863L189.065 281H193.509L194.719 278.008H201.231L202.441 281ZM195.995 274.796L197.975 269.868L199.955 274.796H195.995Z" fill="black"/>
<path d="M218.462 281H223.368L218.506 273.036L223.324 265.6H218.748L215.074 271.584H212.984V265.6H208.65V281H212.984V275.104H214.964L218.462 281Z" fill="black"/>
<path d="M236.98 265.6H223.252V269.054H227.982V281H232.272V269.054H236.98V265.6Z" fill="black"/>
<path d="M246.341 281.308C251.269 281.308 254.899 277.92 254.899 273.3C254.899 268.68 251.269 265.292 246.341 265.292C241.413 265.292 237.783 268.68 237.783 273.3C237.783 277.92 241.413 281.308 246.341 281.308ZM246.341 277.7C244.009 277.7 242.183 275.962 242.183 273.3C242.183 270.638 244.009 268.9 246.341 268.9C248.673 268.9 250.499 270.638 250.499 273.3C250.499 275.962 248.673 277.7 246.341 277.7Z" fill="black"/>
<path d="M264.268 265.6H257.228V281H261.584V276.974H264.268C268.47 276.974 271.11 274.796 271.11 271.298C271.11 267.778 268.47 265.6 264.268 265.6ZM264.004 273.542H261.584V269.032H264.004C265.808 269.032 266.71 269.868 266.71 271.298C266.71 272.706 265.808 273.542 264.004 273.542Z" fill="black"/>
<path d="M284.146 281H288.678L281.858 265.6H277.568L270.77 281H275.214L276.424 278.008H282.936L284.146 281ZM277.7 274.796L279.68 269.868L281.66 274.796H277.7Z" fill="black"/>
<path d="M59.0956 239.6L55.3776 247.036L51.7916 239.6H47.1936L53.1776 250.688C52.6056 251.524 51.9896 251.876 51.1316 251.876C50.6696 251.876 50.1856 251.788 49.5916 251.612L48.5576 254.824C49.5036 255.198 50.4056 255.396 51.2856 255.396C53.5956 255.396 55.5976 254.076 56.9616 251.502L63.3416 239.6H59.0956Z" stroke="white" stroke-width="10" stroke-linecap="round" stroke-linejoin="round" mask="url(#path-6-outside-1)"/>
<path d="M72.0261 255.308C74.8641 255.308 77.1521 254.274 78.6481 252.404L75.8761 249.896C74.9081 251.062 73.7201 251.7 72.2461 251.7C69.7161 251.7 67.9561 249.94 67.9561 247.3C67.9561 244.66 69.7161 242.9 72.2461 242.9C73.7201 242.9 74.9081 243.538 75.8761 244.704L78.6481 242.196C77.1521 240.326 74.8641 239.292 72.0261 239.292C67.1421 239.292 63.5561 242.614 63.5561 247.3C63.5561 251.986 67.1421 255.308 72.0261 255.308Z" stroke="white" stroke-width="10" stroke-linecap="round" stroke-linejoin="round" mask="url(#path-6-outside-1)"/>
<path d="M92.895 239.6H79.167V243.054H83.897V255H88.187V243.054H92.895V239.6Z" stroke="white" stroke-width="10" stroke-linecap="round" stroke-linejoin="round" mask="url(#path-6-outside-1)"/>
<path d="M105.966 255H110.498L103.678 239.6H99.3876L92.5896 255H97.0336L98.2436 252.008H104.756L105.966 255ZM99.5196 248.796L101.5 243.868L103.48 248.796H99.5196Z" stroke="white" stroke-width="10" stroke-linecap="round" stroke-linejoin="round" mask="url(#path-6-outside-1)"/>
<path d="M122.558 239.6V245.386H116.618V239.6H112.262V255H116.618V248.994H122.558V255H126.914V239.6H122.558Z" stroke="white" stroke-width="10" stroke-linecap="round" stroke-linejoin="round" mask="url(#path-6-outside-1)"/>
<path d="M137.791 255.308C142.719 255.308 146.349 251.92 146.349 247.3C146.349 242.68 142.719 239.292 137.791 239.292C132.863 239.292 129.233 242.68 129.233 247.3C129.233 251.92 132.863 255.308 137.791 255.308ZM137.791 251.7C135.459 251.7 133.633 249.962 133.633 247.3C133.633 244.638 135.459 242.9 137.791 242.9C140.123 242.9 141.949 244.638 141.949 247.3C141.949 249.962 140.123 251.7 137.791 251.7Z" stroke="white" stroke-width="10" stroke-linecap="round" stroke-linejoin="round" mask="url(#path-6-outside-1)"/>
<path d="M159.898 246.948C161.218 246.288 161.988 245.122 161.988 243.604C161.988 241.052 159.832 239.6 156.158 239.6H148.678V255H156.576C160.536 255 162.692 253.306 162.692 250.6C162.692 248.752 161.68 247.52 159.898 246.948ZM152.968 242.724H155.74C156.972 242.724 157.588 243.252 157.588 244.242C157.588 245.254 156.972 245.76 155.74 245.76H152.968V242.724ZM156.4 251.876H152.968V248.708H156.4C157.654 248.708 158.292 249.214 158.292 250.27C158.292 251.326 157.654 251.876 156.4 251.876Z" stroke="white" stroke-width="10" stroke-linecap="round" stroke-linejoin="round" mask="url(#path-6-outside-1)"/>
<path d="M174.773 255H179.679L174.817 247.036L179.635 239.6H175.059L171.385 245.584H169.295V239.6H164.961V255H169.295V249.104H171.275L174.773 255Z" stroke="white" stroke-width="10" stroke-linecap="round" stroke-linejoin="round" mask="url(#path-6-outside-1)"/>
<path d="M192.548 255H197.08L190.26 239.6H185.97L179.172 255H183.616L184.826 252.008H191.338L192.548 255ZM186.102 248.796L188.082 243.868L190.062 248.796H186.102Z" stroke="white" stroke-width="10" stroke-linecap="round" stroke-linejoin="round" mask="url(#path-6-outside-1)"/>
<path d="M205.247 239.6V255H209.537V243.054H215.389V255H219.701V239.6H205.247Z" stroke="white" stroke-width="10" stroke-linecap="round" stroke-linejoin="round" mask="url(#path-6-outside-1)"/>
<path d="M222.993 255H227.107L233.443 245.98V255H237.733V239.6H233.641L227.283 248.642V239.6H222.993V255Z" stroke="white" stroke-width="10" stroke-linecap="round" stroke-linejoin="round" mask="url(#path-6-outside-1)"/>
<path d="M248.08 239.6H241.04V255H245.396V250.974H248.08C252.282 250.974 254.922 248.796 254.922 245.298C254.922 241.778 252.282 239.6 248.08 239.6ZM247.816 247.542H245.396V243.032H247.816C249.62 243.032 250.522 243.868 250.522 245.298C250.522 246.706 249.62 247.542 247.816 247.542Z" stroke="white" stroke-width="10" stroke-linecap="round" stroke-linejoin="round" mask="url(#path-6-outside-1)"/>
<path d="M267.958 255H272.49L265.67 239.6H261.38L254.582 255H259.026L260.236 252.008H266.748L267.958 255ZM261.512 248.796L263.492 243.868L265.472 248.796H261.512Z" stroke="white" stroke-width="10" stroke-linecap="round" stroke-linejoin="round" mask="url(#path-6-outside-1)"/>
<path d="M285.889 239.6H272.161V243.054H276.891V255H281.181V243.054H285.889V239.6Z" stroke="white" stroke-width="10" stroke-linecap="round" stroke-linejoin="round" mask="url(#path-6-outside-1)"/>
<path d="M286.465 250.336H292.889V247.124H286.465V250.336Z" stroke="white" stroke-width="10" stroke-linecap="round" stroke-linejoin="round" mask="url(#path-6-outside-1)"/>
<path d="M61.3591 281.308C64.1971 281.308 66.4851 280.274 67.9811 278.404L65.2091 275.896C64.2411 277.062 63.0531 277.7 61.5791 277.7C59.0491 277.7 57.2891 275.94 57.2891 273.3C57.2891 270.66 59.0491 268.9 61.5791 268.9C63.0531 268.9 64.2411 269.538 65.2091 270.704L67.9811 268.196C66.4851 266.326 64.1971 265.292 61.3591 265.292C56.4751 265.292 52.8891 268.614 52.8891 273.3C52.8891 277.986 56.4751 281.308 61.3591 281.308Z" stroke="white" stroke-width="10" stroke-linecap="round" stroke-linejoin="round" mask="url(#path-6-outside-1)"/>
<path d="M79.6729 281H84.5789L79.7169 273.036L84.5349 265.6H79.9589L76.2849 271.584H74.1949V265.6H69.8609V281H74.1949V275.104H76.1749L79.6729 281Z" stroke="white" stroke-width="10" stroke-linecap="round" stroke-linejoin="round" mask="url(#path-6-outside-1)"/>
<path d="M93.4583 281.308C98.3863 281.308 102.016 277.92 102.016 273.3C102.016 268.68 98.3863 265.292 93.4583 265.292C88.5303 265.292 84.9003 268.68 84.9003 273.3C84.9003 277.92 88.5303 281.308 93.4583 281.308ZM93.4583 277.7C91.1263 277.7 89.3003 275.962 89.3003 273.3C89.3003 270.638 91.1263 268.9 93.4583 268.9C95.7903 268.9 97.6163 270.638 97.6163 273.3C97.6163 275.962 95.7903 277.7 93.4583 277.7Z" stroke="white" stroke-width="10" stroke-linecap="round" stroke-linejoin="round" mask="url(#path-6-outside-1)"/>
<path d="M115.631 265.6H104.345V281H108.635V269.054H115.609L115.631 265.6Z" stroke="white" stroke-width="10" stroke-linecap="round" stroke-linejoin="round" mask="url(#path-6-outside-1)"/>
<path d="M123.816 281.308C128.744 281.308 132.374 277.92 132.374 273.3C132.374 268.68 128.744 265.292 123.816 265.292C118.888 265.292 115.258 268.68 115.258 273.3C115.258 277.92 118.888 281.308 123.816 281.308ZM123.816 277.7C121.484 277.7 119.658 275.962 119.658 273.3C119.658 270.638 121.484 268.9 123.816 268.9C126.148 268.9 127.974 270.638 127.974 273.3C127.974 275.962 126.148 277.7 123.816 277.7Z" stroke="white" stroke-width="10" stroke-linecap="round" stroke-linejoin="round" mask="url(#path-6-outside-1)"/>
<path d="M148.145 265.6H141.105V281H145.461V276.974H148.145C152.347 276.974 154.987 274.796 154.987 271.298C154.987 267.778 152.347 265.6 148.145 265.6ZM147.881 273.542H145.461V269.032H147.881C149.685 269.032 150.587 269.868 150.587 271.298C150.587 272.706 149.685 273.542 147.881 273.542Z" stroke="white" stroke-width="10" stroke-linecap="round" stroke-linejoin="round" mask="url(#path-6-outside-1)"/>
<path d="M161.273 277.634V274.818H168.115V271.562H161.273V268.966H169.039V265.6H156.961V281H169.325V277.634H161.273Z" stroke="white" stroke-width="10" stroke-linecap="round" stroke-linejoin="round" mask="url(#path-6-outside-1)"/>
<path d="M186.26 277.546V265.6H173.852L173.676 270.352C173.522 274.466 173.016 277.502 171.058 277.546H170.508V284.102H174.512V281H184.368V284.102H188.35V277.546H186.26ZM177.482 270.726L177.548 269.054H181.97V277.546H176.14C177.042 276.248 177.372 273.74 177.482 270.726Z" stroke="white" stroke-width="10" stroke-linecap="round" stroke-linejoin="round" mask="url(#path-6-outside-1)"/>
<path d="M202.441 281H206.973L200.153 265.6H195.863L189.065 281H193.509L194.719 278.008H201.231L202.441 281ZM195.995 274.796L197.975 269.868L199.955 274.796H195.995Z" stroke="white" stroke-width="10" stroke-linecap="round" stroke-linejoin="round" mask="url(#path-6-outside-1)"/>
<path d="M218.462 281H223.368L218.506 273.036L223.324 265.6H218.748L215.074 271.584H212.984V265.6H208.65V281H212.984V275.104H214.964L218.462 281Z" stroke="white" stroke-width="10" stroke-linecap="round" stroke-linejoin="round" mask="url(#path-6-outside-1)"/>
<path d="M236.98 265.6H223.252V269.054H227.982V281H232.272V269.054H236.98V265.6Z" stroke="white" stroke-width="10" stroke-linecap="round" stroke-linejoin="round" mask="url(#path-6-outside-1)"/>
<path d="M246.341 281.308C251.269 281.308 254.899 277.92 254.899 273.3C254.899 268.68 251.269 265.292 246.341 265.292C241.413 265.292 237.783 268.68 237.783 273.3C237.783 277.92 241.413 281.308 246.341 281.308ZM246.341 277.7C244.009 277.7 242.183 275.962 242.183 273.3C242.183 270.638 244.009 268.9 246.341 268.9C248.673 268.9 250.499 270.638 250.499 273.3C250.499 275.962 248.673 277.7 246.341 277.7Z" stroke="white" stroke-width="10" stroke-linecap="round" stroke-linejoin="round" mask="url(#path-6-outside-1)"/>
<path d="M264.268 265.6H257.228V281H261.584V276.974H264.268C268.47 276.974 271.11 274.796 271.11 271.298C271.11 267.778 268.47 265.6 264.268 265.6ZM264.004 273.542H261.584V269.032H264.004C265.808 269.032 266.71 269.868 266.71 271.298C266.71 272.706 265.808 273.542 264.004 273.542Z" stroke="white" stroke-width="10" stroke-linecap="round" stroke-linejoin="round" mask="url(#path-6-outside-1)"/>
<path d="M284.146 281H288.678L281.858 265.6H277.568L270.77 281H275.214L276.424 278.008H282.936L284.146 281ZM277.7 274.796L279.68 269.868L281.66 274.796H277.7Z" stroke="white" stroke-width="10" stroke-linecap="round" stroke-linejoin="round" mask="url(#path-6-outside-1)"/>
<rect x="16" y="303" width="304" height="70" rx="24" fill="white"/>
<rect x="16" y="397" width="125" height="43" rx="13" fill="white"/>
<rect x="195" y="397" width="125" height="43" rx="13" fill="white"/>
<path d="M76.3876 325.2L73.4056 330.954L70.5076 325.2H68.5616L72.4676 332.508L72.3136 332.746C71.9076 333.39 71.4316 333.656 70.8576 333.656C70.5636 333.656 70.2556 333.586 69.9056 333.474L69.4576 334.902C69.9476 335.112 70.4376 335.21 70.8996 335.21C72.0896 335.21 73.1676 334.538 73.9236 333.11L78.1796 325.2H76.3876ZM82.0907 335.098C83.5467 335.098 84.7087 334.468 85.2827 333.348L83.9387 332.564C83.4907 333.278 82.8187 333.6 82.0767 333.6C80.7887 333.6 79.8087 332.718 79.8087 331.262C79.8087 329.82 80.7887 328.924 82.0767 328.924C82.8187 328.924 83.4907 329.246 83.9387 329.96L85.2827 329.176C84.7087 328.042 83.5467 327.44 82.0907 327.44C79.7247 327.44 78.0447 329.022 78.0447 331.262C78.0447 333.502 79.7247 335.098 82.0907 335.098ZM92.6771 327.524H85.6771V329.008H88.3091V335H90.0591V329.008H92.6771V327.524ZM96.7325 327.44C95.5285 327.44 94.3665 327.748 93.5685 328.364L94.2545 329.638C94.8145 329.176 95.6825 328.896 96.5225 328.896C97.7685 328.896 98.3845 329.498 98.3845 330.52V330.632H96.4525C94.1845 330.632 93.3445 331.612 93.3445 332.858C93.3445 334.16 94.4225 335.098 96.1305 335.098C97.2505 335.098 98.0625 334.734 98.4825 334.09V335H100.135V330.618C100.135 328.462 98.8885 327.44 96.7325 327.44ZM96.4945 333.824C95.5985 333.824 95.0665 333.418 95.0665 332.788C95.0665 332.242 95.3885 331.794 96.5785 331.794H98.3845V332.662C98.0905 333.432 97.3485 333.824 96.4945 333.824ZM102.3 335H104.05V332.046H107.816V335H109.566V327.524H107.816V330.562H104.05V327.524H102.3V335ZM115.243 335.098C117.567 335.098 119.233 333.502 119.233 331.262C119.233 329.022 117.567 327.44 115.243 327.44C112.947 327.44 111.267 329.022 111.267 331.262C111.267 333.502 112.947 335.098 115.243 335.098ZM115.243 333.6C113.983 333.6 113.031 332.69 113.031 331.262C113.031 329.834 113.983 328.924 115.243 328.924C116.517 328.924 117.469 329.834 117.469 331.262C117.469 332.69 116.517 333.6 115.243 333.6ZM126.38 331.108C127.094 330.8 127.528 330.226 127.528 329.456C127.528 328.224 126.436 327.524 124.616 327.524H120.962V335H124.77C126.786 335 127.766 334.216 127.766 332.9C127.766 331.99 127.304 331.388 126.38 331.108ZM122.628 328.798H124.462C125.358 328.798 125.82 329.092 125.82 329.708C125.82 330.324 125.358 330.646 124.462 330.646H122.628V328.798ZM124.63 333.726H122.628V331.808H124.686C125.638 331.808 126.072 332.13 126.072 332.788C126.072 333.432 125.568 333.726 124.63 333.726ZM129.63 335H131.24L135.356 330.072V335H137.106V327.524H135.51L131.38 332.452V327.524H129.63V335ZM145.382 327.524H138.382V329.008H141.014V335H142.764V329.008H145.382V327.524ZM153.323 331.304C153.323 328.966 151.727 327.44 149.543 327.44C147.317 327.44 145.679 329.036 145.679 331.262C145.679 333.488 147.303 335.098 149.809 335.098C151.097 335.098 152.147 334.678 152.819 333.88L151.881 332.802C151.349 333.348 150.691 333.614 149.851 333.614C148.549 333.614 147.639 332.914 147.429 331.822H153.295C153.309 331.654 153.323 331.444 153.323 331.304ZM149.543 328.84C150.691 328.84 151.517 329.582 151.657 330.66H147.415C147.583 329.568 148.409 328.84 149.543 328.84ZM159.107 327.524V335H160.857V329.008H164.539V335H166.275V327.524H159.107ZM168.636 335H170.246L174.362 330.072V335H176.112V327.524H174.516L170.386 332.452V327.524H168.636V335ZM182.61 327.44C181.588 327.44 180.72 327.79 180.132 328.504V327.524H178.466V337.716H180.216V334.09C180.818 334.776 181.658 335.098 182.61 335.098C184.794 335.098 186.404 333.586 186.404 331.262C186.404 328.952 184.794 327.44 182.61 327.44ZM182.414 333.6C181.154 333.6 180.188 332.69 180.188 331.262C180.188 329.834 181.154 328.924 182.414 328.924C183.674 328.924 184.626 329.834 184.626 331.262C184.626 332.69 183.674 333.6 182.414 333.6ZM190.836 327.44C189.632 327.44 188.47 327.748 187.672 328.364L188.358 329.638C188.918 329.176 189.786 328.896 190.626 328.896C191.872 328.896 192.488 329.498 192.488 330.52V330.632H190.556C188.288 330.632 187.448 331.612 187.448 332.858C187.448 334.16 188.526 335.098 190.234 335.098C191.354 335.098 192.166 334.734 192.586 334.09V335H194.238V330.618C194.238 328.462 192.992 327.44 190.836 327.44ZM190.598 333.824C189.702 333.824 189.17 333.418 189.17 332.788C189.17 332.242 189.492 331.794 190.682 331.794H192.488V332.662C192.194 333.432 191.452 333.824 190.598 333.824ZM202.326 327.524H195.326V329.008H197.958V335H199.708V329.008H202.326V327.524ZM206.669 335.098C208.125 335.098 209.287 334.468 209.861 333.348L208.517 332.564C208.069 333.278 207.397 333.6 206.655 333.6C205.367 333.6 204.387 332.718 204.387 331.262C204.387 329.82 205.367 328.924 206.655 328.924C207.397 328.924 208.069 329.246 208.517 329.96L209.861 329.176C209.287 328.042 208.125 327.44 206.669 327.44C204.303 327.44 202.623 329.022 202.623 331.262C202.623 333.502 204.303 335.098 206.669 335.098ZM216.764 335H218.822L215.924 331.122L218.64 327.524H216.764L214.552 330.548H213.152V327.524H211.402V335H213.152V332.004H214.51L216.764 335ZM223.142 335.098C225.466 335.098 227.132 333.502 227.132 331.262C227.132 329.022 225.466 327.44 223.142 327.44C220.846 327.44 219.166 329.022 219.166 331.262C219.166 333.502 220.846 335.098 223.142 335.098ZM223.142 333.6C221.882 333.6 220.93 332.69 220.93 331.262C220.93 329.834 221.882 328.924 223.142 328.924C224.416 328.924 225.368 329.834 225.368 331.262C225.368 332.69 224.416 333.6 223.142 333.6ZM235.861 331.304C235.861 328.966 234.265 327.44 232.081 327.44C229.855 327.44 228.217 329.036 228.217 331.262C228.217 333.488 229.841 335.098 232.347 335.098C233.635 335.098 234.685 334.678 235.357 333.88L234.419 332.802C233.887 333.348 233.229 333.614 232.389 333.614C231.087 333.614 230.177 332.914 229.967 331.822H235.833C235.847 331.654 235.861 331.444 235.861 331.304ZM232.081 328.84C233.229 328.84 234.055 329.582 234.195 330.66H229.953C230.121 329.568 230.947 328.84 232.081 328.84ZM241.854 325.2V335H243.646V326.74H248.728V335H250.52V325.2H241.854ZM257.819 335.14C260.857 335.14 263.097 333.012 263.097 330.1C263.097 327.188 260.857 325.06 257.819 325.06C254.781 325.06 252.541 327.202 252.541 330.1C252.541 332.998 254.781 335.14 257.819 335.14ZM257.819 333.544C255.845 333.544 254.375 332.102 254.375 330.1C254.375 328.098 255.845 326.656 257.819 326.656C259.793 326.656 261.263 328.098 261.263 330.1C261.263 332.102 259.793 333.544 257.819 333.544ZM131.288 349.516V343.524H125.128L125.03 346.086C124.946 347.836 124.764 349.474 123.714 349.516H123.364V352.666H124.988V351H130.756V352.666H132.394V349.516H131.288ZM126.626 346.212L126.668 345.008H129.538V349.516H125.856C126.458 348.942 126.57 347.612 126.626 346.212ZM134.685 343.524L134.559 346.408C134.475 347.962 134.433 349.558 133.285 349.558C133.187 349.558 133.075 349.544 132.949 349.516L132.865 350.986C133.229 351.084 133.551 351.14 133.831 351.14C135.595 351.14 135.987 349.152 136.113 346.492L136.183 345.008H138.983V351H140.733V343.524H134.685ZM145.974 343.524C143.888 343.524 142.558 344.462 142.558 346.212C142.558 347.36 143.16 348.144 144.224 348.508L142.46 351H144.336L145.862 348.746H147.836V351H149.404V343.524H145.974ZM146.03 344.994H147.836V347.528H145.974C144.896 347.528 144.336 347.136 144.336 346.268C144.336 345.372 144.952 344.994 146.03 344.994ZM159.771 343.44C158.749 343.44 157.881 343.79 157.293 344.504V343.524H155.627V353.716H157.377V350.09C157.979 350.776 158.819 351.098 159.771 351.098C161.955 351.098 163.565 349.586 163.565 347.262C163.565 344.952 161.955 343.44 159.771 343.44ZM159.575 349.6C158.315 349.6 157.349 348.69 157.349 347.262C157.349 345.834 158.315 344.924 159.575 344.924C160.835 344.924 161.787 345.834 161.787 347.262C161.787 348.69 160.835 349.6 159.575 349.6ZM167.997 343.44C166.793 343.44 165.631 343.748 164.833 344.364L165.519 345.638C166.079 345.176 166.947 344.896 167.787 344.896C169.033 344.896 169.649 345.498 169.649 346.52V346.632H167.717C165.449 346.632 164.609 347.612 164.609 348.858C164.609 350.16 165.687 351.098 167.395 351.098C168.515 351.098 169.327 350.734 169.747 350.09V351H171.399V346.618C171.399 344.462 170.153 343.44 167.997 343.44ZM167.759 349.824C166.863 349.824 166.331 349.418 166.331 348.788C166.331 348.242 166.653 347.794 167.843 347.794H169.649V348.662C169.355 349.432 168.613 349.824 167.759 349.824ZM177.611 343.888C176.463 343.888 175.483 344.35 174.825 345.148C174.979 343.524 175.833 342.684 177.639 342.306L180.789 341.662L180.537 340.094L177.065 340.836C174.405 341.396 173.145 343.146 173.145 346.142C173.145 349.404 174.657 351.14 177.219 351.14C179.571 351.14 181.209 349.67 181.209 347.472C181.209 345.358 179.753 343.888 177.611 343.888ZM177.261 349.726C175.973 349.726 175.077 348.816 175.077 347.514C175.077 346.212 175.959 345.372 177.261 345.372C178.549 345.372 179.417 346.212 179.417 347.514C179.417 348.802 178.549 349.726 177.261 349.726ZM186.235 351.098C188.559 351.098 190.225 349.502 190.225 347.262C190.225 345.022 188.559 343.44 186.235 343.44C183.939 343.44 182.259 345.022 182.259 347.262C182.259 349.502 183.939 351.098 186.235 351.098ZM186.235 349.6C184.975 349.6 184.023 348.69 184.023 347.262C184.023 345.834 184.975 344.924 186.235 344.924C187.509 344.924 188.461 345.834 188.461 347.262C188.461 348.69 187.509 349.6 186.235 349.6ZM197.602 343.524H190.602V345.008H193.234V351H194.984V345.008H197.602V343.524ZM202.511 345.988L200.621 345.974V343.524H198.871V351L202.259 351.014C204.303 351.028 205.451 350.09 205.451 348.452C205.451 346.898 204.429 345.988 202.511 345.988ZM206.417 351H208.167V343.524H206.417V351ZM202.105 349.726L200.621 349.712V347.178L202.105 347.192C203.141 347.206 203.687 347.57 203.687 348.424C203.687 349.292 203.127 349.74 202.105 349.726ZM211.052 351.098C211.682 351.098 212.2 350.608 212.2 349.936C212.2 349.236 211.682 348.774 211.052 348.774C210.422 348.774 209.904 349.236 209.904 349.936C209.904 350.608 210.422 351.098 211.052 351.098Z" fill="black"/>
<path d="M252 5C252 26.7477 243.361 47.6048 227.983 62.9828C212.605 78.3607 191.748 87 170 87C148.252 87 127.395 78.3607 112.017 62.9828C96.6393 47.6048 88 26.7478 88 5.00002L170 5H252Z" fill="white"/>
<path d="M48.032 423.216C48.032 414.96 35.328 417.52 35.328 414.096C35.328 412.976 36.288 412.08 38.944 412.08C40.896 412.08 43.008 412.656 45.152 413.808L47.104 409.104C45.312 408.048 42.976 407.408 40.608 407.216V403.76H36.768V407.28C31.584 407.92 29.056 410.896 29.056 414.416C29.056 422.736 41.792 420.144 41.792 423.696C41.792 424.784 40.768 425.52 38.144 425.52C35.552 425.52 32.736 424.624 30.752 423.312L28.672 427.984C30.528 429.264 33.568 430.192 36.768 430.416V433.84H40.608V430.288C45.6 429.552 48.032 426.608 48.032 423.216Z" fill="#00BCBC"/>
<path d="M60.14 412V414.6H62.94V426H66.18V412H60.14ZM75.152 417.7L78.312 414.1V412H68.512V414.6H74.472L71.592 417.86V420H73.072C74.912 420 75.692 420.66 75.692 421.72C75.692 422.86 74.692 423.52 73.072 423.52C71.612 423.52 70.132 423.06 69.072 422.26L67.812 424.74C69.172 425.7 71.192 426.24 73.152 426.24C77.132 426.24 78.952 424.08 78.952 421.72C78.952 419.66 77.672 418.1 75.152 417.7ZM92.112 426.24C95.572 426.24 98.112 423.62 98.112 419C98.112 414.38 95.572 411.76 92.112 411.76C88.672 411.76 86.112 414.38 86.112 419C86.112 423.62 88.672 426.24 92.112 426.24ZM92.112 423.5C90.512 423.5 89.392 422.18 89.392 419C89.392 415.82 90.512 414.5 92.112 414.5C93.732 414.5 94.852 415.82 94.852 419C94.852 422.18 93.732 423.5 92.112 423.5ZM105.686 426.24C109.146 426.24 111.686 423.62 111.686 419C111.686 414.38 109.146 411.76 105.686 411.76C102.246 411.76 99.6863 414.38 99.6863 419C99.6863 423.62 102.246 426.24 105.686 426.24ZM105.686 423.5C104.086 423.5 102.966 422.18 102.966 419C102.966 415.82 104.086 414.5 105.686 414.5C107.306 414.5 108.426 415.82 108.426 419C108.426 422.18 107.306 423.5 105.686 423.5ZM119.26 426.24C122.72 426.24 125.26 423.62 125.26 419C125.26 414.38 122.72 411.76 119.26 411.76C115.82 411.76 113.26 414.38 113.26 419C113.26 423.62 115.82 426.24 119.26 426.24ZM119.26 423.5C117.66 423.5 116.54 422.18 116.54 419C116.54 415.82 117.66 414.5 119.26 414.5C120.88 414.5 122 415.82 122 419C122 422.18 120.88 423.5 119.26 423.5Z" fill="black"/>
<path d="M248.6 420.42H246.32V417.8H243.26V420.42H239.5L245.62 412H242.22L235.62 420.88V423.06H243.16V426H246.32V423.06H248.6V420.42ZM254.33 417.26H253.19L253.41 414.6H259.25V412H250.71L249.99 419.88H253.57C256.11 419.88 256.83 420.6 256.83 421.7C256.83 422.84 255.83 423.52 254.21 423.52C252.75 423.52 251.29 423.06 250.23 422.26L248.95 424.74C250.31 425.7 252.35 426.24 254.29 426.24C258.29 426.24 260.11 424.08 260.11 421.6C260.11 419.12 258.47 417.26 254.33 417.26ZM281.129 426L281.089 415.24H278.169L274.509 421.46L271.069 415.24H267.809V426H270.629V419.54L273.769 424.96H275.089L278.309 419.56V426H281.129ZM284.117 426H286.997L292.217 419.6V426H295.317V415.24H292.457L287.217 421.64V415.24H284.117V426ZM298.316 426H301.416V421.98H306.096V426H309.216V415.24H306.096V419.44H301.416V415.24H298.316V426Z" fill="black"/>
<path d="M216.5 406C209.595 406 204 411.595 204 418.5C204 425.405 209.595 431 216.5 431C223.405 431 229 425.405 229 418.5C229 411.595 223.405 406 216.5 406Z" fill="#00BCBC"/>
<path fill-rule="evenodd" clip-rule="evenodd" d="M215.961 410C214.878 410 214 410.878 214 411.961V419.153C214 419.311 214.019 419.464 214.054 419.611C214.047 420.263 214.376 420.901 214.974 421.262L220.414 424.535C221.313 425.077 222.481 424.786 223.022 423.887C223.563 422.988 223.273 421.82 222.374 421.279L217.923 418.6V411.961C217.923 410.878 217.045 410 215.961 410Z" fill="white"/>
<g filter="url(#filter0_d)">
<path d="M162.531 400.393L185.975 433.213C179.766 434.57 168.698 428.331 168.698 428.331C168.698 428.331 160.834 438.706 154.912 440L162.531 400.393Z" fill="white"/>
<path fill-rule="evenodd" clip-rule="evenodd" d="M154.912 440L158.469 421.51C161.522 424.284 164.956 426.604 168.698 428.331C168.698 428.331 160.834 438.706 154.912 440Z" fill="#BBFFF9"/>
</g>
<path d="M145.392 25.4V34.274H152.932V66H164.416V25.4H145.392ZM171.798 25.4V34.274H179.338V66H190.822V25.4H171.798Z" fill="#46BBCE"/>
<g filter="url(#filter1_di)">
<path d="M225.096 100.14C225.027 97.2888 221.551 95.9499 219.535 97.9663L145.65 171.858L154.857 181.064L189.092 160.956C194.779 158.111 199.937 154.391 204.421 149.906C220.953 133.375 225.349 110.694 225.096 100.14Z" fill="white"/>
<path d="M141.047 176.461L131.623 185.885C129.081 188.427 129.081 192.549 131.623 195.092C134.166 197.634 138.287 197.634 140.83 195.092L150.254 185.668L141.047 176.461Z" fill="white"/>
<path d="M127.02 206.205C130.615 206.205 133.53 203.29 133.53 199.695C133.53 196.099 130.615 193.185 127.02 193.185C123.424 193.185 120.51 196.099 120.51 199.695C120.51 203.29 123.424 206.205 127.02 206.205Z" fill="white"/>
<path d="M159.46 185.668L154.857 190.271C157.395 192.809 157.395 196.94 154.857 199.478C152.32 202.016 147.971 202.233 145.433 199.695C143.749 201.379 141.702 202.451 139.55 203.018L140.83 204.298C145.908 209.376 154.383 209.159 159.461 204.081C164.538 199.004 164.538 190.746 159.46 185.668Z" fill="white"/>
<path d="M207.483 185.885L198.059 176.461L188.852 185.668L198.276 195.092C200.819 197.634 204.94 197.634 207.483 195.092C210.025 192.549 210.025 188.427 207.483 185.885Z" fill="white"/>
<path d="M212.086 206.205C215.682 206.205 218.596 203.29 218.596 199.695C218.596 196.099 215.682 193.185 212.086 193.185C208.491 193.185 205.576 196.099 205.576 199.695C205.576 203.29 208.491 206.205 212.086 206.205Z" fill="white"/>
<path d="M193.672 199.695C191.134 202.233 186.786 202.016 184.249 199.478C181.711 196.941 181.711 192.809 184.249 190.272L179.645 185.668C174.568 190.746 174.568 199.004 179.645 204.082C184.723 209.159 193.198 209.376 198.276 204.299L199.556 203.018C197.403 202.451 195.357 201.379 193.672 199.695Z" fill="white"/>
<path d="M119.571 97.9663C117.555 95.9499 114.079 97.2888 114.01 100.14C113.757 110.694 118.153 133.375 134.684 149.906C138.71 153.931 143.346 157.236 148.352 159.951L164.95 143.35L119.571 97.9663Z" fill="white"/>
<path d="M189.72 168.122L175.972 176.203L184.249 181.065L193.455 171.858L189.72 168.122Z" fill="white"/>
</g>
<defs>
<filter id="filter0_d" x="150.912" y="396.393" width="45.0628" height="53.6066" filterUnits="userSpaceOnUse" color-interpolation-filters="sRGB">
<feFlood flood-opacity="0" result="BackgroundImageFix"/>
<feColorMatrix in="SourceAlpha" type="matrix" values="0 0 0 0 0 0 0 0 0 0 0 0 0 0 0 0 0 0 127 0"/>
<feOffset dx="3" dy="3"/>
<feGaussianBlur stdDeviation="3.5"/>
<feColorMatrix type="matrix" values="0 0 0 0 0.279 0 0 0 0 0.9 0 0 0 0 0.840225 0 0 0 1 0"/>
<feBlend mode="normal" in2="BackgroundImageFix" result="effect1_dropShadow"/>
<feBlend mode="normal" in="SourceGraphic" in2="effect1_dropShadow" result="shape"/>
</filter>
<filter id="filter1_di" x="108" y="91" width="131.106" height="131" filterUnits="userSpaceOnUse" color-interpolation-filters="sRGB">
<feFlood flood-opacity="0" result="BackgroundImageFix"/>
<feColorMatrix in="SourceAlpha" type="matrix" values="0 0 0 0 0 0 0 0 0 0 0 0 0 0 0 0 0 0 127 0"/>
<feOffset dx="4" dy="4"/>
<feGaussianBlur stdDeviation="5"/>
<feColorMatrix type="matrix" values="0 0 0 0 0.1715 0 0 0 0 0.816667 0 0 0 0 0.816667 0 0 0 1 0"/>
<feBlend mode="normal" in2="BackgroundImageFix" result="effect1_dropShadow"/>
<feBlend mode="normal" in="SourceGraphic" in2="effect1_dropShadow" result="shape"/>
<feColorMatrix in="SourceAlpha" type="matrix" values="0 0 0 0 0 0 0 0 0 0 0 0 0 0 0 0 0 0 127 0" result="hardAlpha"/>
<feOffset dx="-4" dy="-4"/>
<feGaussianBlur stdDeviation="4.5"/>
<feComposite in2="hardAlpha" operator="arithmetic" k2="-1" k3="1"/>
<feColorMatrix type="matrix" values="0 0 0 0 0.441945 0 0 0 0 0.887146 0 0 0 0 0.895833 0 0 0 0.52 0"/>
<feBlend mode="normal" in2="shape" result="effect2_innerShadow"/>
</filter>
<linearGradient id="paint0_linear" x1="5.5" y1="-157" x2="289.5" y2="495.5" gradientUnits="userSpaceOnUse">
<stop stop-color="#00C2FF"/>
<stop offset="1" stop-color="#1EE7CF"/>
</linearGradient>
<linearGradient id="paint1_linear" x1="49" y1="11" x2="301.5" y2="474" gradientUnits="userSpaceOnUse">
<stop stop-color="#19D2EB"/>
<stop offset="1" stop-color="#55F5DF"/>
</linearGradient>
<linearGradient id="paint2_linear" x1="59.5" y1="-9" x2="291.5" y2="495.5" gradientUnits="userSpaceOnUse">
<stop stop-color="#00E0FF"/>
<stop offset="1" stop-color="#42F2D1"/>
</linearGradient>
<linearGradient id="paint3_linear" x1="51" y1="11" x2="303.5" y2="474" gradientUnits="userSpaceOnUse">
<stop stop-color="#B2F6FF"/>
<stop offset="1" stop-color="#28D7BE"/>
</linearGradient>
<linearGradient id="paint4_linear" x1="27" y1="473.49" x2="247.084" y2="60.8524" gradientUnits="userSpaceOnUse">
<stop stop-color="#73F5FF"/>
<stop offset="0.99" stop-color="#7AFFEC"/>
</linearGradient>
<linearGradient id="paint5_linear" x1="129.774" y1="288" x2="310" y2="288" gradientUnits="userSpaceOnUse">
<stop stop-color="white"/>
<stop offset="0.99" stop-color="white" stop-opacity="0.4"/>
</linearGradient>
<linearGradient id="paint6_linear" x1="59.8997" y1="86" x2="140" y2="86" gradientUnits="userSpaceOnUse">
<stop stop-color="white"/>
<stop offset="0.99" stop-color="white" stop-opacity="0.4"/>
</linearGradient>
</defs>
</svg>
