<svg width="338" height="474" viewBox="0 0 338 474" fill="none" xmlns="http://www.w3.org/2000/svg">
<rect x="2.5" y="2.5" width="331" height="469" rx="32.5" fill="url(#paint0_linear)" stroke="url(#paint1_linear)" stroke-width="5"/>
<mask id="mask0" mask-type="alpha" maskUnits="userSpaceOnUse" x="2" y="0" width="336" height="474">
<rect x="4.5" y="2.5" width="331" height="469" rx="41.5" fill="url(#paint2_linear)" stroke="url(#paint3_linear)" stroke-width="5"/>
</mask>
<g mask="url(#mask0)">
<path d="M198.89 5.0093C198.89 5.0093 97.8208 47.0947 93.9888 101.845C90.1568 156.595 112.775 152.615 106.069 185.086C99.3632 217.557 -10.9124 255.616 18.7856 356.766C48.4837 457.916 142.368 370.584 242 469H35C18.4315 469 5 455.569 5 439V35.0014C5 18.4323 18.4323 5.00064 35.0014 5.00144L198.89 5.0093Z" fill="url(#paint4_linear)" fill-opacity="0.5"/>
</g>
<path opacity="0.46" d="M219.887 378C202.092 377.978 184.702 372.68 169.917 362.777C155.131 352.875 143.613 338.811 136.819 322.363C130.024 305.916 128.258 287.824 131.743 270.373C135.229 252.922 143.809 236.896 156.4 224.321C168.992 211.745 185.028 203.185 202.483 199.721C219.939 196.258 238.029 198.046 254.468 204.862C270.906 211.677 284.956 223.212 294.84 238.01C304.724 252.808 310 270.204 310 288C309.958 311.876 300.447 334.761 283.553 351.633C266.66 368.506 243.763 377.988 219.887 378ZM219.887 222.747C206.985 222.764 194.378 226.607 183.659 233.788C172.94 240.969 164.59 251.166 159.665 263.091C154.74 275.016 153.461 288.134 155.989 300.786C158.517 313.438 164.739 325.056 173.868 334.173C182.998 343.29 194.625 349.496 207.28 352.006C219.936 354.517 233.051 353.219 244.97 348.278C256.888 343.336 267.074 334.972 274.24 324.243C281.406 313.515 285.231 300.902 285.231 288C285.177 270.703 278.27 254.132 266.022 241.918C253.774 229.704 237.184 222.843 219.887 222.837V222.747Z" fill="url(#paint5_linear)"/>
<path opacity="0.46" d="M99.9498 126C92.0407 125.99 84.3121 123.636 77.7407 119.234C71.1694 114.833 66.0503 108.583 63.0305 101.273C60.0106 93.9627 59.2257 85.9216 60.7747 78.1657C62.3238 70.4097 66.1374 63.2871 71.7335 57.698C77.3296 52.1089 84.457 48.3043 92.2148 46.7649C99.9727 45.2256 108.013 46.0207 115.319 49.0496C122.625 52.0786 128.869 57.2055 133.262 63.7824C137.655 70.3593 140 78.0909 140 86C139.981 96.6116 135.754 106.783 128.246 114.281C120.738 121.78 110.561 125.995 99.9498 126ZM99.9498 56.9985C94.2156 57.0064 88.6124 58.7141 83.8484 61.9056C79.0844 65.0972 75.3735 69.6294 73.1846 74.9294C70.9957 80.2294 70.4271 86.0594 71.5506 91.6825C72.6742 97.3056 75.4395 102.469 79.497 106.521C83.5545 110.573 88.7222 113.331 94.3468 114.447C99.9715 115.563 105.801 114.986 111.098 112.79C116.395 110.594 120.922 106.877 124.107 102.108C127.292 97.3398 128.991 91.7342 128.991 86C128.968 78.3124 125.898 70.9477 120.454 65.5193C115.011 60.0908 107.637 57.0412 99.9498 57.0386V56.9985Z" fill="url(#paint6_linear)"/>
<path d="M52.4582 246.992C53.7562 246.354 54.5702 245.188 54.5702 243.736C54.5702 240.876 51.2702 239.248 47.5302 239.248C45.7262 239.248 43.8122 239.622 42.1182 240.436L43.3942 243.736C44.7142 243.032 46.2322 242.68 47.4862 242.68C49.0042 242.68 50.1702 243.208 50.1702 244.242C50.1702 245.034 49.5102 245.54 48.3222 245.54H44.7362V248.73H48.6742C49.9062 248.73 50.7862 249.126 50.7862 250.072C50.7862 251.26 49.3342 251.876 47.4862 251.876C46.0782 251.876 44.4282 251.524 42.9982 250.798L41.7002 253.834C43.7022 254.846 45.9242 255.33 47.9702 255.33C51.8862 255.33 55.1862 253.614 55.1862 250.666C55.1862 248.972 54.1522 247.63 52.4582 246.992Z" fill="black"/>
<path d="M69.3776 255H73.9096L67.0896 239.6H62.7996L56.0016 255H60.4456L61.6556 252.008H68.1676L69.3776 255ZM62.9316 248.796L64.9116 243.868L66.8916 248.796H62.9316Z" fill="black"/>
<path d="M75.6744 239.6V255H79.9644V243.054H85.8164V255H90.1284V239.6H75.6744Z" fill="black"/>
<path d="M100.988 255.308C105.916 255.308 109.546 251.92 109.546 247.3C109.546 242.68 105.916 239.292 100.988 239.292C96.0605 239.292 92.4305 242.68 92.4305 247.3C92.4305 251.92 96.0605 255.308 100.988 255.308ZM100.988 251.7C98.6565 251.7 96.8305 249.962 96.8305 247.3C96.8305 244.638 98.6565 242.9 100.988 242.9C103.32 242.9 105.146 244.638 105.146 247.3C105.146 249.962 103.32 251.7 100.988 251.7Z" fill="black"/>
<path d="M113.404 239.6L113.184 245.738C113.052 249.214 112.722 251.502 110.94 251.502C110.742 251.502 110.544 251.48 110.346 251.436L110.104 255C110.83 255.176 111.49 255.264 112.084 255.264C116 255.264 116.814 251.568 117.012 245.562L117.1 243.054H121.522V255H125.812V239.6H113.404Z" fill="black"/>
<path d="M139.402 239.6V245.386H133.462V239.6H129.106V255H133.462V248.994H139.402V255H143.758V239.6H139.402Z" fill="black"/>
<path d="M147.067 255H151.181L157.517 245.98V255H161.807V239.6H157.715L151.357 248.642V239.6H147.067V255Z" fill="black"/>
<path d="M177.522 239.6H163.794V243.054H168.524V255H172.814V243.054H177.522V239.6Z" fill="black"/>
<path d="M187.384 244.506H183.82V239.6H179.53V255H186.812C190.816 255 193.302 253.13 193.302 249.522C193.302 246.156 191.124 244.506 187.384 244.506ZM186.526 251.876H183.82V247.608H186.526C188 247.608 188.924 248.158 188.924 249.61C188.924 251.062 187.978 251.876 186.526 251.876Z" fill="black"/>
<path d="M220.859 247.256C220.859 243.23 218.065 240.81 212.851 240.458V238.874H208.869V240.458C203.655 240.854 200.861 243.23 200.861 247.256C200.861 251.26 203.655 253.658 208.869 254.032V255.726H212.851V254.032C218.087 253.724 220.859 251.26 220.859 247.256ZM212.851 250.644V243.868C215.403 244.154 216.635 245.21 216.635 247.234C216.635 249.258 215.469 250.358 212.851 250.644ZM205.085 247.256C205.085 245.21 206.229 244.176 208.869 243.868V250.622C206.383 250.314 205.085 249.28 205.085 247.256Z" fill="black"/>
<path d="M230.69 255.308C235.618 255.308 239.248 251.92 239.248 247.3C239.248 242.68 235.618 239.292 230.69 239.292C225.762 239.292 222.132 242.68 222.132 247.3C222.132 251.92 225.762 255.308 230.69 255.308ZM230.69 251.7C228.358 251.7 226.532 249.962 226.532 247.3C226.532 244.638 228.358 242.9 230.69 242.9C233.022 242.9 234.848 244.638 234.848 247.3C234.848 249.962 233.022 251.7 230.69 251.7Z" fill="black"/>
<path d="M248.617 239.6H241.577V255H245.933V250.974H248.617C252.819 250.974 255.459 248.796 255.459 245.298C255.459 241.778 252.819 239.6 248.617 239.6ZM248.353 247.542H245.933V243.032H248.353C250.157 243.032 251.059 243.868 251.059 245.298C251.059 246.706 250.157 247.542 248.353 247.542Z" fill="black"/>
<path d="M275.34 255L275.296 239.6H271.71L266.43 248.488L261.018 239.6H257.432V255H261.436V247.014L265.396 253.482H267.332L271.292 246.838L271.314 255H275.34Z" fill="black"/>
<path d="M289 239.6L285.282 247.036L281.696 239.6H277.098L283.082 250.688C282.51 251.524 281.894 251.876 281.036 251.876C280.574 251.876 280.09 251.788 279.496 251.612L278.462 254.824C279.408 255.198 280.31 255.396 281.19 255.396C283.5 255.396 285.502 254.076 286.866 251.502L293.246 239.6H289Z" fill="black"/>
<path d="M99.0386 281H103.153L109.489 271.98V281H113.779V265.6H109.687L103.329 274.642V265.6H99.0386V281Z" fill="black"/>
<path d="M126.612 272.992C127.91 272.354 128.724 271.188 128.724 269.736C128.724 266.876 125.424 265.248 121.684 265.248C119.88 265.248 117.966 265.622 116.272 266.436L117.548 269.736C118.868 269.032 120.386 268.68 121.64 268.68C123.158 268.68 124.324 269.208 124.324 270.242C124.324 271.034 123.664 271.54 122.476 271.54H118.89V274.73H122.828C124.06 274.73 124.94 275.126 124.94 276.072C124.94 277.26 123.488 277.876 121.64 277.876C120.232 277.876 118.582 277.524 117.152 276.798L115.854 279.834C117.856 280.846 120.078 281.33 122.124 281.33C126.04 281.33 129.34 279.614 129.34 276.666C129.34 274.972 128.306 273.63 126.612 272.992Z" fill="black"/>
<path d="M138.097 265.6V281H142.387V269.054H148.239V281H152.551V265.6H138.097Z" fill="black"/>
<path d="M155.843 281H159.957L166.293 271.98V281H170.583V265.6H166.491L160.133 274.642V265.6H155.843V281Z" fill="black"/>
<path d="M181.392 281.308C184.23 281.308 186.518 280.274 188.014 278.404L185.242 275.896C184.274 277.062 183.086 277.7 181.612 277.7C179.082 277.7 177.322 275.94 177.322 273.3C177.322 270.66 179.082 268.9 181.612 268.9C183.086 268.9 184.274 269.538 185.242 270.704L188.014 268.196C186.518 266.326 184.23 265.292 181.392 265.292C176.508 265.292 172.922 268.614 172.922 273.3C172.922 277.986 176.508 281.308 181.392 281.308Z" fill="black"/>
<path d="M197.836 270.506H194.272V265.6H189.982V281H197.264C201.268 281 203.754 279.13 203.754 275.522C203.754 272.156 201.576 270.506 197.836 270.506ZM196.978 277.876H194.272V273.608H196.978C198.452 273.608 199.376 274.158 199.376 275.61C199.376 277.062 198.43 277.876 196.978 277.876Z" fill="black"/>
<path d="M223.853 281L223.809 265.6H220.223L214.943 274.488L209.531 265.6H205.945V281H209.949V273.014L213.909 279.482H215.845L219.805 272.838L219.827 281H223.853Z" fill="black"/>
<path d="M238.964 281H243.496L236.676 265.6H232.386L225.588 281H230.032L231.242 278.008H237.754L238.964 281ZM232.518 274.796L234.498 269.868L236.478 274.796H232.518Z" fill="black"/>
<path fill-rule="evenodd" clip-rule="evenodd" d="M49.6622 243.245C49.5746 243.177 49.4771 243.115 49.3706 243.059C49.0804 242.906 48.7238 242.8 48.3222 242.739C48.0737 242.702 47.808 242.682 47.5302 242.68C47.5155 242.68 47.5009 242.68 47.4862 242.68C46.8395 242.68 46.1227 242.774 45.399 242.961C45.3984 242.961 45.3979 242.961 45.3973 242.961C45.177 243.018 44.956 243.084 44.7362 243.158C44.3656 243.284 43.9982 243.434 43.6427 243.609C43.5592 243.65 43.4763 243.692 43.3942 243.736L42.1182 240.436C42.6518 240.18 43.2072 239.967 43.7741 239.796C44.8394 239.474 45.9452 239.299 47.0234 239.258C47.1783 239.252 47.3326 239.249 47.4862 239.248C47.5009 239.248 47.5155 239.248 47.5302 239.248C50.6073 239.248 53.3866 240.35 54.2751 242.334C54.4665 242.761 54.5702 243.229 54.5702 243.736C54.5702 243.909 54.5586 244.078 54.5361 244.242C54.4623 244.781 54.2706 245.271 53.9805 245.7C53.6156 246.239 53.0952 246.679 52.4582 246.992C52.9478 247.176 53.3823 247.42 53.7527 247.713C53.8299 247.774 53.9042 247.838 53.9758 247.903C54.6059 248.48 55.0133 249.221 55.1422 250.072C55.1713 250.265 55.1862 250.463 55.1862 250.666C55.1862 250.858 55.1722 251.044 55.1451 251.225C54.9839 252.301 54.3565 253.188 53.4175 253.859C52.7509 254.336 51.9272 254.703 51.0018 254.952C50.0748 255.201 49.0457 255.33 47.9702 255.33C47.8099 255.33 47.6485 255.327 47.4862 255.321C47.1709 255.31 46.8522 255.287 46.5316 255.252C45.4557 255.137 44.3576 254.893 43.2902 254.514C42.7501 254.322 42.2178 254.096 41.7002 253.834L42.9982 250.798C43.0609 250.83 43.1241 250.861 43.1876 250.891C43.4935 251.038 43.8083 251.168 44.1277 251.281C44.3291 251.352 44.5323 251.417 44.7362 251.476C45.2263 251.616 45.7205 251.719 46.2037 251.786C46.6442 251.846 47.0755 251.876 47.4862 251.876C47.6509 251.876 47.8125 251.871 47.9702 251.861C48.2152 251.846 48.4508 251.819 48.6742 251.781C49.1849 251.693 49.6318 251.544 49.9814 251.336C50.0917 251.27 50.1922 251.199 50.282 251.121C50.4377 250.987 50.5612 250.835 50.647 250.666C50.7242 250.514 50.7709 250.348 50.783 250.167C50.7851 250.136 50.7862 250.104 50.7862 250.072C50.7862 249.126 49.9062 248.73 48.6742 248.73H44.7362V245.54H48.3222C48.4452 245.54 48.5626 245.535 48.6742 245.524C49.6398 245.432 50.1702 244.952 50.1702 244.242C50.1702 244.096 50.1468 243.959 50.1023 243.833C50.0906 243.8 50.0775 243.768 50.063 243.736C49.9765 243.547 49.8399 243.384 49.6622 243.245ZM39.6672 247.069C39.2696 246.625 38.9505 246.108 38.7307 245.539L37.4547 242.239C36.5139 239.806 37.6015 237.059 39.9526 235.929C42.4054 234.751 45.0744 234.248 47.5302 234.248C50.0376 234.248 52.7395 234.78 54.9982 236.116C56.0087 236.714 56.9974 237.528 57.7953 238.555L58.2254 237.581C59.0252 235.769 60.819 234.6 62.7996 234.6H67.0896C68.8631 234.6 70.4872 235.538 71.3816 237.035C72.255 235.576 73.8507 234.6 75.6744 234.6H90.1284C91.5704 234.6 92.8698 235.21 93.7823 236.187C95.883 234.968 98.3609 234.292 100.988 234.292C104.06 234.292 106.927 235.216 109.227 236.851C110.122 235.492 111.662 234.6 113.404 234.6H125.812C126.389 234.6 126.943 234.698 127.459 234.878C127.975 234.698 128.529 234.6 129.106 234.6H133.462C134.574 234.6 135.602 234.963 136.432 235.577C137.262 234.963 138.29 234.6 139.402 234.6H143.758C144.338 234.6 144.895 234.699 145.412 234.88C145.93 234.699 146.487 234.6 147.067 234.6H151.357C152.564 234.6 153.672 235.028 154.536 235.741C155.421 235.012 156.541 234.6 157.715 234.6H161.807C162.147 234.6 162.479 234.634 162.8 234.699C163.121 234.634 163.454 234.6 163.794 234.6H177.522C177.866 234.6 178.201 234.635 178.526 234.701C178.85 234.635 179.186 234.6 179.53 234.6H183.82C186.571 234.6 188.803 236.821 188.82 239.568C190.918 239.755 193.102 240.392 194.924 241.892C195.514 242.378 196.017 242.914 196.442 243.487C197.037 241.669 198.099 240.021 199.673 238.685C201.138 237.441 202.863 236.621 204.701 236.112C205.596 234.763 207.129 233.874 208.869 233.874H212.851C214.583 233.874 216.108 234.754 217.006 236.091C218.47 236.492 219.862 237.093 221.107 237.949C223.579 235.635 226.986 234.292 230.69 234.292C233.325 234.292 235.809 234.972 237.913 236.197C238.826 235.215 240.13 234.6 241.577 234.6H248.617C250.552 234.6 252.505 234.933 254.278 235.72C255.138 235.02 256.236 234.6 257.432 234.6H261.018C262.763 234.6 264.381 235.509 265.289 237L266.377 238.787L267.411 237.046C268.312 235.53 269.946 234.6 271.71 234.6H275.296C275.604 234.6 275.906 234.628 276.199 234.681C276.493 234.628 276.793 234.6 277.098 234.6H281.696C283.102 234.6 284.417 235.19 285.348 236.185C286.279 235.189 287.595 234.6 289 234.6H293.246C295.004 234.6 296.633 235.523 297.536 237.032C298.439 238.541 298.483 240.413 297.653 241.962L291.284 253.843C291.282 253.847 291.28 253.85 291.278 253.854C289.255 257.664 285.754 260.396 281.19 260.396C279.747 260.396 278.39 260.109 277.137 259.666C276.569 259.885 275.96 260 275.34 260H271.314C269.899 260 268.622 259.412 267.712 258.468C267.586 258.477 267.46 258.482 267.332 258.482H265.396C265.276 258.482 265.156 258.478 265.037 258.469C264.127 259.413 262.85 260 261.436 260H257.432C254.837 260 252.704 258.023 252.456 255.493C251.934 255.633 251.402 255.739 250.866 255.817C250.477 258.19 248.416 260 245.933 260H241.577C240.13 260 238.826 259.385 237.913 258.403C235.809 259.628 233.325 260.308 230.69 260.308C226.96 260.308 223.532 258.946 221.056 256.603C219.845 257.425 218.498 258.007 217.078 258.398C216.191 259.797 214.63 260.726 212.851 260.726H210.647C211.947 261.024 213.092 261.834 213.801 263L214.89 264.787L215.924 263.046C216.825 261.53 218.459 260.6 220.223 260.6H223.809C225.63 260.6 227.224 261.573 228.098 263.029C228.993 261.535 230.615 260.6 232.386 260.6H236.676C238.655 260.6 240.447 261.766 241.248 263.575L248.068 278.975C248.753 280.522 248.61 282.31 247.687 283.727C246.765 285.145 245.188 286 243.496 286H238.964C237.065 286 235.342 284.925 234.498 283.248C233.655 284.925 231.932 286 230.032 286H225.588C225.295 286 225.004 285.974 224.721 285.924C224.436 285.974 224.146 286 223.853 286H219.827C218.412 286 217.134 285.412 216.225 284.468C216.099 284.477 215.972 284.482 215.845 284.482H213.909C213.788 284.482 213.669 284.478 213.55 284.469C212.64 285.413 211.363 286 209.949 286H205.945C204.77 286 203.69 285.595 202.837 284.917C201.053 285.709 199.111 286 197.264 286H189.982C188.947 286 187.986 285.686 187.189 285.148C185.405 285.927 183.434 286.308 181.392 286.308C178.773 286.308 176.31 285.638 174.225 284.426C173.313 285.395 172.019 286 170.583 286H166.293C165.091 286 163.988 285.576 163.125 284.868C162.242 285.592 161.126 286 159.957 286H155.843C155.267 286 154.713 285.902 154.197 285.723C153.682 285.902 153.128 286 152.551 286H148.239C147.147 286 146.136 285.65 145.313 285.055C144.491 285.65 143.48 286 142.387 286H138.097C135.381 286 133.17 283.834 133.099 281.135C132.252 282.525 131.058 283.611 129.793 284.378C127.495 285.773 124.727 286.33 122.124 286.33C120.196 286.33 118.171 286.019 116.204 285.374C115.485 285.773 114.659 286 113.779 286H109.489C108.286 286 107.183 285.576 106.321 284.868C105.437 285.592 104.321 286 103.153 286H99.0386C96.2772 286 94.0386 283.761 94.0386 281V265.6C94.0386 262.839 96.2772 260.6 99.0386 260.6H103.329C104.536 260.6 105.644 261.028 106.508 261.741C107.393 261.012 108.513 260.6 109.687 260.6H113.779C114.597 260.6 115.37 260.797 116.052 261.145C117.93 260.524 119.865 260.248 121.684 260.248C124.191 260.248 126.893 260.78 129.151 262.116C130.739 263.055 132.272 264.527 133.097 266.523V265.6C133.097 262.839 135.336 260.6 138.097 260.6H152.551C153.128 260.6 153.682 260.698 154.197 260.877C154.713 260.698 155.267 260.6 155.843 260.6H160.133C161.341 260.6 162.448 261.028 163.312 261.741C164.197 261.012 165.318 260.6 166.491 260.6H170.583C172.019 260.6 173.313 261.205 174.225 262.174C176.31 260.962 178.773 260.292 181.392 260.292C183.434 260.292 185.405 260.673 187.189 261.452C187.986 260.914 188.947 260.6 189.982 260.6H194.272C197.023 260.6 199.255 262.821 199.272 265.568C199.826 265.617 200.387 265.698 200.945 265.818V265.6C200.945 262.839 203.183 260.6 205.945 260.6H207.749C206.432 260.299 205.314 259.478 204.621 258.365C202.812 257.856 201.116 257.042 199.673 255.816C198.846 255.114 198.159 254.325 197.608 253.47C197.031 254.992 196.085 256.37 194.726 257.483C192.41 259.378 189.51 260 186.812 260H179.53C178.237 260 177.059 259.51 176.172 258.705C175.284 259.51 174.106 260 172.814 260H168.524C167.231 260 166.053 259.509 165.165 258.704C164.278 259.509 163.1 260 161.807 260H157.517C156.315 260 155.211 259.576 154.349 258.868C153.466 259.592 152.35 260 151.181 260H147.067C146.487 260 145.93 259.901 145.412 259.72C144.895 259.901 144.338 260 143.758 260H139.402C138.29 260 137.262 259.637 136.432 259.023C135.602 259.637 134.574 260 133.462 260H129.106C128.529 260 127.975 259.902 127.459 259.722C126.943 259.902 126.389 260 125.812 260H121.522C120.046 260 118.72 259.361 117.805 258.344C117.656 258.463 117.502 258.579 117.342 258.691C115.717 259.827 113.88 260.264 112.084 260.264C111.007 260.264 109.944 260.106 108.926 259.859C108.242 259.693 107.621 259.392 107.088 258.989C105.244 259.843 103.168 260.308 100.988 260.308C98.3609 260.308 95.883 259.632 93.7823 258.413C92.8698 259.39 91.5704 260 90.1284 260H85.8164C84.7238 260 83.713 259.65 82.8904 259.055C82.0677 259.65 81.057 260 79.9644 260H75.6744C75.3725 260 75.0769 259.973 74.7898 259.922C74.5019 259.973 74.2075 260 73.9096 260H69.3776C67.4777 260 65.755 258.925 64.9116 257.248C64.0681 258.925 62.3454 260 60.4456 260H56.0016C55.1396 260 54.3075 259.778 53.5765 259.373C51.7781 260.045 49.8319 260.33 47.9702 260.33C45.1748 260.33 42.1758 259.677 39.4445 258.296C37.0909 257.107 36.066 254.293 37.1027 251.868L38.4007 248.832C38.6917 248.152 39.1266 247.552 39.6672 247.069ZM73.9096 255L67.0896 239.6H62.7996L56.0016 255H60.4456L61.6556 252.008H68.1676L69.3776 255H73.9096ZM62.9316 248.796L64.9116 243.868L66.8916 248.796H62.9316ZM79.9644 255V243.054H85.8164V255H90.1284V239.6H75.6744V255H79.9644ZM121.522 255H125.812V239.6H113.404L113.184 245.738C113.163 246.29 113.137 246.812 113.101 247.3C112.971 249.06 112.711 250.373 112.084 251.03C111.835 251.291 111.529 251.449 111.151 251.491C111.087 251.498 111.02 251.502 110.952 251.502C110.948 251.502 110.944 251.502 110.94 251.502C110.742 251.502 110.544 251.48 110.346 251.436L110.104 255C110.393 255.07 110.672 255.126 110.94 255.168C111.258 255.219 111.562 255.249 111.851 255.26C111.93 255.263 112.007 255.264 112.084 255.264C112.396 255.264 112.689 255.241 112.963 255.194C113.906 255.035 114.631 254.605 115.188 253.935C115.826 253.166 116.245 252.08 116.522 250.72C116.797 249.366 116.931 247.739 117.001 245.883C117.001 245.88 117.001 245.878 117.001 245.875C117.005 245.771 117.008 245.667 117.012 245.562L117.1 243.054H121.522V255ZM95.1284 253.275C96.6303 254.555 98.6651 255.308 100.988 255.308C102.519 255.308 103.924 254.981 105.134 254.393C106.565 253.696 107.723 252.633 108.494 251.31C109.17 250.15 109.546 248.789 109.546 247.3C109.546 247.139 109.542 246.979 109.533 246.821C109.527 246.715 109.52 246.61 109.51 246.506C109.481 246.198 109.436 245.896 109.375 245.602C109.375 245.599 109.374 245.596 109.373 245.593C109.172 244.625 108.798 243.734 108.281 242.946C106.808 240.703 104.169 239.292 100.988 239.292C98.6651 239.292 96.6303 240.045 95.1284 241.325C93.4445 242.76 92.4305 244.858 92.4305 247.3C92.4305 249.742 93.4445 251.84 95.1284 253.275ZM139.402 255H143.758V239.6H139.402V245.386H133.462V239.6H129.106V255H133.462V248.994H139.402V255ZM157.517 255H161.807V239.6H157.715L151.357 248.642V239.6H147.067V255H151.181L157.517 245.98V255ZM168.524 255H172.814V243.054H177.522V239.6H163.794V243.054H168.524V255ZM179.53 255H186.812C190.783 255 193.261 253.16 193.301 249.61C193.302 249.581 193.302 249.551 193.302 249.522C193.302 246.156 191.124 244.506 187.384 244.506H183.82V239.6H179.53V255ZM183.82 251.876H186.526C186.624 251.876 186.719 251.872 186.812 251.865C187.832 251.785 188.561 251.267 188.82 250.383C188.888 250.15 188.924 249.892 188.924 249.61C188.924 249.58 188.923 249.551 188.923 249.522C188.916 249.273 188.881 249.052 188.82 248.856C188.614 248.198 188.109 247.832 187.384 247.685C187.125 247.633 186.838 247.608 186.526 247.608H183.82V251.876ZM208.869 255.726H212.851V254.032C212.975 254.025 213.097 254.016 213.218 254.007C213.44 253.989 213.656 253.967 213.868 253.942C215.633 253.728 217.076 253.241 218.184 252.508C219.937 251.349 220.847 249.575 220.859 247.3C220.859 247.285 220.859 247.271 220.859 247.256C220.859 247.249 220.859 247.241 220.859 247.234C220.853 244.953 219.948 243.189 218.212 242.027C217.099 241.282 215.645 240.785 213.868 240.557C213.66 240.53 213.447 240.507 213.23 240.488C213.105 240.477 212.979 240.467 212.851 240.458V238.874H208.869V240.458C208.736 240.468 208.605 240.479 208.475 240.492C208.263 240.513 208.056 240.537 207.852 240.564C203.293 241.18 200.861 243.5 200.861 247.256C200.861 250.991 203.293 253.329 207.852 253.93C208.048 253.955 208.247 253.978 208.451 253.997C208.589 254.01 208.728 254.022 208.869 254.032V255.726ZM213.869 250.475C213.611 250.535 213.334 250.584 213.037 250.622C212.976 250.63 212.914 250.637 212.851 250.644V243.868C213.218 243.909 213.557 243.966 213.869 244.039C215.731 244.477 216.635 245.501 216.635 247.234C216.635 247.241 216.635 247.249 216.635 247.256C216.628 248.983 215.766 250.033 213.869 250.475ZM208.869 243.868C208.501 243.911 208.162 243.968 207.851 244.04C205.932 244.484 205.085 245.495 205.085 247.256C205.085 248.983 206.03 249.989 207.851 250.439C208.165 250.516 208.504 250.577 208.869 250.622V243.868ZM224.481 241.641C223.016 243.051 222.143 245.006 222.132 247.256C222.132 247.271 222.132 247.285 222.132 247.3C222.132 249.553 222.995 251.512 224.45 252.929C225.98 254.418 228.164 255.308 230.69 255.308C233.027 255.308 235.072 254.546 236.577 253.252C238.244 251.817 239.248 249.729 239.248 247.3C239.248 244.871 238.244 242.783 236.577 241.348C235.072 240.054 233.027 239.292 230.69 239.292C228.181 239.292 226.009 240.17 224.481 241.641ZM205.945 281H209.949V273.014L213.909 279.482H215.845L219.805 272.838L219.827 281H223.853V280.989L223.809 265.6H220.223L214.949 274.478L214.946 274.482L214.943 274.488L209.531 265.6H205.945V281ZM194.272 265.6H189.982V281H197.264C198.702 281 199.943 280.759 200.945 280.283C202.71 279.444 203.728 277.875 203.753 275.61C203.754 275.581 203.754 275.551 203.754 275.522C203.754 273.241 202.754 271.748 200.945 271.022C200.085 270.677 199.041 270.506 197.836 270.506H194.272V265.6ZM194.272 273.608V277.876H196.978C197.076 277.876 197.171 277.872 197.264 277.865C198.284 277.785 199.013 277.267 199.272 276.383C199.34 276.15 199.376 275.892 199.376 275.61C199.376 275.58 199.376 275.551 199.375 275.522C199.368 275.273 199.333 275.052 199.272 274.856C199.066 274.198 198.561 273.832 197.836 273.685C197.577 273.633 197.29 273.608 196.978 273.608H194.272ZM184.874 276.303C183.977 277.21 182.904 277.7 181.612 277.7C181.538 277.7 181.465 277.699 181.392 277.696C178.981 277.596 177.322 275.863 177.322 273.3C177.322 270.737 178.981 269.004 181.392 268.905C181.465 268.902 181.538 268.9 181.612 268.9C182.904 268.9 183.977 269.39 184.874 270.297C184.91 270.333 184.946 270.371 184.982 270.409C185.02 270.449 185.057 270.49 185.094 270.532C185.144 270.588 185.193 270.645 185.242 270.704L188.014 268.196C187.825 267.959 187.622 267.735 187.408 267.526C186.72 266.853 185.906 266.323 184.982 265.948C184.525 265.762 184.042 265.615 183.533 265.507C182.927 265.379 182.286 265.307 181.612 265.294C181.539 265.293 181.466 265.292 181.392 265.292C179.086 265.292 177.07 266.033 175.583 267.307C173.921 268.733 172.922 270.826 172.922 273.3C172.922 275.774 173.921 277.867 175.583 279.293C177.07 280.568 179.086 281.308 181.392 281.308C181.466 281.308 181.539 281.307 181.612 281.306C182.286 281.293 182.927 281.221 183.533 281.093C184.042 280.985 184.525 280.838 184.982 280.652C185.906 280.278 186.72 279.747 187.408 279.074C187.622 278.865 187.825 278.641 188.014 278.404L185.242 275.896C185.193 275.955 185.144 276.012 185.094 276.068C185.057 276.11 185.02 276.151 184.982 276.191C184.946 276.229 184.91 276.267 184.874 276.303ZM166.491 265.6L160.133 274.642V265.6H155.843V281H159.957L166.293 271.98V281H170.583V265.6H166.491ZM138.097 265.6V281H142.387V269.054H148.239V281H152.551V265.6H138.097ZM113.779 265.6H109.687L103.329 274.642V265.6H99.0386V281H103.153L109.489 271.98V281H113.779V265.6ZM129.298 277.225C129.326 277.044 129.34 276.858 129.34 276.666C129.34 276.463 129.325 276.265 129.295 276.072C129.167 275.221 128.759 274.48 128.129 273.903C127.714 273.524 127.203 273.215 126.612 272.992C127.249 272.679 127.769 272.239 128.134 271.7C128.424 271.271 128.616 270.781 128.689 270.242C128.712 270.078 128.724 269.909 128.724 269.736C128.724 269.229 128.62 268.761 128.428 268.334C127.54 266.35 124.761 265.248 121.684 265.248C121.669 265.248 121.654 265.248 121.64 265.248C121.486 265.249 121.332 265.252 121.177 265.258C120.383 265.288 119.575 265.391 118.779 265.571C118.737 265.581 118.696 265.59 118.655 265.6C118.411 265.658 118.168 265.723 117.927 265.796C117.361 265.967 116.805 266.18 116.271 266.436L117.548 269.736C117.63 269.692 117.713 269.65 117.796 269.609C118.116 269.451 118.446 269.314 118.779 269.197C118.816 269.184 118.853 269.171 118.89 269.158C119.109 269.084 119.33 269.018 119.551 268.961C119.551 268.961 119.552 268.961 119.552 268.961C120.276 268.774 120.993 268.68 121.64 268.68C121.654 268.68 121.669 268.68 121.684 268.68C121.961 268.682 122.227 268.702 122.476 268.739C122.877 268.8 123.234 268.906 123.524 269.059C123.63 269.115 123.728 269.177 123.816 269.245C123.993 269.384 124.13 269.547 124.216 269.736C124.231 269.768 124.244 269.8 124.256 269.833C124.3 269.959 124.324 270.096 124.324 270.242C124.324 270.952 123.793 271.432 122.827 271.524C122.716 271.535 122.599 271.54 122.476 271.54H118.89V274.73H122.827C124.06 274.73 124.939 275.126 124.939 276.072C124.939 276.104 124.938 276.136 124.936 276.167C124.924 276.348 124.878 276.514 124.8 276.666C124.715 276.835 124.591 276.987 124.435 277.121C124.346 277.199 124.245 277.27 124.135 277.336C123.785 277.544 123.338 277.693 122.827 277.781C122.604 277.819 122.369 277.846 122.124 277.861C121.966 277.871 121.804 277.876 121.64 277.876C121.229 277.876 120.797 277.846 120.357 277.786C119.874 277.719 119.38 277.616 118.89 277.476C118.853 277.465 118.816 277.454 118.779 277.443C118.612 277.394 118.446 277.339 118.281 277.281C117.962 277.168 117.647 277.038 117.341 276.891C117.277 276.861 117.214 276.83 117.152 276.798L115.854 279.834C116.371 280.096 116.903 280.322 117.444 280.514C117.885 280.67 118.331 280.804 118.779 280.915C119.415 281.073 120.054 281.185 120.685 281.252C121.006 281.287 121.324 281.309 121.64 281.321C121.802 281.327 121.963 281.33 122.124 281.33C125.785 281.33 128.908 279.83 129.298 277.225ZM225.588 281L232.386 265.6H236.676L243.496 281H238.964L237.754 278.008H231.242L230.032 281H225.588ZM232.518 274.796H236.478L234.498 269.868L232.518 274.796ZM245.933 255V250.974H248.617C250.099 250.974 251.386 250.703 252.432 250.199C254.352 249.274 255.459 247.562 255.459 245.298C255.459 243.019 254.352 241.303 252.432 240.376C251.386 239.871 250.099 239.6 248.617 239.6H241.577V255H245.933ZM245.933 247.542H248.353C248.443 247.542 248.531 247.54 248.617 247.536C249.875 247.475 250.647 246.97 250.933 246.127C251.017 245.879 251.059 245.602 251.059 245.298C251.059 244.989 251.017 244.709 250.933 244.458C250.647 243.604 249.875 243.099 248.617 243.038C248.531 243.034 248.443 243.032 248.353 243.032H245.933V247.542ZM257.432 255H261.436V247.014L265.396 253.482H267.332L271.292 246.838L271.314 255H275.34V254.989L275.317 246.828L275.296 239.6H271.71L266.436 248.478L266.434 248.482L266.43 248.488L261.018 239.6H257.432V255ZM279.708 251.672C279.639 251.654 279.568 251.633 279.496 251.612L278.462 254.824C278.486 254.834 278.511 254.843 278.536 254.853C278.662 254.902 278.787 254.947 278.912 254.99C279.154 255.072 279.392 255.142 279.629 255.2C279.864 255.257 280.098 255.302 280.329 255.335C280.566 255.368 280.802 255.388 281.036 255.394C281.087 255.395 281.139 255.396 281.19 255.396C282.086 255.396 282.937 255.197 283.721 254.803C284.602 254.361 285.4 253.673 286.088 252.745C286.296 252.464 286.494 252.161 286.681 251.836C286.744 251.727 286.805 251.616 286.866 251.502L293.246 239.6H289L285.282 247.036L281.696 239.6H277.098L283.082 250.688C282.928 250.913 282.771 251.103 282.607 251.26C282.198 251.652 281.745 251.843 281.19 251.872C281.139 251.875 281.088 251.876 281.036 251.876C280.986 251.876 280.936 251.875 280.886 251.873C280.707 251.866 280.524 251.846 280.331 251.813C280.135 251.779 279.929 251.732 279.708 251.672ZM101.615 247.008C101.371 246.758 101.096 246.7 100.988 246.7C100.881 246.7 100.605 246.758 100.362 247.008C100.256 247.116 100.195 247.224 100.164 247.3C100.195 247.376 100.256 247.484 100.362 247.592C100.605 247.842 100.881 247.9 100.988 247.9C101.096 247.9 101.371 247.842 101.615 247.592C101.721 247.484 101.782 247.376 101.813 247.3C101.782 247.224 101.721 247.116 101.615 247.008ZM231.316 247.008C231.073 246.758 230.797 246.7 230.69 246.7C230.582 246.7 230.307 246.758 230.063 247.008C229.957 247.116 229.896 247.224 229.865 247.3C229.896 247.376 229.957 247.484 230.063 247.592C230.307 247.842 230.582 247.9 230.69 247.9C230.797 247.9 231.073 247.842 231.316 247.592C231.422 247.484 231.483 247.376 231.514 247.3C231.483 247.224 231.422 247.116 231.316 247.008ZM96.8305 247.3C96.8305 249.962 98.6565 251.7 100.988 251.7C103.32 251.7 105.146 249.962 105.146 247.3C105.146 244.638 103.32 242.9 100.988 242.9C98.6565 242.9 96.8305 244.638 96.8305 247.3ZM226.532 247.3C226.532 249.962 228.358 251.7 230.69 251.7C233.022 251.7 234.848 249.962 234.848 247.3C234.848 244.638 233.022 242.9 230.69 242.9C228.358 242.9 226.532 244.638 226.532 247.3Z" fill="white"/>
<rect x="16" y="303" width="304" height="70" rx="24" fill="white"/>
<rect x="16" y="397" width="125" height="43" rx="13" fill="white"/>
<rect x="195" y="397" width="125" height="43" rx="13" fill="white"/>
<path d="M50.8287 329.89C51.7387 329.512 52.2987 328.756 52.2987 327.776C52.2987 326.04 50.4367 325.018 48.2807 325.018C47.1887 325.018 46.0267 325.27 44.9907 325.83L45.5647 327.3C46.4187 326.796 47.3987 326.558 48.2387 326.558C49.4707 326.558 50.4507 327.062 50.4507 328C50.4507 328.77 49.8067 329.246 48.7147 329.246H46.5727V330.674H48.8547C50.0867 330.674 50.8567 331.108 50.8567 331.99C50.8567 333.04 49.6807 333.614 48.2807 333.614C47.2867 333.614 46.1807 333.32 45.2987 332.718L44.7107 334.048C45.8587 334.79 47.2307 335.14 48.5047 335.14C50.7447 335.14 52.7047 334.076 52.7047 332.256C52.7047 331.122 51.9907 330.254 50.8287 329.89ZM57.3585 327.44C56.1545 327.44 54.9925 327.748 54.1945 328.364L54.8805 329.638C55.4405 329.176 56.3085 328.896 57.1485 328.896C58.3945 328.896 59.0105 329.498 59.0105 330.52V330.632H57.0785C54.8105 330.632 53.9705 331.612 53.9705 332.858C53.9705 334.16 55.0485 335.098 56.7565 335.098C57.8765 335.098 58.6885 334.734 59.1085 334.09V335H60.7605V330.618C60.7605 328.462 59.5145 327.44 57.3585 327.44ZM57.1205 333.824C56.2245 333.824 55.6925 333.418 55.6925 332.788C55.6925 332.242 56.0145 331.794 57.2045 331.794H59.0105V332.662C58.7165 333.432 57.9745 333.824 57.1205 333.824ZM62.926 327.524V335H64.676V329.008H68.358V335H70.094V327.524H62.926ZM75.7873 335.098C78.1113 335.098 79.7773 333.502 79.7773 331.262C79.7773 329.022 78.1113 327.44 75.7873 327.44C73.4913 327.44 71.8113 329.022 71.8113 331.262C71.8113 333.502 73.4913 335.098 75.7873 335.098ZM75.7873 333.6C74.5273 333.6 73.5753 332.69 73.5753 331.262C73.5753 329.834 74.5273 328.924 75.7873 328.924C77.0613 328.924 78.0133 329.834 78.0133 331.262C78.0133 332.69 77.0613 333.6 75.7873 333.6ZM82.152 327.524L82.026 330.408C81.942 331.962 81.9 333.558 80.752 333.558C80.654 333.558 80.542 333.544 80.416 333.516L80.332 334.986C80.696 335.084 81.018 335.14 81.298 335.14C83.062 335.14 83.454 333.152 83.58 330.492L83.65 329.008H86.45V335H88.2V327.524H82.152ZM90.5569 335H92.3069V332.046H96.0729V335H97.8229V327.524H96.0729V330.562H92.3069V327.524H90.5569V335ZM107 327.44C105.054 327.44 103.556 328.63 103.206 330.422H101.918V327.524H100.168V335H101.918V332.004H103.178C103.5 333.852 105.012 335.098 107 335.098C109.254 335.098 110.892 333.502 110.892 331.262C110.892 329.008 109.254 327.44 107 327.44ZM107 333.614C105.782 333.614 104.858 332.704 104.858 331.262C104.858 329.82 105.782 328.924 107 328.924C108.218 328.924 109.156 329.82 109.156 331.262C109.156 332.704 108.218 333.614 107 333.614ZM126.363 331.248C126.363 328.938 124.739 327.608 121.911 327.426V324.612H120.259V327.426C117.417 327.608 115.821 328.924 115.821 331.248C115.821 333.6 117.431 334.944 120.259 335.126V337.716H121.911V335.112C124.739 334.93 126.363 333.586 126.363 331.248ZM117.543 331.248C117.543 329.862 118.383 329.064 120.259 328.91V333.656C118.397 333.488 117.543 332.676 117.543 331.248ZM121.911 333.656V328.91C123.773 329.064 124.655 329.834 124.655 331.248C124.655 332.676 123.773 333.488 121.911 333.656ZM131.391 335.098C133.715 335.098 135.381 333.502 135.381 331.262C135.381 329.022 133.715 327.44 131.391 327.44C129.095 327.44 127.415 329.022 127.415 331.262C127.415 333.502 129.095 335.098 131.391 335.098ZM131.391 333.6C130.131 333.6 129.179 332.69 129.179 331.262C129.179 329.834 130.131 328.924 131.391 328.924C132.665 328.924 133.617 329.834 133.617 331.262C133.617 332.69 132.665 333.6 131.391 333.6ZM141.254 327.44C140.232 327.44 139.364 327.79 138.776 328.504V327.524H137.11V337.716H138.86V334.09C139.462 334.776 140.302 335.098 141.254 335.098C143.438 335.098 145.048 333.586 145.048 331.262C145.048 328.952 143.438 327.44 141.254 327.44ZM141.058 333.6C139.798 333.6 138.832 332.69 138.832 331.262C138.832 329.834 139.798 328.924 141.058 328.924C142.318 328.924 143.27 329.834 143.27 331.262C143.27 332.69 142.318 333.6 141.058 333.6ZM155.721 335L155.707 327.524H154.069L151.283 332.2L148.623 327.524H146.789V335H148.385V330.03L150.863 334.216H151.619L154.139 330.044V335H155.721ZM163.445 327.524L161.079 333.054L158.727 327.524H156.907L160.169 335.028L160.043 335.322C159.707 336.064 159.343 336.358 158.727 336.358C158.251 336.358 157.775 336.162 157.439 335.84L156.739 337.128C157.215 337.562 157.999 337.814 158.741 337.814C159.987 337.814 160.939 337.296 161.625 335.602L165.125 327.524H163.445ZM170.209 335H171.819L175.935 330.072V335H177.685V327.524H176.089L171.959 332.452V327.524H170.209V335ZM184.41 331.108C185.18 330.8 185.67 330.198 185.67 329.47C185.67 328.238 184.27 327.412 182.352 327.412C181.372 327.412 180.406 327.622 179.384 328.098L179.832 329.386C180.658 329.022 181.442 328.84 182.198 328.84C183.248 328.84 183.878 329.176 183.878 329.722C183.878 330.268 183.36 330.576 182.478 330.576H181.162V331.752H182.618C183.556 331.752 184.088 332.074 184.088 332.662C184.088 333.306 183.374 333.684 182.212 333.684C181.288 333.684 180.336 333.446 179.608 333.04L179.104 334.342C180 334.846 181.148 335.126 182.296 335.126C184.382 335.126 185.88 334.188 185.88 332.802C185.88 331.976 185.334 331.374 184.41 331.108ZM198.551 331.304C198.551 328.966 196.955 327.44 194.771 327.44C192.545 327.44 190.907 329.036 190.907 331.262C190.907 333.488 192.531 335.098 195.037 335.098C196.325 335.098 197.375 334.678 198.047 333.88L197.109 332.802C196.577 333.348 195.919 333.614 195.079 333.614C193.777 333.614 192.867 332.914 192.657 331.822H198.523C198.537 331.654 198.551 331.444 198.551 331.304ZM194.771 328.84C195.919 328.84 196.745 329.582 196.885 330.66H192.643C192.811 329.568 193.637 328.84 194.771 328.84ZM199.991 331.836H203.841V330.38H199.991V331.836ZM215.191 327.44C214.001 327.44 212.993 327.916 212.391 328.686C211.873 327.846 210.963 327.44 209.871 327.44C208.849 327.44 207.981 327.804 207.421 328.476V327.524H205.755V335H207.505V331.206C207.505 329.722 208.289 328.966 209.451 328.966C210.515 328.966 211.131 329.61 211.131 330.94V335H212.881V331.206C212.881 329.722 213.679 328.966 214.827 328.966C215.891 328.966 216.507 329.61 216.507 330.94V335H218.257V330.716C218.257 328.462 216.997 327.44 215.191 327.44ZM223.35 327.44C222.146 327.44 220.984 327.748 220.186 328.364L220.872 329.638C221.432 329.176 222.3 328.896 223.14 328.896C224.386 328.896 225.002 329.498 225.002 330.52V330.632H223.07C220.802 330.632 219.962 331.612 219.962 332.858C219.962 334.16 221.04 335.098 222.748 335.098C223.868 335.098 224.68 334.734 225.1 334.09V335H226.752V330.618C226.752 328.462 225.506 327.44 223.35 327.44ZM223.112 333.824C222.216 333.824 221.684 333.418 221.684 332.788C221.684 332.242 222.006 331.794 223.196 331.794H225.002V332.662C224.708 333.432 223.966 333.824 223.112 333.824ZM229.88 326.292C230.538 326.292 231 325.816 231 325.2C231 324.626 230.524 324.192 229.88 324.192C229.236 324.192 228.76 324.654 228.76 325.242C228.76 325.83 229.236 326.292 229.88 326.292ZM228.998 335H230.748V327.524H228.998V335ZM233.044 335H234.794V324.612H233.044V335ZM237.665 332.774C237.021 332.774 236.531 333.236 236.531 333.936C236.531 334.44 236.797 334.804 237.189 334.972L236.629 337.114H237.763L238.477 335.14C238.729 334.496 238.799 334.244 238.799 333.936C238.799 333.25 238.323 332.774 237.665 332.774ZM248.998 327.524V330.8C248.396 331.08 247.738 331.22 247.122 331.22C246.114 331.22 245.512 330.786 245.512 329.806V327.524H243.762V329.918C243.762 331.78 244.854 332.62 246.744 332.62C247.57 332.62 248.326 332.424 248.998 332.102V335H250.748V327.524H248.998ZM259.024 327.524H252.024V329.008H254.656V335H256.406V329.008H259.024V327.524ZM263.297 335.098C265.621 335.098 267.287 333.502 267.287 331.262C267.287 329.022 265.621 327.44 263.297 327.44C261.001 327.44 259.321 329.022 259.321 331.262C259.321 333.502 261.001 335.098 263.297 335.098ZM263.297 333.6C262.037 333.6 261.085 332.69 261.085 331.262C261.085 329.834 262.037 328.924 263.297 328.924C264.571 328.924 265.523 329.834 265.523 331.262C265.523 332.69 264.571 333.6 263.297 333.6ZM273.062 327.888C271.914 327.888 270.934 328.35 270.276 329.148C270.43 327.524 271.284 326.684 273.09 326.306L276.24 325.662L275.988 324.094L272.516 324.836C269.856 325.396 268.596 327.146 268.596 330.142C268.596 333.404 270.108 335.14 272.67 335.14C275.022 335.14 276.66 333.67 276.66 331.472C276.66 329.358 275.204 327.888 273.062 327.888ZM272.712 333.726C271.424 333.726 270.528 332.816 270.528 331.514C270.528 330.212 271.41 329.372 272.712 329.372C274 329.372 274.868 330.212 274.868 331.514C274.868 332.802 274 333.726 272.712 333.726ZM281.994 329.988L280.104 329.974V327.524H278.354V335L281.742 335.014C283.786 335.028 284.934 334.09 284.934 332.452C284.934 330.898 283.912 329.988 281.994 329.988ZM285.9 335H287.65V327.524H285.9V335ZM281.588 333.726L280.104 333.712V331.178L281.588 331.192C282.624 331.206 283.17 331.57 283.17 332.424C283.17 333.292 282.61 333.74 281.588 333.726ZM51.0199 347.108C51.7899 346.8 52.2799 346.198 52.2799 345.47C52.2799 344.238 50.8799 343.412 48.9619 343.412C47.9819 343.412 47.0159 343.622 45.9939 344.098L46.4419 345.386C47.2679 345.022 48.0519 344.84 48.8079 344.84C49.8579 344.84 50.4879 345.176 50.4879 345.722C50.4879 346.268 49.9699 346.576 49.0879 346.576H47.7719V347.752H49.2279C50.1659 347.752 50.6979 348.074 50.6979 348.662C50.6979 349.306 49.9839 349.684 48.8219 349.684C47.8979 349.684 46.9459 349.446 46.2179 349.04L45.7139 350.342C46.6099 350.846 47.7579 351.126 48.9059 351.126C50.9919 351.126 52.4899 350.188 52.4899 348.802C52.4899 347.976 51.9439 347.374 51.0199 347.108ZM57.0782 343.44C55.8742 343.44 54.7122 343.748 53.9142 344.364L54.6002 345.638C55.1602 345.176 56.0282 344.896 56.8682 344.896C58.1142 344.896 58.7302 345.498 58.7302 346.52V346.632H56.7982C54.5302 346.632 53.6902 347.612 53.6902 348.858C53.6902 350.16 54.7682 351.098 56.4762 351.098C57.5962 351.098 58.4082 350.734 58.8282 350.09V351H60.4802V346.618C60.4802 344.462 59.2342 343.44 57.0782 343.44ZM56.8402 349.824C55.9442 349.824 55.4122 349.418 55.4122 348.788C55.4122 348.242 55.7342 347.794 56.9242 347.794H58.7302V348.662C58.4362 349.432 57.6942 349.824 56.8402 349.824ZM66.7897 343.44C65.7677 343.44 64.8997 343.79 64.3117 344.504V343.524H62.6457V353.716H64.3957V350.09C64.9977 350.776 65.8377 351.098 66.7897 351.098C68.9737 351.098 70.5837 349.586 70.5837 347.262C70.5837 344.952 68.9737 343.44 66.7897 343.44ZM66.5937 349.6C65.3337 349.6 64.3677 348.69 64.3677 347.262C64.3677 345.834 65.3337 344.924 66.5937 344.924C67.8537 344.924 68.8057 345.834 68.8057 347.262C68.8057 348.69 67.8537 349.6 66.5937 349.6ZM75.0157 343.44C73.8117 343.44 72.6497 343.748 71.8517 344.364L72.5377 345.638C73.0977 345.176 73.9657 344.896 74.8057 344.896C76.0517 344.896 76.6677 345.498 76.6677 346.52V346.632H74.7357C72.4677 346.632 71.6277 347.612 71.6277 348.858C71.6277 350.16 72.7057 351.098 74.4137 351.098C75.5337 351.098 76.3457 350.734 76.7657 350.09V351H78.4177V346.618C78.4177 344.462 77.1717 343.44 75.0157 343.44ZM74.7777 349.824C73.8817 349.824 73.3497 349.418 73.3497 348.788C73.3497 348.242 73.6717 347.794 74.8617 347.794H76.6677V348.662C76.3737 349.432 75.6317 349.824 74.7777 349.824ZM84.6292 343.888C83.4812 343.888 82.5012 344.35 81.8432 345.148C81.9972 343.524 82.8512 342.684 84.6572 342.306L87.8072 341.662L87.5552 340.094L84.0832 340.836C81.4232 341.396 80.1632 343.146 80.1632 346.142C80.1632 349.404 81.6752 351.14 84.2372 351.14C86.5892 351.14 88.2272 349.67 88.2272 347.472C88.2272 345.358 86.7712 343.888 84.6292 343.888ZM84.2792 349.726C82.9912 349.726 82.0952 348.816 82.0952 347.514C82.0952 346.212 82.9772 345.372 84.2792 345.372C85.5672 345.372 86.4352 346.212 86.4352 347.514C86.4352 348.802 85.5672 349.726 84.2792 349.726ZM93.2531 351.098C95.5771 351.098 97.2431 349.502 97.2431 347.262C97.2431 345.022 95.5771 343.44 93.2531 343.44C90.9571 343.44 89.2771 345.022 89.2771 347.262C89.2771 349.502 90.9571 351.098 93.2531 351.098ZM93.2531 349.6C91.9931 349.6 91.0411 348.69 91.0411 347.262C91.0411 345.834 91.9931 344.924 93.2531 344.924C94.5271 344.924 95.4791 345.834 95.4791 347.262C95.4791 348.69 94.5271 349.6 93.2531 349.6ZM104.62 343.524H97.6205V345.008H100.252V351H102.002V345.008H104.62V343.524ZM108.676 343.44C107.472 343.44 106.31 343.748 105.512 344.364L106.198 345.638C106.758 345.176 107.626 344.896 108.466 344.896C109.712 344.896 110.328 345.498 110.328 346.52V346.632H108.396C106.128 346.632 105.288 347.612 105.288 348.858C105.288 350.16 106.366 351.098 108.074 351.098C109.194 351.098 110.006 350.734 110.426 350.09V351H112.078V346.618C112.078 344.462 110.832 343.44 108.676 343.44ZM108.438 349.824C107.542 349.824 107.01 349.418 107.01 348.788C107.01 348.242 107.332 347.794 108.522 347.794H110.328V348.662C110.034 349.432 109.292 349.824 108.438 349.824ZM120.165 343.524H113.165V345.008H115.797V351H117.547V345.008H120.165V343.524ZM125.187 345.988L123.185 345.974V343.524H121.435V351L124.935 351.014C126.979 351.028 128.141 350.09 128.141 348.452C128.141 346.898 127.105 345.988 125.187 345.988ZM124.781 349.726L123.185 349.712V347.178L124.781 347.192C125.817 347.206 126.363 347.57 126.363 348.424C126.363 349.292 125.803 349.74 124.781 349.726ZM137.594 343.888C136.446 343.888 135.466 344.35 134.808 345.148C134.962 343.524 135.816 342.684 137.622 342.306L140.772 341.662L140.52 340.094L137.048 340.836C134.388 341.396 133.128 343.146 133.128 346.142C133.128 349.404 134.64 351.14 137.202 351.14C139.554 351.14 141.192 349.67 141.192 347.472C141.192 345.358 139.736 343.888 137.594 343.888ZM137.244 349.726C135.956 349.726 135.06 348.816 135.06 347.514C135.06 346.212 135.942 345.372 137.244 345.372C138.532 345.372 139.4 346.212 139.4 347.514C139.4 348.802 138.532 349.726 137.244 349.726ZM146.218 351.098C148.542 351.098 150.208 349.502 150.208 347.262C150.208 345.022 148.542 343.44 146.218 343.44C143.922 343.44 142.242 345.022 142.242 347.262C142.242 349.502 143.922 351.098 146.218 351.098ZM146.218 349.6C144.958 349.6 144.006 348.69 144.006 347.262C144.006 345.834 144.958 344.924 146.218 344.924C147.492 344.924 148.444 345.834 148.444 347.262C148.444 348.69 147.492 349.6 146.218 349.6ZM152.583 343.524L152.457 346.408C152.373 347.962 152.331 349.558 151.183 349.558C151.085 349.558 150.973 349.544 150.847 349.516L150.763 350.986C151.127 351.084 151.449 351.14 151.729 351.14C153.493 351.14 153.885 349.152 154.011 346.492L154.081 345.008H156.881V351H158.631V343.524H152.583ZM164.74 345.988L162.738 345.974V343.524H160.988V351L164.488 351.014C166.532 351.028 167.694 350.09 167.694 348.452C167.694 346.898 166.658 345.988 164.74 345.988ZM164.334 349.726L162.738 349.712V347.178L164.334 347.192C165.37 347.206 165.916 347.57 165.916 348.424C165.916 349.292 165.356 349.74 164.334 349.726ZM178.5 343.524V349.516H175.63V343.524H173.88V349.516H170.982V343.524H169.232V351H180.25V343.524H178.5ZM189.603 347.304C189.603 344.966 188.007 343.44 185.823 343.44C183.597 343.44 181.959 345.036 181.959 347.262C181.959 349.488 183.583 351.098 186.089 351.098C187.377 351.098 188.427 350.678 189.099 349.88L188.161 348.802C187.629 349.348 186.971 349.614 186.131 349.614C184.829 349.614 183.919 348.914 183.709 347.822H189.575C189.589 347.654 189.603 347.444 189.603 347.304ZM185.823 344.84C186.971 344.84 187.797 345.582 187.937 346.66H183.695C183.863 345.568 184.689 344.84 185.823 344.84ZM202.26 349.516V343.524H196.1L196.002 346.086C195.918 347.836 195.736 349.474 194.686 349.516H194.336V352.666H195.96V351H201.728V352.666H203.366V349.516H202.26ZM197.598 346.212L197.64 345.008H200.51V349.516H196.828C197.43 348.942 197.542 347.612 197.598 346.212ZM211.929 347.304C211.929 344.966 210.333 343.44 208.149 343.44C205.923 343.44 204.285 345.036 204.285 347.262C204.285 349.488 205.909 351.098 208.415 351.098C209.703 351.098 210.753 350.678 211.425 349.88L210.487 348.802C209.955 349.348 209.297 349.614 208.457 349.614C207.155 349.614 206.245 348.914 206.035 347.822H211.901C211.915 347.654 211.929 347.444 211.929 347.304ZM208.149 344.84C209.297 344.84 210.123 345.582 210.263 346.66H206.021C206.189 345.568 207.015 344.84 208.149 344.84ZM213.843 351H215.593V348.046H219.359V351H221.109V343.524H219.359V346.562H215.593V343.524H213.843V351ZM230.454 347.304C230.454 344.966 228.858 343.44 226.674 343.44C224.448 343.44 222.81 345.036 222.81 347.262C222.81 349.488 224.434 351.098 226.94 351.098C228.228 351.098 229.278 350.678 229.95 349.88L229.012 348.802C228.48 349.348 227.822 349.614 226.982 349.614C225.68 349.614 224.77 348.914 224.56 347.822H230.426C230.44 347.654 230.454 347.444 230.454 347.304ZM226.674 344.84C227.822 344.84 228.648 345.582 228.788 346.66H224.546C224.714 345.568 225.54 344.84 226.674 344.84ZM238.108 343.524H232.368V351H234.118V345.008H238.108V343.524ZM247.717 347.108C248.487 346.8 248.977 346.198 248.977 345.47C248.977 344.238 247.577 343.412 245.659 343.412C244.679 343.412 243.713 343.622 242.691 344.098L243.139 345.386C243.965 345.022 244.749 344.84 245.505 344.84C246.555 344.84 247.185 345.176 247.185 345.722C247.185 346.268 246.667 346.576 245.785 346.576H244.469V347.752H245.925C246.863 347.752 247.395 348.074 247.395 348.662C247.395 349.306 246.681 349.684 245.519 349.684C244.595 349.684 243.643 349.446 242.915 349.04L242.411 350.342C243.307 350.846 244.455 351.126 245.603 351.126C247.689 351.126 249.187 350.188 249.187 348.802C249.187 347.976 248.641 347.374 247.717 347.108ZM253.775 343.44C252.571 343.44 251.409 343.748 250.611 344.364L251.297 345.638C251.857 345.176 252.725 344.896 253.565 344.896C254.811 344.896 255.427 345.498 255.427 346.52V346.632H253.495C251.227 346.632 250.387 347.612 250.387 348.858C250.387 350.16 251.465 351.098 253.173 351.098C254.293 351.098 255.105 350.734 255.525 350.09V351H257.177V346.618C257.177 344.462 255.931 343.44 253.775 343.44ZM253.537 349.824C252.641 349.824 252.109 349.418 252.109 348.788C252.109 348.242 252.431 347.794 253.621 347.794H255.427V348.662C255.133 349.432 254.391 349.824 253.537 349.824ZM269.862 351L266.936 347.178L269.736 343.524H267.846L266.012 345.974L264.178 343.524H262.232L265.018 347.206L262.106 351H264.038L265.97 348.41L267.888 351H269.862ZM274.2 351.098C276.524 351.098 278.19 349.502 278.19 347.262C278.19 345.022 276.524 343.44 274.2 343.44C271.904 343.44 270.224 345.022 270.224 347.262C270.224 349.502 271.904 351.098 274.2 351.098ZM274.2 349.6C272.94 349.6 271.988 348.69 271.988 347.262C271.988 345.834 272.94 344.924 274.2 344.924C275.474 344.924 276.426 345.834 276.426 347.262C276.426 348.69 275.474 349.6 274.2 349.6ZM286.711 349.516V343.524H280.551L280.453 346.086C280.369 347.836 280.187 349.474 279.137 349.516H278.787V352.666H280.411V351H286.179V352.666H287.817V349.516H286.711ZM282.049 346.212L282.091 345.008H284.961V349.516H281.279C281.881 348.942 281.993 347.612 282.049 346.212ZM289.912 351.098C290.542 351.098 291.06 350.608 291.06 349.936C291.06 349.236 290.542 348.774 289.912 348.774C289.282 348.774 288.764 349.236 288.764 349.936C288.764 350.608 289.282 351.098 289.912 351.098Z" fill="black"/>
<path d="M252 5C252 26.7477 243.361 47.6048 227.983 62.9828C212.605 78.3607 191.748 87 170 87C148.252 87 127.395 78.3607 112.017 62.9828C96.6393 47.6048 88 26.7478 88 5.00002L170 5H252Z" fill="white"/>
<path d="M48.032 423.216C48.032 414.96 35.328 417.52 35.328 414.096C35.328 412.976 36.288 412.08 38.944 412.08C40.896 412.08 43.008 412.656 45.152 413.808L47.104 409.104C45.312 408.048 42.976 407.408 40.608 407.216V403.76H36.768V407.28C31.584 407.92 29.056 410.896 29.056 414.416C29.056 422.736 41.792 420.144 41.792 423.696C41.792 424.784 40.768 425.52 38.144 425.52C35.552 425.52 32.736 424.624 30.752 423.312L28.672 427.984C30.528 429.264 33.568 430.192 36.768 430.416V433.84H40.608V430.288C45.6 429.552 48.032 426.608 48.032 423.216Z" fill="#00BCBC"/>
<path d="M71.78 426.24C75.24 426.24 77.78 423.62 77.78 419C77.78 414.38 75.24 411.76 71.78 411.76C68.34 411.76 65.78 414.38 65.78 419C65.78 423.62 68.34 426.24 71.78 426.24ZM71.78 423.5C70.18 423.5 69.06 422.18 69.06 419C69.06 415.82 70.18 414.5 71.78 414.5C73.4 414.5 74.52 415.82 74.52 419C74.52 422.18 73.4 423.5 71.78 423.5ZM80.9603 422.28C79.8603 422.28 79.0203 423.04 79.0203 424.2C79.0203 425.02 79.4403 425.64 80.1003 425.9L79.2203 429.08H81.2003L82.3403 426.2C82.8003 425.1 82.8803 424.72 82.8803 424.2C82.8803 423.06 82.0803 422.28 80.9603 422.28ZM90.0808 426.24C93.5408 426.24 96.0808 423.62 96.0808 419C96.0808 414.38 93.5408 411.76 90.0808 411.76C86.6408 411.76 84.0808 414.38 84.0808 419C84.0808 423.62 86.6408 426.24 90.0808 426.24ZM90.0808 423.5C88.4808 423.5 87.3608 422.18 87.3608 419C87.3608 415.82 88.4808 414.5 90.0808 414.5C91.7008 414.5 92.8208 415.82 92.8208 419C92.8208 422.18 91.7008 423.5 90.0808 423.5ZM103.655 426.24C107.115 426.24 109.655 423.62 109.655 419C109.655 414.38 107.115 411.76 103.655 411.76C100.215 411.76 97.655 414.38 97.655 419C97.655 423.62 100.215 426.24 103.655 426.24ZM103.655 423.5C102.055 423.5 100.935 422.18 100.935 419C100.935 415.82 102.055 414.5 103.655 414.5C105.275 414.5 106.395 415.82 106.395 419C106.395 422.18 105.275 423.5 103.655 423.5Z" fill="black"/>
<g filter="url(#filter0_di)">
<path d="M146.108 188.69H153.418V196H146.108V188.69Z" fill="white"/>
<path d="M192.604 134.31H212.778L187.235 108.766V128.941C187.235 131.901 189.643 134.31 192.604 134.31Z" fill="white"/>
<path d="M146.108 161.272H153.418V168.582H146.108V161.272Z" fill="white"/>
<path d="M192.603 140.709C186.115 140.709 180.835 135.43 180.835 128.941V106.892H137.768C131.279 106.892 126 112.171 126 118.66V204.34C126 210.829 131.279 216.108 137.768 216.108H202.885C209.374 216.108 214.653 210.829 214.653 204.34V140.709H192.603ZM184.035 154.873C185.802 154.873 187.235 156.306 187.235 158.073C187.235 159.84 185.802 161.272 184.035 161.272H170.327C168.559 161.272 167.127 159.84 167.127 158.073C167.127 156.306 168.559 154.873 170.327 154.873H184.035ZM142.909 124.028H160.045C161.812 124.028 163.244 125.461 163.244 127.228C163.244 128.995 161.812 130.427 160.045 130.427H142.909C141.142 130.427 139.709 128.995 139.709 127.228C139.709 125.461 141.142 124.028 142.909 124.028ZM142.909 137.737H170.327C172.093 137.737 173.526 139.17 173.526 140.937C173.526 142.704 172.093 144.136 170.327 144.136H142.909C141.142 144.136 139.709 142.704 139.709 140.937C139.709 139.17 141.142 137.737 142.909 137.737ZM159.817 199.199C159.817 200.967 158.385 202.399 156.618 202.399H142.909C141.142 202.399 139.709 200.967 139.709 199.199V185.49C139.709 183.723 141.142 182.291 142.909 182.291H156.618C158.385 182.291 159.817 183.723 159.817 185.49V199.199ZM159.817 171.782C159.817 173.549 158.385 174.981 156.618 174.981H142.909C141.142 174.981 139.709 173.549 139.709 171.782V158.073C139.709 156.305 141.142 154.873 142.909 154.873H156.618C158.385 154.873 159.817 156.305 159.817 158.073V171.782ZM197.744 202.399H170.327C168.559 202.399 167.127 200.967 167.127 199.199C167.127 197.432 168.559 196 170.327 196H197.744C199.511 196 200.944 197.432 200.944 199.199C200.944 200.967 199.511 202.399 197.744 202.399ZM167.127 185.491C167.127 183.724 168.559 182.291 170.327 182.291H184.035C185.802 182.291 187.235 183.724 187.235 185.491C187.235 187.258 185.802 188.69 184.035 188.69H170.327C168.559 188.69 167.127 187.258 167.127 185.491ZM197.744 174.981H170.327C168.559 174.981 167.127 173.549 167.127 171.782C167.127 170.015 168.559 168.582 170.327 168.582H197.744C199.511 168.582 200.944 170.015 200.944 171.782C200.944 173.549 199.511 174.981 197.744 174.981Z" fill="white"/>
</g>
<path d="M235.14 412V414.6H237.94V426H241.18V412H235.14ZM249.612 426.24C253.072 426.24 255.612 423.62 255.612 419C255.612 414.38 253.072 411.76 249.612 411.76C246.172 411.76 243.612 414.38 243.612 419C243.612 423.62 246.172 426.24 249.612 426.24ZM249.612 423.5C248.012 423.5 246.892 422.18 246.892 419C246.892 415.82 248.012 414.5 249.612 414.5C251.232 414.5 252.352 415.82 252.352 419C252.352 422.18 251.232 423.5 249.612 423.5ZM276.89 426L276.85 415.24H273.93L270.27 421.46L266.83 415.24H263.57V426H266.39V419.54L269.53 424.96H270.85L274.07 419.56V426H276.89ZM279.879 426H282.759L287.979 419.6V426H291.079V415.24H288.219L282.979 421.64V415.24H279.879V426ZM294.078 426H297.178V421.98H301.858V426H304.978V415.24H301.858V419.44H297.178V415.24H294.078V426Z" fill="black"/>
<path d="M216.5 406C209.595 406 204 411.595 204 418.5C204 425.405 209.595 431 216.5 431C223.405 431 229 425.405 229 418.5C229 411.595 223.405 406 216.5 406Z" fill="#00BCBC"/>
<path fill-rule="evenodd" clip-rule="evenodd" d="M215.961 410C214.878 410 214 410.878 214 411.961V419.153C214 419.311 214.019 419.464 214.054 419.611C214.047 420.263 214.376 420.901 214.974 421.262L220.414 424.535C221.313 425.077 222.481 424.786 223.022 423.887C223.563 422.988 223.273 421.82 222.374 421.279L217.923 418.6V411.961C217.923 410.878 217.045 410 215.961 410Z" fill="white"/>
<g filter="url(#filter1_d)">
<path d="M162.531 400.393L185.975 433.213C179.766 434.57 168.698 428.331 168.698 428.331C168.698 428.331 160.834 438.706 154.912 440L162.531 400.393Z" fill="white"/>
<path fill-rule="evenodd" clip-rule="evenodd" d="M154.912 440L158.469 421.51C161.522 424.284 164.956 426.604 168.698 428.331C168.698 428.331 160.834 438.706 154.912 440Z" fill="#BBFFF9"/>
</g>
<path d="M139.785 25.4V34.274H147.325V66H158.809V25.4H139.785ZM183.533 56.894L191.189 49.818C196.989 44.482 198.091 40.886 198.091 36.942C198.091 29.402 191.653 24.588 182.315 24.588C174.311 24.588 168.569 27.952 165.495 33.056L174.021 37.812C175.645 35.202 178.313 33.868 181.271 33.868C184.751 33.868 186.491 35.434 186.491 38.044C186.491 39.726 186.027 41.582 182.779 44.598L167.583 58.808V66H199.193V56.894H183.533Z" fill="#46BBCE"/>
<defs>
<filter id="filter0_di" x="123" y="103.892" width="102.653" height="123.216" filterUnits="userSpaceOnUse" color-interpolation-filters="sRGB">
<feFlood flood-opacity="0" result="BackgroundImageFix"/>
<feColorMatrix in="SourceAlpha" type="matrix" values="0 0 0 0 0 0 0 0 0 0 0 0 0 0 0 0 0 0 127 0"/>
<feOffset dx="4" dy="4"/>
<feGaussianBlur stdDeviation="3.5"/>
<feColorMatrix type="matrix" values="0 0 0 0 0.1715 0 0 0 0 0.816667 0 0 0 0 0.816667 0 0 0 1 0"/>
<feBlend mode="normal" in2="BackgroundImageFix" result="effect1_dropShadow"/>
<feBlend mode="normal" in="SourceGraphic" in2="effect1_dropShadow" result="shape"/>
<feColorMatrix in="SourceAlpha" type="matrix" values="0 0 0 0 0 0 0 0 0 0 0 0 0 0 0 0 0 0 127 0" result="hardAlpha"/>
<feOffset dx="-2" dy="-2"/>
<feGaussianBlur stdDeviation="2.5"/>
<feComposite in2="hardAlpha" operator="arithmetic" k2="-1" k3="1"/>
<feColorMatrix type="matrix" values="0 0 0 0 0.441945 0 0 0 0 0.887146 0 0 0 0 0.895833 0 0 0 0.52 0"/>
<feBlend mode="normal" in2="shape" result="effect2_innerShadow"/>
</filter>
<filter id="filter1_d" x="150.912" y="396.393" width="45.0628" height="53.6066" filterUnits="userSpaceOnUse" color-interpolation-filters="sRGB">
<feFlood flood-opacity="0" result="BackgroundImageFix"/>
<feColorMatrix in="SourceAlpha" type="matrix" values="0 0 0 0 0 0 0 0 0 0 0 0 0 0 0 0 0 0 127 0"/>
<feOffset dx="3" dy="3"/>
<feGaussianBlur stdDeviation="3.5"/>
<feColorMatrix type="matrix" values="0 0 0 0 0.279 0 0 0 0 0.9 0 0 0 0 0.840225 0 0 0 1 0"/>
<feBlend mode="normal" in2="BackgroundImageFix" result="effect1_dropShadow"/>
<feBlend mode="normal" in="SourceGraphic" in2="effect1_dropShadow" result="shape"/>
</filter>
<linearGradient id="paint0_linear" x1="5.5" y1="-157" x2="289.5" y2="495.5" gradientUnits="userSpaceOnUse">
<stop stop-color="#00C2FF"/>
<stop offset="1" stop-color="#1EE7CF"/>
</linearGradient>
<linearGradient id="paint1_linear" x1="49" y1="11" x2="301.5" y2="474" gradientUnits="userSpaceOnUse">
<stop stop-color="#19D2EB"/>
<stop offset="1" stop-color="#55F5DF"/>
</linearGradient>
<linearGradient id="paint2_linear" x1="59.5" y1="-9" x2="291.5" y2="495.5" gradientUnits="userSpaceOnUse">
<stop stop-color="#00E0FF"/>
<stop offset="1" stop-color="#42F2D1"/>
</linearGradient>
<linearGradient id="paint3_linear" x1="51" y1="11" x2="303.5" y2="474" gradientUnits="userSpaceOnUse">
<stop stop-color="#B2F6FF"/>
<stop offset="1" stop-color="#28D7BE"/>
</linearGradient>
<linearGradient id="paint4_linear" x1="27" y1="473.49" x2="247.084" y2="60.8524" gradientUnits="userSpaceOnUse">
<stop stop-color="#73F5FF"/>
<stop offset="0.99" stop-color="#7AFFEC"/>
</linearGradient>
<linearGradient id="paint5_linear" x1="129.774" y1="288" x2="310" y2="288" gradientUnits="userSpaceOnUse">
<stop stop-color="white"/>
<stop offset="0.99" stop-color="white" stop-opacity="0.4"/>
</linearGradient>
<linearGradient id="paint6_linear" x1="59.8997" y1="86" x2="140" y2="86" gradientUnits="userSpaceOnUse">
<stop stop-color="white"/>
<stop offset="0.99" stop-color="white" stop-opacity="0.4"/>
</linearGradient>
</defs>
</svg>
