<svg width="338" height="474" viewBox="0 0 338 474" fill="none" xmlns="http://www.w3.org/2000/svg">
<rect x="2.5" y="2.5" width="331" height="469" rx="32.5" fill="url(#paint0_linear)" stroke="url(#paint1_linear)" stroke-width="5"/>
<mask id="mask0" mask-type="alpha" maskUnits="userSpaceOnUse" x="2" y="0" width="336" height="474">
<rect x="4.5" y="2.5" width="331" height="469" rx="41.5" fill="url(#paint2_linear)" stroke="url(#paint3_linear)" stroke-width="5"/>
</mask>
<g mask="url(#mask0)">
<path d="M198.89 5.0093C198.89 5.0093 97.8208 47.0947 93.9888 101.845C90.1568 156.595 112.775 152.615 106.069 185.086C99.3632 217.557 -10.9124 255.616 18.7856 356.766C48.4837 457.916 142.368 370.584 242 469H35C18.4315 469 5 455.569 5 439V35.0014C5 18.4323 18.4323 5.00064 35.0014 5.00144L198.89 5.0093Z" fill="url(#paint4_linear)" fill-opacity="0.5"/>
</g>
<path opacity="0.46" d="M219.887 378C202.092 377.978 184.702 372.68 169.917 362.777C155.131 352.875 143.613 338.811 136.819 322.363C130.024 305.916 128.258 287.824 131.743 270.373C135.229 252.922 143.809 236.896 156.4 224.321C168.992 211.745 185.028 203.185 202.483 199.721C219.939 196.258 238.029 198.046 254.468 204.862C270.906 211.677 284.956 223.212 294.84 238.01C304.724 252.808 310 270.204 310 288C309.958 311.876 300.447 334.761 283.553 351.633C266.66 368.506 243.763 377.988 219.887 378ZM219.887 222.747C206.985 222.764 194.378 226.607 183.659 233.788C172.94 240.969 164.59 251.166 159.665 263.091C154.74 275.016 153.461 288.134 155.989 300.786C158.517 313.438 164.739 325.056 173.868 334.173C182.998 343.29 194.625 349.496 207.28 352.006C219.936 354.517 233.051 353.219 244.97 348.278C256.888 343.336 267.074 334.972 274.24 324.243C281.406 313.515 285.231 300.902 285.231 288C285.177 270.703 278.27 254.132 266.022 241.918C253.774 229.704 237.184 222.843 219.887 222.837V222.747Z" fill="url(#paint5_linear)"/>
<path opacity="0.46" d="M99.9498 126C92.0407 125.99 84.3121 123.636 77.7407 119.234C71.1694 114.833 66.0503 108.583 63.0305 101.273C60.0106 93.9627 59.2257 85.9216 60.7747 78.1657C62.3238 70.4097 66.1374 63.2871 71.7335 57.698C77.3296 52.1089 84.457 48.3043 92.2148 46.7649C99.9727 45.2256 108.013 46.0207 115.319 49.0496C122.625 52.0786 128.869 57.2055 133.262 63.7824C137.655 70.3593 140 78.0909 140 86C139.981 96.6116 135.754 106.783 128.246 114.281C120.738 121.78 110.561 125.995 99.9498 126ZM99.9498 56.9985C94.2156 57.0064 88.6124 58.7141 83.8484 61.9056C79.0844 65.0972 75.3735 69.6294 73.1846 74.9294C70.9957 80.2294 70.4271 86.0594 71.5506 91.6825C72.6742 97.3056 75.4395 102.469 79.497 106.521C83.5545 110.573 88.7222 113.331 94.3468 114.447C99.9715 115.563 105.801 114.986 111.098 112.79C116.395 110.594 120.922 106.877 124.107 102.108C127.292 97.3398 128.991 91.7342 128.991 86C128.968 78.3124 125.898 70.9477 120.454 65.5193C115.011 60.0908 107.637 57.0412 99.9498 57.0386V56.9985Z" fill="url(#paint6_linear)"/>
<mask id="path-6-outside-1" maskUnits="userSpaceOnUse" x="32.2463" y="234.292" width="269" height="53" fill="black">
<rect fill="white" x="32.2463" y="234.292" width="269" height="53"/>
<path d="M49.1483 239.6L45.4303 247.036L41.8443 239.6H37.2463L43.2303 250.688C42.6583 251.524 42.0423 251.876 41.1843 251.876C40.7223 251.876 40.2383 251.788 39.6443 251.612L38.6103 254.824C39.5563 255.198 40.4583 255.396 41.3383 255.396C43.6483 255.396 45.6503 254.076 47.0143 251.502L53.3943 239.6H49.1483Z"/>
<path d="M62.0788 255.308C64.9168 255.308 67.2048 254.274 68.7008 252.404L65.9288 249.896C64.9608 251.062 63.7728 251.7 62.2988 251.7C59.7688 251.7 58.0088 249.94 58.0088 247.3C58.0088 244.66 59.7688 242.9 62.2988 242.9C63.7728 242.9 64.9608 243.538 65.9288 244.704L68.7008 242.196C67.2048 240.326 64.9168 239.292 62.0788 239.292C57.1948 239.292 53.6088 242.614 53.6088 247.3C53.6088 251.986 57.1948 255.308 62.0788 255.308Z"/>
<path d="M82.9477 239.6H69.2197V243.054H73.9497V255H78.2397V243.054H82.9477V239.6Z"/>
<path d="M96.0183 255H100.55L93.7303 239.6H89.4403L82.6423 255H87.0863L88.2963 252.008H94.8083L96.0183 255ZM89.5723 248.796L91.5523 243.868L93.5323 248.796H89.5723Z"/>
<path d="M112.611 239.6V245.386H106.671V239.6H102.315V255H106.671V248.994H112.611V255H116.967V239.6H112.611Z"/>
<path d="M127.844 255.308C132.772 255.308 136.402 251.92 136.402 247.3C136.402 242.68 132.772 239.292 127.844 239.292C122.916 239.292 119.286 242.68 119.286 247.3C119.286 251.92 122.916 255.308 127.844 255.308ZM127.844 251.7C125.512 251.7 123.686 249.962 123.686 247.3C123.686 244.638 125.512 242.9 127.844 242.9C130.176 242.9 132.002 244.638 132.002 247.3C132.002 249.962 130.176 251.7 127.844 251.7Z"/>
<path d="M149.951 246.948C151.271 246.288 152.041 245.122 152.041 243.604C152.041 241.052 149.885 239.6 146.211 239.6H138.731V255H146.629C150.589 255 152.745 253.306 152.745 250.6C152.745 248.752 151.733 247.52 149.951 246.948ZM143.021 242.724H145.793C147.025 242.724 147.641 243.252 147.641 244.242C147.641 245.254 147.025 245.76 145.793 245.76H143.021V242.724ZM146.453 251.876H143.021V248.708H146.453C147.707 248.708 148.345 249.214 148.345 250.27C148.345 251.326 147.707 251.876 146.453 251.876Z"/>
<path d="M164.826 255H169.732L164.87 247.036L169.688 239.6H165.112L161.438 245.584H159.348V239.6H155.014V255H159.348V249.104H161.328L164.826 255Z"/>
<path d="M182.6 255H187.132L180.312 239.6H176.022L169.224 255H173.668L174.878 252.008H181.39L182.6 255ZM176.154 248.796L178.134 243.868L180.114 248.796H176.154Z"/>
<path d="M195.299 239.6V255H199.589V243.054H205.441V255H209.753V239.6H195.299Z"/>
<path d="M224.882 255H229.414L222.594 239.6H218.304L211.506 255H215.95L217.16 252.008H223.672L224.882 255ZM218.436 248.796L220.416 243.868L222.396 248.796H218.436Z"/>
<path d="M238.218 239.6H231.178V255H235.534V250.974H238.218C242.42 250.974 245.06 248.796 245.06 245.298C245.06 241.778 242.42 239.6 238.218 239.6ZM237.954 247.542H235.534V243.032H237.954C239.758 243.032 240.66 243.868 240.66 245.298C240.66 246.706 239.758 247.542 237.954 247.542Z"/>
<path d="M254.817 255.308C259.745 255.308 263.375 251.92 263.375 247.3C263.375 242.68 259.745 239.292 254.817 239.292C249.889 239.292 246.259 242.68 246.259 247.3C246.259 251.92 249.889 255.308 254.817 255.308ZM254.817 251.7C252.485 251.7 250.659 249.962 250.659 247.3C250.659 244.638 252.485 242.9 254.817 242.9C257.149 242.9 258.975 244.638 258.975 247.3C258.975 249.962 257.149 251.7 254.817 251.7Z"/>
<path d="M267.232 239.6L267.012 245.738C266.88 249.214 266.55 251.502 264.768 251.502C264.57 251.502 264.372 251.48 264.174 251.436L263.932 255C264.658 255.176 265.318 255.264 265.912 255.264C269.828 255.264 270.642 251.568 270.84 245.562L270.928 243.054H275.35V255H279.64V239.6H267.232Z"/>
<path d="M288.896 239.6C284.672 239.6 282.01 241.822 282.01 245.452C282.01 247.85 283.154 249.588 285.178 250.49L282.054 255H286.63L289.16 251.128H291.536V255H295.826V239.6H288.896ZM288.984 243.032H291.536V247.762H288.94C287.29 247.762 286.41 246.926 286.41 245.386C286.41 243.824 287.29 243.032 288.984 243.032Z"/>
<path d="M101.504 265.6V271.386H95.5637V265.6H91.2077V281H95.5637V274.994H101.504V281H105.86V265.6H101.504Z"/>
<path d="M121.005 281H125.537L118.717 265.6H114.427L107.629 281H112.073L113.283 278.008H119.795L121.005 281ZM114.559 274.796L116.539 269.868L118.519 274.796H114.559Z"/>
<path d="M146.112 265.6H132.384V269.054H137.114V281H141.404V269.054H146.112V265.6Z"/>
<path d="M152.432 277.634V274.818H159.274V271.562H152.432V268.966H160.198V265.6H148.12V281H160.484V277.634H152.432Z"/>
<path d="M164.924 265.6L164.704 271.738C164.572 275.214 164.242 277.502 162.46 277.502C162.262 277.502 162.064 277.48 161.866 277.436L161.624 281C162.35 281.176 163.01 281.264 163.604 281.264C167.52 281.264 168.334 277.568 168.532 271.562L168.62 269.054H173.042V281H177.332V265.6H164.924Z"/>
<path d="M184.938 277.634V274.818H191.78V271.562H184.938V268.966H192.704V265.6H180.626V281H192.99V277.634H184.938Z"/>
<path d="M214.414 273.256C214.414 269.23 211.62 266.81 206.406 266.458V264.874H202.424V266.458C197.21 266.854 194.416 269.23 194.416 273.256C194.416 277.26 197.21 279.658 202.424 280.032V281.726H206.406V280.032C211.642 279.724 214.414 277.26 214.414 273.256ZM206.406 276.644V269.868C208.958 270.154 210.19 271.21 210.19 273.234C210.19 275.258 209.024 276.358 206.406 276.644ZM198.64 273.256C198.64 271.21 199.784 270.176 202.424 269.868V276.622C199.938 276.314 198.64 275.28 198.64 273.256Z"/>
<path d="M224.244 281.308C229.172 281.308 232.802 277.92 232.802 273.3C232.802 268.68 229.172 265.292 224.244 265.292C219.316 265.292 215.686 268.68 215.686 273.3C215.686 277.92 219.316 281.308 224.244 281.308ZM224.244 277.7C221.912 277.7 220.086 275.962 220.086 273.3C220.086 270.638 221.912 268.9 224.244 268.9C226.576 268.9 228.402 270.638 228.402 273.3C228.402 275.962 226.576 277.7 224.244 277.7Z"/>
<path d="M245.428 265.6V271.386H239.488V265.6H235.132V281H239.488V274.994H245.428V281H249.784V265.6H245.428Z"/>
</mask>
<path d="M49.1483 239.6L45.4303 247.036L41.8443 239.6H37.2463L43.2303 250.688C42.6583 251.524 42.0423 251.876 41.1843 251.876C40.7223 251.876 40.2383 251.788 39.6443 251.612L38.6103 254.824C39.5563 255.198 40.4583 255.396 41.3383 255.396C43.6483 255.396 45.6503 254.076 47.0143 251.502L53.3943 239.6H49.1483Z" fill="black"/>
<path d="M62.0788 255.308C64.9168 255.308 67.2048 254.274 68.7008 252.404L65.9288 249.896C64.9608 251.062 63.7728 251.7 62.2988 251.7C59.7688 251.7 58.0088 249.94 58.0088 247.3C58.0088 244.66 59.7688 242.9 62.2988 242.9C63.7728 242.9 64.9608 243.538 65.9288 244.704L68.7008 242.196C67.2048 240.326 64.9168 239.292 62.0788 239.292C57.1948 239.292 53.6088 242.614 53.6088 247.3C53.6088 251.986 57.1948 255.308 62.0788 255.308Z" fill="black"/>
<path d="M82.9477 239.6H69.2197V243.054H73.9497V255H78.2397V243.054H82.9477V239.6Z" fill="black"/>
<path d="M96.0183 255H100.55L93.7303 239.6H89.4403L82.6423 255H87.0863L88.2963 252.008H94.8083L96.0183 255ZM89.5723 248.796L91.5523 243.868L93.5323 248.796H89.5723Z" fill="black"/>
<path d="M112.611 239.6V245.386H106.671V239.6H102.315V255H106.671V248.994H112.611V255H116.967V239.6H112.611Z" fill="black"/>
<path d="M127.844 255.308C132.772 255.308 136.402 251.92 136.402 247.3C136.402 242.68 132.772 239.292 127.844 239.292C122.916 239.292 119.286 242.68 119.286 247.3C119.286 251.92 122.916 255.308 127.844 255.308ZM127.844 251.7C125.512 251.7 123.686 249.962 123.686 247.3C123.686 244.638 125.512 242.9 127.844 242.9C130.176 242.9 132.002 244.638 132.002 247.3C132.002 249.962 130.176 251.7 127.844 251.7Z" fill="black"/>
<path d="M149.951 246.948C151.271 246.288 152.041 245.122 152.041 243.604C152.041 241.052 149.885 239.6 146.211 239.6H138.731V255H146.629C150.589 255 152.745 253.306 152.745 250.6C152.745 248.752 151.733 247.52 149.951 246.948ZM143.021 242.724H145.793C147.025 242.724 147.641 243.252 147.641 244.242C147.641 245.254 147.025 245.76 145.793 245.76H143.021V242.724ZM146.453 251.876H143.021V248.708H146.453C147.707 248.708 148.345 249.214 148.345 250.27C148.345 251.326 147.707 251.876 146.453 251.876Z" fill="black"/>
<path d="M164.826 255H169.732L164.87 247.036L169.688 239.6H165.112L161.438 245.584H159.348V239.6H155.014V255H159.348V249.104H161.328L164.826 255Z" fill="black"/>
<path d="M182.6 255H187.132L180.312 239.6H176.022L169.224 255H173.668L174.878 252.008H181.39L182.6 255ZM176.154 248.796L178.134 243.868L180.114 248.796H176.154Z" fill="black"/>
<path d="M195.299 239.6V255H199.589V243.054H205.441V255H209.753V239.6H195.299Z" fill="black"/>
<path d="M224.882 255H229.414L222.594 239.6H218.304L211.506 255H215.95L217.16 252.008H223.672L224.882 255ZM218.436 248.796L220.416 243.868L222.396 248.796H218.436Z" fill="black"/>
<path d="M238.218 239.6H231.178V255H235.534V250.974H238.218C242.42 250.974 245.06 248.796 245.06 245.298C245.06 241.778 242.42 239.6 238.218 239.6ZM237.954 247.542H235.534V243.032H237.954C239.758 243.032 240.66 243.868 240.66 245.298C240.66 246.706 239.758 247.542 237.954 247.542Z" fill="black"/>
<path d="M254.817 255.308C259.745 255.308 263.375 251.92 263.375 247.3C263.375 242.68 259.745 239.292 254.817 239.292C249.889 239.292 246.259 242.68 246.259 247.3C246.259 251.92 249.889 255.308 254.817 255.308ZM254.817 251.7C252.485 251.7 250.659 249.962 250.659 247.3C250.659 244.638 252.485 242.9 254.817 242.9C257.149 242.9 258.975 244.638 258.975 247.3C258.975 249.962 257.149 251.7 254.817 251.7Z" fill="black"/>
<path d="M267.232 239.6L267.012 245.738C266.88 249.214 266.55 251.502 264.768 251.502C264.57 251.502 264.372 251.48 264.174 251.436L263.932 255C264.658 255.176 265.318 255.264 265.912 255.264C269.828 255.264 270.642 251.568 270.84 245.562L270.928 243.054H275.35V255H279.64V239.6H267.232Z" fill="black"/>
<path d="M288.896 239.6C284.672 239.6 282.01 241.822 282.01 245.452C282.01 247.85 283.154 249.588 285.178 250.49L282.054 255H286.63L289.16 251.128H291.536V255H295.826V239.6H288.896ZM288.984 243.032H291.536V247.762H288.94C287.29 247.762 286.41 246.926 286.41 245.386C286.41 243.824 287.29 243.032 288.984 243.032Z" fill="black"/>
<path d="M101.504 265.6V271.386H95.5637V265.6H91.2077V281H95.5637V274.994H101.504V281H105.86V265.6H101.504Z" fill="black"/>
<path d="M121.005 281H125.537L118.717 265.6H114.427L107.629 281H112.073L113.283 278.008H119.795L121.005 281ZM114.559 274.796L116.539 269.868L118.519 274.796H114.559Z" fill="black"/>
<path d="M146.112 265.6H132.384V269.054H137.114V281H141.404V269.054H146.112V265.6Z" fill="black"/>
<path d="M152.432 277.634V274.818H159.274V271.562H152.432V268.966H160.198V265.6H148.12V281H160.484V277.634H152.432Z" fill="black"/>
<path d="M164.924 265.6L164.704 271.738C164.572 275.214 164.242 277.502 162.46 277.502C162.262 277.502 162.064 277.48 161.866 277.436L161.624 281C162.35 281.176 163.01 281.264 163.604 281.264C167.52 281.264 168.334 277.568 168.532 271.562L168.62 269.054H173.042V281H177.332V265.6H164.924Z" fill="black"/>
<path d="M184.938 277.634V274.818H191.78V271.562H184.938V268.966H192.704V265.6H180.626V281H192.99V277.634H184.938Z" fill="black"/>
<path d="M214.414 273.256C214.414 269.23 211.62 266.81 206.406 266.458V264.874H202.424V266.458C197.21 266.854 194.416 269.23 194.416 273.256C194.416 277.26 197.21 279.658 202.424 280.032V281.726H206.406V280.032C211.642 279.724 214.414 277.26 214.414 273.256ZM206.406 276.644V269.868C208.958 270.154 210.19 271.21 210.19 273.234C210.19 275.258 209.024 276.358 206.406 276.644ZM198.64 273.256C198.64 271.21 199.784 270.176 202.424 269.868V276.622C199.938 276.314 198.64 275.28 198.64 273.256Z" fill="black"/>
<path d="M224.244 281.308C229.172 281.308 232.802 277.92 232.802 273.3C232.802 268.68 229.172 265.292 224.244 265.292C219.316 265.292 215.686 268.68 215.686 273.3C215.686 277.92 219.316 281.308 224.244 281.308ZM224.244 277.7C221.912 277.7 220.086 275.962 220.086 273.3C220.086 270.638 221.912 268.9 224.244 268.9C226.576 268.9 228.402 270.638 228.402 273.3C228.402 275.962 226.576 277.7 224.244 277.7Z" fill="black"/>
<path d="M245.428 265.6V271.386H239.488V265.6H235.132V281H239.488V274.994H245.428V281H249.784V265.6H245.428Z" fill="black"/>
<path d="M49.1483 239.6L45.4303 247.036L41.8443 239.6H37.2463L43.2303 250.688C42.6583 251.524 42.0423 251.876 41.1843 251.876C40.7223 251.876 40.2383 251.788 39.6443 251.612L38.6103 254.824C39.5563 255.198 40.4583 255.396 41.3383 255.396C43.6483 255.396 45.6503 254.076 47.0143 251.502L53.3943 239.6H49.1483Z" stroke="white" stroke-width="10" stroke-linecap="round" stroke-linejoin="round" mask="url(#path-6-outside-1)"/>
<path d="M62.0788 255.308C64.9168 255.308 67.2048 254.274 68.7008 252.404L65.9288 249.896C64.9608 251.062 63.7728 251.7 62.2988 251.7C59.7688 251.7 58.0088 249.94 58.0088 247.3C58.0088 244.66 59.7688 242.9 62.2988 242.9C63.7728 242.9 64.9608 243.538 65.9288 244.704L68.7008 242.196C67.2048 240.326 64.9168 239.292 62.0788 239.292C57.1948 239.292 53.6088 242.614 53.6088 247.3C53.6088 251.986 57.1948 255.308 62.0788 255.308Z" stroke="white" stroke-width="10" stroke-linecap="round" stroke-linejoin="round" mask="url(#path-6-outside-1)"/>
<path d="M82.9477 239.6H69.2197V243.054H73.9497V255H78.2397V243.054H82.9477V239.6Z" stroke="white" stroke-width="10" stroke-linecap="round" stroke-linejoin="round" mask="url(#path-6-outside-1)"/>
<path d="M96.0183 255H100.55L93.7303 239.6H89.4403L82.6423 255H87.0863L88.2963 252.008H94.8083L96.0183 255ZM89.5723 248.796L91.5523 243.868L93.5323 248.796H89.5723Z" stroke="white" stroke-width="10" stroke-linecap="round" stroke-linejoin="round" mask="url(#path-6-outside-1)"/>
<path d="M112.611 239.6V245.386H106.671V239.6H102.315V255H106.671V248.994H112.611V255H116.967V239.6H112.611Z" stroke="white" stroke-width="10" stroke-linecap="round" stroke-linejoin="round" mask="url(#path-6-outside-1)"/>
<path d="M127.844 255.308C132.772 255.308 136.402 251.92 136.402 247.3C136.402 242.68 132.772 239.292 127.844 239.292C122.916 239.292 119.286 242.68 119.286 247.3C119.286 251.92 122.916 255.308 127.844 255.308ZM127.844 251.7C125.512 251.7 123.686 249.962 123.686 247.3C123.686 244.638 125.512 242.9 127.844 242.9C130.176 242.9 132.002 244.638 132.002 247.3C132.002 249.962 130.176 251.7 127.844 251.7Z" stroke="white" stroke-width="10" stroke-linecap="round" stroke-linejoin="round" mask="url(#path-6-outside-1)"/>
<path d="M149.951 246.948C151.271 246.288 152.041 245.122 152.041 243.604C152.041 241.052 149.885 239.6 146.211 239.6H138.731V255H146.629C150.589 255 152.745 253.306 152.745 250.6C152.745 248.752 151.733 247.52 149.951 246.948ZM143.021 242.724H145.793C147.025 242.724 147.641 243.252 147.641 244.242C147.641 245.254 147.025 245.76 145.793 245.76H143.021V242.724ZM146.453 251.876H143.021V248.708H146.453C147.707 248.708 148.345 249.214 148.345 250.27C148.345 251.326 147.707 251.876 146.453 251.876Z" stroke="white" stroke-width="10" stroke-linecap="round" stroke-linejoin="round" mask="url(#path-6-outside-1)"/>
<path d="M164.826 255H169.732L164.87 247.036L169.688 239.6H165.112L161.438 245.584H159.348V239.6H155.014V255H159.348V249.104H161.328L164.826 255Z" stroke="white" stroke-width="10" stroke-linecap="round" stroke-linejoin="round" mask="url(#path-6-outside-1)"/>
<path d="M182.6 255H187.132L180.312 239.6H176.022L169.224 255H173.668L174.878 252.008H181.39L182.6 255ZM176.154 248.796L178.134 243.868L180.114 248.796H176.154Z" stroke="white" stroke-width="10" stroke-linecap="round" stroke-linejoin="round" mask="url(#path-6-outside-1)"/>
<path d="M195.299 239.6V255H199.589V243.054H205.441V255H209.753V239.6H195.299Z" stroke="white" stroke-width="10" stroke-linecap="round" stroke-linejoin="round" mask="url(#path-6-outside-1)"/>
<path d="M224.882 255H229.414L222.594 239.6H218.304L211.506 255H215.95L217.16 252.008H223.672L224.882 255ZM218.436 248.796L220.416 243.868L222.396 248.796H218.436Z" stroke="white" stroke-width="10" stroke-linecap="round" stroke-linejoin="round" mask="url(#path-6-outside-1)"/>
<path d="M238.218 239.6H231.178V255H235.534V250.974H238.218C242.42 250.974 245.06 248.796 245.06 245.298C245.06 241.778 242.42 239.6 238.218 239.6ZM237.954 247.542H235.534V243.032H237.954C239.758 243.032 240.66 243.868 240.66 245.298C240.66 246.706 239.758 247.542 237.954 247.542Z" stroke="white" stroke-width="10" stroke-linecap="round" stroke-linejoin="round" mask="url(#path-6-outside-1)"/>
<path d="M254.817 255.308C259.745 255.308 263.375 251.92 263.375 247.3C263.375 242.68 259.745 239.292 254.817 239.292C249.889 239.292 246.259 242.68 246.259 247.3C246.259 251.92 249.889 255.308 254.817 255.308ZM254.817 251.7C252.485 251.7 250.659 249.962 250.659 247.3C250.659 244.638 252.485 242.9 254.817 242.9C257.149 242.9 258.975 244.638 258.975 247.3C258.975 249.962 257.149 251.7 254.817 251.7Z" stroke="white" stroke-width="10" stroke-linecap="round" stroke-linejoin="round" mask="url(#path-6-outside-1)"/>
<path d="M267.232 239.6L267.012 245.738C266.88 249.214 266.55 251.502 264.768 251.502C264.57 251.502 264.372 251.48 264.174 251.436L263.932 255C264.658 255.176 265.318 255.264 265.912 255.264C269.828 255.264 270.642 251.568 270.84 245.562L270.928 243.054H275.35V255H279.64V239.6H267.232Z" stroke="white" stroke-width="10" stroke-linecap="round" stroke-linejoin="round" mask="url(#path-6-outside-1)"/>
<path d="M288.896 239.6C284.672 239.6 282.01 241.822 282.01 245.452C282.01 247.85 283.154 249.588 285.178 250.49L282.054 255H286.63L289.16 251.128H291.536V255H295.826V239.6H288.896ZM288.984 243.032H291.536V247.762H288.94C287.29 247.762 286.41 246.926 286.41 245.386C286.41 243.824 287.29 243.032 288.984 243.032Z" stroke="white" stroke-width="10" stroke-linecap="round" stroke-linejoin="round" mask="url(#path-6-outside-1)"/>
<path d="M101.504 265.6V271.386H95.5637V265.6H91.2077V281H95.5637V274.994H101.504V281H105.86V265.6H101.504Z" stroke="white" stroke-width="10" stroke-linecap="round" stroke-linejoin="round" mask="url(#path-6-outside-1)"/>
<path d="M121.005 281H125.537L118.717 265.6H114.427L107.629 281H112.073L113.283 278.008H119.795L121.005 281ZM114.559 274.796L116.539 269.868L118.519 274.796H114.559Z" stroke="white" stroke-width="10" stroke-linecap="round" stroke-linejoin="round" mask="url(#path-6-outside-1)"/>
<path d="M146.112 265.6H132.384V269.054H137.114V281H141.404V269.054H146.112V265.6Z" stroke="white" stroke-width="10" stroke-linecap="round" stroke-linejoin="round" mask="url(#path-6-outside-1)"/>
<path d="M152.432 277.634V274.818H159.274V271.562H152.432V268.966H160.198V265.6H148.12V281H160.484V277.634H152.432Z" stroke="white" stroke-width="10" stroke-linecap="round" stroke-linejoin="round" mask="url(#path-6-outside-1)"/>
<path d="M164.924 265.6L164.704 271.738C164.572 275.214 164.242 277.502 162.46 277.502C162.262 277.502 162.064 277.48 161.866 277.436L161.624 281C162.35 281.176 163.01 281.264 163.604 281.264C167.52 281.264 168.334 277.568 168.532 271.562L168.62 269.054H173.042V281H177.332V265.6H164.924Z" stroke="white" stroke-width="10" stroke-linecap="round" stroke-linejoin="round" mask="url(#path-6-outside-1)"/>
<path d="M184.938 277.634V274.818H191.78V271.562H184.938V268.966H192.704V265.6H180.626V281H192.99V277.634H184.938Z" stroke="white" stroke-width="10" stroke-linecap="round" stroke-linejoin="round" mask="url(#path-6-outside-1)"/>
<path d="M214.414 273.256C214.414 269.23 211.62 266.81 206.406 266.458V264.874H202.424V266.458C197.21 266.854 194.416 269.23 194.416 273.256C194.416 277.26 197.21 279.658 202.424 280.032V281.726H206.406V280.032C211.642 279.724 214.414 277.26 214.414 273.256ZM206.406 276.644V269.868C208.958 270.154 210.19 271.21 210.19 273.234C210.19 275.258 209.024 276.358 206.406 276.644ZM198.64 273.256C198.64 271.21 199.784 270.176 202.424 269.868V276.622C199.938 276.314 198.64 275.28 198.64 273.256Z" stroke="white" stroke-width="10" stroke-linecap="round" stroke-linejoin="round" mask="url(#path-6-outside-1)"/>
<path d="M224.244 281.308C229.172 281.308 232.802 277.92 232.802 273.3C232.802 268.68 229.172 265.292 224.244 265.292C219.316 265.292 215.686 268.68 215.686 273.3C215.686 277.92 219.316 281.308 224.244 281.308ZM224.244 277.7C221.912 277.7 220.086 275.962 220.086 273.3C220.086 270.638 221.912 268.9 224.244 268.9C226.576 268.9 228.402 270.638 228.402 273.3C228.402 275.962 226.576 277.7 224.244 277.7Z" stroke="white" stroke-width="10" stroke-linecap="round" stroke-linejoin="round" mask="url(#path-6-outside-1)"/>
<path d="M245.428 265.6V271.386H239.488V265.6H235.132V281H239.488V274.994H245.428V281H249.784V265.6H245.428Z" stroke="white" stroke-width="10" stroke-linecap="round" stroke-linejoin="round" mask="url(#path-6-outside-1)"/>
<rect x="16" y="303" width="304" height="70" rx="24" fill="white"/>
<rect x="16" y="397" width="125" height="43" rx="13" fill="white"/>
<rect x="195" y="397" width="125" height="43" rx="13" fill="white"/>
<path d="M44.9338 317.55L42.0583 323.098L39.2638 317.55H37.3873L41.1538 324.597L41.0053 324.826C40.6138 325.447 40.1548 325.704 39.6013 325.704C39.3178 325.704 39.0208 325.636 38.6833 325.528L38.2513 326.905C38.7238 327.108 39.1963 327.203 39.6418 327.203C40.7893 327.203 41.8288 326.555 42.5578 325.177L46.6618 317.55H44.9338ZM50.4333 327.095C51.8373 327.095 52.9578 326.487 53.5113 325.407L52.2153 324.651C51.7833 325.339 51.1353 325.65 50.4198 325.65C49.1778 325.65 48.2328 324.799 48.2328 323.395C48.2328 322.005 49.1778 321.141 50.4198 321.141C51.1353 321.141 51.7833 321.451 52.2153 322.14L53.5113 321.384C52.9578 320.29 51.8373 319.71 50.4333 319.71C48.1518 319.71 46.5318 321.235 46.5318 323.395C46.5318 325.555 48.1518 327.095 50.4333 327.095ZM60.6416 319.791H53.8916V321.222H56.4296V327H58.1171V321.222H60.6416V319.791ZM64.5522 319.71C63.3912 319.71 62.2707 320.007 61.5012 320.601L62.1627 321.829C62.7027 321.384 63.5397 321.114 64.3497 321.114C65.5512 321.114 66.1452 321.694 66.1452 322.68V322.788H64.2822C62.0952 322.788 61.2852 323.733 61.2852 324.934C61.2852 326.19 62.3247 327.095 63.9717 327.095C65.0517 327.095 65.8347 326.743 66.2397 326.122V327H67.8327V322.774C67.8327 320.695 66.6312 319.71 64.5522 319.71ZM64.3227 325.866C63.4587 325.866 62.9457 325.474 62.9457 324.867C62.9457 324.34 63.2562 323.908 64.4037 323.908H66.1452V324.745C65.8617 325.488 65.1462 325.866 64.3227 325.866ZM69.9209 327H71.6084V324.151H75.2399V327H76.9274V319.791H75.2399V322.72H71.6084V319.791H69.9209V327ZM82.4019 327.095C84.6429 327.095 86.2494 325.555 86.2494 323.395C86.2494 321.235 84.6429 319.71 82.4019 319.71C80.1879 319.71 78.5679 321.235 78.5679 323.395C78.5679 325.555 80.1879 327.095 82.4019 327.095ZM82.4019 325.65C81.1869 325.65 80.2689 324.772 80.2689 323.395C80.2689 322.018 81.1869 321.141 82.4019 321.141C83.6304 321.141 84.5484 322.018 84.5484 323.395C84.5484 324.772 83.6304 325.65 82.4019 325.65ZM93.141 323.247C93.8295 322.95 94.248 322.396 94.248 321.654C94.248 320.466 93.195 319.791 91.44 319.791H87.9165V327H91.5885C93.5325 327 94.4775 326.244 94.4775 324.975C94.4775 324.097 94.032 323.517 93.141 323.247ZM89.523 321.019H91.2915C92.1555 321.019 92.601 321.303 92.601 321.897C92.601 322.491 92.1555 322.801 91.2915 322.801H89.523V321.019ZM91.4535 325.771H89.523V323.922H91.5075C92.4255 323.922 92.844 324.232 92.844 324.867C92.844 325.488 92.358 325.771 91.4535 325.771ZM96.2749 327H97.8274L101.796 322.248V327H103.484V319.791H101.945L97.9624 324.543V319.791H96.2749V327ZM111.464 319.791H104.714V321.222H107.252V327H108.94V321.222H111.464V319.791ZM119.122 323.436C119.122 321.181 117.583 319.71 115.477 319.71C113.331 319.71 111.751 321.249 111.751 323.395C111.751 325.542 113.317 327.095 115.734 327.095C116.976 327.095 117.988 326.689 118.636 325.92L117.732 324.88C117.219 325.407 116.584 325.663 115.774 325.663C114.519 325.663 113.641 324.988 113.439 323.935H119.095C119.109 323.773 119.122 323.571 119.122 323.436ZM115.477 321.06C116.584 321.06 117.381 321.775 117.516 322.815H113.425C113.587 321.762 114.384 321.06 115.477 321.06ZM124.699 319.791V327H126.386V321.222H129.937V327H131.611V319.791H124.699ZM136.574 319.71C135.413 319.71 134.293 320.007 133.523 320.601L134.185 321.829C134.725 321.384 135.562 321.114 136.372 321.114C137.573 321.114 138.167 321.694 138.167 322.68V322.788H136.304C134.117 322.788 133.307 323.733 133.307 324.934C133.307 326.19 134.347 327.095 135.994 327.095C137.074 327.095 137.857 326.743 138.262 326.122V327H139.855V322.774C139.855 320.695 138.653 319.71 136.574 319.71ZM136.345 325.866C135.481 325.866 134.968 325.474 134.968 324.867C134.968 324.34 135.278 323.908 136.426 323.908H138.167V324.745C137.884 325.488 137.168 325.866 136.345 325.866ZM145.939 319.71C144.953 319.71 144.116 320.047 143.549 320.736V319.791H141.943V329.619H143.63V326.122C144.211 326.784 145.021 327.095 145.939 327.095C148.045 327.095 149.597 325.636 149.597 323.395C149.597 321.168 148.045 319.71 145.939 319.71ZM145.75 325.65C144.535 325.65 143.603 324.772 143.603 323.395C143.603 322.018 144.535 321.141 145.75 321.141C146.965 321.141 147.883 322.018 147.883 323.395C147.883 324.772 146.965 325.65 145.75 325.65ZM154.49 327.095C156.731 327.095 158.337 325.555 158.337 323.395C158.337 321.235 156.731 319.71 154.49 319.71C152.276 319.71 150.656 321.235 150.656 323.395C150.656 325.555 152.276 327.095 154.49 327.095ZM154.49 325.65C153.275 325.65 152.357 324.772 152.357 323.395C152.357 322.018 153.275 321.141 154.49 321.141C155.718 321.141 156.636 322.018 156.636 323.395C156.636 324.772 155.718 325.65 154.49 325.65ZM160.627 319.791L160.506 322.572C160.425 324.07 160.384 325.609 159.277 325.609C159.183 325.609 159.075 325.596 158.953 325.569L158.872 326.986C159.223 327.081 159.534 327.135 159.804 327.135C161.505 327.135 161.883 325.218 162.004 322.653L162.072 321.222H164.772V327H166.459V319.791H160.627ZM168.732 327H170.284L174.253 322.248V327H175.941V319.791H174.402L170.419 324.543V319.791H168.732V327ZM181.942 327H183.629V324.151H187.261V327H188.948V319.791H187.261V322.72H183.629V319.791H181.942V327ZM193.896 319.71C192.735 319.71 191.615 320.007 190.845 320.601L191.507 321.829C192.047 321.384 192.884 321.114 193.694 321.114C194.895 321.114 195.489 321.694 195.489 322.68V322.788H193.626C191.439 322.788 190.629 323.733 190.629 324.934C190.629 326.19 191.669 327.095 193.316 327.095C194.396 327.095 195.179 326.743 195.584 326.122V327H197.177V322.774C197.177 320.695 195.975 319.71 193.896 319.71ZM193.667 325.866C192.803 325.866 192.29 325.474 192.29 324.867C192.29 324.34 192.6 323.908 193.748 323.908H195.489V324.745C195.206 325.488 194.49 325.866 193.667 325.866ZM208.707 319.791H201.957V321.222H204.495V327H206.182V321.222H208.707V319.791ZM216.364 323.436C216.364 321.181 214.825 319.71 212.719 319.71C210.573 319.71 208.993 321.249 208.993 323.395C208.993 325.542 210.559 327.095 212.976 327.095C214.218 327.095 215.23 326.689 215.878 325.92L214.974 324.88C214.461 325.407 213.826 325.663 213.016 325.663C211.761 325.663 210.883 324.988 210.681 323.935H216.337C216.351 323.773 216.364 323.571 216.364 323.436ZM212.719 321.06C213.826 321.06 214.623 321.775 214.758 322.815H210.667C210.829 321.762 211.626 321.06 212.719 321.06ZM218.82 319.791L218.698 322.572C218.617 324.07 218.577 325.609 217.47 325.609C217.375 325.609 217.267 325.596 217.146 325.569L217.065 326.986C217.416 327.081 217.726 327.135 217.996 327.135C219.697 327.135 220.075 325.218 220.197 322.653L220.264 321.222H222.964V327H224.652V319.791H218.82ZM233.674 323.436C233.674 321.181 232.135 319.71 230.029 319.71C227.883 319.71 226.303 321.249 226.303 323.395C226.303 325.542 227.869 327.095 230.286 327.095C231.528 327.095 232.54 326.689 233.188 325.92L232.284 324.88C231.771 325.407 231.136 325.663 230.326 325.663C229.071 325.663 228.193 324.988 227.991 323.935H233.647C233.661 323.773 233.674 323.571 233.674 323.436ZM230.029 321.06C231.136 321.06 231.933 321.775 232.068 322.815H227.977C228.139 321.762 228.936 321.06 230.029 321.06ZM245.051 323.382C245.051 321.154 243.485 319.872 240.758 319.696V316.983H239.165V319.696C236.424 319.872 234.885 321.141 234.885 323.382C234.885 325.65 236.438 326.946 239.165 327.122V329.619H240.758V327.108C243.485 326.932 245.051 325.636 245.051 323.382ZM236.546 323.382C236.546 322.045 237.356 321.276 239.165 321.127V325.704C237.369 325.542 236.546 324.759 236.546 323.382ZM240.758 325.704V321.127C242.553 321.276 243.404 322.018 243.404 323.382C243.404 324.759 242.553 325.542 240.758 325.704ZM249.899 327.095C252.14 327.095 253.747 325.555 253.747 323.395C253.747 321.235 252.14 319.71 249.899 319.71C247.685 319.71 246.065 321.235 246.065 323.395C246.065 325.555 247.685 327.095 249.899 327.095ZM249.899 325.65C248.684 325.65 247.766 324.772 247.766 323.395C247.766 322.018 248.684 321.141 249.899 321.141C251.128 321.141 252.046 322.018 252.046 323.395C252.046 324.772 251.128 325.65 249.899 325.65ZM255.414 327H257.102V324.151H260.733V327H262.421V319.791H260.733V322.72H257.102V319.791H255.414V327ZM268.413 327H269.966L273.935 322.248V327H275.622V319.791H274.083L270.101 324.543V319.791H268.413V327ZM278.594 319.791L278.473 322.572C278.392 324.07 278.351 325.609 277.244 325.609C277.15 325.609 277.042 325.596 276.92 325.569L276.839 326.986C277.19 327.081 277.501 327.135 277.771 327.135C279.472 327.135 279.85 325.218 279.971 322.653L280.039 321.222H282.739V327H284.426V319.791H278.594ZM286.699 327H288.251L292.22 322.248V327H293.908V319.791H292.369L288.386 324.543V319.791H286.699V327ZM48.4473 343H50.4318L47.6373 339.26L50.2563 335.791H48.4473L46.3143 338.707H44.9643V335.791H43.2768V343H44.9643V340.111H46.2738L48.4473 343ZM54.1767 335.71C53.0157 335.71 51.8952 336.007 51.1257 336.601L51.7872 337.829C52.3272 337.384 53.1642 337.114 53.9742 337.114C55.1757 337.114 55.7697 337.694 55.7697 338.68V338.788H53.9067C51.7197 338.788 50.9097 339.733 50.9097 340.934C50.9097 342.19 51.9492 343.095 53.5962 343.095C54.6762 343.095 55.4592 342.743 55.8642 342.122V343H57.4572V338.774C57.4572 336.695 56.2557 335.71 54.1767 335.71ZM53.9472 341.866C53.0832 341.866 52.5702 341.474 52.5702 340.867C52.5702 340.34 52.8807 339.908 54.0282 339.908H55.7697V340.745C55.4862 341.488 54.7707 341.866 53.9472 341.866ZM64.7159 343H66.7004L63.9059 339.26L66.5249 335.791H64.7159L62.5829 338.707H61.2329V335.791H59.5454V343H61.2329V340.111H62.5424L64.7159 343ZM70.8663 343.095C73.1073 343.095 74.7138 341.555 74.7138 339.395C74.7138 337.235 73.1073 335.71 70.8663 335.71C68.6523 335.71 67.0323 337.235 67.0323 339.395C67.0323 341.555 68.6523 343.095 70.8663 343.095ZM70.8663 341.65C69.6513 341.65 68.7333 340.772 68.7333 339.395C68.7333 338.018 69.6513 337.141 70.8663 337.141C72.0948 337.141 73.0128 338.018 73.0128 339.395C73.0128 340.772 72.0948 341.65 70.8663 341.65ZM79.8773 334.94C81.3218 334.94 82.1183 334.265 82.1453 332.956H80.9978C80.9843 333.604 80.5523 334.009 79.8638 334.009C79.1618 334.009 78.7568 333.604 78.7433 332.956H77.6228C77.6363 334.265 78.4328 334.94 79.8773 334.94ZM76.3808 343H77.9333L81.9023 338.248V343H83.5898V335.791H82.0508L78.0683 340.543V335.791H76.3808V343ZM85.4683 339.949H89.1808V338.545H85.4683V339.949ZM91.6639 335.791L91.5424 338.572C91.4614 340.07 91.4209 341.609 90.3139 341.609C90.2194 341.609 90.1114 341.596 89.9899 341.569L89.9089 342.986C90.2599 343.081 90.5704 343.135 90.8404 343.135C92.5414 343.135 92.9194 341.218 93.0409 338.653L93.1084 337.222H95.8084V343H97.4959V335.791H91.6639ZM99.7685 343H101.321L105.29 338.248V343H106.978V335.791H105.439L101.456 340.543V335.791H99.7685V343ZM113.149 336.142C112.042 336.142 111.097 336.587 110.463 337.357C110.611 335.791 111.435 334.981 113.176 334.616L116.214 333.995L115.971 332.483L112.623 333.199C110.058 333.739 108.843 335.426 108.843 338.315C108.843 341.461 110.301 343.135 112.771 343.135C115.039 343.135 116.619 341.717 116.619 339.598C116.619 337.559 115.215 336.142 113.149 336.142ZM112.812 341.771C111.57 341.771 110.706 340.894 110.706 339.638C110.706 338.383 111.556 337.573 112.812 337.573C114.054 337.573 114.891 338.383 114.891 339.638C114.891 340.88 114.054 341.771 112.812 341.771ZM121.465 343.095C123.706 343.095 125.312 341.555 125.312 339.395C125.312 337.235 123.706 335.71 121.465 335.71C119.251 335.71 117.631 337.235 117.631 339.395C117.631 341.555 119.251 343.095 121.465 343.095ZM121.465 341.65C120.25 341.65 119.332 340.772 119.332 339.395C119.332 338.018 120.25 337.141 121.465 337.141C122.693 337.141 123.611 338.018 123.611 339.395C123.611 340.772 122.693 341.65 121.465 341.65ZM137.339 341.569V335.791H131.399L131.304 338.261C131.223 339.949 131.048 341.528 130.035 341.569H129.698V344.607H131.264V343H136.826V344.607H138.405V341.569H137.339ZM132.843 338.383L132.884 337.222H135.651V341.569H132.101C132.681 341.016 132.789 339.733 132.843 338.383ZM143.909 335.71C142.923 335.71 142.086 336.047 141.519 336.736V335.791H139.913V345.619H141.6V342.122C142.181 342.784 142.991 343.095 143.909 343.095C146.015 343.095 147.567 341.636 147.567 339.395C147.567 337.168 146.015 335.71 143.909 335.71ZM143.72 341.65C142.505 341.65 141.573 340.772 141.573 339.395C141.573 338.018 142.505 337.141 143.72 337.141C144.935 337.141 145.853 338.018 145.853 339.395C145.853 340.772 144.935 341.65 143.72 341.65ZM154.233 335.791L151.951 341.123L149.683 335.791H147.928L151.074 343.027L150.952 343.311C150.628 344.026 150.277 344.31 149.683 344.31C149.224 344.31 148.765 344.121 148.441 343.81L147.766 345.052C148.225 345.471 148.981 345.714 149.697 345.714C150.898 345.714 151.816 345.214 152.478 343.581L155.853 335.791H154.233ZM162.56 335.791H157.025V343H158.712V337.222H162.56V335.791ZM166.685 343.095C168.926 343.095 170.532 341.555 170.532 339.395C170.532 337.235 168.926 335.71 166.685 335.71C164.471 335.71 162.851 337.235 162.851 339.395C162.851 341.555 164.471 343.095 166.685 343.095ZM166.685 341.65C165.47 341.65 164.552 340.772 164.552 339.395C164.552 338.018 165.47 337.141 166.685 337.141C167.913 337.141 168.831 338.018 168.831 339.395C168.831 340.772 167.913 341.65 166.685 341.65ZM175.696 334.94C177.14 334.94 177.937 334.265 177.964 332.956H176.816C176.803 333.604 176.371 334.009 175.682 334.009C174.98 334.009 174.575 333.604 174.562 332.956H173.441C173.455 334.265 174.251 334.94 175.696 334.94ZM172.199 343H173.752L177.721 338.248V343H179.408V335.791H177.869L173.887 340.543V335.791H172.199V343ZM194.022 343L194.009 335.791H192.429L189.743 340.3L187.178 335.791H185.409V343H186.948V338.207L189.338 342.244H190.067L192.497 338.221V343H194.022ZM203.036 339.436C203.036 337.181 201.497 335.71 199.391 335.71C197.244 335.71 195.665 337.249 195.665 339.395C195.665 341.542 197.231 343.095 199.647 343.095C200.889 343.095 201.902 342.689 202.55 341.92L201.645 340.88C201.132 341.407 200.498 341.663 199.688 341.663C198.432 341.663 197.555 340.988 197.352 339.935H203.009C203.022 339.773 203.036 339.571 203.036 339.436ZM199.391 337.06C200.498 337.06 201.294 337.775 201.429 338.815H197.339C197.501 337.762 198.297 337.06 199.391 337.06ZM210.328 335.791H203.578V337.222H206.116V343H207.804V337.222H210.328V335.791ZM214.449 343.095C216.69 343.095 218.296 341.555 218.296 339.395C218.296 337.235 216.69 335.71 214.449 335.71C212.235 335.71 210.615 337.235 210.615 339.395C210.615 341.555 212.235 343.095 214.449 343.095ZM214.449 341.65C213.234 341.65 212.316 340.772 212.316 339.395C212.316 338.018 213.234 337.141 214.449 337.141C215.677 337.141 216.595 338.018 216.595 339.395C216.595 340.772 215.677 341.65 214.449 341.65ZM226.513 341.569V335.791H220.573L220.478 338.261C220.397 339.949 220.222 341.528 219.209 341.569H218.872V344.607H220.438V343H226V344.607H227.579V341.569H226.513ZM222.017 338.383L222.058 337.222H224.825V341.569H221.275C221.855 341.016 221.963 339.733 222.017 338.383ZM235.504 335.71C234.343 335.71 233.222 336.007 232.453 336.601L233.114 337.829C233.654 337.384 234.491 337.114 235.301 337.114C236.503 337.114 237.097 337.694 237.097 338.68V338.788H235.234C233.047 338.788 232.237 339.733 232.237 340.934C232.237 342.19 233.276 343.095 234.923 343.095C236.003 343.095 236.786 342.743 237.191 342.122V343H238.784V338.774C238.784 336.695 237.583 335.71 235.504 335.71ZM235.274 341.866C234.41 341.866 233.897 341.474 233.897 340.867C233.897 340.34 234.208 339.908 235.355 339.908H237.097V340.745C236.813 341.488 236.098 341.866 235.274 341.866ZM246.057 335.791L243.775 341.123L241.507 335.791H239.752L242.898 343.027L242.776 343.311C242.452 344.026 242.101 344.31 241.507 344.31C241.048 344.31 240.589 344.121 240.265 343.81L239.59 345.052C240.049 345.471 240.805 345.714 241.521 345.714C242.722 345.714 243.64 345.214 244.302 343.581L247.677 335.791H246.057ZM254.612 335.791H247.862V337.222H250.4V343H252.087V337.222H254.612V335.791ZM262.269 339.436C262.269 337.181 260.73 335.71 258.624 335.71C256.478 335.71 254.898 337.249 254.898 339.395C254.898 341.542 256.464 343.095 258.881 343.095C260.123 343.095 261.135 342.689 261.783 341.92L260.879 340.88C260.366 341.407 259.731 341.663 258.921 341.663C257.666 341.663 256.788 340.988 256.586 339.935H262.242C262.256 339.773 262.269 339.571 262.269 339.436ZM258.624 337.06C259.731 337.06 260.528 337.775 260.663 338.815H256.572C256.734 337.762 257.531 337.06 258.624 337.06ZM264.115 343H265.803V340.151H269.434V343H271.122V335.791H269.434V338.72H265.803V335.791H264.115V343ZM279.094 335.791H272.344V337.222H274.882V343H276.569V337.222H279.094V335.791ZM280.318 343H281.87L285.839 338.248V343H287.527V335.791H285.988L282.005 340.543V335.791H280.318V343ZM289.405 339.949H293.118V338.545H289.405V339.949ZM57.2111 355.382C57.2111 353.154 55.6451 351.872 52.9181 351.696V348.983H51.3251V351.696C48.5846 351.872 47.0456 353.141 47.0456 355.382C47.0456 357.65 48.5981 358.946 51.3251 359.122V361.619H52.9181V359.108C55.6451 358.932 57.2111 357.636 57.2111 355.382ZM48.7061 355.382C48.7061 354.045 49.5161 353.276 51.3251 353.127V357.704C49.5296 357.542 48.7061 356.759 48.7061 355.382ZM52.9181 357.704V353.127C54.7136 353.276 55.5641 354.018 55.5641 355.382C55.5641 356.759 54.7136 357.542 52.9181 357.704ZM58.8466 359H60.3991L64.3681 354.248V359H66.0556V351.791H64.5166L60.5341 356.543V351.791H58.8466V359ZM73.4962 359H75.4807L72.6862 355.26L75.3052 351.791H73.4962L71.3632 354.707H70.0132V351.791H68.3257V359H70.0132V356.111H71.3227L73.4962 359ZM79.2255 351.71C78.0645 351.71 76.944 352.007 76.1745 352.601L76.836 353.829C77.376 353.384 78.213 353.114 79.023 353.114C80.2245 353.114 80.8185 353.694 80.8185 354.68V354.788H78.9555C76.7685 354.788 75.9585 355.733 75.9585 356.934C75.9585 358.19 76.998 359.095 78.645 359.095C79.725 359.095 80.508 358.743 80.913 358.122V359H82.506V354.774C82.506 352.695 81.3045 351.71 79.2255 351.71ZM78.996 357.866C78.132 357.866 77.619 357.474 77.619 356.867C77.619 356.34 77.9295 355.908 79.077 355.908H80.8185V356.745C80.535 357.488 79.8195 357.866 78.996 357.866ZM91.4117 357.569V351.791H89.7242V357.569H86.2817V351.791H84.5942V359H90.9257V360.661H92.5052V357.569H91.4117ZM94.0073 359H95.5598L99.5288 354.248V359H101.216V351.791H99.6773L95.6948 356.543V351.791H94.0073V359ZM103.486 359H105.039L109.008 354.248V359H110.695V351.791H109.156L105.174 356.543V351.791H103.486V359ZM118.343 361.619H119.95C118.829 359.648 118.357 357.609 118.357 355.301C118.357 352.992 118.829 350.954 119.95 348.983H118.343C117.29 350.589 116.696 352.817 116.696 355.301C116.696 357.785 117.29 359.986 118.343 361.619ZM126.601 355.247C127.289 354.95 127.708 354.396 127.708 353.654C127.708 352.466 126.655 351.791 124.9 351.791H121.376V359H125.048C126.992 359 127.937 358.244 127.937 356.975C127.937 356.097 127.492 355.517 126.601 355.247ZM122.983 353.019H124.751C125.615 353.019 126.061 353.303 126.061 353.897C126.061 354.491 125.615 354.801 124.751 354.801H122.983V353.019ZM124.913 357.771H122.983V355.922H124.967C125.885 355.922 126.304 356.232 126.304 356.867C126.304 357.488 125.818 357.771 124.913 357.771ZM139.176 351.791H132.426V353.222H134.964V359H136.652V353.222H139.176V351.791ZM140.241 359.095C140.848 359.095 141.348 358.622 141.348 357.974C141.348 357.299 140.848 356.853 140.241 356.853C139.633 356.853 139.134 357.299 139.134 357.974C139.134 358.622 139.633 359.095 140.241 359.095ZM147.32 351.791V354.95C146.74 355.22 146.105 355.355 145.511 355.355C144.539 355.355 143.959 354.936 143.959 353.991V351.791H142.271V354.099C142.271 355.895 143.324 356.705 145.147 356.705C145.943 356.705 146.672 356.516 147.32 356.205V359H149.008V351.791H147.32ZM151.79 359.095C152.397 359.095 152.897 358.622 152.897 357.974C152.897 357.299 152.397 356.853 151.79 356.853C151.182 356.853 150.683 357.299 150.683 357.974C150.683 358.622 151.182 359.095 151.79 359.095ZM162.205 352.142C161.098 352.142 160.153 352.587 159.519 353.357C159.667 351.791 160.491 350.981 162.232 350.616L165.27 349.995L165.027 348.483L161.679 349.199C159.114 349.739 157.899 351.426 157.899 354.315C157.899 357.461 159.357 359.135 161.827 359.135C164.095 359.135 165.675 357.717 165.675 355.598C165.675 353.559 164.271 352.142 162.205 352.142ZM161.868 357.771C160.626 357.771 159.762 356.894 159.762 355.638C159.762 354.383 160.612 353.573 161.868 353.573C163.11 353.573 163.947 354.383 163.947 355.638C163.947 356.88 163.11 357.771 161.868 357.771ZM167.308 359H168.861L172.83 354.248V359H174.517V351.791H172.978L168.996 356.543V351.791H167.308V359ZM180 359.095C182.241 359.095 183.848 357.555 183.848 355.395C183.848 353.235 182.241 351.71 180 351.71C177.786 351.71 176.166 353.235 176.166 355.395C176.166 357.555 177.786 359.095 180 359.095ZM180 357.65C178.785 357.65 177.867 356.772 177.867 355.395C177.867 354.018 178.785 353.141 180 353.141C181.229 353.141 182.147 354.018 182.147 355.395C182.147 356.772 181.229 357.65 180 357.65ZM194.128 359L194.114 351.791H192.535L189.848 356.3L187.283 351.791H185.515V359H187.054V354.207L189.443 358.244H190.172L192.602 354.221V359H194.128ZM203.141 355.436C203.141 353.181 201.602 351.71 199.496 351.71C197.35 351.71 195.77 353.249 195.77 355.395C195.77 357.542 197.336 359.095 199.753 359.095C200.995 359.095 202.007 358.689 202.655 357.92L201.751 356.88C201.238 357.407 200.603 357.663 199.793 357.663C198.538 357.663 197.66 356.988 197.458 355.935H203.114C203.128 355.773 203.141 355.571 203.141 355.436ZM199.496 353.06C200.603 353.06 201.4 353.775 201.535 354.815H197.444C197.606 353.762 198.403 353.06 199.496 353.06ZM210.434 351.791H203.684V353.222H206.222V359H207.909V353.222H210.434V351.791ZM215.654 351.71C214.668 351.71 213.831 352.047 213.264 352.736V351.791H211.658V361.619H213.345V358.122C213.926 358.784 214.736 359.095 215.654 359.095C217.76 359.095 219.312 357.636 219.312 355.395C219.312 353.168 217.76 351.71 215.654 351.71ZM215.465 357.65C214.25 357.65 213.318 356.772 213.318 355.395C213.318 354.018 214.25 353.141 215.465 353.141C216.68 353.141 217.598 354.018 217.598 355.395C217.598 356.772 216.68 357.65 215.465 357.65ZM220.992 359H222.544L226.513 354.248V359H228.201V351.791H226.662L222.679 356.543V351.791H220.992V359ZM234.899 351.791V354.95C234.318 355.22 233.684 355.355 233.09 355.355C232.118 355.355 231.537 354.936 231.537 353.991V351.791H229.85V354.099C229.85 355.895 230.903 356.705 232.725 356.705C233.522 356.705 234.251 356.516 234.899 356.205V359H236.586V351.791H234.899ZM245.605 355.436C245.605 353.181 244.066 351.71 241.96 351.71C239.814 351.71 238.234 353.249 238.234 355.395C238.234 357.542 239.8 359.095 242.217 359.095C243.459 359.095 244.471 358.689 245.119 357.92L244.215 356.88C243.702 357.407 243.067 357.663 242.257 357.663C241.002 357.663 240.124 356.988 239.922 355.935H245.578C245.592 355.773 245.605 355.571 245.605 355.436ZM241.96 353.06C243.067 353.06 243.864 353.775 243.999 354.815H239.908C240.07 353.762 240.867 353.06 241.96 353.06ZM250.732 359.095C252.136 359.095 253.256 358.487 253.81 357.407L252.514 356.651C252.082 357.339 251.434 357.65 250.718 357.65C249.476 357.65 248.531 356.799 248.531 355.395C248.531 354.005 249.476 353.141 250.718 353.141C251.434 353.141 252.082 353.451 252.514 354.14L253.81 353.384C253.256 352.29 252.136 351.71 250.732 351.71C248.45 351.71 246.83 353.235 246.83 355.395C246.83 357.555 248.45 359.095 250.732 359.095ZM260.466 359H262.45L259.656 355.26L262.275 351.791H260.466L258.333 354.707H256.983V351.791H255.295V359H256.983V356.111H258.292L260.466 359ZM263.641 359H265.193L269.162 354.248V359H270.85V351.791H269.311L265.328 356.543V351.791H263.641V359ZM276.616 350.94C278.061 350.94 278.857 350.265 278.884 348.956H277.737C277.723 349.604 277.291 350.009 276.603 350.009C275.901 350.009 275.496 349.604 275.482 348.956H274.362C274.375 350.265 275.172 350.94 276.616 350.94ZM273.12 359H274.672L278.641 354.248V359H280.329V351.791H278.79L274.807 356.543V351.791H273.12V359ZM283.368 361.619C284.435 359.986 285.015 357.785 285.015 355.301C285.015 352.817 284.435 350.589 283.368 348.983H281.762C282.882 350.954 283.368 352.992 283.368 355.301C283.368 357.609 282.882 359.648 281.762 361.619H283.368ZM287.805 359.095C288.412 359.095 288.912 358.622 288.912 357.974C288.912 357.299 288.412 356.853 287.805 356.853C287.197 356.853 286.698 357.299 286.698 357.974C286.698 358.622 287.197 359.095 287.805 359.095Z" fill="black"/>
<path d="M252 5C252 26.7477 243.361 47.6048 227.983 62.9828C212.605 78.3607 191.748 87 170 87C148.252 87 127.395 78.3607 112.017 62.9828C96.6393 47.6048 88 26.7478 88 5.00002L170 5H252Z" fill="white"/>
<path d="M48.032 423.216C48.032 414.96 35.328 417.52 35.328 414.096C35.328 412.976 36.288 412.08 38.944 412.08C40.896 412.08 43.008 412.656 45.152 413.808L47.104 409.104C45.312 408.048 42.976 407.408 40.608 407.216V403.76H36.768V407.28C31.584 407.92 29.056 410.896 29.056 414.416C29.056 422.736 41.792 420.144 41.792 423.696C41.792 424.784 40.768 425.52 38.144 425.52C35.552 425.52 32.736 424.624 30.752 423.312L28.672 427.984C30.528 429.264 33.568 430.192 36.768 430.416V433.84H40.608V430.288C45.6 429.552 48.032 426.608 48.032 423.216Z" fill="#00BCBC"/>
<path d="M71.78 426.24C75.24 426.24 77.78 423.62 77.78 419C77.78 414.38 75.24 411.76 71.78 411.76C68.34 411.76 65.78 414.38 65.78 419C65.78 423.62 68.34 426.24 71.78 426.24ZM71.78 423.5C70.18 423.5 69.06 422.18 69.06 419C69.06 415.82 70.18 414.5 71.78 414.5C73.4 414.5 74.52 415.82 74.52 419C74.52 422.18 73.4 423.5 71.78 423.5ZM80.9603 422.28C79.8603 422.28 79.0203 423.04 79.0203 424.2C79.0203 425.02 79.4403 425.64 80.1003 425.9L79.2203 429.08H81.2003L82.3403 426.2C82.8003 425.1 82.8803 424.72 82.8803 424.2C82.8803 423.06 82.0803 422.28 80.9603 422.28ZM90.0808 426.24C93.5408 426.24 96.0808 423.62 96.0808 419C96.0808 414.38 93.5408 411.76 90.0808 411.76C86.6408 411.76 84.0808 414.38 84.0808 419C84.0808 423.62 86.6408 426.24 90.0808 426.24ZM90.0808 423.5C88.4808 423.5 87.3608 422.18 87.3608 419C87.3608 415.82 88.4808 414.5 90.0808 414.5C91.7008 414.5 92.8208 415.82 92.8208 419C92.8208 422.18 91.7008 423.5 90.0808 423.5ZM103.655 426.24C107.115 426.24 109.655 423.62 109.655 419C109.655 414.38 107.115 411.76 103.655 411.76C100.215 411.76 97.655 414.38 97.655 419C97.655 423.62 100.215 426.24 103.655 426.24ZM103.655 423.5C102.055 423.5 100.935 422.18 100.935 419C100.935 415.82 102.055 414.5 103.655 414.5C105.275 414.5 106.395 415.82 106.395 419C106.395 422.18 105.275 423.5 103.655 423.5Z" fill="black"/>
<path d="M235.14 412V414.6H237.94V426H241.18V412H235.14ZM249.612 426.24C253.072 426.24 255.612 423.62 255.612 419C255.612 414.38 253.072 411.76 249.612 411.76C246.172 411.76 243.612 414.38 243.612 419C243.612 423.62 246.172 426.24 249.612 426.24ZM249.612 423.5C248.012 423.5 246.892 422.18 246.892 419C246.892 415.82 248.012 414.5 249.612 414.5C251.232 414.5 252.352 415.82 252.352 419C252.352 422.18 251.232 423.5 249.612 423.5ZM276.89 426L276.85 415.24H273.93L270.27 421.46L266.83 415.24H263.57V426H266.39V419.54L269.53 424.96H270.85L274.07 419.56V426H276.89ZM279.879 426H282.759L287.979 419.6V426H291.079V415.24H288.219L282.979 421.64V415.24H279.879V426ZM294.078 426H297.178V421.98H301.858V426H304.978V415.24H301.858V419.44H297.178V415.24H294.078V426Z" fill="black"/>
<path d="M216.5 406C209.595 406 204 411.595 204 418.5C204 425.405 209.595 431 216.5 431C223.405 431 229 425.405 229 418.5C229 411.595 223.405 406 216.5 406Z" fill="#00BCBC"/>
<path fill-rule="evenodd" clip-rule="evenodd" d="M215.961 410C214.878 410 214 410.878 214 411.961V419.153C214 419.311 214.019 419.464 214.054 419.611C214.047 420.263 214.376 420.901 214.974 421.262L220.414 424.535C221.313 425.077 222.481 424.786 223.022 423.887C223.563 422.988 223.273 421.82 222.374 421.279L217.923 418.6V411.961C217.923 410.878 217.045 410 215.961 410Z" fill="white"/>
<g filter="url(#filter0_d)">
<path d="M162.531 400.393L185.975 433.213C179.766 434.57 168.698 428.331 168.698 428.331C168.698 428.331 160.834 438.706 154.912 440L162.531 400.393Z" fill="white"/>
<path fill-rule="evenodd" clip-rule="evenodd" d="M154.912 440L158.469 421.51C161.522 424.284 164.956 426.604 168.698 428.331C168.698 428.331 160.834 438.706 154.912 440Z" fill="#BBFFF9"/>
</g>
<path d="M139.671 25.4V34.274H147.211V66H158.695V25.4H139.671ZM188.523 41.64L196.933 32.592V25.4H167.585V34.274H183.593L176.343 42.104V49.354H181.157C185.565 49.354 187.363 50.862 187.363 53.298C187.363 56.024 184.811 57.532 180.925 57.532C177.097 57.532 172.921 56.372 169.673 54.168L165.497 62.81C169.673 65.42 175.647 66.812 181.273 66.812C193.511 66.812 198.963 60.2 198.963 53.298C198.963 47.498 195.367 43.09 188.523 41.64Z" fill="#46BBCE"/>
<g filter="url(#filter1_di)">
<path d="M217.238 138.405L188.564 109.759C184.88 106.079 178.91 106.081 175.228 109.759L154.107 130.859C150.423 134.539 150.422 140.503 154.106 144.183L162.899 152.967L117.156 198.662C115.614 200.203 115.615 202.701 117.156 204.24L122.661 209.739C124.202 211.279 126.7 211.279 128.243 209.738L132.53 205.456L143.245 216.16C144.366 217.28 146.184 217.28 147.305 216.16L159.433 204.044C160.554 202.924 160.554 201.108 159.433 199.988L148.718 189.284L173.985 164.042L182.78 172.828C186.463 176.508 192.433 176.506 196.117 172.826L217.238 151.727C220.92 148.048 220.921 142.084 217.238 138.405ZM181.916 145.081C179.11 142.278 179.11 137.732 181.916 134.929C184.722 132.126 189.273 132.126 192.078 134.929C194.885 137.732 194.885 142.278 192.078 145.081C189.273 147.884 184.722 147.884 181.916 145.081Z" fill="white"/>
</g>
<defs>
<filter id="filter0_d" x="150.912" y="396.393" width="45.0628" height="53.6066" filterUnits="userSpaceOnUse" color-interpolation-filters="sRGB">
<feFlood flood-opacity="0" result="BackgroundImageFix"/>
<feColorMatrix in="SourceAlpha" type="matrix" values="0 0 0 0 0 0 0 0 0 0 0 0 0 0 0 0 0 0 127 0"/>
<feOffset dx="3" dy="3"/>
<feGaussianBlur stdDeviation="3.5"/>
<feColorMatrix type="matrix" values="0 0 0 0 0.279 0 0 0 0 0.9 0 0 0 0 0.840225 0 0 0 1 0"/>
<feBlend mode="normal" in2="BackgroundImageFix" result="effect1_dropShadow"/>
<feBlend mode="normal" in="SourceGraphic" in2="effect1_dropShadow" result="shape"/>
</filter>
<filter id="filter1_di" x="110" y="101" width="124" height="130" filterUnits="userSpaceOnUse" color-interpolation-filters="sRGB">
<feFlood flood-opacity="0" result="BackgroundImageFix"/>
<feColorMatrix in="SourceAlpha" type="matrix" values="0 0 0 0 0 0 0 0 0 0 0 0 0 0 0 0 0 0 127 0"/>
<feOffset dx="4" dy="4"/>
<feGaussianBlur stdDeviation="5"/>
<feColorMatrix type="matrix" values="0 0 0 0 0.1715 0 0 0 0 0.816667 0 0 0 0 0.816667 0 0 0 1 0"/>
<feBlend mode="normal" in2="BackgroundImageFix" result="effect1_dropShadow"/>
<feBlend mode="normal" in="SourceGraphic" in2="effect1_dropShadow" result="shape"/>
<feColorMatrix in="SourceAlpha" type="matrix" values="0 0 0 0 0 0 0 0 0 0 0 0 0 0 0 0 0 0 127 0" result="hardAlpha"/>
<feOffset dx="-4" dy="-4"/>
<feGaussianBlur stdDeviation="4.5"/>
<feComposite in2="hardAlpha" operator="arithmetic" k2="-1" k3="1"/>
<feColorMatrix type="matrix" values="0 0 0 0 0.441945 0 0 0 0 0.887146 0 0 0 0 0.895833 0 0 0 0.52 0"/>
<feBlend mode="normal" in2="shape" result="effect2_innerShadow"/>
</filter>
<linearGradient id="paint0_linear" x1="5.5" y1="-157" x2="289.5" y2="495.5" gradientUnits="userSpaceOnUse">
<stop stop-color="#00C2FF"/>
<stop offset="1" stop-color="#1EE7CF"/>
</linearGradient>
<linearGradient id="paint1_linear" x1="49" y1="11" x2="301.5" y2="474" gradientUnits="userSpaceOnUse">
<stop stop-color="#19D2EB"/>
<stop offset="1" stop-color="#55F5DF"/>
</linearGradient>
<linearGradient id="paint2_linear" x1="59.5" y1="-9" x2="291.5" y2="495.5" gradientUnits="userSpaceOnUse">
<stop stop-color="#00E0FF"/>
<stop offset="1" stop-color="#42F2D1"/>
</linearGradient>
<linearGradient id="paint3_linear" x1="51" y1="11" x2="303.5" y2="474" gradientUnits="userSpaceOnUse">
<stop stop-color="#B2F6FF"/>
<stop offset="1" stop-color="#28D7BE"/>
</linearGradient>
<linearGradient id="paint4_linear" x1="27" y1="473.49" x2="247.084" y2="60.8524" gradientUnits="userSpaceOnUse">
<stop stop-color="#73F5FF"/>
<stop offset="0.99" stop-color="#7AFFEC"/>
</linearGradient>
<linearGradient id="paint5_linear" x1="129.774" y1="288" x2="310" y2="288" gradientUnits="userSpaceOnUse">
<stop stop-color="white"/>
<stop offset="0.99" stop-color="white" stop-opacity="0.4"/>
</linearGradient>
<linearGradient id="paint6_linear" x1="59.8997" y1="86" x2="140" y2="86" gradientUnits="userSpaceOnUse">
<stop stop-color="white"/>
<stop offset="0.99" stop-color="white" stop-opacity="0.4"/>
</linearGradient>
</defs>
</svg>
