<svg width="338" height="474" viewBox="0 0 338 474" fill="none" xmlns="http://www.w3.org/2000/svg">
<rect x="2.5" y="2.5" width="331" height="469" rx="32.5" fill="url(#paint0_linear)" stroke="url(#paint1_linear)" stroke-width="5"/>
<mask id="mask0" mask-type="alpha" maskUnits="userSpaceOnUse" x="2" y="0" width="336" height="474">
<rect x="4.5" y="2.5" width="331" height="469" rx="41.5" fill="url(#paint2_linear)" stroke="url(#paint3_linear)" stroke-width="5"/>
</mask>
<g mask="url(#mask0)">
<path d="M198.89 5.0093C198.89 5.0093 97.8208 47.0947 93.9888 101.845C90.1568 156.595 112.775 152.615 106.069 185.086C99.3632 217.557 -10.9124 255.616 18.7856 356.766C48.4837 457.916 142.368 370.584 242 469H35C18.4315 469 5 455.569 5 439V35.0014C5 18.4323 18.4323 5.00064 35.0014 5.00144L198.89 5.0093Z" fill="url(#paint4_linear)" fill-opacity="0.5"/>
</g>
<path opacity="0.46" d="M219.887 378C202.092 377.978 184.702 372.68 169.917 362.777C155.131 352.875 143.613 338.811 136.819 322.363C130.024 305.916 128.258 287.824 131.743 270.373C135.229 252.922 143.809 236.896 156.4 224.321C168.992 211.745 185.028 203.185 202.483 199.721C219.939 196.258 238.029 198.046 254.468 204.862C270.906 211.677 284.956 223.212 294.84 238.01C304.724 252.808 310 270.204 310 288C309.958 311.876 300.447 334.761 283.553 351.633C266.66 368.506 243.763 377.988 219.887 378ZM219.887 222.747C206.985 222.764 194.378 226.607 183.659 233.788C172.94 240.969 164.59 251.166 159.665 263.091C154.74 275.016 153.461 288.134 155.989 300.786C158.517 313.438 164.739 325.056 173.868 334.173C182.998 343.29 194.625 349.496 207.28 352.006C219.936 354.517 233.051 353.219 244.97 348.278C256.888 343.336 267.074 334.972 274.24 324.243C281.406 313.515 285.231 300.902 285.231 288C285.177 270.703 278.27 254.132 266.022 241.918C253.774 229.704 237.184 222.843 219.887 222.837V222.747Z" fill="url(#paint5_linear)"/>
<path opacity="0.46" d="M99.9498 126C92.0407 125.99 84.3121 123.636 77.7407 119.234C71.1694 114.833 66.0503 108.583 63.0305 101.273C60.0106 93.9627 59.2257 85.9216 60.7747 78.1657C62.3238 70.4097 66.1374 63.2871 71.7335 57.698C77.3296 52.1089 84.457 48.3043 92.2148 46.7649C99.9727 45.2256 108.013 46.0207 115.319 49.0496C122.625 52.0786 128.869 57.2055 133.262 63.7824C137.655 70.3593 140 78.0909 140 86C139.981 96.6116 135.754 106.783 128.246 114.281C120.738 121.78 110.561 125.995 99.9498 126ZM99.9498 56.9985C94.2156 57.0064 88.6124 58.7141 83.8484 61.9056C79.0844 65.0972 75.3735 69.6294 73.1846 74.9294C70.9957 80.2294 70.4271 86.0594 71.5506 91.6825C72.6742 97.3056 75.4395 102.469 79.497 106.521C83.5545 110.573 88.7222 113.331 94.3468 114.447C99.9715 115.563 105.801 114.986 111.098 112.79C116.395 110.594 120.922 106.877 124.107 102.108C127.292 97.3398 128.991 91.7342 128.991 86C128.968 78.3124 125.898 70.9477 120.454 65.5193C115.011 60.0908 107.637 57.0412 99.9498 57.0386V56.9985Z" fill="url(#paint6_linear)"/>
<path d="M83.4745 239H88.8265L83.5225 230.312L88.7785 222.2H83.7865L79.7785 228.728H77.4985V222.2H72.7705V239H77.4985V232.568H79.6585L83.4745 239Z" fill="black"/>
<path d="M98.0309 222.2H90.3509V239H95.1029V234.608H98.0309C102.615 234.608 105.495 232.232 105.495 228.416C105.495 224.576 102.615 222.2 98.0309 222.2ZM97.7429 230.864H95.1029V225.944H97.7429C99.7109 225.944 100.695 226.856 100.695 228.416C100.695 229.952 99.7109 230.864 97.7429 230.864Z" fill="black"/>
<path d="M107.648 239H112.136L119.048 229.16V239H123.728V222.2H119.264L112.328 232.064V222.2H107.648V239Z" fill="black"/>
<path d="M140.871 222.2H125.895V225.968H131.055V239H135.735V225.968H140.871V222.2Z" fill="black"/>
<path d="M143.062 239H147.55L154.462 229.16V239H159.142V222.2H154.678L147.742 232.064V222.2H143.062V239Z" fill="black"/>
<path d="M173.357 239H178.709L173.405 230.312L178.661 222.2H173.669L169.661 228.728H167.381V222.2H162.653V239H167.381V232.568H169.541L173.357 239Z" fill="black"/>
<path d="M191.96 222.2L187.904 230.312L183.992 222.2H178.976L185.504 234.296C184.88 235.208 184.208 235.592 183.272 235.592C182.768 235.592 182.24 235.496 181.592 235.304L180.464 238.808C181.496 239.216 182.48 239.432 183.44 239.432C185.96 239.432 188.144 237.992 189.632 235.184L196.592 222.2H191.96Z" fill="black"/>
<path d="M202.821 235.328V232.256H210.285V228.704H202.821V225.872H211.293V222.2H198.117V239H211.605V235.328H202.821Z" fill="black"/>
<path d="M232.408 222.2V235.232H228.064V222.2H223.384V235.232H218.992V222.2H214.312V239H237.088V222.2H232.408Z" fill="black"/>
<path d="M249.247 227.552H245.359V222.2H240.679V239H248.623C252.991 239 255.703 236.96 255.703 233.024C255.703 229.352 253.327 227.552 249.247 227.552ZM248.311 235.592H245.359V230.936H248.311C249.919 230.936 250.927 231.536 250.927 233.12C250.927 234.704 249.895 235.592 248.311 235.592Z" fill="black"/>
<path d="M259.56 233.816C257.976 233.816 256.824 234.872 256.824 236.504C256.824 237.632 257.376 238.448 258.24 238.856L257.112 242.768H259.968L261.48 239.264C262.176 237.704 262.272 237.176 262.272 236.504C262.272 234.872 261.12 233.816 259.56 233.816Z" fill="black"/>
<path d="M87.2806 250.2V267H91.9606V253.968H98.3446V267H103.049V250.2H87.2806Z" fill="black"/>
<path d="M114.32 250.2H106.64V267H111.392V262.608H114.32C118.904 262.608 121.784 260.232 121.784 256.416C121.784 252.576 118.904 250.2 114.32 250.2ZM114.032 258.864H111.392V253.944H114.032C116 253.944 116.984 254.856 116.984 256.416C116.984 257.952 116 258.864 114.032 258.864Z" fill="black"/>
<path d="M128.641 263.328V260.256H136.105V256.704H128.641V253.872H137.113V250.2H123.937V267H137.425V263.328H128.641Z" fill="black"/>
<path d="M155.9 263.232V250.2H142.364L142.172 255.384C142.004 259.872 141.452 263.184 139.316 263.232H138.716V270.384H143.084V267H153.836V270.384H158.18V263.232H155.9ZM146.324 255.792L146.396 253.968H151.22V263.232H144.86C145.844 261.816 146.204 259.08 146.324 255.792Z" fill="black"/>
<path d="M162.588 250.2L162.348 256.896C162.204 260.688 161.844 263.184 159.9 263.184C159.684 263.184 159.468 263.16 159.252 263.112L158.988 267C159.78 267.192 160.5 267.288 161.148 267.288C165.42 267.288 166.308 263.256 166.524 256.704L166.62 253.968H171.444V267H176.124V250.2H162.588Z" fill="black"/>
<path d="M192.63 267H197.574L190.134 250.2H185.454L178.038 267H182.886L184.206 263.736H191.31L192.63 267ZM185.598 260.232L187.758 254.856L189.918 260.232H185.598Z" fill="black"/>
<path d="M211.811 250.2H199.499V267H204.179V253.968H211.787L211.811 250.2Z" fill="black"/>
<path d="M223.544 267H228.488L221.048 250.2H216.368L208.952 267H213.8L215.12 263.736H222.224L223.544 267ZM216.512 260.232L218.672 254.856L220.832 260.232H216.512Z" fill="black"/>
<path d="M238.429 249.192C241.909 249.192 243.397 247.8 243.397 245.28H240.205C240.181 246.384 239.629 246.936 238.429 246.936C237.229 246.936 236.725 246.384 236.701 245.28H233.509C233.509 247.8 234.949 249.192 238.429 249.192ZM230.413 267H234.901L241.813 257.16V267H246.493V250.2H242.029L235.093 260.064V250.2H230.413V267Z" fill="black"/>
<path d="M250.101 260.88H253.725L254.637 250.2H249.213L250.101 260.88ZM251.925 267.216C253.533 267.216 254.637 266.088 254.637 264.696C254.637 263.28 253.533 262.224 251.925 262.224C250.317 262.224 249.189 263.28 249.189 264.696C249.189 266.088 250.317 267.216 251.925 267.216Z" fill="black"/>
<path fill-rule="evenodd" clip-rule="evenodd" d="M80.4867 243.009C79.6531 243.631 78.6188 244 77.4985 244H72.7705C70.0091 244 67.7705 241.761 67.7705 239V222.2C67.7705 219.439 70.0091 217.2 72.7705 217.2H77.4985C78.6897 217.2 79.7837 217.617 80.6426 218.312C81.5197 217.603 82.6253 217.2 83.7865 217.2H88.7785C89.0437 217.2 89.3057 217.221 89.5627 217.262C89.8195 217.221 90.0827 217.2 90.3509 217.2H98.0309C100.189 217.2 102.35 217.588 104.282 218.502C105.171 217.693 106.352 217.2 107.648 217.2H112.328C113.674 217.2 114.897 217.732 115.796 218.598C116.719 217.71 117.958 217.2 119.264 217.2H123.728C124.1 217.2 124.463 217.241 124.812 217.318C125.16 217.241 125.523 217.2 125.895 217.2H140.871C141.248 217.2 141.614 217.242 141.967 217.32C142.319 217.242 142.686 217.2 143.062 217.2H147.742C149.088 217.2 150.311 217.732 151.21 218.598C152.133 217.71 153.372 217.2 154.678 217.2H159.142C159.76 217.2 160.351 217.312 160.898 217.517C161.444 217.312 162.035 217.2 162.653 217.2H167.381C168.573 217.2 169.666 217.617 170.525 218.312C171.403 217.603 172.508 217.2 173.669 217.2H178.661C178.714 217.2 178.766 217.201 178.819 217.202C178.871 217.201 178.924 217.2 178.976 217.2H183.992C185.575 217.2 187.042 217.947 187.976 219.178C188.911 217.946 190.379 217.2 191.96 217.2H196.592C196.849 217.2 197.103 217.22 197.352 217.258C197.601 217.22 197.857 217.2 198.117 217.2H211.293C211.819 217.2 212.326 217.281 212.802 217.432C213.278 217.281 213.786 217.2 214.312 217.2H218.992C219.78 217.2 220.525 217.382 221.188 217.707C221.851 217.382 222.596 217.2 223.384 217.2H228.064C228.842 217.2 229.579 217.378 230.236 217.695C230.893 217.378 231.629 217.2 232.408 217.2H237.088C237.721 217.2 238.326 217.318 238.883 217.532C239.441 217.318 240.046 217.2 240.679 217.2H245.359C248.12 217.2 250.359 219.439 250.359 222.2V222.586C252.713 222.735 255.169 223.392 257.183 225.051C258.474 226.114 259.371 227.409 259.935 228.824C261.736 228.906 263.556 229.577 264.981 230.957C266.525 232.453 267.272 234.464 267.272 236.504C267.272 238.19 266.864 239.464 266.06 241.271L264.559 244.749C263.769 246.581 261.964 247.768 259.968 247.768H259.006C259.486 248.631 259.704 249.624 259.619 250.625L258.726 261.08C259.302 262.117 259.637 263.334 259.637 264.696C259.637 269.059 256.08 272.216 251.925 272.216C250.77 272.216 249.652 271.97 248.641 271.517C247.99 271.826 247.262 272 246.493 272H241.813C240.473 272 239.255 271.472 238.357 270.613C237.436 271.495 236.201 272 234.901 272H230.413C230.083 272 229.761 271.968 229.449 271.907C229.135 271.968 228.814 272 228.488 272H223.544C221.507 272 219.673 270.763 218.909 268.875L218.853 268.736H218.491L218.435 268.875C217.672 270.763 215.838 272 213.8 272H208.952C208.106 272 207.288 271.786 206.567 271.394C205.857 271.78 205.044 272 204.179 272H199.499C199.169 272 198.847 271.968 198.534 271.907C198.221 271.968 197.9 272 197.574 272H192.63C190.592 272 188.759 270.763 187.995 268.875L187.939 268.736H187.577L187.521 268.875C186.757 270.763 184.924 272 182.886 272H178.038C177.714 272 177.395 271.969 177.083 271.908C176.773 271.968 176.452 272 176.124 272H171.444C169.81 272 168.359 271.216 167.447 270.003C167.191 270.231 166.918 270.449 166.624 270.654C165.45 271.474 164.166 271.945 162.857 272.155C162.142 274.042 160.318 275.384 158.18 275.384H153.836C151.64 275.384 149.775 273.968 149.103 272H147.817C147.145 273.968 145.28 275.384 143.084 275.384H138.716C136.52 275.384 134.655 273.968 133.983 272H123.937C121.175 272 118.937 269.761 118.937 267V266.942C118.103 267.201 117.242 267.38 116.369 267.486C116.124 270.019 113.989 272 111.392 272H106.64C106.007 272 105.402 271.882 104.844 271.668C104.287 271.882 103.681 272 103.049 272H98.3446C97.1311 272 96.0185 271.568 95.1526 270.849C94.2866 271.568 93.1741 272 91.9606 272H87.2806C84.5191 272 82.2806 269.761 82.2806 267V250.2C82.2806 247.439 84.5191 245.2 87.2806 245.2H103.049C103.681 245.2 104.287 245.318 104.844 245.532C105.402 245.318 106.007 245.2 106.64 245.2H114.32C116.478 245.2 118.639 245.588 120.571 246.502C121.46 245.693 122.641 245.2 123.937 245.2H137.113C138.076 245.2 138.975 245.472 139.739 245.944C140.503 245.472 141.403 245.2 142.364 245.2H155.9C157.186 245.2 158.358 245.685 159.244 246.483C160.131 245.684 161.305 245.2 162.588 245.2H176.124C178.248 245.2 180.062 246.524 180.787 248.391L180.88 248.181C181.68 246.369 183.474 245.2 185.454 245.2H190.134C192.112 245.2 193.905 246.366 194.706 248.175L194.82 248.434C195.534 246.544 197.36 245.2 199.499 245.2H211.811C212.611 245.2 213.391 245.392 214.09 245.749C214.781 245.395 215.559 245.2 216.368 245.2H221.048C223.026 245.2 224.819 246.366 225.62 248.175L225.734 248.434C226.224 247.138 227.236 246.099 228.513 245.574C228.511 245.475 228.509 245.377 228.509 245.28C228.509 244.838 228.567 244.408 228.675 244H214.312C213.843 244 213.389 243.935 212.958 243.815C212.528 243.935 212.074 244 211.605 244H198.117C195.378 244 193.154 241.798 193.117 239.068C190.908 242.282 187.585 244.432 183.44 244.432C182.171 244.432 180.961 244.22 179.82 243.875C179.46 243.957 179.088 244 178.709 244H173.357C172.263 244 171.22 243.642 170.37 243.009C169.536 243.631 168.502 244 167.381 244H162.653C162.035 244 161.444 243.888 160.898 243.683C160.351 243.888 159.76 244 159.142 244H154.462C153.121 244 151.904 243.472 151.006 242.613C150.084 243.495 148.85 244 147.55 244H143.062C141.615 244 140.312 243.385 139.399 242.403C138.486 243.385 137.182 244 135.735 244H131.055C129.608 244 128.305 243.385 127.392 242.402C126.478 243.385 125.175 244 123.728 244H119.048C117.707 244 116.49 243.472 115.592 242.613C114.67 243.495 113.436 244 112.136 244H107.648C104.886 244 102.648 241.761 102.648 239V238.942C101.814 239.201 100.953 239.38 100.08 239.486C99.835 242.019 97.7002 244 95.1029 244H90.3509C90.0911 244 89.8359 243.98 89.5867 243.942C89.3374 243.98 89.0834 244 88.8265 244H83.4745C82.3805 244 81.3367 243.642 80.4867 243.009ZM88.8265 239L83.5225 230.312L88.7785 222.2H83.7865L79.7785 228.728H77.4985V222.2H72.7705V239H77.4985V232.568H79.6585L83.4745 239H88.8265ZM90.3509 239H95.1029V234.608H98.0309C99.8692 234.608 101.433 234.226 102.648 233.522C104.462 232.471 105.495 230.702 105.495 228.416C105.495 226.116 104.462 224.341 102.648 223.287C101.433 222.582 99.8692 222.2 98.0309 222.2H90.3509V239ZM95.1029 230.864H97.7429C97.8413 230.864 97.9373 230.862 98.0309 230.857C98.9697 230.812 99.6603 230.54 100.103 230.078C100.498 229.667 100.695 229.104 100.695 228.416C100.695 227.717 100.498 227.149 100.103 226.734C99.6603 226.268 98.9697 225.996 98.0309 225.951C97.9373 225.946 97.8413 225.944 97.7429 225.944H95.1029V230.864ZM107.648 239H112.136L119.048 229.16V239H123.728V222.2H119.264L112.328 232.064V222.2H107.648V239ZM131.055 239H135.735V225.968H140.871V222.2H125.895V225.968H131.055V239ZM143.062 239H147.55L154.462 229.16V239H159.142V222.2H154.678L147.742 232.064V222.2H143.062V239ZM180.464 238.808C180.491 238.819 180.518 238.829 180.545 238.839C180.949 238.996 181.346 239.122 181.737 239.218C182.258 239.345 182.769 239.417 183.272 239.43C183.328 239.431 183.384 239.432 183.44 239.432C183.524 239.432 183.608 239.43 183.691 239.427C184.371 239.401 185.024 239.268 185.645 239.031C186.828 238.578 187.891 237.745 188.783 236.54C189.087 236.13 189.37 235.678 189.632 235.184L196.592 222.2H191.96L187.904 230.312L183.992 222.2H178.976L185.504 234.296C185.435 234.396 185.366 234.49 185.296 234.578C184.768 235.239 184.19 235.548 183.44 235.588C183.385 235.591 183.329 235.592 183.272 235.592C183.218 235.592 183.164 235.591 183.109 235.589C182.894 235.58 182.672 235.554 182.438 235.511C182.243 235.476 182.04 235.429 181.823 235.37C181.748 235.349 181.671 235.327 181.592 235.304L180.464 238.808ZM167.381 222.2H162.653V239H167.381V232.568H169.541L173.357 239H178.709L173.405 230.312L178.661 222.2H173.669L169.661 228.728H167.381V222.2ZM211.605 239V235.328H202.821V232.256H210.285V228.704H202.821V225.872H211.293V222.2H198.117V239H211.605ZM214.312 239H237.088V222.2H232.408V235.232H228.064V222.2H223.384V235.232H218.992V222.2H214.312V239ZM248.232 244C248.339 244.404 248.396 244.829 248.397 245.267C248.665 245.223 248.938 245.2 249.213 245.2H252.744C252.469 244.706 252.281 244.172 252.186 243.622C251.007 243.889 249.801 244 248.623 244H248.232ZM262.193 235.793C261.995 234.941 261.434 234.316 260.665 234.015C260.332 233.885 259.96 233.816 259.56 233.816C257.976 233.816 256.824 234.872 256.824 236.504C256.824 236.765 256.854 237.009 256.91 237.236C256.915 237.257 256.921 237.278 256.927 237.299C256.974 237.47 257.036 237.631 257.112 237.78C257.358 238.259 257.749 238.624 258.24 238.856L257.112 242.768H259.968L261.48 239.264C262.176 237.704 262.272 237.176 262.272 236.504C262.272 236.253 262.245 236.016 262.193 235.793ZM245.359 222.2H240.679V239H248.623C249.926 239 251.082 238.818 252.063 238.459C252.526 238.289 252.95 238.079 253.332 237.83C253.467 237.743 253.596 237.65 253.72 237.553C254.106 237.25 254.439 236.9 254.717 236.504C255.344 235.61 255.687 234.48 255.702 233.12C255.703 233.088 255.703 233.056 255.703 233.024C255.703 231.904 255.482 230.959 255.06 230.186C254.096 228.422 252.083 227.552 249.247 227.552H245.359V222.2ZM245.359 230.936V235.592H248.311C248.418 235.592 248.522 235.588 248.623 235.58C249.36 235.522 249.957 235.255 250.359 234.801C250.724 234.389 250.927 233.823 250.927 233.12C250.927 233.088 250.927 233.056 250.926 233.024C250.908 232.365 250.709 231.884 250.359 231.551C250.079 231.285 249.703 231.113 249.247 231.02C248.964 230.963 248.651 230.936 248.311 230.936H245.359ZM240.205 245.28C240.203 245.375 240.197 245.465 240.188 245.552C240.097 246.346 239.673 246.798 238.858 246.909C238.725 246.927 238.583 246.936 238.429 246.936C238.366 246.936 238.305 246.934 238.246 246.931C237.243 246.88 236.782 246.392 236.711 245.467C236.706 245.407 236.703 245.344 236.701 245.28H233.509C233.509 245.303 233.51 245.326 233.51 245.349C233.525 246.782 234.015 247.843 235.093 248.483C235.53 248.742 236.064 248.933 236.701 249.05C236.708 249.052 236.716 249.053 236.723 249.054C237.226 249.145 237.794 249.192 238.429 249.192C238.994 249.192 239.506 249.155 239.968 249.083C240.049 249.071 240.128 249.057 240.205 249.042C240.252 249.033 240.298 249.024 240.343 249.014C241.025 248.87 241.584 248.639 242.029 248.325C242.951 247.674 243.382 246.67 243.397 245.349C243.397 245.326 243.397 245.303 243.397 245.28H240.205ZM242.029 250.2L235.093 260.064V250.2H230.413V267H234.901L241.813 257.16V267H246.493V250.2H242.029ZM250.101 260.88H253.725L254.637 250.2H249.213L250.101 260.88ZM251.493 262.25C250.95 262.318 250.475 262.514 250.101 262.805C249.529 263.25 249.189 263.919 249.189 264.696C249.189 265.108 249.288 265.497 249.469 265.84C249.739 266.354 250.193 266.765 250.773 267C250.995 267.09 251.235 267.153 251.49 267.187C251.568 267.198 251.647 267.205 251.728 267.21C251.802 267.22 251.868 267.224 251.925 267.224C251.981 267.224 252.048 267.22 252.121 267.21C253.159 267.15 253.964 266.609 254.363 265.84C254.54 265.496 254.637 265.108 254.637 264.696C254.637 263.913 254.299 263.239 253.725 262.794C253.309 262.472 252.769 262.269 252.143 262.231C252.071 262.226 251.999 262.224 251.925 262.224C251.851 262.224 251.778 262.226 251.706 262.231C251.634 262.235 251.563 262.242 251.493 262.25ZM238.409 245.28H238.494C238.491 245.268 238.488 245.256 238.483 245.243C238.483 245.242 238.483 245.242 238.483 245.241C238.475 245.213 238.464 245.181 238.45 245.145C238.442 245.167 238.435 245.187 238.429 245.206C238.425 245.218 238.422 245.23 238.419 245.241C238.419 245.242 238.418 245.242 238.418 245.243C238.415 245.256 238.411 245.269 238.409 245.28ZM221.048 250.2H216.368L208.952 267H213.8L215.12 263.736H222.224L223.544 267H228.488L221.048 250.2ZM218.672 254.856L216.512 260.232H220.832L218.672 254.856ZM199.499 250.2V267H204.179V253.968H211.787L211.811 250.2H199.499ZM190.134 250.2H185.454L178.038 267H182.886L184.206 263.736H191.31L192.63 267H197.574L190.134 250.2ZM187.758 254.856L185.598 260.232H189.918L187.758 254.856ZM176.124 250.2H162.588L162.348 256.896C162.302 258.12 162.233 259.209 162.096 260.122C161.921 261.28 161.637 262.157 161.148 262.669C161.071 262.751 160.988 262.823 160.9 262.885C160.68 263.042 160.425 263.139 160.131 263.172C160.06 263.179 159.988 263.183 159.914 263.184C159.909 263.184 159.905 263.184 159.9 263.184C159.684 263.184 159.468 263.16 159.252 263.112L158.988 267C159.304 267.076 159.608 267.138 159.9 267.184C160.343 267.253 160.759 267.288 161.148 267.288C161.489 267.288 161.808 267.262 162.108 267.212C162.499 267.146 162.855 267.037 163.18 266.888C163.497 266.742 163.785 266.557 164.045 266.335C165.635 264.981 166.218 262.237 166.444 258.467C166.472 258.011 166.494 257.54 166.512 257.054C166.512 257.051 166.512 257.048 166.512 257.045C166.517 256.932 166.521 256.818 166.524 256.704L166.62 253.968H171.444V267H176.124V250.2ZM158.18 263.232H155.9V250.2H142.364L142.172 255.384C142.169 255.466 142.166 255.547 142.163 255.628C142.162 255.632 142.162 255.636 142.162 255.64C142.083 257.569 141.926 259.269 141.595 260.568C141.566 260.682 141.536 260.792 141.504 260.9C141.28 261.659 140.986 262.259 140.599 262.661C140.526 262.736 140.45 262.804 140.371 262.865C140.238 262.967 140.096 263.049 139.944 263.109C139.916 263.12 139.889 263.13 139.861 263.139C139.692 263.196 139.511 263.228 139.316 263.232H138.716V270.384H143.084V267H153.836V270.384H158.18V263.232ZM151.22 263.232V253.968H146.396L146.334 255.538L146.334 255.54L146.324 255.792C146.3 256.45 146.266 257.086 146.22 257.694C146.206 257.876 146.191 258.055 146.175 258.232C146.039 259.709 145.819 260.997 145.464 262C145.295 262.479 145.095 262.893 144.86 263.232H151.22ZM137.425 263.328H128.641V260.256H136.105V256.704H128.641V253.872H137.113V250.2H123.937V267H137.425V263.328ZM106.64 250.2V267H111.392V262.608H114.32C116.158 262.608 117.722 262.226 118.937 261.522C120.751 260.471 121.784 258.702 121.784 256.416C121.784 254.116 120.751 252.341 118.937 251.287C117.722 250.582 116.158 250.2 114.32 250.2H106.64ZM111.392 253.944V258.864H114.032C114.13 258.864 114.226 258.862 114.32 258.857C115.259 258.812 115.949 258.54 116.392 258.078C116.787 257.667 116.984 257.104 116.984 256.416C116.984 255.717 116.787 255.149 116.392 254.734C115.949 254.268 115.259 253.996 114.32 253.951C114.226 253.946 114.13 253.944 114.032 253.944H111.392ZM98.3446 267H103.049V250.2H87.2806V267H91.9606V253.968H98.3446V267Z" fill="white"/>
<rect x="16" y="291" width="304" height="82" rx="24" fill="white"/>
<rect x="16" y="397" width="125" height="43" rx="13" fill="white"/>
<rect x="195" y="397" width="125" height="43" rx="13" fill="white"/>
<path d="M66.1853 314H68.0213L63.7553 304.55H62.0273L57.7748 314H59.5838L60.5153 311.813H65.2403L66.1853 314ZM61.1093 310.436L62.8778 306.305L64.6598 310.436H61.1093ZM74.506 310.247C75.1945 309.95 75.613 309.396 75.613 308.654C75.613 307.466 74.56 306.791 72.805 306.791H69.2815V314H72.9535C74.8975 314 75.8425 313.244 75.8425 311.975C75.8425 311.097 75.397 310.517 74.506 310.247ZM70.888 308.019H72.6565C73.5205 308.019 73.966 308.303 73.966 308.897C73.966 309.491 73.5205 309.801 72.6565 309.801H70.888V308.019ZM72.8185 312.771H70.888V310.922H72.8725C73.7905 310.922 74.209 311.232 74.209 311.867C74.209 312.488 73.723 312.771 72.8185 312.771ZM83.3504 306.791H76.6004V308.222H79.1384V314H80.8259V308.222H83.3504V306.791ZM87.471 314.095C89.712 314.095 91.3185 312.555 91.3185 310.395C91.3185 308.235 89.712 306.71 87.471 306.71C85.257 306.71 83.637 308.235 83.637 310.395C83.637 312.555 85.257 314.095 87.471 314.095ZM87.471 312.65C86.256 312.65 85.338 311.772 85.338 310.395C85.338 309.018 86.256 308.141 87.471 308.141C88.6995 308.141 89.6175 309.018 89.6175 310.395C89.6175 311.772 88.6995 312.65 87.471 312.65ZM96.9816 306.71C95.9961 306.71 95.1591 307.047 94.5921 307.736V306.791H92.9856V316.619H94.6731V313.122C95.2536 313.784 96.0636 314.095 96.9816 314.095C99.0876 314.095 100.64 312.636 100.64 310.395C100.64 308.168 99.0876 306.71 96.9816 306.71ZM96.7926 312.65C95.5776 312.65 94.6461 311.772 94.6461 310.395C94.6461 309.018 95.5776 308.141 96.7926 308.141C98.0076 308.141 98.9256 309.018 98.9256 310.395C98.9256 311.772 98.0076 312.65 96.7926 312.65ZM109.331 314.095C110.735 314.095 111.856 313.487 112.409 312.407L111.113 311.651C110.681 312.339 110.033 312.65 109.318 312.65C108.076 312.65 107.131 311.799 107.131 310.395C107.131 309.005 108.076 308.141 109.318 308.141C110.033 308.141 110.681 308.451 111.113 309.14L112.409 308.384C111.856 307.29 110.735 306.71 109.331 306.71C107.05 306.71 105.43 308.235 105.43 310.395C105.43 312.555 107.05 314.095 109.331 314.095ZM117.002 314.095C119.243 314.095 120.85 312.555 120.85 310.395C120.85 308.235 119.243 306.71 117.002 306.71C114.788 306.71 113.168 308.235 113.168 310.395C113.168 312.555 114.788 314.095 117.002 314.095ZM117.002 312.65C115.787 312.65 114.869 311.772 114.869 310.395C114.869 309.018 115.787 308.141 117.002 308.141C118.231 308.141 119.149 309.018 119.149 310.395C119.149 311.772 118.231 312.65 117.002 312.65ZM125.73 314.095C127.971 314.095 129.577 312.555 129.577 310.395C129.577 308.235 127.971 306.71 125.73 306.71C123.516 306.71 121.896 308.235 121.896 310.395C121.896 312.555 123.516 314.095 125.73 314.095ZM125.73 312.65C124.515 312.65 123.597 311.772 123.597 310.395C123.597 309.018 124.515 308.141 125.73 308.141C126.958 308.141 127.876 309.018 127.876 310.395C127.876 311.772 126.958 312.65 125.73 312.65ZM135.146 307.142C134.039 307.142 133.094 307.587 132.459 308.357C132.608 306.791 133.431 305.981 135.173 305.616L138.21 304.995L137.967 303.483L134.619 304.199C132.054 304.739 130.839 306.426 130.839 309.315C130.839 312.461 132.297 314.135 134.768 314.135C137.036 314.135 138.615 312.717 138.615 310.598C138.615 308.559 137.211 307.142 135.146 307.142ZM134.808 312.771C133.566 312.771 132.702 311.894 132.702 310.638C132.702 309.383 133.553 308.573 134.808 308.573C136.05 308.573 136.887 309.383 136.887 310.638C136.887 311.88 136.05 312.771 134.808 312.771ZM150.873 312.569V306.791H149.186V312.569H146.418V306.791H144.731V312.569H141.936V306.791H140.249V314H150.333V315.485H151.913V312.569H150.873ZM159.892 310.436C159.892 308.181 158.353 306.71 156.247 306.71C154.101 306.71 152.521 308.249 152.521 310.395C152.521 312.542 154.087 314.095 156.504 314.095C157.746 314.095 158.758 313.689 159.406 312.92L158.502 311.88C157.989 312.407 157.354 312.663 156.544 312.663C155.289 312.663 154.411 311.988 154.209 310.935H159.865C159.879 310.773 159.892 310.571 159.892 310.436ZM156.247 308.06C157.354 308.06 158.151 308.775 158.286 309.815H154.195C154.357 308.762 155.154 308.06 156.247 308.06ZM161.738 314H163.426V311.151H167.057V314H168.745V306.791H167.057V309.72H163.426V306.791H161.738V314ZM171.006 314H172.559L176.528 309.248V314H178.215V306.791H176.676L172.694 311.543V306.791H171.006V314ZM183.266 306.791C181.255 306.791 179.972 307.695 179.972 309.383C179.972 310.49 180.553 311.246 181.579 311.597L179.878 314H181.687L183.158 311.826H185.062V314H186.574V306.791H183.266ZM183.32 308.208H185.062V310.652H183.266C182.227 310.652 181.687 310.274 181.687 309.437C181.687 308.573 182.281 308.208 183.32 308.208ZM192.574 306.791V314H194.262V308.222H197.812V314H199.486V306.791H192.574ZM205.759 306.71C204.774 306.71 203.937 307.047 203.37 307.736V306.791H201.763V316.619H203.451V313.122C204.031 313.784 204.841 314.095 205.759 314.095C207.865 314.095 209.418 312.636 209.418 310.395C209.418 308.168 207.865 306.71 205.759 306.71ZM205.57 312.65C204.355 312.65 203.424 311.772 203.424 310.395C203.424 309.018 204.355 308.141 205.57 308.141C206.785 308.141 207.703 309.018 207.703 310.395C207.703 311.772 206.785 312.65 205.57 312.65ZM217.847 310.436C217.847 308.181 216.308 306.71 214.202 306.71C212.056 306.71 210.476 308.249 210.476 310.395C210.476 312.542 212.042 314.095 214.459 314.095C215.701 314.095 216.713 313.689 217.361 312.92L216.457 311.88C215.944 312.407 215.309 312.663 214.499 312.663C213.244 312.663 212.366 311.988 212.164 310.935H217.82C217.834 310.773 217.847 310.571 217.847 310.436ZM214.202 308.06C215.309 308.06 216.106 308.775 216.241 309.815H212.15C212.312 308.762 213.109 308.06 214.202 308.06ZM226.229 312.569V306.791H220.289L220.195 309.261C220.114 310.949 219.938 312.528 218.926 312.569H218.588V315.607H220.154V314H225.716V315.607H227.296V312.569H226.229ZM221.734 309.383L221.774 308.222H224.542V312.569H220.991C221.572 312.016 221.68 310.733 221.734 309.383ZM229.505 306.791L229.383 309.572C229.302 311.07 229.262 312.609 228.155 312.609C228.06 312.609 227.952 312.596 227.831 312.569L227.75 313.986C228.101 314.081 228.411 314.135 228.681 314.135C230.382 314.135 230.76 312.218 230.882 309.653L230.949 308.222H233.649V314H235.337V306.791H229.505ZM240.296 306.71C239.135 306.71 238.015 307.007 237.245 307.601L237.907 308.829C238.447 308.384 239.284 308.114 240.094 308.114C241.295 308.114 241.889 308.694 241.889 309.68V309.788H240.026C237.839 309.788 237.029 310.733 237.029 311.934C237.029 313.19 238.069 314.095 239.716 314.095C240.796 314.095 241.579 313.743 241.984 313.122V314H243.577V309.774C243.577 307.695 242.375 306.71 240.296 306.71ZM240.067 312.866C239.203 312.866 238.69 312.474 238.69 311.867C238.69 311.34 239 310.908 240.148 310.908H241.889V311.745C241.606 312.488 240.89 312.866 240.067 312.866ZM251.2 306.791H245.665V314H247.352V308.222H251.2V306.791ZM255.114 306.71C253.953 306.71 252.833 307.007 252.063 307.601L252.725 308.829C253.265 308.384 254.102 308.114 254.912 308.114C256.113 308.114 256.707 308.694 256.707 309.68V309.788H254.844C252.657 309.788 251.847 310.733 251.847 311.934C251.847 313.19 252.887 314.095 254.534 314.095C255.614 314.095 256.397 313.743 256.802 313.122V314H258.395V309.774C258.395 307.695 257.193 306.71 255.114 306.71ZM254.885 312.866C254.021 312.866 253.508 312.474 253.508 311.867C253.508 311.34 253.818 310.908 254.966 310.908H256.707V311.745C256.424 312.488 255.708 312.866 254.885 312.866ZM267.233 310.436C267.233 308.181 265.694 306.71 263.588 306.71C261.442 306.71 259.862 308.249 259.862 310.395C259.862 312.542 261.428 314.095 263.845 314.095C265.087 314.095 266.099 313.689 266.747 312.92L265.843 311.88C265.33 312.407 264.695 312.663 263.885 312.663C262.63 312.663 261.752 311.988 261.55 310.935H267.206C267.22 310.773 267.233 310.571 267.233 310.436ZM263.588 308.06C264.695 308.06 265.492 308.775 265.627 309.815H261.536C261.698 308.762 262.495 308.06 263.588 308.06ZM274.526 306.791H267.776V308.222H270.314V314H272.001V308.222H274.526V306.791ZM41.9291 321.71C40.7681 321.71 39.6476 322.007 38.8781 322.601L39.5396 323.829C40.0796 323.384 40.9166 323.114 41.7266 323.114C42.9281 323.114 43.5221 323.694 43.5221 324.68V324.788H41.6591C39.4721 324.788 38.6621 325.733 38.6621 326.934C38.6621 328.19 39.7016 329.095 41.3486 329.095C42.4286 329.095 43.2116 328.743 43.6166 328.122V329H45.2096V324.774C45.2096 322.695 44.0081 321.71 41.9291 321.71ZM41.6996 327.866C40.8356 327.866 40.3226 327.474 40.3226 326.867C40.3226 326.34 40.6331 325.908 41.7806 325.908H43.5221V326.745C43.2386 327.488 42.5231 327.866 41.6996 327.866ZM47.9998 321.791L47.8783 324.572C47.7973 326.07 47.7568 327.609 46.6498 327.609C46.5553 327.609 46.4473 327.596 46.3258 327.569L46.2448 328.986C46.5958 329.081 46.9063 329.135 47.1763 329.135C48.8773 329.135 49.2553 327.218 49.3768 324.653L49.4443 323.222H52.1443V329H53.8318V321.791H47.9998ZM59.7225 324.167L57.792 324.153V321.791H56.1045V329L59.4795 329.014C61.4505 329.027 62.571 328.122 62.571 326.543C62.571 325.044 61.572 324.167 59.7225 324.167ZM59.331 327.771L57.792 327.758V325.314L59.331 325.328C60.33 325.341 60.8565 325.692 60.8565 326.516C60.8565 327.353 60.3165 327.785 59.331 327.771ZM69.0923 321.791H62.3423V323.222H64.8803V329H66.5678V323.222H69.0923V321.791ZM76.75 325.436C76.75 323.181 75.211 321.71 73.105 321.71C70.9585 321.71 69.379 323.249 69.379 325.395C69.379 327.542 70.945 329.095 73.3615 329.095C74.6035 329.095 75.616 328.689 76.264 327.92L75.3595 326.88C74.8465 327.407 74.212 327.663 73.402 327.663C72.1465 327.663 71.269 326.988 71.0665 325.935H76.723C76.7365 325.773 76.75 325.571 76.75 325.436ZM73.105 323.06C74.212 323.06 75.0085 323.775 75.1435 324.815H71.053C71.215 323.762 72.0115 323.06 73.105 323.06ZM82.5917 321.71C81.6062 321.71 80.7692 322.047 80.2022 322.736V321.791H78.5957V331.619H80.2832V328.122C80.8637 328.784 81.6737 329.095 82.5917 329.095C84.6977 329.095 86.2502 327.636 86.2502 325.395C86.2502 323.168 84.6977 321.71 82.5917 321.71ZM82.4027 327.65C81.1877 327.65 80.2562 326.772 80.2562 325.395C80.2562 324.018 81.1877 323.141 82.4027 323.141C83.6177 323.141 84.5357 324.018 84.5357 325.395C84.5357 326.772 83.6177 327.65 82.4027 327.65ZM87.9297 329H89.6172V326.151H93.2487V329H94.9362V321.791H93.2487V324.72H89.6172V321.791H87.9297V329ZM99.8842 321.71C98.7232 321.71 97.6027 322.007 96.8332 322.601L97.4947 323.829C98.0347 323.384 98.8717 323.114 99.6817 323.114C100.883 323.114 101.477 323.694 101.477 324.68V324.788H99.6142C97.4272 324.788 96.6172 325.733 96.6172 326.934C96.6172 328.19 97.6567 329.095 99.3037 329.095C100.384 329.095 101.167 328.743 101.572 328.122V329H103.165V324.774C103.165 322.695 101.963 321.71 99.8842 321.71ZM99.6547 327.866C98.7907 327.866 98.2777 327.474 98.2777 326.867C98.2777 326.34 98.5882 325.908 99.7357 325.908H101.477V326.745C101.194 327.488 100.478 327.866 99.6547 327.866ZM110.963 321.791H104.213V323.222H106.751V329H108.439V323.222H110.963V321.791ZM112.187 329H113.74L117.709 324.248V329H119.396V321.791H117.857L113.875 326.543V321.791H112.187V329ZM126.891 325.247C127.579 324.95 127.998 324.396 127.998 323.654C127.998 322.466 126.945 321.791 125.19 321.791H121.666V329H125.338C127.282 329 128.227 328.244 128.227 326.975C128.227 326.097 127.782 325.517 126.891 325.247ZM123.273 323.019H125.041C125.905 323.019 126.351 323.303 126.351 323.897C126.351 324.491 125.905 324.801 125.041 324.801H123.273V323.019ZM125.203 327.771H123.273V325.922H125.257C126.175 325.922 126.594 326.232 126.594 326.867C126.594 327.488 126.108 327.771 125.203 327.771ZM135.209 321.791L132.927 327.123L130.659 321.791H128.904L132.05 329.027L131.928 329.311C131.604 330.026 131.253 330.31 130.659 330.31C130.2 330.31 129.741 330.121 129.417 329.81L128.742 331.052C129.201 331.471 129.957 331.714 130.673 331.714C131.874 331.714 132.792 331.214 133.454 329.581L136.829 321.791H135.209ZM140.598 325.8H154.098V324.693H140.598V325.8ZM158.963 321.791V329H160.65V323.222H164.201V329H165.875V321.791H158.963ZM172.148 321.71C171.162 321.71 170.325 322.047 169.758 322.736V321.791H168.152V331.619H169.839V328.122C170.42 328.784 171.23 329.095 172.148 329.095C174.254 329.095 175.806 327.636 175.806 325.395C175.806 323.168 174.254 321.71 172.148 321.71ZM171.959 327.65C170.744 327.65 169.812 326.772 169.812 325.395C169.812 324.018 170.744 323.141 171.959 323.141C173.174 323.141 174.092 324.018 174.092 325.395C174.092 326.772 173.174 327.65 171.959 327.65ZM177.486 329H179.038L183.007 324.248V329H184.695V321.791H183.156L179.173 326.543V321.791H177.486V329ZM190.178 329.095C192.419 329.095 194.025 327.555 194.025 325.395C194.025 323.235 192.419 321.71 190.178 321.71C187.964 321.71 186.344 323.235 186.344 325.395C186.344 327.555 187.964 329.095 190.178 329.095ZM190.178 327.65C188.963 327.65 188.045 326.772 188.045 325.395C188.045 324.018 188.963 323.141 190.178 323.141C191.406 323.141 192.324 324.018 192.324 325.395C192.324 326.772 191.406 327.65 190.178 327.65ZM199.594 322.142C198.487 322.142 197.542 322.587 196.907 323.357C197.056 321.791 197.879 320.981 199.621 320.616L202.658 319.995L202.415 318.483L199.067 319.199C196.502 319.739 195.287 321.426 195.287 324.315C195.287 327.461 196.745 329.135 199.216 329.135C201.484 329.135 203.063 327.717 203.063 325.598C203.063 323.559 201.659 322.142 199.594 322.142ZM199.256 327.771C198.014 327.771 197.15 326.894 197.15 325.638C197.15 324.383 198.001 323.573 199.256 323.573C200.498 323.573 201.335 324.383 201.335 325.638C201.335 326.88 200.498 327.771 199.256 327.771ZM208.693 321.71C207.707 321.71 206.87 322.047 206.303 322.736V321.791H204.697V331.619H206.384V328.122C206.965 328.784 207.775 329.095 208.693 329.095C210.799 329.095 212.351 327.636 212.351 325.395C212.351 323.168 210.799 321.71 208.693 321.71ZM208.504 327.65C207.289 327.65 206.357 326.772 206.357 325.395C206.357 324.018 207.289 323.141 208.504 323.141C209.719 323.141 210.637 324.018 210.637 325.395C210.637 326.772 209.719 327.65 208.504 327.65ZM220.781 325.436C220.781 323.181 219.242 321.71 217.136 321.71C214.989 321.71 213.41 323.249 213.41 325.395C213.41 327.542 214.976 329.095 217.392 329.095C218.634 329.095 219.647 328.689 220.295 327.92L219.39 326.88C218.877 327.407 218.243 327.663 217.433 327.663C216.177 327.663 215.3 326.988 215.097 325.935H220.754C220.767 325.773 220.781 325.571 220.781 325.436ZM217.136 323.06C218.243 323.06 219.039 323.775 219.174 324.815H215.084C215.246 323.762 216.042 323.06 217.136 323.06ZM225.907 329.095C227.311 329.095 228.431 328.487 228.985 327.407L227.689 326.651C227.257 327.339 226.609 327.65 225.893 327.65C224.651 327.65 223.706 326.799 223.706 325.395C223.706 324.005 224.651 323.141 225.893 323.141C226.609 323.141 227.257 323.451 227.689 324.14L228.985 323.384C228.431 322.29 227.311 321.71 225.907 321.71C223.625 321.71 222.005 323.235 222.005 325.395C222.005 327.555 223.625 329.095 225.907 329.095ZM236.115 321.791H229.365V323.222H231.903V329H233.591V323.222H236.115V321.791ZM237.339 329H238.892L242.861 324.248V329H244.548V321.791H243.009L239.027 326.543V321.791H237.339V329ZM255.733 321.791L253.452 327.123L251.184 321.791H249.429L252.574 329.027L252.453 329.311C252.129 330.026 251.778 330.31 251.184 330.31C250.725 330.31 250.266 330.121 249.942 329.81L249.267 331.052C249.726 331.471 250.482 331.714 251.197 331.714C252.399 331.714 253.317 331.214 253.978 329.581L257.353 321.791H255.733ZM262.256 329H263.944V326.151H267.575V329H269.263V321.791H267.575V324.72H263.944V321.791H262.256V329ZM278.274 325.436C278.274 323.181 276.735 321.71 274.629 321.71C272.483 321.71 270.903 323.249 270.903 325.395C270.903 327.542 272.469 329.095 274.886 329.095C276.128 329.095 277.14 328.689 277.788 327.92L276.884 326.88C276.371 327.407 275.736 327.663 274.926 327.663C273.671 327.663 272.793 326.988 272.591 325.935H278.247C278.261 325.773 278.274 325.571 278.274 325.436ZM274.629 323.06C275.736 323.06 276.533 323.775 276.668 324.815H272.577C272.739 323.762 273.536 323.06 274.629 323.06ZM285.655 321.791H280.12V329H281.808V323.222H285.655V321.791ZM289.78 329.095C292.021 329.095 293.627 327.555 293.627 325.395C293.627 323.235 292.021 321.71 289.78 321.71C287.566 321.71 285.946 323.235 285.946 325.395C285.946 327.555 287.566 329.095 289.78 329.095ZM289.78 327.65C288.565 327.65 287.647 326.772 287.647 325.395C287.647 324.018 288.565 323.141 289.78 323.141C291.008 323.141 291.926 324.018 291.926 325.395C291.926 326.772 291.008 327.65 289.78 327.65ZM50.5018 334.55H42.5098V336.035H45.6283V344H47.3698V336.035H50.5018V334.55ZM54.3011 344.095C56.5421 344.095 58.1486 342.555 58.1486 340.395C58.1486 338.235 56.5421 336.71 54.3011 336.71C52.0871 336.71 50.4671 338.235 50.4671 340.395C50.4671 342.555 52.0871 344.095 54.3011 344.095ZM54.3011 342.65C53.0861 342.65 52.1681 341.772 52.1681 340.395C52.1681 339.018 53.0861 338.141 54.3011 338.141C55.5296 338.141 56.4476 339.018 56.4476 340.395C56.4476 341.772 55.5296 342.65 54.3011 342.65ZM69.3466 340.382C69.3466 338.154 67.7806 336.872 65.0536 336.696V333.983H63.4606V336.696C60.7201 336.872 59.1811 338.141 59.1811 340.382C59.1811 342.65 60.7336 343.946 63.4606 344.122V346.619H65.0536V344.108C67.7806 343.932 69.3466 342.636 69.3466 340.382ZM60.8416 340.382C60.8416 339.045 61.6516 338.276 63.4606 338.127V342.704C61.6651 342.542 60.8416 341.759 60.8416 340.382ZM65.0536 342.704V338.127C66.8491 338.276 67.6996 339.018 67.6996 340.382C67.6996 341.759 66.8491 342.542 65.0536 342.704ZM75.9684 336.791L73.6869 342.123L71.4189 336.791H69.6639L72.8094 344.027L72.6879 344.311C72.3639 345.026 72.0129 345.31 71.4189 345.31C70.9599 345.31 70.5009 345.121 70.1769 344.81L69.5019 346.052C69.9609 346.471 70.7169 346.714 71.4324 346.714C72.6339 346.714 73.5519 346.214 74.2134 344.581L77.5884 336.791H75.9684ZM78.8252 344.095C79.4327 344.095 79.9322 343.622 79.9322 342.974C79.9322 342.299 79.4327 341.853 78.8252 341.853C78.2177 341.853 77.7182 342.299 77.7182 342.974C77.7182 343.622 78.2177 344.095 78.8252 344.095ZM88.3361 334.415C86.7431 334.415 85.3931 334.968 84.5291 335.994L85.6361 337.074C86.3381 336.318 87.2156 335.954 88.2416 335.954C89.8076 335.954 91.0091 336.98 91.3061 338.505H87.1076V339.896H91.3331C91.0766 341.502 89.8616 342.596 88.2416 342.596C87.2156 342.596 86.3381 342.231 85.6361 341.475L84.5291 342.555C85.3931 343.581 86.7431 344.135 88.3361 344.135C91.1171 344.135 93.1556 342.096 93.1556 339.275C93.1556 336.453 91.1171 334.415 88.3361 334.415ZM100.502 336.791H93.7522V338.222H96.2902V344H97.9777V338.222H100.502V336.791ZM104.623 344.095C106.864 344.095 108.47 342.555 108.47 340.395C108.47 338.235 106.864 336.71 104.623 336.71C102.409 336.71 100.789 338.235 100.789 340.395C100.789 342.555 102.409 344.095 104.623 344.095ZM104.623 342.65C103.408 342.65 102.49 341.772 102.49 340.395C102.49 339.018 103.408 338.141 104.623 338.141C105.851 338.141 106.769 339.018 106.769 340.395C106.769 341.772 105.851 342.65 104.623 342.65ZM119.039 344H121.023L118.229 340.26L120.848 336.791H119.039L116.906 339.707H115.556V336.791H113.868V344H115.556V341.111H116.865L119.039 344ZM125.189 344.095C127.43 344.095 129.037 342.555 129.037 340.395C129.037 338.235 127.43 336.71 125.189 336.71C122.975 336.71 121.355 338.235 121.355 340.395C121.355 342.555 122.975 344.095 125.189 344.095ZM125.189 342.65C123.974 342.65 123.056 341.772 123.056 340.395C123.056 339.018 123.974 338.141 125.189 338.141C126.418 338.141 127.336 339.018 127.336 340.395C127.336 341.772 126.418 342.65 125.189 342.65ZM130.704 344H132.391V341.151H136.023V344H137.71V336.791H136.023V339.72H132.391V336.791H130.704V344ZM143.252 344.095C144.656 344.095 145.777 343.487 146.33 342.407L145.034 341.651C144.602 342.339 143.954 342.65 143.239 342.65C141.997 342.65 141.052 341.799 141.052 340.395C141.052 339.005 141.997 338.141 143.239 338.141C143.954 338.141 144.602 338.451 145.034 339.14L146.33 338.384C145.777 337.29 144.656 336.71 143.252 336.71C140.971 336.71 139.351 338.235 139.351 340.395C139.351 342.555 140.971 344.095 143.252 344.095ZM153.461 336.791H146.711V338.222H149.249V344H150.936V338.222H153.461V336.791ZM158.681 336.71C157.695 336.71 156.858 337.047 156.291 337.736V336.791H154.685V346.619H156.372V343.122C156.953 343.784 157.763 344.095 158.681 344.095C160.787 344.095 162.339 342.636 162.339 340.395C162.339 338.168 160.787 336.71 158.681 336.71ZM158.492 342.65C157.277 342.65 156.345 341.772 156.345 340.395C156.345 339.018 157.277 338.141 158.492 338.141C159.707 338.141 160.625 339.018 160.625 340.395C160.625 341.772 159.707 342.65 158.492 342.65ZM169.005 336.791L166.724 342.123L164.456 336.791H162.701L165.846 344.027L165.725 344.311C165.401 345.026 165.05 345.31 164.456 345.31C163.997 345.31 163.538 345.121 163.214 344.81L162.539 346.052C162.998 346.471 163.754 346.714 164.469 346.714C165.671 346.714 166.589 346.214 167.25 344.581L170.625 336.791H169.005ZM176.968 344H178.952L176.158 340.26L178.777 336.791H176.968L174.835 339.707H173.485V336.791H171.797V344H173.485V341.111H174.794L176.968 344ZM185.761 336.791H179.011V338.222H181.549V344H183.236V338.222H185.761V336.791ZM186.985 344H188.537L192.506 339.248V344H194.194V336.791H192.655L188.672 341.543V336.791H186.985V344ZM201.688 340.247C202.377 339.95 202.795 339.396 202.795 338.654C202.795 337.466 201.742 336.791 199.987 336.791H196.464V344H200.136C202.08 344 203.025 343.244 203.025 341.975C203.025 341.097 202.579 340.517 201.688 340.247ZM198.07 338.019H199.839C200.703 338.019 201.148 338.303 201.148 338.897C201.148 339.491 200.703 339.801 199.839 339.801H198.07V338.019ZM200.001 342.771H198.07V340.922H200.055C200.973 340.922 201.391 341.232 201.391 341.867C201.391 342.488 200.905 342.771 200.001 342.771ZM204.822 344H206.509V341.151H210.141V344H211.828V336.791H210.141V339.72H206.509V336.791H204.822V344ZM217.303 344.095C219.544 344.095 221.151 342.555 221.151 340.395C221.151 338.235 219.544 336.71 217.303 336.71C215.089 336.71 213.469 338.235 213.469 340.395C213.469 342.555 215.089 344.095 217.303 344.095ZM217.303 342.65C216.088 342.65 215.17 341.772 215.17 340.395C215.17 339.018 216.088 338.141 217.303 338.141C218.532 338.141 219.45 339.018 219.45 340.395C219.45 341.772 218.532 342.65 217.303 342.65ZM223.212 341.853C222.591 341.853 222.119 342.299 222.119 342.974C222.119 343.46 222.375 343.811 222.753 343.973L222.213 346.039H223.307L223.995 344.135C224.238 343.514 224.306 343.271 224.306 342.974C224.306 342.312 223.847 341.853 223.212 341.853ZM232.399 336.71C231.238 336.71 230.118 337.007 229.348 337.601L230.01 338.829C230.55 338.384 231.387 338.114 232.197 338.114C233.398 338.114 233.992 338.694 233.992 339.68V339.788H232.129C229.942 339.788 229.132 340.733 229.132 341.934C229.132 343.19 230.172 344.095 231.819 344.095C232.899 344.095 233.682 343.743 234.087 343.122V344H235.68V339.774C235.68 337.695 234.478 336.71 232.399 336.71ZM232.17 342.866C231.306 342.866 230.793 342.474 230.793 341.867C230.793 341.34 231.103 340.908 232.251 340.908H233.992V341.745C233.709 342.488 232.993 342.866 232.17 342.866ZM245.805 340.247C246.548 339.95 247.02 339.369 247.02 338.667C247.02 337.479 245.67 336.683 243.821 336.683C242.876 336.683 241.944 336.885 240.959 337.344L241.391 338.586C242.187 338.235 242.943 338.06 243.672 338.06C244.685 338.06 245.292 338.384 245.292 338.91C245.292 339.437 244.793 339.734 243.942 339.734H242.673V340.868H244.077C244.982 340.868 245.495 341.178 245.495 341.745C245.495 342.366 244.806 342.731 243.686 342.731C242.795 342.731 241.877 342.501 241.175 342.11L240.689 343.365C241.553 343.851 242.66 344.122 243.767 344.122C245.778 344.122 247.223 343.217 247.223 341.88C247.223 341.084 246.696 340.503 245.805 340.247ZM248.961 344H250.648V341.151H254.28V344H255.967V336.791H254.28V339.72H250.648V336.791H248.961V344ZM260.915 336.71C259.754 336.71 258.634 337.007 257.864 337.601L258.526 338.829C259.066 338.384 259.903 338.114 260.713 338.114C261.914 338.114 262.508 338.694 262.508 339.68V339.788H260.645C258.458 339.788 257.648 340.733 257.648 341.934C257.648 343.19 258.688 344.095 260.335 344.095C261.415 344.095 262.198 343.743 262.603 343.122V344H264.196V339.774C264.196 337.695 262.994 336.71 260.915 336.71ZM260.686 342.866C259.822 342.866 259.309 342.474 259.309 341.867C259.309 341.34 259.619 340.908 260.767 340.908H262.508V341.745C262.225 342.488 261.509 342.866 260.686 342.866ZM270.712 336.791V339.95C270.131 340.22 269.497 340.355 268.903 340.355C267.931 340.355 267.35 339.936 267.35 338.991V336.791H265.663V339.099C265.663 340.895 266.716 341.705 268.538 341.705C269.335 341.705 270.064 341.516 270.712 341.205V344H272.399V336.791H270.712ZM274.669 344H276.221L280.19 339.248V344H281.878V336.791H280.339L276.356 341.543V336.791H274.669V344ZM289.858 336.791H283.108V338.222H285.646V344H287.334V338.222H289.858V336.791ZM116.041 359L116.028 351.791H114.448L111.762 356.3L109.197 351.791H107.428V359H108.967V354.207L111.357 358.244H112.086L114.516 354.221V359H116.041ZM121.518 359.095C123.759 359.095 125.365 357.555 125.365 355.395C125.365 353.235 123.759 351.71 121.518 351.71C119.304 351.71 117.684 353.235 117.684 355.395C117.684 357.555 119.304 359.095 121.518 359.095ZM121.518 357.65C120.303 357.65 119.385 356.772 119.385 355.395C119.385 354.018 120.303 353.141 121.518 353.141C122.746 353.141 123.664 354.018 123.664 355.395C123.664 356.772 122.746 357.65 121.518 357.65ZM135.394 359H137.406L135.03 355.274L137.217 351.791H135.421L133.653 354.707H132.424V351.791H130.75V354.707H129.508L127.753 351.791H125.958L128.145 355.274L125.782 359H127.78L129.535 356.111H130.75V359H132.424V356.111H133.639L135.394 359ZM138.66 359H140.348V356.151H143.979V359H145.667V351.791H143.979V354.72H140.348V351.791H138.66V359ZM151.141 359.095C153.382 359.095 154.989 357.555 154.989 355.395C154.989 353.235 153.382 351.71 151.141 351.71C148.927 351.71 147.307 353.235 147.307 355.395C147.307 357.555 148.927 359.095 151.141 359.095ZM151.141 357.65C149.926 357.65 149.008 356.772 149.008 355.395C149.008 354.018 149.926 353.141 151.141 353.141C152.37 353.141 153.288 354.018 153.288 355.395C153.288 356.772 152.37 357.65 151.141 357.65ZM167.015 357.569V351.791H161.075L160.981 354.261C160.9 355.949 160.724 357.528 159.712 357.569H159.374V360.607H160.94V359H166.502V360.607H168.082V357.569H167.015ZM162.52 354.383L162.56 353.222H165.328V357.569H161.777C162.358 357.016 162.466 355.733 162.52 354.383ZM172.802 359.095C175.043 359.095 176.649 357.555 176.649 355.395C176.649 353.235 175.043 351.71 172.802 351.71C170.588 351.71 168.968 353.235 168.968 355.395C168.968 357.555 170.588 359.095 172.802 359.095ZM172.802 357.65C171.587 357.65 170.669 356.772 170.669 355.395C170.669 354.018 171.587 353.141 172.802 353.141C174.03 353.141 174.948 354.018 174.948 355.395C174.948 356.772 174.03 357.65 172.802 357.65ZM183.541 355.247C184.229 354.95 184.648 354.396 184.648 353.654C184.648 352.466 183.595 351.791 181.84 351.791H178.316V359H181.988C183.932 359 184.877 358.244 184.877 356.975C184.877 356.097 184.432 355.517 183.541 355.247ZM179.923 353.019H181.691C182.555 353.019 183.001 353.303 183.001 353.897C183.001 354.491 182.555 354.801 181.691 354.801H179.923V353.019ZM181.853 357.771H179.923V355.922H181.907C182.825 355.922 183.244 356.232 183.244 356.867C183.244 357.488 182.758 357.771 181.853 357.771ZM193.425 355.436C193.425 353.181 191.886 351.71 189.78 351.71C187.633 351.71 186.054 353.249 186.054 355.395C186.054 357.542 187.62 359.095 190.036 359.095C191.278 359.095 192.291 358.689 192.939 357.92L192.034 356.88C191.521 357.407 190.887 357.663 190.077 357.663C188.821 357.663 187.944 356.988 187.741 355.935H193.398C193.411 355.773 193.425 355.571 193.425 355.436ZM189.78 353.06C190.887 353.06 191.683 353.775 191.818 354.815H187.728C187.89 353.762 188.686 353.06 189.78 353.06ZM199.266 351.71C198.281 351.71 197.444 352.047 196.877 352.736V351.791H195.27V361.619H196.958V358.122C197.538 358.784 198.348 359.095 199.266 359.095C201.372 359.095 202.925 357.636 202.925 355.395C202.925 353.168 201.372 351.71 199.266 351.71ZM199.077 357.65C197.862 357.65 196.931 356.772 196.931 355.395C196.931 354.018 197.862 353.141 199.077 353.141C200.292 353.141 201.21 354.018 201.21 355.395C201.21 356.772 200.292 357.65 199.077 357.65ZM207.148 351.791C205.137 351.791 203.854 352.695 203.854 354.383C203.854 355.49 204.435 356.246 205.461 356.597L203.76 359H205.569L207.04 356.826H208.944V359H210.456V351.791H207.148ZM207.202 353.208H208.944V355.652H207.148C206.109 355.652 205.569 355.274 205.569 354.437C205.569 353.573 206.163 353.208 207.202 353.208ZM218.436 351.791H211.686V353.222H214.224V359H215.912V353.222H218.436V351.791ZM223.278 354.167L221.348 354.153V351.791H219.66V359L223.035 359.014C225.006 359.027 226.127 358.122 226.127 356.543C226.127 355.044 225.128 354.167 223.278 354.167ZM222.887 357.771L221.348 357.758V355.314L222.887 355.328C223.886 355.341 224.412 355.692 224.412 356.516C224.412 357.353 223.872 357.785 222.887 357.771ZM228.057 359.095C228.664 359.095 229.164 358.622 229.164 357.974C229.164 357.299 228.664 356.853 228.057 356.853C227.449 356.853 226.95 357.299 226.95 357.974C226.95 358.622 227.449 359.095 228.057 359.095Z" fill="black"/>
<g filter="url(#filter0_di)">
<path d="M103.862 116.512C102.275 116.541 100.998 117.836 100.998 119.428V173.376C100.998 174.181 101.651 174.834 102.456 174.834H116.293C117.599 174.834 118.743 173.971 119.099 172.717L132.008 127.228C132.842 124.288 131.267 121.196 128.391 120.152C123.106 118.227 114.998 116.325 103.862 116.512Z" fill="white"/>
<path d="M229.333 148.584C217.666 148.584 194.333 163.348 182.666 163.348C170.999 163.348 157.874 154.417 157.874 154.417C157.874 154.417 173.589 157.334 182.666 157.334C191.743 157.334 194.333 154.236 194.333 150.042C194.333 139.834 176.996 138.247 168.222 136.911C159.612 132.116 155.138 128.324 140.875 127.117C140.793 127.951 140.665 128.779 140.432 129.602L128.712 170.902C141.983 176.94 164.839 186.501 176.832 186.501C194.333 186.501 241 163.167 241 157.334C241 151.5 235.167 148.584 229.333 148.584Z" fill="white"/>
</g>
<path d="M252 5C252 26.7477 243.361 47.6048 227.983 62.9828C212.605 78.3607 191.748 87 170 87C148.252 87 127.395 78.3607 112.017 62.9828C96.6393 47.6048 88 26.7478 88 5.00002L170 5H252Z" fill="white"/>
<path d="M48.032 423.216C48.032 414.96 35.328 417.52 35.328 414.096C35.328 412.976 36.288 412.08 38.944 412.08C40.896 412.08 43.008 412.656 45.152 413.808L47.104 409.104C45.312 408.048 42.976 407.408 40.608 407.216V403.76H36.768V407.28C31.584 407.92 29.056 410.896 29.056 414.416C29.056 422.736 41.792 420.144 41.792 423.696C41.792 424.784 40.768 425.52 38.144 425.52C35.552 425.52 32.736 424.624 30.752 423.312L28.672 427.984C30.528 429.264 33.568 430.192 36.768 430.416V433.84H40.608V430.288C45.6 429.552 48.032 426.608 48.032 423.216Z" fill="#00BCBC"/>
<path d="M60.14 412V414.6H62.94V426H66.18V412H60.14ZM73.412 417.26H72.272L72.492 414.6H78.332V412H69.792L69.072 419.88H72.652C75.192 419.88 75.912 420.6 75.912 421.7C75.912 422.84 74.912 423.52 73.292 423.52C71.832 423.52 70.372 423.06 69.312 422.26L68.032 424.74C69.392 425.7 71.432 426.24 73.372 426.24C77.372 426.24 79.192 424.08 79.192 421.6C79.192 419.12 77.552 417.26 73.412 417.26ZM92.1706 426.24C95.6306 426.24 98.1706 423.62 98.1706 419C98.1706 414.38 95.6306 411.76 92.1706 411.76C88.7306 411.76 86.1706 414.38 86.1706 419C86.1706 423.62 88.7306 426.24 92.1706 426.24ZM92.1706 423.5C90.5706 423.5 89.4506 422.18 89.4506 419C89.4506 415.82 90.5706 414.5 92.1706 414.5C93.7906 414.5 94.9106 415.82 94.9106 419C94.9106 422.18 93.7906 423.5 92.1706 423.5ZM105.745 426.24C109.205 426.24 111.745 423.62 111.745 419C111.745 414.38 109.205 411.76 105.745 411.76C102.305 411.76 99.7448 414.38 99.7448 419C99.7448 423.62 102.305 426.24 105.745 426.24ZM105.745 423.5C104.145 423.5 103.025 422.18 103.025 419C103.025 415.82 104.145 414.5 105.745 414.5C107.365 414.5 108.485 415.82 108.485 419C108.485 422.18 107.365 423.5 105.745 423.5ZM119.319 426.24C122.779 426.24 125.319 423.62 125.319 419C125.319 414.38 122.779 411.76 119.319 411.76C115.879 411.76 113.319 414.38 113.319 419C113.319 423.62 115.879 426.24 119.319 426.24ZM119.319 423.5C117.719 423.5 116.599 422.18 116.599 419C116.599 415.82 117.719 414.5 119.319 414.5C120.939 414.5 122.059 415.82 122.059 419C122.059 422.18 120.939 423.5 119.319 423.5Z" fill="black"/>
<path d="M235.14 412V414.6H237.94V426H241.18V412H235.14ZM249.612 426.24C253.072 426.24 255.612 423.62 255.612 419C255.612 414.38 253.072 411.76 249.612 411.76C246.172 411.76 243.612 414.38 243.612 419C243.612 423.62 246.172 426.24 249.612 426.24ZM249.612 423.5C248.012 423.5 246.892 422.18 246.892 419C246.892 415.82 248.012 414.5 249.612 414.5C251.232 414.5 252.352 415.82 252.352 419C252.352 422.18 251.232 423.5 249.612 423.5ZM276.89 426L276.85 415.24H273.93L270.27 421.46L266.83 415.24H263.57V426H266.39V419.54L269.53 424.96H270.85L274.07 419.56V426H276.89ZM279.879 426H282.759L287.979 419.6V426H291.079V415.24H288.219L282.979 421.64V415.24H279.879V426ZM294.078 426H297.178V421.98H301.858V426H304.978V415.24H301.858V419.44H297.178V415.24H294.078V426Z" fill="black"/>
<path d="M216.5 406C209.595 406 204 411.595 204 418.5C204 425.405 209.595 431 216.5 431C223.405 431 229 425.405 229 418.5C229 411.595 223.405 406 216.5 406Z" fill="#00BCBC"/>
<path fill-rule="evenodd" clip-rule="evenodd" d="M215.961 410C214.878 410 214 410.878 214 411.961V419.153C214 419.311 214.019 419.464 214.054 419.611C214.047 420.263 214.376 420.901 214.974 421.262L220.414 424.535C221.313 425.077 222.481 424.786 223.022 423.887C223.563 422.988 223.273 421.82 222.374 421.279L217.923 418.6V411.961C217.923 410.878 217.045 410 215.961 410Z" fill="white"/>
<g filter="url(#filter1_d)">
<path d="M162.531 400.393L185.975 433.213C179.766 434.57 168.698 428.331 168.698 428.331C168.698 428.331 160.834 438.706 154.912 440L162.531 400.393Z" fill="white"/>
<path fill-rule="evenodd" clip-rule="evenodd" d="M154.912 440L158.469 421.51C161.522 424.284 164.956 426.604 168.698 428.331C168.698 428.331 160.834 438.706 154.912 440Z" fill="#BBFFF9"/>
</g>
<path d="M135.812 25.4V34.274H143.352V66H154.836V25.4H135.812ZM184.606 40.132C180.778 40.132 177.704 41.176 175.442 43.148C176.022 36.942 179.908 33.694 185.708 33.694C188.318 33.694 190.87 34.158 193.19 35.782L197.366 27.546C194.408 25.632 190 24.588 185.418 24.588C172.6 24.588 163.842 32.65 163.842 46.802C163.842 59.968 171.266 66.812 182.634 66.812C191.508 66.812 198.584 61.418 198.584 52.95C198.584 45.178 192.262 40.132 184.606 40.132ZM181.938 58.634C178.458 58.634 176.254 56.546 176.254 53.53C176.254 50.456 178.574 48.368 181.88 48.368C185.186 48.368 187.448 50.34 187.448 53.472C187.448 56.662 185.186 58.634 181.938 58.634Z" fill="#46BBCE"/>
<defs>
<filter id="filter0_di" x="94.9976" y="110.499" width="160.002" height="90.0021" filterUnits="userSpaceOnUse" color-interpolation-filters="sRGB">
<feFlood flood-opacity="0" result="BackgroundImageFix"/>
<feColorMatrix in="SourceAlpha" type="matrix" values="0 0 0 0 0 0 0 0 0 0 0 0 0 0 0 0 0 0 127 0"/>
<feOffset dx="4" dy="4"/>
<feGaussianBlur stdDeviation="5"/>
<feColorMatrix type="matrix" values="0 0 0 0 0.1715 0 0 0 0 0.816667 0 0 0 0 0.816667 0 0 0 1 0"/>
<feBlend mode="normal" in2="BackgroundImageFix" result="effect1_dropShadow"/>
<feBlend mode="normal" in="SourceGraphic" in2="effect1_dropShadow" result="shape"/>
<feColorMatrix in="SourceAlpha" type="matrix" values="0 0 0 0 0 0 0 0 0 0 0 0 0 0 0 0 0 0 127 0" result="hardAlpha"/>
<feOffset dx="-4" dy="-4"/>
<feGaussianBlur stdDeviation="4.5"/>
<feComposite in2="hardAlpha" operator="arithmetic" k2="-1" k3="1"/>
<feColorMatrix type="matrix" values="0 0 0 0 0.441945 0 0 0 0 0.887146 0 0 0 0 0.895833 0 0 0 0.52 0"/>
<feBlend mode="normal" in2="shape" result="effect2_innerShadow"/>
</filter>
<filter id="filter1_d" x="150.912" y="396.393" width="45.0628" height="53.6066" filterUnits="userSpaceOnUse" color-interpolation-filters="sRGB">
<feFlood flood-opacity="0" result="BackgroundImageFix"/>
<feColorMatrix in="SourceAlpha" type="matrix" values="0 0 0 0 0 0 0 0 0 0 0 0 0 0 0 0 0 0 127 0"/>
<feOffset dx="3" dy="3"/>
<feGaussianBlur stdDeviation="3.5"/>
<feColorMatrix type="matrix" values="0 0 0 0 0.279 0 0 0 0 0.9 0 0 0 0 0.840225 0 0 0 1 0"/>
<feBlend mode="normal" in2="BackgroundImageFix" result="effect1_dropShadow"/>
<feBlend mode="normal" in="SourceGraphic" in2="effect1_dropShadow" result="shape"/>
</filter>
<linearGradient id="paint0_linear" x1="5.5" y1="-157" x2="289.5" y2="495.5" gradientUnits="userSpaceOnUse">
<stop stop-color="#00C2FF"/>
<stop offset="1" stop-color="#1EE7CF"/>
</linearGradient>
<linearGradient id="paint1_linear" x1="49" y1="11" x2="301.5" y2="474" gradientUnits="userSpaceOnUse">
<stop stop-color="#19D2EB"/>
<stop offset="1" stop-color="#55F5DF"/>
</linearGradient>
<linearGradient id="paint2_linear" x1="59.5" y1="-9" x2="291.5" y2="495.5" gradientUnits="userSpaceOnUse">
<stop stop-color="#00E0FF"/>
<stop offset="1" stop-color="#42F2D1"/>
</linearGradient>
<linearGradient id="paint3_linear" x1="51" y1="11" x2="303.5" y2="474" gradientUnits="userSpaceOnUse">
<stop stop-color="#B2F6FF"/>
<stop offset="1" stop-color="#28D7BE"/>
</linearGradient>
<linearGradient id="paint4_linear" x1="27" y1="473.49" x2="247.084" y2="60.8524" gradientUnits="userSpaceOnUse">
<stop stop-color="#73F5FF"/>
<stop offset="0.99" stop-color="#7AFFEC"/>
</linearGradient>
<linearGradient id="paint5_linear" x1="129.774" y1="288" x2="310" y2="288" gradientUnits="userSpaceOnUse">
<stop stop-color="white"/>
<stop offset="0.99" stop-color="white" stop-opacity="0.4"/>
</linearGradient>
<linearGradient id="paint6_linear" x1="59.8997" y1="86" x2="140" y2="86" gradientUnits="userSpaceOnUse">
<stop stop-color="white"/>
<stop offset="0.99" stop-color="white" stop-opacity="0.4"/>
</linearGradient>
</defs>
</svg>
