<svg width="338" height="474" viewBox="0 0 338 474" fill="none" xmlns="http://www.w3.org/2000/svg">
<rect x="2.5" y="2.5" width="331" height="469" rx="32.5" fill="url(#paint0_linear)" stroke="url(#paint1_linear)" stroke-width="5"/>
<mask id="mask0" mask-type="alpha" maskUnits="userSpaceOnUse" x="2" y="0" width="336" height="474">
<rect x="4.5" y="2.5" width="331" height="469" rx="41.5" fill="url(#paint2_linear)" stroke="url(#paint3_linear)" stroke-width="5"/>
</mask>
<g mask="url(#mask0)">
<path d="M198.89 5.0093C198.89 5.0093 97.8208 47.0947 93.9888 101.845C90.1568 156.595 112.775 152.615 106.069 185.086C99.3632 217.557 -10.9124 255.616 18.7856 356.766C48.4837 457.916 142.368 370.584 242 469H35C18.4315 469 5 455.569 5 439V35.0014C5 18.4323 18.4323 5.00064 35.0014 5.00144L198.89 5.0093Z" fill="url(#paint4_linear)" fill-opacity="0.5"/>
</g>
<path opacity="0.46" d="M219.887 378C202.092 377.978 184.702 372.68 169.917 362.777C155.131 352.875 143.613 338.811 136.819 322.363C130.024 305.916 128.258 287.824 131.743 270.373C135.229 252.922 143.809 236.896 156.4 224.321C168.992 211.745 185.028 203.185 202.483 199.721C219.939 196.258 238.029 198.046 254.468 204.862C270.906 211.677 284.956 223.212 294.84 238.01C304.724 252.808 310 270.204 310 288C309.958 311.876 300.447 334.761 283.553 351.633C266.66 368.506 243.763 377.988 219.887 378ZM219.887 222.747C206.985 222.764 194.378 226.607 183.659 233.788C172.94 240.969 164.59 251.166 159.665 263.091C154.74 275.016 153.461 288.134 155.989 300.786C158.517 313.438 164.739 325.056 173.868 334.173C182.998 343.29 194.625 349.496 207.28 352.006C219.936 354.517 233.051 353.219 244.97 348.278C256.888 343.336 267.074 334.972 274.24 324.243C281.406 313.515 285.231 300.902 285.231 288C285.177 270.703 278.27 254.132 266.022 241.918C253.774 229.704 237.184 222.843 219.887 222.837V222.747Z" fill="url(#paint5_linear)"/>
<path opacity="0.46" d="M99.9498 126C92.0407 125.99 84.3121 123.636 77.7407 119.234C71.1694 114.833 66.0503 108.583 63.0305 101.273C60.0106 93.9627 59.2257 85.9216 60.7747 78.1657C62.3238 70.4097 66.1374 63.2871 71.7335 57.698C77.3296 52.1089 84.457 48.3043 92.2148 46.7649C99.9727 45.2256 108.013 46.0207 115.319 49.0496C122.625 52.0786 128.869 57.2055 133.262 63.7824C137.655 70.3593 140 78.0909 140 86C139.981 96.6116 135.754 106.783 128.246 114.281C120.738 121.78 110.561 125.995 99.9498 126ZM99.9498 56.9985C94.2156 57.0064 88.6124 58.7141 83.8484 61.9056C79.0844 65.0972 75.3735 69.6294 73.1846 74.9294C70.9957 80.2294 70.4271 86.0594 71.5506 91.6825C72.6742 97.3056 75.4395 102.469 79.497 106.521C83.5545 110.573 88.7222 113.331 94.3468 114.447C99.9715 115.563 105.801 114.986 111.098 112.79C116.395 110.594 120.922 106.877 124.107 102.108C127.292 97.3398 128.991 91.7342 128.991 86C128.968 78.3124 125.898 70.9477 120.454 65.5193C115.011 60.0908 107.637 57.0412 99.9498 57.0386V56.9985Z" fill="url(#paint6_linear)"/>
<path d="M64.8919 239.308C69.8199 239.308 73.4499 235.92 73.4499 231.3C73.4499 226.68 69.8199 223.292 64.8919 223.292C59.9639 223.292 56.3339 226.68 56.3339 231.3C56.3339 235.92 59.9639 239.308 64.8919 239.308ZM64.8919 235.7C62.5599 235.7 60.7339 233.962 60.7339 231.3C60.7339 228.638 62.5599 226.9 64.8919 226.9C67.2239 226.9 69.0499 228.638 69.0499 231.3C69.0499 233.962 67.2239 235.7 64.8919 235.7Z" fill="black"/>
<path d="M87.9722 223.6H74.2442V227.054H78.9742V239H83.2642V227.054H87.9722V223.6Z" fill="black"/>
<path d="M89.9802 223.6V239H94.2702V227.054H100.122V239H104.434V223.6H89.9802Z" fill="black"/>
<path d="M114.766 223.6H107.726V239H112.082V234.974H114.766C118.968 234.974 121.608 232.796 121.608 229.298C121.608 225.778 118.968 223.6 114.766 223.6ZM114.502 231.542H112.082V227.032H114.502C116.306 227.032 117.208 227.868 117.208 229.298C117.208 230.706 116.306 231.542 114.502 231.542Z" fill="black"/>
<path d="M134.644 239H139.176L132.356 223.6H128.066L121.268 239H125.712L126.922 236.008H133.434L134.644 239ZM128.198 232.796L130.178 227.868L132.158 232.796H128.198Z" fill="black"/>
<path d="M152.161 230.948C153.481 230.288 154.251 229.122 154.251 227.604C154.251 225.052 152.095 223.6 148.421 223.6H140.941V239H148.839C152.799 239 154.955 237.306 154.955 234.6C154.955 232.752 153.943 231.52 152.161 230.948ZM145.231 226.724H148.003C149.235 226.724 149.851 227.252 149.851 228.242C149.851 229.254 149.235 229.76 148.003 229.76H145.231V226.724ZM148.663 235.876H145.231V232.708H148.663C149.917 232.708 150.555 233.214 150.555 234.27C150.555 235.326 149.917 235.876 148.663 235.876Z" fill="black"/>
<path d="M157.312 239H161.426L167.762 229.98V239H172.052V223.6H167.96L161.602 232.642V223.6H157.312V239Z" fill="black"/>
<path d="M187.767 223.6H174.039V227.054H178.769V239H183.059V227.054H187.767V223.6Z" fill="black"/>
<path d="M197.629 228.506H194.065V223.6H189.775V239H197.057C201.061 239 203.547 237.13 203.547 233.522C203.547 230.156 201.369 228.506 197.629 228.506ZM196.771 235.876H194.065V231.608H196.771C198.245 231.608 199.169 232.158 199.169 233.61C199.169 235.062 198.223 235.876 196.771 235.876Z" fill="black"/>
<path d="M212.14 223.6V239H216.43V227.054H222.282V239H226.594V223.6H212.14Z" fill="black"/>
<path d="M236.926 223.6H229.886V239H234.242V234.974H236.926C241.128 234.974 243.768 232.796 243.768 229.298C243.768 225.778 241.128 223.6 236.926 223.6ZM236.662 231.542H234.242V227.032H236.662C238.466 227.032 239.368 227.868 239.368 229.298C239.368 230.706 238.466 231.542 236.662 231.542Z" fill="black"/>
<path d="M245.742 239H249.856L256.192 229.98V239H260.482V223.6H256.39L250.032 232.642V223.6H245.742V239Z" fill="black"/>
<path d="M275.075 223.6H263.789V239H268.079V227.054H275.053L275.075 223.6Z" fill="black"/>
<path d="M271.853 234.336H278.277V231.124H271.853V234.336Z" fill="black"/>
<path d="M42.7497 249.6L42.5297 255.738C42.3977 259.214 42.0677 261.502 40.2857 261.502C40.0877 261.502 39.8897 261.48 39.6917 261.436L39.4497 265C40.1757 265.176 40.8357 265.264 41.4297 265.264C45.3457 265.264 46.1597 261.568 46.3577 255.562L46.4457 253.054H50.8677V265H55.1577V249.6H42.7497Z" fill="black"/>
<path d="M70.2879 265H74.8199L67.9999 249.6H63.7099L56.9119 265H61.3559L62.5659 262.008H69.0779L70.2879 265ZM63.8419 258.796L65.8219 253.868L67.8019 258.796H63.8419Z" fill="black"/>
<path d="M93.1727 249.6V261.546H89.1907V249.6H84.9007V261.546H80.8747V249.6H76.5847V265H97.4627V249.6H93.1727Z" fill="black"/>
<path d="M105.067 261.634V258.818H111.909V255.562H105.067V252.966H112.833V249.6H100.755V265H113.119V261.634H105.067Z" fill="black"/>
<path d="M125.896 249.6V255.386H119.956V249.6H115.6V265H119.956V258.994H125.896V265H130.252V249.6H125.896Z" fill="black"/>
<path d="M133.561 265H137.675L144.011 255.98V265H148.301V249.6H144.209L137.851 258.642V249.6H133.561V265Z" fill="black"/>
<path d="M155.92 261.634V258.818H162.762V255.562H155.92V252.966H163.686V249.6H151.608V265H163.972V261.634H155.92Z" fill="black"/>
<path d="M172.856 249.6V265H177.146V253.054H182.998V265H187.31V249.6H172.856Z" fill="black"/>
<path d="M198.17 265.308C203.098 265.308 206.728 261.92 206.728 257.3C206.728 252.68 203.098 249.292 198.17 249.292C193.242 249.292 189.612 252.68 189.612 257.3C189.612 261.92 193.242 265.308 198.17 265.308ZM198.17 261.7C195.838 261.7 194.012 259.962 194.012 257.3C194.012 254.638 195.838 252.9 198.17 252.9C200.502 252.9 202.328 254.638 202.328 257.3C202.328 259.962 200.502 261.7 198.17 261.7Z" fill="black"/>
<path d="M219.662 261.634V258.818H226.504V255.562H219.662V252.966H227.428V249.6H215.35V265H227.714V261.634H219.662Z" fill="black"/>
<path d="M229.217 260.336H235.641V257.124H229.217V260.336Z" fill="black"/>
<path d="M256.139 265L256.095 249.6H252.509L247.229 258.488L241.817 249.6H238.231V265H242.257V257.058L246.195 263.482H248.131L252.091 256.838L252.135 265H256.139Z" fill="black"/>
<path d="M270.749 265H275.281L268.461 249.6H264.171L257.373 265H261.817L263.027 262.008H269.539L270.749 265ZM264.303 258.796L266.283 253.868L268.263 258.796H264.303Z" fill="black"/>
<path d="M276.516 265H280.872V249.6H276.516V265Z" fill="black"/>
<path d="M283.971 265H295.675V261.546H288.327V249.6H283.971V265Z" fill="black"/>
<path fill-rule="evenodd" clip-rule="evenodd" d="M74.3092 240.803C71.8518 243.023 68.5142 244.308 64.8921 244.308C57.5244 244.308 51.3341 238.993 51.3341 231.3C51.3341 223.607 57.5244 218.292 64.8921 218.292C67.1299 218.292 69.2591 218.782 71.1392 219.681C71.9921 219.004 73.071 218.6 74.2443 218.6H87.9723C88.3162 218.6 88.6519 218.635 88.9763 218.701C89.3007 218.635 89.6364 218.6 89.9803 218.6H104.434C105.011 218.6 105.565 218.698 106.08 218.877C106.596 218.698 107.15 218.6 107.726 218.6H114.766C117.682 218.6 120.637 219.355 122.958 221.283C123.123 221.42 123.283 221.561 123.437 221.706L123.492 221.581C124.292 219.769 126.086 218.6 128.066 218.6H132.356C134.13 218.6 135.754 219.537 136.648 221.035C137.522 219.576 139.118 218.6 140.941 218.6H148.421C150.312 218.6 152.327 218.885 154.146 219.73C155.009 219.024 156.111 218.6 157.312 218.6H161.602C162.81 218.6 163.917 219.028 164.781 219.741C165.666 219.012 166.787 218.6 167.96 218.6H172.052C172.392 218.6 172.725 218.634 173.046 218.699C173.367 218.634 173.699 218.6 174.039 218.6H187.767C188.111 218.6 188.447 218.635 188.771 218.701C189.096 218.635 189.431 218.6 189.775 218.6H194.065C196.816 218.6 199.048 220.821 199.065 223.568C201.163 223.755 203.348 224.392 205.169 225.892C205.985 226.564 206.636 227.332 207.14 228.164V223.6C207.14 220.839 209.379 218.6 212.14 218.6H226.594C227.171 218.6 227.725 218.698 228.241 218.877C228.756 218.698 229.31 218.6 229.887 218.6H236.927C238.862 218.6 240.815 218.933 242.588 219.72C243.448 219.02 244.546 218.6 245.742 218.6H250.032C251.24 218.6 252.347 219.028 253.211 219.741C254.096 219.012 255.217 218.6 256.39 218.6H260.482C261.061 218.6 261.618 218.699 262.135 218.88C262.653 218.699 263.209 218.6 263.789 218.6H275.075C276.407 218.6 277.683 219.131 278.622 220.076C279.56 221.02 280.083 222.3 280.075 223.632L280.057 226.45C281.94 227.167 283.277 228.989 283.277 231.124V234.336C283.277 237.097 281.039 239.336 278.277 239.336H273.068C272.895 241.941 270.727 244 268.079 244H263.789C263.209 244 262.653 243.901 262.135 243.72C261.618 243.901 261.061 244 260.482 244H256.192C254.99 244 253.886 243.576 253.024 242.868C252.141 243.592 251.025 244 249.856 244H245.742C243.147 244 241.014 242.023 240.766 239.493C240.244 239.633 239.712 239.739 239.176 239.817C238.786 242.19 236.726 244 234.243 244H229.887C229.31 244 228.756 243.902 228.241 243.723C227.725 243.902 227.171 244 226.594 244H222.282C221.19 244 220.179 243.65 219.356 243.055C218.534 243.65 217.523 244 216.43 244H212.14C209.379 244 207.14 241.761 207.14 239V238.959C206.59 239.893 205.871 240.746 204.971 241.483C202.656 243.378 199.755 244 197.057 244H189.775C188.483 244 187.305 243.51 186.417 242.705C185.53 243.51 184.352 244 183.059 244H178.769C177.476 244 176.298 243.509 175.411 242.704C174.523 243.509 173.345 244 172.052 244H167.762C166.56 244 165.457 243.576 164.594 242.868C163.711 243.592 162.595 244 161.426 244H157.312C156.184 244 155.143 243.626 154.306 242.996C152.577 243.728 150.68 244 148.839 244H140.941C140.639 244 140.344 243.973 140.057 243.922C139.769 243.973 139.474 244 139.176 244H134.644C132.745 244 131.022 242.925 130.178 241.248C129.335 242.925 127.612 244 125.712 244H121.268C119.578 244 118.002 243.146 117.079 241.73C116.922 241.489 116.788 241.237 116.676 240.978C115.91 242.755 114.141 244 112.082 244H107.726C107.15 244 106.596 243.902 106.08 243.723C105.565 243.902 105.011 244 104.434 244H100.122C99.0297 244 98.0189 243.65 97.1963 243.055C96.3737 243.65 95.3629 244 94.2703 244H89.9803C88.6878 244 87.5098 243.51 86.6223 242.705C85.7348 243.51 84.5568 244 83.2643 244H78.9743C76.8485 244 75.0326 242.673 74.3092 240.803ZM73.4229 231.987C73.4409 231.761 73.4501 231.532 73.4501 231.3C73.4501 229.709 73.0197 228.265 72.2542 227.054C71.5265 225.903 70.496 224.964 69.2443 224.312C67.9886 223.657 66.5103 223.292 64.8921 223.292C59.9641 223.292 56.3341 226.68 56.3341 231.3C56.3341 235.92 59.9641 239.308 64.8921 239.308C69.5724 239.308 73.082 236.252 73.4229 231.987ZM78.9743 239H83.2643V227.054H87.9723V223.6H74.2443V227.054H78.9743V239ZM89.9803 239H94.2703V227.054H100.122V239H104.434V223.6H89.9803V239ZM139.176 239L132.356 223.6H128.066L121.268 239H125.712L126.922 236.008H133.434L134.644 239H139.176ZM128.198 232.796L130.178 227.868L132.158 232.796H128.198ZM107.726 223.6V239H112.082V234.974H114.766C115.889 234.974 116.9 234.819 117.779 234.524C120.19 233.716 121.608 231.862 121.608 229.298C121.608 228.42 121.444 227.625 121.132 226.927C120.194 224.827 117.92 223.6 114.766 223.6H107.726ZM112.082 231.542H114.502C114.593 231.542 114.681 231.54 114.766 231.536C116.025 231.475 116.797 230.97 117.082 230.127C117.166 229.879 117.208 229.602 117.208 229.298C117.208 228.989 117.166 228.708 117.082 228.458C116.797 227.604 116.025 227.099 114.766 227.038C114.681 227.034 114.593 227.032 114.502 227.032H112.082V231.542ZM157.312 239H161.426L167.762 229.98V239H172.052V223.6H167.96L161.602 232.642V223.6H157.312V239ZM140.941 223.6V239H148.839C150.222 239 151.385 238.793 152.312 238.41C153.862 237.768 154.757 236.631 154.926 235.135C154.945 234.961 154.955 234.783 154.955 234.6C154.955 234.488 154.952 234.378 154.944 234.27C154.875 233.262 154.483 232.454 153.813 231.854C153.41 231.493 152.907 231.207 152.312 230.999C152.263 230.981 152.212 230.964 152.161 230.948C152.212 230.922 152.263 230.896 152.312 230.869C152.893 230.551 153.358 230.13 153.687 229.62C153.949 229.214 154.124 228.753 154.203 228.242C154.235 228.037 154.251 227.824 154.251 227.604C154.251 227.133 154.178 226.699 154.035 226.304C153.741 225.497 153.156 224.856 152.312 224.401C151.34 223.877 150.025 223.6 148.421 223.6H140.941ZM145.231 226.724V229.76H148.003C148.247 229.76 148.467 229.74 148.663 229.7C149.274 229.576 149.649 229.259 149.789 228.749C149.793 228.733 149.797 228.718 149.801 228.702C149.834 228.562 149.851 228.409 149.851 228.242C149.851 228.075 149.834 227.921 149.798 227.78C149.783 227.719 149.764 227.66 149.742 227.604C149.664 227.403 149.543 227.236 149.379 227.103C149.31 227.048 149.235 226.998 149.152 226.955C148.951 226.85 148.708 226.78 148.421 226.747C148.291 226.732 148.151 226.724 148.003 226.724H145.231ZM145.231 232.708V235.876H148.663C148.723 235.876 148.782 235.875 148.839 235.872C149.367 235.849 149.775 235.719 150.06 235.485C150.123 235.434 150.18 235.377 150.231 235.315C150.233 235.313 150.235 235.31 150.237 235.308C150.392 235.118 150.49 234.882 150.532 234.6C150.544 234.523 150.551 234.442 150.554 234.358C150.555 234.329 150.555 234.3 150.555 234.27C150.555 233.834 150.447 233.493 150.231 233.241C149.924 232.883 149.4 232.708 148.663 232.708H145.231ZM178.769 239H183.059V227.054H187.767V223.6H174.039V227.054H178.769V239ZM189.775 239H197.057C201.029 239 203.507 237.16 203.547 233.61C203.547 233.581 203.547 233.551 203.547 233.522C203.547 230.156 201.369 228.506 197.629 228.506H194.065V223.6H189.775V239ZM194.065 235.876H196.771C196.869 235.876 196.964 235.872 197.057 235.865C198.078 235.785 198.806 235.267 199.065 234.383C199.133 234.15 199.169 233.892 199.169 233.61C199.169 233.58 199.169 233.551 199.168 233.522C199.161 233.273 199.126 233.052 199.065 232.856C198.859 232.198 198.354 231.832 197.629 231.685C197.37 231.633 197.083 231.608 196.771 231.608H194.065V235.876ZM222.282 239H226.594V223.6H212.14V239H216.43V227.054H222.282V239ZM229.887 223.6V239H234.243V234.974H236.927C238.408 234.974 239.696 234.703 240.742 234.199C242.662 233.274 243.769 231.562 243.769 229.298C243.769 227.019 242.662 225.303 240.742 224.376C239.696 223.871 238.408 223.6 236.927 223.6H229.887ZM234.243 231.542H236.663C236.753 231.542 236.841 231.54 236.927 231.536C238.185 231.475 238.957 230.97 239.243 230.127C239.327 229.879 239.369 229.602 239.369 229.298C239.369 228.989 239.327 228.708 239.243 228.458C238.957 227.604 238.185 227.099 236.927 227.038C236.841 227.034 236.753 227.032 236.663 227.032H234.243V231.542ZM245.742 239H249.856L256.192 229.98V239H260.482V223.6H256.39L250.032 232.642V223.6H245.742V239ZM271.853 234.336H278.277V231.124H271.853V234.336ZM263.789 223.6V239H268.079V227.054H275.053L275.075 223.6H263.789ZM65.5187 231.008C65.275 230.758 64.9999 230.7 64.8921 230.7C64.7842 230.7 64.5091 230.758 64.2654 231.008C64.1596 231.116 64.0984 231.224 64.0677 231.3C64.0984 231.376 64.1596 231.484 64.2654 231.592C64.5091 231.842 64.7842 231.9 64.8921 231.9C64.9999 231.9 65.275 231.842 65.5187 231.592C65.6245 231.484 65.6857 231.376 65.7164 231.3C65.6857 231.224 65.6245 231.116 65.5187 231.008ZM37.753 249.421C37.8495 246.731 40.0581 244.6 42.7498 244.6H55.1578C56.9702 244.6 58.5574 245.564 59.4343 247.008C60.3319 245.526 61.947 244.6 63.71 244.6H68C69.7736 244.6 71.3976 245.537 72.292 247.035C73.1654 245.576 74.7611 244.6 76.5848 244.6H80.8748C81.5909 244.6 82.2719 244.751 82.8878 245.022C83.5037 244.751 84.1847 244.6 84.9008 244.6H89.1908C89.8984 244.6 90.5717 244.747 91.1818 245.012C91.7919 244.747 92.4652 244.6 93.1728 244.6H97.4628C98.0395 244.6 98.5933 244.698 99.1088 244.877C99.6242 244.698 100.178 244.6 100.755 244.6H112.833C113.313 244.6 113.777 244.668 114.217 244.794C114.656 244.668 115.12 244.6 115.6 244.6H119.956C121.069 244.6 122.096 244.963 122.926 245.577C123.757 244.963 124.784 244.6 125.896 244.6H130.252C130.832 244.6 131.389 244.699 131.907 244.88C132.425 244.699 132.982 244.6 133.561 244.6H137.851C139.059 244.6 140.166 245.028 141.03 245.741C141.915 245.012 143.036 244.6 144.209 244.6H148.301C148.881 244.6 149.437 244.699 149.955 244.88C150.472 244.699 151.029 244.6 151.608 244.6H163.686C165.738 244.6 167.5 245.835 168.271 247.602C169.042 245.835 170.805 244.6 172.856 244.6H187.31C188.752 244.6 190.052 245.21 190.964 246.187C193.065 244.968 195.543 244.292 198.17 244.292C203.449 244.292 208.124 247.021 210.35 251.397V249.6C210.35 246.839 212.588 244.6 215.35 244.6H227.428C230.189 244.6 232.428 246.839 232.428 249.6V252.124H233.231V249.6C233.231 246.839 235.469 244.6 238.231 244.6H241.817C243.561 244.6 245.18 245.509 246.087 247L247.176 248.787L248.21 247.046C249.111 245.53 250.745 244.6 252.509 244.6H256.095C257.753 244.6 259.223 245.407 260.133 246.651C261.062 245.379 262.554 244.6 264.171 244.6H268.461C270.071 244.6 271.559 245.373 272.488 246.637C273.399 245.401 274.864 244.6 276.516 244.6H280.872C281.413 244.6 281.934 244.686 282.421 244.845C282.909 244.686 283.43 244.6 283.971 244.6H288.327C291.088 244.6 293.327 246.839 293.327 249.6V256.546H295.675C298.436 256.546 300.675 258.785 300.675 261.546V265C300.675 267.761 298.436 270 295.675 270H283.971C283.43 270 282.909 269.914 282.421 269.755C281.934 269.914 281.413 270 280.872 270H276.516C276.306 270 276.099 269.987 275.896 269.962C275.694 269.987 275.488 270 275.281 270H270.749C268.849 270 267.126 268.925 266.283 267.248C265.439 268.925 263.717 270 261.817 270H257.373C257.165 270 256.959 269.987 256.756 269.962C256.552 269.987 256.346 270 256.139 270H252.135C250.719 270 249.441 269.412 248.531 268.466C248.398 268.477 248.265 268.482 248.131 268.482H246.195C246.081 268.482 245.968 268.478 245.856 268.471C244.947 269.413 243.67 270 242.257 270H238.231C235.582 270 233.415 267.941 233.242 265.336H232.703C232.53 267.941 230.362 270 227.714 270H215.35C212.588 270 210.35 267.761 210.35 265V263.203C208.124 267.579 203.449 270.308 198.17 270.308C195.543 270.308 193.065 269.632 190.964 268.413C190.052 269.39 188.752 270 187.31 270H182.998C181.906 270 180.895 269.65 180.072 269.055C179.25 269.65 178.239 270 177.146 270H172.856C170.923 270 169.246 268.903 168.414 267.298C167.582 268.903 165.905 270 163.972 270H151.608C151.029 270 150.472 269.901 149.955 269.72C149.437 269.901 148.881 270 148.301 270H144.011C142.809 270 141.706 269.576 140.843 268.868C139.96 269.592 138.844 270 137.675 270H133.561C132.982 270 132.425 269.901 131.907 269.72C131.389 269.901 130.832 270 130.252 270H125.896C124.784 270 123.757 269.637 122.926 269.023C122.096 269.637 121.069 270 119.956 270H115.6C115.172 270 114.756 269.946 114.36 269.845C113.963 269.946 113.547 270 113.119 270H100.755C100.178 270 99.6242 269.902 99.1088 269.723C98.5933 269.902 98.0395 270 97.4628 270H76.5848C76.2829 270 75.9873 269.973 75.7002 269.922C75.4123 269.973 75.1179 270 74.82 270H70.288C68.3881 270 66.6654 268.925 65.822 267.248C64.9785 268.925 63.2559 270 61.356 270H56.912C56.6159 270 56.3233 269.974 56.0371 269.923C55.7516 269.974 55.4578 270 55.1578 270H50.8678C49.3921 270 48.0657 269.361 47.1505 268.344C47.0024 268.463 46.8484 268.579 46.6882 268.691C45.0628 269.827 43.2257 270.264 41.4298 270.264C40.3527 270.264 39.2895 270.106 38.2718 269.859C35.9054 269.286 34.2964 267.091 34.4613 264.661L34.7033 261.097C34.802 259.643 35.5302 258.305 36.6972 257.432C36.9382 257.252 37.1931 257.095 37.4582 256.963C37.4886 256.558 37.5127 256.092 37.5332 255.553C37.5333 255.552 37.5334 255.55 37.5334 255.548L37.753 249.421ZM50.8678 265H55.1578V249.6H42.7498L42.5298 255.738C42.4332 258.282 42.2305 260.19 41.4298 261.03C41.1813 261.291 40.8752 261.449 40.4967 261.491C40.4325 261.498 40.3663 261.502 40.2978 261.502C40.2938 261.502 40.2898 261.502 40.2858 261.502C40.0878 261.502 39.8898 261.48 39.6918 261.436L39.4498 265C39.739 265.07 40.0176 265.126 40.2858 265.168C40.6911 265.232 41.0724 265.264 41.4298 265.264C41.7422 265.264 42.0349 265.24 42.309 265.194C43.2521 265.035 43.9765 264.605 44.5337 263.935C45.1724 263.166 45.5913 262.08 45.8678 260.72C46.1433 259.365 46.2773 257.739 46.3466 255.883C46.3467 255.88 46.3468 255.878 46.3469 255.875C46.3507 255.771 46.3544 255.667 46.3578 255.562L46.4458 253.054H50.8678V265ZM37.264 258.401C37.2593 258.416 37.2596 258.412 37.2663 258.393C37.2655 258.396 37.2647 258.399 37.264 258.401ZM74.82 265L68 249.6H63.71L56.912 265H61.356L62.566 262.008H69.078L70.288 265H74.82ZM67.802 258.796L65.822 253.868L63.842 258.796H67.802ZM97.4628 265V249.6H93.1728V261.546H89.1908V249.6H84.9008V261.546H80.8748V249.6H76.5848V265H97.4628ZM113.119 265V261.634H105.067V258.818H111.909V255.562H105.067V252.966H112.833V249.6H100.755V265H113.119ZM115.6 265H119.956V258.994H125.896V265H130.252V249.6H125.896V255.386H119.956V249.6H115.6V265ZM144.011 265H148.301V249.6H144.209L137.851 258.642V249.6H133.561V265H137.675L144.011 255.98V265ZM163.972 265V261.634H155.92V258.818H162.762V255.562H155.92V252.966H163.686V249.6H151.608V265H163.972ZM167.762 255.863C167.794 255.818 167.826 255.772 167.856 255.726V258.485C167.825 258.447 167.794 258.41 167.762 258.373V255.863ZM182.998 265H187.31V249.6H172.856V265H177.146V253.054H182.998V265ZM192.31 263.275C193.812 264.555 195.847 265.308 198.17 265.308C203.098 265.308 206.728 261.92 206.728 257.3C206.728 252.68 203.098 249.292 198.17 249.292C195.847 249.292 193.812 250.045 192.31 251.325C190.626 252.76 189.612 254.858 189.612 257.3C189.612 259.742 190.626 261.84 192.31 263.275ZM227.714 265V261.634H219.662V258.818H226.504V255.562H219.662V252.966H227.428V249.6H215.35V265H227.714ZM229.217 257.124V260.336H235.641V257.124H229.217ZM238.231 265H242.257V257.058L246.195 263.482H248.131L252.091 256.838L252.135 265H256.139V264.978L256.095 249.6H252.509L247.229 258.488L241.817 249.6H238.231V265ZM275.281 265L268.461 249.6H264.171L257.373 265H261.817L263.027 262.008H269.539L270.749 265H275.281ZM264.303 258.796L266.283 253.868L268.263 258.796H264.303ZM280.872 265V249.6H276.516V265H280.872ZM295.675 265V261.546H288.327V249.6H283.971V265H295.675ZM198.797 257.008C198.553 256.758 198.278 256.7 198.17 256.7C198.063 256.7 197.787 256.758 197.544 257.008C197.438 257.116 197.377 257.224 197.346 257.3C197.377 257.376 197.438 257.484 197.544 257.592C197.787 257.842 198.063 257.9 198.17 257.9C198.278 257.9 198.553 257.842 198.797 257.592C198.903 257.484 198.964 257.376 198.995 257.3C198.964 257.224 198.903 257.116 198.797 257.008ZM60.7341 231.3C60.7341 233.962 62.5601 235.7 64.8921 235.7C67.2241 235.7 69.0501 233.962 69.0501 231.3C69.0501 228.638 67.2241 226.9 64.8921 226.9C62.5601 226.9 60.7341 228.638 60.7341 231.3ZM194.012 257.3C194.012 259.962 195.838 261.7 198.17 261.7C200.502 261.7 202.328 259.962 202.328 257.3C202.328 254.638 200.502 252.9 198.17 252.9C195.838 252.9 194.012 254.638 194.012 257.3Z" fill="white"/>
<rect x="16" y="289" width="304" height="84" rx="24" fill="white"/>
<rect x="16" y="397" width="125" height="43" rx="13" fill="white"/>
<rect x="195" y="397" width="125" height="43" rx="13" fill="white"/>
<path d="M78.0613 312.14C81.0993 312.14 83.3393 310.012 83.3393 307.1C83.3393 304.188 81.0993 302.06 78.0613 302.06C75.0233 302.06 72.7833 304.202 72.7833 307.1C72.7833 309.998 75.0233 312.14 78.0613 312.14ZM78.0613 310.544C76.0873 310.544 74.6173 309.102 74.6173 307.1C74.6173 305.098 76.0873 303.656 78.0613 303.656C80.0353 303.656 81.5053 305.098 81.5053 307.1C81.5053 309.102 80.0353 310.544 78.0613 310.544ZM90.9408 304.524H83.9408V306.008H86.5728V312H88.3228V306.008H90.9408V304.524ZM92.2102 304.524V312H93.9602V306.008H97.6422V312H99.3782V304.524H92.2102ZM105.883 304.44C104.861 304.44 103.993 304.79 103.405 305.504V304.524H101.739V314.716H103.489V311.09C104.091 311.776 104.931 312.098 105.883 312.098C108.067 312.098 109.677 310.586 109.677 308.262C109.677 305.952 108.067 304.44 105.883 304.44ZM105.687 310.6C104.427 310.6 103.461 309.69 103.461 308.262C103.461 306.834 104.427 305.924 105.687 305.924C106.947 305.924 107.899 306.834 107.899 308.262C107.899 309.69 106.947 310.6 105.687 310.6ZM114.109 304.44C112.905 304.44 111.743 304.748 110.945 305.364L111.631 306.638C112.191 306.176 113.059 305.896 113.899 305.896C115.145 305.896 115.761 306.498 115.761 307.52V307.632H113.829C111.561 307.632 110.721 308.612 110.721 309.858C110.721 311.16 111.799 312.098 113.507 312.098C114.627 312.098 115.439 311.734 115.859 311.09V312H117.511V307.618C117.511 305.462 116.265 304.44 114.109 304.44ZM113.871 310.824C112.975 310.824 112.443 310.418 112.443 309.788C112.443 309.242 112.765 308.794 113.955 308.794H115.761V309.662C115.467 310.432 114.725 310.824 113.871 310.824ZM125.095 308.108C125.809 307.8 126.243 307.226 126.243 306.456C126.243 305.224 125.151 304.524 123.331 304.524H119.677V312H123.485C125.501 312 126.481 311.216 126.481 309.9C126.481 308.99 126.019 308.388 125.095 308.108ZM121.343 305.798H123.177C124.073 305.798 124.535 306.092 124.535 306.708C124.535 307.324 124.073 307.646 123.177 307.646H121.343V305.798ZM123.345 310.726H121.343V308.808H123.401C124.353 308.808 124.787 309.13 124.787 309.788C124.787 310.432 124.283 310.726 123.345 310.726ZM128.345 312H129.955L134.071 307.072V312H135.821V304.524H134.225L130.095 309.452V304.524H128.345V312ZM144.097 304.524H137.097V306.008H139.729V312H141.479V306.008H144.097V304.524ZM149.118 306.988L147.116 306.974V304.524H145.366V312L148.866 312.014C150.91 312.028 152.072 311.09 152.072 309.452C152.072 307.898 151.036 306.988 149.118 306.988ZM148.712 310.726L147.116 310.712V308.178L148.712 308.192C149.748 308.206 150.294 308.57 150.294 309.424C150.294 310.292 149.734 310.74 148.712 310.726ZM157.48 304.524V312H159.23V306.008H162.912V312H164.648V304.524H157.48ZM171.153 304.44C170.131 304.44 169.263 304.79 168.675 305.504V304.524H167.009V314.716H168.759V311.09C169.361 311.776 170.201 312.098 171.153 312.098C173.337 312.098 174.947 310.586 174.947 308.262C174.947 305.952 173.337 304.44 171.153 304.44ZM170.957 310.6C169.697 310.6 168.731 309.69 168.731 308.262C168.731 306.834 169.697 305.924 170.957 305.924C172.217 305.924 173.169 306.834 173.169 308.262C173.169 309.69 172.217 310.6 170.957 310.6ZM176.689 312H178.299L182.415 307.072V312H184.165V304.524H182.569L178.439 309.452V304.524H176.689V312ZM192.259 304.524H186.519V312H188.269V306.008H192.259V304.524ZM193.755 304.524L193.629 307.408C193.545 308.962 193.503 310.558 192.355 310.558C192.257 310.558 192.145 310.544 192.019 310.516L191.935 311.986C192.299 312.084 192.621 312.14 192.901 312.14C194.665 312.14 195.057 310.152 195.183 307.492L195.253 306.008H198.053V312H199.803V304.524H193.755ZM204.945 304.44C203.741 304.44 202.579 304.748 201.781 305.364L202.467 306.638C203.027 306.176 203.895 305.896 204.735 305.896C205.981 305.896 206.597 306.498 206.597 307.52V307.632H204.665C202.397 307.632 201.557 308.612 201.557 309.858C201.557 311.16 202.635 312.098 204.343 312.098C205.463 312.098 206.275 311.734 206.695 311.09V312H208.347V307.618C208.347 305.462 207.101 304.44 204.945 304.44ZM204.707 310.824C203.811 310.824 203.279 310.418 203.279 309.788C203.279 309.242 203.601 308.794 204.791 308.794H206.597V309.662C206.303 310.432 205.561 310.824 204.707 310.824ZM219.781 304.524V310.516H216.911V304.524H215.161V310.516H212.263V304.524H210.513V312H221.531V304.524H219.781ZM230.884 308.304C230.884 305.966 229.288 304.44 227.104 304.44C224.878 304.44 223.24 306.036 223.24 308.262C223.24 310.488 224.864 312.098 227.37 312.098C228.658 312.098 229.708 311.678 230.38 310.88L229.442 309.802C228.91 310.348 228.252 310.614 227.412 310.614C226.11 310.614 225.2 309.914 224.99 308.822H230.856C230.87 308.654 230.884 308.444 230.884 308.304ZM227.104 305.84C228.252 305.84 229.078 306.582 229.218 307.66H224.976C225.144 306.568 225.97 305.84 227.104 305.84ZM232.798 312H234.548V309.046H238.314V312H240.064V304.524H238.314V307.562H234.548V304.524H232.798V312ZM242.409 312H244.019L248.135 307.072V312H249.885V304.524H248.289L244.159 309.452V304.524H242.409V312ZM259.239 308.304C259.239 305.966 257.643 304.44 255.459 304.44C253.233 304.44 251.595 306.036 251.595 308.262C251.595 310.488 253.219 312.098 255.725 312.098C257.013 312.098 258.063 311.678 258.735 310.88L257.797 309.802C257.265 310.348 256.607 310.614 255.767 310.614C254.465 310.614 253.555 309.914 253.345 308.822H259.211C259.225 308.654 259.239 308.444 259.239 308.304ZM255.459 305.84C256.607 305.84 257.433 306.582 257.573 307.66H253.331C253.499 306.568 254.325 305.84 255.459 305.84ZM51.1262 328H52.8762V325.046H56.6422V328H58.3922V320.524H56.6422V323.562H52.8762V320.524H51.1262V328ZM63.5235 320.44C62.3195 320.44 61.1575 320.748 60.3595 321.364L61.0455 322.638C61.6055 322.176 62.4735 321.896 63.3135 321.896C64.5595 321.896 65.1755 322.498 65.1755 323.52V323.632H63.2435C60.9755 323.632 60.1355 324.612 60.1355 325.858C60.1355 327.16 61.2135 328.098 62.9215 328.098C64.0415 328.098 64.8535 327.734 65.2735 327.09V328H66.9255V323.618C66.9255 321.462 65.6795 320.44 63.5235 320.44ZM63.2855 326.824C62.3895 326.824 61.8575 326.418 61.8575 325.788C61.8575 325.242 62.1795 324.794 63.3695 324.794H65.1755V325.662C64.8815 326.432 64.1395 326.824 63.2855 326.824ZM77.1042 320.44C76.0822 320.44 75.2142 320.79 74.6262 321.504V320.524H72.9602V330.716H74.7102V327.09C75.3122 327.776 76.1522 328.098 77.1042 328.098C79.2882 328.098 80.8982 326.586 80.8982 324.262C80.8982 321.952 79.2882 320.44 77.1042 320.44ZM76.9082 326.6C75.6482 326.6 74.6822 325.69 74.6822 324.262C74.6822 322.834 75.6482 321.924 76.9082 321.924C78.1682 321.924 79.1202 322.834 79.1202 324.262C79.1202 325.69 78.1682 326.6 76.9082 326.6ZM89.6399 324.304C89.6399 321.966 88.0439 320.44 85.8599 320.44C83.6339 320.44 81.9959 322.036 81.9959 324.262C81.9959 326.488 83.6199 328.098 86.1259 328.098C87.4139 328.098 88.4639 327.678 89.1359 326.88L88.1979 325.802C87.6659 326.348 87.0079 326.614 86.1679 326.614C84.8659 326.614 83.9559 325.914 83.7459 324.822H89.6119C89.6259 324.654 89.6399 324.444 89.6399 324.304ZM85.8599 321.84C87.0079 321.84 87.8339 322.582 87.9739 323.66H83.7319C83.8999 322.568 84.7259 321.84 85.8599 321.84ZM98.3322 326.516V320.524H92.1722L92.0742 323.086C91.9902 324.836 91.8082 326.474 90.7582 326.516H90.4082V329.666H92.0322V328H97.8002V329.666H99.4382V326.516H98.3322ZM93.6702 323.212L93.7122 322.008H96.5822V326.516H92.9002C93.5022 325.942 93.6142 324.612 93.6702 323.212ZM103.787 320.44C102.583 320.44 101.421 320.748 100.623 321.364L101.309 322.638C101.869 322.176 102.737 321.896 103.577 321.896C104.823 321.896 105.439 322.498 105.439 323.52V323.632H103.507C101.239 323.632 100.399 324.612 100.399 325.858C100.399 327.16 101.477 328.098 103.185 328.098C104.305 328.098 105.117 327.734 105.537 327.09V328H107.189V323.618C107.189 321.462 105.943 320.44 103.787 320.44ZM103.549 326.824C102.653 326.824 102.121 326.418 102.121 325.788C102.121 325.242 102.443 324.794 103.633 324.794H105.439V325.662C105.145 326.432 104.403 326.824 103.549 326.824ZM114.717 328H116.775L113.877 324.122L116.593 320.524H114.717L112.505 323.548H111.105V320.524H109.355V328H111.105V325.004H112.463L114.717 328ZM123.835 320.524H116.835V322.008H119.467V328H121.217V322.008H123.835V320.524ZM125.105 328H126.715L130.831 323.072V328H132.581V320.524H130.985L126.855 325.452V320.524H125.105V328ZM139.079 320.44C138.057 320.44 137.189 320.79 136.601 321.504V320.524H134.935V330.716H136.685V327.09C137.287 327.776 138.127 328.098 139.079 328.098C141.263 328.098 142.873 326.586 142.873 324.262C142.873 321.952 141.263 320.44 139.079 320.44ZM138.883 326.6C137.623 326.6 136.657 325.69 136.657 324.262C136.657 322.834 137.623 321.924 138.883 321.924C140.143 321.924 141.095 322.834 141.095 324.262C141.095 325.69 140.143 326.6 138.883 326.6ZM147.946 328.098C150.27 328.098 151.936 326.502 151.936 324.262C151.936 322.022 150.27 320.44 147.946 320.44C145.65 320.44 143.97 322.022 143.97 324.262C143.97 326.502 145.65 328.098 147.946 328.098ZM147.946 326.6C146.686 326.6 145.734 325.69 145.734 324.262C145.734 322.834 146.686 321.924 147.946 321.924C149.22 321.924 150.172 322.834 150.172 324.262C150.172 325.69 149.22 326.6 147.946 326.6ZM159.083 324.108C159.797 323.8 160.231 323.226 160.231 322.456C160.231 321.224 159.139 320.524 157.319 320.524H153.665V328H157.473C159.489 328 160.469 327.216 160.469 325.9C160.469 324.99 160.007 324.388 159.083 324.108ZM155.331 321.798H157.165C158.061 321.798 158.523 322.092 158.523 322.708C158.523 323.324 158.061 323.646 157.165 323.646H155.331V321.798ZM157.333 326.726H155.331V324.808H157.389C158.341 324.808 158.775 325.13 158.775 325.788C158.775 326.432 158.271 326.726 157.333 326.726ZM165.119 320.44C163.915 320.44 162.753 320.748 161.955 321.364L162.641 322.638C163.201 322.176 164.069 321.896 164.909 321.896C166.155 321.896 166.771 322.498 166.771 323.52V323.632H164.839C162.571 323.632 161.731 324.612 161.731 325.858C161.731 327.16 162.809 328.098 164.517 328.098C165.637 328.098 166.449 327.734 166.869 327.09V328H168.521V323.618C168.521 321.462 167.275 320.44 165.119 320.44ZM164.881 326.824C163.985 326.824 163.453 326.418 163.453 325.788C163.453 325.242 163.775 324.794 164.965 324.794H166.771V325.662C166.477 326.432 165.735 326.824 164.881 326.824ZM170.687 328H172.437V325.046H176.203V328H177.953V320.524H176.203V323.562H172.437V320.524H170.687V328ZM180.298 328H181.908L186.024 323.072V328H187.774V320.524H186.178L182.048 325.452V320.524H180.298V328ZM197.128 324.304C197.128 321.966 195.532 320.44 193.348 320.44C191.122 320.44 189.484 322.036 189.484 324.262C189.484 326.488 191.108 328.098 193.614 328.098C194.902 328.098 195.952 327.678 196.624 326.88L195.686 325.802C195.154 326.348 194.496 326.614 193.656 326.614C192.354 326.614 191.444 325.914 191.234 324.822H197.1C197.114 324.654 197.128 324.444 197.128 324.304ZM193.348 321.84C194.496 321.84 195.322 322.582 195.462 323.66H191.22C191.388 322.568 192.214 321.84 193.348 321.84ZM209.785 326.516V320.524H203.625L203.527 323.086C203.443 324.836 203.261 326.474 202.211 326.516H201.861V329.666H203.485V328H209.253V329.666H210.891V326.516H209.785ZM205.123 323.212L205.165 322.008H208.035V326.516H204.353C204.955 325.942 205.067 324.612 205.123 323.212ZM215.786 328.098C218.11 328.098 219.776 326.502 219.776 324.262C219.776 322.022 218.11 320.44 215.786 320.44C213.49 320.44 211.81 322.022 211.81 324.262C211.81 326.502 213.49 328.098 215.786 328.098ZM215.786 326.6C214.526 326.6 213.574 325.69 213.574 324.262C213.574 322.834 214.526 321.924 215.786 321.924C217.06 321.924 218.012 322.834 218.012 324.262C218.012 325.69 217.06 326.6 215.786 326.6ZM226.867 328H228.925L226.027 324.122L228.743 320.524H226.867L224.655 323.548H223.255V320.524H221.505V328H223.255V325.004H224.613L226.867 328ZM235.112 320.524L232.746 326.054L230.394 320.524H228.574L231.836 328.028L231.71 328.322C231.374 329.064 231.01 329.358 230.394 329.358C229.918 329.358 229.442 329.162 229.106 328.84L228.406 330.128C228.882 330.562 229.666 330.814 230.408 330.814C231.654 330.814 232.606 330.296 233.292 328.602L236.792 320.524H235.112ZM246.939 328L246.925 320.524H245.287L242.501 325.2L239.841 320.524H238.007V328H239.603V323.03L242.081 327.216H242.837L245.357 323.044V328H246.939ZM256.286 324.304C256.286 321.966 254.69 320.44 252.506 320.44C250.28 320.44 248.642 322.036 248.642 324.262C248.642 326.488 250.266 328.098 252.772 328.098C254.06 328.098 255.11 327.678 255.782 326.88L254.844 325.802C254.312 326.348 253.654 326.614 252.814 326.614C251.512 326.614 250.602 325.914 250.392 324.822H256.258C256.272 324.654 256.286 324.444 256.286 324.304ZM252.506 321.84C253.654 321.84 254.48 322.582 254.62 323.66H250.378C250.546 322.568 251.372 321.84 252.506 321.84ZM258.2 328H259.95V325.046H263.716V328H265.466V320.524H263.716V323.562H259.95V320.524H258.2V328ZM273.734 320.524H266.734V322.008H269.366V328H271.116V322.008H273.734V320.524ZM277.789 320.44C276.585 320.44 275.423 320.748 274.625 321.364L275.311 322.638C275.871 322.176 276.739 321.896 277.579 321.896C278.825 321.896 279.441 322.498 279.441 323.52V323.632H277.509C275.241 323.632 274.401 324.612 274.401 325.858C274.401 327.16 275.479 328.098 277.187 328.098C278.307 328.098 279.119 327.734 279.539 327.09V328H281.191V323.618C281.191 321.462 279.945 320.44 277.789 320.44ZM277.551 326.824C276.655 326.824 276.123 326.418 276.123 325.788C276.123 325.242 276.445 324.794 277.635 324.794H279.441V325.662C279.147 326.432 278.405 326.824 277.551 326.824ZM36.5246 336.524V344H38.2746V338.008H41.9566V344H43.6926V336.524H36.5246ZM49.3859 344.098C51.7099 344.098 53.3759 342.502 53.3759 340.262C53.3759 338.022 51.7099 336.44 49.3859 336.44C47.0899 336.44 45.4099 338.022 45.4099 340.262C45.4099 342.502 47.0899 344.098 49.3859 344.098ZM49.3859 342.6C48.1259 342.6 47.1739 341.69 47.1739 340.262C47.1739 338.834 48.1259 337.924 49.3859 337.924C50.6599 337.924 51.6119 338.834 51.6119 340.262C51.6119 341.69 50.6599 342.6 49.3859 342.6ZM61.2979 336.412C59.9399 336.412 58.8059 336.86 58.0499 337.714L59.0579 338.694C59.6459 338.092 60.3739 337.798 61.2279 337.798C62.4879 337.798 63.4399 338.498 63.7199 339.59H60.2759V340.85H63.7339C63.4819 341.97 62.5159 342.726 61.2279 342.726C60.3739 342.726 59.6459 342.432 59.0579 341.844L58.0499 342.824C58.8059 343.664 59.9399 344.126 61.2979 344.126C63.6779 344.126 65.4139 342.502 65.4139 340.262C65.4139 338.022 63.6779 336.412 61.2979 336.412ZM67.7546 336.524L67.6286 339.408C67.5446 340.962 67.5026 342.558 66.3546 342.558C66.2566 342.558 66.1446 342.544 66.0186 342.516L65.9346 343.986C66.2986 344.084 66.6206 344.14 66.9006 344.14C68.6646 344.14 69.0566 342.152 69.1826 339.492L69.2526 338.008H72.0526V344H73.8026V336.524H67.7546ZM83.1594 340.304C83.1594 337.966 81.5634 336.44 79.3794 336.44C77.1534 336.44 75.5154 338.036 75.5154 340.262C75.5154 342.488 77.1394 344.098 79.6454 344.098C80.9334 344.098 81.9834 343.678 82.6554 342.88L81.7174 341.802C81.1854 342.348 80.5274 342.614 79.6874 342.614C78.3854 342.614 77.4754 341.914 77.2654 340.822H83.1314C83.1454 340.654 83.1594 340.444 83.1594 340.304ZM79.3794 337.84C80.5274 337.84 81.3534 338.582 81.4934 339.66H77.2514C77.4194 338.568 78.2454 337.84 79.3794 337.84ZM90.4355 344H92.4935L89.5955 340.122L92.3115 336.524H90.4355L88.2235 339.548H86.8235V336.524H85.0735V344H86.8235V341.004H88.1815L90.4355 344ZM99.5541 336.524H92.5541V338.008H95.1861V344H96.9361V338.008H99.5541V336.524ZM104.967 336.44C103.945 336.44 103.077 336.79 102.489 337.504V336.524H100.823V346.716H102.573V343.09C103.175 343.776 104.015 344.098 104.967 344.098C107.151 344.098 108.761 342.586 108.761 340.262C108.761 337.952 107.151 336.44 104.967 336.44ZM104.771 342.6C103.511 342.6 102.545 341.69 102.545 340.262C102.545 338.834 103.511 337.924 104.771 337.924C106.031 337.924 106.983 338.834 106.983 340.262C106.983 341.69 106.031 342.6 104.771 342.6ZM113.835 344.098C116.159 344.098 117.825 342.502 117.825 340.262C117.825 338.022 116.159 336.44 113.835 336.44C111.539 336.44 109.859 338.022 109.859 340.262C109.859 342.502 111.539 344.098 113.835 344.098ZM113.835 342.6C112.575 342.6 111.623 341.69 111.623 340.262C111.623 338.834 112.575 337.924 113.835 337.924C115.109 337.924 116.061 338.834 116.061 340.262C116.061 341.69 115.109 342.6 113.835 342.6ZM119.554 344H121.304V341.046H125.07V344H126.82V336.524H125.07V339.562H121.304V336.524H119.554V344ZM129.165 344H130.915V341.046H134.681V344H136.431V336.524H134.681V339.562H130.915V336.524H129.165V344ZM142.109 344.098C144.433 344.098 146.099 342.502 146.099 340.262C146.099 338.022 144.433 336.44 142.109 336.44C139.813 336.44 138.133 338.022 138.133 340.262C138.133 342.502 139.813 344.098 142.109 344.098ZM142.109 342.6C140.849 342.6 139.897 341.69 139.897 340.262C139.897 338.834 140.849 337.924 142.109 337.924C143.383 337.924 144.335 338.834 144.335 340.262C144.335 341.69 143.383 342.6 142.109 342.6ZM151.453 335.642C152.951 335.642 153.777 334.942 153.805 333.584H152.615C152.601 334.256 152.153 334.676 151.439 334.676C150.711 334.676 150.291 334.256 150.277 333.584H149.115C149.129 334.942 149.955 335.642 151.453 335.642ZM147.827 344H149.437L153.553 339.072V344H155.303V336.524H153.707L149.577 341.452V336.524H147.827V344ZM161.527 336.524V344H163.277V338.008H166.959V344H168.695V336.524H161.527ZM174.388 344.098C176.712 344.098 178.378 342.502 178.378 340.262C178.378 338.022 176.712 336.44 174.388 336.44C172.092 336.44 170.412 338.022 170.412 340.262C170.412 342.502 172.092 344.098 174.388 344.098ZM174.388 342.6C173.128 342.6 172.176 341.69 172.176 340.262C172.176 338.834 173.128 337.924 174.388 337.924C175.662 337.924 176.614 338.834 176.614 340.262C176.614 341.69 175.662 342.6 174.388 342.6ZM184.699 336.524V339.8C184.097 340.08 183.439 340.22 182.823 340.22C181.815 340.22 181.213 339.786 181.213 338.806V336.524H179.463V338.918C179.463 340.78 180.555 341.62 182.445 341.62C183.271 341.62 184.027 341.424 184.699 341.102V344H186.449V336.524H184.699ZM194.724 336.524H187.724V338.008H190.356V344H192.106V338.008H194.724V336.524ZM202.665 340.304C202.665 337.966 201.069 336.44 198.885 336.44C196.659 336.44 195.021 338.036 195.021 340.262C195.021 342.488 196.645 344.098 199.151 344.098C200.439 344.098 201.489 343.678 202.161 342.88L201.223 341.802C200.691 342.348 200.033 342.614 199.193 342.614C197.891 342.614 196.981 341.914 196.771 340.822H202.637C202.651 340.654 202.665 340.444 202.665 340.304ZM198.885 337.84C200.033 337.84 200.859 338.582 200.999 339.66H196.757C196.925 338.568 197.751 337.84 198.885 337.84ZM205.111 344.098C205.741 344.098 206.259 343.608 206.259 342.936C206.259 342.236 205.741 341.774 205.111 341.774C204.481 341.774 203.963 342.236 203.963 342.936C203.963 343.608 204.481 344.098 205.111 344.098ZM220.364 342.46V334.2H213.182L213.07 337.308C212.972 340.178 212.65 342.404 211.32 342.46H210.9L210.886 346.086H212.58V344H220.098V346.086H221.778V342.46H220.364ZM214.666 337.476L214.736 335.74H218.572V342.46H213.602C214.358 341.676 214.582 339.702 214.666 337.476ZM224.024 336.524L223.898 339.408C223.814 340.962 223.772 342.558 222.624 342.558C222.526 342.558 222.414 342.544 222.288 342.516L222.204 343.986C222.568 344.084 222.89 344.14 223.17 344.14C224.934 344.14 225.326 342.152 225.452 339.492L225.522 338.008H228.322V344H230.072V336.524H224.024ZM235.313 336.524C233.227 336.524 231.897 337.462 231.897 339.212C231.897 340.36 232.499 341.144 233.563 341.508L231.799 344H233.675L235.201 341.746H237.175V344H238.743V336.524H235.313ZM235.369 337.994H237.175V340.528H235.313C234.235 340.528 233.675 340.136 233.675 339.268C233.675 338.372 234.291 337.994 235.369 337.994ZM251.798 342.04C251.168 342.404 250.482 342.544 249.782 342.544C247.71 342.544 246.24 341.088 246.24 339.1C246.24 337.07 247.71 335.656 249.796 335.656C250.846 335.656 251.728 336.006 252.498 336.776L253.646 335.656C252.722 334.606 251.35 334.06 249.712 334.06C246.646 334.06 244.406 336.174 244.406 339.1C244.406 342.026 246.646 344.14 249.684 344.14C251.07 344.14 252.498 343.72 253.52 342.894V338.988H251.798V342.04ZM259.112 344.098C261.436 344.098 263.102 342.502 263.102 340.262C263.102 338.022 261.436 336.44 259.112 336.44C256.816 336.44 255.136 338.022 255.136 340.262C255.136 342.502 256.816 344.098 259.112 344.098ZM259.112 342.6C257.852 342.6 256.9 341.69 256.9 340.262C256.9 338.834 257.852 337.924 259.112 337.924C260.386 337.924 261.338 338.834 261.338 340.262C261.338 341.69 260.386 342.6 259.112 342.6ZM268.136 344.098C270.46 344.098 272.126 342.502 272.126 340.262C272.126 338.022 270.46 336.44 268.136 336.44C265.84 336.44 264.16 338.022 264.16 340.262C264.16 342.502 265.84 344.098 268.136 344.098ZM268.136 342.6C266.876 342.6 265.924 341.69 265.924 340.262C265.924 338.834 266.876 337.924 268.136 337.924C269.41 337.924 270.362 338.834 270.362 340.262C270.362 341.69 269.41 342.6 268.136 342.6ZM279.553 336.524V337.518C278.937 336.776 278.013 336.44 276.963 336.44C274.821 336.44 273.183 337.868 273.183 340.038C273.183 342.208 274.821 343.664 276.963 343.664C277.971 343.664 278.853 343.342 279.469 342.67V343.062C279.469 344.574 278.741 345.33 277.089 345.33C276.053 345.33 274.989 344.98 274.331 344.434L273.547 345.75C274.401 346.45 275.787 346.814 277.187 346.814C279.805 346.814 281.219 345.582 281.219 342.866V336.524H279.553ZM277.229 342.18C275.899 342.18 274.947 341.312 274.947 340.038C274.947 338.778 275.899 337.924 277.229 337.924C278.545 337.924 279.497 338.778 279.497 340.038C279.497 341.312 278.545 342.18 277.229 342.18ZM283.52 344H285.27V333.612H283.52V344ZM294.595 340.304C294.595 337.966 292.999 336.44 290.815 336.44C288.589 336.44 286.951 338.036 286.951 340.262C286.951 342.488 288.575 344.098 291.081 344.098C292.369 344.098 293.419 343.678 294.091 342.88L293.153 341.802C292.621 342.348 291.963 342.614 291.123 342.614C289.821 342.614 288.911 341.914 288.701 340.822H294.567C294.581 340.654 294.595 340.444 294.595 340.304ZM290.815 337.84C291.963 337.84 292.789 338.582 292.929 339.66H288.687C288.855 338.568 289.681 337.84 290.815 337.84ZM296.035 340.836H299.885V339.38H296.035V340.836ZM69.1184 352.524V360H70.8684V354.008H74.5504V360H76.2864V352.524H69.1184ZM82.7917 352.44C81.7697 352.44 80.9017 352.79 80.3137 353.504V352.524H78.6477V362.716H80.3977V359.09C80.9997 359.776 81.8397 360.098 82.7917 360.098C84.9757 360.098 86.5857 358.586 86.5857 356.262C86.5857 353.952 84.9757 352.44 82.7917 352.44ZM82.5957 358.6C81.3357 358.6 80.3697 357.69 80.3697 356.262C80.3697 354.834 81.3357 353.924 82.5957 353.924C83.8557 353.924 84.8077 354.834 84.8077 356.262C84.8077 357.69 83.8557 358.6 82.5957 358.6ZM91.6594 360.098C93.9834 360.098 95.6494 358.502 95.6494 356.262C95.6494 354.022 93.9834 352.44 91.6594 352.44C89.3634 352.44 87.6834 354.022 87.6834 356.262C87.6834 358.502 89.3634 360.098 91.6594 360.098ZM91.6594 358.6C90.3994 358.6 89.4474 357.69 89.4474 356.262C89.4474 354.834 90.3994 353.924 91.6594 353.924C92.9334 353.924 93.8854 354.834 93.8854 356.262C93.8854 357.69 92.9334 358.6 91.6594 358.6ZM100.78 360.098C102.236 360.098 103.398 359.468 103.972 358.348L102.628 357.564C102.18 358.278 101.508 358.6 100.766 358.6C99.4781 358.6 98.4981 357.718 98.4981 356.262C98.4981 354.82 99.4781 353.924 100.766 353.924C101.508 353.924 102.18 354.246 102.628 354.96L103.972 354.176C103.398 353.042 102.236 352.44 100.78 352.44C98.4141 352.44 96.7341 354.022 96.7341 356.262C96.7341 358.502 98.4141 360.098 100.78 360.098ZM111.367 352.524H104.367V354.008H106.999V360H108.749V354.008H111.367V352.524ZM116.78 352.44C115.758 352.44 114.89 352.79 114.302 353.504V352.524H112.636V362.716H114.386V359.09C114.988 359.776 115.828 360.098 116.78 360.098C118.964 360.098 120.574 358.586 120.574 356.262C120.574 353.952 118.964 352.44 116.78 352.44ZM116.584 358.6C115.324 358.6 114.358 357.69 114.358 356.262C114.358 354.834 115.324 353.924 116.584 353.924C117.844 353.924 118.796 354.834 118.796 356.262C118.796 357.69 117.844 358.6 116.584 358.6ZM125.006 352.44C123.802 352.44 122.64 352.748 121.842 353.364L122.528 354.638C123.088 354.176 123.956 353.896 124.796 353.896C126.042 353.896 126.658 354.498 126.658 355.52V355.632H124.726C122.458 355.632 121.618 356.612 121.618 357.858C121.618 359.16 122.696 360.098 124.404 360.098C125.524 360.098 126.336 359.734 126.756 359.09V360H128.408V355.618C128.408 353.462 127.162 352.44 125.006 352.44ZM124.768 358.824C123.872 358.824 123.34 358.418 123.34 357.788C123.34 357.242 123.662 356.794 124.852 356.794H126.658V357.662C126.364 358.432 125.622 358.824 124.768 358.824ZM130.573 360H132.323V357.046H136.089V360H137.839V352.524H136.089V355.562H132.323V352.524H130.573V360ZM143.587 360.098C145.043 360.098 146.205 359.468 146.779 358.348L145.435 357.564C144.987 358.278 144.315 358.6 143.573 358.6C142.285 358.6 141.305 357.718 141.305 356.262C141.305 354.82 142.285 353.924 143.573 353.924C144.315 353.924 144.987 354.246 145.435 354.96L146.779 354.176C146.205 353.042 145.043 352.44 143.587 352.44C141.221 352.44 139.541 354.022 139.541 356.262C139.541 358.502 141.221 360.098 143.587 360.098ZM154.173 352.524H147.173V354.008H149.805V360H151.555V354.008H154.173V352.524ZM160.861 356.108C161.575 355.8 162.009 355.226 162.009 354.456C162.009 353.224 160.917 352.524 159.097 352.524H155.443V360H159.251C161.267 360 162.247 359.216 162.247 357.9C162.247 356.99 161.785 356.388 160.861 356.108ZM157.109 353.798H158.943C159.839 353.798 160.301 354.092 160.301 354.708C160.301 355.324 159.839 355.646 158.943 355.646H157.109V353.798ZM159.111 358.726H157.109V356.808H159.167C160.119 356.808 160.553 357.13 160.553 357.788C160.553 358.432 160.049 358.726 159.111 358.726ZM166.897 352.44C165.693 352.44 164.531 352.748 163.733 353.364L164.419 354.638C164.979 354.176 165.847 353.896 166.687 353.896C167.933 353.896 168.549 354.498 168.549 355.52V355.632H166.617C164.349 355.632 163.509 356.612 163.509 357.858C163.509 359.16 164.587 360.098 166.295 360.098C167.415 360.098 168.227 359.734 168.647 359.09V360H170.299V355.618C170.299 353.462 169.053 352.44 166.897 352.44ZM166.659 358.824C165.763 358.824 165.231 358.418 165.231 357.788C165.231 357.242 165.553 356.794 166.743 356.794H168.549V357.662C168.255 358.432 167.513 358.824 166.659 358.824ZM183.207 358.516V352.524H177.047L176.949 355.086C176.865 356.836 176.683 358.474 175.633 358.516H175.283V361.666H176.907V360H182.675V361.666H184.313V358.516H183.207ZM178.545 355.212L178.587 354.008H181.457V358.516H177.775C178.377 357.942 178.489 356.612 178.545 355.212ZM189.208 360.098C191.532 360.098 193.198 358.502 193.198 356.262C193.198 354.022 191.532 352.44 189.208 352.44C186.912 352.44 185.232 354.022 185.232 356.262C185.232 358.502 186.912 360.098 189.208 360.098ZM189.208 358.6C187.948 358.6 186.996 357.69 186.996 356.262C186.996 354.834 187.948 353.924 189.208 353.924C190.482 353.924 191.434 354.834 191.434 356.262C191.434 357.69 190.482 358.6 189.208 358.6ZM200.289 360H202.347L199.449 356.122L202.165 352.524H200.289L198.077 355.548H196.677V352.524H194.927V360H196.677V357.004H198.035L200.289 360ZM208.533 352.524L206.167 358.054L203.815 352.524H201.995L205.257 360.028L205.131 360.322C204.795 361.064 204.431 361.358 203.815 361.358C203.339 361.358 202.863 361.162 202.527 360.84L201.827 362.128C202.303 362.562 203.087 362.814 203.829 362.814C205.075 362.814 206.027 362.296 206.713 360.602L210.213 352.524H208.533ZM220.361 360L220.347 352.524H218.709L215.923 357.2L213.263 352.524H211.429V360H213.025V355.03L215.503 359.216H216.259L218.779 355.044V360H220.361ZM229.708 356.304C229.708 353.966 228.112 352.44 225.928 352.44C223.702 352.44 222.064 354.036 222.064 356.262C222.064 358.488 223.688 360.098 226.194 360.098C227.482 360.098 228.532 359.678 229.204 358.88L228.266 357.802C227.734 358.348 227.076 358.614 226.236 358.614C224.934 358.614 224.024 357.914 223.814 356.822H229.68C229.694 356.654 229.708 356.444 229.708 356.304ZM225.928 353.84C227.076 353.84 227.902 354.582 228.042 355.66H223.8C223.968 354.568 224.794 353.84 225.928 353.84ZM231.622 360H233.372V357.046H237.138V360H238.888V352.524H237.138V355.562H233.372V352.524H231.622V360ZM247.156 352.524H240.156V354.008H242.788V360H244.538V354.008H247.156V352.524ZM251.429 360.098C253.753 360.098 255.419 358.502 255.419 356.262C255.419 354.022 253.753 352.44 251.429 352.44C249.133 352.44 247.453 354.022 247.453 356.262C247.453 358.502 249.133 360.098 251.429 360.098ZM251.429 358.6C250.169 358.6 249.217 357.69 249.217 356.262C249.217 354.834 250.169 353.924 251.429 353.924C252.703 353.924 253.655 354.834 253.655 356.262C253.655 357.69 252.703 358.6 251.429 358.6ZM262.566 356.108C263.28 355.8 263.714 355.226 263.714 354.456C263.714 353.224 262.622 352.524 260.802 352.524H257.148V360H260.956C262.972 360 263.952 359.216 263.952 357.9C263.952 356.99 263.49 356.388 262.566 356.108ZM258.814 353.798H260.648C261.544 353.798 262.006 354.092 262.006 354.708C262.006 355.324 261.544 355.646 260.648 355.646H258.814V353.798ZM260.816 358.726H258.814V356.808H260.872C261.824 356.808 262.258 357.13 262.258 357.788C262.258 358.432 261.754 358.726 260.816 358.726ZM266.348 360.098C266.978 360.098 267.496 359.608 267.496 358.936C267.496 358.236 266.978 357.774 266.348 357.774C265.718 357.774 265.2 358.236 265.2 358.936C265.2 359.608 265.718 360.098 266.348 360.098Z" fill="black"/>
<path d="M252 5C252 26.7477 243.361 47.6048 227.983 62.9828C212.605 78.3607 191.748 87 170 87C148.252 87 127.395 78.3607 112.017 62.9828C96.6393 47.6048 88 26.7478 88 5.00002L170 5H252Z" fill="white"/>
<path d="M48.032 423.216C48.032 414.96 35.328 417.52 35.328 414.096C35.328 412.976 36.288 412.08 38.944 412.08C40.896 412.08 43.008 412.656 45.152 413.808L47.104 409.104C45.312 408.048 42.976 407.408 40.608 407.216V403.76H36.768V407.28C31.584 407.92 29.056 410.896 29.056 414.416C29.056 422.736 41.792 420.144 41.792 423.696C41.792 424.784 40.768 425.52 38.144 425.52C35.552 425.52 32.736 424.624 30.752 423.312L28.672 427.984C30.528 429.264 33.568 430.192 36.768 430.416V433.84H40.608V430.288C45.6 429.552 48.032 426.608 48.032 423.216Z" fill="#00BCBC"/>
<path d="M61.22 423.36L64.44 420.32C66.4 418.5 66.78 417.26 66.78 415.9C66.78 413.36 64.7 411.76 61.58 411.76C59.06 411.76 57.1 412.78 56.02 414.36L58.38 415.88C59.06 414.94 60.08 414.48 61.28 414.48C62.76 414.48 63.52 415.12 63.52 416.22C63.52 416.9 63.3 417.62 62.06 418.8L56.66 423.9V426H67.24V423.36H61.22ZM73.3769 417.26H72.2369L72.4569 414.6H78.2969V412H69.7569L69.0369 419.88H72.6169C75.1569 419.88 75.8769 420.6 75.8769 421.7C75.8769 422.84 74.8769 423.52 73.2569 423.52C71.7969 423.52 70.3369 423.06 69.2769 422.26L67.9969 424.74C69.3569 425.7 71.3969 426.24 73.3369 426.24C77.3369 426.24 79.1569 424.08 79.1569 421.6C79.1569 419.12 77.5169 417.26 73.3769 417.26ZM92.1355 426.24C95.5955 426.24 98.1355 423.62 98.1355 419C98.1355 414.38 95.5955 411.76 92.1355 411.76C88.6955 411.76 86.1355 414.38 86.1355 419C86.1355 423.62 88.6955 426.24 92.1355 426.24ZM92.1355 423.5C90.5355 423.5 89.4155 422.18 89.4155 419C89.4155 415.82 90.5355 414.5 92.1355 414.5C93.7555 414.5 94.8755 415.82 94.8755 419C94.8755 422.18 93.7555 423.5 92.1355 423.5ZM105.71 426.24C109.17 426.24 111.71 423.62 111.71 419C111.71 414.38 109.17 411.76 105.71 411.76C102.27 411.76 99.7097 414.38 99.7097 419C99.7097 423.62 102.27 426.24 105.71 426.24ZM105.71 423.5C104.11 423.5 102.99 422.18 102.99 419C102.99 415.82 104.11 414.5 105.71 414.5C107.33 414.5 108.45 415.82 108.45 419C108.45 422.18 107.33 423.5 105.71 423.5ZM119.284 426.24C122.744 426.24 125.284 423.62 125.284 419C125.284 414.38 122.744 411.76 119.284 411.76C115.844 411.76 113.284 414.38 113.284 419C113.284 423.62 115.844 426.24 119.284 426.24ZM119.284 423.5C117.684 423.5 116.564 422.18 116.564 419C116.564 415.82 117.684 414.5 119.284 414.5C120.904 414.5 122.024 415.82 122.024 419C122.024 422.18 120.904 423.5 119.284 423.5Z" fill="black"/>
<path d="M240.22 423.36L243.44 420.32C245.4 418.5 245.78 417.26 245.78 415.9C245.78 413.36 243.7 411.76 240.58 411.76C238.06 411.76 236.1 412.78 235.02 414.36L237.38 415.88C238.06 414.94 239.08 414.48 240.28 414.48C241.76 414.48 242.52 415.12 242.52 416.22C242.52 416.9 242.3 417.62 241.06 418.8L235.66 423.9V426H246.24V423.36H240.22ZM253.538 426.24C256.998 426.24 259.538 423.62 259.538 419C259.538 414.38 256.998 411.76 253.538 411.76C250.098 411.76 247.538 414.38 247.538 419C247.538 423.62 250.098 426.24 253.538 426.24ZM253.538 423.5C251.938 423.5 250.818 422.18 250.818 419C250.818 415.82 251.938 414.5 253.538 414.5C255.158 414.5 256.278 415.82 256.278 419C256.278 422.18 255.158 423.5 253.538 423.5ZM280.816 426L280.776 415.24H277.856L274.196 421.46L270.756 415.24H267.496V426H270.316V419.54L273.456 424.96H274.776L277.996 419.56V426H280.816ZM283.805 426H286.685L291.905 419.6V426H295.005V415.24H292.145L286.905 421.64V415.24H283.805V426ZM298.004 426H301.104V421.98H305.784V426H308.904V415.24H305.784V419.44H301.104V415.24H298.004V426Z" fill="black"/>
<path d="M216.5 406C209.595 406 204 411.595 204 418.5C204 425.405 209.595 431 216.5 431C223.405 431 229 425.405 229 418.5C229 411.595 223.405 406 216.5 406Z" fill="#00BCBC"/>
<path fill-rule="evenodd" clip-rule="evenodd" d="M215.961 410C214.878 410 214 410.878 214 411.961V419.153C214 419.311 214.019 419.464 214.054 419.611C214.047 420.263 214.376 420.901 214.974 421.262L220.414 424.535C221.313 425.077 222.481 424.786 223.022 423.887C223.563 422.988 223.273 421.82 222.374 421.279L217.923 418.6V411.961C217.923 410.878 217.045 410 215.961 410Z" fill="white"/>
<g filter="url(#filter0_d)">
<path d="M162.531 400.393L185.975 433.213C179.766 434.57 168.698 428.331 168.698 428.331C168.698 428.331 160.834 438.706 154.912 440L162.531 400.393Z" fill="white"/>
<path fill-rule="evenodd" clip-rule="evenodd" d="M154.912 440L158.469 421.51C161.522 424.284 164.956 426.604 168.698 428.331C168.698 428.331 160.834 438.706 154.912 440Z" fill="#BBFFF9"/>
</g>
<path d="M149.055 56.894L156.711 49.818C162.511 44.482 163.613 40.886 163.613 36.942C163.613 29.402 157.175 24.588 147.837 24.588C139.833 24.588 134.091 27.952 131.017 33.056L139.543 37.812C141.167 35.202 143.835 33.868 146.793 33.868C150.273 33.868 152.013 35.434 152.013 38.044C152.013 39.726 151.549 41.582 148.301 44.598L133.105 58.808V66H164.715V56.894H149.055ZM188.823 66.812C199.147 66.812 206.687 59.098 206.687 45.7C206.687 32.302 199.147 24.588 188.823 24.588C178.441 24.588 170.901 32.302 170.901 45.7C170.901 59.098 178.441 66.812 188.823 66.812ZM188.823 57.416C185.111 57.416 182.443 54.226 182.443 45.7C182.443 37.174 185.111 33.984 188.823 33.984C192.477 33.984 195.145 37.174 195.145 45.7C195.145 54.226 192.477 57.416 188.823 57.416Z" fill="#46BBCE"/>
<g filter="url(#filter1_di)">
<path d="M199.654 114.049C190.939 106.016 180.099 102 167.152 102C153.543 102 141.943 106.562 132.369 115.707C122.796 124.851 118 136.218 118 149.827C118 162.87 122.562 174.081 131.668 183.479C140.812 192.876 153.095 197.575 168.556 197.575C177.876 197.575 187.02 195.665 195.989 191.824C198.913 190.576 200.337 187.222 199.147 184.278C197.919 181.237 194.448 179.833 191.426 181.12C183.628 184.473 175.985 186.15 168.537 186.15C156.682 186.15 147.499 182.543 140.987 175.309C134.495 168.095 131.239 159.614 131.239 149.885C131.239 139.318 134.729 130.505 141.689 123.427C148.63 116.369 157.189 112.821 167.328 112.821C176.667 112.821 184.563 115.726 190.997 121.536C197.432 127.346 200.649 134.658 200.649 143.471C200.649 149.495 199.167 154.525 196.223 158.522C193.279 162.539 190.218 164.527 187.04 164.527C185.324 164.527 184.466 163.611 184.466 161.759C184.466 160.258 184.583 158.503 184.797 156.475L188.424 126.82H175.946L175.146 129.725C171.968 127.132 168.478 125.826 164.696 125.826C158.691 125.826 153.543 128.224 149.273 133.001C144.984 137.777 142.859 143.938 142.859 151.464C142.859 158.815 144.75 164.761 148.552 169.265C152.354 173.789 156.916 176.031 162.259 176.031C167.035 176.031 171.11 174.023 174.503 170.026C177.057 173.867 180.82 175.777 185.792 175.777C193.103 175.777 199.42 172.599 204.743 166.224C210.066 159.868 212.737 152.186 212.737 143.198C212.737 131.811 208.389 122.082 199.654 114.049ZM170.915 158.912C168.712 161.876 166.08 163.377 163.019 163.377C160.933 163.377 159.256 162.285 157.989 160.102C156.702 157.918 156.059 155.208 156.059 151.952C156.059 147.935 156.955 144.699 158.749 142.242C160.543 139.786 162.766 138.538 165.417 138.538C167.718 138.538 169.765 139.454 171.559 141.306C173.353 143.159 174.249 145.615 174.249 148.696C174.23 152.537 173.119 155.929 170.915 158.912Z" fill="white"/>
</g>
<defs>
<filter id="filter0_d" x="143" y="393" width="52.975" height="57" filterUnits="userSpaceOnUse" color-interpolation-filters="sRGB">
<feFlood flood-opacity="0" result="BackgroundImageFix"/>
<feColorMatrix in="SourceAlpha" type="matrix" values="0 0 0 0 0 0 0 0 0 0 0 0 0 0 0 0 0 0 127 0"/>
<feOffset dx="3" dy="3"/>
<feGaussianBlur stdDeviation="3.5"/>
<feColorMatrix type="matrix" values="0 0 0 0 0.279 0 0 0 0 0.9 0 0 0 0 0.840225 0 0 0 1 0"/>
<feBlend mode="normal" in2="BackgroundImageFix" result="effect1_dropShadow"/>
<feBlend mode="normal" in="SourceGraphic" in2="effect1_dropShadow" result="shape"/>
</filter>
<filter id="filter1_di" x="112" y="96" width="114.737" height="115.575" filterUnits="userSpaceOnUse" color-interpolation-filters="sRGB">
<feFlood flood-opacity="0" result="BackgroundImageFix"/>
<feColorMatrix in="SourceAlpha" type="matrix" values="0 0 0 0 0 0 0 0 0 0 0 0 0 0 0 0 0 0 127 0"/>
<feOffset dx="4" dy="4"/>
<feGaussianBlur stdDeviation="5"/>
<feColorMatrix type="matrix" values="0 0 0 0 0.1715 0 0 0 0 0.816667 0 0 0 0 0.816667 0 0 0 1 0"/>
<feBlend mode="normal" in2="BackgroundImageFix" result="effect1_dropShadow"/>
<feBlend mode="normal" in="SourceGraphic" in2="effect1_dropShadow" result="shape"/>
<feColorMatrix in="SourceAlpha" type="matrix" values="0 0 0 0 0 0 0 0 0 0 0 0 0 0 0 0 0 0 127 0" result="hardAlpha"/>
<feOffset dx="-4" dy="-4"/>
<feGaussianBlur stdDeviation="4.5"/>
<feComposite in2="hardAlpha" operator="arithmetic" k2="-1" k3="1"/>
<feColorMatrix type="matrix" values="0 0 0 0 0.441945 0 0 0 0 0.887146 0 0 0 0 0.895833 0 0 0 0.52 0"/>
<feBlend mode="normal" in2="shape" result="effect2_innerShadow"/>
</filter>
<linearGradient id="paint0_linear" x1="5.5" y1="-157" x2="289.5" y2="495.5" gradientUnits="userSpaceOnUse">
<stop stop-color="#00C2FF"/>
<stop offset="1" stop-color="#1EE7CF"/>
</linearGradient>
<linearGradient id="paint1_linear" x1="49" y1="11" x2="301.5" y2="474" gradientUnits="userSpaceOnUse">
<stop stop-color="#19D2EB"/>
<stop offset="1" stop-color="#55F5DF"/>
</linearGradient>
<linearGradient id="paint2_linear" x1="59.5" y1="-9" x2="291.5" y2="495.5" gradientUnits="userSpaceOnUse">
<stop stop-color="#00E0FF"/>
<stop offset="1" stop-color="#42F2D1"/>
</linearGradient>
<linearGradient id="paint3_linear" x1="51" y1="11" x2="303.5" y2="474" gradientUnits="userSpaceOnUse">
<stop stop-color="#B2F6FF"/>
<stop offset="1" stop-color="#28D7BE"/>
</linearGradient>
<linearGradient id="paint4_linear" x1="27" y1="473.49" x2="247.084" y2="60.8524" gradientUnits="userSpaceOnUse">
<stop stop-color="#73F5FF"/>
<stop offset="0.99" stop-color="#7AFFEC"/>
</linearGradient>
<linearGradient id="paint5_linear" x1="129.774" y1="288" x2="310" y2="288" gradientUnits="userSpaceOnUse">
<stop stop-color="white"/>
<stop offset="0.99" stop-color="white" stop-opacity="0.4"/>
</linearGradient>
<linearGradient id="paint6_linear" x1="59.8997" y1="86" x2="140" y2="86" gradientUnits="userSpaceOnUse">
<stop stop-color="white"/>
<stop offset="0.99" stop-color="white" stop-opacity="0.4"/>
</linearGradient>
</defs>
</svg>
