<svg width="338" height="474" viewBox="0 0 338 474" fill="none" xmlns="http://www.w3.org/2000/svg">
<rect x="2.5" y="2.5" width="331" height="469" rx="32.5" fill="url(#paint0_linear)" stroke="url(#paint1_linear)" stroke-width="5"/>
<mask id="mask0" mask-type="alpha" maskUnits="userSpaceOnUse" x="2" y="0" width="336" height="474">
<rect x="-2.5" y="2.5" width="331" height="469" rx="41.5" transform="matrix(-1 0 0 1 333 0)" fill="url(#paint2_linear)" stroke="url(#paint3_linear)" stroke-width="5"/>
</mask>
<g mask="url(#mask0)">
<path d="M129.747 5.0093C129.747 5.0093 234.654 47.0947 238.632 101.845C242.609 156.595 219.132 152.615 226.093 185.086C233.053 217.557 347.517 255.616 316.691 356.766C285.865 457.916 188.416 370.584 85 469H301C317.569 469 331 455.569 331 439V35.0014C331 18.4323 317.568 5.00062 300.999 5.00139L129.747 5.0093Z" fill="url(#paint4_linear)" fill-opacity="0.5"/>
</g>
<path opacity="0.46" d="M114.88 323C95.8977 322.976 77.349 317.326 61.5777 306.763C45.8065 296.199 33.5206 281.198 26.2731 263.654C19.0255 246.11 17.1416 226.812 20.8594 208.198C24.5771 189.583 33.7297 172.489 47.1603 159.075C60.591 145.661 77.6967 136.53 96.3156 132.836C114.934 129.141 134.231 131.05 151.765 138.319C169.3 145.589 184.286 157.893 194.829 173.678C205.373 189.462 211 208.018 211 227C210.955 252.468 200.81 276.878 182.79 294.875C164.771 312.873 140.348 322.987 114.88 323ZM114.88 157.396C101.117 157.415 87.6698 161.514 76.2362 169.173C64.8026 176.833 55.8964 187.71 50.643 200.431C45.3896 213.151 44.025 227.143 46.7215 240.638C49.4181 254.133 56.0547 266.527 65.7928 276.251C75.5309 285.976 87.9332 292.595 101.432 295.273C114.931 297.951 128.921 296.567 141.634 291.296C154.347 286.025 165.212 277.104 172.856 265.66C180.5 254.215 184.58 240.762 184.58 227C184.522 208.55 177.154 190.874 164.09 177.846C151.026 164.818 133.33 157.499 114.88 157.493V157.396Z" fill="url(#paint5_linear)" fill-opacity="0.7"/>
<path opacity="0.46" d="M216.95 105C209.041 104.99 201.312 102.636 194.741 98.2344C188.169 93.8331 183.05 87.5825 180.03 80.2726C177.011 72.9627 176.226 64.9216 177.775 57.1657C179.324 49.4097 183.137 42.2871 188.733 36.698C194.33 31.1089 201.457 27.3043 209.215 25.7649C216.973 24.2256 225.013 25.0207 232.319 28.0496C239.625 31.0786 245.869 36.2055 250.262 42.7824C254.655 49.3593 257 57.0909 257 65C256.981 75.6116 252.754 85.7826 245.246 93.2815C237.738 100.78 227.561 104.995 216.95 105ZM216.95 35.9985C211.216 36.0064 205.612 37.7141 200.848 40.9056C196.084 44.0972 192.373 48.6294 190.185 53.9294C187.996 59.2294 187.427 65.0594 188.551 70.6825C189.674 76.3056 192.439 81.4694 196.497 85.5213C200.555 89.5732 205.722 92.3314 211.347 93.4472C216.971 94.5629 222.801 93.9863 228.098 91.79C233.395 89.5938 237.922 85.8766 241.107 81.1082C244.292 76.3398 245.991 70.7342 245.991 65C245.968 57.3124 242.898 49.9477 237.454 44.5193C232.011 39.0908 224.637 36.0412 216.95 36.0386V35.9985Z" fill="url(#paint6_linear)"/>
<path d="M90.2458 212.552C90.2458 208.16 87.1978 205.52 81.5098 205.136V203.408H77.1658V205.136C71.4778 205.568 68.4298 208.16 68.4298 212.552C68.4298 216.92 71.4778 219.536 77.1658 219.944V221.792H81.5098V219.944C87.2218 219.608 90.2458 216.92 90.2458 212.552ZM81.5098 216.248V208.856C84.2938 209.168 85.6378 210.32 85.6378 212.528C85.6378 214.736 84.3658 215.936 81.5098 216.248ZM73.0378 212.552C73.0378 210.32 74.2858 209.192 77.1658 208.856V216.224C74.4538 215.888 73.0378 214.76 73.0378 212.552Z" fill="black"/>
<path d="M98.618 217.328V214.256H106.082V210.704H98.618V207.872H107.09V204.2H93.914V221H107.402V217.328H98.618Z" fill="black"/>
<path d="M119.325 203.192C122.805 203.192 124.293 201.8 124.293 199.28H121.101C121.077 200.384 120.525 200.936 119.325 200.936C118.125 200.936 117.621 200.384 117.597 199.28H114.405C114.405 201.8 115.845 203.192 119.325 203.192ZM111.309 221H115.797L122.709 211.16V221H127.389V204.2H122.925L115.989 214.064V204.2H111.309V221Z" fill="black"/>
<path d="M142.805 221H148.157L142.853 212.312L148.109 204.2H143.117L139.109 210.728H136.829V204.2H132.101V221H136.829V214.568H138.989L142.805 221Z" fill="black"/>
<path d="M153.005 215.816C151.421 215.816 150.269 216.872 150.269 218.504C150.269 219.632 150.821 220.448 151.685 220.856L150.557 224.768H153.413L154.925 221.264C155.621 219.704 155.717 219.176 155.717 218.504C155.717 216.872 154.565 215.816 153.005 215.816Z" fill="black"/>
<path d="M183.346 217.232V204.2H169.81L169.618 209.384C169.45 213.872 168.898 217.184 166.762 217.232H166.162V224.384H170.53V221H181.282V224.384H185.626V217.232H183.346ZM173.77 209.792L173.842 207.968H178.666V217.232H172.306C173.29 215.816 173.65 213.08 173.77 209.792Z" fill="black"/>
<path d="M202.198 221H207.142L199.702 204.2H195.022L187.606 221H192.454L193.774 217.736H200.878L202.198 221ZM195.166 214.232L197.326 208.856L199.486 214.232H195.166Z" fill="black"/>
<path d="M228.457 221H233.929L229.153 212.192L233.641 204.2H228.673L225.241 210.728H223.201V204.2H218.545V210.728H216.409L213.049 204.2H208.057L212.545 212.192L207.769 221H213.265L216.553 214.568H218.545V221H223.201V214.568H225.193L228.457 221Z" fill="black"/>
<path d="M241.366 217.328V214.256H248.83V210.704H241.366V207.872H249.838V204.2H236.662V221H250.15V217.328H241.366Z" fill="black"/>
<path d="M53.8919 239.2V246.496C53.0519 246.88 52.0199 247.072 50.9159 247.072C48.8279 247.072 47.7479 246.016 47.7479 243.832V239.2H43.0679V244.36C43.0679 248.632 45.6119 250.936 50.3159 250.936C51.4199 250.936 52.5959 250.72 53.8919 250.288V256H58.5719V239.2H53.8919Z" fill="black"/>
<path d="M63.3679 256H67.8559L74.7679 246.16V256H79.4479V239.2H74.9839L68.0479 249.064V239.2H63.3679V256Z" fill="black"/>
<path d="M97.7914 239.2H82.8154V242.968H87.9754V256H92.6554V242.968H97.7914V239.2Z" fill="black"/>
<path d="M113.25 256H118.194L110.754 239.2H106.074L98.6582 256H103.506L104.826 252.736H111.93L113.25 256ZM106.218 249.232L108.378 243.856L110.538 249.232H106.218Z" fill="black"/>
<path d="M134.012 239.2H119.036V242.968H124.196V256H128.876V242.968H134.012V239.2Z" fill="black"/>
<path d="M145.97 244.552H142.082V239.2H137.402V256H145.346C149.714 256 152.426 253.96 152.426 250.024C152.426 246.352 150.05 244.552 145.97 244.552ZM145.034 252.592H142.082V247.936H145.034C146.642 247.936 147.65 248.536 147.65 250.12C147.65 251.704 146.618 252.592 145.034 252.592Z" fill="black"/>
<path d="M175.433 239.2V245.512H168.953V239.2H164.201V256H168.953V249.448H175.433V256H180.185V239.2H175.433Z" fill="black"/>
<path d="M189.699 252.328V249.256H197.163V245.704H189.699V242.872H198.171V239.2H184.995V256H198.482V252.328H189.699Z" fill="black"/>
<path d="M210.574 256H218.974C223.342 256 225.91 254.008 225.91 250.6C225.91 247.36 223.678 245.584 219.598 245.584H215.254V242.872H224.614V239.2H210.574V256ZM215.254 252.592V248.968H218.662C220.294 248.968 221.11 249.544 221.11 250.744C221.11 251.944 220.246 252.592 218.662 252.592H215.254Z" fill="black"/>
<path d="M240.212 239.2L236.156 247.312L232.244 239.2H227.228L233.756 251.296C233.132 252.208 232.46 252.592 231.524 252.592C231.02 252.592 230.492 252.496 229.844 252.304L228.716 255.808C229.748 256.216 230.732 256.432 231.692 256.432C234.212 256.432 236.396 254.992 237.884 252.184L244.844 239.2H240.212Z" fill="black"/>
<path d="M263.008 252.232V239.2H249.472L249.28 244.384C249.112 248.872 248.56 252.184 246.424 252.232H245.824V259.384H250.192V256H260.944V259.384H265.288V252.232H263.008ZM253.432 244.792L253.504 242.968H258.328V252.232H251.968C252.952 250.816 253.312 248.08 253.432 244.792Z" fill="black"/>
<path d="M280.088 239.2L276.032 247.312L272.12 239.2H267.104L273.632 251.296C273.008 252.208 272.336 252.592 271.4 252.592C270.896 252.592 270.368 252.496 269.72 252.304L268.592 255.808C269.624 256.216 270.608 256.432 271.568 256.432C274.088 256.432 276.272 254.992 277.76 252.184L284.72 239.2H280.088Z" fill="black"/>
<path fill-rule="evenodd" clip-rule="evenodd" d="M77.1658 205.136C77.0208 205.147 76.8776 205.159 76.7361 205.173C76.6603 205.181 76.585 205.188 76.5101 205.197C71.2439 205.774 68.4298 208.332 68.4298 212.552C68.4298 216.749 71.2439 219.329 76.5101 219.886C76.5762 219.893 76.6427 219.9 76.7096 219.906C76.8597 219.92 77.0118 219.933 77.1658 219.944V221.792H81.5098V219.944C81.6449 219.936 81.7784 219.927 81.9105 219.916C81.9962 219.909 82.0812 219.902 82.1655 219.894C85.3297 219.596 87.6005 218.529 88.914 216.82C89.7954 215.673 90.2458 214.238 90.2458 212.552C90.2458 212.544 90.2458 212.536 90.2458 212.528C90.2415 210.848 89.7899 209.425 88.914 208.288C87.5974 206.578 85.3219 205.514 82.1655 205.191C82.0852 205.183 82.0044 205.176 81.9231 205.168C81.7869 205.156 81.6491 205.145 81.5098 205.136V203.408H77.1658V205.136ZM82.1658 216.156C82.0197 216.181 81.8687 216.204 81.7127 216.224C81.646 216.233 81.5783 216.241 81.5098 216.248V208.856C81.7381 208.882 81.9568 208.913 82.1658 208.95C84.5052 209.364 85.6378 210.501 85.6378 212.528C85.6378 212.536 85.6378 212.544 85.6377 212.552C85.6293 214.568 84.552 215.739 82.1658 216.156ZM77.1658 208.856C76.9369 208.883 76.7183 208.914 76.5098 208.951C74.0953 209.378 73.0378 210.497 73.0378 212.552C73.0378 214.575 74.2259 215.691 76.5098 216.122C76.7193 216.162 76.9379 216.196 77.1658 216.224V208.856ZM85.827 224.316C87.0498 223.993 88.2191 223.54 89.3008 222.932C90.0564 224.734 91.8373 226 93.914 226H107.402C108.095 226 108.756 225.859 109.356 225.604C109.956 225.859 110.616 226 111.309 226H115.797C117.097 226 118.332 225.495 119.253 224.613C120.151 225.472 121.369 226 122.709 226H127.389C128.241 226 129.043 225.787 129.745 225.411C130.447 225.787 131.249 226 132.101 226H136.829C137.949 226 138.983 225.632 139.817 225.009C140.667 225.643 141.711 226 142.805 226H145.711C145.872 226.634 146.158 227.238 146.561 227.774C147.506 229.03 148.986 229.768 150.557 229.768H153.413C155.408 229.768 157.213 228.581 158.004 226.749L159.504 223.272C160.309 221.465 160.717 220.19 160.717 218.504C160.717 216.464 159.969 214.453 158.425 212.957C156.902 211.481 154.926 210.816 153.005 210.816C151.698 210.816 150.359 211.12 149.153 211.784L152.305 206.919C153.301 205.381 153.377 203.422 152.502 201.812C151.627 200.202 149.941 199.2 148.109 199.2H143.117C141.956 199.2 140.85 199.603 139.973 200.312C139.114 199.617 138.02 199.2 136.829 199.2H132.101C131.249 199.2 130.447 199.413 129.745 199.789C129.597 199.71 129.445 199.638 129.289 199.574C129.292 199.475 129.293 199.377 129.293 199.28C129.293 196.519 127.055 194.28 124.293 194.28H121.101C120.485 194.28 119.895 194.392 119.349 194.596C118.804 194.392 118.213 194.28 117.597 194.28H114.405C111.644 194.28 109.405 196.519 109.405 199.28C109.405 199.377 109.407 199.475 109.409 199.574C109.339 199.603 109.269 199.633 109.2 199.666C108.559 199.367 107.844 199.2 107.09 199.2H93.914C91.8658 199.2 90.1052 200.432 89.3324 202.195C88.2198 201.564 87.0147 201.098 85.7555 200.766C84.8726 199.35 83.3012 198.408 81.5098 198.408H77.1658C75.3653 198.408 73.787 199.36 72.9067 200.788C70.8906 201.325 69.0105 202.204 67.4281 203.548C64.6969 205.868 63.4298 209.082 63.4298 212.552C63.4298 216.015 64.7002 219.227 67.4281 221.544C68.9891 222.87 70.8401 223.744 72.8281 224.281C73.691 225.781 75.3104 226.792 77.1658 226.792H81.5098C83.3506 226.792 84.9591 225.797 85.827 224.316ZM93.914 221H107.402V217.328H98.618V214.256H106.082V210.704H98.618V207.872H107.09V204.2H93.914V221ZM111.309 221H115.797L122.709 211.16V221H127.389V204.2H122.925L115.989 214.064V204.2H111.309V221ZM114.406 199.349C114.421 200.782 114.911 201.843 115.989 202.483C116.426 202.742 116.96 202.933 117.597 203.05C117.604 203.052 117.612 203.053 117.619 203.054C118.122 203.146 118.69 203.192 119.325 203.192C119.89 203.192 120.402 203.155 120.864 203.083C120.945 203.071 121.024 203.057 121.101 203.042C121.148 203.033 121.194 203.024 121.239 203.014C121.921 202.87 122.48 202.639 122.925 202.325C123.847 201.675 124.278 200.67 124.293 199.349C124.293 199.326 124.293 199.303 124.293 199.28H121.101C121.099 199.375 121.093 199.465 121.083 199.552C120.993 200.346 120.569 200.798 119.754 200.909C119.621 200.927 119.479 200.936 119.325 200.936C119.262 200.936 119.201 200.934 119.142 200.931C118.139 200.88 117.678 200.392 117.606 199.467C117.602 199.407 117.599 199.344 117.597 199.28H114.405C114.405 199.303 114.405 199.326 114.406 199.349ZM119.305 199.28H119.39C119.387 199.269 119.384 199.256 119.379 199.243C119.379 199.242 119.379 199.242 119.379 199.241C119.37 199.213 119.36 199.181 119.346 199.145C119.338 199.167 119.331 199.187 119.325 199.206C119.321 199.218 119.318 199.23 119.315 199.241C119.315 199.242 119.314 199.242 119.314 199.243C119.31 199.256 119.307 199.269 119.305 199.28ZM132.101 204.2V221H136.829V214.568H138.989L142.805 221H148.157L142.853 212.312L148.109 204.2H143.117L139.109 210.728H136.829V204.2H132.101ZM151.208 216.403C150.623 216.872 150.269 217.599 150.269 218.504C150.269 218.765 150.298 219.01 150.355 219.236C150.36 219.257 150.365 219.278 150.371 219.299C150.398 219.399 150.431 219.496 150.469 219.588C150.496 219.654 150.525 219.718 150.557 219.78C150.802 220.259 151.193 220.624 151.685 220.856L150.557 224.768H153.413L154.925 221.264C155.621 219.704 155.717 219.176 155.717 218.504C155.717 218.253 155.69 218.016 155.638 217.794C155.353 216.572 154.325 215.816 153.005 215.816C152.299 215.816 151.679 216.026 151.208 216.403ZM178.666 217.232V207.968H173.842L173.78 209.538L173.78 209.54L173.77 209.792C173.746 210.45 173.712 211.086 173.666 211.694C173.652 211.876 173.637 212.055 173.621 212.232C173.485 213.709 173.265 214.997 172.91 216C172.741 216.479 172.541 216.893 172.306 217.232H178.666ZM170.53 224.384H166.162V217.232H166.762C166.957 217.228 167.138 217.196 167.307 217.139C167.335 217.13 167.362 217.12 167.39 217.109C167.633 217.013 167.851 216.862 168.045 216.661C168.432 216.259 168.726 215.659 168.95 214.9C169.344 213.564 169.522 211.738 169.608 209.64C169.608 209.636 169.608 209.632 169.609 209.628C169.612 209.547 169.615 209.466 169.618 209.384L169.81 204.2H183.346V217.232H185.626V224.384H181.282V221H170.53V224.384ZM176.549 226H175.263C174.591 227.968 172.726 229.384 170.53 229.384H166.162C163.401 229.384 161.162 227.145 161.162 224.384V217.232C161.162 215.111 162.483 213.298 164.347 212.572C164.377 212.381 164.406 212.165 164.434 211.924C164.523 211.159 164.582 210.251 164.622 209.197L164.814 204.015C164.913 201.327 167.121 199.2 169.81 199.2H183.346C186.108 199.2 188.346 201.439 188.346 204.2V206.942L190.448 202.181C191.248 200.369 193.041 199.2 195.022 199.2H199.702C201.402 199.2 202.965 200.062 203.88 201.453C204.801 200.051 206.369 199.2 208.057 199.2H213.049C214.044 199.2 214.995 199.496 215.797 200.023C216.585 199.503 217.53 199.2 218.545 199.2H223.201C224.211 199.2 225.151 199.5 225.938 200.015C226.737 199.493 227.683 199.2 228.673 199.2H233.641C234.16 199.2 234.668 199.281 235.15 199.433C235.627 199.282 236.135 199.2 236.662 199.2H249.838C252.6 199.2 254.838 201.439 254.838 204.2V207.872C254.838 209.003 254.463 210.046 253.83 210.883V213.943C254.65 214.834 255.15 216.022 255.15 217.328V221C255.15 223.761 252.912 226 250.15 226H236.662C236.188 226 235.729 225.934 235.294 225.81C234.855 225.935 234.397 226 233.929 226H228.457C227.511 226 226.605 225.733 225.83 225.254C225.066 225.727 224.165 226 223.201 226H218.545C217.576 226 216.671 225.724 215.904 225.247C215.126 225.73 214.216 226 213.265 226H207.769C207.664 226 207.559 225.997 207.455 225.99C207.351 225.997 207.247 226 207.142 226H202.198C200.16 226 198.327 224.764 197.563 222.875L197.507 222.736H197.145L197.089 222.875C196.325 224.764 194.492 226 192.454 226H190.359C189.687 227.968 187.822 229.384 185.626 229.384H181.282C179.086 229.384 177.221 227.968 176.549 226ZM218.545 221H223.201V214.568H225.193L228.457 221H233.929L229.153 212.192L233.641 204.2H228.673L225.241 210.728H223.201V204.2H218.545V210.728H216.409L213.049 204.2H208.057L212.545 212.192L207.769 221H213.265L216.553 214.568H218.545V221ZM236.662 221H250.15V217.328H241.366V214.256H248.83V210.704H241.366V207.872H249.838V204.2H236.662V221ZM199.702 204.2H195.022L187.606 221H192.454L193.774 217.736H200.878L202.198 221H207.142L199.702 204.2ZM197.326 208.856L195.166 214.232H199.486L197.326 208.856ZM164.086 213.681C164.086 213.681 164.089 213.674 164.095 213.661C164.09 213.675 164.086 213.681 164.086 213.681ZM50.8199 235.255C51.6675 234.594 52.7337 234.2 53.8919 234.2H58.5719C59.4408 234.2 60.258 234.422 60.9699 234.812C61.6818 234.422 62.499 234.2 63.3679 234.2H68.0479C69.3946 234.2 70.6169 234.732 71.5159 235.598C72.4387 234.71 73.6786 234.2 74.9839 234.2H79.4479C80.0387 234.2 80.6056 234.302 81.1317 234.491C81.6578 234.302 82.2247 234.2 82.8154 234.2H97.7914C99.5145 234.2 101.034 235.072 101.933 236.398C102.852 235.039 104.396 234.2 106.074 234.2H110.754C112.432 234.2 113.976 235.039 114.895 236.397C115.794 235.071 117.313 234.2 119.036 234.2H134.012C134.607 234.2 135.178 234.304 135.707 234.495C136.236 234.304 136.807 234.2 137.402 234.2H142.082C144.844 234.2 147.082 236.439 147.082 239.2V239.587C149.436 239.735 151.892 240.392 153.906 242.051C156.407 244.11 157.426 247.041 157.426 250.024C157.426 253.233 156.261 256.253 153.692 258.357C151.274 260.336 148.226 261 145.346 261H137.402C135.599 261 134.019 260.045 133.139 258.614C132.259 260.045 130.679 261 128.876 261H124.196C123.07 261 122.031 260.628 121.195 260C120.341 260.64 119.292 261 118.194 261H113.25C111.213 261 109.379 259.764 108.615 257.875L108.559 257.736H108.198L108.142 257.875C107.378 259.764 105.544 261 103.506 261H98.6582C97.5604 261 96.5108 260.64 95.6571 259.999C94.8211 260.628 93.7818 261 92.6554 261H87.9754C86.1717 261 84.5911 260.045 83.7117 258.613C82.8322 260.045 81.2516 261 79.4479 261H74.7679C73.4273 261 72.2098 260.472 71.312 259.613C70.3905 260.495 69.1557 261 67.8559 261H63.3679C62.499 261 61.6818 260.778 60.9699 260.389C60.258 260.778 59.4408 261 58.5719 261H53.8919C51.1304 261 48.8919 258.761 48.8919 256V255.881C46.2579 255.671 43.648 254.839 41.569 252.954C39.0347 250.656 38.0679 247.504 38.0679 244.36V239.2C38.0679 236.439 40.3064 234.2 43.0679 234.2H47.7479C48.906 234.2 49.9722 234.594 50.8199 235.255ZM47.7479 239.2H43.0679V244.36C43.0679 248.179 45.1006 250.425 48.8919 250.859C49.3419 250.91 49.8167 250.936 50.3159 250.936C50.5135 250.936 50.7134 250.929 50.9159 250.915C51.7509 250.858 52.6298 250.683 53.5719 250.391C53.6777 250.358 53.7844 250.324 53.8919 250.288V256H58.5719V239.2H53.8919V246.496C53.7881 246.543 53.6813 246.588 53.5719 246.63C53.3134 246.728 53.0399 246.81 52.7543 246.875C52.182 247.006 51.5613 247.072 50.9159 247.072C50.7056 247.072 50.5056 247.061 50.3159 247.04C48.7801 246.866 47.9187 245.986 47.7708 244.36C47.7555 244.192 47.7479 244.016 47.7479 243.832V239.2ZM52.7503 243.917C52.7505 243.919 52.7506 243.92 52.7506 243.92ZM74.7679 256H79.4479V239.2H74.9839L68.0479 249.064V239.2H63.3679V256H67.8559L74.7679 246.16V256ZM87.9754 256H92.6554V242.968H97.7914V239.2H82.8154V242.968H87.9754V256ZM110.754 239.2H106.074L98.6582 256H103.506L104.826 252.736H111.93L113.25 256H118.194L110.754 239.2ZM108.378 243.856L106.218 249.232H110.538L108.378 243.856ZM124.196 256H128.876V242.968H134.012V239.2H119.036V242.968H124.196V256ZM137.402 256H145.346C149.679 256 152.382 253.993 152.426 250.12C152.426 250.088 152.426 250.056 152.426 250.024C152.426 246.352 150.05 244.552 145.97 244.552H142.082V239.2H137.402V256ZM142.082 252.592H145.034C145.141 252.592 145.245 252.588 145.346 252.58C146.083 252.522 146.681 252.255 147.082 251.801C147.447 251.389 147.65 250.823 147.65 250.12C147.65 250.088 147.65 250.056 147.649 250.024C147.632 249.365 147.432 248.884 147.082 248.551C146.802 248.285 146.426 248.113 145.97 248.02C145.688 247.963 145.374 247.936 145.034 247.936H142.082V252.592ZM172.193 235.392C173.065 234.649 174.197 234.2 175.433 234.2H180.185C181.056 234.2 181.876 234.423 182.59 234.815C183.303 234.423 184.123 234.2 184.995 234.2H198.171C200.932 234.2 203.171 236.439 203.171 239.2V242.872C203.171 244.003 202.795 245.046 202.163 245.883V248.943C202.982 249.834 203.482 251.022 203.482 252.328V256C203.482 258.761 201.244 261 198.482 261H184.995C184.123 261 183.303 260.777 182.59 260.385C181.876 260.777 181.056 261 180.185 261H175.433C174.197 261 173.065 260.552 172.193 259.808C171.32 260.552 170.189 261 168.953 261H164.201C161.439 261 159.201 258.761 159.201 256V239.2C159.201 236.439 161.439 234.2 164.201 234.2H168.953C170.189 234.2 171.32 234.649 172.193 235.392ZM168.953 239.2H164.201V256H168.953V249.448H175.433V256H180.185V239.2H175.433V245.512H168.953V239.2ZM198.482 252.328H189.699V249.256H197.163V245.704H189.699V242.872H198.171V239.2H184.995V256H198.482V252.328ZM210.574 261C207.813 261 205.574 258.761 205.574 256V239.2C205.574 236.439 207.813 234.2 210.574 234.2H224.614C225.067 234.2 225.506 234.26 225.923 234.373C226.343 234.26 226.781 234.2 227.228 234.2H232.244C233.826 234.2 235.294 234.947 236.228 236.179C237.162 234.946 238.63 234.2 240.212 234.2H244.844C245.663 234.2 246.454 234.401 247.157 234.767C247.85 234.405 248.638 234.2 249.472 234.2H263.008C263.738 234.2 264.432 234.357 265.057 234.638C265.691 234.354 266.387 234.2 267.104 234.2H272.12C273.703 234.2 275.17 234.947 276.104 236.179C277.039 234.946 278.507 234.2 280.088 234.2H284.72C286.478 234.2 288.107 235.123 289.01 236.632C289.913 238.141 289.958 240.013 289.127 241.562L282.178 254.525C282.176 254.53 282.173 254.534 282.171 254.539C280.023 258.582 276.341 261.432 271.568 261.432C271.001 261.432 270.445 261.39 269.902 261.312C269.148 263.116 267.366 264.384 265.288 264.384H260.944C258.748 264.384 256.883 262.968 256.211 261H254.925C254.253 262.968 252.388 264.384 250.192 264.384H245.824C243.062 264.384 240.824 262.145 240.824 259.384V256.81C238.629 259.609 235.509 261.432 231.692 261.432C229.969 261.432 228.356 261.043 226.877 260.458C226.344 260.247 225.866 259.954 225.454 259.599C223.451 260.617 221.184 261 218.974 261H210.574ZM228.716 255.808C228.742 255.819 228.769 255.829 228.796 255.839C228.998 255.918 229.199 255.989 229.398 256.052C229.596 256.115 229.793 256.17 229.988 256.218C230.509 256.345 231.02 256.417 231.524 256.43C231.58 256.431 231.636 256.432 231.692 256.432C232.461 256.432 233.2 256.298 233.896 256.031C235.079 255.578 236.142 254.745 237.035 253.54C237.338 253.13 237.622 252.678 237.884 252.184L244.844 239.2H240.212L236.156 247.312L232.244 239.2H227.228L233.756 251.296C233.687 251.396 233.618 251.49 233.548 251.578C233.019 252.239 232.442 252.549 231.692 252.588C231.637 252.591 231.581 252.592 231.524 252.592C231.469 252.592 231.415 252.591 231.36 252.589C231.162 252.581 230.959 252.558 230.744 252.521C230.534 252.485 230.312 252.434 230.075 252.37C229.999 252.349 229.922 252.327 229.844 252.304C229.844 252.304 229.844 252.304 229.844 252.304L228.716 255.808ZM224.614 239.2H210.574V256H218.974C221.007 256 222.65 255.569 223.825 254.764C223.996 254.647 224.158 254.522 224.308 254.389C225.254 253.559 225.803 252.425 225.896 251.033C225.902 250.938 225.907 250.842 225.909 250.744C225.91 250.696 225.91 250.648 225.91 250.6C225.91 250.165 225.87 249.756 225.79 249.374C225.671 248.801 225.462 248.29 225.169 247.842C225.009 247.598 224.824 247.373 224.614 247.168C223.554 246.13 221.86 245.584 219.598 245.584H215.254V242.872H224.614V239.2ZM215.254 248.968V252.592H218.662C218.77 252.592 218.874 252.589 218.974 252.583C219.491 252.553 219.92 252.445 220.254 252.263C220.807 251.962 221.101 251.46 221.11 250.775C221.11 250.765 221.11 250.754 221.11 250.744C221.11 250.741 221.11 250.738 221.11 250.735C221.11 250.689 221.109 250.644 221.106 250.6C221.069 249.968 220.785 249.523 220.254 249.26C220.066 249.167 219.848 249.096 219.598 249.048C219.324 248.994 219.012 248.968 218.662 248.968H215.254ZM246.969 252.139C246.8 252.196 246.618 252.228 246.424 252.232H245.824V259.384H250.192V256H260.944V259.384H265.288V252.232H263.008V239.2H249.472L249.28 244.384C249.277 244.466 249.274 244.547 249.27 244.628C249.27 244.632 249.27 244.636 249.27 244.64C249.183 246.738 249.006 248.564 248.612 249.9C248.388 250.659 248.094 251.259 247.706 251.661C247.512 251.862 247.295 252.013 247.051 252.109C247.024 252.12 246.997 252.13 246.969 252.139ZM251.968 252.232C252.203 251.893 252.403 251.479 252.572 251C252.926 249.997 253.147 248.709 253.283 247.232C253.299 247.055 253.314 246.876 253.328 246.694C253.374 246.086 253.408 245.45 253.432 244.792L253.442 244.54L253.442 244.538L253.504 242.968H258.328V252.232H251.968ZM268.592 255.808C268.619 255.819 268.646 255.829 268.673 255.839C269.077 255.996 269.474 256.122 269.865 256.218C270.007 256.252 270.148 256.283 270.288 256.309C270.663 256.38 271.033 256.42 271.4 256.43C271.456 256.431 271.512 256.432 271.568 256.432C272.338 256.432 273.076 256.298 273.773 256.031C274.956 255.578 276.019 254.745 276.911 253.54C277.215 253.13 277.498 252.678 277.76 252.184L284.72 239.2H280.088L276.032 247.312L272.12 239.2H267.104L273.632 251.296C273.563 251.396 273.494 251.49 273.424 251.578C272.896 252.239 272.318 252.549 271.568 252.588C271.513 252.591 271.457 252.592 271.4 252.592C271.346 252.592 271.292 252.591 271.237 252.589C270.939 252.577 270.629 252.532 270.288 252.454C270.179 252.429 270.067 252.401 269.951 252.37C269.876 252.349 269.799 252.327 269.72 252.304C269.72 252.304 269.72 252.304 269.72 252.304L268.592 255.808Z" fill="white"/>
<rect x="16" y="282" width="304" height="91" rx="24" fill="white"/>
<rect x="16" y="397" width="125" height="43" rx="13" fill="white"/>
<rect x="195" y="397" width="125" height="43" rx="13" fill="white"/>
<path d="M63.4676 324.14C66.5056 324.14 68.7456 322.012 68.7456 319.1C68.7456 316.188 66.5056 314.06 63.4676 314.06C60.4296 314.06 58.1896 316.202 58.1896 319.1C58.1896 321.998 60.4296 324.14 63.4676 324.14ZM63.4676 322.544C61.4936 322.544 60.0236 321.102 60.0236 319.1C60.0236 317.098 61.4936 315.656 63.4676 315.656C65.4416 315.656 66.9116 317.098 66.9116 319.1C66.9116 321.102 65.4416 322.544 63.4676 322.544ZM76.347 316.524H69.347V318.008H71.979V324H73.729V318.008H76.347V316.524ZM83.0344 320.108C83.7484 319.8 84.1824 319.226 84.1824 318.456C84.1824 317.224 83.0904 316.524 81.2704 316.524H77.6164V324H81.4244C83.4404 324 84.4204 323.216 84.4204 321.9C84.4204 320.99 83.9584 320.388 83.0344 320.108ZM79.2824 317.798H81.1164C82.0124 317.798 82.4744 318.092 82.4744 318.708C82.4744 319.324 82.0124 319.646 81.1164 319.646H79.2824V317.798ZM81.2844 322.726H79.2824V320.808H81.3404C82.2924 320.808 82.7264 321.13 82.7264 321.788C82.7264 322.432 82.2224 322.726 81.2844 322.726ZM93.2844 320.304C93.2844 317.966 91.6884 316.44 89.5044 316.44C87.2784 316.44 85.6404 318.036 85.6404 320.262C85.6404 322.488 87.2644 324.098 89.7704 324.098C91.0584 324.098 92.1084 323.678 92.7804 322.88L91.8424 321.802C91.3104 322.348 90.6524 322.614 89.8124 322.614C88.5104 322.614 87.6004 321.914 87.3904 320.822H93.2564C93.2704 320.654 93.2844 320.444 93.2844 320.304ZM89.5044 317.84C90.6524 317.84 91.4784 318.582 91.6184 319.66H87.3764C87.5444 318.568 88.3704 317.84 89.5044 317.84ZM100.847 316.524H93.847V318.008H96.479V324H98.229V318.008H100.847V316.524ZM102.116 324H103.726L107.842 319.072V324H109.592V316.524H107.996L103.866 321.452V316.524H102.116V324ZM117.869 316.524H110.869V318.008H113.501V324H115.251V318.008H117.869V316.524ZM122.89 318.988L120.888 318.974V316.524H119.138V324L122.638 324.014C124.682 324.028 125.844 323.09 125.844 321.452C125.844 319.898 124.808 318.988 122.89 318.988ZM122.484 322.726L120.888 322.712V320.178L122.484 320.192C123.52 320.206 124.066 320.57 124.066 321.424C124.066 322.292 123.506 322.74 122.484 322.726ZM127.86 321.774C127.216 321.774 126.726 322.236 126.726 322.936C126.726 323.44 126.992 323.804 127.384 323.972L126.824 326.114H127.958L128.672 324.14C128.924 323.496 128.994 323.244 128.994 322.936C128.994 322.25 128.518 321.774 127.86 321.774ZM139.193 316.524V319.8C138.591 320.08 137.933 320.22 137.317 320.22C136.309 320.22 135.707 319.786 135.707 318.806V316.524H133.957V318.918C133.957 320.78 135.049 321.62 136.939 321.62C137.765 321.62 138.521 321.424 139.193 321.102V324H140.943V316.524H139.193ZM149.218 316.524H142.218V318.008H144.85V324H146.6V318.008H149.218V316.524ZM153.491 324.098C155.815 324.098 157.481 322.502 157.481 320.262C157.481 318.022 155.815 316.44 153.491 316.44C151.195 316.44 149.515 318.022 149.515 320.262C149.515 322.502 151.195 324.098 153.491 324.098ZM153.491 322.6C152.231 322.6 151.279 321.69 151.279 320.262C151.279 318.834 152.231 317.924 153.491 317.924C154.765 317.924 155.717 318.834 155.717 320.262C155.717 321.69 154.765 322.6 153.491 322.6ZM163.079 316.524V324H164.829V318.008H168.511V324H170.247V316.524H163.079ZM176.753 316.44C175.731 316.44 174.863 316.79 174.275 317.504V316.524H172.609V326.716H174.359V323.09C174.961 323.776 175.801 324.098 176.753 324.098C178.937 324.098 180.547 322.586 180.547 320.262C180.547 317.952 178.937 316.44 176.753 316.44ZM176.557 322.6C175.297 322.6 174.331 321.69 174.331 320.262C174.331 318.834 175.297 317.924 176.557 317.924C177.817 317.924 178.769 318.834 178.769 320.262C178.769 321.69 177.817 322.6 176.557 322.6ZM189.288 320.304C189.288 317.966 187.692 316.44 185.508 316.44C183.282 316.44 181.644 318.036 181.644 320.262C181.644 322.488 183.268 324.098 185.774 324.098C187.062 324.098 188.112 323.678 188.784 322.88L187.846 321.802C187.314 322.348 186.656 322.614 185.816 322.614C184.514 322.614 183.604 321.914 183.394 320.822H189.26C189.274 320.654 189.288 320.444 189.288 320.304ZM185.508 317.84C186.656 317.84 187.482 318.582 187.622 319.66H183.38C183.548 318.568 184.374 317.84 185.508 317.84ZM197.981 322.516V316.524H191.821L191.723 319.086C191.639 320.836 191.457 322.474 190.407 322.516H190.057V325.666H191.681V324H197.449V325.666H199.087V322.516H197.981ZM193.319 319.212L193.361 318.008H196.231V322.516H192.549C193.151 321.942 193.263 320.612 193.319 319.212ZM201.378 316.524L201.252 319.408C201.168 320.962 201.126 322.558 199.978 322.558C199.88 322.558 199.768 322.544 199.642 322.516L199.558 323.986C199.922 324.084 200.244 324.14 200.524 324.14C202.288 324.14 202.68 322.152 202.806 319.492L202.876 318.008H205.676V324H207.426V316.524H201.378ZM213.114 324.098C215.438 324.098 217.104 322.502 217.104 320.262C217.104 318.022 215.438 316.44 213.114 316.44C210.818 316.44 209.138 318.022 209.138 320.262C209.138 322.502 210.818 324.098 213.114 324.098ZM213.114 322.6C211.854 322.6 210.902 321.69 210.902 320.262C210.902 318.834 211.854 317.924 213.114 317.924C214.388 317.924 215.34 318.834 215.34 320.262C215.34 321.69 214.388 322.6 213.114 322.6ZM227.505 324H229.591L227.127 320.136L229.395 316.524H227.533L225.699 319.548H224.425V316.524H222.689V319.548H221.401L219.581 316.524H217.719L219.987 320.136L217.537 324H219.609L221.429 321.004H222.689V324H224.425V321.004H225.685L227.505 324ZM237.646 320.304C237.646 317.966 236.05 316.44 233.866 316.44C231.64 316.44 230.002 318.036 230.002 320.262C230.002 322.488 231.626 324.098 234.132 324.098C235.42 324.098 236.47 323.678 237.142 322.88L236.204 321.802C235.672 322.348 235.014 322.614 234.174 322.614C232.872 322.614 231.962 321.914 231.752 320.822H237.618C237.632 320.654 237.646 320.444 237.646 320.304ZM233.866 317.84C235.014 317.84 235.84 318.582 235.98 319.66H231.738C231.906 318.568 232.732 317.84 233.866 317.84ZM239.56 324H241.31V321.046H245.076V324H246.826V316.524H245.076V319.562H241.31V316.524H239.56V324ZM249.171 324H250.921V321.046H254.687V324H256.437V316.524H254.687V319.562H250.921V316.524H249.171V324ZM262.114 324.098C264.438 324.098 266.104 322.502 266.104 320.262C266.104 318.022 264.438 316.44 262.114 316.44C259.818 316.44 258.138 318.022 258.138 320.262C258.138 322.502 259.818 324.098 262.114 324.098ZM262.114 322.6C260.854 322.6 259.902 321.69 259.902 320.262C259.902 318.834 260.854 317.924 262.114 317.924C263.388 317.924 264.34 318.834 264.34 320.262C264.34 321.69 263.388 322.6 262.114 322.6ZM274.833 320.304C274.833 317.966 273.237 316.44 271.053 316.44C268.827 316.44 267.189 318.036 267.189 320.262C267.189 322.488 268.813 324.098 271.319 324.098C272.607 324.098 273.657 323.678 274.329 322.88L273.391 321.802C272.859 322.348 272.201 322.614 271.361 322.614C270.059 322.614 269.149 321.914 268.939 320.822H274.805C274.819 320.654 274.833 320.444 274.833 320.304ZM271.053 317.84C272.201 317.84 273.027 318.582 273.167 319.66H268.925C269.093 318.568 269.919 317.84 271.053 317.84ZM45.4709 338.516V332.524H39.3109L39.2129 335.086C39.1289 336.836 38.9469 338.474 37.8969 338.516H37.5469V341.666H39.1709V340H44.9389V341.666H46.5769V338.516H45.4709ZM40.8089 335.212L40.8509 334.008H43.7209V338.516H40.0389C40.6409 337.942 40.7529 336.612 40.8089 335.212ZM55.1399 336.304C55.1399 333.966 53.5439 332.44 51.3599 332.44C49.1339 332.44 47.4959 334.036 47.4959 336.262C47.4959 338.488 49.1199 340.098 51.6259 340.098C52.9139 340.098 53.9639 339.678 54.6359 338.88L53.6979 337.802C53.1659 338.348 52.5079 338.614 51.6679 338.614C50.3659 338.614 49.4559 337.914 49.2459 336.822H55.1119C55.1259 336.654 55.1399 336.444 55.1399 336.304ZM51.3599 333.84C52.5079 333.84 53.3339 334.582 53.4739 335.66H49.2319C49.3999 334.568 50.2259 333.84 51.3599 333.84ZM60.6799 331.642C62.1779 331.642 63.0039 330.942 63.0319 329.584H61.8419C61.8279 330.256 61.3799 330.676 60.6659 330.676C59.9379 330.676 59.5179 330.256 59.5039 329.584H58.3419C58.3559 330.942 59.1819 331.642 60.6799 331.642ZM57.0539 340H58.6639L62.7799 335.072V340H64.5299V332.524H62.9339L58.8039 337.452V332.524H57.0539V340ZM70.286 340.098C71.742 340.098 72.904 339.468 73.478 338.348L72.134 337.564C71.686 338.278 71.014 338.6 70.272 338.6C68.984 338.6 68.004 337.718 68.004 336.262C68.004 334.82 68.984 333.924 70.272 333.924C71.014 333.924 71.686 334.246 72.134 334.96L73.478 334.176C72.904 333.042 71.742 332.44 70.286 332.44C67.92 332.44 66.24 334.022 66.24 336.262C66.24 338.502 67.92 340.098 70.286 340.098ZM80.8724 332.524H73.8724V334.008H76.5044V340H78.2544V334.008H80.8724V332.524ZM87.5598 336.108C88.2738 335.8 88.7078 335.226 88.7078 334.456C88.7078 333.224 87.6158 332.524 85.7958 332.524H82.1418V340H85.9498C87.9658 340 88.9458 339.216 88.9458 337.9C88.9458 336.99 88.4838 336.388 87.5598 336.108ZM83.8078 333.798H85.6418C86.5378 333.798 86.9998 334.092 86.9998 334.708C86.9998 335.324 86.5378 335.646 85.6418 335.646H83.8078V333.798ZM85.8098 338.726H83.8078V336.808H85.8658C86.8178 336.808 87.2518 337.13 87.2518 337.788C87.2518 338.432 86.7478 338.726 85.8098 338.726ZM90.8098 340H92.4198L96.5358 335.072V340H98.2858V332.524H96.6898L92.5598 337.452V332.524H90.8098V340ZM107.64 336.304C107.64 333.966 106.044 332.44 103.86 332.44C101.634 332.44 99.9959 334.036 99.9959 336.262C99.9959 338.488 101.62 340.098 104.126 340.098C105.414 340.098 106.464 339.678 107.136 338.88L106.198 337.802C105.666 338.348 105.008 338.614 104.168 338.614C102.866 338.614 101.956 337.914 101.746 336.822H107.612C107.626 336.654 107.64 336.444 107.64 336.304ZM103.86 333.84C105.008 333.84 105.834 334.582 105.974 335.66H101.732C101.9 334.568 102.726 333.84 103.86 333.84ZM116.307 332.524C114.221 332.524 112.891 333.462 112.891 335.212C112.891 336.36 113.493 337.144 114.557 337.508L112.793 340H114.669L116.195 337.746H118.169V340H119.737V332.524H116.307ZM116.363 333.994H118.169V336.528H116.307C115.229 336.528 114.669 336.136 114.669 335.268C114.669 334.372 115.285 333.994 116.363 333.994ZM127.509 336.108C128.223 335.8 128.657 335.226 128.657 334.456C128.657 333.224 127.565 332.524 125.745 332.524H122.091V340H125.899C127.915 340 128.895 339.216 128.895 337.9C128.895 336.99 128.433 336.388 127.509 336.108ZM123.757 333.798H125.591C126.487 333.798 126.949 334.092 126.949 334.708C126.949 335.324 126.487 335.646 125.591 335.646H123.757V333.798ZM125.759 338.726H123.757V336.808H125.815C126.767 336.808 127.201 337.13 127.201 337.788C127.201 338.432 126.697 338.726 125.759 338.726ZM133.643 332.524C131.557 332.524 130.227 333.462 130.227 335.212C130.227 336.36 130.829 337.144 131.893 337.508L130.129 340H132.005L133.531 337.746H135.505V340H137.073V332.524H133.643ZM133.699 333.994H135.505V336.528H133.643C132.565 336.528 132.005 336.136 132.005 335.268C132.005 334.372 132.621 333.994 133.699 333.994ZM140.155 332.524L140.029 335.408C139.945 336.962 139.903 338.558 138.755 338.558C138.657 338.558 138.545 338.544 138.419 338.516L138.335 339.986C138.699 340.084 139.021 340.14 139.301 340.14C141.065 340.14 141.457 338.152 141.583 335.492L141.653 334.008H144.453V340H146.203V332.524H140.155ZM155.56 336.304C155.56 333.966 153.964 332.44 151.78 332.44C149.554 332.44 147.916 334.036 147.916 336.262C147.916 338.488 149.54 340.098 152.046 340.098C153.334 340.098 154.384 339.678 155.056 338.88L154.118 337.802C153.586 338.348 152.928 338.614 152.088 338.614C150.786 338.614 149.876 337.914 149.666 336.822H155.532C155.546 336.654 155.56 336.444 155.56 336.304ZM151.78 333.84C152.928 333.84 153.754 334.582 153.894 335.66H149.652C149.82 334.568 150.646 333.84 151.78 333.84ZM163.122 332.524H156.122V334.008H158.754V340H160.504V334.008H163.122V332.524ZM167.466 340.098C168.922 340.098 170.084 339.468 170.658 338.348L169.314 337.564C168.866 338.278 168.194 338.6 167.452 338.6C166.164 338.6 165.184 337.718 165.184 336.262C165.184 334.82 166.164 333.924 167.452 333.924C168.194 333.924 168.866 334.246 169.314 334.96L170.658 334.176C170.084 333.042 168.922 332.44 167.466 332.44C165.1 332.44 163.42 334.022 163.42 336.262C163.42 338.502 165.1 340.098 167.466 340.098ZM174.877 332.524C172.791 332.524 171.461 333.462 171.461 335.212C171.461 336.36 172.063 337.144 173.127 337.508L171.363 340H173.239L174.765 337.746H176.739V340H178.307V332.524H174.877ZM174.933 333.994H176.739V336.528H174.877C173.799 336.528 173.239 336.136 173.239 335.268C173.239 334.372 173.855 333.994 174.933 333.994ZM187.414 332.524C185.328 332.524 183.998 333.462 183.998 335.212C183.998 336.36 184.6 337.144 185.664 337.508L183.9 340H185.776L187.302 337.746H189.276V340H190.844V332.524H187.414ZM187.47 333.994H189.276V336.528H187.414C186.336 336.528 185.776 336.136 185.776 335.268C185.776 334.372 186.392 333.994 187.47 333.994ZM198.616 336.108C199.33 335.8 199.764 335.226 199.764 334.456C199.764 333.224 198.672 332.524 196.852 332.524H193.198V340H197.006C199.022 340 200.002 339.216 200.002 337.9C200.002 336.99 199.54 336.388 198.616 336.108ZM194.864 333.798H196.698C197.594 333.798 198.056 334.092 198.056 334.708C198.056 335.324 197.594 335.646 196.698 335.646H194.864V333.798ZM196.866 338.726H194.864V336.808H196.922C197.874 336.808 198.308 337.13 198.308 337.788C198.308 338.432 197.804 338.726 196.866 338.726ZM201.866 340H203.616V337.046H207.382V340H209.132V332.524H207.382V335.562H203.616V332.524H201.866V340ZM215.118 334.988L213.228 334.974V332.524H211.478V340L214.866 340.014C216.91 340.028 218.058 339.09 218.058 337.452C218.058 335.898 217.036 334.988 215.118 334.988ZM219.024 340H220.774V332.524H219.024V340ZM214.712 338.726L213.228 338.712V336.178L214.712 336.192C215.748 336.206 216.294 336.57 216.294 337.424C216.294 338.292 215.734 338.74 214.712 338.726ZM232.058 340L232.044 332.524H230.406L227.62 337.2L224.96 332.524H223.126V340H224.722V335.03L227.2 339.216H227.956L230.476 335.044V340H232.058ZM248.159 336.248C248.159 333.938 246.535 332.608 243.707 332.426V329.612H242.055V332.426C239.213 332.608 237.617 333.924 237.617 336.248C237.617 338.6 239.227 339.944 242.055 340.126V342.716H243.707V340.112C246.535 339.93 248.159 338.586 248.159 336.248ZM239.339 336.248C239.339 334.862 240.179 334.064 242.055 333.91V338.656C240.193 338.488 239.339 337.676 239.339 336.248ZM243.707 338.656V333.91C245.569 334.064 246.451 334.834 246.451 336.248C246.451 337.676 245.569 338.488 243.707 338.656ZM256.855 336.304C256.855 333.966 255.259 332.44 253.075 332.44C250.849 332.44 249.211 334.036 249.211 336.262C249.211 338.488 250.835 340.098 253.341 340.098C254.629 340.098 255.679 339.678 256.351 338.88L255.413 337.802C254.881 338.348 254.223 338.614 253.383 338.614C252.081 338.614 251.171 337.914 250.961 336.822H256.827C256.841 336.654 256.855 336.444 256.855 336.304ZM253.075 333.84C254.223 333.84 255.049 334.582 255.189 335.66H250.947C251.115 334.568 251.941 333.84 253.075 333.84ZM262.395 331.642C263.893 331.642 264.719 330.942 264.747 329.584H263.557C263.543 330.256 263.095 330.676 262.381 330.676C261.653 330.676 261.233 330.256 261.219 329.584H260.057C260.071 330.942 260.897 331.642 262.395 331.642ZM258.769 340H260.379L264.495 335.072V340H266.245V332.524H264.649L260.519 337.452V332.524H258.769V340ZM273.961 340H276.019L273.121 336.122L275.837 332.524H273.961L271.749 335.548H270.349V332.524H268.599V340H270.349V337.004H271.707L273.961 340ZM280.339 340.098C282.663 340.098 284.329 338.502 284.329 336.262C284.329 334.022 282.663 332.44 280.339 332.44C278.043 332.44 276.363 334.022 276.363 336.262C276.363 338.502 278.043 340.098 280.339 340.098ZM280.339 338.6C279.079 338.6 278.127 337.69 278.127 336.262C278.127 334.834 279.079 333.924 280.339 333.924C281.613 333.924 282.565 334.834 282.565 336.262C282.565 337.69 281.613 338.6 280.339 338.6ZM294.99 340L294.976 332.524H293.338L290.552 337.2L287.892 332.524H286.058V340H287.654V335.03L290.132 339.216H290.888L293.408 335.044V340H294.99ZM297.869 340.098C298.499 340.098 299.017 339.608 299.017 338.936C299.017 338.236 298.499 337.774 297.869 337.774C297.239 337.774 296.721 338.236 296.721 338.936C296.721 339.608 297.239 340.098 297.869 340.098Z" fill="black"/>
<path d="M250 5C250 26.7477 241.361 47.6048 225.983 62.9828C210.605 78.3607 189.748 87 168 87C146.252 87 125.395 78.3607 110.017 62.9828C94.6393 47.6048 86 26.7478 86 5.00002L168 5H250Z" fill="white"/>
<path d="M48.032 423.216C48.032 414.96 35.328 417.52 35.328 414.096C35.328 412.976 36.288 412.08 38.944 412.08C40.896 412.08 43.008 412.656 45.152 413.808L47.104 409.104C45.312 408.048 42.976 407.408 40.608 407.216V403.76H36.768V407.28C31.584 407.92 29.056 410.896 29.056 414.416C29.056 422.736 41.792 420.144 41.792 423.696C41.792 424.784 40.768 425.52 38.144 425.52C35.552 425.52 32.736 424.624 30.752 423.312L28.672 427.984C30.528 429.264 33.568 430.192 36.768 430.416V433.84H40.608V430.288C45.6 429.552 48.032 426.608 48.032 423.216Z" fill="#2862F3"/>
<path d="M70.78 426.24C74.24 426.24 76.78 423.62 76.78 419C76.78 414.38 74.24 411.76 70.78 411.76C67.34 411.76 64.78 414.38 64.78 419C64.78 423.62 67.34 426.24 70.78 426.24ZM70.78 423.5C69.18 423.5 68.06 422.18 68.06 419C68.06 415.82 69.18 414.5 70.78 414.5C72.4 414.5 73.52 415.82 73.52 419C73.52 422.18 72.4 423.5 70.78 423.5ZM79.9603 422.28C78.8603 422.28 78.0203 423.04 78.0203 424.2C78.0203 425.02 78.4403 425.64 79.1003 425.9L78.2203 429.08H80.2003L81.3403 426.2C81.8003 425.1 81.8803 424.72 81.8803 424.2C81.8803 423.06 81.0803 422.28 79.9603 422.28ZM89.0808 426.24C92.5408 426.24 95.0808 423.62 95.0808 419C95.0808 414.38 92.5408 411.76 89.0808 411.76C85.6408 411.76 83.0808 414.38 83.0808 419C83.0808 423.62 85.6408 426.24 89.0808 426.24ZM89.0808 423.5C87.4808 423.5 86.3608 422.18 86.3608 419C86.3608 415.82 87.4808 414.5 89.0808 414.5C90.7008 414.5 91.8208 415.82 91.8208 419C91.8208 422.18 90.7008 423.5 89.0808 423.5ZM102.655 426.24C106.115 426.24 108.655 423.62 108.655 419C108.655 414.38 106.115 411.76 102.655 411.76C99.215 411.76 96.655 414.38 96.655 419C96.655 423.62 99.215 426.24 102.655 426.24ZM102.655 423.5C101.055 423.5 99.935 422.18 99.935 419C99.935 415.82 101.055 414.5 102.655 414.5C104.275 414.5 105.395 415.82 105.395 419C105.395 422.18 104.275 423.5 102.655 423.5Z" fill="black"/>
<path d="M236.14 412V414.6H238.94V426H242.18V412H236.14ZM249.412 417.26H248.272L248.492 414.6H254.332V412H245.792L245.072 419.88H248.652C251.192 419.88 251.912 420.6 251.912 421.7C251.912 422.84 250.912 423.52 249.292 423.52C247.832 423.52 246.372 423.06 245.312 422.26L244.032 424.74C245.392 425.7 247.432 426.24 249.372 426.24C253.372 426.24 255.192 424.08 255.192 421.6C255.192 419.12 253.552 417.26 249.412 417.26ZM276.211 426L276.171 415.24H273.251L269.591 421.46L266.151 415.24H262.891V426H265.711V419.54L268.851 424.96H270.171L273.391 419.56V426H276.211ZM279.199 426H282.079L287.299 419.6V426H290.399V415.24H287.539L282.299 421.64V415.24H279.199V426ZM293.398 426H296.498V421.98H301.178V426H304.298V415.24H301.178V419.44H296.498V415.24H293.398V426Z" fill="black"/>
<path d="M216.5 406C209.595 406 204 411.595 204 418.5C204 425.405 209.595 431 216.5 431C223.405 431 229 425.405 229 418.5C229 411.595 223.405 406 216.5 406Z" fill="#2862F3"/>
<path fill-rule="evenodd" clip-rule="evenodd" d="M215.961 410C214.878 410 214 410.878 214 411.961V419.153C214 419.311 214.019 419.464 214.054 419.611C214.047 420.263 214.376 420.901 214.974 421.262L220.414 424.535C221.313 425.077 222.481 424.786 223.022 423.887C223.563 422.988 223.273 421.82 222.374 421.279L217.923 418.6V411.961C217.923 410.878 217.045 410 215.961 410Z" fill="white"/>
<g filter="url(#filter0_d)">
<path d="M162.531 400.393L185.975 433.213C179.766 434.57 168.698 428.331 168.698 428.331C168.698 428.331 160.834 438.706 154.912 440L162.531 400.393Z" fill="white"/>
</g>
<path fill-rule="evenodd" clip-rule="evenodd" d="M154.912 440L158.469 421.51C161.522 424.284 164.956 426.604 168.698 428.331C168.698 428.331 160.834 438.706 154.912 440Z" fill="#AFD4FF"/>
<path d="M166.553 37.19H163.827L164.349 31.274H180.705V22.4H154.837L152.807 46.122H163.827C170.033 46.122 171.715 47.746 171.715 50.24C171.715 52.966 169.105 54.532 165.219 54.532C161.333 54.532 157.273 53.372 153.967 51.168L149.849 59.81C153.967 62.42 159.941 63.812 165.567 63.812C177.805 63.812 183.257 57.2 183.257 49.95C183.257 42.758 178.559 37.19 166.553 37.19Z" fill="#2862F3"/>
<g filter="url(#filter1_di)">
<path d="M119.649 157.259C118.622 157.259 117.795 156.946 117.169 156.321C116.543 155.696 116.229 154.87 116.229 153.845V133.774C116.229 132.749 116.505 131.961 117.056 131.411C117.607 130.861 118.397 130.586 119.424 130.586H132.052C133.179 130.586 134.006 130.811 134.532 131.261C135.058 131.686 135.321 132.374 135.321 133.324C135.321 134.25 135.046 134.925 134.494 135.35C133.968 135.775 133.154 135.988 132.052 135.988H123.032V140.865H131.3C132.402 140.865 133.217 141.09 133.743 141.54C134.294 141.99 134.57 142.678 134.57 143.603C134.57 144.529 134.294 145.204 133.743 145.629C133.217 146.054 132.402 146.267 131.3 146.267H123.032V153.845C123.032 154.895 122.719 155.733 122.092 156.359C121.491 156.959 120.677 157.259 119.649 157.259Z" fill="white"/>
<path d="M163.222 152.795C163.447 153.27 163.56 153.732 163.56 154.183C163.56 155.008 163.222 155.708 162.545 156.283C161.894 156.859 161.142 157.146 160.291 157.146C159.714 157.146 159.188 156.996 158.712 156.696C158.236 156.396 157.86 155.946 157.585 155.346L155.893 151.557H143.717L141.988 155.346C141.712 155.946 141.324 156.396 140.823 156.696C140.347 156.996 139.821 157.146 139.244 157.146C138.393 157.146 137.616 156.859 136.914 156.283C136.238 155.708 135.9 155.008 135.9 154.183C135.9 153.732 136.012 153.27 136.238 152.795L146.16 132.461C146.485 131.786 146.961 131.273 147.588 130.923C148.239 130.548 148.953 130.36 149.73 130.36C150.482 130.36 151.183 130.548 151.835 130.923C152.486 131.273 152.975 131.786 153.3 132.461L163.222 152.795ZM146.047 146.379H153.563L149.805 138.014L146.047 146.379Z" fill="white"/>
<path d="M190.685 151.857C191.336 152.482 191.662 153.207 191.662 154.033C191.662 154.858 191.349 155.583 190.723 156.208C190.096 156.834 189.357 157.146 188.505 157.146C187.578 157.146 186.726 156.746 185.95 155.946L175.239 144.991V153.845C175.239 154.895 174.925 155.733 174.299 156.359C173.673 156.959 172.821 157.259 171.743 157.259C170.691 157.259 169.852 156.959 169.225 156.359C168.624 155.733 168.323 154.895 168.323 153.845V133.774C168.323 132.749 168.624 131.936 169.225 131.336C169.852 130.711 170.691 130.398 171.743 130.398C172.821 130.398 173.673 130.711 174.299 131.336C174.925 131.936 175.239 132.749 175.239 133.774V142.028L185.799 131.411C186.451 130.736 187.19 130.398 188.017 130.398C188.843 130.398 189.57 130.711 190.196 131.336C190.823 131.936 191.136 132.649 191.136 133.474C191.136 134.3 190.773 135.062 190.046 135.763L182.342 143.303L190.685 151.857Z" fill="white"/>
<path d="M199.639 157.034C198.611 157.034 197.822 156.759 197.271 156.208C196.72 155.658 196.444 154.87 196.444 153.845V133.774C196.444 132.749 196.72 131.961 197.271 131.411C197.822 130.861 198.611 130.586 199.639 130.586H212.642C213.719 130.586 214.534 130.811 215.085 131.261C215.636 131.711 215.912 132.361 215.912 133.212C215.912 135.012 214.822 135.913 212.642 135.913H203.171V140.94H211.89C214.07 140.94 215.16 141.828 215.16 143.603C215.16 144.454 214.884 145.104 214.333 145.554C213.782 146.004 212.968 146.229 211.89 146.229H203.171V151.707H212.642C214.822 151.707 215.912 152.607 215.912 154.408C215.912 155.258 215.636 155.908 215.085 156.359C214.534 156.809 213.719 157.034 212.642 157.034H199.639Z" fill="white"/>
<path fill-rule="evenodd" clip-rule="evenodd" d="M238.05 120H93.2996C88.8813 120 85.2996 123.582 85.2996 128V158.828C85.2996 163.247 88.8813 166.828 93.2995 166.828H238.05C242.469 166.828 246.05 163.247 246.05 158.828V128C246.05 123.582 242.469 120 238.05 120ZM93.2996 109C82.8062 109 74.2996 117.507 74.2996 128V158.828C74.2996 169.322 82.8061 177.828 93.2995 177.828H238.05C248.544 177.828 257.05 169.322 257.05 158.828V128C257.05 117.507 248.544 109 238.05 109H93.2996Z" fill="white"/>
</g>
<defs>
<filter id="filter0_d" x="150.912" y="396.393" width="45.0628" height="53.6066" filterUnits="userSpaceOnUse" color-interpolation-filters="sRGB">
<feFlood flood-opacity="0" result="BackgroundImageFix"/>
<feColorMatrix in="SourceAlpha" type="matrix" values="0 0 0 0 0 0 0 0 0 0 0 0 0 0 0 0 0 0 127 0"/>
<feOffset dx="3" dy="3"/>
<feGaussianBlur stdDeviation="3.5"/>
<feColorMatrix type="matrix" values="0 0 0 0 0.11124 0 0 0 0 0.205788 0 0 0 0 0.754167 0 0 0 0.66 0"/>
<feBlend mode="normal" in2="BackgroundImageFix" result="effect1_dropShadow"/>
<feBlend mode="normal" in="SourceGraphic" in2="effect1_dropShadow" result="shape"/>
</filter>
<filter id="filter1_di" x="68.2996" y="103" width="202.751" height="88.8283" filterUnits="userSpaceOnUse" color-interpolation-filters="sRGB">
<feFlood flood-opacity="0" result="BackgroundImageFix"/>
<feColorMatrix in="SourceAlpha" type="matrix" values="0 0 0 0 0 0 0 0 0 0 0 0 0 0 0 0 0 0 127 0"/>
<feOffset dx="4" dy="4"/>
<feGaussianBlur stdDeviation="5"/>
<feColorMatrix type="matrix" values="0 0 0 0 0.168813 0 0 0 0 0.394509 0 0 0 0 0.9125 0 0 0 1 0"/>
<feBlend mode="normal" in2="BackgroundImageFix" result="effect1_dropShadow"/>
<feBlend mode="normal" in="SourceGraphic" in2="effect1_dropShadow" result="shape"/>
<feColorMatrix in="SourceAlpha" type="matrix" values="0 0 0 0 0 0 0 0 0 0 0 0 0 0 0 0 0 0 127 0" result="hardAlpha"/>
<feOffset dx="-2" dy="-2"/>
<feGaussianBlur stdDeviation="2"/>
<feComposite in2="hardAlpha" operator="arithmetic" k2="-1" k3="1"/>
<feColorMatrix type="matrix" values="0 0 0 0 0.564167 0 0 0 0 0.713194 0 0 0 0 1 0 0 0 1 0"/>
<feBlend mode="normal" in2="shape" result="effect2_innerShadow"/>
</filter>
<linearGradient id="paint0_linear" x1="57.5" y1="-9" x2="289.5" y2="495.5" gradientUnits="userSpaceOnUse">
<stop stop-color="#3793FF"/>
<stop offset="1" stop-color="#141CE1"/>
</linearGradient>
<linearGradient id="paint1_linear" x1="49" y1="11" x2="301.5" y2="474" gradientUnits="userSpaceOnUse">
<stop stop-color="#6369FF"/>
<stop offset="1" stop-color="#51B5F4"/>
</linearGradient>
<linearGradient id="paint2_linear" x1="57.5" y1="-9" x2="289.5" y2="495.5" gradientUnits="userSpaceOnUse">
<stop stop-color="#00E0FF"/>
<stop offset="1" stop-color="#42F2D1"/>
</linearGradient>
<linearGradient id="paint3_linear" x1="49" y1="11" x2="301.5" y2="474" gradientUnits="userSpaceOnUse">
<stop stop-color="#51B5F5"/>
<stop offset="1" stop-color="#28D7BE"/>
</linearGradient>
<linearGradient id="paint4_linear" x1="308.165" y1="473.49" x2="92.7043" y2="54.1817" gradientUnits="userSpaceOnUse">
<stop stop-color="#73F5FF"/>
<stop offset="0.99" stop-color="#7AFFEC"/>
</linearGradient>
<linearGradient id="paint5_linear" x1="18.7592" y1="227" x2="211" y2="227" gradientUnits="userSpaceOnUse">
<stop stop-color="white"/>
<stop offset="0.99" stop-color="white" stop-opacity="0.4"/>
</linearGradient>
<linearGradient id="paint6_linear" x1="176.9" y1="65" x2="257" y2="65" gradientUnits="userSpaceOnUse">
<stop stop-color="white"/>
<stop offset="0.99" stop-color="white" stop-opacity="0.4"/>
</linearGradient>
</defs>
</svg>
