<svg width="338" height="474" viewBox="0 0 338 474" fill="none" xmlns="http://www.w3.org/2000/svg">
<rect x="2.5" y="2.5" width="331" height="469" rx="32.5" fill="url(#paint0_linear)" stroke="url(#paint1_linear)" stroke-width="5"/>
<mask id="mask0" mask-type="alpha" maskUnits="userSpaceOnUse" x="2" y="0" width="336" height="474">
<rect x="4.5" y="2.5" width="331" height="469" rx="41.5" fill="url(#paint2_linear)" stroke="url(#paint3_linear)" stroke-width="5"/>
</mask>
<g mask="url(#mask0)">
<path d="M198.89 5.0093C198.89 5.0093 97.8208 47.0947 93.9888 101.845C90.1568 156.595 112.775 152.615 106.069 185.086C99.3631 217.557 -10.9124 255.616 18.7856 356.766C48.4837 457.916 142.368 370.584 242 469H35C18.4315 469 5 455.569 5 439V35.0014C5 18.4323 18.4323 5.00064 35.0014 5.00144L198.89 5.0093Z" fill="url(#paint4_linear)" fill-opacity="0.5"/>
</g>
<path opacity="0.46" d="M219.887 378C202.092 377.978 184.702 372.68 169.917 362.777C155.131 352.875 143.613 338.811 136.819 322.363C130.024 305.916 128.258 287.824 131.743 270.373C135.229 252.922 143.809 236.896 156.4 224.321C168.992 211.745 185.028 203.185 202.483 199.721C219.939 196.258 238.029 198.046 254.468 204.862C270.906 211.677 284.956 223.212 294.84 238.01C304.724 252.808 310 270.204 310 288C309.958 311.876 300.447 334.761 283.553 351.633C266.66 368.506 243.763 377.988 219.887 378ZM219.887 222.747C206.985 222.764 194.378 226.607 183.659 233.788C172.94 240.969 164.59 251.166 159.665 263.091C154.74 275.016 153.461 288.134 155.989 300.786C158.517 313.438 164.739 325.056 173.868 334.173C182.998 343.29 194.625 349.496 207.28 352.006C219.936 354.517 233.051 353.219 244.97 348.278C256.888 343.336 267.074 334.972 274.24 324.243C281.406 313.515 285.231 300.902 285.231 288C285.177 270.703 278.27 254.132 266.022 241.918C253.774 229.704 237.184 222.843 219.887 222.837V222.747Z" fill="url(#paint5_linear)"/>
<path opacity="0.46" d="M99.9498 126C92.0407 125.99 84.3121 123.636 77.7407 119.234C71.1694 114.833 66.0503 108.583 63.0305 101.273C60.0106 93.9627 59.2257 85.9216 60.7747 78.1657C62.3238 70.4097 66.1374 63.2871 71.7335 57.698C77.3296 52.1089 84.457 48.3043 92.2148 46.7649C99.9727 45.2256 108.013 46.0207 115.319 49.0496C122.625 52.0786 128.869 57.2055 133.262 63.7824C137.655 70.3593 140 78.0909 140 86C139.981 96.6116 135.754 106.783 128.246 114.281C120.738 121.78 110.561 125.995 99.9498 126ZM99.9498 56.9985C94.2156 57.0064 88.6124 58.7141 83.8484 61.9056C79.0844 65.0972 75.3735 69.6294 73.1846 74.9294C70.9957 80.2294 70.4271 86.0594 71.5506 91.6825C72.6742 97.3056 75.4395 102.469 79.497 106.521C83.5545 110.573 88.7222 113.331 94.3468 114.447C99.9715 115.563 105.801 114.986 111.098 112.79C116.395 110.594 120.922 106.877 124.107 102.108C127.292 97.3398 128.991 91.7342 128.991 86C128.968 78.3124 125.898 70.9477 120.454 65.5193C115.011 60.0908 107.637 57.0412 99.9498 57.0386V56.9985Z" fill="url(#paint6_linear)"/>
<path d="M57.6961 259.232V246.2H44.1601L43.9681 251.384C43.8001 255.872 43.2481 259.184 41.1121 259.232H40.5121V266.384H44.8801V263H55.6321V266.384H59.9761V259.232H57.6961ZM48.1201 251.792L48.1921 249.968H53.0161V259.232H46.6561C47.6401 257.816 48.0001 255.08 48.1201 251.792Z" fill="black"/>
<path d="M76.548 263H81.492L74.052 246.2H69.372L61.956 263H66.804L68.124 259.736H75.228L76.548 263ZM69.516 256.232L71.676 250.856L73.836 256.232H69.516Z" fill="black"/>
<path d="M92.2972 246.2H84.6172V263H89.3692V258.608H92.2972C96.8812 258.608 99.7612 256.232 99.7612 252.416C99.7612 248.576 96.8812 246.2 92.2972 246.2ZM92.0092 254.864H89.3692V249.944H92.0092C93.9772 249.944 94.9612 250.856 94.9612 252.416C94.9612 253.952 93.9772 254.864 92.0092 254.864Z" fill="black"/>
<path d="M111.682 251.552H107.794V246.2H103.114V263H111.058C115.426 263 118.138 260.96 118.138 257.024C118.138 253.352 115.762 251.552 111.682 251.552ZM110.746 259.592H107.794V254.936H110.746C112.354 254.936 113.362 255.536 113.362 257.12C113.362 258.704 112.33 259.592 110.746 259.592Z" fill="black"/>
<path d="M127.295 246.2C122.687 246.2 119.783 248.624 119.783 252.584C119.783 255.2 121.031 257.096 123.239 258.08L119.831 263H124.823L127.583 258.776H130.175V263H134.855V246.2H127.295ZM127.391 249.944H130.175V255.104H127.343C125.543 255.104 124.583 254.192 124.583 252.512C124.583 250.808 125.543 249.944 127.391 249.944Z" fill="black"/>
<path d="M147.847 263H152.335L159.247 253.16V263H163.927V246.2H159.463L152.527 256.064V246.2H147.847V263Z" fill="black"/>
<path d="M186.83 246.2V259.232H182.486V246.2H177.806V259.232H173.414V246.2H168.734V263H191.51V246.2H186.83Z" fill="black"/>
<path d="M196.302 263H200.79L207.702 253.16V263H212.382V246.2H207.918L200.982 256.064V246.2H196.302V263Z" fill="black"/>
<path d="M236.725 263L236.677 246.2H232.765L227.005 255.896L221.101 246.2H217.189V263H221.557V254.288L225.877 261.344H227.989L232.309 254.096L232.333 263H236.725Z" fill="black"/>
<path d="M249.754 263.336C255.13 263.336 259.09 259.64 259.09 254.6C259.09 249.56 255.13 245.864 249.754 245.864C244.378 245.864 240.418 249.56 240.418 254.6C240.418 259.64 244.378 263.336 249.754 263.336ZM249.754 259.4C247.21 259.4 245.218 257.504 245.218 254.6C245.218 251.696 247.21 249.8 249.754 249.8C252.298 249.8 254.29 251.696 254.29 254.6C254.29 257.504 252.298 259.4 249.754 259.4Z" fill="black"/>
<path d="M275.071 254.216C276.511 253.496 277.351 252.224 277.351 250.568C277.351 247.784 274.999 246.2 270.991 246.2H262.831V263H271.447C275.767 263 278.119 261.152 278.119 258.2C278.119 256.184 277.015 254.84 275.071 254.216ZM267.511 249.608H270.535C271.879 249.608 272.551 250.184 272.551 251.264C272.551 252.368 271.879 252.92 270.535 252.92H267.511V249.608ZM271.255 259.592H267.511V256.136H271.255C272.623 256.136 273.319 256.688 273.319 257.84C273.319 258.992 272.623 259.592 271.255 259.592Z" fill="black"/>
<path d="M294.803 263H299.747L292.307 246.2H287.627L280.211 263H285.059L286.379 259.736H293.483L294.803 263ZM287.771 256.232L289.931 250.856L292.091 256.232H287.771Z" fill="black"/>
<path fill-rule="evenodd" clip-rule="evenodd" d="M53.0161 259.232V249.968H48.1921L48.1201 251.792C48.0961 252.45 48.0625 253.086 48.0161 253.694C48.0023 253.876 47.9873 254.055 47.9711 254.232C47.8354 255.709 47.6146 256.997 47.2603 258C47.0911 258.479 46.8915 258.893 46.6561 259.232H53.0161ZM44.8801 266.384H40.5121V259.232H41.1121C41.3066 259.228 41.4879 259.196 41.657 259.139C41.6849 259.13 41.7124 259.12 41.7397 259.109C41.9833 259.013 42.2006 258.862 42.3946 258.661C42.782 258.259 43.0761 257.659 43.3001 256.9C43.6944 255.564 43.8716 253.738 43.9581 251.64C43.9583 251.636 43.9584 251.632 43.9586 251.628C43.9619 251.547 43.9651 251.466 43.9681 251.384L44.1601 246.2H57.6961V259.232H59.9761V266.384H55.6321V263H44.8801V266.384ZM50.8991 268H49.6132C48.9414 269.968 47.0761 271.384 44.8801 271.384H40.5121C37.7507 271.384 35.5121 269.145 35.5121 266.384V259.232C35.5121 257.111 36.833 255.298 38.697 254.572C38.727 254.381 38.7565 254.165 38.7844 253.924C38.8726 253.159 38.9321 252.252 38.9716 251.199C38.9716 251.199 38.9716 251.198 38.9716 251.198C38.9716 251.198 38.9716 251.198 38.9716 251.198L39.1636 246.015C39.2631 243.327 41.4707 241.2 44.1601 241.2H57.6961C60.4576 241.2 62.6961 243.439 62.6961 246.2V248.942L64.7978 244.181C65.5976 242.369 67.3914 241.2 69.372 241.2H74.052C76.0303 241.2 77.8226 242.366 78.6237 244.175L79.6172 246.419V246.2C79.6172 243.439 81.8558 241.2 84.6172 241.2H92.2972C94.7569 241.2 97.2192 241.704 99.3438 242.916C100.26 241.864 101.61 241.2 103.114 241.2H107.794C110.556 241.2 112.794 243.439 112.794 246.2V246.587C113.887 246.656 115.003 246.834 116.086 247.172C116.7 246.021 117.531 244.978 118.582 244.089C121.023 242.025 124.16 241.2 127.295 241.2H134.855C137.616 241.2 139.855 243.439 139.855 246.2V263C139.855 265.761 137.616 268 134.855 268H130.175C129.19 268 128.272 267.715 127.498 267.224C126.709 267.723 125.785 268 124.823 268H119.831C118.696 268 117.619 267.616 116.756 266.943C114.937 267.71 112.961 268 111.058 268H103.114C100.353 268 98.1141 265.761 98.1141 263V262.502C96.9191 263.01 95.6459 263.328 94.3459 263.486C94.1014 266.02 91.9666 268 89.3692 268H84.6172C84.0707 268 83.5447 267.912 83.0525 267.75C82.5555 267.914 82.0295 268 81.492 268H76.548C74.5104 268 72.6766 266.764 71.9127 264.875L71.8566 264.736H71.4953L71.4393 264.875C70.6753 266.764 68.8416 268 66.804 268H64.7092C64.0374 269.968 62.1721 271.384 59.9761 271.384H55.6321C53.4362 271.384 51.5709 269.968 50.8991 268ZM81.492 263L74.052 246.2H69.372L61.956 263H66.804L68.124 259.736H75.228L76.548 263H81.492ZM71.676 250.856L69.516 256.232H73.836L71.676 250.856ZM89.3692 263V258.608H92.2972C94.8154 258.608 96.8193 257.891 98.1141 256.612C99.1763 255.563 99.7612 254.136 99.7612 252.416C99.7612 250.685 99.1763 249.252 98.1141 248.2C96.8193 246.917 94.8154 246.2 92.2972 246.2H84.6172V263H89.3692ZM89.3692 254.864H92.0092C92.1077 254.864 92.2037 254.862 92.2972 254.857C93.236 254.812 93.9267 254.54 94.3692 254.078C94.7639 253.667 94.9612 253.104 94.9612 252.416C94.9612 251.717 94.7639 251.149 94.3692 250.734C93.9267 250.268 93.236 249.996 92.2972 249.951C92.2037 249.946 92.1077 249.944 92.0092 249.944H89.3692V254.864ZM103.114 263H111.058C112.535 263 113.822 262.767 114.879 262.306C115.658 261.967 116.313 261.504 116.826 260.919C117.079 260.631 117.297 260.314 117.479 259.968C117.898 259.171 118.125 258.221 118.138 257.12C118.138 257.088 118.138 257.056 118.138 257.024C118.138 256.905 118.136 256.788 118.131 256.673C118.049 254.785 117.302 253.426 115.99 252.584C115.633 252.355 115.234 252.164 114.795 252.011C113.913 251.705 112.87 251.552 111.682 251.552H107.794V246.2H103.114V263ZM107.794 259.592H110.746C110.853 259.592 110.957 259.588 111.058 259.58C111.795 259.522 112.392 259.255 112.794 258.801C113.159 258.389 113.362 257.823 113.362 257.12C113.362 257.088 113.362 257.056 113.361 257.024C113.343 256.365 113.144 255.884 112.794 255.551C112.514 255.285 112.138 255.113 111.682 255.02C111.4 254.963 111.086 254.936 110.746 254.936H107.794V259.592ZM130.175 263H134.855V246.2H127.295C123.919 246.2 121.458 247.501 120.383 249.753C119.999 250.557 119.792 251.482 119.783 252.512C119.783 252.536 119.783 252.56 119.783 252.584C119.783 254.296 120.317 255.699 121.305 256.741C121.398 256.838 121.494 256.933 121.595 257.024C121.831 257.239 122.09 257.436 122.369 257.614C122.589 257.754 122.821 257.883 123.065 258C123.077 258.006 123.089 258.011 123.1 258.017C123.146 258.038 123.192 258.059 123.239 258.08L119.831 263H124.823L127.583 258.776H130.175V263ZM130.175 255.104V249.944H127.391C127.358 249.944 127.326 249.944 127.295 249.945C126.338 249.961 125.628 250.216 125.175 250.707C124.782 251.133 124.583 251.735 124.583 252.512C124.583 252.536 124.583 252.56 124.583 252.584C124.594 253.202 124.737 253.714 125.008 254.11C125.059 254.185 125.115 254.256 125.175 254.323C125.189 254.339 125.204 254.354 125.219 254.37C125.669 254.838 126.353 255.088 127.256 255.103C127.285 255.104 127.314 255.104 127.343 255.104H130.175ZM38.4364 255.681C38.4362 255.681 38.4391 255.674 38.4454 255.661C38.4397 255.675 38.4365 255.681 38.4364 255.681ZM147.847 268C145.085 268 142.847 265.761 142.847 263V246.2C142.847 243.439 145.085 241.2 147.847 241.2H152.527C153.874 241.2 155.096 241.732 155.995 242.598C156.918 241.71 158.158 241.2 159.463 241.2H163.927C164.798 241.2 165.617 241.423 166.331 241.815C167.044 241.423 167.863 241.2 168.734 241.2H173.414C174.202 241.2 174.948 241.382 175.61 241.707C176.273 241.382 177.019 241.2 177.806 241.2H182.486C183.265 241.2 184.002 241.378 184.658 241.695C185.315 241.378 186.052 241.2 186.83 241.2H191.51C192.378 241.2 193.195 241.421 193.906 241.81C194.617 241.421 195.434 241.2 196.302 241.2H200.982C202.328 241.2 203.551 241.732 204.45 242.598C205.372 241.71 206.612 241.2 207.918 241.2H212.382C213.253 241.2 214.072 241.423 214.785 241.815C215.499 241.423 216.318 241.2 217.189 241.2H221.101C222.846 241.2 224.464 242.109 225.372 243.6L226.952 246.195L228.466 243.646C229.367 242.13 231.001 241.2 232.765 241.2H236.677C238.495 241.2 240.086 242.17 240.961 243.621C243.403 241.861 246.464 240.864 249.754 240.864C253.045 240.864 256.106 241.861 258.547 243.62C259.422 242.17 261.014 241.2 262.831 241.2H270.991C273.546 241.2 276.265 241.688 278.495 243.212C279.989 244.232 281.087 245.604 281.721 247.198L283.052 244.181C283.852 242.369 285.646 241.2 287.627 241.2H292.307C294.285 241.2 296.077 242.366 296.878 244.175L304.318 260.975C305.003 262.522 304.86 264.31 303.937 265.727C303.015 267.145 301.438 268 299.747 268H294.803C292.765 268 290.931 266.764 290.167 264.875L290.111 264.736H289.75L289.694 264.875C288.93 266.764 287.096 268 285.059 268H280.211C279.095 268 278.03 267.628 277.168 266.968C275.371 267.716 273.392 268 271.447 268H262.831C261.014 268 259.423 267.03 258.547 265.58C256.106 267.339 253.045 268.336 249.754 268.336C246.479 268.336 243.43 267.348 240.994 265.603C240.79 265.937 240.547 266.249 240.266 266.53C239.328 267.471 238.054 268 236.725 268H232.333C230.841 268 229.5 267.346 228.584 266.309C228.388 266.332 228.189 266.344 227.989 266.344H225.877C225.684 266.344 225.493 266.333 225.304 266.311C224.388 267.347 223.049 268 221.557 268H217.189C216.318 268 215.499 267.777 214.785 267.385C214.072 267.777 213.253 268 212.382 268H207.702C206.361 268 205.143 267.472 204.246 266.613C203.324 267.495 202.089 268 200.79 268H196.302C195.434 268 194.617 267.779 193.906 267.39C193.195 267.779 192.378 268 191.51 268H168.734C167.863 268 167.044 267.777 166.331 267.385C165.617 267.777 164.798 268 163.927 268H159.247C157.906 268 156.689 267.472 155.791 266.613C154.869 267.495 153.635 268 152.335 268H147.847ZM159.247 263H163.927V246.2H159.463L152.527 256.064V246.2H147.847V263H152.335L159.247 253.16V263ZM191.51 263V246.2H186.83V259.232H182.486V246.2H177.806V259.232H173.414V246.2H168.734V263H191.51ZM207.702 263H212.382V246.2H207.918L200.982 256.064V246.2H196.302V263H200.79L207.702 253.16V263ZM221.557 263V254.288L225.877 261.344H227.989L232.309 254.096L232.333 263H236.725V262.988L236.677 246.2H232.765L227.005 255.896L221.101 246.2H217.189V263H221.557ZM241.714 259.218C243.303 261.741 246.223 263.336 249.754 263.336C253.313 263.336 256.251 261.716 257.831 259.159C258.638 257.854 259.09 256.304 259.09 254.6C259.09 252.896 258.638 251.346 257.831 250.041C256.251 247.484 253.313 245.864 249.754 245.864C246.203 245.864 243.27 247.477 241.688 250.024C240.875 251.333 240.418 252.889 240.418 254.6C240.418 256.329 240.885 257.9 241.714 259.218ZM262.831 263H271.447C272.964 263 274.238 262.772 275.253 262.349C275.823 262.111 276.311 261.812 276.714 261.457C277.631 260.649 278.111 259.552 278.119 258.233C278.119 258.222 278.119 258.211 278.119 258.2C278.119 258.078 278.115 257.958 278.107 257.84C278.067 257.264 277.931 256.748 277.706 256.293C277.435 255.746 277.034 255.288 276.516 254.919C276.106 254.628 275.623 254.393 275.071 254.216C275.63 253.936 276.099 253.574 276.463 253.137C276.901 252.613 277.188 251.983 277.299 251.264C277.334 251.04 277.351 250.808 277.351 250.568C277.351 250.262 277.323 249.97 277.267 249.693C276.813 247.454 274.558 246.2 270.991 246.2H262.831V263ZM267.511 259.592H271.255C271.321 259.592 271.385 259.591 271.447 259.588C271.875 259.569 272.229 259.486 272.511 259.341C272.761 259.211 272.954 259.033 273.088 258.806C273.143 258.714 273.187 258.615 273.223 258.507C273.254 258.411 273.278 258.309 273.294 258.2C273.311 258.087 273.319 257.967 273.319 257.84C273.319 257.827 273.319 257.813 273.319 257.8C273.319 257.779 273.318 257.759 273.317 257.739C273.314 257.643 273.305 257.551 273.291 257.464C273.209 256.948 272.948 256.587 272.511 256.372C272.188 256.214 271.769 256.136 271.255 256.136H267.511V259.592ZM270.535 252.92C270.802 252.92 271.042 252.898 271.255 252.855C271.967 252.71 272.386 252.325 272.511 251.698C272.532 251.593 272.545 251.482 272.549 251.364C272.551 251.331 272.551 251.298 272.551 251.264C272.551 251.252 272.551 251.239 272.551 251.227C272.551 251.193 272.549 251.161 272.548 251.128C272.542 251.027 272.53 250.93 272.511 250.838C272.492 250.743 272.466 250.653 272.433 250.568C272.414 250.521 272.394 250.476 272.371 250.432C272.316 250.327 272.248 250.231 272.168 250.145C271.908 249.867 271.516 249.694 270.991 249.633C270.849 249.616 270.697 249.608 270.535 249.608H267.511V252.92H270.535ZM292.307 246.2H287.627L280.211 263H285.059L286.379 259.736H293.483L294.803 263H299.747L292.307 246.2ZM289.931 250.856L287.771 256.232H292.091L289.931 250.856ZM249.868 254.432C249.805 254.406 249.763 254.401 249.754 254.4C249.745 254.401 249.704 254.406 249.641 254.432C249.559 254.465 249.472 254.522 249.396 254.599C249.396 254.599 249.395 254.6 249.395 254.6C249.395 254.6 249.396 254.601 249.396 254.601C249.472 254.679 249.559 254.735 249.641 254.768C249.704 254.794 249.746 254.799 249.754 254.8C249.755 254.8 249.754 254.8 249.754 254.8M250.114 254.6C250.113 254.6 250.113 254.601 250.113 254.601C250.037 254.679 249.95 254.735 249.868 254.768C249.806 254.794 249.764 254.799 249.754 254.8M249.868 254.432C249.95 254.465 250.037 254.522 250.113 254.599ZM250.113 254.599C250.113 254.599 250.113 254.6 250.114 254.6ZM245.218 254.6C245.218 257.504 247.21 259.4 249.754 259.4C252.298 259.4 254.29 257.504 254.29 254.6C254.29 251.696 252.298 249.8 249.754 249.8C247.21 249.8 245.218 251.696 245.218 254.6Z" fill="white"/>
<rect x="16" y="291" width="304" height="82" rx="24" fill="white"/>
<rect x="16" y="397" width="125" height="43" rx="13" fill="white"/>
<rect x="195" y="397" width="125" height="43" rx="13" fill="white"/>
<path d="M82.8035 322.904C83.7135 322.512 84.2455 321.77 84.2455 320.72C84.2455 319.096 82.9295 318.2 80.7455 318.2H76.3635V328H81.0115C83.4475 328 84.7215 326.978 84.7215 325.284C84.7215 324.052 84.0355 323.24 82.8035 322.904ZM78.1555 319.6H80.5915C81.7675 319.6 82.3975 320.076 82.3975 321C82.3975 321.91 81.7675 322.386 80.5915 322.386H78.1555V319.6ZM80.9555 326.6H78.1555V323.716H80.9555C82.2155 323.716 82.8875 324.164 82.8875 325.144C82.8875 326.124 82.2155 326.6 80.9555 326.6ZM89.9309 328.098C92.2549 328.098 93.9209 326.502 93.9209 324.262C93.9209 322.022 92.2549 320.44 89.9309 320.44C87.6349 320.44 85.9549 322.022 85.9549 324.262C85.9549 326.502 87.6349 328.098 89.9309 328.098ZM89.9309 326.6C88.6709 326.6 87.7189 325.69 87.7189 324.262C87.7189 322.834 88.6709 321.924 89.9309 321.924C91.2049 321.924 92.1569 322.834 92.1569 324.262C92.1569 325.69 91.2049 326.6 89.9309 326.6ZM101.298 320.524H94.2982V322.008H96.9302V328H98.6802V322.008H101.298V320.524ZM102.416 325.774C101.772 325.774 101.282 326.236 101.282 326.936C101.282 327.44 101.548 327.804 101.94 327.972L101.38 330.114H102.514L103.228 328.14C103.48 327.496 103.55 327.244 103.55 326.936C103.55 326.25 103.074 325.774 102.416 325.774ZM116.031 326.516V320.524H109.871L109.773 323.086C109.689 324.836 109.507 326.474 108.457 326.516H108.107V329.666H109.731V328H115.499V329.666H117.137V326.516H116.031ZM111.369 323.212L111.411 322.008H114.281V326.516H110.599C111.201 325.942 111.313 324.612 111.369 323.212ZM125.7 324.304C125.7 321.966 124.104 320.44 121.92 320.44C119.694 320.44 118.056 322.036 118.056 324.262C118.056 326.488 119.68 328.098 122.186 328.098C123.474 328.098 124.524 327.678 125.196 326.88L124.258 325.802C123.726 326.348 123.068 326.614 122.228 326.614C120.926 326.614 120.016 325.914 119.806 324.822H125.672C125.686 324.654 125.7 324.444 125.7 324.304ZM121.92 321.84C123.068 321.84 123.894 322.582 124.034 323.66H119.792C119.96 322.568 120.786 321.84 121.92 321.84ZM133.032 324.108C133.746 323.8 134.18 323.226 134.18 322.456C134.18 321.224 133.088 320.524 131.268 320.524H127.614V328H131.422C133.438 328 134.418 327.216 134.418 325.9C134.418 324.99 133.956 324.388 133.032 324.108ZM129.28 321.798H131.114C132.01 321.798 132.472 322.092 132.472 322.708C132.472 323.324 132.01 323.646 131.114 323.646H129.28V321.798ZM131.282 326.726H129.28V324.808H131.338C132.29 324.808 132.724 325.13 132.724 325.788C132.724 326.432 132.22 326.726 131.282 326.726ZM139.614 328.098C141.938 328.098 143.604 326.502 143.604 324.262C143.604 322.022 141.938 320.44 139.614 320.44C137.318 320.44 135.638 322.022 135.638 324.262C135.638 326.502 137.318 328.098 139.614 328.098ZM139.614 326.6C138.354 326.6 137.402 325.69 137.402 324.262C137.402 322.834 138.354 321.924 139.614 321.924C140.888 321.924 141.84 322.834 141.84 324.262C141.84 325.69 140.888 326.6 139.614 326.6ZM149.925 320.524V323.8C149.323 324.08 148.665 324.22 148.049 324.22C147.041 324.22 146.439 323.786 146.439 322.806V320.524H144.689V322.918C144.689 324.78 145.781 325.62 147.671 325.62C148.497 325.62 149.253 325.424 149.925 325.102V328H151.675V320.524H149.925ZM159.391 328H161.449L158.551 324.122L161.267 320.524H159.391L157.179 323.548H155.779V320.524H154.029V328H155.779V325.004H157.137L159.391 328ZM165.332 320.44C164.128 320.44 162.966 320.748 162.168 321.364L162.854 322.638C163.414 322.176 164.282 321.896 165.122 321.896C166.368 321.896 166.984 322.498 166.984 323.52V323.632H165.052C162.784 323.632 161.944 324.612 161.944 325.858C161.944 327.16 163.022 328.098 164.73 328.098C165.85 328.098 166.662 327.734 167.082 327.09V328H168.734V323.618C168.734 321.462 167.488 320.44 165.332 320.44ZM165.094 326.824C164.198 326.824 163.666 326.418 163.666 325.788C163.666 325.242 163.988 324.794 165.178 324.794H166.984V325.662C166.69 326.432 165.948 326.824 165.094 326.824ZM174.769 328H176.379L180.495 323.072V328H182.245V320.524H180.649L176.519 325.452V320.524H174.769V328ZM188.969 324.108C189.739 323.8 190.229 323.198 190.229 322.47C190.229 321.238 188.829 320.412 186.911 320.412C185.931 320.412 184.965 320.622 183.943 321.098L184.391 322.386C185.217 322.022 186.001 321.84 186.757 321.84C187.807 321.84 188.437 322.176 188.437 322.722C188.437 323.268 187.919 323.576 187.037 323.576H185.721V324.752H187.177C188.115 324.752 188.647 325.074 188.647 325.662C188.647 326.306 187.933 326.684 186.771 326.684C185.847 326.684 184.895 326.446 184.167 326.04L183.663 327.342C184.559 327.846 185.707 328.126 186.855 328.126C188.941 328.126 190.439 327.188 190.439 325.802C190.439 324.976 189.893 324.374 188.969 324.108ZM199.723 318.2C197.231 318.2 195.621 319.53 195.621 321.798C195.621 323.366 196.391 324.472 197.749 324.976L195.649 328H197.567L199.387 325.27H199.583H202.005V328H203.797V318.2H199.723ZM199.779 319.74H202.005V323.786H199.709C198.239 323.786 197.469 323.058 197.469 321.77C197.469 320.426 198.295 319.74 199.779 319.74ZM206.364 328H208.114V325.046H211.88V328H213.63V320.524H211.88V323.562H208.114V320.524H206.364V328ZM222.85 326.516V320.524H216.69L216.592 323.086C216.508 324.836 216.326 326.474 215.276 326.516H214.926V329.666H216.55V328H222.318V329.666H223.956V326.516H222.85ZM218.188 323.212L218.23 322.008H221.1V326.516H217.418C218.02 325.942 218.132 324.612 218.188 323.212ZM232.519 324.304C232.519 321.966 230.923 320.44 228.739 320.44C226.513 320.44 224.875 322.036 224.875 324.262C224.875 326.488 226.499 328.098 229.005 328.098C230.293 328.098 231.343 327.678 232.015 326.88L231.077 325.802C230.545 326.348 229.887 326.614 229.047 326.614C227.745 326.614 226.835 325.914 226.625 324.822H232.491C232.505 324.654 232.519 324.444 232.519 324.304ZM228.739 321.84C229.887 321.84 230.713 322.582 230.853 323.66H226.611C226.779 322.568 227.605 321.84 228.739 321.84ZM239.795 328H241.853L238.955 324.122L241.671 320.524H239.795L237.583 323.548H236.183V320.524H234.433V328H236.183V325.004H237.541L239.795 328ZM246.243 328.098C247.699 328.098 248.861 327.468 249.435 326.348L248.091 325.564C247.643 326.278 246.971 326.6 246.229 326.6C244.941 326.6 243.961 325.718 243.961 324.262C243.961 322.82 244.941 321.924 246.229 321.924C246.971 321.924 247.643 322.246 248.091 322.96L249.435 322.176C248.861 321.042 247.699 320.44 246.243 320.44C243.877 320.44 242.197 322.022 242.197 324.262C242.197 326.502 243.877 328.098 246.243 328.098ZM253.762 320.44C252.558 320.44 251.396 320.748 250.598 321.364L251.284 322.638C251.844 322.176 252.712 321.896 253.552 321.896C254.798 321.896 255.414 322.498 255.414 323.52V323.632H253.482C251.214 323.632 250.374 324.612 250.374 325.858C250.374 327.16 251.452 328.098 253.16 328.098C254.28 328.098 255.092 327.734 255.512 327.09V328H257.164V323.618C257.164 321.462 255.918 320.44 253.762 320.44ZM253.524 326.824C252.628 326.824 252.096 326.418 252.096 325.788C252.096 325.242 252.418 324.794 253.608 324.794H255.414V325.662C255.12 326.432 254.378 326.824 253.524 326.824ZM46.2659 336.888C45.1179 336.888 44.1379 337.35 43.4799 338.148C43.6339 336.524 44.4879 335.684 46.2939 335.306L49.4439 334.662L49.1919 333.094L45.7199 333.836C43.0599 334.396 41.7999 336.146 41.7999 339.142C41.7999 342.404 43.3119 344.14 45.8739 344.14C48.2259 344.14 49.8639 342.67 49.8639 340.472C49.8639 338.358 48.4079 336.888 46.2659 336.888ZM45.9159 342.726C44.6279 342.726 43.7319 341.816 43.7319 340.514C43.7319 339.212 44.6139 338.372 45.9159 338.372C47.2039 338.372 48.0719 339.212 48.0719 340.514C48.0719 341.802 47.2039 342.726 45.9159 342.726ZM55.1978 338.988L53.3078 338.974V336.524H51.5578V344L54.9458 344.014C56.9898 344.028 58.1378 343.09 58.1378 341.452C58.1378 339.898 57.1158 338.988 55.1978 338.988ZM59.1038 344H60.8538V336.524H59.1038V344ZM54.7918 342.726L53.3078 342.712V340.178L54.7918 340.192C55.8278 340.206 56.3738 340.57 56.3738 341.424C56.3738 342.292 55.8138 342.74 54.7918 342.726ZM63.9343 336.524L63.8083 339.408C63.7243 340.962 63.6823 342.558 62.5343 342.558C62.4363 342.558 62.3243 342.544 62.1983 342.516L62.1143 343.986C62.4783 344.084 62.8003 344.14 63.0803 344.14C64.8443 344.14 65.2363 342.152 65.3623 339.492L65.4323 338.008H68.2323V344H69.9823V336.524H63.9343ZM75.1251 336.44C73.9211 336.44 72.7591 336.748 71.9611 337.364L72.6471 338.638C73.2071 338.176 74.0751 337.896 74.9151 337.896C76.1611 337.896 76.7771 338.498 76.7771 339.52V339.632H74.8451C72.5771 339.632 71.7371 340.612 71.7371 341.858C71.7371 343.16 72.8151 344.098 74.5231 344.098C75.6431 344.098 76.4551 343.734 76.8751 343.09V344H78.5271V339.618C78.5271 337.462 77.2811 336.44 75.1251 336.44ZM74.8871 342.824C73.9911 342.824 73.4591 342.418 73.4591 341.788C73.4591 341.242 73.7811 340.794 74.9711 340.794H76.7771V341.662C76.4831 342.432 75.7411 342.824 74.8871 342.824ZM84.5617 344H86.3117V341.046H90.0777V344H91.8277V336.524H90.0777V339.562H86.3117V336.524H84.5617V344ZM96.9591 336.44C95.7551 336.44 94.5931 336.748 93.7951 337.364L94.4811 338.638C95.0411 338.176 95.9091 337.896 96.7491 337.896C97.9951 337.896 98.6111 338.498 98.6111 339.52V339.632H96.6791C94.4111 339.632 93.5711 340.612 93.5711 341.858C93.5711 343.16 94.6491 344.098 96.3571 344.098C97.4771 344.098 98.2891 343.734 98.7091 343.09V344H100.361V339.618C100.361 337.462 99.1151 336.44 96.9591 336.44ZM96.7211 342.824C95.8251 342.824 95.2931 342.418 95.2931 341.788C95.2931 341.242 95.6151 340.794 96.8051 340.794H98.6111V341.662C98.3171 342.432 97.5751 342.824 96.7211 342.824ZM110.624 334.2H106.592V344H108.412V341.172H110.624C113.2 341.172 114.796 339.842 114.796 337.686C114.796 335.516 113.2 334.2 110.624 334.2ZM110.54 339.632H108.412V335.74H110.54C112.136 335.74 112.962 336.454 112.962 337.686C112.962 338.918 112.136 339.632 110.54 339.632ZM116.532 344H118.226L123.49 337.056V344H125.282V334.2H123.588L118.324 341.158V334.2H116.532V344ZM139.229 339.086C139.229 336.51 137.367 334.97 134.063 334.802V333.808H132.383V334.802C129.079 334.97 127.203 336.496 127.203 339.086C127.203 341.662 129.079 343.188 132.383 343.356V344.392H134.063V343.356C137.367 343.216 139.229 341.662 139.229 339.086ZM134.063 341.928V336.244C136.275 336.398 137.479 337.35 137.479 339.072C137.479 340.794 136.303 341.76 134.063 341.928ZM128.981 339.086C128.981 337.35 130.129 336.412 132.383 336.244V341.928C130.213 341.746 128.981 340.808 128.981 339.086ZM147.945 340.304C147.945 337.966 146.349 336.44 144.165 336.44C141.939 336.44 140.301 338.036 140.301 340.262C140.301 342.488 141.925 344.098 144.431 344.098C145.719 344.098 146.769 343.678 147.441 342.88L146.503 341.802C145.971 342.348 145.313 342.614 144.473 342.614C143.171 342.614 142.261 341.914 142.051 340.822H147.917C147.931 340.654 147.945 340.444 147.945 340.304ZM144.165 337.84C145.313 337.84 146.139 338.582 146.279 339.66H142.037C142.205 338.568 143.031 337.84 144.165 337.84ZM150.391 344.098C151.021 344.098 151.539 343.608 151.539 342.936C151.539 342.236 151.021 341.774 150.391 341.774C149.761 341.774 149.243 342.236 149.243 342.936C149.243 343.608 149.761 344.098 150.391 344.098ZM157.356 334.2V344H159.148V335.74H164.23V344H166.022V334.2H157.356ZM171.921 344.098C174.245 344.098 175.911 342.502 175.911 340.262C175.911 338.022 174.245 336.44 171.921 336.44C169.625 336.44 167.945 338.022 167.945 340.262C167.945 342.502 169.625 344.098 171.921 344.098ZM171.921 342.6C170.661 342.6 169.709 341.69 169.709 340.262C169.709 338.834 170.661 337.924 171.921 337.924C173.195 337.924 174.147 338.834 174.147 340.262C174.147 341.69 173.195 342.6 171.921 342.6ZM182.232 336.524V339.8C181.63 340.08 180.972 340.22 180.356 340.22C179.348 340.22 178.746 339.786 178.746 338.806V336.524H176.996V338.918C176.996 340.78 178.088 341.62 179.978 341.62C180.804 341.62 181.56 341.424 182.232 341.102V344H183.982V336.524H182.232ZM186.335 344H187.945L192.061 339.072V344H193.811V336.524H192.215L188.085 341.452V336.524H186.335V344ZM202.087 336.524H195.087V338.008H197.719V344H199.469V338.008H202.087V336.524ZM206.143 336.44C204.939 336.44 203.777 336.748 202.979 337.364L203.665 338.638C204.225 338.176 205.093 337.896 205.933 337.896C207.179 337.896 207.795 338.498 207.795 339.52V339.632H205.863C203.595 339.632 202.755 340.612 202.755 341.858C202.755 343.16 203.833 344.098 205.541 344.098C206.661 344.098 207.473 343.734 207.893 343.09V344H209.545V339.618C209.545 337.462 208.299 336.44 206.143 336.44ZM205.905 342.824C205.009 342.824 204.477 342.418 204.477 341.788C204.477 341.242 204.799 340.794 205.989 340.794H207.795V341.662C207.501 342.432 206.759 342.824 205.905 342.824ZM215.336 335.642C216.834 335.642 217.66 334.942 217.688 333.584H216.498C216.484 334.256 216.036 334.676 215.322 334.676C214.594 334.676 214.174 334.256 214.16 333.584H212.998C213.012 334.942 213.838 335.642 215.336 335.642ZM211.71 344H213.32L217.436 339.072V344H219.186V336.524H217.59L213.46 341.452V336.524H211.71V344ZM225.409 336.524V344H227.159V338.008H230.841V344H232.577V336.524H225.409ZM239.083 336.44C238.061 336.44 237.193 336.79 236.605 337.504V336.524H234.939V346.716H236.689V343.09C237.291 343.776 238.131 344.098 239.083 344.098C241.267 344.098 242.877 342.586 242.877 340.262C242.877 337.952 241.267 336.44 239.083 336.44ZM238.887 342.6C237.627 342.6 236.661 341.69 236.661 340.262C236.661 338.834 237.627 337.924 238.887 337.924C240.147 337.924 241.099 338.834 241.099 340.262C241.099 341.69 240.147 342.6 238.887 342.6ZM247.95 344.098C250.274 344.098 251.94 342.502 251.94 340.262C251.94 338.022 250.274 336.44 247.95 336.44C245.654 336.44 243.974 338.022 243.974 340.262C243.974 342.502 245.654 344.098 247.95 344.098ZM247.95 342.6C246.69 342.6 245.738 341.69 245.738 340.262C245.738 338.834 246.69 337.924 247.95 337.924C249.224 337.924 250.176 338.834 250.176 340.262C250.176 341.69 249.224 342.6 247.95 342.6ZM257.538 344H259.288V341.046H263.054V344H264.804V336.524H263.054V339.562H259.288V336.524H257.538V344ZM274.15 340.304C274.15 337.966 272.554 336.44 270.37 336.44C268.144 336.44 266.506 338.036 266.506 340.262C266.506 342.488 268.13 344.098 270.636 344.098C271.924 344.098 272.974 343.678 273.646 342.88L272.708 341.802C272.176 342.348 271.518 342.614 270.678 342.614C269.376 342.614 268.466 341.914 268.256 340.822H274.122C274.136 340.654 274.15 340.444 274.15 340.304ZM270.37 337.84C271.518 337.84 272.344 338.582 272.484 339.66H268.242C268.41 338.568 269.236 337.84 270.37 337.84ZM283.064 340.304C283.064 337.966 281.468 336.44 279.284 336.44C277.058 336.44 275.42 338.036 275.42 340.262C275.42 342.488 277.044 344.098 279.55 344.098C280.838 344.098 281.888 343.678 282.56 342.88L281.622 341.802C281.09 342.348 280.432 342.614 279.592 342.614C278.29 342.614 277.38 341.914 277.17 340.822H283.036C283.05 340.654 283.064 340.444 283.064 340.304ZM279.284 337.84C280.432 337.84 281.258 338.582 281.398 339.66H277.156C277.324 338.568 278.15 337.84 279.284 337.84ZM289.379 338.764C290.009 338.764 290.527 338.274 290.527 337.602C290.527 336.902 290.009 336.44 289.379 336.44C288.749 336.44 288.231 336.902 288.231 337.602C288.231 338.274 288.749 338.764 289.379 338.764ZM289.379 344.098C290.009 344.098 290.527 343.608 290.527 342.936C290.527 342.236 290.009 341.774 289.379 341.774C288.749 341.774 288.231 342.236 288.231 342.936C288.231 343.608 288.749 344.098 289.379 344.098ZM293.063 346.716C294.169 345.022 294.771 342.74 294.771 340.164C294.771 337.588 294.169 335.278 293.063 333.612H291.397C292.559 335.656 293.063 337.77 293.063 340.164C293.063 342.558 292.559 344.672 291.397 346.716H293.063Z" fill="black"/>
<path d="M252 5C252 26.7477 243.361 47.6048 227.983 62.9828C212.605 78.3607 191.748 87 170 87C148.252 87 127.395 78.3607 112.017 62.9828C96.6393 47.6048 88 26.7478 88 5.00002L170 5H252Z" fill="white"/>
<path d="M48.032 423.216C48.032 414.96 35.328 417.52 35.328 414.096C35.328 412.976 36.288 412.08 38.944 412.08C40.896 412.08 43.008 412.656 45.152 413.808L47.104 409.104C45.312 408.048 42.976 407.408 40.608 407.216V403.76H36.768V407.28C31.584 407.92 29.056 410.896 29.056 414.416C29.056 422.736 41.792 420.144 41.792 423.696C41.792 424.784 40.768 425.52 38.144 425.52C35.552 425.52 32.736 424.624 30.752 423.312L28.672 427.984C30.528 429.264 33.568 430.192 36.768 430.416V433.84H40.608V430.288C45.6 429.552 48.032 426.608 48.032 423.216Z" fill="#00BCBC"/>
<path d="M62.32 417.7L65.48 414.1V412H55.68V414.6H61.64L58.76 417.86V420H60.24C62.08 420 62.86 420.66 62.86 421.72C62.86 422.86 61.86 423.52 60.24 423.52C58.78 423.52 57.3 423.06 56.24 422.26L54.98 424.74C56.34 425.7 58.36 426.24 60.32 426.24C64.3 426.24 66.12 424.08 66.12 421.72C66.12 419.66 64.84 418.1 62.32 417.7ZM72.2206 417.26H71.0806L71.3006 414.6H77.1406V412H68.6006L67.8806 419.88H71.4606C74.0006 419.88 74.7206 420.6 74.7206 421.7C74.7206 422.84 73.7206 423.52 72.1006 423.52C70.6406 423.52 69.1806 423.06 68.1206 422.26L66.8406 424.74C68.2006 425.7 70.2406 426.24 72.1806 426.24C76.1806 426.24 78.0006 424.08 78.0006 421.6C78.0006 419.12 76.3606 417.26 72.2206 417.26ZM90.9792 426.24C94.4392 426.24 96.9792 423.62 96.9792 419C96.9792 414.38 94.4392 411.76 90.9792 411.76C87.5392 411.76 84.9792 414.38 84.9792 419C84.9792 423.62 87.5392 426.24 90.9792 426.24ZM90.9792 423.5C89.3792 423.5 88.2592 422.18 88.2592 419C88.2592 415.82 89.3792 414.5 90.9792 414.5C92.5992 414.5 93.7192 415.82 93.7192 419C93.7192 422.18 92.5992 423.5 90.9792 423.5ZM104.553 426.24C108.013 426.24 110.553 423.62 110.553 419C110.553 414.38 108.013 411.76 104.553 411.76C101.113 411.76 98.5534 414.38 98.5534 419C98.5534 423.62 101.113 426.24 104.553 426.24ZM104.553 423.5C102.953 423.5 101.833 422.18 101.833 419C101.833 415.82 102.953 414.5 104.553 414.5C106.173 414.5 107.293 415.82 107.293 419C107.293 422.18 106.173 423.5 104.553 423.5ZM118.128 426.24C121.588 426.24 124.128 423.62 124.128 419C124.128 414.38 121.588 411.76 118.128 411.76C114.688 411.76 112.128 414.38 112.128 419C112.128 423.62 114.688 426.24 118.128 426.24ZM118.128 423.5C116.528 423.5 115.408 422.18 115.408 419C115.408 415.82 116.528 414.5 118.128 414.5C119.748 414.5 120.868 415.82 120.868 419C120.868 422.18 119.748 423.5 118.128 423.5Z" fill="black"/>
<path d="M240.32 417.7L243.48 414.1V412H233.68V414.6H239.64L236.76 417.86V420H238.24C240.08 420 240.86 420.66 240.86 421.72C240.86 422.86 239.86 423.52 238.24 423.52C236.78 423.52 235.3 423.06 234.24 422.26L232.98 424.74C234.34 425.7 236.36 426.24 238.32 426.24C242.3 426.24 244.12 424.08 244.12 421.72C244.12 419.66 242.84 418.1 240.32 417.7ZM251.616 426.24C255.076 426.24 257.616 423.62 257.616 419C257.616 414.38 255.076 411.76 251.616 411.76C248.176 411.76 245.616 414.38 245.616 419C245.616 423.62 248.176 426.24 251.616 426.24ZM251.616 423.5C250.016 423.5 248.896 422.18 248.896 419C248.896 415.82 250.016 414.5 251.616 414.5C253.236 414.5 254.356 415.82 254.356 419C254.356 422.18 253.236 423.5 251.616 423.5ZM278.894 426L278.854 415.24H275.934L272.274 421.46L268.834 415.24H265.574V426H268.394V419.54L271.534 424.96H272.854L276.074 419.56V426H278.894ZM281.883 426H284.763L289.983 419.6V426H293.083V415.24H290.223L284.983 421.64V415.24H281.883V426ZM296.082 426H299.182V421.98H303.862V426H306.982V415.24H303.862V419.44H299.182V415.24H296.082V426Z" fill="black"/>
<path d="M216.5 406C209.595 406 204 411.595 204 418.5C204 425.405 209.595 431 216.5 431C223.405 431 229 425.405 229 418.5C229 411.595 223.405 406 216.5 406Z" fill="#00BCBC"/>
<path fill-rule="evenodd" clip-rule="evenodd" d="M215.961 410C214.878 410 214 410.878 214 411.961V419.153C214 419.311 214.019 419.464 214.054 419.611C214.047 420.263 214.376 420.901 214.974 421.262L220.414 424.535C221.313 425.077 222.481 424.786 223.022 423.887C223.563 422.988 223.273 421.82 222.374 421.279L217.923 418.6V411.961C217.923 410.878 217.045 410 215.961 410Z" fill="white"/>
<g filter="url(#filter0_d)">
<path d="M162.531 400.393L185.975 433.213C179.766 434.57 168.698 428.331 168.698 428.331C168.698 428.331 160.834 438.706 154.912 440L162.531 400.393Z" fill="white"/>
<path fill-rule="evenodd" clip-rule="evenodd" d="M154.912 440L158.469 421.51C161.522 424.284 164.956 426.604 168.698 428.331C168.698 428.331 160.834 438.706 154.912 440Z" fill="#BBFFF9"/>
</g>
<path d="M170.903 40.132C167.075 40.132 164.001 41.176 161.739 43.148C162.319 36.942 166.205 33.694 172.005 33.694C174.615 33.694 177.167 34.158 179.487 35.782L183.663 27.546C180.705 25.632 176.297 24.588 171.715 24.588C158.897 24.588 150.139 32.65 150.139 46.802C150.139 59.968 157.563 66.812 168.931 66.812C177.805 66.812 184.881 61.418 184.881 52.95C184.881 45.178 178.559 40.132 170.903 40.132ZM168.235 58.634C164.755 58.634 162.551 56.546 162.551 53.53C162.551 50.456 164.871 48.368 168.177 48.368C171.483 48.368 173.745 50.34 173.745 53.472C173.745 56.662 171.483 58.634 168.235 58.634Z" fill="#46BBCE"/>
<g filter="url(#filter1_di)">
<path d="M168 108C136.572 108 111 133.572 111 165C111 196.428 136.572 222 168 222C199.428 222 225 196.428 225 165C225 133.572 199.428 108 168 108ZM206.582 196.564C204.758 195.566 202.813 194.725 200.697 194.284L185.071 191.149C183.433 190.828 182.25 189.36 182.25 187.658V183.596C197.818 182.107 200.062 178.929 200.062 175.688C200.062 166.104 193.693 143.853 192.645 140.234C192.51 134.64 191.491 131.498 188.933 128.741C187.123 126.782 184.459 126.325 182.314 125.962C181.473 125.812 180.312 125.62 179.885 125.385C176.087 123.333 172.332 122.336 167.85 122.25C158.467 122.635 146.931 128.605 142.984 139.521C142.699 140.54 135.938 164.637 135.938 175.688C135.938 180.297 141.146 182.727 153.75 183.839V187.658C153.75 189.36 152.56 190.828 150.914 191.149L135.275 194.284C133.173 194.725 131.242 195.559 129.418 196.557C122.364 187.957 118.125 176.963 118.125 165C118.125 137.498 140.498 115.125 168 115.125C195.495 115.125 217.875 137.498 217.875 165C217.875 176.963 213.628 187.957 206.582 196.564Z" fill="white"/>
</g>
<defs>
<filter id="filter0_d" x="143" y="393" width="52.975" height="57" filterUnits="userSpaceOnUse" color-interpolation-filters="sRGB">
<feFlood flood-opacity="0" result="BackgroundImageFix"/>
<feColorMatrix in="SourceAlpha" type="matrix" values="0 0 0 0 0 0 0 0 0 0 0 0 0 0 0 0 0 0 127 0"/>
<feOffset dx="3" dy="3"/>
<feGaussianBlur stdDeviation="3.5"/>
<feColorMatrix type="matrix" values="0 0 0 0 0.279 0 0 0 0 0.9 0 0 0 0 0.840225 0 0 0 1 0"/>
<feBlend mode="normal" in2="BackgroundImageFix" result="effect1_dropShadow"/>
<feBlend mode="normal" in="SourceGraphic" in2="effect1_dropShadow" result="shape"/>
</filter>
<filter id="filter1_di" x="105" y="102" width="134" height="134" filterUnits="userSpaceOnUse" color-interpolation-filters="sRGB">
<feFlood flood-opacity="0" result="BackgroundImageFix"/>
<feColorMatrix in="SourceAlpha" type="matrix" values="0 0 0 0 0 0 0 0 0 0 0 0 0 0 0 0 0 0 127 0"/>
<feOffset dx="4" dy="4"/>
<feGaussianBlur stdDeviation="5"/>
<feColorMatrix type="matrix" values="0 0 0 0 0.1715 0 0 0 0 0.816667 0 0 0 0 0.816667 0 0 0 1 0"/>
<feBlend mode="normal" in2="BackgroundImageFix" result="effect1_dropShadow"/>
<feBlend mode="normal" in="SourceGraphic" in2="effect1_dropShadow" result="shape"/>
<feColorMatrix in="SourceAlpha" type="matrix" values="0 0 0 0 0 0 0 0 0 0 0 0 0 0 0 0 0 0 127 0" result="hardAlpha"/>
<feOffset dx="-4" dy="-4"/>
<feGaussianBlur stdDeviation="4.5"/>
<feComposite in2="hardAlpha" operator="arithmetic" k2="-1" k3="1"/>
<feColorMatrix type="matrix" values="0 0 0 0 0.441945 0 0 0 0 0.887146 0 0 0 0 0.895833 0 0 0 0.52 0"/>
<feBlend mode="normal" in2="shape" result="effect2_innerShadow"/>
</filter>
<linearGradient id="paint0_linear" x1="5.5" y1="-157" x2="289.5" y2="495.5" gradientUnits="userSpaceOnUse">
<stop stop-color="#00C2FF"/>
<stop offset="1" stop-color="#1EE7CF"/>
</linearGradient>
<linearGradient id="paint1_linear" x1="49" y1="11" x2="301.5" y2="474" gradientUnits="userSpaceOnUse">
<stop stop-color="#19D2EB"/>
<stop offset="1" stop-color="#55F5DF"/>
</linearGradient>
<linearGradient id="paint2_linear" x1="59.5" y1="-9" x2="291.5" y2="495.5" gradientUnits="userSpaceOnUse">
<stop stop-color="#00E0FF"/>
<stop offset="1" stop-color="#42F2D1"/>
</linearGradient>
<linearGradient id="paint3_linear" x1="51" y1="11" x2="303.5" y2="474" gradientUnits="userSpaceOnUse">
<stop stop-color="#B2F6FF"/>
<stop offset="1" stop-color="#28D7BE"/>
</linearGradient>
<linearGradient id="paint4_linear" x1="27" y1="473.49" x2="247.084" y2="60.8524" gradientUnits="userSpaceOnUse">
<stop stop-color="#73F5FF"/>
<stop offset="0.99" stop-color="#7AFFEC"/>
</linearGradient>
<linearGradient id="paint5_linear" x1="129.774" y1="288" x2="310" y2="288" gradientUnits="userSpaceOnUse">
<stop stop-color="white"/>
<stop offset="0.99" stop-color="white" stop-opacity="0.4"/>
</linearGradient>
<linearGradient id="paint6_linear" x1="59.8997" y1="86" x2="140" y2="86" gradientUnits="userSpaceOnUse">
<stop stop-color="white"/>
<stop offset="0.99" stop-color="white" stop-opacity="0.4"/>
</linearGradient>
</defs>
</svg>
