<svg width="338" height="474" viewBox="0 0 338 474" fill="none" xmlns="http://www.w3.org/2000/svg">
<rect x="2.5" y="2.5" width="331" height="469" rx="32.5" fill="url(#paint0_linear)" stroke="url(#paint1_linear)" stroke-width="5"/>
<mask id="mask0" mask-type="alpha" maskUnits="userSpaceOnUse" x="2" y="0" width="336" height="474">
<rect x="-2.5" y="2.5" width="331" height="469" rx="41.5" transform="matrix(-1 0 0 1 333 0)" fill="url(#paint2_linear)" stroke="url(#paint3_linear)" stroke-width="5"/>
</mask>
<g mask="url(#mask0)">
<path d="M129.747 5.0093C129.747 5.0093 234.654 47.0947 238.632 101.845C242.609 156.595 219.132 152.615 226.093 185.086C233.053 217.557 347.517 255.616 316.691 356.766C285.865 457.916 188.416 370.584 85 469H301C317.569 469 331 455.569 331 439V35.0014C331 18.4323 317.568 5.00062 300.999 5.00139L129.747 5.0093Z" fill="url(#paint4_linear)" fill-opacity="0.5"/>
</g>
<path opacity="0.46" d="M114.88 323C95.8977 322.976 77.349 317.326 61.5777 306.763C45.8065 296.199 33.5206 281.198 26.2731 263.654C19.0255 246.11 17.1416 226.812 20.8594 208.198C24.5771 189.583 33.7297 172.489 47.1603 159.075C60.591 145.661 77.6967 136.53 96.3156 132.836C114.934 129.141 134.231 131.05 151.765 138.319C169.3 145.589 184.286 157.893 194.829 173.678C205.373 189.462 211 208.018 211 227C210.955 252.468 200.81 276.878 182.79 294.875C164.771 312.873 140.348 322.987 114.88 323ZM114.88 157.396C101.117 157.415 87.6698 161.514 76.2362 169.173C64.8026 176.833 55.8964 187.71 50.643 200.431C45.3896 213.151 44.025 227.143 46.7215 240.638C49.4181 254.133 56.0547 266.527 65.7928 276.251C75.5309 285.976 87.9332 292.595 101.432 295.273C114.931 297.951 128.921 296.567 141.634 291.296C154.347 286.025 165.212 277.104 172.856 265.66C180.5 254.215 184.58 240.762 184.58 227C184.522 208.55 177.154 190.874 164.09 177.846C151.026 164.818 133.33 157.499 114.88 157.493V157.396Z" fill="url(#paint5_linear)" fill-opacity="0.7"/>
<path opacity="0.46" d="M216.95 105C209.041 104.99 201.312 102.636 194.741 98.2344C188.169 93.8331 183.05 87.5825 180.03 80.2726C177.011 72.9627 176.226 64.9216 177.775 57.1657C179.324 49.4097 183.137 42.2871 188.733 36.698C194.33 31.1089 201.457 27.3043 209.215 25.7649C216.973 24.2256 225.013 25.0207 232.319 28.0496C239.625 31.0786 245.869 36.2055 250.262 42.7824C254.655 49.3593 257 57.0909 257 65C256.981 75.6116 252.754 85.7826 245.246 93.2815C237.738 100.78 227.561 104.995 216.95 105ZM216.95 35.9985C211.216 36.0064 205.612 37.7141 200.848 40.9056C196.084 44.0972 192.373 48.6294 190.185 53.9294C187.996 59.2294 187.427 65.0594 188.551 70.6825C189.674 76.3056 192.439 81.4694 196.497 85.5213C200.555 89.5732 205.722 92.3314 211.347 93.4472C216.971 94.5629 222.801 93.9863 228.098 91.79C233.395 89.5938 237.922 85.8766 241.107 81.1082C244.292 76.3398 245.991 70.7342 245.991 65C245.968 57.3124 242.898 49.9477 237.454 44.5193C232.011 39.0908 224.637 36.0412 216.95 36.0386V35.9985Z" fill="url(#paint6_linear)"/>
<path d="M123.619 201.6H109.891V205.054H114.621V217H118.911V205.054H123.619V201.6Z" fill="black"/>
<path d="M136.445 201.6L132.727 209.036L129.141 201.6H124.543L130.527 212.688C129.955 213.524 129.339 213.876 128.481 213.876C128.019 213.876 127.535 213.788 126.941 213.612L125.907 216.824C126.853 217.198 127.755 217.396 128.635 217.396C130.945 217.396 132.947 216.076 134.311 213.502L140.691 201.6H136.445Z" fill="black"/>
<path d="M155.554 201.6H141.826V205.054H146.556V217H150.846V205.054H155.554V201.6Z" fill="black"/>
<path d="M176.46 201.6V207.386H170.52V201.6H166.164V217H170.52V210.994H176.46V217H180.816V201.6H176.46Z" fill="black"/>
<path d="M189.537 213.634V210.818H196.379V207.562H189.537V204.966H197.303V201.6H185.225V217H197.589V213.634H189.537Z" fill="black"/>
<path d="M213.579 201.6H199.851V205.054H204.581V217H208.871V205.054H213.579V201.6Z" fill="black"/>
<path d="M52.1399 231.6V247H56.4299V235.054H62.2819V247H66.5939V231.6H52.1399Z" fill="black"/>
<path d="M75.298 243.634V240.818H82.14V237.562H75.298V234.966H83.064V231.6H70.986V247H83.35V243.634H75.298Z" fill="black"/>
<path d="M93.9717 231.6H86.9317V247H91.2877V242.974H93.9717C98.1737 242.974 100.814 240.796 100.814 237.298C100.814 233.778 98.1737 231.6 93.9717 231.6ZM93.7077 239.542H91.2877V235.032H93.7077C95.5117 235.032 96.4137 235.868 96.4137 237.298C96.4137 238.706 95.5117 239.542 93.7077 239.542Z" fill="black"/>
<path d="M111.604 247.308C114.442 247.308 116.73 246.274 118.226 244.404L115.454 241.896C114.486 243.062 113.298 243.7 111.824 243.7C109.294 243.7 107.534 241.94 107.534 239.3C107.534 236.66 109.294 234.9 111.824 234.9C113.298 234.9 114.486 235.538 115.454 236.704L118.226 234.196C116.73 232.326 114.442 231.292 111.604 231.292C106.72 231.292 103.134 234.614 103.134 239.3C103.134 243.986 106.72 247.308 111.604 247.308Z" fill="black"/>
<path d="M128.54 247.308C133.468 247.308 137.098 243.92 137.098 239.3C137.098 234.68 133.468 231.292 128.54 231.292C123.612 231.292 119.982 234.68 119.982 239.3C119.982 243.92 123.612 247.308 128.54 247.308ZM128.54 243.7C126.208 243.7 124.382 241.962 124.382 239.3C124.382 236.638 126.208 234.9 128.54 234.9C130.872 234.9 132.698 236.638 132.698 239.3C132.698 241.962 130.872 243.7 128.54 243.7Z" fill="black"/>
<path d="M150.823 231.6V237.386H144.883V231.6H140.527V247H144.883V240.994H150.823V247H155.179V231.6H150.823Z" fill="black"/>
<path d="M171.424 247H175.956L169.136 231.6H164.846L158.048 247H162.492L163.702 244.008H170.214L171.424 247ZM164.978 240.796L166.958 235.868L168.938 240.796H164.978Z" fill="black"/>
<path d="M180.95 231.6L180.73 237.738C180.598 241.214 180.268 243.502 178.486 243.502C178.288 243.502 178.09 243.48 177.892 243.436L177.65 247C178.376 247.176 179.036 247.264 179.63 247.264C183.546 247.264 184.36 243.568 184.558 237.562L184.646 235.054H189.068V247H193.358V231.6H180.95Z" fill="black"/>
<path d="M205.606 236.506H202.042V231.6H197.752V247H205.034C209.038 247 211.524 245.13 211.524 241.522C211.524 238.156 209.346 236.506 205.606 236.506ZM204.748 243.876H202.042V239.608H204.748C206.222 239.608 207.146 240.158 207.146 241.61C207.146 243.062 206.2 243.876 204.748 243.876Z" fill="black"/>
<path d="M225.111 231.6V237.386H219.171V231.6H214.815V247H219.171V240.994H225.111V247H229.467V231.6H225.111Z" fill="black"/>
<path d="M241.73 236.506H238.166V231.6H233.876V247H241.158C245.162 247 247.648 245.13 247.648 241.522C247.648 238.156 245.47 236.506 241.73 236.506ZM249.342 247H253.632V231.6H249.342V247ZM240.872 243.876H238.166V239.608H240.872C242.346 239.608 243.27 240.158 243.27 241.61C243.27 243.062 242.324 243.876 240.872 243.876Z" fill="black"/>
<path d="M256.884 231.578L262.01 239.146L256.532 247H261.548L264.628 242.446L267.73 247H272.856L267.356 238.948L272.416 231.578H267.356L264.628 235.758L261.878 231.578H256.884Z" fill="black"/>
<path d="M122.586 273.546V261.6H110.178L110.002 266.352C109.848 270.466 109.342 273.502 107.384 273.546H106.834V280.102H110.838V277H120.694V280.102H124.676V273.546H122.586ZM113.808 266.726L113.874 265.054H118.296V273.546H112.466C113.368 272.248 113.698 269.74 113.808 266.726Z" fill="black"/>
<path d="M139.867 277H144.399L137.579 261.6H133.289L126.491 277H130.935L132.145 274.008H138.657L139.867 277ZM133.421 270.796L135.401 265.868L137.381 270.796H133.421Z" fill="black"/>
<path d="M157.56 261.6V267.386H151.62V261.6H147.264V277H151.62V270.994H157.56V277H161.916V261.6H157.56Z" fill="black"/>
<path d="M176.621 261.6V267.386H170.681V261.6H166.325V277H170.681V270.994H176.621V277H180.977V261.6H176.621Z" fill="black"/>
<path d="M193.24 266.506H189.676V261.6H185.386V277H192.668C196.672 277 199.158 275.13 199.158 271.522C199.158 268.156 196.98 266.506 193.24 266.506ZM200.852 277H205.142V261.6H200.852V277ZM192.382 273.876H189.676V269.608H192.382C193.856 269.608 194.78 270.158 194.78 271.61C194.78 273.062 193.834 273.876 192.382 273.876Z" fill="black"/>
<path d="M208.394 261.578L213.52 269.146L208.042 277H213.058L216.138 272.446L219.24 277H224.366L218.866 268.948L223.926 261.578H218.866L216.138 265.758L213.388 261.578H208.394Z" fill="black"/>
<path fill-rule="evenodd" clip-rule="evenodd" d="M124.543 201.6L130.527 212.688C130.373 212.913 130.216 213.103 130.052 213.26C129.643 213.652 129.191 213.843 128.635 213.872C128.585 213.875 128.533 213.876 128.481 213.876C128.432 213.876 128.382 213.875 128.332 213.873C127.971 213.858 127.592 213.791 127.153 213.672C127.084 213.653 127.013 213.633 126.941 213.612L125.907 216.824C125.932 216.834 125.956 216.843 125.981 216.853C126.352 216.996 126.715 217.112 127.074 217.2C127.552 217.316 128.02 217.382 128.481 217.394C128.533 217.395 128.584 217.396 128.635 217.396C129.532 217.396 130.382 217.197 131.167 216.803C132.047 216.361 132.845 215.673 133.533 214.745C133.741 214.464 133.939 214.161 134.126 213.836C134.189 213.727 134.251 213.616 134.311 213.502L140.691 201.6H136.445L132.727 209.036L129.141 201.6H124.543ZM124.083 196.621C123.93 196.607 123.775 196.6 123.619 196.6H109.891C107.13 196.6 104.891 198.839 104.891 201.6V205.054C104.891 207.725 106.985 209.907 109.621 210.047V217C109.621 219.761 111.86 222 114.621 222H118.911C120.318 222 121.59 221.419 122.498 220.483C122.943 220.898 123.471 221.237 124.069 221.474C125.462 222.024 126.993 222.396 128.635 222.396C133.199 222.396 136.7 219.664 138.724 215.854C138.725 215.85 138.727 215.847 138.729 215.843L141.556 210.571V217C141.556 219.761 143.794 222 146.556 222H150.846C153.607 222 155.846 219.761 155.846 217V210.046C158.471 209.894 160.554 207.717 160.554 205.054V201.6C160.554 198.839 158.315 196.6 155.554 196.6H141.826C141.633 196.6 141.443 196.611 141.257 196.632C141.07 196.611 140.881 196.6 140.691 196.6H136.445C135.04 196.6 133.725 197.189 132.793 198.185C131.862 197.19 130.547 196.6 129.141 196.6H124.543C124.389 196.6 124.235 196.607 124.083 196.621ZM109.891 201.6V205.054H114.621V217H118.911V205.054H123.619V201.6H109.891ZM141.826 201.6V205.054H146.556V217H150.846V205.054H155.554V201.6H141.826ZM173.49 197.577C174.32 196.963 175.348 196.6 176.46 196.6H180.816C181.607 196.6 182.355 196.784 183.02 197.111C183.685 196.784 184.434 196.6 185.225 196.6H197.303C197.743 196.6 198.17 196.657 198.577 196.764C198.983 196.657 199.41 196.6 199.851 196.6H213.579C216.34 196.6 218.579 198.839 218.579 201.6V205.054C218.579 207.717 216.496 209.894 213.871 210.046V217C213.871 219.761 211.632 222 208.871 222H204.581C203.22 222 201.986 221.456 201.085 220.575C200.183 221.456 198.949 222 197.589 222H185.225C184.434 222 183.685 221.816 183.02 221.489C182.355 221.816 181.607 222 180.816 222H176.46C175.348 222 174.32 221.637 173.49 221.023C172.659 221.637 171.632 222 170.52 222H166.164C163.402 222 161.164 219.761 161.164 217V201.6C161.164 198.839 163.402 196.6 166.164 196.6H170.52C171.632 196.6 172.659 196.963 173.49 197.577ZM170.52 201.6H166.164V217H170.52V210.994H176.46V217H180.816V201.6H176.46V207.386H170.52V201.6ZM204.581 217H208.871V205.054H213.579V201.6H199.851V205.054H204.581V217ZM196.379 207.562H189.537V204.966H197.303V201.6H185.225V217H197.589V213.634H189.537V210.818H196.379V207.562ZM47.1399 231.6C47.1399 228.839 49.3785 226.6 52.1399 226.6H66.5939C67.3818 226.6 68.1271 226.782 68.7899 227.107C69.4528 226.782 70.1981 226.6 70.986 226.6H83.064C83.7496 226.6 84.403 226.738 84.9978 226.988C85.5927 226.738 86.2461 226.6 86.9317 226.6H93.9717C96.887 226.6 99.842 227.355 102.163 229.283C102.273 229.374 102.38 229.467 102.485 229.562C104.898 227.482 108.112 226.292 111.604 226.292C114.727 226.292 117.684 227.183 120.059 229.028C122.397 227.283 125.359 226.292 128.54 226.292C131.484 226.292 134.24 227.141 136.488 228.651C137.398 227.408 138.868 226.6 140.527 226.6H144.883C145.995 226.6 147.022 226.963 147.853 227.577C148.683 226.963 149.71 226.6 150.823 226.6H155.179C157.463 226.6 159.39 228.132 159.987 230.225L160.271 229.581C161.071 227.769 162.865 226.6 164.846 226.6H169.136C171.114 226.6 172.906 227.766 173.707 229.575L175.846 234.406L175.953 231.421C176.05 228.731 178.259 226.6 180.95 226.6H193.358C194.146 226.6 194.892 226.782 195.555 227.107C196.218 226.782 196.964 226.6 197.752 226.6H202.042C204.793 226.6 207.025 228.821 207.042 231.568C207.963 231.65 208.9 231.819 209.815 232.109V231.6C209.815 228.839 212.054 226.6 214.815 226.6H219.171C220.283 226.6 221.311 226.963 222.141 227.577C222.972 226.963 223.999 226.6 225.111 226.6H229.467C230.258 226.6 231.007 226.784 231.672 227.111C232.337 226.784 233.085 226.6 233.876 226.6H238.166C240.917 226.6 243.149 228.821 243.166 231.568C243.556 231.603 243.949 231.653 244.342 231.722V231.6C244.342 228.839 246.581 226.6 249.342 226.6H253.632C254.19 226.6 254.727 226.691 255.228 226.86C255.752 226.676 256.311 226.578 256.884 226.578H261.878C262.866 226.578 263.815 226.87 264.617 227.395C265.42 226.87 266.369 226.578 267.356 226.578H272.416C274.273 226.578 275.976 227.606 276.841 229.249C277.705 230.891 277.589 232.878 276.538 234.408L273.416 238.955L276.985 244.18C278.031 245.711 278.144 247.695 277.278 249.334C276.412 250.974 274.711 252 272.856 252H267.73C266.595 252 265.51 251.614 264.639 250.93C263.769 251.614 262.684 252 261.548 252H256.532C256.034 252 255.547 251.926 255.084 251.786C254.625 251.925 254.137 252 253.632 252H249.342C248.248 252 247.236 251.648 246.413 251.052C244.717 251.742 242.896 252 241.158 252H233.876C233.085 252 232.337 251.816 231.672 251.489C231.007 251.816 230.258 252 229.467 252H225.111C223.999 252 222.972 251.637 222.141 251.023C221.311 251.637 220.283 252 219.171 252H214.815C213.453 252 212.217 251.455 211.315 250.571C209.345 251.625 207.129 252 205.034 252H197.752C196.964 252 196.218 251.818 195.555 251.493C194.892 251.818 194.146 252 193.358 252H189.068C187.593 252 186.266 251.361 185.351 250.344C185.203 250.463 185.049 250.579 184.889 250.691C183.263 251.827 181.426 252.264 179.63 252.264C178.662 252.264 177.705 252.136 176.782 251.931C176.511 251.977 176.235 252 175.956 252H171.424C169.524 252 167.801 250.925 166.958 249.248C166.114 250.925 164.391 252 162.492 252H158.048C157.556 252 157.074 251.928 156.615 251.791C156.16 251.927 155.678 252 155.179 252H150.823C149.71 252 148.683 251.637 147.853 251.023C147.022 251.637 145.995 252 144.883 252H140.527C138.868 252 137.398 251.192 136.488 249.949C134.24 251.459 131.484 252.308 128.54 252.308C125.359 252.308 122.397 251.317 120.059 249.572C117.684 251.417 114.727 252.308 111.604 252.308C106.893 252.308 102.686 250.141 100.273 246.546C99.0063 247.206 97.63 247.614 96.2213 247.817C95.8315 250.19 93.771 252 91.2877 252H86.9317C86.3006 252 85.6968 251.883 85.1408 251.67C84.5849 251.883 83.9811 252 83.35 252H70.986C70.1981 252 69.4528 251.818 68.7899 251.493C68.1271 251.818 67.3818 252 66.5939 252H62.2819C61.1893 252 60.1785 251.65 59.3559 251.055C58.5333 251.65 57.5225 252 56.4299 252H52.1399C49.3785 252 47.1399 249.761 47.1399 247V231.6ZM62.2819 247H66.5939V231.6H52.1399V247H56.4299V235.054H62.2819V247ZM83.35 247V243.634H75.298V240.818H82.14V237.562H75.298V234.966H83.064V231.6H70.986V247H83.35ZM86.9317 247H91.2877V242.974H93.9717C95.7426 242.974 97.2361 242.587 98.3715 241.878C99.3702 241.253 100.092 240.38 100.481 239.3C100.7 238.695 100.814 238.025 100.814 237.298C100.814 235.773 100.318 234.5 99.4153 233.547C98.2336 232.3 96.3536 231.6 93.9717 231.6H86.9317V247ZM91.2877 239.542H93.7077C93.7979 239.542 93.8859 239.54 93.9717 239.536C95.2299 239.475 96.0019 238.97 96.2877 238.127C96.3717 237.879 96.4137 237.602 96.4137 237.298C96.4137 236.989 96.3717 236.708 96.2877 236.458C96.0019 235.604 95.2299 235.099 93.9717 235.038C93.8859 235.034 93.7979 235.032 93.7077 235.032H91.2877V239.542ZM119.982 239.35C119.987 240.282 120.14 241.164 120.422 241.977C120.93 243.439 121.854 244.681 123.083 245.596C124.537 246.68 126.418 247.308 128.54 247.308C131.511 247.308 134.01 246.076 135.527 244.086C136.525 242.775 137.098 241.134 137.098 239.3C137.098 237.466 136.525 235.825 135.527 234.514C134.01 232.524 131.511 231.292 128.54 231.292C126.418 231.292 124.537 231.92 123.083 233.004C121.854 233.919 120.93 235.161 120.422 236.623C120.14 237.436 119.987 238.318 119.982 239.25C119.982 239.266 119.982 239.283 119.982 239.3C119.982 239.317 119.982 239.334 119.982 239.35ZM104.083 243.176C105.46 245.714 108.22 247.308 111.604 247.308C111.678 247.308 111.751 247.307 111.824 247.306C112.497 247.293 113.139 247.221 113.745 247.093C114.857 246.857 115.851 246.432 116.704 245.834C117.03 245.605 117.336 245.352 117.62 245.074C117.834 244.865 118.036 244.641 118.226 244.404L115.454 241.896C115.405 241.955 115.356 242.012 115.306 242.068C115.294 242.081 115.282 242.095 115.27 242.108C115.21 242.175 115.148 242.24 115.085 242.303C114.188 243.21 113.116 243.7 111.824 243.7C111.75 243.7 111.677 243.698 111.604 243.695C109.193 243.596 107.534 241.863 107.534 239.3C107.534 236.737 109.193 235.004 111.604 234.904C111.677 234.901 111.75 234.9 111.824 234.9C113.116 234.9 114.188 235.39 115.085 236.297C115.148 236.36 115.21 236.425 115.27 236.492C115.282 236.505 115.294 236.519 115.306 236.532C115.356 236.588 115.405 236.645 115.454 236.704L118.226 234.196C118.036 233.959 117.834 233.735 117.62 233.526C117.336 233.248 117.03 232.995 116.704 232.766C115.851 232.168 114.857 231.743 113.745 231.507C113.139 231.379 112.497 231.307 111.824 231.294C111.751 231.293 111.678 231.292 111.604 231.292C109.009 231.292 106.78 232.23 105.262 233.812C104.349 234.762 103.692 235.946 103.366 237.298C103.214 237.931 103.134 238.6 103.134 239.3C103.134 240.74 103.472 242.05 104.083 243.176ZM140.527 247H144.883V240.994H150.823V247H155.179V231.6H150.823V237.386H144.883V231.6H140.527V247ZM189.068 247H193.358V231.6H180.95L180.73 237.738C180.635 240.257 180.435 242.152 179.654 243.004C179.646 243.013 179.638 243.022 179.63 243.03C179.382 243.291 179.076 243.449 178.697 243.491C178.633 243.498 178.567 243.502 178.498 243.502C178.494 243.502 178.49 243.502 178.486 243.502C178.288 243.502 178.09 243.48 177.892 243.436L177.65 247C177.939 247.07 178.218 247.126 178.486 247.168C178.891 247.232 179.273 247.264 179.63 247.264C179.943 247.264 180.235 247.24 180.509 247.194C180.664 247.168 180.812 247.135 180.955 247.094C181.685 246.888 182.268 246.496 182.734 245.935C183.373 245.166 183.792 244.08 184.068 242.72C184.344 241.365 184.478 239.739 184.547 237.883C184.547 237.88 184.547 237.877 184.547 237.875C184.551 237.771 184.555 237.667 184.558 237.562L184.646 235.054H189.068V247ZM169.136 231.6H164.846L158.048 247H162.492L163.702 244.008H170.214L171.424 247H175.956L169.136 231.6ZM168.938 240.796L166.958 235.868L164.978 240.796H168.938ZM202.042 231.6H197.752V247H205.034C207.057 247 208.692 246.523 209.815 245.586C210.897 244.682 211.504 243.352 211.524 241.61C211.524 241.581 211.524 241.551 211.524 241.522C211.524 239.756 210.925 238.463 209.815 237.632C208.809 236.879 207.384 236.506 205.606 236.506H202.042V231.6ZM202.042 239.608V243.876H204.748C204.846 243.876 204.941 243.872 205.034 243.865C206.055 243.785 206.783 243.267 207.042 242.383C207.111 242.15 207.146 241.892 207.146 241.61C207.146 241.58 207.146 241.551 207.145 241.522C207.139 241.273 207.104 241.052 207.042 240.856C206.836 240.198 206.332 239.832 205.606 239.685C205.347 239.633 205.06 239.608 204.748 239.608H202.042ZM219.171 247V240.994H225.111V247H229.467V231.6H225.111V237.386H219.171V231.6H214.815V247H219.171ZM238.166 231.6H233.876V247H241.158C242.367 247 243.437 246.83 244.342 246.493C246.412 245.722 247.62 244.08 247.648 241.61C247.648 241.581 247.648 241.551 247.648 241.522C247.648 239.04 246.464 237.491 244.342 236.848C243.587 236.62 242.712 236.506 241.73 236.506H238.166V231.6ZM238.166 239.608V243.876H240.872C240.97 243.876 241.065 243.872 241.158 243.865C242.179 243.785 242.907 243.267 243.166 242.383C243.234 242.15 243.27 241.892 243.27 241.61C243.27 241.58 243.27 241.551 243.269 241.522C243.262 241.273 243.227 241.052 243.166 240.856C242.96 240.198 242.455 239.832 241.73 239.685C241.471 239.633 241.184 239.608 240.872 239.608H238.166ZM253.632 247V231.6H249.342V247H253.632ZM256.884 231.578L262.01 239.146L256.532 247H261.548L264.628 242.446L267.73 247H272.856L267.356 238.948L272.416 231.578H267.356L264.628 235.758L261.878 231.578H256.884ZM129.166 239.008C128.923 238.758 128.647 238.7 128.54 238.7C128.432 238.7 128.157 238.758 127.913 239.008C127.807 239.116 127.746 239.224 127.715 239.3C127.746 239.376 127.807 239.484 127.913 239.592C128.157 239.842 128.432 239.9 128.54 239.9C128.647 239.9 128.923 239.842 129.166 239.592C129.272 239.484 129.333 239.376 129.364 239.3C129.333 239.224 129.272 239.116 129.166 239.008ZM122.586 273.546H124.676V280.102H120.694V277H110.838V280.102H106.834V273.546H107.384C107.412 273.545 107.439 273.544 107.466 273.542C108.158 273.496 108.663 273.064 109.032 272.336C109.169 272.066 109.288 271.755 109.39 271.408C109.752 270.184 109.914 268.51 109.993 266.587C109.993 266.583 109.994 266.579 109.994 266.575C109.997 266.501 110 266.427 110.002 266.352L110.178 261.6H122.586V273.546ZM129.304 282C128.556 283.82 126.766 285.102 124.676 285.102H120.694C118.605 285.102 116.815 283.82 116.067 282H115.466C114.718 283.82 112.928 285.102 110.838 285.102H106.834C104.073 285.102 101.834 282.863 101.834 280.102V273.546C101.834 271.512 103.049 269.761 104.793 268.98C104.808 268.872 104.822 268.756 104.837 268.632C104.916 267.946 104.97 267.126 105.006 266.165L105.182 261.415C105.281 258.727 107.489 256.6 110.178 256.6H122.586C125.348 256.6 127.586 258.839 127.586 261.6V262.138L128.715 259.581C129.515 257.769 131.309 256.6 133.289 256.6H137.579C139.558 256.6 141.35 257.766 142.151 259.575L142.449 260.248C143.039 258.143 144.971 256.6 147.264 256.6H151.62C152.732 256.6 153.76 256.963 154.59 257.577C155.421 256.963 156.448 256.6 157.56 256.6H161.916C162.707 256.6 163.456 256.784 164.121 257.111C164.786 256.784 165.534 256.6 166.325 256.6H170.681C171.793 256.6 172.821 256.963 173.651 257.577C174.482 256.963 175.509 256.6 176.621 256.6H180.977C181.768 256.6 182.517 256.784 183.182 257.111C183.847 256.784 184.595 256.6 185.386 256.6H189.676C192.427 256.6 194.659 258.821 194.676 261.568C195.066 261.603 195.459 261.653 195.852 261.722V261.6C195.852 258.839 198.091 256.6 200.852 256.6H205.142C205.7 256.6 206.237 256.691 206.738 256.86C207.262 256.676 207.821 256.578 208.394 256.578H213.388C214.376 256.578 215.325 256.87 216.127 257.395C216.929 256.87 217.878 256.578 218.866 256.578H223.926C225.782 256.578 227.486 257.606 228.351 259.249C229.215 260.891 229.099 262.878 228.048 264.408L224.926 268.955L228.495 274.18C229.541 275.711 229.653 277.695 228.788 279.334C227.922 280.974 226.22 282 224.366 282H219.24C218.105 282 217.019 281.614 216.149 280.93C215.279 281.614 214.194 282 213.058 282H208.042C207.544 282 207.057 281.926 206.594 281.786C206.135 281.925 205.647 282 205.142 282H200.852C199.758 282 198.746 281.648 197.922 281.052C196.227 281.742 194.406 282 192.668 282H185.386C184.595 282 183.847 281.816 183.182 281.489C182.517 281.816 181.768 282 180.977 282H176.621C175.509 282 174.482 281.637 173.651 281.023C172.821 281.637 171.793 282 170.681 282H166.325C165.534 282 164.786 281.816 164.121 281.489C163.456 281.816 162.707 282 161.916 282H157.56C156.448 282 155.421 281.637 154.59 281.023C153.76 281.637 152.732 282 151.62 282H147.264C146.765 282 146.284 281.927 145.83 281.791C145.371 281.928 144.89 282 144.399 282H139.867C137.967 282 136.245 280.925 135.401 279.248C134.558 280.925 132.835 282 130.935 282H129.304ZM144.399 277L137.579 261.6H133.289L126.491 277H130.935L132.145 274.008H138.657L139.867 277H144.399ZM137.381 270.796L135.401 265.868L133.421 270.796H137.381ZM151.62 277V270.994H157.56V277H161.916V261.6H157.56V267.386H151.62V261.6H147.264V277H151.62ZM176.621 277H180.977V261.6H176.621V267.386H170.681V261.6H166.325V277H170.681V270.994H176.621V277ZM189.676 261.6H185.386V277H192.668C193.876 277 194.947 276.83 195.852 276.493C197.922 275.722 199.13 274.08 199.157 271.61C199.158 271.581 199.158 271.551 199.158 271.522C199.158 269.04 197.974 267.491 195.852 266.848C195.096 266.62 194.222 266.506 193.24 266.506H189.676V261.6ZM189.676 269.608V273.876H192.382C192.48 273.876 192.575 273.872 192.668 273.865C193.688 273.785 194.417 273.267 194.676 272.383C194.744 272.15 194.78 271.892 194.78 271.61C194.78 271.58 194.78 271.551 194.779 271.522C194.772 271.273 194.737 271.052 194.676 270.856C194.47 270.198 193.965 269.832 193.24 269.685C192.981 269.633 192.694 269.608 192.382 269.608H189.676ZM205.142 277V261.6H200.852V277H205.142ZM208.394 261.578L213.52 269.146L208.042 277H213.058L216.138 272.446L219.24 277H224.366L218.866 268.948L223.926 261.578H218.866L216.138 265.758L213.388 261.578H208.394ZM104.547 270.132C104.547 270.132 104.55 270.122 104.558 270.106C104.551 270.124 104.547 270.132 104.547 270.132ZM113.875 265.054L113.808 266.726C113.785 267.357 113.753 267.966 113.707 268.546C113.622 269.629 113.492 270.613 113.296 271.454C113.252 271.643 113.205 271.826 113.154 272C112.973 272.619 112.748 273.141 112.466 273.546H118.296V265.054H113.875ZM124.382 239.3C124.382 241.962 126.208 243.7 128.54 243.7C130.872 243.7 132.698 241.962 132.698 239.3C132.698 236.638 130.872 234.9 128.54 234.9C126.208 234.9 124.382 236.638 124.382 239.3Z" fill="white"/>
<rect x="16" y="300" width="304" height="73" rx="24" fill="white"/>
<rect x="16" y="397" width="125" height="43" rx="13" fill="white"/>
<rect x="195" y="397" width="125" height="43" rx="13" fill="white"/>
<path d="M56.6036 324.14C58.2136 324.14 59.5856 323.566 60.4956 322.502L59.3196 321.382C58.6056 322.166 57.7236 322.544 56.7016 322.544C54.6716 322.544 53.2016 321.116 53.2016 319.1C53.2016 317.084 54.6716 315.656 56.7016 315.656C57.7236 315.656 58.6056 316.034 59.3196 316.804L60.4956 315.698C59.5856 314.634 58.2136 314.06 56.6176 314.06C53.6076 314.06 51.3676 316.174 51.3676 319.1C51.3676 322.026 53.6076 324.14 56.6036 324.14ZM62.4167 316.524L62.2907 319.408C62.2067 320.962 62.1647 322.558 61.0167 322.558C60.9187 322.558 60.8067 322.544 60.6807 322.516L60.5967 323.986C60.9607 324.084 61.2827 324.14 61.5627 324.14C63.3267 324.14 63.7187 322.152 63.8447 319.492L63.9147 318.008H66.7147V324H68.4647V316.524H62.4167ZM76.1975 316.524L73.8315 322.054L71.4795 316.524H69.6595L72.9215 324.028L72.7955 324.322C72.4595 325.064 72.0955 325.358 71.4795 325.358C71.0035 325.358 70.5275 325.162 70.1915 324.84L69.4915 326.128C69.9675 326.562 70.7515 326.814 71.4935 326.814C72.7395 326.814 73.6915 326.296 74.3775 324.602L77.8775 316.524H76.1975ZM88.361 316.524V322.516H85.491V316.524H83.741V322.516H80.843V316.524H79.093V324H90.111V316.524H88.361ZM95.2501 316.44C94.0461 316.44 92.8841 316.748 92.0861 317.364L92.7721 318.638C93.3321 318.176 94.2001 317.896 95.0401 317.896C96.2861 317.896 96.9021 318.498 96.9021 319.52V319.632H94.9701C92.7021 319.632 91.8621 320.612 91.8621 321.858C91.8621 323.16 92.9401 324.098 94.6481 324.098C95.7681 324.098 96.5801 323.734 97.0001 323.09V324H98.6521V319.618C98.6521 317.462 97.4061 316.44 95.2501 316.44ZM95.0121 322.824C94.1161 322.824 93.5841 322.418 93.5841 321.788C93.5841 321.242 93.9061 320.794 95.0961 320.794H96.9021V321.662C96.6081 322.432 95.8661 322.824 95.0121 322.824ZM104.444 315.642C105.942 315.642 106.768 314.942 106.796 313.584H105.606C105.592 314.256 105.144 314.676 104.43 314.676C103.702 314.676 103.282 314.256 103.268 313.584H102.106C102.12 314.942 102.946 315.642 104.444 315.642ZM100.818 324H102.428L106.544 319.072V324H108.294V316.524H106.698L102.568 321.452V316.524H100.818V324ZM111.194 321.774C110.55 321.774 110.06 322.236 110.06 322.936C110.06 323.44 110.326 323.804 110.718 323.972L110.158 326.114H111.292L112.006 324.14C112.258 323.496 112.328 323.244 112.328 322.936C112.328 322.25 111.852 321.774 111.194 321.774ZM123.857 316.524H116.857V318.008H119.489V324H121.239V318.008H123.857V316.524ZM130.557 316.524L128.191 322.054L125.839 316.524H124.019L127.281 324.028L127.155 324.322C126.819 325.064 126.455 325.358 125.839 325.358C125.363 325.358 124.887 325.162 124.551 324.84L123.851 326.128C124.327 326.562 125.111 326.814 125.853 326.814C127.099 326.814 128.051 326.296 128.737 324.602L132.237 316.524H130.557ZM139.429 316.524H132.429V318.008H135.061V324H136.811V318.008H139.429V316.524ZM144.568 324H146.318V321.046H150.084V324H151.834V316.524H150.084V319.562H146.318V316.524H144.568V324ZM161.179 320.304C161.179 317.966 159.583 316.44 157.399 316.44C155.173 316.44 153.535 318.036 153.535 320.262C153.535 322.488 155.159 324.098 157.665 324.098C158.953 324.098 160.003 323.678 160.675 322.88L159.737 321.802C159.205 322.348 158.547 322.614 157.707 322.614C156.405 322.614 155.495 321.914 155.285 320.822H161.151C161.165 320.654 161.179 320.444 161.179 320.304ZM157.399 317.84C158.547 317.84 159.373 318.582 159.513 319.66H155.271C155.439 318.568 156.265 317.84 157.399 317.84ZM168.742 316.524H161.742V318.008H164.374V324H166.124V318.008H168.742V316.524ZM173.88 316.524V324H175.63V318.008H179.312V324H181.048V316.524H173.88ZM190.409 320.304C190.409 317.966 188.813 316.44 186.629 316.44C184.403 316.44 182.765 318.036 182.765 320.262C182.765 322.488 184.389 324.098 186.895 324.098C188.183 324.098 189.233 323.678 189.905 322.88L188.967 321.802C188.435 322.348 187.777 322.614 186.937 322.614C185.635 322.614 184.725 321.914 184.515 320.822H190.381C190.395 320.654 190.409 320.444 190.409 320.304ZM186.629 317.84C187.777 317.84 188.603 318.582 188.743 319.66H184.501C184.669 318.568 185.495 317.84 186.629 317.84ZM196.467 316.44C195.445 316.44 194.577 316.79 193.989 317.504V316.524H192.323V326.716H194.073V323.09C194.675 323.776 195.515 324.098 196.467 324.098C198.651 324.098 200.261 322.586 200.261 320.262C200.261 317.952 198.651 316.44 196.467 316.44ZM196.271 322.6C195.011 322.6 194.045 321.69 194.045 320.262C194.045 318.834 195.011 317.924 196.271 317.924C197.531 317.924 198.483 318.834 198.483 320.262C198.483 321.69 197.531 322.6 196.271 322.6ZM205.405 324.098C206.861 324.098 208.023 323.468 208.597 322.348L207.253 321.564C206.805 322.278 206.133 322.6 205.391 322.6C204.103 322.6 203.123 321.718 203.123 320.262C203.123 318.82 204.103 317.924 205.391 317.924C206.133 317.924 206.805 318.246 207.253 318.96L208.597 318.176C208.023 317.042 206.861 316.44 205.405 316.44C203.039 316.44 201.359 318.022 201.359 320.262C201.359 322.502 203.039 324.098 205.405 324.098ZM213.361 324.098C215.685 324.098 217.351 322.502 217.351 320.262C217.351 318.022 215.685 316.44 213.361 316.44C211.065 316.44 209.385 318.022 209.385 320.262C209.385 322.502 211.065 324.098 213.361 324.098ZM213.361 322.6C212.101 322.6 211.149 321.69 211.149 320.262C211.149 318.834 212.101 317.924 213.361 317.924C214.635 317.924 215.587 318.834 215.587 320.262C215.587 321.69 214.635 322.6 213.361 322.6ZM219.079 324H220.829V321.046H224.595V324H226.345V316.524H224.595V319.562H220.829V316.524H219.079V324ZM231.477 316.44C230.273 316.44 229.111 316.748 228.313 317.364L228.999 318.638C229.559 318.176 230.427 317.896 231.267 317.896C232.513 317.896 233.129 318.498 233.129 319.52V319.632H231.197C228.929 319.632 228.089 320.612 228.089 321.858C228.089 323.16 229.167 324.098 230.875 324.098C231.995 324.098 232.807 323.734 233.227 323.09V324H234.879V319.618C234.879 317.462 233.633 316.44 231.477 316.44ZM231.239 322.824C230.343 322.824 229.811 322.418 229.811 321.788C229.811 321.242 230.133 320.794 231.323 320.794H233.129V321.662C232.835 322.432 232.093 322.824 231.239 322.824ZM237.772 316.524L237.646 319.408C237.562 320.962 237.52 322.558 236.372 322.558C236.274 322.558 236.162 322.544 236.036 322.516L235.952 323.986C236.316 324.084 236.638 324.14 236.918 324.14C238.682 324.14 239.074 322.152 239.2 319.492L239.27 318.008H242.07V324H243.82V316.524H237.772ZM249.929 318.988L247.927 318.974V316.524H246.177V324L249.677 324.014C251.721 324.028 252.883 323.09 252.883 321.452C252.883 319.898 251.847 318.988 249.929 318.988ZM249.523 322.726L247.927 322.712V320.178L249.523 320.192C250.559 320.206 251.105 320.57 251.105 321.424C251.105 322.292 250.545 322.74 249.523 322.726ZM254.421 324H256.171V321.046H259.937V324H261.687V316.524H259.937V319.562H256.171V316.524H254.421V324ZM267.672 318.988L265.782 318.974V316.524H264.032V324L267.42 324.014C269.464 324.028 270.612 323.09 270.612 321.452C270.612 319.898 269.59 318.988 267.672 318.988ZM271.578 324H273.328V316.524H271.578V324ZM267.266 322.726L265.782 322.712V320.178L267.266 320.192C268.302 320.206 268.848 320.57 268.848 321.424C268.848 322.292 268.288 322.74 267.266 322.726ZM282.331 324L279.405 320.178L282.205 316.524H280.315L278.481 318.974L276.647 316.524H274.701L277.487 320.206L274.575 324H276.507L278.439 321.41L280.357 324H282.331ZM37.3977 338.516V332.524H31.2377L31.1397 335.086C31.0557 336.836 30.8737 338.474 29.8237 338.516H29.4737V341.666H31.0977V340H36.8657V341.666H38.5037V338.516H37.3977ZM32.7357 335.212L32.7777 334.008H35.6477V338.516H31.9657C32.5677 337.942 32.6797 336.612 32.7357 335.212ZM42.8526 332.44C41.6486 332.44 40.4866 332.748 39.6886 333.364L40.3746 334.638C40.9346 334.176 41.8026 333.896 42.6426 333.896C43.8886 333.896 44.5046 334.498 44.5046 335.52V335.632H42.5726C40.3046 335.632 39.4646 336.612 39.4646 337.858C39.4646 339.16 40.5426 340.098 42.2506 340.098C43.3706 340.098 44.1826 339.734 44.6026 339.09V340H46.2546V335.618C46.2546 333.462 45.0086 332.44 42.8526 332.44ZM42.6146 338.824C41.7186 338.824 41.1866 338.418 41.1866 337.788C41.1866 337.242 41.5086 336.794 42.6986 336.794H44.5046V337.662C44.2106 338.432 43.4686 338.824 42.6146 338.824ZM48.4201 340H50.1701V337.046H53.9361V340H55.6861V332.524H53.9361V335.562H50.1701V332.524H48.4201V340ZM58.0315 340H59.7815V337.046H63.5475V340H65.2975V332.524H63.5475V335.562H59.7815V332.524H58.0315V340ZM71.2828 334.988L69.3928 334.974V332.524H67.6428V340L71.0308 340.014C73.0748 340.028 74.2228 339.09 74.2228 337.452C74.2228 335.898 73.2008 334.988 71.2828 334.988ZM75.1888 340H76.9388V332.524H75.1888V340ZM70.8768 338.726L69.3928 338.712V336.178L70.8768 336.192C71.9128 336.206 72.4588 336.57 72.4588 337.424C72.4588 338.292 71.8988 338.74 70.8768 338.726ZM85.9412 340L83.0152 336.178L85.8152 332.524H83.9252L82.0912 334.974L80.2572 332.524H78.3112L81.0972 336.206L78.1852 340H80.1172L82.0492 337.41L83.9672 340H85.9412ZM96.4807 336.108C97.1947 335.8 97.6287 335.226 97.6287 334.456C97.6287 333.224 96.5367 332.524 94.7167 332.524H91.0627V340H94.8707C96.8867 340 97.8667 339.216 97.8667 337.9C97.8667 336.99 97.4047 336.388 96.4807 336.108ZM92.7287 333.798H94.5627C95.4587 333.798 95.9207 334.092 95.9207 334.708C95.9207 335.324 95.4587 335.646 94.5627 335.646H92.7287V333.798ZM94.7307 338.726H92.7287V336.808H94.7867C95.7387 336.808 96.1727 337.13 96.1727 337.788C96.1727 338.432 95.6687 338.726 94.7307 338.726ZM103.063 340.098C105.387 340.098 107.053 338.502 107.053 336.262C107.053 334.022 105.387 332.44 103.063 332.44C100.767 332.44 99.0867 334.022 99.0867 336.262C99.0867 338.502 100.767 340.098 103.063 340.098ZM103.063 338.6C101.803 338.6 100.851 337.69 100.851 336.262C100.851 334.834 101.803 333.924 103.063 333.924C104.337 333.924 105.289 334.834 105.289 336.262C105.289 337.69 104.337 338.6 103.063 338.6ZM112.113 340.098C114.437 340.098 116.103 338.502 116.103 336.262C116.103 334.022 114.437 332.44 112.113 332.44C109.817 332.44 108.137 334.022 108.137 336.262C108.137 338.502 109.817 340.098 112.113 340.098ZM112.113 338.6C110.853 338.6 109.901 337.69 109.901 336.262C109.901 334.834 110.853 333.924 112.113 333.924C113.387 333.924 114.339 334.834 114.339 336.262C114.339 337.69 113.387 338.6 112.113 338.6ZM121.878 332.888C120.73 332.888 119.75 333.35 119.092 334.148C119.246 332.524 120.1 331.684 121.906 331.306L125.056 330.662L124.804 329.094L121.332 329.836C118.672 330.396 117.412 332.146 117.412 335.142C117.412 338.404 118.924 340.14 121.486 340.14C123.838 340.14 125.476 338.67 125.476 336.472C125.476 334.358 124.02 332.888 121.878 332.888ZM121.528 338.726C120.24 338.726 119.344 337.816 119.344 336.514C119.344 335.212 120.226 334.372 121.528 334.372C122.816 334.372 123.684 335.212 123.684 336.514C123.684 337.802 122.816 338.726 121.528 338.726ZM138.188 338.516V332.524H136.438V338.516H133.568V332.524H131.818V338.516H128.92V332.524H127.17V340H137.628V341.54H139.266V338.516H138.188ZM147.541 336.304C147.541 333.966 145.945 332.44 143.761 332.44C141.535 332.44 139.897 334.036 139.897 336.262C139.897 338.488 141.521 340.098 144.027 340.098C145.315 340.098 146.365 339.678 147.037 338.88L146.099 337.802C145.567 338.348 144.909 338.614 144.069 338.614C142.767 338.614 141.857 337.914 141.647 336.822H147.513C147.527 336.654 147.541 336.444 147.541 336.304ZM143.761 333.84C144.909 333.84 145.735 334.582 145.875 335.66H141.633C141.801 334.568 142.627 333.84 143.761 333.84ZM149.987 340.098C150.617 340.098 151.135 339.608 151.135 338.936C151.135 338.236 150.617 337.774 149.987 337.774C149.357 337.774 148.839 338.236 148.839 338.936C148.839 339.608 149.357 340.098 149.987 340.098ZM163.826 330.2V334.246H158.758V330.2H156.938V340H158.758V335.8H163.826V340H165.646V330.2H163.826ZM168.199 340H169.809L173.925 335.072V340H175.675V332.524H174.079L169.949 337.452V332.524H168.199V340ZM182.622 332.524V335.8C182.02 336.08 181.362 336.22 180.746 336.22C179.738 336.22 179.136 335.786 179.136 334.806V332.524H177.386V334.918C177.386 336.78 178.478 337.62 180.368 337.62C181.194 337.62 181.95 337.424 182.622 337.102V340H184.372V332.524H182.622ZM192.647 332.524H185.647V334.008H188.279V340H190.029V334.008H192.647V332.524ZM196.92 340.098C199.244 340.098 200.91 338.502 200.91 336.262C200.91 334.022 199.244 332.44 196.92 332.44C194.624 332.44 192.944 334.022 192.944 336.262C192.944 338.502 194.624 340.098 196.92 340.098ZM196.92 338.6C195.66 338.6 194.708 337.69 194.708 336.262C194.708 334.834 195.66 333.924 196.92 333.924C198.194 333.924 199.146 334.834 199.146 336.262C199.146 337.69 198.194 338.6 196.92 338.6ZM206.508 340H208.258V337.046H212.024V340H213.774V332.524H212.024V335.562H208.258V332.524H206.508V340ZM223.119 336.304C223.119 333.966 221.523 332.44 219.339 332.44C217.113 332.44 215.475 334.036 215.475 336.262C215.475 338.488 217.099 340.098 219.605 340.098C220.893 340.098 221.943 339.678 222.615 338.88L221.677 337.802C221.145 338.348 220.487 338.614 219.647 338.614C218.345 338.614 217.435 337.914 217.225 336.822H223.091C223.105 336.654 223.119 336.444 223.119 336.304ZM219.339 333.84C220.487 333.84 221.313 334.582 221.453 335.66H217.211C217.379 334.568 218.205 333.84 219.339 333.84ZM232.235 340.098C234.559 340.098 236.225 338.502 236.225 336.262C236.225 334.022 234.559 332.44 232.235 332.44C229.939 332.44 228.259 334.022 228.259 336.262C228.259 338.502 229.939 340.098 232.235 340.098ZM232.235 338.6C230.975 338.6 230.023 337.69 230.023 336.262C230.023 334.834 230.975 333.924 232.235 333.924C233.509 333.924 234.461 334.834 234.461 336.262C234.461 337.69 233.509 338.6 232.235 338.6ZM243.602 332.524H236.602V334.008H239.234V340H240.984V334.008H243.602V332.524ZM244.871 340H246.621V337.046H250.387V340H252.137V332.524H250.387V335.562H246.621V332.524H244.871V340ZM257.815 340.098C260.139 340.098 261.805 338.502 261.805 336.262C261.805 334.022 260.139 332.44 257.815 332.44C255.519 332.44 253.839 334.022 253.839 336.262C253.839 338.502 255.519 340.098 257.815 340.098ZM257.815 338.6C256.555 338.6 255.603 337.69 255.603 336.262C255.603 334.834 256.555 333.924 257.815 333.924C259.089 333.924 260.041 334.834 260.041 336.262C260.041 337.69 259.089 338.6 257.815 338.6ZM266.935 340.098C268.391 340.098 269.553 339.468 270.127 338.348L268.783 337.564C268.335 338.278 267.663 338.6 266.921 338.6C265.633 338.6 264.653 337.718 264.653 336.262C264.653 334.82 265.633 333.924 266.921 333.924C267.663 333.924 268.335 334.246 268.783 334.96L270.127 334.176C269.553 333.042 268.391 332.44 266.935 332.44C264.569 332.44 262.889 334.022 262.889 336.262C262.889 338.502 264.569 340.098 266.935 340.098ZM271.668 340H273.278L277.394 335.072V340H279.144V332.524H277.548L273.418 337.452V332.524H271.668V340ZM287.42 332.524H280.42V334.008H283.052V340H284.802V334.008H287.42V332.524ZM291.764 340.098C293.22 340.098 294.382 339.468 294.956 338.348L293.612 337.564C293.164 338.278 292.492 338.6 291.75 338.6C290.462 338.6 289.482 337.718 289.482 336.262C289.482 334.82 290.462 333.924 291.75 333.924C292.492 333.924 293.164 334.246 293.612 334.96L294.956 334.176C294.382 333.042 293.22 332.44 291.764 332.44C289.398 332.44 287.718 334.022 287.718 336.262C287.718 338.502 289.398 340.098 291.764 340.098ZM299.175 332.524C297.089 332.524 295.759 333.462 295.759 335.212C295.759 336.36 296.361 337.144 297.425 337.508L295.661 340H297.537L299.063 337.746H301.037V340H302.605V332.524H299.175ZM299.231 333.994H301.037V336.528H299.175C298.097 336.528 297.537 336.136 297.537 335.268C297.537 334.372 298.153 333.994 299.231 333.994ZM91.0722 356H93.1302L90.2322 352.122L92.9482 348.524H91.0722L88.8602 351.548H87.4602V348.524H85.7102V356H87.4602V353.004H88.8182L91.0722 356ZM98.2336 356H99.9836V353.046H103.75V356H105.5V348.524H103.75V351.562H99.9836V348.524H98.2336V356ZM107.845 356H109.455L113.571 351.072V356H115.321V348.524H113.725L109.595 353.452V348.524H107.845V356ZM126.607 356L126.593 348.524H124.955L122.169 353.2L119.509 348.524H117.675V356H119.271V351.03L121.749 355.216H122.505L125.025 351.044V356H126.607ZM132.823 348.524V356H134.573V350.008H138.255V356H139.991V348.524H132.823ZM145.685 356.098C148.009 356.098 149.675 354.502 149.675 352.262C149.675 350.022 148.009 348.44 145.685 348.44C143.389 348.44 141.709 350.022 141.709 352.262C141.709 354.502 143.389 356.098 145.685 356.098ZM145.685 354.6C144.425 354.6 143.473 353.69 143.473 352.262C143.473 350.834 144.425 349.924 145.685 349.924C146.959 349.924 147.911 350.834 147.911 352.262C147.911 353.69 146.959 354.6 145.685 354.6ZM158.605 356.098C160.929 356.098 162.595 354.502 162.595 352.262C162.595 350.022 160.929 348.44 158.605 348.44C156.309 348.44 154.629 350.022 154.629 352.262C154.629 354.502 156.309 356.098 158.605 356.098ZM158.605 354.6C157.345 354.6 156.393 353.69 156.393 352.262C156.393 350.834 157.345 349.924 158.605 349.924C159.879 349.924 160.831 350.834 160.831 352.262C160.831 353.69 159.879 354.6 158.605 354.6ZM169.972 348.524H162.972V350.008H165.604V356H167.354V350.008H169.972V348.524ZM177.61 354.516V348.524H171.45L171.352 351.086C171.268 352.836 171.086 354.474 170.036 354.516H169.686V357.666H171.31V356H177.078V357.666H178.716V354.516H177.61ZM172.948 351.212L172.99 350.008H175.86V354.516H172.178C172.78 353.942 172.892 352.612 172.948 351.212ZM187.279 352.304C187.279 349.966 185.683 348.44 183.499 348.44C181.273 348.44 179.635 350.036 179.635 352.262C179.635 354.488 181.259 356.098 183.765 356.098C185.053 356.098 186.103 355.678 186.775 354.88L185.837 353.802C185.305 354.348 184.647 354.614 183.807 354.614C182.505 354.614 181.595 353.914 181.385 352.822H187.251C187.265 352.654 187.279 352.444 187.279 352.304ZM183.499 349.84C184.647 349.84 185.473 350.582 185.613 351.66H181.371C181.539 350.568 182.365 349.84 183.499 349.84ZM189.825 348.524L189.699 351.408C189.615 352.962 189.573 354.558 188.425 354.558C188.327 354.558 188.215 354.544 188.089 354.516L188.005 355.986C188.369 356.084 188.691 356.14 188.971 356.14C190.735 356.14 191.127 354.152 191.253 351.492L191.323 350.008H194.123V356H195.873V348.524H189.825ZM201.982 350.988L199.98 350.974V348.524H198.23V356L201.73 356.014C203.774 356.028 204.936 355.09 204.936 353.452C204.936 351.898 203.9 350.988 201.982 350.988ZM201.576 354.726L199.98 354.712V352.178L201.576 352.192C202.612 352.206 203.158 352.57 203.158 353.424C203.158 354.292 202.598 354.74 201.576 354.726ZM206.474 356H208.224V353.046H211.99V356H213.74V348.524H211.99V351.562H208.224V348.524H206.474V356ZM219.417 356.098C221.741 356.098 223.407 354.502 223.407 352.262C223.407 350.022 221.741 348.44 219.417 348.44C217.121 348.44 215.441 350.022 215.441 352.262C215.441 354.502 217.121 356.098 219.417 356.098ZM219.417 354.6C218.157 354.6 217.205 353.69 217.205 352.262C217.205 350.834 218.157 349.924 219.417 349.924C220.691 349.924 221.643 350.834 221.643 352.262C221.643 353.69 220.691 354.6 219.417 354.6ZM228.538 356.098C229.994 356.098 231.156 355.468 231.73 354.348L230.386 353.564C229.938 354.278 229.266 354.6 228.524 354.6C227.236 354.6 226.256 353.718 226.256 352.262C226.256 350.82 227.236 349.924 228.524 349.924C229.266 349.924 229.938 350.246 230.386 350.96L231.73 350.176C231.156 349.042 229.994 348.44 228.538 348.44C226.172 348.44 224.492 350.022 224.492 352.262C224.492 354.502 226.172 356.098 228.538 356.098ZM239.124 348.524H232.124V350.008H234.756V356H236.506V350.008H239.124V348.524ZM240.394 356H242.004L246.12 351.072V356H247.87V348.524H246.274L242.144 353.452V348.524H240.394V356ZM250.756 356.098C251.386 356.098 251.904 355.608 251.904 354.936C251.904 354.236 251.386 353.774 250.756 353.774C250.126 353.774 249.608 354.236 249.608 354.936C249.608 355.608 250.126 356.098 250.756 356.098Z" fill="black"/>
<path d="M250 5C250 26.7477 241.361 47.6048 225.983 62.9828C210.605 78.3607 189.748 87 168 87C146.252 87 125.395 78.3607 110.017 62.9828C94.6393 47.6048 86 26.7478 86 5.00002L168 5H250Z" fill="white"/>
<path d="M48.032 423.216C48.032 414.96 35.328 417.52 35.328 414.096C35.328 412.976 36.288 412.08 38.944 412.08C40.896 412.08 43.008 412.656 45.152 413.808L47.104 409.104C45.312 408.048 42.976 407.408 40.608 407.216V403.76H36.768V407.28C31.584 407.92 29.056 410.896 29.056 414.416C29.056 422.736 41.792 420.144 41.792 423.696C41.792 424.784 40.768 425.52 38.144 425.52C35.552 425.52 32.736 424.624 30.752 423.312L28.672 427.984C30.528 429.264 33.568 430.192 36.768 430.416V433.84H40.608V430.288C45.6 429.552 48.032 426.608 48.032 423.216Z" fill="#2862F3"/>
<path d="M63.22 423.36L66.44 420.32C68.4 418.5 68.78 417.26 68.78 415.9C68.78 413.36 66.7 411.76 63.58 411.76C61.06 411.76 59.1 412.78 58.02 414.36L60.38 415.88C61.06 414.94 62.08 414.48 63.28 414.48C64.76 414.48 65.52 415.12 65.52 416.22C65.52 416.9 65.3 417.62 64.06 418.8L58.66 423.9V426H69.24V423.36H63.22ZM76.5378 426.24C79.9978 426.24 82.5378 423.62 82.5378 419C82.5378 414.38 79.9978 411.76 76.5378 411.76C73.0978 411.76 70.5378 414.38 70.5378 419C70.5378 423.62 73.0978 426.24 76.5378 426.24ZM76.5378 423.5C74.9378 423.5 73.8178 422.18 73.8178 419C73.8178 415.82 74.9378 414.5 76.5378 414.5C78.1578 414.5 79.2778 415.82 79.2778 419C79.2778 422.18 78.1578 423.5 76.5378 423.5ZM95.7761 426.24C99.2361 426.24 101.776 423.62 101.776 419C101.776 414.38 99.2361 411.76 95.7761 411.76C92.3361 411.76 89.7761 414.38 89.7761 419C89.7761 423.62 92.3361 426.24 95.7761 426.24ZM95.7761 423.5C94.1761 423.5 93.0561 422.18 93.0561 419C93.0561 415.82 94.1761 414.5 95.7761 414.5C97.3961 414.5 98.5161 415.82 98.5161 419C98.5161 422.18 97.3961 423.5 95.7761 423.5ZM109.35 426.24C112.81 426.24 115.35 423.62 115.35 419C115.35 414.38 112.81 411.76 109.35 411.76C105.91 411.76 103.35 414.38 103.35 419C103.35 423.62 105.91 426.24 109.35 426.24ZM109.35 423.5C107.75 423.5 106.63 422.18 106.63 419C106.63 415.82 107.75 414.5 109.35 414.5C110.97 414.5 112.09 415.82 112.09 419C112.09 422.18 110.97 423.5 109.35 423.5ZM122.925 426.24C126.385 426.24 128.925 423.62 128.925 419C128.925 414.38 126.385 411.76 122.925 411.76C119.485 411.76 116.925 414.38 116.925 419C116.925 423.62 119.485 426.24 122.925 426.24ZM122.925 423.5C121.325 423.5 120.205 422.18 120.205 419C120.205 415.82 121.325 414.5 122.925 414.5C124.545 414.5 125.665 415.82 125.665 419C125.665 422.18 124.545 423.5 122.925 423.5Z" fill="black"/>
<path d="M241.22 423.36L244.44 420.32C246.4 418.5 246.78 417.26 246.78 415.9C246.78 413.36 244.7 411.76 241.58 411.76C239.06 411.76 237.1 412.78 236.02 414.36L238.38 415.88C239.06 414.94 240.08 414.48 241.28 414.48C242.76 414.48 243.52 415.12 243.52 416.22C243.52 416.9 243.3 417.62 242.06 418.8L236.66 423.9V426H247.24V423.36H241.22ZM254.538 426.24C257.998 426.24 260.538 423.62 260.538 419C260.538 414.38 257.998 411.76 254.538 411.76C251.098 411.76 248.538 414.38 248.538 419C248.538 423.62 251.098 426.24 254.538 426.24ZM254.538 423.5C252.938 423.5 251.818 422.18 251.818 419C251.818 415.82 252.938 414.5 254.538 414.5C256.158 414.5 257.278 415.82 257.278 419C257.278 422.18 256.158 423.5 254.538 423.5ZM281.816 426L281.776 415.24H278.856L275.196 421.46L271.756 415.24H268.496V426H271.316V419.54L274.456 424.96H275.776L278.996 419.56V426H281.816ZM284.805 426H287.685L292.905 419.6V426H296.005V415.24H293.145L287.905 421.64V415.24H284.805V426ZM299.004 426H302.104V421.98H306.784V426H309.904V415.24H306.784V419.44H302.104V415.24H299.004V426Z" fill="black"/>
<path d="M216.5 406C209.595 406 204 411.595 204 418.5C204 425.405 209.595 431 216.5 431C223.405 431 229 425.405 229 418.5C229 411.595 223.405 406 216.5 406Z" fill="#2862F3"/>
<path fill-rule="evenodd" clip-rule="evenodd" d="M215.961 410C214.878 410 214 410.878 214 411.961V419.153C214 419.311 214.019 419.464 214.054 419.611C214.047 420.263 214.376 420.901 214.974 421.262L220.414 424.535C221.313 425.077 222.481 424.786 223.022 423.887C223.563 422.988 223.273 421.82 222.374 421.279L217.923 418.6V411.961C217.923 410.878 217.045 410 215.961 410Z" fill="white"/>
<g filter="url(#filter0_d)">
<path d="M162.531 400.393L185.975 433.213C179.766 434.57 168.698 428.331 168.698 428.331C168.698 428.331 160.834 438.706 154.912 440L162.531 400.393Z" fill="white"/>
</g>
<path fill-rule="evenodd" clip-rule="evenodd" d="M154.912 440L158.469 421.51C161.522 424.284 164.956 426.604 168.698 428.331C168.698 428.331 160.834 438.706 154.912 440Z" fill="#AFD4FF"/>
<path d="M179.305 41.598C182.031 39.684 183.655 36.9 183.655 33.42C183.655 26.228 177.043 21.588 167.473 21.588C157.903 21.588 151.291 26.228 151.291 33.42C151.291 36.9 152.915 39.684 155.641 41.598C151.987 43.686 149.841 46.876 149.841 51.052C149.841 58.824 156.975 63.812 167.473 63.812C177.971 63.812 185.105 58.824 185.105 51.052C185.105 46.876 182.959 43.686 179.305 41.598ZM167.473 29.65C170.315 29.65 172.345 31.216 172.345 33.942C172.345 36.61 170.373 38.176 167.473 38.176C164.573 38.176 162.659 36.61 162.659 33.942C162.659 31.216 164.631 29.65 167.473 29.65ZM167.473 55.75C163.819 55.75 161.383 53.836 161.383 50.704C161.383 47.572 163.819 45.658 167.473 45.658C171.127 45.658 173.563 47.572 173.563 50.704C173.563 53.836 171.127 55.75 167.473 55.75Z" fill="#2862F3"/>
<g filter="url(#filter1_di)">
<path fill-rule="evenodd" clip-rule="evenodd" d="M193.795 150.002C200.495 142.407 210.526 132.419 218.259 136.956C225.063 140.96 221.622 150.135 215.611 151.339C215.376 151.546 215.037 151.832 214.55 152.241L214.474 152.304C209.082 156.844 204.231 161.982 199.427 167.125C196.697 170.051 191.133 170.265 188.443 167.125C186.822 165.241 185.135 163.405 183.41 161.602V179.917H150.385V160.799C148.388 162.861 146.425 164.957 144.558 167.128C141.859 170.268 136.301 170.054 133.57 167.128C133.139 166.667 132.708 166.204 132.276 165.74C127.921 161.062 123.499 156.312 118.526 152.307C117.961 151.852 117.584 151.545 117.335 151.33C111.36 150.083 107.954 140.948 114.746 136.956C122.476 132.416 132.504 142.407 139.207 150.002C143.468 145.59 147.965 141.374 152.43 137.188C152.944 136.706 153.457 136.225 153.969 135.744C154.015 135.701 154.063 135.667 154.111 135.633C154.15 135.605 154.189 135.577 154.227 135.544C161.087 127.98 175.261 128.673 180.955 137.544C185.295 141.612 189.652 145.714 193.795 150.002ZM121.93 150.691C121.851 150.725 121.77 150.758 121.69 150.794C121.968 150.688 122.25 150.57 122.532 150.411C122.329 150.525 122.13 150.608 121.93 150.691ZM210.408 150.376C210.721 150.562 211.037 150.692 211.347 150.808C211.266 150.773 211.186 150.74 211.105 150.706C210.874 150.61 210.642 150.514 210.408 150.376Z" fill="white"/>
<path d="M166.899 127.914C174.409 127.914 180.497 121.826 180.497 114.316C180.497 106.807 174.409 100.719 166.899 100.719C159.39 100.719 153.302 106.807 153.302 114.316C153.302 121.826 159.39 127.914 166.899 127.914Z" fill="white"/>
</g>
<defs>
<filter id="filter0_d" x="150.912" y="396.393" width="45.0628" height="53.6066" filterUnits="userSpaceOnUse" color-interpolation-filters="sRGB">
<feFlood flood-opacity="0" result="BackgroundImageFix"/>
<feColorMatrix in="SourceAlpha" type="matrix" values="0 0 0 0 0 0 0 0 0 0 0 0 0 0 0 0 0 0 127 0"/>
<feOffset dx="3" dy="3"/>
<feGaussianBlur stdDeviation="3.5"/>
<feColorMatrix type="matrix" values="0 0 0 0 0.11124 0 0 0 0 0.205788 0 0 0 0 0.754167 0 0 0 0.66 0"/>
<feBlend mode="normal" in2="BackgroundImageFix" result="effect1_dropShadow"/>
<feBlend mode="normal" in="SourceGraphic" in2="effect1_dropShadow" result="shape"/>
</filter>
<filter id="filter1_di" x="105" y="94.719" width="131" height="99.1985" filterUnits="userSpaceOnUse" color-interpolation-filters="sRGB">
<feFlood flood-opacity="0" result="BackgroundImageFix"/>
<feColorMatrix in="SourceAlpha" type="matrix" values="0 0 0 0 0 0 0 0 0 0 0 0 0 0 0 0 0 0 127 0"/>
<feOffset dx="4" dy="4"/>
<feGaussianBlur stdDeviation="5"/>
<feColorMatrix type="matrix" values="0 0 0 0 0.168813 0 0 0 0 0.394509 0 0 0 0 0.9125 0 0 0 1 0"/>
<feBlend mode="normal" in2="BackgroundImageFix" result="effect1_dropShadow"/>
<feBlend mode="normal" in="SourceGraphic" in2="effect1_dropShadow" result="shape"/>
<feColorMatrix in="SourceAlpha" type="matrix" values="0 0 0 0 0 0 0 0 0 0 0 0 0 0 0 0 0 0 127 0" result="hardAlpha"/>
<feOffset dx="-2" dy="-2"/>
<feGaussianBlur stdDeviation="2"/>
<feComposite in2="hardAlpha" operator="arithmetic" k2="-1" k3="1"/>
<feColorMatrix type="matrix" values="0 0 0 0 0.564167 0 0 0 0 0.713194 0 0 0 0 1 0 0 0 1 0"/>
<feBlend mode="normal" in2="shape" result="effect2_innerShadow"/>
</filter>
<linearGradient id="paint0_linear" x1="57.5" y1="-9" x2="289.5" y2="495.5" gradientUnits="userSpaceOnUse">
<stop stop-color="#3793FF"/>
<stop offset="1" stop-color="#141CE1"/>
</linearGradient>
<linearGradient id="paint1_linear" x1="49" y1="11" x2="301.5" y2="474" gradientUnits="userSpaceOnUse">
<stop stop-color="#6369FF"/>
<stop offset="1" stop-color="#51B5F4"/>
</linearGradient>
<linearGradient id="paint2_linear" x1="57.5" y1="-9" x2="289.5" y2="495.5" gradientUnits="userSpaceOnUse">
<stop stop-color="#00E0FF"/>
<stop offset="1" stop-color="#42F2D1"/>
</linearGradient>
<linearGradient id="paint3_linear" x1="49" y1="11" x2="301.5" y2="474" gradientUnits="userSpaceOnUse">
<stop stop-color="#51B5F5"/>
<stop offset="1" stop-color="#28D7BE"/>
</linearGradient>
<linearGradient id="paint4_linear" x1="308.165" y1="473.49" x2="92.7043" y2="54.1817" gradientUnits="userSpaceOnUse">
<stop stop-color="#73F5FF"/>
<stop offset="0.99" stop-color="#7AFFEC"/>
</linearGradient>
<linearGradient id="paint5_linear" x1="18.7592" y1="227" x2="211" y2="227" gradientUnits="userSpaceOnUse">
<stop stop-color="white"/>
<stop offset="0.99" stop-color="white" stop-opacity="0.4"/>
</linearGradient>
<linearGradient id="paint6_linear" x1="176.9" y1="65" x2="257" y2="65" gradientUnits="userSpaceOnUse">
<stop stop-color="white"/>
<stop offset="0.99" stop-color="white" stop-opacity="0.4"/>
</linearGradient>
</defs>
</svg>
