<svg width="338" height="474" viewBox="0 0 338 474" fill="none" xmlns="http://www.w3.org/2000/svg">
<rect x="2.5" y="2.5" width="331" height="469" rx="32.5" fill="url(#paint0_linear)" stroke="url(#paint1_linear)" stroke-width="5"/>
<mask id="mask0" mask-type="alpha" maskUnits="userSpaceOnUse" x="2" y="0" width="336" height="474">
<rect x="4.5" y="2.5" width="331" height="469" rx="41.5" fill="url(#paint2_linear)" stroke="url(#paint3_linear)" stroke-width="5"/>
</mask>
<g mask="url(#mask0)">
<path d="M198.89 5.0093C198.89 5.0093 97.8208 47.0947 93.9888 101.845C90.1568 156.595 112.775 152.615 106.069 185.086C99.3632 217.557 -10.9124 255.616 18.7856 356.766C48.4837 457.916 142.368 370.584 242 469H35C18.4315 469 5 455.569 5 439V35.0014C5 18.4323 18.4323 5.00064 35.0014 5.00144L198.89 5.0093Z" fill="url(#paint4_linear)" fill-opacity="0.5"/>
</g>
<path opacity="0.46" d="M219.887 378C202.092 377.978 184.702 372.68 169.917 362.777C155.131 352.875 143.613 338.811 136.819 322.363C130.024 305.916 128.258 287.824 131.743 270.373C135.229 252.922 143.809 236.896 156.4 224.321C168.992 211.745 185.028 203.185 202.483 199.721C219.939 196.258 238.029 198.046 254.468 204.862C270.906 211.677 284.956 223.212 294.84 238.01C304.724 252.808 310 270.204 310 288C309.958 311.876 300.447 334.761 283.553 351.633C266.66 368.506 243.763 377.988 219.887 378ZM219.887 222.747C206.985 222.764 194.378 226.607 183.659 233.788C172.94 240.969 164.59 251.166 159.665 263.091C154.74 275.016 153.461 288.134 155.989 300.786C158.517 313.438 164.739 325.056 173.868 334.173C182.998 343.29 194.625 349.496 207.28 352.006C219.936 354.517 233.051 353.219 244.97 348.278C256.888 343.336 267.074 334.972 274.24 324.243C281.406 313.515 285.231 300.902 285.231 288C285.177 270.703 278.27 254.132 266.022 241.918C253.774 229.704 237.184 222.843 219.887 222.837V222.747Z" fill="url(#paint5_linear)"/>
<path opacity="0.46" d="M99.9498 126C92.0407 125.99 84.3121 123.636 77.7407 119.234C71.1694 114.833 66.0503 108.583 63.0305 101.273C60.0106 93.9627 59.2257 85.9216 60.7747 78.1657C62.3238 70.4097 66.1374 63.2871 71.7335 57.698C77.3296 52.1089 84.457 48.3043 92.2148 46.7649C99.9727 45.2256 108.013 46.0207 115.319 49.0496C122.625 52.0786 128.869 57.2055 133.262 63.7824C137.655 70.3593 140 78.0909 140 86C139.981 96.6116 135.754 106.783 128.246 114.281C120.738 121.78 110.561 125.995 99.9498 126ZM99.9498 56.9985C94.2156 57.0064 88.6124 58.7141 83.8484 61.9056C79.0844 65.0972 75.3735 69.6294 73.1846 74.9294C70.9957 80.2294 70.4271 86.0594 71.5506 91.6825C72.6742 97.3056 75.4395 102.469 79.497 106.521C83.5545 110.573 88.7222 113.331 94.3468 114.447C99.9715 115.563 105.801 114.986 111.098 112.79C116.395 110.594 120.922 106.877 124.107 102.108C127.292 97.3398 128.991 91.7342 128.991 86C128.968 78.3124 125.898 70.9477 120.454 65.5193C115.011 60.0908 107.637 57.0412 99.9498 57.0386V56.9985Z" fill="url(#paint6_linear)"/>
<path d="M88.0508 255L88.0068 239.6H84.4208L79.1408 248.488L73.7288 239.6H70.1428V255H74.1468V247.014L78.1068 253.482H80.0428L84.0028 246.838L84.0248 255H88.0508Z" fill="black"/>
<path d="M96.7384 251.634V248.818H103.58V245.562H96.7384V242.966H104.504V239.6H92.4264V255H104.79V251.634H96.7384Z" fill="black"/>
<path d="M115.853 255.308C118.691 255.308 120.979 254.274 122.475 252.404L119.703 249.896C118.735 251.062 117.547 251.7 116.073 251.7C113.543 251.7 111.783 249.94 111.783 247.3C111.783 244.66 113.543 242.9 116.073 242.9C117.547 242.9 118.735 243.538 119.703 244.704L122.475 242.196C120.979 240.326 118.691 239.292 115.853 239.292C110.969 239.292 107.383 242.614 107.383 247.3C107.383 251.986 110.969 255.308 115.853 255.308Z" fill="black"/>
<path d="M137.822 239.6H124.094V243.054H128.824V255H133.114V243.054H137.822V239.6Z" fill="black"/>
<path d="M148.283 255.308C153.211 255.308 156.841 251.92 156.841 247.3C156.841 242.68 153.211 239.292 148.283 239.292C143.355 239.292 139.725 242.68 139.725 247.3C139.725 251.92 143.355 255.308 148.283 255.308ZM148.283 251.7C145.951 251.7 144.125 249.962 144.125 247.3C144.125 244.638 145.951 242.9 148.283 242.9C150.615 242.9 152.441 244.638 152.441 247.3C152.441 249.962 150.615 251.7 148.283 251.7Z" fill="black"/>
<path d="M167.772 255H171.886L178.222 245.98V255H182.512V239.6H178.42L172.062 248.642V239.6H167.772V255Z" fill="black"/>
<path d="M208.875 251.546V239.6H196.467L196.291 244.352C196.137 248.466 195.631 251.502 193.673 251.546H193.123V258.102H197.127V255H206.983V258.102H210.965V251.546H208.875ZM200.097 244.726L200.163 243.054H204.585V251.546H198.755C199.657 250.248 199.987 247.74 200.097 244.726Z" fill="black"/>
<path d="M226.156 255H230.688L223.868 239.6H219.578L212.78 255H217.224L218.434 252.008H224.946L226.156 255ZM219.71 248.796L221.69 243.868L223.67 248.796H219.71Z" fill="black"/>
<path d="M245.188 239.6H231.46V243.054H236.19V255H240.48V243.054H245.188V239.6Z" fill="black"/>
<path d="M259.358 255H263.89L257.07 239.6H252.78L245.982 255H250.426L251.636 252.008H258.148L259.358 255ZM252.912 248.796L254.892 243.868L256.872 248.796H252.912Z" fill="black"/>
<path d="M102.835 265.6H95.7952V281H100.151V276.974H102.835C107.037 276.974 109.677 274.796 109.677 271.298C109.677 267.778 107.037 265.6 102.835 265.6ZM102.571 273.542H100.151V269.032H102.571C104.375 269.032 105.277 269.868 105.277 271.298C105.277 272.706 104.375 273.542 102.571 273.542Z" fill="black"/>
<path d="M120.533 281.308C125.461 281.308 129.091 277.92 129.091 273.3C129.091 268.68 125.461 265.292 120.533 265.292C115.605 265.292 111.975 268.68 111.975 273.3C111.975 277.92 115.605 281.308 120.533 281.308ZM120.533 277.7C118.201 277.7 116.375 275.962 116.375 273.3C116.375 270.638 118.201 268.9 120.533 268.9C122.865 268.9 124.691 270.638 124.691 273.3C124.691 275.962 122.865 277.7 120.533 277.7Z" fill="black"/>
<path d="M149.474 281H154.49L150.112 272.926L154.226 265.6H149.672L146.526 271.584H144.656V265.6H140.388V271.584H138.43L135.35 265.6H130.774L134.888 272.926L130.51 281H135.548L138.562 275.104H140.388V281H144.656V275.104H146.482L149.474 281Z" fill="black"/>
<path d="M171.879 277.546V265.6H159.471L159.295 270.352C159.141 274.466 158.635 277.502 156.677 277.546H156.127V284.102H160.131V281H169.987V284.102H173.969V277.546H171.879ZM163.101 270.726L163.167 269.054H167.589V277.546H161.759C162.661 276.248 162.991 273.74 163.101 270.726Z" fill="black"/>
<path d="M181.464 277.634V274.818H188.306V271.562H181.464V268.966H189.23V265.6H177.152V281H189.516V277.634H181.464Z" fill="black"/>
<path d="M203.394 265.6V271.386H197.454V265.6H193.098V281H197.454V274.994H203.394V281H207.75V265.6H203.394Z" fill="black"/>
<path d="M212.159 281H216.273L222.609 271.98V281H226.899V265.6H222.807L216.449 274.642V265.6H212.159V281Z" fill="black"/>
<path d="M237.268 265.6C233.044 265.6 230.382 267.822 230.382 271.452C230.382 273.85 231.526 275.588 233.55 276.49L230.426 281H235.002L237.532 277.128H239.908V281H244.198V265.6H237.268ZM237.356 269.032H239.908V273.762H237.312C235.662 273.762 234.782 272.926 234.782 271.386C234.782 269.824 235.662 269.032 237.356 269.032Z" fill="black"/>
<path fill-rule="evenodd" clip-rule="evenodd" d="M90.2373 259.497C89.5624 259.825 88.8156 260 88.0508 260H84.0248C82.6101 260 81.3323 259.412 80.4226 258.468C80.2969 258.477 80.1702 258.482 80.0428 258.482H78.1068C77.9864 258.482 77.8666 258.478 77.7476 258.469C76.8381 259.413 75.561 260 74.1468 260H70.1428C67.3814 260 65.1428 257.761 65.1428 255V239.6C65.1428 236.839 67.3814 234.6 70.1428 234.6H73.7288C75.4735 234.6 77.092 235.509 77.9994 237L79.0879 238.787L80.1221 237.046C81.0231 235.53 82.6567 234.6 84.4208 234.6H88.0068C88.8 234.6 89.5502 234.785 90.2166 235.114C90.8829 234.785 91.6331 234.6 92.4264 234.6H104.504C106.042 234.6 107.417 235.294 108.334 236.385C110.492 235.04 113.085 234.292 115.853 234.292C117.814 234.292 119.711 234.644 121.438 235.362C122.208 234.879 123.118 234.6 124.094 234.6H137.822C139.19 234.6 140.431 235.15 141.334 236.041C143.378 234.914 145.762 234.292 148.283 234.292C155.65 234.292 161.841 239.607 161.841 247.3C161.841 254.993 155.65 260.308 148.283 260.308C144.226 260.308 140.527 258.697 138.021 255.964C137.571 258.264 135.545 260 133.114 260H128.824C126.952 260 125.321 258.972 124.463 257.449C122.062 259.377 119.044 260.308 115.853 260.308C113.165 260.308 110.641 259.603 108.521 258.329C107.605 259.355 106.273 260 104.79 260H92.4264C91.6413 260 90.8985 259.819 90.2373 259.497ZM104.79 255V251.634H96.7384V248.818H103.58V245.562H96.7384V242.966H104.504V239.6H92.4264V255H104.79ZM128.824 255H133.114V243.054H137.822V239.6H124.094V243.054H128.824V255ZM108.207 243.663C107.915 244.251 107.695 244.887 107.556 245.562C107.458 246.04 107.4 246.538 107.386 247.053C107.384 247.135 107.383 247.217 107.383 247.3C107.383 247.319 107.383 247.338 107.383 247.358C107.386 247.861 107.431 248.349 107.514 248.818C107.641 249.536 107.859 250.211 108.157 250.834C108.29 251.111 108.438 251.378 108.602 251.634C108.937 252.16 109.336 252.639 109.79 253.065C111.297 254.479 113.413 255.308 115.853 255.308C115.926 255.308 116 255.307 116.073 255.306C116.746 255.293 117.388 255.221 117.994 255.093C119.53 254.767 120.84 254.08 121.868 253.074C122.083 252.865 122.285 252.641 122.475 252.404L119.703 249.896C119.654 249.955 119.605 250.012 119.555 250.068C119.482 250.149 119.409 250.228 119.334 250.303C118.437 251.21 117.365 251.7 116.073 251.7C115.999 251.7 115.925 251.698 115.853 251.695C113.441 251.596 111.783 249.863 111.783 247.3C111.783 244.737 113.441 243.004 115.853 242.904C115.925 242.901 115.999 242.9 116.073 242.9C117.312 242.9 118.348 243.351 119.222 244.187C119.26 244.223 119.297 244.259 119.334 244.297C119.409 244.372 119.482 244.451 119.555 244.532C119.605 244.588 119.654 244.645 119.703 244.704L122.475 242.196C122.285 241.959 122.083 241.735 121.868 241.526C121.095 240.769 120.162 240.193 119.094 239.815C118.741 239.691 118.375 239.588 117.994 239.507C117.388 239.379 116.746 239.307 116.073 239.294C116 239.293 115.926 239.292 115.853 239.292C113.254 239.292 111.023 240.232 109.504 241.818C109.167 242.17 108.865 242.554 108.602 242.966C108.459 243.19 108.327 243.423 108.207 243.663ZM139.733 247.676C139.924 252.103 143.489 255.308 148.283 255.308C153.211 255.308 156.841 251.92 156.841 247.3C156.841 242.68 153.211 239.292 148.283 239.292C146.159 239.292 144.276 239.921 142.822 241.007C142.063 241.573 141.42 242.264 140.921 243.054C140.155 244.265 139.725 245.709 139.725 247.3C139.725 247.426 139.727 247.551 139.733 247.676ZM73.7288 239.6H70.1428V255H74.1468V247.014L78.1068 253.482H80.0428L84.0028 246.838L84.0248 255H88.0508L88.0068 239.6H84.4208L79.1408 248.488L73.7288 239.6ZM148.909 247.008C148.666 246.758 148.391 246.7 148.283 246.7C148.175 246.7 147.9 246.758 147.656 247.008C147.55 247.116 147.489 247.224 147.458 247.3C147.489 247.376 147.55 247.484 147.656 247.592C147.9 247.842 148.175 247.9 148.283 247.9C148.391 247.9 148.666 247.842 148.909 247.592C149.015 247.484 149.076 247.376 149.107 247.3C149.076 247.224 149.015 247.116 148.909 247.008ZM167.772 260C165.011 260 162.772 257.761 162.772 255V239.6C162.772 236.839 165.011 234.6 167.772 234.6H172.062C173.27 234.6 174.377 235.028 175.241 235.741C176.126 235.012 177.247 234.6 178.42 234.6H182.512C185.274 234.6 187.512 236.839 187.512 239.6V255C187.512 257.761 185.274 260 182.512 260H178.222C177.02 260 175.917 259.576 175.054 258.868C174.171 259.592 173.055 260 171.886 260H167.772ZM178.222 255H182.512V239.6H178.42L172.062 248.642V239.6H167.772V255H171.886L178.222 245.98V255ZM208.875 251.546H210.965V258.102H206.983V255H197.127V258.102H193.123V251.546H193.673C193.701 251.545 193.728 251.544 193.755 251.542C194.447 251.496 194.952 251.064 195.321 250.336C195.458 250.066 195.577 249.755 195.679 249.408C196.04 248.184 196.203 246.51 196.282 244.587C196.282 244.583 196.282 244.579 196.283 244.575C196.286 244.501 196.289 244.427 196.291 244.352L196.467 239.6H208.875V251.546ZM215.593 260C215.507 260.207 215.409 260.408 215.298 260.6H216.449C217.656 260.6 218.764 261.028 219.628 261.741C220.513 261.012 221.633 260.6 222.807 260.6H226.899C228.365 260.6 229.684 261.231 230.599 262.237C232.624 261.077 234.957 260.6 237.268 260.6H244.198C246.959 260.6 249.198 262.839 249.198 265.6V281C249.198 283.761 246.959 286 244.198 286H239.908C239.016 286 238.179 285.767 237.454 285.357C236.716 285.772 235.874 286 235.002 286H230.426C229.814 286 229.218 285.888 228.664 285.679C228.115 285.887 227.52 286 226.899 286H222.609C221.406 286 220.303 285.576 219.441 284.868C218.558 285.592 217.442 286 216.273 286H212.159C211.368 286 210.619 285.816 209.954 285.489C209.289 285.816 208.541 286 207.75 286H203.394C202.282 286 201.254 285.637 200.424 285.023C199.593 285.637 198.566 286 197.454 286H193.098C192.467 286 191.863 285.883 191.307 285.67C190.751 285.883 190.147 286 189.516 286H178.596C177.849 287.82 176.059 289.102 173.969 289.102H169.987C167.898 289.102 166.107 287.82 165.36 286H164.758C164.011 287.82 162.221 289.102 160.131 289.102H156.127C154.038 289.102 152.247 287.82 151.5 286H149.474C148.616 286 147.791 285.78 147.066 285.382C146.351 285.776 145.53 286 144.656 286H140.388C139.51 286 138.684 285.774 137.967 285.376C137.24 285.778 136.411 286 135.548 286H130.51C129.261 286 128.078 285.534 127.173 284.724C125.199 285.746 122.929 286.308 120.533 286.308C115.816 286.308 111.581 284.129 109.145 280.542C107.876 281.204 106.497 281.613 105.085 281.817C104.695 284.19 102.635 286 100.151 286H95.7952C93.0337 286 90.7952 283.761 90.7952 281V265.6C90.7952 262.839 93.0337 260.6 95.7952 260.6H102.835C105.75 260.6 108.705 261.355 111.027 263.283C111.143 263.379 111.256 263.477 111.366 263.577C113.797 261.492 117.033 260.292 120.533 260.292C122.997 260.292 125.328 260.886 127.341 261.965C128.257 261.1 129.48 260.6 130.774 260.6H135.35C136.252 260.6 137.117 260.843 137.868 261.28C138.608 260.848 139.469 260.6 140.388 260.6H144.656C145.57 260.6 146.427 260.845 147.165 261.274C147.913 260.84 148.775 260.6 149.672 260.6H154.226C155.168 260.6 156.072 260.865 156.848 261.343C157.612 260.871 158.511 260.6 159.471 260.6H171.879C172.847 260.6 173.75 260.875 174.516 261.351C175.281 260.875 176.185 260.6 177.152 260.6H188.791C188.366 259.865 188.123 259.012 188.123 258.102V251.546C188.123 249.512 189.338 247.761 191.082 246.981C191.097 246.872 191.111 246.756 191.126 246.632C191.205 245.946 191.259 245.126 191.295 244.165L191.471 239.415C191.57 236.727 193.778 234.6 196.467 234.6H208.875C211.637 234.6 213.875 236.839 213.875 239.6V240.138L215.004 237.581C215.804 235.769 217.598 234.6 219.578 234.6H223.868C225.351 234.6 226.729 235.255 227.664 236.345C228.581 235.277 229.941 234.6 231.46 234.6H245.188C246.706 234.6 248.067 235.277 248.984 236.346C249.918 235.256 251.297 234.6 252.78 234.6H257.07C259.048 234.6 260.841 235.766 261.642 237.575L268.462 252.975C269.147 254.522 269.003 256.31 268.081 257.727C267.158 259.145 265.581 260 263.89 260H259.358C257.458 260 255.736 258.925 254.892 257.248C254.049 258.925 252.326 260 250.426 260H245.982C244.989 260 244.036 259.705 243.231 259.175C242.442 259.697 241.496 260 240.48 260H236.19C235.173 260 234.228 259.697 233.438 259.176C232.634 259.706 231.681 260 230.688 260H226.156C224.256 260 222.534 258.925 221.69 257.248C220.847 258.925 219.124 260 217.224 260H215.593ZM236.19 255H240.48V243.054H245.188V239.6H231.46V243.054H236.19V255ZM257.07 239.6H252.78L245.982 255H250.426L251.636 252.008H258.148L259.358 255H263.89L257.07 239.6ZM256.872 248.796L254.892 243.868L252.912 248.796H256.872ZM212.78 255H217.224L218.434 252.008H224.946L226.156 255H230.688L223.868 239.6H219.578L212.78 255ZM219.71 248.796H223.67L221.69 243.868L219.71 248.796ZM190.836 248.132C190.835 248.132 190.839 248.122 190.847 248.106C190.84 248.124 190.836 248.133 190.836 248.132ZM177.152 265.6V281H189.516V277.634H181.464V274.818H188.306V271.562H181.464V268.966H189.23V265.6H177.152ZM193.098 281H197.454V274.994H203.394V281H207.75V265.6H203.394V271.386H197.454V265.6H193.098V281ZM201.077 261.168C201.569 260.91 202.109 260.732 202.681 260.65C202.557 260.443 202.449 260.226 202.356 260H201.755C201.582 260.421 201.353 260.814 201.077 261.168ZM212.159 265.6V281H216.273L222.609 271.98V281H226.899V265.6H222.807L216.449 274.642V265.6H212.159ZM230.426 281H235.002L237.532 277.128H239.908V281H244.198V265.6H237.268C234.945 265.6 233.094 266.272 231.899 267.481C230.934 268.457 230.396 269.782 230.382 271.386C230.382 271.408 230.382 271.43 230.382 271.452C230.382 273.021 230.871 274.307 231.777 275.262C231.817 275.304 231.857 275.345 231.899 275.386C232.058 275.542 232.228 275.689 232.41 275.825C232.49 275.885 232.572 275.944 232.656 276C232.932 276.184 233.23 276.347 233.55 276.49L230.426 281ZM234.908 272.297C234.959 272.463 235.027 272.615 235.109 272.754C235.129 272.787 235.15 272.819 235.171 272.851C235.579 273.448 236.301 273.762 237.312 273.762H239.908V269.032H237.356C237.341 269.032 237.326 269.032 237.312 269.032C237.297 269.032 237.282 269.032 237.268 269.033C235.996 269.054 235.2 269.536 234.908 270.471C234.824 270.739 234.782 271.044 234.782 271.386C234.782 271.408 234.782 271.43 234.782 271.452C234.787 271.764 234.83 272.046 234.908 272.297ZM171.879 265.6H159.471L159.295 270.352C159.292 270.427 159.29 270.501 159.286 270.575C159.286 270.579 159.286 270.583 159.286 270.587C159.207 272.51 159.044 274.184 158.683 275.408C158.58 275.755 158.462 276.066 158.325 276.336C158.215 276.553 158.093 276.744 157.958 276.905C157.638 277.287 157.245 277.51 156.759 277.542C156.732 277.544 156.705 277.545 156.677 277.546H156.127V284.102H160.131V281H169.987V284.102H173.969V277.546H171.879V265.6ZM167.589 269.054H163.167L163.101 270.726C163.078 271.357 163.046 271.966 163 272.546C162.915 273.629 162.785 274.613 162.589 275.454C162.545 275.643 162.498 275.826 162.447 276C162.266 276.619 162.041 277.141 161.759 277.546H167.589V269.054ZM144.656 265.6H140.388V271.584H138.43L135.35 265.6H130.774L134.888 272.926L130.51 281H135.548L138.562 275.104H140.388V281H144.656V275.104H146.482L149.474 281H154.49L150.112 272.926L154.226 265.6H149.672L146.526 271.584H144.656V265.6ZM129.076 272.789C128.96 270.809 128.164 269.08 126.886 267.783C126.604 267.497 126.298 267.231 125.971 266.989C124.519 265.914 122.645 265.292 120.533 265.292C117.918 265.292 115.668 266.247 114.132 267.833C113.212 268.784 112.548 269.962 112.216 271.298C112.058 271.932 111.975 272.602 111.975 273.3C111.975 274.73 112.323 276.042 112.949 277.172C114.347 279.693 117.131 281.308 120.533 281.308C122.492 281.308 124.245 280.773 125.647 279.839C126.041 279.576 126.408 279.281 126.744 278.958C128.217 277.539 129.091 275.568 129.091 273.3C129.091 273.243 129.091 273.186 129.09 273.13C129.088 273.015 129.083 272.902 129.076 272.789ZM95.7952 265.6V281H100.151V276.974H102.835C104.598 276.974 106.086 276.591 107.22 275.887C108.226 275.262 108.953 274.385 109.345 273.3C109.563 272.695 109.677 272.025 109.677 271.298C109.677 269.773 109.182 268.501 108.279 267.547C107.097 266.3 105.217 265.6 102.835 265.6H95.7952ZM100.151 269.032V273.542H102.571C102.661 273.542 102.749 273.54 102.835 273.536C104.093 273.475 104.865 272.97 105.151 272.127C105.235 271.879 105.277 271.602 105.277 271.298C105.277 270.989 105.235 270.709 105.151 270.458C104.865 269.604 104.093 269.099 102.835 269.038C102.749 269.034 102.661 269.032 102.571 269.032H100.151ZM200.163 243.054L200.097 244.726C200.074 245.357 200.042 245.966 199.996 246.546C199.911 247.629 199.781 248.613 199.585 249.454C199.541 249.643 199.494 249.826 199.443 250C199.262 250.619 199.037 251.141 198.755 251.546H204.585V243.054H200.163ZM121.16 273.008C120.916 272.758 120.641 272.7 120.533 272.7C120.426 272.7 120.15 272.758 119.907 273.008C119.801 273.116 119.74 273.224 119.709 273.3C119.74 273.376 119.801 273.484 119.907 273.592C120.15 273.842 120.426 273.9 120.533 273.9C120.641 273.9 120.916 273.842 121.16 273.592C121.266 273.484 121.327 273.376 121.358 273.3C121.327 273.224 121.266 273.116 121.16 273.008ZM144.125 247.3C144.125 249.962 145.951 251.7 148.283 251.7C150.615 251.7 152.441 249.962 152.441 247.3C152.441 244.638 150.615 242.9 148.283 242.9C145.951 242.9 144.125 244.638 144.125 247.3ZM116.375 273.3C116.375 275.962 118.201 277.7 120.533 277.7C122.865 277.7 124.691 275.962 124.691 273.3C124.691 270.638 122.865 268.9 120.533 268.9C118.201 268.9 116.375 270.638 116.375 273.3Z" fill="white"/>
<rect x="16" y="306" width="304" height="67" rx="24" fill="white"/>
<rect x="16" y="397" width="125" height="43" rx="13" fill="white"/>
<rect x="195" y="397" width="125" height="43" rx="13" fill="white"/>
<path d="M82.3707 337L82.3427 327.2H80.8587L77.0227 333.682L73.1447 327.2H71.6467V337H73.3687V330.588L76.5887 335.88H77.4007L80.6207 330.504L80.6347 337H82.3707ZM91.9172 333.304C91.9172 330.966 90.3212 329.44 88.1372 329.44C85.9112 329.44 84.2732 331.036 84.2732 333.262C84.2732 335.488 85.8972 337.098 88.4032 337.098C89.6912 337.098 90.7412 336.678 91.4132 335.88L90.4752 334.802C89.9432 335.348 89.2852 335.614 88.4452 335.614C87.1432 335.614 86.2332 334.914 86.0232 333.822H91.8892C91.9032 333.654 91.9172 333.444 91.9172 333.304ZM88.1372 330.84C89.2852 330.84 90.1112 331.582 90.2512 332.66H86.0092C86.1772 331.568 87.0032 330.84 88.1372 330.84ZM97.2333 337.098C98.6893 337.098 99.8513 336.468 100.425 335.348L99.0813 334.564C98.6333 335.278 97.9613 335.6 97.2193 335.6C95.9313 335.6 94.9513 334.718 94.9513 333.262C94.9513 331.82 95.9313 330.924 97.2193 330.924C97.9613 330.924 98.6333 331.246 99.0813 331.96L100.425 331.176C99.8513 330.042 98.6893 329.44 97.2333 329.44C94.8673 329.44 93.1873 331.022 93.1873 333.262C93.1873 335.502 94.8673 337.098 97.2333 337.098ZM107.82 329.524H100.82V331.008H103.452V337H105.202V331.008H107.82V329.524ZM112.093 337.098C114.417 337.098 116.083 335.502 116.083 333.262C116.083 331.022 114.417 329.44 112.093 329.44C109.797 329.44 108.117 331.022 108.117 333.262C108.117 335.502 109.797 337.098 112.093 337.098ZM112.093 335.6C110.833 335.6 109.881 334.69 109.881 333.262C109.881 331.834 110.833 330.924 112.093 330.924C113.367 330.924 114.319 331.834 114.319 333.262C114.319 334.69 113.367 335.6 112.093 335.6ZM121.681 337H123.291L127.407 332.072V337H129.157V329.524H127.561L123.431 334.452V329.524H121.681V337ZM142.254 335.516V329.524H136.094L135.996 332.086C135.912 333.836 135.73 335.474 134.68 335.516H134.33V338.666H135.954V337H141.722V338.666H143.36V335.516H142.254ZM137.592 332.212L137.634 331.008H140.504V335.516H136.822C137.424 334.942 137.536 333.612 137.592 332.212ZM147.709 329.44C146.505 329.44 145.343 329.748 144.545 330.364L145.231 331.638C145.791 331.176 146.659 330.896 147.499 330.896C148.745 330.896 149.361 331.498 149.361 332.52V332.632H147.429C145.161 332.632 144.321 333.612 144.321 334.858C144.321 336.16 145.399 337.098 147.107 337.098C148.227 337.098 149.039 336.734 149.459 336.09V337H151.111V332.618C151.111 330.462 149.865 329.44 147.709 329.44ZM147.471 335.824C146.575 335.824 146.043 335.418 146.043 334.788C146.043 334.242 146.365 333.794 147.555 333.794H149.361V334.662C149.067 335.432 148.325 335.824 147.471 335.824ZM159.199 329.524H152.199V331.008H154.831V337H156.581V331.008H159.199V329.524ZM163.254 329.44C162.05 329.44 160.888 329.748 160.09 330.364L160.776 331.638C161.336 331.176 162.204 330.896 163.044 330.896C164.29 330.896 164.906 331.498 164.906 332.52V332.632H162.974C160.706 332.632 159.866 333.612 159.866 334.858C159.866 336.16 160.944 337.098 162.652 337.098C163.772 337.098 164.584 336.734 165.004 336.09V337H166.656V332.618C166.656 330.462 165.41 329.44 163.254 329.44ZM163.016 335.824C162.12 335.824 161.588 335.418 161.588 334.788C161.588 334.242 161.91 333.794 163.1 333.794H164.906V334.662C164.612 335.432 163.87 335.824 163.016 335.824ZM176.835 329.44C175.813 329.44 174.945 329.79 174.357 330.504V329.524H172.691V339.716H174.441V336.09C175.043 336.776 175.883 337.098 176.835 337.098C179.019 337.098 180.629 335.586 180.629 333.262C180.629 330.952 179.019 329.44 176.835 329.44ZM176.639 335.6C175.379 335.6 174.413 334.69 174.413 333.262C174.413 331.834 175.379 330.924 176.639 330.924C177.899 330.924 178.851 331.834 178.851 333.262C178.851 334.69 177.899 335.6 176.639 335.6ZM185.702 337.098C188.026 337.098 189.692 335.502 189.692 333.262C189.692 331.022 188.026 329.44 185.702 329.44C183.406 329.44 181.726 331.022 181.726 333.262C181.726 335.502 183.406 337.098 185.702 337.098ZM185.702 335.6C184.442 335.6 183.49 334.69 183.49 333.262C183.49 331.834 184.442 330.924 185.702 330.924C186.976 330.924 187.928 331.834 187.928 333.262C187.928 334.69 186.976 335.6 185.702 335.6ZM200.093 337H202.179L199.715 333.136L201.983 329.524H200.121L198.287 332.548H197.013V329.524H195.277V332.548H193.989L192.169 329.524H190.307L192.575 333.136L190.125 337H192.197L194.017 334.004H195.277V337H197.013V334.004H198.273L200.093 337ZM210.354 335.516V329.524H204.194L204.096 332.086C204.012 333.836 203.83 335.474 202.78 335.516H202.43V338.666H204.054V337H209.822V338.666H211.46V335.516H210.354ZM205.692 332.212L205.734 331.008H208.604V335.516H204.922C205.524 334.942 205.636 333.612 205.692 332.212ZM220.023 333.304C220.023 330.966 218.427 329.44 216.243 329.44C214.017 329.44 212.379 331.036 212.379 333.262C212.379 335.488 214.003 337.098 216.509 337.098C217.797 337.098 218.847 336.678 219.519 335.88L218.581 334.802C218.049 335.348 217.391 335.614 216.551 335.614C215.249 335.614 214.339 334.914 214.129 333.822H219.995C220.009 333.654 220.023 333.444 220.023 333.304ZM216.243 330.84C217.391 330.84 218.217 331.582 218.357 332.66H214.115C214.283 331.568 215.109 330.84 216.243 330.84ZM221.937 337H223.687V334.046H227.453V337H229.203V329.524H227.453V332.562H223.687V329.524H221.937V337ZM231.548 337H233.158L237.274 332.072V337H239.024V329.524H237.428L233.298 334.452V329.524H231.548V337ZM244.262 329.524C242.176 329.524 240.846 330.462 240.846 332.212C240.846 333.36 241.448 334.144 242.512 334.508L240.748 337H242.624L244.15 334.746H246.124V337H247.692V329.524H244.262ZM244.318 330.994H246.124V333.528H244.262C243.184 333.528 242.624 333.136 242.624 332.268C242.624 331.372 243.24 330.994 244.318 330.994ZM252.739 333.682H266.739V332.534H252.739V333.682ZM70.6369 353H72.3869V350.046H76.1529V353H77.9029V345.524H76.1529V348.562H72.3869V345.524H70.6369V353ZM87.2483 349.304C87.2483 346.966 85.6523 345.44 83.4683 345.44C81.2423 345.44 79.6043 347.036 79.6043 349.262C79.6043 351.488 81.2283 353.098 83.7343 353.098C85.0223 353.098 86.0723 352.678 86.7443 351.88L85.8063 350.802C85.2743 351.348 84.6163 351.614 83.7763 351.614C82.4743 351.614 81.5643 350.914 81.3543 349.822H87.2203C87.2343 349.654 87.2483 349.444 87.2483 349.304ZM83.4683 346.84C84.6163 346.84 85.4423 347.582 85.5823 348.66H81.3403C81.5083 347.568 82.3343 346.84 83.4683 346.84ZM93.0315 345.524V353H94.7815V347.008H98.4635V353H100.199V345.524H93.0315ZM109.561 349.304C109.561 346.966 107.965 345.44 105.781 345.44C103.555 345.44 101.917 347.036 101.917 349.262C101.917 351.488 103.541 353.098 106.047 353.098C107.335 353.098 108.385 352.678 109.057 351.88L108.119 350.802C107.587 351.348 106.929 351.614 106.089 351.614C104.787 351.614 103.877 350.914 103.667 349.822H109.533C109.547 349.654 109.561 349.444 109.561 349.304ZM105.781 346.84C106.929 346.84 107.755 347.582 107.895 348.66H103.653C103.821 347.568 104.647 346.84 105.781 346.84ZM115.619 345.44C114.597 345.44 113.729 345.79 113.141 346.504V345.524H111.475V355.716H113.225V352.09C113.827 352.776 114.667 353.098 115.619 353.098C117.803 353.098 119.413 351.586 119.413 349.262C119.413 346.952 117.803 345.44 115.619 345.44ZM115.423 351.6C114.163 351.6 113.197 350.69 113.197 349.262C113.197 347.834 114.163 346.924 115.423 346.924C116.683 346.924 117.635 347.834 117.635 349.262C117.635 350.69 116.683 351.6 115.423 351.6ZM124.557 353.098C126.013 353.098 127.175 352.468 127.749 351.348L126.405 350.564C125.957 351.278 125.285 351.6 124.543 351.6C123.255 351.6 122.275 350.718 122.275 349.262C122.275 347.82 123.255 346.924 124.543 346.924C125.285 346.924 125.957 347.246 126.405 347.96L127.749 347.176C127.175 346.042 126.013 345.44 124.557 345.44C122.191 345.44 120.511 347.022 120.511 349.262C120.511 351.502 122.191 353.098 124.557 353.098ZM132.512 353.098C134.836 353.098 136.502 351.502 136.502 349.262C136.502 347.022 134.836 345.44 132.512 345.44C130.216 345.44 128.536 347.022 128.536 349.262C128.536 351.502 130.216 353.098 132.512 353.098ZM132.512 351.6C131.252 351.6 130.3 350.69 130.3 349.262C130.3 347.834 131.252 346.924 132.512 346.924C133.786 346.924 134.738 347.834 134.738 349.262C134.738 350.69 133.786 351.6 132.512 351.6ZM138.231 353H139.981V350.046H143.747V353H145.497V345.524H143.747V348.562H139.981V345.524H138.231V353ZM150.628 345.44C149.424 345.44 148.262 345.748 147.464 346.364L148.15 347.638C148.71 347.176 149.578 346.896 150.418 346.896C151.664 346.896 152.28 347.498 152.28 348.52V348.632H150.348C148.08 348.632 147.24 349.612 147.24 350.858C147.24 352.16 148.318 353.098 150.026 353.098C151.146 353.098 151.958 352.734 152.378 352.09V353H154.03V348.618C154.03 346.462 152.784 345.44 150.628 345.44ZM150.39 351.824C149.494 351.824 148.962 351.418 148.962 350.788C148.962 350.242 149.284 349.794 150.474 349.794H152.28V350.662C151.986 351.432 151.244 351.824 150.39 351.824ZM156.924 345.524L156.798 348.408C156.714 349.962 156.672 351.558 155.524 351.558C155.426 351.558 155.314 351.544 155.188 351.516L155.104 352.986C155.468 353.084 155.79 353.14 156.07 353.14C157.834 353.14 158.226 351.152 158.352 348.492L158.422 347.008H161.222V353H162.972V345.524H156.924ZM169.08 347.988L167.078 347.974V345.524H165.328V353L168.828 353.014C170.872 353.028 172.034 352.09 172.034 350.452C172.034 348.898 170.998 347.988 169.08 347.988ZM168.674 351.726L167.078 351.712V349.178L168.674 349.192C169.71 349.206 170.256 349.57 170.256 350.424C170.256 351.292 169.696 351.74 168.674 351.726ZM173.572 353H175.322V350.046H179.088V353H180.838V345.524H179.088V348.562H175.322V345.524H173.572V353ZM186.824 347.988L184.934 347.974V345.524H183.184V353L186.572 353.014C188.616 353.028 189.764 352.09 189.764 350.452C189.764 348.898 188.742 347.988 186.824 347.988ZM190.73 353H192.48V345.524H190.73V353ZM186.418 351.726L184.934 351.712V349.178L186.418 349.192C187.454 349.206 188 349.57 188 350.424C188 351.292 187.44 351.74 186.418 351.726ZM201.832 349.304C201.832 346.966 200.236 345.44 198.052 345.44C195.826 345.44 194.188 347.036 194.188 349.262C194.188 351.488 195.812 353.098 198.318 353.098C199.606 353.098 200.656 352.678 201.328 351.88L200.39 350.802C199.858 351.348 199.2 351.614 198.36 351.614C197.058 351.614 196.148 350.914 195.938 349.822H201.804C201.818 349.654 201.832 349.444 201.832 349.304ZM198.052 346.84C199.2 346.84 200.026 347.582 200.166 348.66H195.924C196.092 347.568 196.918 346.84 198.052 346.84ZM214.489 351.516V345.524H208.329L208.231 348.086C208.147 349.836 207.965 351.474 206.915 351.516H206.565V354.666H208.189V353H213.957V354.666H215.595V351.516H214.489ZM209.827 348.212L209.869 347.008H212.739V351.516H209.057C209.659 350.942 209.771 349.612 209.827 348.212ZM219.944 345.44C218.74 345.44 217.578 345.748 216.78 346.364L217.466 347.638C218.026 347.176 218.894 346.896 219.734 346.896C220.98 346.896 221.596 347.498 221.596 348.52V348.632H219.664C217.396 348.632 216.556 349.612 216.556 350.858C216.556 352.16 217.634 353.098 219.342 353.098C220.462 353.098 221.274 352.734 221.694 352.09V353H223.346V348.618C223.346 346.462 222.1 345.44 219.944 345.44ZM219.706 351.824C218.81 351.824 218.278 351.418 218.278 350.788C218.278 350.242 218.6 349.794 219.79 349.794H221.596V350.662C221.302 351.432 220.56 351.824 219.706 351.824ZM225.512 353H227.262V350.046H231.028V353H232.778V345.524H231.028V348.562H227.262V345.524H225.512V353ZM235.123 353H236.873V350.046H240.639V353H242.389V345.524H240.639V348.562H236.873V345.524H235.123V353ZM248.375 347.988L246.485 347.974V345.524H244.735V353L248.123 353.014C250.167 353.028 251.315 352.09 251.315 350.452C251.315 348.898 250.293 347.988 248.375 347.988ZM252.281 353H254.031V345.524H252.281V353ZM247.969 351.726L246.485 351.712V349.178L247.969 349.192C249.005 349.206 249.551 349.57 249.551 350.424C249.551 351.292 248.991 351.74 247.969 351.726ZM263.383 349.304C263.383 346.966 261.787 345.44 259.603 345.44C257.377 345.44 255.739 347.036 255.739 349.262C255.739 351.488 257.363 353.098 259.869 353.098C261.157 353.098 262.207 352.678 262.879 351.88L261.941 350.802C261.409 351.348 260.751 351.614 259.911 351.614C258.609 351.614 257.699 350.914 257.489 349.822H263.355C263.369 349.654 263.383 349.444 263.383 349.304ZM259.603 346.84C260.751 346.84 261.577 347.582 261.717 348.66H257.475C257.643 347.568 258.469 346.84 259.603 346.84ZM265.829 353.098C266.459 353.098 266.977 352.608 266.977 351.936C266.977 351.236 266.459 350.774 265.829 350.774C265.199 350.774 264.681 351.236 264.681 351.936C264.681 352.608 265.199 353.098 265.829 353.098Z" fill="black"/>
<path d="M252 5C252 26.7477 243.361 47.6048 227.983 62.9828C212.605 78.3607 191.748 87 170 87C148.252 87 127.395 78.3607 112.017 62.9828C96.6393 47.6048 88 26.7478 88 5.00002L170 5H252Z" fill="white"/>
<path d="M48.032 423.216C48.032 414.96 35.328 417.52 35.328 414.096C35.328 412.976 36.288 412.08 38.944 412.08C40.896 412.08 43.008 412.656 45.152 413.808L47.104 409.104C45.312 408.048 42.976 407.408 40.608 407.216V403.76H36.768V407.28C31.584 407.92 29.056 410.896 29.056 414.416C29.056 422.736 41.792 420.144 41.792 423.696C41.792 424.784 40.768 425.52 38.144 425.52C35.552 425.52 32.736 424.624 30.752 423.312L28.672 427.984C30.528 429.264 33.568 430.192 36.768 430.416V433.84H40.608V430.288C45.6 429.552 48.032 426.608 48.032 423.216Z" fill="#00BCBC"/>
<path d="M70.78 426.24C74.24 426.24 76.78 423.62 76.78 419C76.78 414.38 74.24 411.76 70.78 411.76C67.34 411.76 64.78 414.38 64.78 419C64.78 423.62 67.34 426.24 70.78 426.24ZM70.78 423.5C69.18 423.5 68.06 422.18 68.06 419C68.06 415.82 69.18 414.5 70.78 414.5C72.4 414.5 73.52 415.82 73.52 419C73.52 422.18 72.4 423.5 70.78 423.5ZM79.9603 422.28C78.8603 422.28 78.0203 423.04 78.0203 424.2C78.0203 425.02 78.4403 425.64 79.1003 425.9L78.2203 429.08H80.2003L81.3403 426.2C81.8003 425.1 81.8803 424.72 81.8803 424.2C81.8803 423.06 81.0803 422.28 79.9603 422.28ZM89.0808 426.24C92.5408 426.24 95.0808 423.62 95.0808 419C95.0808 414.38 92.5408 411.76 89.0808 411.76C85.6408 411.76 83.0808 414.38 83.0808 419C83.0808 423.62 85.6408 426.24 89.0808 426.24ZM89.0808 423.5C87.4808 423.5 86.3608 422.18 86.3608 419C86.3608 415.82 87.4808 414.5 89.0808 414.5C90.7008 414.5 91.8208 415.82 91.8208 419C91.8208 422.18 90.7008 423.5 89.0808 423.5ZM102.655 426.24C106.115 426.24 108.655 423.62 108.655 419C108.655 414.38 106.115 411.76 102.655 411.76C99.215 411.76 96.655 414.38 96.655 419C96.655 423.62 99.215 426.24 102.655 426.24ZM102.655 423.5C101.055 423.5 99.935 422.18 99.935 419C99.935 415.82 101.055 414.5 102.655 414.5C104.275 414.5 105.395 415.82 105.395 419C105.395 422.18 104.275 423.5 102.655 423.5Z" fill="black"/>
<path d="M237.14 412V414.6H239.94V426H243.18V412H237.14ZM250.412 417.26H249.272L249.492 414.6H255.332V412H246.792L246.072 419.88H249.652C252.192 419.88 252.912 420.6 252.912 421.7C252.912 422.84 251.912 423.52 250.292 423.52C248.832 423.52 247.372 423.06 246.312 422.26L245.032 424.74C246.392 425.7 248.432 426.24 250.372 426.24C254.372 426.24 256.192 424.08 256.192 421.6C256.192 419.12 254.552 417.26 250.412 417.26ZM277.211 426L277.171 415.24H274.251L270.591 421.46L267.151 415.24H263.891V426H266.711V419.54L269.851 424.96H271.171L274.391 419.56V426H277.211ZM280.199 426H283.079L288.299 419.6V426H291.399V415.24H288.539L283.299 421.64V415.24H280.199V426ZM294.398 426H297.498V421.98H302.178V426H305.298V415.24H302.178V419.44H297.498V415.24H294.398V426Z" fill="black"/>
<path d="M216.5 406C209.595 406 204 411.595 204 418.5C204 425.405 209.595 431 216.5 431C223.405 431 229 425.405 229 418.5C229 411.595 223.405 406 216.5 406Z" fill="#00BCBC"/>
<path fill-rule="evenodd" clip-rule="evenodd" d="M215.961 410C214.878 410 214 410.878 214 411.961V419.153C214 419.311 214.019 419.464 214.054 419.611C214.047 420.263 214.376 420.901 214.974 421.262L220.414 424.535C221.313 425.077 222.481 424.786 223.022 423.887C223.563 422.988 223.273 421.82 222.374 421.279L217.923 418.6V411.961C217.923 410.878 217.045 410 215.961 410Z" fill="white"/>
<g filter="url(#filter0_d)">
<path d="M162.531 400.393L185.975 433.213C179.766 434.57 168.698 428.331 168.698 428.331C168.698 428.331 160.834 438.706 154.912 440L162.531 400.393Z" fill="white"/>
<path fill-rule="evenodd" clip-rule="evenodd" d="M154.912 440L158.469 421.51C161.522 424.284 164.956 426.604 168.698 428.331C168.698 428.331 160.834 438.706 154.912 440Z" fill="#BBFFF9"/>
</g>
<path d="M167.987 24.588C159.171 24.588 152.095 29.982 152.095 38.45C152.095 46.222 158.417 51.268 166.073 51.268C169.901 51.268 172.917 50.224 175.179 48.31C174.541 54.458 170.713 57.706 164.971 57.706C162.361 57.706 159.809 57.242 157.489 55.618L153.313 63.854C156.271 65.768 160.679 66.812 165.203 66.812C178.079 66.812 186.837 58.75 186.837 44.598C186.837 31.432 179.413 24.588 167.987 24.588ZM168.799 43.032C165.493 43.032 163.231 41.06 163.231 37.928C163.231 34.738 165.493 32.766 168.741 32.766C172.221 32.766 174.425 34.854 174.425 37.87C174.425 40.944 172.105 43.032 168.799 43.032Z" fill="#46BBCE"/>
<g filter="url(#filter1_di)">
<path fill-rule="evenodd" clip-rule="evenodd" d="M165.751 128.423C163.811 128.423 162.238 129.991 162.238 131.926V144.769C162.238 145.051 162.271 145.325 162.334 145.587C162.322 146.751 162.911 147.891 163.983 148.534L173.728 154.38C175.338 155.347 177.43 154.828 178.4 153.223C179.369 151.617 178.849 149.531 177.238 148.565L169.265 143.781V131.926C169.265 129.991 167.692 128.423 165.751 128.423Z" fill="white"/>
<path d="M167.5 101C144.617 101 126 119.617 126 142.5C126 170.898 163.138 212.589 164.72 214.35C166.205 216.004 168.798 216.001 170.28 214.35C171.862 212.589 209 170.898 209 142.5C209 119.617 190.383 101 167.5 101ZM167.5 163.379C155.987 163.379 146.621 154.013 146.621 142.5C146.621 130.987 155.987 121.62 167.5 121.62C179.013 121.62 188.379 130.987 188.379 142.5C188.379 154.013 179.013 163.379 167.5 163.379Z" fill="white"/>
</g>
<defs>
<filter id="filter0_d" x="150.912" y="396.393" width="45.0628" height="53.6066" filterUnits="userSpaceOnUse" color-interpolation-filters="sRGB">
<feFlood flood-opacity="0" result="BackgroundImageFix"/>
<feColorMatrix in="SourceAlpha" type="matrix" values="0 0 0 0 0 0 0 0 0 0 0 0 0 0 0 0 0 0 127 0"/>
<feOffset dx="3" dy="3"/>
<feGaussianBlur stdDeviation="3.5"/>
<feColorMatrix type="matrix" values="0 0 0 0 0.279 0 0 0 0 0.9 0 0 0 0 0.840225 0 0 0 1 0"/>
<feBlend mode="normal" in2="BackgroundImageFix" result="effect1_dropShadow"/>
<feBlend mode="normal" in="SourceGraphic" in2="effect1_dropShadow" result="shape"/>
</filter>
<filter id="filter1_di" x="120" y="95" width="103" height="134.589" filterUnits="userSpaceOnUse" color-interpolation-filters="sRGB">
<feFlood flood-opacity="0" result="BackgroundImageFix"/>
<feColorMatrix in="SourceAlpha" type="matrix" values="0 0 0 0 0 0 0 0 0 0 0 0 0 0 0 0 0 0 127 0"/>
<feOffset dx="4" dy="4"/>
<feGaussianBlur stdDeviation="5"/>
<feColorMatrix type="matrix" values="0 0 0 0 0.1715 0 0 0 0 0.816667 0 0 0 0 0.816667 0 0 0 1 0"/>
<feBlend mode="normal" in2="BackgroundImageFix" result="effect1_dropShadow"/>
<feBlend mode="normal" in="SourceGraphic" in2="effect1_dropShadow" result="shape"/>
<feColorMatrix in="SourceAlpha" type="matrix" values="0 0 0 0 0 0 0 0 0 0 0 0 0 0 0 0 0 0 127 0" result="hardAlpha"/>
<feOffset dx="-4" dy="-4"/>
<feGaussianBlur stdDeviation="4.5"/>
<feComposite in2="hardAlpha" operator="arithmetic" k2="-1" k3="1"/>
<feColorMatrix type="matrix" values="0 0 0 0 0.441945 0 0 0 0 0.887146 0 0 0 0 0.895833 0 0 0 0.52 0"/>
<feBlend mode="normal" in2="shape" result="effect2_innerShadow"/>
</filter>
<linearGradient id="paint0_linear" x1="5.5" y1="-157" x2="289.5" y2="495.5" gradientUnits="userSpaceOnUse">
<stop stop-color="#00C2FF"/>
<stop offset="1" stop-color="#1EE7CF"/>
</linearGradient>
<linearGradient id="paint1_linear" x1="49" y1="11" x2="301.5" y2="474" gradientUnits="userSpaceOnUse">
<stop stop-color="#19D2EB"/>
<stop offset="1" stop-color="#55F5DF"/>
</linearGradient>
<linearGradient id="paint2_linear" x1="59.5" y1="-9" x2="291.5" y2="495.5" gradientUnits="userSpaceOnUse">
<stop stop-color="#00E0FF"/>
<stop offset="1" stop-color="#42F2D1"/>
</linearGradient>
<linearGradient id="paint3_linear" x1="51" y1="11" x2="303.5" y2="474" gradientUnits="userSpaceOnUse">
<stop stop-color="#B2F6FF"/>
<stop offset="1" stop-color="#28D7BE"/>
</linearGradient>
<linearGradient id="paint4_linear" x1="27" y1="473.49" x2="247.084" y2="60.8524" gradientUnits="userSpaceOnUse">
<stop stop-color="#73F5FF"/>
<stop offset="0.99" stop-color="#7AFFEC"/>
</linearGradient>
<linearGradient id="paint5_linear" x1="129.774" y1="288" x2="310" y2="288" gradientUnits="userSpaceOnUse">
<stop stop-color="white"/>
<stop offset="0.99" stop-color="white" stop-opacity="0.4"/>
</linearGradient>
<linearGradient id="paint6_linear" x1="59.8997" y1="86" x2="140" y2="86" gradientUnits="userSpaceOnUse">
<stop stop-color="white"/>
<stop offset="0.99" stop-color="white" stop-opacity="0.4"/>
</linearGradient>
</defs>
</svg>
