<svg width="370" height="65" viewBox="0 0 370 65" fill="none" xmlns="http://www.w3.org/2000/svg">
<rect width="370" height="65" rx="32.5" fill="#141CE1"/>
<path d="M147.679 31.9433C149.119 31.2233 149.959 29.9513 149.959 28.2953C149.959 25.5113 147.607 23.9273 143.599 23.9273H135.439V40.7273H144.055C148.375 40.7273 150.727 38.8793 150.727 35.9273C150.727 33.9113 149.623 32.5673 147.679 31.9433ZM140.119 27.3353H143.143C144.487 27.3353 145.159 27.9113 145.159 28.9913C145.159 30.0953 144.487 30.6473 143.143 30.6473H140.119V27.3353ZM143.863 37.3193H140.119V33.8633H143.863C145.231 33.8633 145.927 34.4153 145.927 35.5673C145.927 36.7193 145.231 37.3193 143.863 37.3193ZM163.954 41.0633C169.33 41.0633 173.29 37.3673 173.29 32.3273C173.29 27.2873 169.33 23.5913 163.954 23.5913C158.578 23.5913 154.618 27.2873 154.618 32.3273C154.618 37.3673 158.578 41.0633 163.954 41.0633ZM163.954 37.1273C161.41 37.1273 159.418 35.2313 159.418 32.3273C159.418 29.4233 161.41 27.5273 163.954 27.5273C166.498 27.5273 168.49 29.4233 168.49 32.3273C168.49 35.2313 166.498 37.1273 163.954 37.1273ZM186.247 22.9193C189.727 22.9193 191.215 21.5273 191.215 19.0073H188.023C187.999 20.1113 187.447 20.6633 186.247 20.6633C185.047 20.6633 184.543 20.1113 184.519 19.0073H181.327C181.327 21.5273 182.767 22.9193 186.247 22.9193ZM178.231 40.7273H182.719L189.631 30.8873V40.7273H194.311V23.9273H189.847L182.911 33.7913V23.9273H178.231V40.7273ZM213.854 23.9273H198.878V27.6953H204.038V40.7273H208.718V27.6953H213.854V23.9273ZM218.445 40.7273H222.933L229.845 30.8873V40.7273H234.525V23.9273H230.061L223.125 33.7913V23.9273H218.445V40.7273Z" fill="white"/>
</svg>
