<svg width="336" height="474" viewBox="0 0 336 474" fill="none" xmlns="http://www.w3.org/2000/svg">
<rect x="2.5" y="2.5" width="331" height="469" rx="32.5" fill="url(#paint0_linear)" stroke="url(#paint1_linear)" stroke-width="5"/>
<mask id="mask0" mask-type="alpha" maskUnits="userSpaceOnUse" x="0" y="0" width="336" height="474">
<rect width="336" height="474" rx="35" fill="url(#paint2_linear)"/>
<rect width="336" height="474" rx="35" stroke="url(#paint3_linear)"/>
</mask>
<g mask="url(#mask0)">
<path opacity="0.17" d="M142.381 -106.471C83.6285 -66.9667 67.9822 12.6235 107.434 71.2987C146.887 129.974 226.497 145.515 285.25 106.011C344.003 66.5062 359.649 -13.084 320.197 -71.7592C280.745 -130.434 201.134 -145.975 142.381 -106.471Z" stroke="white" stroke-opacity="0.7" stroke-width="4" stroke-miterlimit="10"/>
<path opacity="0.17" d="M246 558C311.17 558 364 505.169 364 440C364 374.83 311.17 322 246 322C180.83 322 128 374.83 128 440C128 505.169 180.83 558 246 558Z" stroke="white" stroke-width="2.99" stroke-miterlimit="10"/>
<path d="M96.5 533C185.142 533 257 461.142 257 372.5C257 283.858 185.142 212 96.5 212C7.8583 212 -64 283.858 -64 372.5C-64 461.142 7.8583 533 96.5 533Z" fill="url(#paint4_linear)" fill-opacity="0.5"/>
<path d="M329.17 133.223C367.881 102.826 374.62 46.8032 344.223 8.09241C313.826 -30.6184 257.803 -37.358 219.092 -6.96091C180.381 23.4362 173.642 79.4593 204.039 118.17C234.436 156.881 290.459 163.621 329.17 133.223Z" fill="url(#paint5_linear)" fill-opacity="0.1"/>
</g>
<g filter="url(#filter0_di)">
<rect x="157.239" y="172" width="21.5217" height="110" rx="10.7609" fill="white"/>
<rect x="113" y="237.761" width="21.5217" height="110" rx="10.7609" transform="rotate(-90 113 237.761)" fill="white"/>
</g>
<defs>
<filter id="filter0_di" x="107" y="166" width="130" height="130" filterUnits="userSpaceOnUse" color-interpolation-filters="sRGB">
<feFlood flood-opacity="0" result="BackgroundImageFix"/>
<feColorMatrix in="SourceAlpha" type="matrix" values="0 0 0 0 0 0 0 0 0 0 0 0 0 0 0 0 0 0 127 0"/>
<feOffset dx="4" dy="4"/>
<feGaussianBlur stdDeviation="5"/>
<feColorMatrix type="matrix" values="0 0 0 0 0.168813 0 0 0 0 0.394509 0 0 0 0 0.9125 0 0 0 0.38 0"/>
<feBlend mode="normal" in2="BackgroundImageFix" result="effect1_dropShadow"/>
<feBlend mode="normal" in="SourceGraphic" in2="effect1_dropShadow" result="shape"/>
<feColorMatrix in="SourceAlpha" type="matrix" values="0 0 0 0 0 0 0 0 0 0 0 0 0 0 0 0 0 0 127 0" result="hardAlpha"/>
<feOffset dx="-4" dy="-4"/>
<feGaussianBlur stdDeviation="4.5"/>
<feComposite in2="hardAlpha" operator="arithmetic" k2="-1" k3="1"/>
<feColorMatrix type="matrix" values="0 0 0 0 0.564167 0 0 0 0 0.713194 0 0 0 0 1 0 0 0 1 0"/>
<feBlend mode="normal" in2="shape" result="effect2_innerShadow"/>
</filter>
<linearGradient id="paint0_linear" x1="57.5" y1="-9" x2="289.5" y2="495.5" gradientUnits="userSpaceOnUse">
<stop stop-color="#D4E8FF"/>
<stop offset="1" stop-color="#C1C7E7"/>
</linearGradient>
<linearGradient id="paint1_linear" x1="49" y1="11" x2="301.5" y2="474" gradientUnits="userSpaceOnUse">
<stop stop-color="#C0C2FF"/>
<stop offset="1" stop-color="#51B5F4"/>
</linearGradient>
<linearGradient id="paint2_linear" x1="57.5" y1="-9" x2="289.5" y2="495.5" gradientUnits="userSpaceOnUse">
<stop stop-color="#C7E1FF"/>
<stop offset="1" stop-color="#141CE1"/>
</linearGradient>
<linearGradient id="paint3_linear" x1="49" y1="11" x2="301.5" y2="474" gradientUnits="userSpaceOnUse">
<stop stop-color="#6369FF"/>
<stop offset="1" stop-color="#51B5F4"/>
</linearGradient>
<linearGradient id="paint4_linear" x1="-22.0465" y1="308.651" x2="257" y2="372.5" gradientUnits="userSpaceOnUse">
<stop stop-color="#F3F7FF"/>
<stop offset="0.99" stop-color="#85AAFF"/>
</linearGradient>
<linearGradient id="paint5_linear" x1="204.039" y1="118.17" x2="344.223" y2="8.09241" gradientUnits="userSpaceOnUse">
<stop stop-color="#2F79F8"/>
<stop offset="0.99" stop-color="#73F5FF" stop-opacity="0.64"/>
</linearGradient>
</defs>
</svg>
