<svg width="265" height="68" viewBox="0 0 265 68" fill="none" xmlns="http://www.w3.org/2000/svg">
<path d="M120.64 5.6H110.4V28H116.736V22.144H120.64C126.752 22.144 130.592 18.976 130.592 13.888C130.592 8.768 126.752 5.6 120.64 5.6ZM120.256 17.152H116.736V10.592H120.256C122.88 10.592 124.192 11.808 124.192 13.888C124.192 15.936 122.88 17.152 120.256 17.152ZM150.647 19.36C150.647 13.632 146.487 10.368 141.367 10.368C135.895 10.368 131.831 14.08 131.831 19.296C131.831 24.48 135.831 28.288 142.007 28.288C145.303 28.288 147.735 27.328 149.399 25.472L146.199 22.144C145.015 23.168 143.895 23.648 142.199 23.648C139.959 23.648 138.455 22.624 137.943 20.864H150.551C150.583 20.384 150.647 19.808 150.647 19.36ZM141.399 14.688C143.287 14.688 144.631 15.84 144.951 17.664H137.847C138.199 15.84 139.511 14.688 141.399 14.688ZM162.917 8.992C167.045 8.992 168.997 7.296 168.997 3.712H164.997C164.997 5.12 164.325 5.952 162.885 5.952C161.413 5.952 160.869 5.12 160.837 3.712H156.901C156.933 7.296 158.821 8.992 162.917 8.992ZM153.861 28H159.493L166.693 18.88V28H172.773V10.656H167.173L159.909 19.744V10.656H153.861V28ZM192.349 10.656H175.133V15.488H180.733V28H186.781V15.488H192.349V10.656ZM194.704 28H200.336L207.536 18.88V28H213.616V10.656H208.016L200.752 19.744V10.656H194.704V28ZM217.704 28H223.752V21.92H229.992V28H236.072V10.656H229.992V17.088H223.752V10.656H217.704V28ZM254.701 10.656H240.173V28H246.221V15.488H254.701V10.656ZM110.048 61H115.68L122.88 51.88V61H128.96V43.656H123.36L116.096 52.744V43.656H110.048V61ZM147.576 43.656H133.048V61H139.096V48.488H147.576V43.656ZM160.866 43.368C158.594 43.368 156.898 44.008 155.746 45.384V43.656H149.954V67.208H156.034V59.464C157.218 60.68 158.85 61.288 160.866 61.288C165.57 61.288 169.378 57.832 169.378 52.328C169.378 46.824 165.57 43.368 160.866 43.368ZM159.586 56.456C157.538 56.456 155.938 54.952 155.938 52.328C155.938 49.704 157.538 48.2 159.586 48.2C161.634 48.2 163.234 49.704 163.234 52.328C163.234 54.952 161.634 56.456 159.586 56.456ZM180.842 61.288C186.57 61.288 190.634 57.544 190.634 52.296C190.634 47.08 186.57 43.368 180.842 43.368C175.178 43.368 171.05 47.08 171.05 52.296C171.05 57.544 175.178 61.288 180.842 61.288ZM180.842 56.456C178.794 56.456 177.194 54.952 177.194 52.296C177.194 49.672 178.794 48.2 180.842 48.2C182.922 48.2 184.49 49.672 184.49 52.296C184.49 54.952 182.922 56.456 180.842 56.456ZM205.646 61H212.814L206.606 51.976L212.43 43.656H205.998L201.742 50.056H199.566V43.656H193.486V61H199.566V54.824H201.614L205.646 61ZM222.873 61.288C228.601 61.288 232.665 57.544 232.665 52.296C232.665 47.08 228.601 43.368 222.873 43.368C217.209 43.368 213.081 47.08 213.081 52.296C213.081 57.544 217.209 61.288 222.873 61.288ZM222.873 56.456C220.825 56.456 219.225 54.952 219.225 52.296C219.225 49.672 220.825 48.2 222.873 48.2C224.953 48.2 226.521 49.672 226.521 52.296C226.521 54.952 224.953 56.456 222.873 56.456ZM249.501 51.912C251.069 51.144 251.965 49.832 251.965 48.168C251.965 45.288 249.341 43.656 244.829 43.656H235.517V61H245.277C250.141 61 252.477 59.048 252.477 56.008C252.477 53.992 251.485 52.584 249.501 51.912ZM240.957 47.56H244.285C245.693 47.56 246.397 48.04 246.397 49.064C246.397 50.088 245.693 50.632 244.285 50.632H240.957V47.56ZM244.733 57.064H240.957V53.864H244.797C246.237 53.864 246.941 54.408 246.941 55.464C246.941 56.52 246.205 57.064 244.733 57.064Z" fill="black"/>
<path d="M46.5 3L54.0971 20.0435L72.6541 22.002L58.7924 34.494L62.6641 52.748L46.5 43.425L30.3359 52.748L34.2076 34.494L20.3459 22.002L38.9029 20.0435L46.5 3Z" fill="url(#paint0_linear)"/>
<path d="M78.5 36L82.5058 44.9865L92.2903 46.0193L84.9814 52.606L87.0229 62.2307L78.5 57.315L69.9771 62.2307L72.0185 52.606L64.7097 46.0193L74.4942 44.9865L78.5 36Z" fill="url(#paint1_linear)"/>
<path d="M14.5 36L18.5058 44.9865L28.2903 46.0193L20.9814 52.606L23.0229 62.2307L14.5 57.315L5.97711 62.2307L8.01855 52.606L0.709681 46.0193L10.4942 44.9865L14.5 36Z" fill="url(#paint2_linear)"/>
<defs>
<linearGradient id="paint0_linear" x1="32.125" y1="-5.125" x2="66.5" y2="61.4375" gradientUnits="userSpaceOnUse">
<stop stop-color="#7AFFEC"/>
<stop offset="1" stop-color="#2F79F8"/>
</linearGradient>
<linearGradient id="paint1_linear" x1="78" y1="39" x2="83" y2="69.5" gradientUnits="userSpaceOnUse">
<stop stop-color="#3CBEF6"/>
<stop offset="1" stop-color="#2F79F8"/>
</linearGradient>
<linearGradient id="paint2_linear" x1="14" y1="39" x2="19" y2="69.5" gradientUnits="userSpaceOnUse">
<stop stop-color="#3CBEF6"/>
<stop offset="1" stop-color="#2F79F8"/>
</linearGradient>
</defs>
</svg>
