<?xml version="1.0" encoding="UTF-8"?>
<!DOCTYPE svg PUBLIC "-//W3C//DTD SVG 1.1//EN" "http://www.w3.org/Graphics/SVG/1.1/DTD/svg11.dtd">
<!-- Creator: CorelDRAW X7 -->
<svg xmlns="http://www.w3.org/2000/svg" xml:space="preserve" width="27.8566mm" height="12.7871mm" version="1.1" style="shape-rendering:geometricPrecision; text-rendering:geometricPrecision; image-rendering:optimizeQuality; fill-rule:evenodd; clip-rule:evenodd"
viewBox="0 0 1601 735"
 xmlns:xlink="http://www.w3.org/1999/xlink">
 <defs>
  <style type="text/css">
   <![CDATA[
    .fil1 {fill:black}
    .fil0 {fill:white}
   ]]>
  </style>
 </defs>
 <g id="Слой_x0020_1">
  <metadata id="CorelCorpID_0Corel-Layer"/>
  <g id="_2437121208624">
   <path class="fil0" d="M208 664l55 0 6 -4c5,-7 0,-51 2,-67 10,-4 62,-7 101,-58 24,-30 37,-77 20,-121 -13,-38 -45,-60 -81,-77 -36,-16 -79,-28 -112,-46 -17,-9 -33,-23 -35,-44 -1,-25 14,-38 32,-47 46,-23 101,-1 136,23 5,3 18,16 26,1l21 -37c5,-9 13,-18 4,-27 -27,-26 -74,-42 -112,-46 -1,-9 0,-30 0,-40 0,-14 2,-25 -4,-31l-4 -2 -54 0c-5,3 -8,4 -9,11 -2,14 1,44 0,63 -49,10 -84,32 -104,61 -27,38 -31,88 -8,127 19,33 57,57 93,71 28,12 98,36 113,53 6,7 14,15 14,27 4,35 -28,58 -61,60 -52,4 -94,-20 -122,-43 -1,-1 -5,-3 -6,-5 -3,-1 -6,-1 -9,0 -5,1 -8,5 -11,9 -37,49 -46,45 -15,69 15,12 31,23 52,31 10,4 20,7 31,11 9,2 32,5 33,8 0,13 0,26 0,40 0,23 -3,21 8,30z"/>
   <path class="fil0" d="M231 87l1295 0c41,0 75,33 75,75l0 412c0,41 -34,75 -75,75l-1295 0c-41,0 -73,-33 -75,-73 80,-3 143,-54 143,-115 0,-62 -63,-111 -143,-115l-97 -116c0,-41 131,-143 172,-143z"/>
   <path class="fil1" d="M160 735l63 0 6 -7c5,-7 0,-58 3,-78 11,-5 69,-8 114,-68 26,-35 40,-90 22,-143 -15,-45 -51,-70 -92,-90 -40,-19 -88,-33 -125,-55 -19,-10 -39,-27 -39,-51 -2,-29 15,-46 35,-56 52,-27 114,0 154,27 4,4 19,19 28,1l24 -43c6,-11 15,-21 5,-32 -31,-31 -84,-49 -126,-54 -2,-11 0,-35 0,-47 0,-16 2,-29 -5,-36l-4 -3 -61 0c-6,4 -10,5 -11,14 -1,16 2,51 0,73 -55,12 -94,39 -117,72 -29,45 -34,104 -9,150 21,39 66,66 106,83 31,14 110,43 127,63 6,7 14,17 16,31 4,41 -33,69 -70,71 -58,5 -105,-23 -137,-50 0,-1 -5,-5 -7,-6 -2,-1 -5,-2 -10,-1 -6,2 -8,7 -11,11 -43,58 -53,54 -18,81 18,15 36,27 58,37 12,5 23,8 36,12 9,4 36,7 36,10 0,16 0,32 0,47 0,28 -3,25 9,37z"/>
  </g>
 </g>
</svg>
