<svg width="36" height="16" viewBox="0 0 36 16" fill="none" xmlns="http://www.w3.org/2000/svg">
<g filter="url(#filter0_d)">
<rect x="2" y="2" width="30" height="10" rx="2" fill="white"/>
</g>
<path d="M10 7.85106C10 5.79255 6.71901 6.43085 6.71901 5.57713C6.71901 5.29787 6.96694 5.07447 7.65289 5.07447C8.15702 5.07447 8.70248 5.21808 9.2562 5.50532L9.76033 4.33245C9.29752 4.06915 8.69421 3.90957 8.08264 3.8617V3H7.09091V3.87766C5.75207 4.03723 5.09917 4.77926 5.09917 5.65692C5.09917 7.73138 8.38843 7.08511 8.38843 7.97074C8.38843 8.24202 8.12397 8.42553 7.44628 8.42553C6.77686 8.42553 6.04959 8.20213 5.53719 7.875L5 9.03989C5.47934 9.35904 6.26446 9.59043 7.09091 9.64628V10.5H8.08264V9.61436C9.3719 9.43085 10 8.69681 10 7.85106Z" fill="#0076FF"/>
<defs>
<filter id="filter0_d" x="0" y="0" width="36" height="16" filterUnits="userSpaceOnUse" color-interpolation-filters="sRGB">
<feFlood flood-opacity="0" result="BackgroundImageFix"/>
<feColorMatrix in="SourceAlpha" type="matrix" values="0 0 0 0 0 0 0 0 0 0 0 0 0 0 0 0 0 0 127 0"/>
<feOffset dx="1" dy="1"/>
<feGaussianBlur stdDeviation="1.5"/>
<feColorMatrix type="matrix" values="0 0 0 0 0.796156 0 0 0 0 0.856334 0 0 0 0 0.9125 0 0 0 1 0"/>
<feBlend mode="normal" in2="BackgroundImageFix" result="effect1_dropShadow"/>
<feBlend mode="normal" in="SourceGraphic" in2="effect1_dropShadow" result="shape"/>
</filter>
</defs>
</svg>
