<svg width="337" height="60" viewBox="0 0 337 60" fill="none" xmlns="http://www.w3.org/2000/svg">
<rect width="337" height="60" rx="30" fill="#08F2D0"/>
<path d="M138.568 35.232V22.2H125.032L124.84 27.384C124.672 31.872 124.12 35.184 121.984 35.232H121.384V42.384H125.752V39H136.504V42.384H140.848V35.232H138.568ZM128.992 27.792L129.064 25.968H133.888V35.232H127.528C128.512 33.816 128.872 31.08 128.992 27.792ZM158.62 39H163.564L156.124 22.2H151.444L144.028 39H148.876L150.196 35.736H157.3L158.62 39ZM151.588 32.232L153.748 26.856L155.908 32.232H151.588ZM170.213 22.2L169.973 28.896C169.829 32.688 169.469 35.184 167.525 35.184C167.309 35.184 167.093 35.16 166.877 35.112L166.613 39C167.405 39.192 168.125 39.288 168.773 39.288C173.045 39.288 173.933 35.256 174.149 28.704L174.245 25.968H179.069V39H183.749V22.2H170.213ZM194.446 35.328V32.256H201.91V28.704H194.446V25.872H202.918V22.2H189.742V39H203.23V35.328H194.446ZM213.041 35.328V32.256H220.505V28.704H213.041V25.872H221.513V22.2H208.337V39H221.825V35.328H213.041Z" fill="#00069E"/>
</svg>
