<svg width="338" height="474" viewBox="0 0 338 474" fill="none" xmlns="http://www.w3.org/2000/svg">
<rect x="2.5" y="2.5" width="331" height="469" rx="32.5" fill="url(#paint0_linear)" stroke="url(#paint1_linear)" stroke-width="5"/>
<mask id="mask0" mask-type="alpha" maskUnits="userSpaceOnUse" x="2" y="0" width="336" height="474">
<rect x="4.5" y="2.5" width="331" height="469" rx="41.5" fill="url(#paint2_linear)" stroke="url(#paint3_linear)" stroke-width="5"/>
</mask>
<g mask="url(#mask0)">
<path d="M198.89 5.0093C198.89 5.0093 97.8208 47.0947 93.9888 101.845C90.1568 156.595 112.775 152.615 106.069 185.086C99.3631 217.557 -10.9124 255.616 18.7856 356.766C48.4837 457.916 142.368 370.584 242 469H35C18.4315 469 5 455.569 5 439V35.0014C5 18.4323 18.4323 5.00064 35.0014 5.00144L198.89 5.0093Z" fill="url(#paint4_linear)" fill-opacity="0.5"/>
</g>
<path opacity="0.46" d="M219.887 378C202.092 377.978 184.702 372.68 169.917 362.777C155.131 352.875 143.613 338.811 136.819 322.363C130.024 305.916 128.258 287.824 131.743 270.373C135.229 252.922 143.809 236.896 156.4 224.321C168.992 211.745 185.028 203.185 202.483 199.721C219.939 196.258 238.029 198.046 254.468 204.862C270.906 211.677 284.956 223.212 294.84 238.01C304.724 252.808 310 270.204 310 288C309.958 311.876 300.447 334.761 283.553 351.633C266.66 368.506 243.763 377.988 219.887 378ZM219.887 222.747C206.985 222.764 194.378 226.607 183.659 233.788C172.94 240.969 164.59 251.166 159.665 263.091C154.74 275.016 153.461 288.134 155.989 300.786C158.517 313.438 164.739 325.056 173.868 334.173C182.998 343.29 194.625 349.496 207.28 352.006C219.936 354.517 233.051 353.219 244.97 348.278C256.888 343.336 267.074 334.972 274.24 324.243C281.406 313.515 285.231 300.902 285.231 288C285.177 270.703 278.27 254.132 266.022 241.918C253.774 229.704 237.184 222.843 219.887 222.837V222.747Z" fill="url(#paint5_linear)"/>
<path opacity="0.46" d="M99.9498 126C92.0407 125.99 84.3121 123.636 77.7407 119.234C71.1694 114.833 66.0503 108.583 63.0305 101.273C60.0106 93.9627 59.2257 85.9216 60.7747 78.1657C62.3238 70.4097 66.1374 63.2871 71.7335 57.698C77.3296 52.1089 84.457 48.3043 92.2148 46.7649C99.9727 45.2256 108.013 46.0207 115.319 49.0496C122.625 52.0786 128.869 57.2055 133.262 63.7824C137.655 70.3593 140 78.0909 140 86C139.981 96.6116 135.754 106.783 128.246 114.281C120.738 121.78 110.561 125.995 99.9498 126ZM99.9498 56.9985C94.2156 57.0064 88.6124 58.7141 83.8484 61.9056C79.0844 65.0972 75.3735 69.6294 73.1846 74.9294C70.9957 80.2294 70.4271 86.0594 71.5506 91.6825C72.6742 97.3056 75.4395 102.469 79.497 106.521C83.5545 110.573 88.7222 113.331 94.3468 114.447C99.9715 115.563 105.801 114.986 111.098 112.79C116.395 110.594 120.922 106.877 124.107 102.108C127.292 97.3398 128.991 91.7342 128.991 86C128.968 78.3124 125.898 70.9477 120.454 65.5193C115.011 60.0908 107.637 57.0412 99.9498 57.0386V56.9985Z" fill="url(#paint6_linear)"/>
<path d="M48.4679 295.2L44.4119 303.312L40.4999 295.2H35.4839L42.0119 307.296C41.3879 308.208 40.7159 308.592 39.7799 308.592C39.2759 308.592 38.7479 308.496 38.0999 308.304L36.9719 311.808C38.0039 312.216 38.9879 312.432 39.9479 312.432C42.4679 312.432 44.6519 310.992 46.1399 308.184L53.0999 295.2H48.4679Z" fill="black"/>
<path d="M62.5739 312.336C65.6699 312.336 68.1659 311.208 69.7979 309.168L66.7739 306.432C65.7179 307.704 64.4219 308.4 62.8139 308.4C60.0539 308.4 58.1339 306.48 58.1339 303.6C58.1339 300.72 60.0539 298.8 62.8139 298.8C64.4219 298.8 65.7179 299.496 66.7739 300.768L69.7979 298.032C68.1659 295.992 65.6699 294.864 62.5739 294.864C57.2459 294.864 53.3339 298.488 53.3339 303.6C53.3339 308.712 57.2459 312.336 62.5739 312.336Z" fill="black"/>
<path d="M85.34 295.2H70.3639V298.968H75.5239V312H80.2039V298.968H85.34V295.2Z" fill="black"/>
<path d="M99.5988 312H104.543L97.1028 295.2H92.4228L85.0068 312H89.8548L91.1748 308.736H98.2788L99.5988 312ZM92.5668 305.232L94.7268 299.856L96.8868 305.232H92.5668Z" fill="black"/>
<path d="M117.7 295.2V301.512H111.22V295.2H106.468V312H111.22V305.448H117.7V312H122.452V295.2H117.7Z" fill="black"/>
<path d="M134.318 312.336C139.694 312.336 143.654 308.64 143.654 303.6C143.654 298.56 139.694 294.864 134.318 294.864C128.942 294.864 124.982 298.56 124.982 303.6C124.982 308.64 128.942 312.336 134.318 312.336ZM134.318 308.4C131.774 308.4 129.782 306.504 129.782 303.6C129.782 300.696 131.774 298.8 134.318 298.8C136.862 298.8 138.854 300.696 138.854 303.6C138.854 306.504 136.862 308.4 134.318 308.4Z" fill="black"/>
<path d="M158.435 303.216C159.875 302.496 160.715 301.224 160.715 299.568C160.715 296.784 158.363 295.2 154.355 295.2H146.195V312H154.811C159.131 312 161.483 310.152 161.483 307.2C161.483 305.184 160.379 303.84 158.435 303.216ZM150.875 298.608H153.899C155.243 298.608 155.915 299.184 155.915 300.264C155.915 301.368 155.243 301.92 153.899 301.92H150.875V298.608ZM154.619 308.592H150.875V305.136H154.619C155.987 305.136 156.683 305.688 156.683 306.84C156.683 307.992 155.987 308.592 154.619 308.592Z" fill="black"/>
<path d="M174.662 312H180.014L174.71 303.312L179.966 295.2H174.974L170.966 301.728H168.686V295.2H163.958V312H168.686V305.568H170.846L174.662 312Z" fill="black"/>
<path d="M194.052 312H198.996L191.556 295.2H186.876L179.46 312H184.308L185.628 308.736H192.732L194.052 312ZM187.02 305.232L189.18 299.856L191.34 305.232H187.02Z" fill="black"/>
<path d="M207.906 295.2V312H212.586V298.968H218.97V312H223.674V295.2H207.906Z" fill="black"/>
<path d="M227.265 312H231.753L238.665 302.16V312H243.345V295.2H238.881L231.945 305.064V295.2H227.265V312Z" fill="black"/>
<path d="M254.632 295.2H246.952V312H251.704V307.608H254.632C259.216 307.608 262.096 305.232 262.096 301.416C262.096 297.576 259.216 295.2 254.632 295.2ZM254.344 303.864H251.704V298.944H254.344C256.312 298.944 257.296 299.856 257.296 301.416C257.296 302.952 256.312 303.864 254.344 303.864Z" fill="black"/>
<path d="M276.318 312H281.262L273.822 295.2H269.142L261.726 312H266.574L267.894 308.736H274.998L276.318 312ZM269.286 305.232L271.446 299.856L273.606 305.232H269.286Z" fill="black"/>
<path d="M295.879 295.2H280.903V298.968H286.063V312H290.743V298.968H295.879V295.2Z" fill="black"/>
<path d="M296.508 306.912H303.516V303.408H296.508V306.912Z" fill="black"/>
<path d="M50.9372 340.336C54.0332 340.336 56.5292 339.208 58.1612 337.168L55.1372 334.432C54.0812 335.704 52.7852 336.4 51.1772 336.4C48.4172 336.4 46.4972 334.48 46.4972 331.6C46.4972 328.72 48.4172 326.8 51.1772 326.8C52.7852 326.8 54.0812 327.496 55.1372 328.768L58.1612 326.032C56.5292 323.992 54.0332 322.864 50.9372 322.864C45.6092 322.864 41.6972 326.488 41.6972 331.6C41.6972 336.712 45.6092 340.336 50.9372 340.336Z" fill="black"/>
<path d="M70.9159 340H76.2679L70.9639 331.312L76.2199 323.2H71.2279L67.2199 329.728H64.9399V323.2H60.2119V340H64.9399V333.568H67.0999L70.9159 340Z" fill="black"/>
<path d="M85.9545 340.336C91.3305 340.336 95.2905 336.64 95.2905 331.6C95.2905 326.56 91.3305 322.864 85.9545 322.864C80.5785 322.864 76.6185 326.56 76.6185 331.6C76.6185 336.64 80.5785 340.336 85.9545 340.336ZM85.9545 336.4C83.4105 336.4 81.4185 334.504 81.4185 331.6C81.4185 328.696 83.4105 326.8 85.9545 326.8C88.4985 326.8 90.4905 328.696 90.4905 331.6C90.4905 334.504 88.4985 336.4 85.9545 336.4Z" fill="black"/>
<path d="M110.143 323.2H97.8313V340H102.511V326.968H110.119L110.143 323.2Z" fill="black"/>
<path d="M119.072 340.336C124.448 340.336 128.408 336.64 128.408 331.6C128.408 326.56 124.448 322.864 119.072 322.864C113.696 322.864 109.736 326.56 109.736 331.6C109.736 336.64 113.696 340.336 119.072 340.336ZM119.072 336.4C116.528 336.4 114.536 334.504 114.536 331.6C114.536 328.696 116.528 326.8 119.072 326.8C121.616 326.8 123.608 328.696 123.608 331.6C123.608 334.504 121.616 336.4 119.072 336.4Z" fill="black"/>
<path d="M145.613 323.2H137.933V340H142.685V335.608H145.613C150.197 335.608 153.077 333.232 153.077 329.416C153.077 325.576 150.197 323.2 145.613 323.2ZM145.325 331.864H142.685V326.944H145.325C147.293 326.944 148.277 327.856 148.277 329.416C148.277 330.952 147.293 331.864 145.325 331.864Z" fill="black"/>
<path d="M159.934 336.328V333.256H167.398V329.704H159.934V326.872H168.406V323.2H155.23V340H168.718V336.328H159.934Z" fill="black"/>
<path d="M187.193 336.232V323.2H173.657L173.465 328.384C173.297 332.872 172.745 336.184 170.609 336.232H170.009V343.384H174.377V340H185.129V343.384H189.473V336.232H187.193ZM177.617 328.792L177.689 326.968H182.513V336.232H176.153C177.137 334.816 177.497 332.08 177.617 328.792Z" fill="black"/>
<path d="M204.845 340H209.789L202.349 323.2H197.669L190.253 340H195.101L196.421 336.736H203.525L204.845 340ZM197.813 333.232L199.973 327.856L202.133 333.232H197.813Z" fill="black"/>
<path d="M222.322 340H227.674L222.37 331.312L227.626 323.2H222.634L218.626 329.728H216.346V323.2H211.618V340H216.346V333.568H218.506L222.322 340Z" fill="black"/>
<path d="M242.524 323.2H227.548V326.968H232.708V340H237.388V326.968H242.524V323.2Z" fill="black"/>
<path d="M252.736 340.336C258.112 340.336 262.072 336.64 262.072 331.6C262.072 326.56 258.112 322.864 252.736 322.864C247.36 322.864 243.4 326.56 243.4 331.6C243.4 336.64 247.36 340.336 252.736 340.336ZM252.736 336.4C250.192 336.4 248.2 334.504 248.2 331.6C248.2 328.696 250.192 326.8 252.736 326.8C255.28 326.8 257.272 328.696 257.272 331.6C257.272 334.504 255.28 336.4 252.736 336.4Z" fill="black"/>
<path d="M272.293 323.2H264.613V340H269.365V335.608H272.293C276.877 335.608 279.757 333.232 279.757 329.416C279.757 325.576 276.877 323.2 272.293 323.2ZM272.005 331.864H269.365V326.944H272.005C273.973 326.944 274.957 327.856 274.957 329.416C274.957 330.952 273.973 331.864 272.005 331.864Z" fill="black"/>
<path d="M293.978 340H298.922L291.482 323.2H286.802L279.386 340H284.234L285.554 336.736H292.658L293.978 340ZM286.946 333.232L289.106 327.856L291.266 333.232H286.946Z" fill="black"/>
<path fill-rule="evenodd" clip-rule="evenodd" d="M44.4839 292.179C45.4184 290.946 46.8865 290.2 48.4679 290.2H53.0999C54.2238 290.2 55.295 290.577 56.1574 291.244C58.0917 290.35 60.2742 289.864 62.5739 289.864C64.4689 289.864 66.3004 290.172 67.9892 290.799C68.6956 290.417 69.5045 290.2 70.364 290.2H85.34C86.7236 290.2 87.976 290.762 88.8813 291.67C89.8027 290.746 91.0691 290.2 92.4228 290.2H97.1028C99.0811 290.2 100.873 291.366 101.675 293.175L101.789 293.434C102.503 291.544 104.328 290.2 106.468 290.2H111.22C112.456 290.2 113.587 290.649 114.46 291.392C115.333 290.649 116.464 290.2 117.7 290.2H122.452C124.028 290.2 125.434 290.929 126.351 292.069C128.641 290.654 131.388 289.864 134.318 289.864C137.25 289.864 140.001 290.656 142.292 292.074C143.209 290.931 144.616 290.2 146.195 290.2H154.355C156.45 290.2 158.655 290.528 160.61 291.486C161.496 290.687 162.67 290.2 163.958 290.2H168.686C169.877 290.2 170.971 290.617 171.83 291.312C172.707 290.603 173.813 290.2 174.974 290.2H179.966C181.272 290.2 182.504 290.71 183.421 291.586C184.334 290.713 185.564 290.2 186.876 290.2H191.556C193.534 290.2 195.327 291.366 196.128 293.175L202.906 308.48V295.2C202.906 292.439 205.144 290.2 207.906 290.2H223.674C224.306 290.2 224.912 290.318 225.469 290.532C226.027 290.318 226.632 290.2 227.265 290.2H231.945C233.292 290.2 234.514 290.732 235.413 291.598C236.336 290.71 237.576 290.2 238.881 290.2H243.345C243.981 290.2 244.589 290.319 245.149 290.535C245.708 290.319 246.316 290.2 246.952 290.2H254.632C257.739 290.2 260.849 291.004 263.278 293.022C263.621 293.307 263.942 293.609 264.239 293.925L264.567 293.181C265.367 291.369 267.161 290.2 269.142 290.2H273.822C275.175 290.2 276.441 290.746 277.362 291.67C278.268 290.762 279.52 290.2 280.903 290.2H295.879C298.64 290.2 300.879 292.439 300.879 295.2V298.408H303.516C306.277 298.408 308.516 300.647 308.516 303.408V306.912C308.516 309.673 306.277 311.912 303.516 311.912H296.508C296.248 311.912 295.992 311.892 295.743 311.854V312C295.743 314.761 293.504 317 290.743 317H286.063C285.193 317 284.374 316.778 283.661 316.386C282.936 316.783 282.114 317 281.262 317H276.318C274.28 317 272.446 315.764 271.682 313.875L271.626 313.736H271.265L271.209 313.875C270.445 315.764 268.611 317 266.574 317H261.726C260.035 317 258.459 316.146 257.536 314.73C257.089 314.043 256.824 313.269 256.748 312.478C256.726 312.481 256.704 312.484 256.681 312.486C256.437 315.02 254.302 317 251.704 317H246.952C246.316 317 245.708 316.881 245.149 316.665C244.589 316.881 243.981 317 243.345 317H238.665C237.324 317 236.107 316.472 235.209 315.613C234.287 316.495 233.053 317 231.753 317H227.265C226.632 317 226.027 316.882 225.469 316.668C224.912 316.882 224.306 317 223.674 317H218.97C217.756 317 216.643 316.568 215.778 315.849C214.912 316.568 213.799 317 212.586 317H207.906C205.962 317 204.278 315.891 203.45 314.272C203.371 314.427 203.283 314.579 203.187 314.727C202.264 316.145 200.687 317 198.996 317H194.052C192.014 317 190.181 315.764 189.417 313.875L189.361 313.736H188.999L188.943 313.875C188.179 315.764 186.345 317 184.308 317H174.662C173.568 317 172.524 316.642 171.674 316.009C170.841 316.632 169.806 317 168.686 317H163.958C162.751 317 161.645 316.573 160.781 315.861C158.918 316.688 156.845 317 154.811 317H146.195C144.616 317 143.209 316.269 142.292 315.126C140.001 316.544 137.25 317.336 134.318 317.336C131.388 317.336 128.641 316.546 126.351 315.131C125.434 316.271 124.028 317 122.452 317H117.7C116.464 317 115.333 316.552 114.46 315.808C113.587 316.552 112.456 317 111.22 317H106.468C106.138 317 105.815 316.968 105.503 316.907C105.19 316.968 104.868 317 104.543 317H99.5988C97.5612 317 95.7274 315.764 94.9635 313.875L94.9074 313.736H94.5461L94.4901 313.875C93.7261 315.764 91.8924 317 89.8548 317H85.0068C84.1545 317 83.3314 316.783 82.6063 316.386C81.8934 316.777 81.0747 317 80.204 317H75.524C73.7288 317 72.1546 316.054 71.2727 314.633C68.8121 316.451 65.784 317.336 62.5739 317.336C57.423 317.336 52.8596 314.9 50.3577 310.892C48.1864 314.747 44.5806 317.432 39.9479 317.432C38.2252 317.432 36.6126 317.043 35.1336 316.458C32.6829 315.489 31.4049 312.784 32.2124 310.276L33.3404 306.772C33.6321 305.866 34.1586 305.099 34.8316 304.519L31.0838 297.575C30.2476 296.025 30.2879 294.15 31.1901 292.638C32.0922 291.126 33.7232 290.2 35.4839 290.2H40.4999C42.0826 290.2 43.5502 290.947 44.4839 292.179ZM38.3312 308.37C38.2557 308.349 38.1787 308.327 38.0999 308.304L36.9719 311.808C36.9987 311.819 37.0256 311.829 37.0523 311.839C37.4566 311.996 37.8536 312.122 38.2448 312.218C38.7657 312.345 39.2763 312.417 39.7799 312.43C39.836 312.431 39.892 312.432 39.9479 312.432C40.7176 312.432 41.456 312.298 42.1528 312.031C43.3355 311.578 44.3983 310.745 45.2911 309.54C45.5943 309.13 45.8779 308.678 46.1399 308.184L53.0999 295.2H48.4679L44.4119 303.312L40.4999 295.2H35.4839L42.0119 307.296C41.9432 307.396 41.874 307.49 41.8039 307.578C41.2756 308.239 40.698 308.549 39.9479 308.588C39.8928 308.591 39.8368 308.592 39.7799 308.592C39.7258 308.592 39.6714 308.591 39.6166 308.589C39.2232 308.573 38.8094 308.5 38.3312 308.37ZM75.524 312H80.204V298.968H85.34V295.2H70.364V298.968H75.524V312ZM66.7739 300.768L69.7979 298.032C69.5911 297.773 69.3703 297.53 69.1363 297.301C68.1356 296.323 66.8911 295.62 65.4447 295.228C65.4179 295.221 65.3909 295.213 65.364 295.206C64.5714 294.999 63.7191 294.884 62.8139 294.866C62.7343 294.865 62.6543 294.864 62.5739 294.864C60.9026 294.864 59.3707 295.221 58.0552 295.868C57.4436 296.169 56.8788 296.532 56.3685 296.952C54.4768 298.508 53.3339 300.837 53.3339 303.6C53.3339 304.124 53.3749 304.632 53.4544 305.122C54.1503 309.416 57.7917 312.336 62.5739 312.336C62.6543 312.336 62.7343 312.335 62.8139 312.334C63.75 312.316 64.6294 312.193 65.4447 311.972C66.8911 311.58 68.1356 310.878 69.1363 309.899C69.3703 309.67 69.5911 309.427 69.7979 309.168L66.7739 306.432C66.7207 306.496 66.6669 306.559 66.6126 306.62C66.5336 306.708 66.4534 306.794 66.3718 306.876C65.3932 307.865 64.2234 308.4 62.8139 308.4C62.7332 308.4 62.6532 308.398 62.5739 308.395C59.9432 308.287 58.1339 306.396 58.1339 303.6C58.1339 300.804 59.9432 298.913 62.5739 298.805C62.6532 298.802 62.7332 298.8 62.8139 298.8C63.7823 298.8 64.6375 299.052 65.3953 299.531C65.7405 299.749 66.0655 300.014 66.3718 300.324C66.4534 300.406 66.5336 300.492 66.6126 300.58C66.6669 300.641 66.7207 300.704 66.7739 300.768ZM104.543 312L97.1028 295.2H92.4228L85.0068 312H89.8548L91.1748 308.736H98.2788L99.5988 312H104.543ZM94.7268 299.856L92.5668 305.232H96.8868L94.7268 299.856ZM111.22 312V305.448H117.7V312H122.452V295.2H117.7V301.512H111.22V295.2H106.468V312H111.22ZM127.452 309.683C129.123 311.342 131.53 312.336 134.318 312.336C137.111 312.336 139.523 311.338 141.195 309.672C142.74 308.132 143.654 306.021 143.654 303.6C143.654 301.179 142.74 299.068 141.195 297.528C139.523 295.862 137.111 294.864 134.318 294.864C131.53 294.864 129.123 295.858 127.452 297.517C125.9 299.058 124.982 301.173 124.982 303.6C124.982 306.027 125.9 308.142 127.452 309.683ZM146.195 312H154.811C156.503 312 157.893 311.717 158.958 311.194C160.602 310.388 161.472 309.013 161.482 307.233C161.483 307.222 161.483 307.211 161.483 307.2C161.483 307.078 161.478 306.958 161.47 306.84C161.383 305.572 160.828 304.594 159.88 303.919C159.605 303.724 159.297 303.554 158.958 303.41C158.791 303.339 158.616 303.274 158.435 303.216C158.619 303.124 158.794 303.022 158.958 302.912C159.292 302.689 159.583 302.43 159.827 302.137C160.264 301.613 160.551 300.983 160.662 300.264C160.697 300.04 160.715 299.808 160.715 299.568C160.715 299.262 160.686 298.97 160.63 298.693C160.425 297.682 159.853 296.871 158.958 296.287C157.872 295.577 156.31 295.2 154.355 295.2H146.195V312ZM150.875 301.92H153.899C154.165 301.92 154.405 301.898 154.619 301.855C155.331 301.71 155.749 301.325 155.875 300.698C155.895 300.593 155.908 300.482 155.913 300.364C155.914 300.331 155.915 300.298 155.915 300.264C155.915 300.252 155.914 300.239 155.914 300.227C155.914 300.193 155.913 300.161 155.911 300.128C155.905 300.027 155.893 299.93 155.875 299.838C155.855 299.743 155.829 299.653 155.796 299.568C155.778 299.521 155.757 299.476 155.734 299.432C155.679 299.327 155.612 299.231 155.531 299.145C155.271 298.867 154.879 298.694 154.355 298.633C154.212 298.616 154.06 298.608 153.899 298.608H150.875V301.92ZM150.875 305.136V308.592H154.619C154.684 308.592 154.748 308.591 154.811 308.588C155.238 308.569 155.593 308.486 155.875 308.341C156.125 308.211 156.317 308.033 156.452 307.806C156.506 307.714 156.551 307.615 156.586 307.507C156.617 307.411 156.641 307.309 156.657 307.2C156.674 307.087 156.683 306.967 156.683 306.84C156.683 306.827 156.682 306.813 156.682 306.8C156.682 306.779 156.681 306.759 156.681 306.739C156.677 306.643 156.668 306.551 156.655 306.464C156.573 305.948 156.312 305.587 155.875 305.372C155.552 305.214 155.133 305.136 154.619 305.136H150.875ZM163.958 312H168.686V305.568H170.846L174.662 312H184.308L185.628 308.736H192.732L194.052 312H198.996L191.556 295.2H186.876L179.692 311.473L174.71 303.312L179.966 295.2H174.974L170.966 301.728H168.686V295.2H163.958V312ZM189.18 299.856L187.02 305.232H191.34L189.18 299.856ZM218.97 312H223.674V295.2H207.906V312H212.586V298.968H218.97V312ZM238.665 312H243.345V295.2H238.881L231.945 305.064V295.2H227.265V312H231.753L238.665 302.16V312ZM246.952 295.2V312H251.704V307.608H254.632C256.12 307.608 257.428 307.358 258.516 306.89C260.782 305.915 262.096 303.994 262.096 301.416C262.096 300.703 261.997 300.041 261.806 299.435C260.969 296.776 258.366 295.2 254.632 295.2H246.952ZM251.704 298.944V303.864H254.344C254.443 303.864 254.539 303.862 254.632 303.857C255.571 303.812 256.262 303.54 256.704 303.078C257.099 302.667 257.296 302.104 257.296 301.416C257.296 300.717 257.099 300.149 256.704 299.734C256.262 299.268 255.571 298.996 254.632 298.951C254.539 298.946 254.443 298.944 254.344 298.944H251.704ZM281.262 312L273.822 295.2H269.142L261.726 312H266.574L267.894 308.736H274.998L276.318 312H281.262ZM271.446 299.856L269.286 305.232H273.606L271.446 299.856ZM286.063 312H290.743V298.968H295.879V295.2H280.903V298.968H286.063V312ZM296.508 306.912H303.516V303.408H296.508V306.912ZM134.318 303.4C134.309 303.401 134.268 303.406 134.204 303.432C134.122 303.465 134.035 303.522 133.96 303.599C133.959 303.599 133.959 303.6 133.958 303.6C133.959 303.6 133.959 303.601 133.96 303.601C134.035 303.679 134.122 303.735 134.204 303.768C134.268 303.794 134.309 303.799 134.318 303.8C134.318 303.8 134.318 303.8 134.318 303.8M134.677 303.6C134.677 303.6 134.676 303.601 134.676 303.601C134.601 303.679 134.513 303.735 134.432 303.768C134.368 303.794 134.327 303.799 134.318 303.8M134.318 303.4C134.327 303.401 134.368 303.406 134.432 303.432ZM134.432 303.432C134.513 303.465 134.601 303.522 134.676 303.599ZM134.676 303.599C134.676 303.599 134.677 303.6 134.677 303.6ZM57.2526 344.031C55.3228 344.906 53.1742 345.336 50.9372 345.336C43.1448 345.336 36.6972 339.761 36.6972 331.6C36.6972 323.439 43.1448 317.864 50.9372 317.864C53.1742 317.864 55.3228 318.294 57.2526 319.169C58.0812 318.56 59.1045 318.2 60.2119 318.2H64.9399C66.1311 318.2 67.225 318.617 68.0839 319.312C68.9611 318.603 70.0666 318.2 71.2279 318.2H76.2199C77.3865 318.2 78.4937 318.606 79.3701 319.317C81.3507 318.377 83.5935 317.864 85.9545 317.864C88.8871 317.864 91.6373 318.656 93.9291 320.074C94.8454 318.931 96.253 318.2 97.8313 318.2H110.143C111.168 318.2 112.16 318.515 112.991 319.09C114.845 318.295 116.908 317.864 119.072 317.864C125.643 317.864 131.298 321.839 132.933 327.927V323.2C132.933 320.439 135.171 318.2 137.933 318.2H145.613C147.771 318.2 149.932 318.588 151.864 319.502C152.753 318.693 153.934 318.2 155.23 318.2H168.406C169.369 318.2 170.268 318.472 171.032 318.944C171.796 318.472 172.696 318.2 173.657 318.2H187.193C189.954 318.2 192.193 320.439 192.193 323.2V323.223L193.095 321.181C193.895 319.369 195.688 318.2 197.669 318.2H202.349C204.327 318.2 206.12 319.366 206.921 321.175L206.984 321.319C207.727 319.49 209.522 318.2 211.618 318.2H216.346C217.537 318.2 218.631 318.617 219.49 319.312C220.367 318.603 221.473 318.2 222.634 318.2H242.524C243.8 318.2 244.965 318.678 245.848 319.465C247.902 318.431 250.253 317.864 252.736 317.864C255.668 317.864 258.419 318.656 260.71 320.074C261.627 318.931 263.034 318.2 264.613 318.2H272.293C275.399 318.2 278.509 319.004 280.938 321.022C281.281 321.307 281.602 321.609 281.899 321.925L282.228 321.181C283.027 319.369 284.821 318.2 286.802 318.2H291.482C293.46 318.2 295.252 319.366 296.053 321.175L303.493 337.975C304.178 339.522 304.035 341.31 303.112 342.727C302.19 344.145 300.613 345 298.922 345H293.978C291.94 345 290.106 343.764 289.342 341.875L289.286 341.736H288.925L288.869 341.875C288.105 343.764 286.271 345 284.234 345H279.386C277.695 345 276.12 344.146 275.197 342.73C274.749 342.043 274.485 341.269 274.409 340.478C274.386 340.481 274.364 340.484 274.341 340.486C274.097 343.02 271.962 345 269.365 345H264.613C263.034 345 261.627 344.269 260.71 343.126C258.419 344.544 255.668 345.336 252.736 345.336C248.634 345.336 244.889 343.787 242.256 341.143C241.739 343.354 239.756 345 237.388 345H232.708C231.79 345 230.929 344.753 230.19 344.321C229.439 344.758 228.574 345 227.674 345H222.322C221.228 345 220.184 344.642 219.334 344.009C218.501 344.632 217.466 345 216.346 345H211.618C211.305 345 210.998 344.971 210.701 344.916C210.403 344.971 210.098 345 209.789 345H204.845C202.807 345 200.973 343.764 200.21 341.875L200.154 341.736H199.792L199.736 341.875C198.972 343.764 197.138 345 195.101 345H194.206C193.534 346.968 191.669 348.384 189.473 348.384H185.129C182.933 348.384 181.068 346.968 180.396 345H179.11C178.438 346.968 176.573 348.384 174.377 348.384H170.009C167.813 348.384 165.948 346.968 165.276 345H155.23C152.468 345 150.23 342.761 150.23 340V339.942C149.396 340.201 148.535 340.38 147.662 340.486C147.417 343.02 145.282 345 142.685 345H137.933C135.171 345 132.933 342.761 132.933 340V335.273C131.298 341.361 125.643 345.336 119.072 345.336C114.371 345.336 110.138 343.301 107.511 339.914V340C107.511 342.761 105.273 345 102.511 345H97.8313C96.253 345 94.8454 344.269 93.9291 343.126C91.6373 344.544 88.8871 345.336 85.9545 345.336C83.6055 345.336 81.3735 344.828 79.4004 343.897C78.5264 344.6 77.426 345 76.2679 345H70.9159C69.8218 345 68.7781 344.642 67.9281 344.009C67.0944 344.632 66.0602 345 64.9399 345H60.2119C59.1045 345 58.0812 344.64 57.2526 344.031ZM60.2119 340H64.9399V333.568H67.0999L70.9159 340H76.2679L70.9639 331.312L76.2199 323.2H71.2279L67.2199 329.728H64.9399V323.2H60.2119V340ZM76.6201 331.777C76.6673 334.323 77.7301 336.515 79.4743 338.042C79.9944 338.498 80.575 338.895 81.2073 339.224C82.5771 339.938 84.1895 340.336 85.9545 340.336C88.7481 340.336 91.1594 339.338 92.8313 337.672C94.3768 336.132 95.2905 334.021 95.2905 331.6C95.2905 329.179 94.3768 327.068 92.8313 325.528C91.1594 323.862 88.7481 322.864 85.9545 322.864C84.1669 322.864 82.5359 323.273 81.1549 324.003C80.5029 324.349 79.9067 324.765 79.376 325.245C77.7841 326.684 76.7825 328.687 76.6369 331.009C76.6247 331.204 76.6185 331.401 76.6185 331.6C76.6185 331.659 76.619 331.718 76.6201 331.777ZM53.808 339.972C52.9927 340.193 52.1132 340.316 51.1772 340.334C51.0976 340.335 51.0176 340.336 50.9372 340.336C45.6092 340.336 41.6972 336.712 41.6972 331.6C41.6972 326.488 45.6092 322.864 50.9372 322.864C51.0176 322.864 51.0976 322.865 51.1772 322.866C52.1132 322.884 52.9927 323.007 53.808 323.228C54.2998 323.361 54.7683 323.53 55.2119 323.734C56.0726 324.13 56.8392 324.655 57.4995 325.301C57.7336 325.53 57.9543 325.773 58.1612 326.032L55.1372 328.768C55.084 328.704 55.0302 328.641 54.9758 328.58C54.8969 328.492 54.8166 328.406 54.735 328.324C53.7565 327.335 52.5867 326.8 51.1772 326.8C51.0964 326.8 51.0164 326.802 50.9372 326.805C48.3065 326.913 46.4972 328.804 46.4972 331.6C46.4972 334.396 48.3065 336.287 50.9372 336.395C51.0164 336.398 51.0964 336.4 51.1772 336.4C52.5867 336.4 53.7565 335.865 54.7351 334.876C54.8166 334.794 54.8969 334.708 54.9758 334.62C55.0302 334.559 55.084 334.496 55.1372 334.432L58.1612 337.168C57.9543 337.427 57.7336 337.67 57.4996 337.899C56.8392 338.545 56.0726 339.07 55.2119 339.466C54.7683 339.67 54.2998 339.839 53.808 339.972ZM51.0882 331.442C51.0881 331.442 51.0882 331.442 51.0882 331.442ZM97.8313 340H102.511V326.968H110.119L110.143 323.2H97.8313V340ZM109.743 331.968C109.931 336.819 113.827 340.336 119.072 340.336C124.448 340.336 128.408 336.64 128.408 331.6C128.408 326.56 124.448 322.864 119.072 322.864C117.646 322.864 116.32 323.124 115.141 323.6C113.402 324.302 111.984 325.473 111.037 326.974C110.648 327.59 110.339 328.261 110.119 328.978C109.869 329.797 109.736 330.676 109.736 331.6C109.736 331.723 109.738 331.846 109.743 331.968ZM137.933 323.2V340H142.685V335.608H145.613C147.451 335.608 149.015 335.226 150.23 334.522C152.044 333.471 153.077 331.702 153.077 329.416C153.077 327.116 152.044 325.341 150.23 324.287C149.015 323.582 147.451 323.2 145.613 323.2H137.933ZM142.685 326.944V331.864H145.325C145.423 331.864 145.519 331.862 145.613 331.857C146.552 331.812 147.242 331.54 147.685 331.078C148.08 330.667 148.277 330.104 148.277 329.416C148.277 328.717 148.08 328.149 147.685 327.734C147.242 327.268 146.552 326.996 145.613 326.951C145.519 326.946 145.423 326.944 145.325 326.944H142.685ZM155.23 340H168.718V336.328H159.934V333.256H167.398V329.704H159.934V326.872H168.406V323.2H155.23V340ZM171.154 336.139C170.985 336.196 170.803 336.228 170.609 336.232H170.009V343.384H174.377V340H185.129V343.384H189.473V336.232H187.193V323.2H173.657L173.465 328.384C173.462 328.466 173.459 328.547 173.455 328.628C173.455 328.632 173.455 328.636 173.455 328.64C173.375 330.569 173.219 332.269 172.888 333.568C172.859 333.682 172.829 333.793 172.797 333.9C172.573 334.659 172.279 335.259 171.891 335.661C171.819 335.736 171.743 335.804 171.664 335.865C171.531 335.967 171.389 336.049 171.237 336.109C171.209 336.12 171.182 336.13 171.154 336.139ZM176.153 336.232C176.388 335.893 176.588 335.479 176.757 335C177.111 333.997 177.332 332.709 177.468 331.232C177.484 331.055 177.499 330.876 177.513 330.694C177.559 330.086 177.593 329.45 177.617 328.792L177.627 328.54L177.627 328.538L177.689 326.968H182.513V336.232H176.153ZM209.789 340L202.349 323.2H197.669L190.253 340H195.101L196.421 336.736H203.525L204.845 340H209.789ZM199.973 327.856L197.813 333.232H202.133L199.973 327.856ZM216.346 340V333.568H218.506L222.322 340H227.674L222.37 331.312L227.548 323.321V326.968H232.708V340H237.388V326.968H242.524V323.2H222.634L218.626 329.728H216.346V323.2H211.618V340H216.346ZM243.404 331.891C243.553 336.782 247.464 340.336 252.736 340.336C255.529 340.336 257.941 339.338 259.613 337.672C261.158 336.132 262.072 334.021 262.072 331.6C262.072 329.179 261.158 327.068 259.613 325.528C257.941 323.862 255.529 322.864 252.736 322.864C250.767 322.864 248.988 323.36 247.524 324.236C246.367 324.928 245.406 325.858 244.704 326.968C243.869 328.289 243.4 329.865 243.4 331.6C243.4 331.697 243.401 331.794 243.404 331.891ZM264.613 340H269.365V335.608H272.293C273.78 335.608 275.088 335.358 276.176 334.89C278.442 333.915 279.757 331.994 279.757 329.416C279.757 328.703 279.657 328.041 279.467 327.435C278.629 324.776 276.026 323.2 272.293 323.2H264.613V340ZM269.365 331.864H272.005C272.103 331.864 272.199 331.862 272.293 331.857C273.231 331.812 273.922 331.54 274.365 331.078C274.759 330.667 274.957 330.104 274.957 329.416C274.957 328.717 274.759 328.149 274.365 327.734C273.922 327.268 273.231 326.996 272.293 326.951C272.199 326.946 272.103 326.944 272.005 326.944H269.365V331.864ZM291.482 323.2H286.802L279.386 340H284.234L285.554 336.736H292.658L293.978 340H298.922L291.482 323.2ZM289.106 327.856L286.946 333.232H291.266L289.106 327.856ZM86.0684 331.432C86.0047 331.406 85.9633 331.401 85.9545 331.4C85.9456 331.401 85.9043 331.406 85.8406 331.432C85.7592 331.465 85.6716 331.522 85.5963 331.599C85.5959 331.599 85.5955 331.6 85.595 331.6C85.5955 331.6 85.5959 331.601 85.5963 331.601C85.6716 331.679 85.7592 331.735 85.8406 331.768C85.9043 331.794 85.9456 331.799 85.9545 331.8C85.9633 331.799 86.0047 331.794 86.0684 331.768C86.1498 331.735 86.2374 331.679 86.3126 331.601C86.3131 331.601 86.3135 331.6 86.3139 331.6C86.3135 331.6 86.3131 331.599 86.3126 331.599C86.2374 331.522 86.1498 331.465 86.0684 331.432ZM119.186 331.432C119.122 331.406 119.081 331.401 119.072 331.4C119.063 331.401 119.021 331.406 118.958 331.432C118.876 331.465 118.789 331.522 118.714 331.599C118.713 331.599 118.713 331.6 118.712 331.6C118.713 331.6 118.713 331.601 118.714 331.601C118.789 331.679 118.876 331.735 118.958 331.768C119.021 331.794 119.063 331.799 119.072 331.8M119.186 331.432C119.267 331.465 119.355 331.522 119.43 331.599ZM119.43 331.599C119.43 331.599 119.431 331.6 119.431 331.6ZM119.431 331.6C119.431 331.6 119.43 331.601 119.43 331.601ZM119.43 331.601C119.355 331.679 119.267 331.735 119.186 331.768ZM119.186 331.768C119.122 331.794 119.081 331.799 119.072 331.8ZM252.736 331.4C252.745 331.401 252.786 331.406 252.85 331.432ZM252.85 331.432C252.931 331.465 253.019 331.522 253.094 331.599ZM253.094 331.599C253.094 331.599 253.095 331.6 253.095 331.6ZM253.095 331.6C253.095 331.6 253.094 331.601 253.094 331.601ZM253.094 331.601C253.019 331.679 252.931 331.735 252.85 331.768ZM252.85 331.768C252.786 331.794 252.745 331.799 252.736 331.8ZM252.736 331.8C252.727 331.799 252.685 331.794 252.622 331.768C252.54 331.735 252.453 331.679 252.378 331.601C252.377 331.601 252.377 331.6 252.376 331.6C252.377 331.6 252.377 331.599 252.378 331.599C252.453 331.522 252.54 331.465 252.622 331.432C252.685 331.406 252.727 331.401 252.736 331.4M129.782 303.6C129.782 306.504 131.774 308.4 134.318 308.4C136.862 308.4 138.854 306.504 138.854 303.6C138.854 300.696 136.862 298.8 134.318 298.8C131.774 298.8 129.782 300.696 129.782 303.6ZM81.4185 331.6C81.4185 334.504 83.4105 336.4 85.9545 336.4C88.4985 336.4 90.4905 334.504 90.4905 331.6C90.4905 328.696 88.4985 326.8 85.9545 326.8C83.4105 326.8 81.4185 328.696 81.4185 331.6ZM114.536 331.6C114.536 334.504 116.528 336.4 119.072 336.4C121.616 336.4 123.608 334.504 123.608 331.6C123.608 328.696 121.616 326.8 119.072 326.8C116.528 326.8 114.536 328.696 114.536 331.6ZM248.2 331.6C248.2 334.504 250.192 336.4 252.736 336.4C255.28 336.4 257.272 334.504 257.272 331.6C257.272 328.696 255.28 326.8 252.736 326.8C250.192 326.8 248.2 328.696 248.2 331.6Z" fill="white"/>
<rect x="16" y="397" width="125" height="43" rx="13" fill="white"/>
<rect x="195" y="397" width="125" height="43" rx="13" fill="white"/>
<path d="M252 5C252 26.7477 243.361 47.6048 227.983 62.9828C212.605 78.3607 191.748 87 170 87C148.252 87 127.395 78.3607 112.017 62.9828C96.6393 47.6048 88 26.7478 88 5.00002L170 5H252Z" fill="white"/>
<path d="M48.032 423.216C48.032 414.96 35.328 417.52 35.328 414.096C35.328 412.976 36.288 412.08 38.944 412.08C40.896 412.08 43.008 412.656 45.152 413.808L47.104 409.104C45.312 408.048 42.976 407.408 40.608 407.216V403.76H36.768V407.28C31.584 407.92 29.056 410.896 29.056 414.416C29.056 422.736 41.792 420.144 41.792 423.696C41.792 424.784 40.768 425.52 38.144 425.52C35.552 425.52 32.736 424.624 30.752 423.312L28.672 427.984C30.528 429.264 33.568 430.192 36.768 430.416V433.84H40.608V430.288C45.6 429.552 48.032 426.608 48.032 423.216Z" fill="#00BCBC"/>
<path d="M60.14 412V414.6H62.94V426H66.18V412H60.14ZM75.152 417.7L78.312 414.1V412H68.512V414.6H74.472L71.592 417.86V420H73.072C74.912 420 75.692 420.66 75.692 421.72C75.692 422.86 74.692 423.52 73.072 423.52C71.612 423.52 70.132 423.06 69.072 422.26L67.812 424.74C69.172 425.7 71.192 426.24 73.152 426.24C77.132 426.24 78.952 424.08 78.952 421.72C78.952 419.66 77.672 418.1 75.152 417.7ZM92.112 426.24C95.572 426.24 98.112 423.62 98.112 419C98.112 414.38 95.572 411.76 92.112 411.76C88.672 411.76 86.112 414.38 86.112 419C86.112 423.62 88.672 426.24 92.112 426.24ZM92.112 423.5C90.512 423.5 89.392 422.18 89.392 419C89.392 415.82 90.512 414.5 92.112 414.5C93.732 414.5 94.852 415.82 94.852 419C94.852 422.18 93.732 423.5 92.112 423.5ZM105.686 426.24C109.146 426.24 111.686 423.62 111.686 419C111.686 414.38 109.146 411.76 105.686 411.76C102.246 411.76 99.6863 414.38 99.6863 419C99.6863 423.62 102.246 426.24 105.686 426.24ZM105.686 423.5C104.086 423.5 102.966 422.18 102.966 419C102.966 415.82 104.086 414.5 105.686 414.5C107.306 414.5 108.426 415.82 108.426 419C108.426 422.18 107.306 423.5 105.686 423.5ZM119.26 426.24C122.72 426.24 125.26 423.62 125.26 419C125.26 414.38 122.72 411.76 119.26 411.76C115.82 411.76 113.26 414.38 113.26 419C113.26 423.62 115.82 426.24 119.26 426.24ZM119.26 423.5C117.66 423.5 116.54 422.18 116.54 419C116.54 415.82 117.66 414.5 119.26 414.5C120.88 414.5 122 415.82 122 419C122 422.18 120.88 423.5 119.26 423.5Z" fill="black"/>
<path d="M248.6 420.42H246.32V417.8H243.26V420.42H239.5L245.62 412H242.22L235.62 420.88V423.06H243.16V426H246.32V423.06H248.6V420.42ZM254.33 417.26H253.19L253.41 414.6H259.25V412H250.71L249.99 419.88H253.57C256.11 419.88 256.83 420.6 256.83 421.7C256.83 422.84 255.83 423.52 254.21 423.52C252.75 423.52 251.29 423.06 250.23 422.26L248.95 424.74C250.31 425.7 252.35 426.24 254.29 426.24C258.29 426.24 260.11 424.08 260.11 421.6C260.11 419.12 258.47 417.26 254.33 417.26ZM281.129 426L281.089 415.24H278.169L274.509 421.46L271.069 415.24H267.809V426H270.629V419.54L273.769 424.96H275.089L278.309 419.56V426H281.129ZM284.117 426H286.997L292.217 419.6V426H295.317V415.24H292.457L287.217 421.64V415.24H284.117V426ZM298.316 426H301.416V421.98H306.096V426H309.216V415.24H306.096V419.44H301.416V415.24H298.316V426Z" fill="black"/>
<path d="M216.5 406C209.595 406 204 411.595 204 418.5C204 425.405 209.595 431 216.5 431C223.405 431 229 425.405 229 418.5C229 411.595 223.405 406 216.5 406Z" fill="#00BCBC"/>
<path fill-rule="evenodd" clip-rule="evenodd" d="M215.961 410C214.878 410 214 410.878 214 411.961V419.153C214 419.311 214.019 419.464 214.054 419.611C214.047 420.263 214.376 420.901 214.974 421.262L220.414 424.535C221.313 425.077 222.481 424.786 223.022 423.887C223.563 422.988 223.273 421.82 222.374 421.279L217.923 418.6V411.961C217.923 410.878 217.045 410 215.961 410Z" fill="white"/>
<g filter="url(#filter0_d)">
<path d="M162.531 400.393L185.975 433.213C179.766 434.57 168.698 428.331 168.698 428.331C168.698 428.331 160.834 438.706 154.912 440L162.531 400.393Z" fill="white"/>
<path fill-rule="evenodd" clip-rule="evenodd" d="M154.912 440L158.469 421.51C161.522 424.284 164.956 426.604 168.698 428.331C168.698 428.331 160.834 438.706 154.912 440Z" fill="#BBFFF9"/>
</g>
<path d="M145.392 25.4V34.274H152.932V66H164.416V25.4H145.392ZM171.798 25.4V34.274H179.338V66H190.822V25.4H171.798Z" fill="#46BBCE"/>
<g filter="url(#filter1_di)">
<path d="M235.882 118.044C235.796 114.48 231.451 112.806 228.93 115.327L136.566 207.699L148.075 219.208L190.873 194.071C197.982 190.514 204.431 185.863 210.037 180.257C230.703 159.592 236.198 131.238 235.882 118.044Z" fill="white"/>
<path d="M130.812 213.454L119.031 225.235C115.853 228.413 115.853 233.566 119.031 236.744C122.21 239.923 127.362 239.923 130.54 236.744L142.321 224.963L130.812 213.454Z" fill="white"/>
<path d="M113.276 250.637C117.771 250.637 121.415 246.993 121.415 242.499C121.415 238.004 117.771 234.36 113.276 234.36C108.782 234.36 105.138 238.004 105.138 242.499C105.138 246.993 108.782 250.637 113.276 250.637Z" fill="white"/>
<path d="M153.831 224.964L148.075 230.718C151.248 233.891 151.248 239.055 148.075 242.227C144.904 245.4 139.468 245.671 136.295 242.499C134.189 244.604 131.631 245.945 128.94 246.653L130.541 248.254C136.888 254.601 147.483 254.329 153.831 247.982C160.178 241.635 160.178 231.311 153.831 224.964Z" fill="white"/>
<path d="M213.864 225.235L202.083 213.454L190.573 224.963L202.354 236.744C205.533 239.923 210.685 239.923 213.864 236.744C217.042 233.566 217.042 228.413 213.864 225.235Z" fill="white"/>
<path d="M219.619 250.637C224.113 250.637 227.757 246.993 227.757 242.499C227.757 238.004 224.113 234.36 219.619 234.36C215.124 234.36 211.48 238.004 211.48 242.499C211.48 246.993 215.124 250.637 219.619 250.637Z" fill="white"/>
<path d="M196.599 242.499C193.427 245.671 187.991 245.4 184.819 242.227C181.646 239.055 181.646 233.891 184.819 230.718L179.063 224.964C172.716 231.311 172.716 241.635 179.064 247.983C185.411 254.33 196.006 254.601 202.354 248.254L203.955 246.653C201.263 245.945 198.705 244.604 196.599 242.499Z" fill="white"/>
<path d="M103.964 115.327C101.444 112.806 97.0982 114.48 97.0127 118.044C96.6964 131.238 102.192 159.592 122.858 180.258C127.89 185.289 133.685 189.42 139.943 192.814L160.694 172.061L103.964 115.327Z" fill="white"/>
<path d="M191.658 203.029L174.471 213.131L184.819 219.209L196.328 207.699L191.658 203.029Z" fill="white"/>
</g>
<defs>
<filter id="filter0_d" x="143" y="393" width="52.975" height="57.0001" filterUnits="userSpaceOnUse" color-interpolation-filters="sRGB">
<feFlood flood-opacity="0" result="BackgroundImageFix"/>
<feColorMatrix in="SourceAlpha" type="matrix" values="0 0 0 0 0 0 0 0 0 0 0 0 0 0 0 0 0 0 127 0"/>
<feOffset dx="3" dy="3"/>
<feGaussianBlur stdDeviation="3.5"/>
<feColorMatrix type="matrix" values="0 0 0 0 0.279 0 0 0 0 0.9 0 0 0 0 0.840225 0 0 0 1 0"/>
<feBlend mode="normal" in2="BackgroundImageFix" result="effect1_dropShadow"/>
<feBlend mode="normal" in="SourceGraphic" in2="effect1_dropShadow" result="shape"/>
</filter>
<filter id="filter1_di" x="91" y="108.119" width="158.894" height="158.762" filterUnits="userSpaceOnUse" color-interpolation-filters="sRGB">
<feFlood flood-opacity="0" result="BackgroundImageFix"/>
<feColorMatrix in="SourceAlpha" type="matrix" values="0 0 0 0 0 0 0 0 0 0 0 0 0 0 0 0 0 0 127 0"/>
<feOffset dx="4" dy="4"/>
<feGaussianBlur stdDeviation="5"/>
<feColorMatrix type="matrix" values="0 0 0 0 0.1715 0 0 0 0 0.816667 0 0 0 0 0.816667 0 0 0 1 0"/>
<feBlend mode="normal" in2="BackgroundImageFix" result="effect1_dropShadow"/>
<feBlend mode="normal" in="SourceGraphic" in2="effect1_dropShadow" result="shape"/>
<feColorMatrix in="SourceAlpha" type="matrix" values="0 0 0 0 0 0 0 0 0 0 0 0 0 0 0 0 0 0 127 0" result="hardAlpha"/>
<feOffset dx="-4" dy="-4"/>
<feGaussianBlur stdDeviation="4.5"/>
<feComposite in2="hardAlpha" operator="arithmetic" k2="-1" k3="1"/>
<feColorMatrix type="matrix" values="0 0 0 0 0.441945 0 0 0 0 0.887146 0 0 0 0 0.895833 0 0 0 0.52 0"/>
<feBlend mode="normal" in2="shape" result="effect2_innerShadow"/>
</filter>
<linearGradient id="paint0_linear" x1="5.5" y1="-157" x2="289.5" y2="495.5" gradientUnits="userSpaceOnUse">
<stop stop-color="#00C2FF"/>
<stop offset="1" stop-color="#1EE7CF"/>
</linearGradient>
<linearGradient id="paint1_linear" x1="49" y1="11" x2="301.5" y2="474" gradientUnits="userSpaceOnUse">
<stop stop-color="#19D2EB"/>
<stop offset="1" stop-color="#55F5DF"/>
</linearGradient>
<linearGradient id="paint2_linear" x1="59.5" y1="-9" x2="291.5" y2="495.5" gradientUnits="userSpaceOnUse">
<stop stop-color="#00E0FF"/>
<stop offset="1" stop-color="#42F2D1"/>
</linearGradient>
<linearGradient id="paint3_linear" x1="51" y1="11" x2="303.5" y2="474" gradientUnits="userSpaceOnUse">
<stop stop-color="#B2F6FF"/>
<stop offset="1" stop-color="#28D7BE"/>
</linearGradient>
<linearGradient id="paint4_linear" x1="27" y1="473.49" x2="247.084" y2="60.8524" gradientUnits="userSpaceOnUse">
<stop stop-color="#73F5FF"/>
<stop offset="0.99" stop-color="#7AFFEC"/>
</linearGradient>
<linearGradient id="paint5_linear" x1="129.774" y1="288" x2="310" y2="288" gradientUnits="userSpaceOnUse">
<stop stop-color="white"/>
<stop offset="0.99" stop-color="white" stop-opacity="0.4"/>
</linearGradient>
<linearGradient id="paint6_linear" x1="59.8997" y1="86" x2="140" y2="86" gradientUnits="userSpaceOnUse">
<stop stop-color="white"/>
<stop offset="0.99" stop-color="white" stop-opacity="0.4"/>
</linearGradient>
</defs>
</svg>
