<svg width="338" height="474" viewBox="0 0 338 474" fill="none" xmlns="http://www.w3.org/2000/svg">
<rect x="2.5" y="2.5" width="331" height="469" rx="32.5" fill="url(#paint0_linear)" stroke="url(#paint1_linear)" stroke-width="5"/>
<mask id="mask0" mask-type="alpha" maskUnits="userSpaceOnUse" x="2" y="0" width="336" height="474">
<rect x="4.5" y="2.5" width="331" height="469" rx="41.5" fill="url(#paint2_linear)" stroke="url(#paint3_linear)" stroke-width="5"/>
</mask>
<g mask="url(#mask0)">
<path d="M198.89 5.0093C198.89 5.0093 97.8208 47.0947 93.9888 101.845C90.1568 156.595 112.775 152.615 106.069 185.086C99.3631 217.557 -10.9124 255.616 18.7856 356.766C48.4837 457.916 142.368 370.584 242 469H35C18.4315 469 5 455.569 5 439V35.0014C5 18.4323 18.4323 5.00064 35.0014 5.00144L198.89 5.0093Z" fill="url(#paint4_linear)" fill-opacity="0.5"/>
</g>
<path opacity="0.46" d="M219.887 378C202.092 377.978 184.702 372.68 169.917 362.777C155.131 352.875 143.613 338.811 136.819 322.363C130.024 305.916 128.258 287.824 131.743 270.373C135.229 252.922 143.809 236.896 156.4 224.321C168.992 211.745 185.028 203.185 202.483 199.721C219.939 196.258 238.029 198.046 254.468 204.862C270.906 211.677 284.956 223.212 294.84 238.01C304.724 252.808 310 270.204 310 288C309.958 311.876 300.447 334.761 283.553 351.633C266.66 368.506 243.763 377.988 219.887 378ZM219.887 222.747C206.985 222.764 194.378 226.607 183.659 233.788C172.94 240.969 164.59 251.166 159.665 263.091C154.74 275.016 153.461 288.134 155.989 300.786C158.517 313.438 164.739 325.056 173.868 334.173C182.998 343.29 194.625 349.496 207.28 352.006C219.936 354.517 233.051 353.219 244.97 348.278C256.888 343.336 267.074 334.972 274.24 324.243C281.406 313.515 285.231 300.902 285.231 288C285.177 270.703 278.27 254.132 266.022 241.918C253.774 229.704 237.184 222.843 219.887 222.837V222.747Z" fill="url(#paint5_linear)"/>
<path opacity="0.46" d="M99.9498 126C92.0407 125.99 84.3121 123.636 77.7407 119.234C71.1694 114.833 66.0503 108.583 63.0305 101.273C60.0106 93.9627 59.2257 85.9216 60.7747 78.1657C62.3238 70.4097 66.1374 63.2871 71.7335 57.698C77.3296 52.1089 84.457 48.3043 92.2148 46.7649C99.9727 45.2256 108.013 46.0207 115.319 49.0496C122.625 52.0786 128.869 57.2055 133.262 63.7824C137.655 70.3593 140 78.0909 140 86C139.981 96.6116 135.754 106.783 128.246 114.281C120.738 121.78 110.561 125.995 99.9498 126ZM99.9498 56.9985C94.2156 57.0064 88.6124 58.7141 83.8484 61.9056C79.0844 65.0972 75.3735 69.6294 73.1846 74.9294C70.9957 80.2294 70.4271 86.0594 71.5506 91.6825C72.6742 97.3056 75.4395 102.469 79.497 106.521C83.5545 110.573 88.7222 113.331 94.3468 114.447C99.9715 115.563 105.801 114.986 111.098 112.79C116.395 110.594 120.922 106.877 124.107 102.108C127.292 97.3398 128.991 91.7342 128.991 86C128.968 78.3124 125.898 70.9477 120.454 65.5193C115.011 60.0908 107.637 57.0412 99.9498 57.0386V56.9985Z" fill="url(#paint6_linear)"/>
<mask id="path-6-outside-1" maskUnits="userSpaceOnUse" x="27" y="295" width="279" height="54" fill="black">
<rect fill="white" x="27" y="295" width="279" height="54"/>
<path d="M44.3816 300.319L40.5138 308.03L36.7833 300.319H32L38.2251 311.817C37.6301 312.683 36.9893 313.048 36.0967 313.048C35.6161 313.048 35.1126 312.957 34.4946 312.775L33.419 316.105C34.4031 316.493 35.3414 316.698 36.2569 316.698C38.66 316.698 40.7427 315.33 42.1616 312.661L48.7987 300.319H44.3816Z"/>
<path d="M57.8332 316.607C60.7855 316.607 63.1657 315.535 64.722 313.596L61.8383 310.995C60.8313 312.204 59.5954 312.866 58.062 312.866C55.4301 312.866 53.5992 311.041 53.5992 308.304C53.5992 305.566 55.4301 303.741 58.062 303.741C59.5954 303.741 60.8313 304.403 61.8383 305.612L64.722 303.011C63.1657 301.072 60.7855 300 57.8332 300C52.7524 300 49.0219 303.445 49.0219 308.304C49.0219 313.162 52.7524 316.607 57.8332 316.607Z"/>
<path d="M79.543 300.319H65.2618V303.901H70.1824V316.288H74.6453V303.901H79.543V300.319Z"/>
<path d="M93.1403 316.288H97.8549L90.7601 300.319H86.2972L79.2253 316.288H83.8484L85.1071 313.185H91.8816L93.1403 316.288ZM86.4346 309.855L88.4944 304.745L90.5541 309.855H86.4346Z"/>
<path d="M110.402 300.319V306.319H104.222V300.319H99.6909V316.288H104.222V310.06H110.402V316.288H114.933V300.319H110.402Z"/>
<path d="M126.249 316.607C131.375 316.607 135.151 313.094 135.151 308.304C135.151 303.513 131.375 300 126.249 300C121.122 300 117.346 303.513 117.346 308.304C117.346 313.094 121.122 316.607 126.249 316.607ZM126.249 312.866C123.823 312.866 121.923 311.064 121.923 308.304C121.923 305.543 123.823 303.741 126.249 303.741C128.675 303.741 130.574 305.543 130.574 308.304C130.574 311.064 128.675 312.866 126.249 312.866Z"/>
<path d="M149.246 307.939C150.62 307.254 151.421 306.045 151.421 304.471C151.421 301.825 149.178 300.319 145.356 300.319H137.574V316.288H145.791C149.91 316.288 152.153 314.531 152.153 311.725C152.153 309.809 151.1 308.532 149.246 307.939ZM142.037 303.559H144.921C146.203 303.559 146.843 304.106 146.843 305.133C146.843 306.182 146.203 306.707 144.921 306.707H142.037V303.559ZM145.608 313.048H142.037V309.763H145.608C146.912 309.763 147.576 310.288 147.576 311.383C147.576 312.478 146.912 313.048 145.608 313.048Z"/>
<path d="M164.721 316.288H169.825L164.767 308.03L169.779 300.319H165.019L161.196 306.524H159.022V300.319H154.514V316.288H159.022V310.174H161.082L164.721 316.288Z"/>
<path d="M183.211 316.288H187.926L180.831 300.319H176.368L169.296 316.288H173.919L175.178 313.185H181.953L183.211 316.288ZM176.506 309.855L178.565 304.745L180.625 309.855H176.506Z"/>
<path d="M196.422 300.319V316.288H200.885V303.901H206.973V316.288H211.459V300.319H196.422Z"/>
<path d="M227.196 316.288H231.911L224.816 300.319H220.353L213.281 316.288H217.905L219.163 313.185H225.938L227.196 316.288ZM220.491 309.855L222.55 304.745L224.61 309.855H220.491Z"/>
<path d="M241.071 300.319H233.747V316.288H238.279V312.113H241.071C245.442 312.113 248.188 309.855 248.188 306.228C248.188 302.578 245.442 300.319 241.071 300.319ZM240.796 308.554H238.279V303.878H240.796C242.673 303.878 243.611 304.745 243.611 306.228C243.611 307.688 242.673 308.554 240.796 308.554Z"/>
<path d="M258.338 316.607C263.464 316.607 267.241 313.094 267.241 308.304C267.241 303.513 263.464 300 258.338 300C253.211 300 249.435 303.513 249.435 308.304C249.435 313.094 253.211 316.607 258.338 316.607ZM258.338 312.866C255.912 312.866 254.012 311.064 254.012 308.304C254.012 305.543 255.912 303.741 258.338 303.741C260.764 303.741 262.663 305.543 262.663 308.304C262.663 311.064 260.764 312.866 258.338 312.866Z"/>
<path d="M271.254 300.319L271.025 306.684C270.887 310.288 270.544 312.661 268.69 312.661C268.484 312.661 268.278 312.638 268.072 312.592L267.821 316.288C268.576 316.47 269.262 316.561 269.88 316.561C273.954 316.561 274.801 312.729 275.007 306.501L275.098 303.901H279.699V316.288H284.162V300.319H271.254Z"/>
<path d="M293.791 300.319C289.397 300.319 286.627 302.623 286.627 306.387C286.627 308.874 287.817 310.676 289.923 311.611L286.673 316.288H291.433L294.065 312.273H296.537V316.288H301V300.319H293.791ZM293.882 303.878H296.537V308.783H293.837C292.12 308.783 291.205 307.916 291.205 306.319C291.205 304.699 292.12 303.878 293.882 303.878Z"/>
<path d="M98.8468 327.279V333.278H92.6674V327.279H88.1359V343.247H92.6674V337.02H98.8468V343.247H103.378V327.279H98.8468Z"/>
<path d="M119.134 343.247H123.848L116.753 327.279H112.29L105.219 343.247H109.842L111.1 340.145H117.875L119.134 343.247ZM112.428 336.814L114.488 331.704L116.547 336.814H112.428Z"/>
<path d="M145.252 327.279H130.971V330.86H135.892V343.247H140.355V330.86H145.252V327.279Z"/>
<path d="M151.827 339.757V336.837H158.945V333.461H151.827V330.769H159.906V327.279H147.341V343.247H160.204V339.757H151.827Z"/>
<path d="M164.822 327.279L164.593 333.643C164.456 337.248 164.113 339.62 162.259 339.62C162.053 339.62 161.847 339.597 161.641 339.552L161.389 343.247C162.144 343.43 162.831 343.521 163.449 343.521C167.523 343.521 168.37 339.689 168.576 333.461L168.667 330.86H173.267V343.247H177.73V327.279H164.822Z"/>
<path d="M185.643 339.757V336.837H192.761V333.461H185.643V330.769H193.722V327.279H181.157V343.247H194.019V339.757H185.643Z"/>
<path d="M216.307 335.217C216.307 331.043 213.4 328.534 207.976 328.169V326.526H203.834V328.169C198.41 328.579 195.503 331.043 195.503 335.217C195.503 339.369 198.41 341.856 203.834 342.243V344H207.976V342.243C213.423 341.924 216.307 339.369 216.307 335.217ZM207.976 338.73V331.704C210.631 332.001 211.913 333.096 211.913 335.195C211.913 337.293 210.7 338.434 207.976 338.73ZM199.897 335.217C199.897 333.096 201.087 332.024 203.834 331.704V338.708C201.248 338.388 199.897 337.316 199.897 335.217Z"/>
<path d="M226.534 343.567C231.66 343.567 235.436 340.054 235.436 335.263C235.436 330.473 231.66 326.96 226.534 326.96C221.407 326.96 217.631 330.473 217.631 335.263C217.631 340.054 221.407 343.567 226.534 343.567ZM226.534 339.825C224.108 339.825 222.208 338.023 222.208 335.263C222.208 332.503 224.108 330.701 226.534 330.701C228.96 330.701 230.859 332.503 230.859 335.263C230.859 338.023 228.96 339.825 226.534 339.825Z"/>
<path d="M248.57 327.279V333.278H242.391V327.279H237.859V343.247H242.391V337.02H248.57V343.247H253.102V327.279H248.57Z"/>
</mask>
<path d="M44.3816 300.319L40.5138 308.03L36.7833 300.319H32L38.2251 311.817C37.6301 312.683 36.9893 313.048 36.0967 313.048C35.6161 313.048 35.1126 312.957 34.4946 312.775L33.419 316.105C34.4031 316.493 35.3414 316.698 36.2569 316.698C38.66 316.698 40.7427 315.33 42.1616 312.661L48.7987 300.319H44.3816Z" fill="black"/>
<path d="M57.8332 316.607C60.7855 316.607 63.1657 315.535 64.722 313.596L61.8383 310.995C60.8313 312.204 59.5954 312.866 58.062 312.866C55.4301 312.866 53.5992 311.041 53.5992 308.304C53.5992 305.566 55.4301 303.741 58.062 303.741C59.5954 303.741 60.8313 304.403 61.8383 305.612L64.722 303.011C63.1657 301.072 60.7855 300 57.8332 300C52.7524 300 49.0219 303.445 49.0219 308.304C49.0219 313.162 52.7524 316.607 57.8332 316.607Z" fill="black"/>
<path d="M79.543 300.319H65.2618V303.901H70.1824V316.288H74.6453V303.901H79.543V300.319Z" fill="black"/>
<path d="M93.1403 316.288H97.8549L90.7601 300.319H86.2972L79.2253 316.288H83.8484L85.1071 313.185H91.8816L93.1403 316.288ZM86.4346 309.855L88.4944 304.745L90.5541 309.855H86.4346Z" fill="black"/>
<path d="M110.402 300.319V306.319H104.222V300.319H99.6909V316.288H104.222V310.06H110.402V316.288H114.933V300.319H110.402Z" fill="black"/>
<path d="M126.249 316.607C131.375 316.607 135.151 313.094 135.151 308.304C135.151 303.513 131.375 300 126.249 300C121.122 300 117.346 303.513 117.346 308.304C117.346 313.094 121.122 316.607 126.249 316.607ZM126.249 312.866C123.823 312.866 121.923 311.064 121.923 308.304C121.923 305.543 123.823 303.741 126.249 303.741C128.675 303.741 130.574 305.543 130.574 308.304C130.574 311.064 128.675 312.866 126.249 312.866Z" fill="black"/>
<path d="M149.246 307.939C150.62 307.254 151.421 306.045 151.421 304.471C151.421 301.825 149.178 300.319 145.356 300.319H137.574V316.288H145.791C149.91 316.288 152.153 314.531 152.153 311.725C152.153 309.809 151.1 308.532 149.246 307.939ZM142.037 303.559H144.921C146.203 303.559 146.843 304.106 146.843 305.133C146.843 306.182 146.203 306.707 144.921 306.707H142.037V303.559ZM145.608 313.048H142.037V309.763H145.608C146.912 309.763 147.576 310.288 147.576 311.383C147.576 312.478 146.912 313.048 145.608 313.048Z" fill="black"/>
<path d="M164.721 316.288H169.825L164.767 308.03L169.779 300.319H165.019L161.196 306.524H159.022V300.319H154.514V316.288H159.022V310.174H161.082L164.721 316.288Z" fill="black"/>
<path d="M183.211 316.288H187.926L180.831 300.319H176.368L169.296 316.288H173.919L175.178 313.185H181.953L183.211 316.288ZM176.506 309.855L178.565 304.745L180.625 309.855H176.506Z" fill="black"/>
<path d="M196.422 300.319V316.288H200.885V303.901H206.973V316.288H211.459V300.319H196.422Z" fill="black"/>
<path d="M227.196 316.288H231.911L224.816 300.319H220.353L213.281 316.288H217.905L219.163 313.185H225.938L227.196 316.288ZM220.491 309.855L222.55 304.745L224.61 309.855H220.491Z" fill="black"/>
<path d="M241.071 300.319H233.747V316.288H238.279V312.113H241.071C245.442 312.113 248.188 309.855 248.188 306.228C248.188 302.578 245.442 300.319 241.071 300.319ZM240.796 308.554H238.279V303.878H240.796C242.673 303.878 243.611 304.745 243.611 306.228C243.611 307.688 242.673 308.554 240.796 308.554Z" fill="black"/>
<path d="M258.338 316.607C263.464 316.607 267.241 313.094 267.241 308.304C267.241 303.513 263.464 300 258.338 300C253.211 300 249.435 303.513 249.435 308.304C249.435 313.094 253.211 316.607 258.338 316.607ZM258.338 312.866C255.912 312.866 254.012 311.064 254.012 308.304C254.012 305.543 255.912 303.741 258.338 303.741C260.764 303.741 262.663 305.543 262.663 308.304C262.663 311.064 260.764 312.866 258.338 312.866Z" fill="black"/>
<path d="M271.254 300.319L271.025 306.684C270.887 310.288 270.544 312.661 268.69 312.661C268.484 312.661 268.278 312.638 268.072 312.592L267.821 316.288C268.576 316.47 269.262 316.561 269.88 316.561C273.954 316.561 274.801 312.729 275.007 306.501L275.098 303.901H279.699V316.288H284.162V300.319H271.254Z" fill="black"/>
<path d="M293.791 300.319C289.397 300.319 286.627 302.623 286.627 306.387C286.627 308.874 287.817 310.676 289.923 311.611L286.673 316.288H291.433L294.065 312.273H296.537V316.288H301V300.319H293.791ZM293.882 303.878H296.537V308.783H293.837C292.12 308.783 291.205 307.916 291.205 306.319C291.205 304.699 292.12 303.878 293.882 303.878Z" fill="black"/>
<path d="M98.8468 327.279V333.278H92.6674V327.279H88.1359V343.247H92.6674V337.02H98.8468V343.247H103.378V327.279H98.8468Z" fill="black"/>
<path d="M119.134 343.247H123.848L116.753 327.279H112.29L105.219 343.247H109.842L111.1 340.145H117.875L119.134 343.247ZM112.428 336.814L114.488 331.704L116.547 336.814H112.428Z" fill="black"/>
<path d="M145.252 327.279H130.971V330.86H135.892V343.247H140.355V330.86H145.252V327.279Z" fill="black"/>
<path d="M151.827 339.757V336.837H158.945V333.461H151.827V330.769H159.906V327.279H147.341V343.247H160.204V339.757H151.827Z" fill="black"/>
<path d="M164.822 327.279L164.593 333.643C164.456 337.248 164.113 339.62 162.259 339.62C162.053 339.62 161.847 339.597 161.641 339.552L161.389 343.247C162.144 343.43 162.831 343.521 163.449 343.521C167.523 343.521 168.37 339.689 168.576 333.461L168.667 330.86H173.267V343.247H177.73V327.279H164.822Z" fill="black"/>
<path d="M185.643 339.757V336.837H192.761V333.461H185.643V330.769H193.722V327.279H181.157V343.247H194.019V339.757H185.643Z" fill="black"/>
<path d="M216.307 335.217C216.307 331.043 213.4 328.534 207.976 328.169V326.526H203.834V328.169C198.41 328.579 195.503 331.043 195.503 335.217C195.503 339.369 198.41 341.856 203.834 342.243V344H207.976V342.243C213.423 341.924 216.307 339.369 216.307 335.217ZM207.976 338.73V331.704C210.631 332.001 211.913 333.096 211.913 335.195C211.913 337.293 210.7 338.434 207.976 338.73ZM199.897 335.217C199.897 333.096 201.087 332.024 203.834 331.704V338.708C201.248 338.388 199.897 337.316 199.897 335.217Z" fill="black"/>
<path d="M226.534 343.567C231.66 343.567 235.436 340.054 235.436 335.263C235.436 330.473 231.66 326.96 226.534 326.96C221.407 326.96 217.631 330.473 217.631 335.263C217.631 340.054 221.407 343.567 226.534 343.567ZM226.534 339.825C224.108 339.825 222.208 338.023 222.208 335.263C222.208 332.503 224.108 330.701 226.534 330.701C228.96 330.701 230.859 332.503 230.859 335.263C230.859 338.023 228.96 339.825 226.534 339.825Z" fill="black"/>
<path d="M248.57 327.279V333.278H242.391V327.279H237.859V343.247H242.391V337.02H248.57V343.247H253.102V327.279H248.57Z" fill="black"/>
<path d="M44.3816 300.319L40.5138 308.03L36.7833 300.319H32L38.2251 311.817C37.6301 312.683 36.9893 313.048 36.0967 313.048C35.6161 313.048 35.1126 312.957 34.4946 312.775L33.419 316.105C34.4031 316.493 35.3414 316.698 36.2569 316.698C38.66 316.698 40.7427 315.33 42.1616 312.661L48.7987 300.319H44.3816Z" stroke="white" stroke-width="10" stroke-linecap="round" stroke-linejoin="round" mask="url(#path-6-outside-1)"/>
<path d="M57.8332 316.607C60.7855 316.607 63.1657 315.535 64.722 313.596L61.8383 310.995C60.8313 312.204 59.5954 312.866 58.062 312.866C55.4301 312.866 53.5992 311.041 53.5992 308.304C53.5992 305.566 55.4301 303.741 58.062 303.741C59.5954 303.741 60.8313 304.403 61.8383 305.612L64.722 303.011C63.1657 301.072 60.7855 300 57.8332 300C52.7524 300 49.0219 303.445 49.0219 308.304C49.0219 313.162 52.7524 316.607 57.8332 316.607Z" stroke="white" stroke-width="10" stroke-linecap="round" stroke-linejoin="round" mask="url(#path-6-outside-1)"/>
<path d="M79.543 300.319H65.2618V303.901H70.1824V316.288H74.6453V303.901H79.543V300.319Z" stroke="white" stroke-width="10" stroke-linecap="round" stroke-linejoin="round" mask="url(#path-6-outside-1)"/>
<path d="M93.1403 316.288H97.8549L90.7601 300.319H86.2972L79.2253 316.288H83.8484L85.1071 313.185H91.8816L93.1403 316.288ZM86.4346 309.855L88.4944 304.745L90.5541 309.855H86.4346Z" stroke="white" stroke-width="10" stroke-linecap="round" stroke-linejoin="round" mask="url(#path-6-outside-1)"/>
<path d="M110.402 300.319V306.319H104.222V300.319H99.6909V316.288H104.222V310.06H110.402V316.288H114.933V300.319H110.402Z" stroke="white" stroke-width="10" stroke-linecap="round" stroke-linejoin="round" mask="url(#path-6-outside-1)"/>
<path d="M126.249 316.607C131.375 316.607 135.151 313.094 135.151 308.304C135.151 303.513 131.375 300 126.249 300C121.122 300 117.346 303.513 117.346 308.304C117.346 313.094 121.122 316.607 126.249 316.607ZM126.249 312.866C123.823 312.866 121.923 311.064 121.923 308.304C121.923 305.543 123.823 303.741 126.249 303.741C128.675 303.741 130.574 305.543 130.574 308.304C130.574 311.064 128.675 312.866 126.249 312.866Z" stroke="white" stroke-width="10" stroke-linecap="round" stroke-linejoin="round" mask="url(#path-6-outside-1)"/>
<path d="M149.246 307.939C150.62 307.254 151.421 306.045 151.421 304.471C151.421 301.825 149.178 300.319 145.356 300.319H137.574V316.288H145.791C149.91 316.288 152.153 314.531 152.153 311.725C152.153 309.809 151.1 308.532 149.246 307.939ZM142.037 303.559H144.921C146.203 303.559 146.843 304.106 146.843 305.133C146.843 306.182 146.203 306.707 144.921 306.707H142.037V303.559ZM145.608 313.048H142.037V309.763H145.608C146.912 309.763 147.576 310.288 147.576 311.383C147.576 312.478 146.912 313.048 145.608 313.048Z" stroke="white" stroke-width="10" stroke-linecap="round" stroke-linejoin="round" mask="url(#path-6-outside-1)"/>
<path d="M164.721 316.288H169.825L164.767 308.03L169.779 300.319H165.019L161.196 306.524H159.022V300.319H154.514V316.288H159.022V310.174H161.082L164.721 316.288Z" stroke="white" stroke-width="10" stroke-linecap="round" stroke-linejoin="round" mask="url(#path-6-outside-1)"/>
<path d="M183.211 316.288H187.926L180.831 300.319H176.368L169.296 316.288H173.919L175.178 313.185H181.953L183.211 316.288ZM176.506 309.855L178.565 304.745L180.625 309.855H176.506Z" stroke="white" stroke-width="10" stroke-linecap="round" stroke-linejoin="round" mask="url(#path-6-outside-1)"/>
<path d="M196.422 300.319V316.288H200.885V303.901H206.973V316.288H211.459V300.319H196.422Z" stroke="white" stroke-width="10" stroke-linecap="round" stroke-linejoin="round" mask="url(#path-6-outside-1)"/>
<path d="M227.196 316.288H231.911L224.816 300.319H220.353L213.281 316.288H217.905L219.163 313.185H225.938L227.196 316.288ZM220.491 309.855L222.55 304.745L224.61 309.855H220.491Z" stroke="white" stroke-width="10" stroke-linecap="round" stroke-linejoin="round" mask="url(#path-6-outside-1)"/>
<path d="M241.071 300.319H233.747V316.288H238.279V312.113H241.071C245.442 312.113 248.188 309.855 248.188 306.228C248.188 302.578 245.442 300.319 241.071 300.319ZM240.796 308.554H238.279V303.878H240.796C242.673 303.878 243.611 304.745 243.611 306.228C243.611 307.688 242.673 308.554 240.796 308.554Z" stroke="white" stroke-width="10" stroke-linecap="round" stroke-linejoin="round" mask="url(#path-6-outside-1)"/>
<path d="M258.338 316.607C263.464 316.607 267.241 313.094 267.241 308.304C267.241 303.513 263.464 300 258.338 300C253.211 300 249.435 303.513 249.435 308.304C249.435 313.094 253.211 316.607 258.338 316.607ZM258.338 312.866C255.912 312.866 254.012 311.064 254.012 308.304C254.012 305.543 255.912 303.741 258.338 303.741C260.764 303.741 262.663 305.543 262.663 308.304C262.663 311.064 260.764 312.866 258.338 312.866Z" stroke="white" stroke-width="10" stroke-linecap="round" stroke-linejoin="round" mask="url(#path-6-outside-1)"/>
<path d="M271.254 300.319L271.025 306.684C270.887 310.288 270.544 312.661 268.69 312.661C268.484 312.661 268.278 312.638 268.072 312.592L267.821 316.288C268.576 316.47 269.262 316.561 269.88 316.561C273.954 316.561 274.801 312.729 275.007 306.501L275.098 303.901H279.699V316.288H284.162V300.319H271.254Z" stroke="white" stroke-width="10" stroke-linecap="round" stroke-linejoin="round" mask="url(#path-6-outside-1)"/>
<path d="M293.791 300.319C289.397 300.319 286.627 302.623 286.627 306.387C286.627 308.874 287.817 310.676 289.923 311.611L286.673 316.288H291.433L294.065 312.273H296.537V316.288H301V300.319H293.791ZM293.882 303.878H296.537V308.783H293.837C292.12 308.783 291.205 307.916 291.205 306.319C291.205 304.699 292.12 303.878 293.882 303.878Z" stroke="white" stroke-width="10" stroke-linecap="round" stroke-linejoin="round" mask="url(#path-6-outside-1)"/>
<path d="M98.8468 327.279V333.278H92.6674V327.279H88.1359V343.247H92.6674V337.02H98.8468V343.247H103.378V327.279H98.8468Z" stroke="white" stroke-width="10" stroke-linecap="round" stroke-linejoin="round" mask="url(#path-6-outside-1)"/>
<path d="M119.134 343.247H123.848L116.753 327.279H112.29L105.219 343.247H109.842L111.1 340.145H117.875L119.134 343.247ZM112.428 336.814L114.488 331.704L116.547 336.814H112.428Z" stroke="white" stroke-width="10" stroke-linecap="round" stroke-linejoin="round" mask="url(#path-6-outside-1)"/>
<path d="M145.252 327.279H130.971V330.86H135.892V343.247H140.355V330.86H145.252V327.279Z" stroke="white" stroke-width="10" stroke-linecap="round" stroke-linejoin="round" mask="url(#path-6-outside-1)"/>
<path d="M151.827 339.757V336.837H158.945V333.461H151.827V330.769H159.906V327.279H147.341V343.247H160.204V339.757H151.827Z" stroke="white" stroke-width="10" stroke-linecap="round" stroke-linejoin="round" mask="url(#path-6-outside-1)"/>
<path d="M164.822 327.279L164.593 333.643C164.456 337.248 164.113 339.62 162.259 339.62C162.053 339.62 161.847 339.597 161.641 339.552L161.389 343.247C162.144 343.43 162.831 343.521 163.449 343.521C167.523 343.521 168.37 339.689 168.576 333.461L168.667 330.86H173.267V343.247H177.73V327.279H164.822Z" stroke="white" stroke-width="10" stroke-linecap="round" stroke-linejoin="round" mask="url(#path-6-outside-1)"/>
<path d="M185.643 339.757V336.837H192.761V333.461H185.643V330.769H193.722V327.279H181.157V343.247H194.019V339.757H185.643Z" stroke="white" stroke-width="10" stroke-linecap="round" stroke-linejoin="round" mask="url(#path-6-outside-1)"/>
<path d="M216.307 335.217C216.307 331.043 213.4 328.534 207.976 328.169V326.526H203.834V328.169C198.41 328.579 195.503 331.043 195.503 335.217C195.503 339.369 198.41 341.856 203.834 342.243V344H207.976V342.243C213.423 341.924 216.307 339.369 216.307 335.217ZM207.976 338.73V331.704C210.631 332.001 211.913 333.096 211.913 335.195C211.913 337.293 210.7 338.434 207.976 338.73ZM199.897 335.217C199.897 333.096 201.087 332.024 203.834 331.704V338.708C201.248 338.388 199.897 337.316 199.897 335.217Z" stroke="white" stroke-width="10" stroke-linecap="round" stroke-linejoin="round" mask="url(#path-6-outside-1)"/>
<path d="M226.534 343.567C231.66 343.567 235.436 340.054 235.436 335.263C235.436 330.473 231.66 326.96 226.534 326.96C221.407 326.96 217.631 330.473 217.631 335.263C217.631 340.054 221.407 343.567 226.534 343.567ZM226.534 339.825C224.108 339.825 222.208 338.023 222.208 335.263C222.208 332.503 224.108 330.701 226.534 330.701C228.96 330.701 230.859 332.503 230.859 335.263C230.859 338.023 228.96 339.825 226.534 339.825Z" stroke="white" stroke-width="10" stroke-linecap="round" stroke-linejoin="round" mask="url(#path-6-outside-1)"/>
<path d="M248.57 327.279V333.278H242.391V327.279H237.859V343.247H242.391V337.02H248.57V343.247H253.102V327.279H248.57Z" stroke="white" stroke-width="10" stroke-linecap="round" stroke-linejoin="round" mask="url(#path-6-outside-1)"/>
<rect x="16" y="397" width="125" height="43" rx="13" fill="white"/>
<rect x="195" y="397" width="125" height="43" rx="13" fill="white"/>
<path d="M252 5C252 26.7477 243.361 47.6048 227.983 62.9828C212.605 78.3607 191.748 87 170 87C148.252 87 127.395 78.3607 112.017 62.9828C96.6393 47.6048 88 26.7478 88 5.00002L170 5H252Z" fill="white"/>
<path d="M48.032 423.216C48.032 414.96 35.328 417.52 35.328 414.096C35.328 412.976 36.288 412.08 38.944 412.08C40.896 412.08 43.008 412.656 45.152 413.808L47.104 409.104C45.312 408.048 42.976 407.408 40.608 407.216V403.76H36.768V407.28C31.584 407.92 29.056 410.896 29.056 414.416C29.056 422.736 41.792 420.144 41.792 423.696C41.792 424.784 40.768 425.52 38.144 425.52C35.552 425.52 32.736 424.624 30.752 423.312L28.672 427.984C30.528 429.264 33.568 430.192 36.768 430.416V433.84H40.608V430.288C45.6 429.552 48.032 426.608 48.032 423.216Z" fill="#00BCBC"/>
<path d="M71.78 426.24C75.24 426.24 77.78 423.62 77.78 419C77.78 414.38 75.24 411.76 71.78 411.76C68.34 411.76 65.78 414.38 65.78 419C65.78 423.62 68.34 426.24 71.78 426.24ZM71.78 423.5C70.18 423.5 69.06 422.18 69.06 419C69.06 415.82 70.18 414.5 71.78 414.5C73.4 414.5 74.52 415.82 74.52 419C74.52 422.18 73.4 423.5 71.78 423.5ZM80.9603 422.28C79.8603 422.28 79.0203 423.04 79.0203 424.2C79.0203 425.02 79.4403 425.64 80.1003 425.9L79.2203 429.08H81.2003L82.3403 426.2C82.8003 425.1 82.8803 424.72 82.8803 424.2C82.8803 423.06 82.0803 422.28 80.9603 422.28ZM90.0808 426.24C93.5408 426.24 96.0808 423.62 96.0808 419C96.0808 414.38 93.5408 411.76 90.0808 411.76C86.6408 411.76 84.0808 414.38 84.0808 419C84.0808 423.62 86.6408 426.24 90.0808 426.24ZM90.0808 423.5C88.4808 423.5 87.3608 422.18 87.3608 419C87.3608 415.82 88.4808 414.5 90.0808 414.5C91.7008 414.5 92.8208 415.82 92.8208 419C92.8208 422.18 91.7008 423.5 90.0808 423.5ZM103.655 426.24C107.115 426.24 109.655 423.62 109.655 419C109.655 414.38 107.115 411.76 103.655 411.76C100.215 411.76 97.655 414.38 97.655 419C97.655 423.62 100.215 426.24 103.655 426.24ZM103.655 423.5C102.055 423.5 100.935 422.18 100.935 419C100.935 415.82 102.055 414.5 103.655 414.5C105.275 414.5 106.395 415.82 106.395 419C106.395 422.18 105.275 423.5 103.655 423.5Z" fill="black"/>
<path d="M235.14 412V414.6H237.94V426H241.18V412H235.14ZM249.612 426.24C253.072 426.24 255.612 423.62 255.612 419C255.612 414.38 253.072 411.76 249.612 411.76C246.172 411.76 243.612 414.38 243.612 419C243.612 423.62 246.172 426.24 249.612 426.24ZM249.612 423.5C248.012 423.5 246.892 422.18 246.892 419C246.892 415.82 248.012 414.5 249.612 414.5C251.232 414.5 252.352 415.82 252.352 419C252.352 422.18 251.232 423.5 249.612 423.5ZM276.89 426L276.85 415.24H273.93L270.27 421.46L266.83 415.24H263.57V426H266.39V419.54L269.53 424.96H270.85L274.07 419.56V426H276.89ZM279.879 426H282.759L287.979 419.6V426H291.079V415.24H288.219L282.979 421.64V415.24H279.879V426ZM294.078 426H297.178V421.98H301.858V426H304.978V415.24H301.858V419.44H297.178V415.24H294.078V426Z" fill="black"/>
<path d="M216.5 406C209.595 406 204 411.595 204 418.5C204 425.405 209.595 431 216.5 431C223.405 431 229 425.405 229 418.5C229 411.595 223.405 406 216.5 406Z" fill="#00BCBC"/>
<path fill-rule="evenodd" clip-rule="evenodd" d="M215.961 410C214.878 410 214 410.878 214 411.961V419.153C214 419.311 214.019 419.464 214.054 419.611C214.047 420.263 214.376 420.901 214.974 421.262L220.414 424.535C221.313 425.077 222.481 424.786 223.022 423.887C223.563 422.988 223.273 421.82 222.374 421.279L217.923 418.6V411.961C217.923 410.878 217.045 410 215.961 410Z" fill="white"/>
<g filter="url(#filter0_d)">
<path d="M162.531 400.393L185.975 433.213C179.766 434.57 168.698 428.331 168.698 428.331C168.698 428.331 160.834 438.706 154.912 440L162.531 400.393Z" fill="white"/>
<path fill-rule="evenodd" clip-rule="evenodd" d="M154.912 440L158.469 421.51C161.522 424.284 164.956 426.604 168.698 428.331C168.698 428.331 160.834 438.706 154.912 440Z" fill="#BBFFF9"/>
</g>
<path d="M139.671 25.4V34.274H147.211V66H158.695V25.4H139.671ZM188.523 41.64L196.933 32.592V25.4H167.585V34.274H183.593L176.343 42.104V49.354H181.157C185.565 49.354 187.363 50.862 187.363 53.298C187.363 56.024 184.811 57.532 180.925 57.532C177.097 57.532 172.921 56.372 169.673 54.168L165.497 62.81C169.673 65.42 175.647 66.812 181.273 66.812C193.511 66.812 198.963 60.2 198.963 53.298C198.963 47.498 195.367 43.09 188.523 41.64Z" fill="#46BBCE"/>
<g filter="url(#filter1_di)">
<path d="M229.547 161.399L193.704 125.462C189.1 120.845 181.638 120.847 177.035 125.462L150.634 151.932C146.029 156.549 146.027 164.031 150.632 168.647L161.623 179.667L104.446 236.994C102.517 238.928 102.519 242.061 104.446 243.993L111.326 250.891C113.252 252.822 116.376 252.822 118.304 250.889L123.662 245.517L137.056 258.946C138.457 260.351 140.729 260.351 142.131 258.946L157.291 243.746C158.693 242.341 158.693 240.063 157.291 238.658L143.897 225.229L175.481 193.562L186.475 204.584C191.079 209.201 198.541 209.199 203.146 204.582L229.547 178.112C234.15 173.497 234.152 166.015 229.547 161.399V161.399ZM185.395 169.775C181.888 166.258 181.888 160.555 185.395 157.038C188.903 153.522 194.591 153.522 198.098 157.038C201.606 160.555 201.606 166.258 198.098 169.775C194.591 173.291 188.903 173.291 185.395 169.775Z" fill="white"/>
</g>
<defs>
<filter id="filter0_d" x="143" y="393" width="52.975" height="57.0001" filterUnits="userSpaceOnUse" color-interpolation-filters="sRGB">
<feFlood flood-opacity="0" result="BackgroundImageFix"/>
<feColorMatrix in="SourceAlpha" type="matrix" values="0 0 0 0 0 0 0 0 0 0 0 0 0 0 0 0 0 0 127 0"/>
<feOffset dx="3" dy="3"/>
<feGaussianBlur stdDeviation="3.5"/>
<feColorMatrix type="matrix" values="0 0 0 0 0.279 0 0 0 0 0.9 0 0 0 0 0.840225 0 0 0 1 0"/>
<feBlend mode="normal" in2="BackgroundImageFix" result="effect1_dropShadow"/>
<feBlend mode="normal" in="SourceGraphic" in2="effect1_dropShadow" result="shape"/>
</filter>
<filter id="filter1_di" x="97" y="116" width="150" height="158" filterUnits="userSpaceOnUse" color-interpolation-filters="sRGB">
<feFlood flood-opacity="0" result="BackgroundImageFix"/>
<feColorMatrix in="SourceAlpha" type="matrix" values="0 0 0 0 0 0 0 0 0 0 0 0 0 0 0 0 0 0 127 0"/>
<feOffset dx="4" dy="4"/>
<feGaussianBlur stdDeviation="5"/>
<feColorMatrix type="matrix" values="0 0 0 0 0.1715 0 0 0 0 0.816667 0 0 0 0 0.816667 0 0 0 1 0"/>
<feBlend mode="normal" in2="BackgroundImageFix" result="effect1_dropShadow"/>
<feBlend mode="normal" in="SourceGraphic" in2="effect1_dropShadow" result="shape"/>
<feColorMatrix in="SourceAlpha" type="matrix" values="0 0 0 0 0 0 0 0 0 0 0 0 0 0 0 0 0 0 127 0" result="hardAlpha"/>
<feOffset dx="-4" dy="-4"/>
<feGaussianBlur stdDeviation="4.5"/>
<feComposite in2="hardAlpha" operator="arithmetic" k2="-1" k3="1"/>
<feColorMatrix type="matrix" values="0 0 0 0 0.441945 0 0 0 0 0.887146 0 0 0 0 0.895833 0 0 0 0.52 0"/>
<feBlend mode="normal" in2="shape" result="effect2_innerShadow"/>
</filter>
<linearGradient id="paint0_linear" x1="5.5" y1="-157" x2="289.5" y2="495.5" gradientUnits="userSpaceOnUse">
<stop stop-color="#00C2FF"/>
<stop offset="1" stop-color="#1EE7CF"/>
</linearGradient>
<linearGradient id="paint1_linear" x1="49" y1="11" x2="301.5" y2="474" gradientUnits="userSpaceOnUse">
<stop stop-color="#19D2EB"/>
<stop offset="1" stop-color="#55F5DF"/>
</linearGradient>
<linearGradient id="paint2_linear" x1="59.5" y1="-9" x2="291.5" y2="495.5" gradientUnits="userSpaceOnUse">
<stop stop-color="#00E0FF"/>
<stop offset="1" stop-color="#42F2D1"/>
</linearGradient>
<linearGradient id="paint3_linear" x1="51" y1="11" x2="303.5" y2="474" gradientUnits="userSpaceOnUse">
<stop stop-color="#B2F6FF"/>
<stop offset="1" stop-color="#28D7BE"/>
</linearGradient>
<linearGradient id="paint4_linear" x1="27" y1="473.49" x2="247.084" y2="60.8524" gradientUnits="userSpaceOnUse">
<stop stop-color="#73F5FF"/>
<stop offset="0.99" stop-color="#7AFFEC"/>
</linearGradient>
<linearGradient id="paint5_linear" x1="129.774" y1="288" x2="310" y2="288" gradientUnits="userSpaceOnUse">
<stop stop-color="white"/>
<stop offset="0.99" stop-color="white" stop-opacity="0.4"/>
</linearGradient>
<linearGradient id="paint6_linear" x1="59.8997" y1="86" x2="140" y2="86" gradientUnits="userSpaceOnUse">
<stop stop-color="white"/>
<stop offset="0.99" stop-color="white" stop-opacity="0.4"/>
</linearGradient>
</defs>
</svg>
