<svg width="338" height="474" viewBox="0 0 338 474" fill="none" xmlns="http://www.w3.org/2000/svg">
<rect x="2.5" y="2.5" width="331" height="469" rx="32.5" fill="url(#paint0_linear)" stroke="url(#paint1_linear)" stroke-width="5"/>
<mask id="mask0" mask-type="alpha" maskUnits="userSpaceOnUse" x="2" y="0" width="336" height="474">
<rect x="4.5" y="2.5" width="331" height="469" rx="41.5" fill="url(#paint2_linear)" stroke="url(#paint3_linear)" stroke-width="5"/>
</mask>
<g mask="url(#mask0)">
<path d="M198.89 5.0093C198.89 5.0093 97.8208 47.0947 93.9888 101.845C90.1568 156.595 112.775 152.615 106.069 185.086C99.3631 217.557 -10.9124 255.616 18.7856 356.766C48.4837 457.916 142.368 370.584 242 469H35C18.4315 469 5 455.569 5 439V35.0014C5 18.4323 18.4323 5.00064 35.0014 5.00144L198.89 5.0093Z" fill="url(#paint4_linear)" fill-opacity="0.5"/>
</g>
<path opacity="0.46" d="M219.887 378C202.092 377.978 184.702 372.68 169.917 362.777C155.131 352.875 143.613 338.811 136.819 322.363C130.024 305.916 128.258 287.824 131.743 270.373C135.229 252.922 143.809 236.896 156.4 224.321C168.992 211.745 185.028 203.185 202.483 199.721C219.939 196.258 238.029 198.046 254.468 204.862C270.906 211.677 284.956 223.212 294.84 238.01C304.724 252.808 310 270.204 310 288C309.958 311.876 300.447 334.761 283.553 351.633C266.66 368.506 243.763 377.988 219.887 378ZM219.887 222.747C206.985 222.764 194.378 226.607 183.659 233.788C172.94 240.969 164.59 251.166 159.665 263.091C154.74 275.016 153.461 288.134 155.989 300.786C158.517 313.438 164.739 325.056 173.868 334.173C182.998 343.29 194.625 349.496 207.28 352.006C219.936 354.517 233.051 353.219 244.97 348.278C256.888 343.336 267.074 334.972 274.24 324.243C281.406 313.515 285.231 300.902 285.231 288C285.177 270.703 278.27 254.132 266.022 241.918C253.774 229.704 237.184 222.843 219.887 222.837V222.747Z" fill="url(#paint5_linear)"/>
<path opacity="0.46" d="M99.9498 126C92.0407 125.99 84.3121 123.636 77.7407 119.234C71.1694 114.833 66.0503 108.583 63.0305 101.273C60.0106 93.9627 59.2257 85.9216 60.7747 78.1657C62.3238 70.4097 66.1374 63.2871 71.7335 57.698C77.3296 52.1089 84.457 48.3043 92.2148 46.7649C99.9727 45.2256 108.013 46.0207 115.319 49.0496C122.625 52.0786 128.869 57.2055 133.262 63.7824C137.655 70.3593 140 78.0909 140 86C139.981 96.6116 135.754 106.783 128.246 114.281C120.738 121.78 110.561 125.995 99.9498 126ZM99.9498 56.9985C94.2156 57.0064 88.6124 58.7141 83.8484 61.9056C79.0844 65.0972 75.3735 69.6294 73.1846 74.9294C70.9957 80.2294 70.4271 86.0594 71.5506 91.6825C72.6742 97.3056 75.4395 102.469 79.497 106.521C83.5545 110.573 88.7222 113.331 94.3468 114.447C99.9715 115.563 105.801 114.986 111.098 112.79C116.395 110.594 120.922 106.877 124.107 102.108C127.292 97.3398 128.991 91.7342 128.991 86C128.968 78.3124 125.898 70.9477 120.454 65.5193C115.011 60.0908 107.637 57.0412 99.9498 57.0386V56.9985Z" fill="url(#paint6_linear)"/>
<path d="M86.4667 313H91.8187L86.5147 304.312L91.7707 296.2H86.7787L82.7707 302.728H80.4907V296.2H75.7627V313H80.4907V306.568H82.6507L86.4667 313Z" fill="black"/>
<path d="M101.023 296.2H93.3431V313H98.0951V308.608H101.023C105.607 308.608 108.487 306.232 108.487 302.416C108.487 298.576 105.607 296.2 101.023 296.2ZM100.735 304.864H98.0951V299.944H100.735C102.703 299.944 103.687 300.856 103.687 302.416C103.687 303.952 102.703 304.864 100.735 304.864Z" fill="black"/>
<path d="M110.64 313H115.128L122.04 303.16V313H126.72V296.2H122.256L115.32 306.064V296.2H110.64V313Z" fill="black"/>
<path d="M143.863 296.2H128.887V299.968H134.047V313H138.727V299.968H143.863V296.2Z" fill="black"/>
<path d="M146.054 313H150.542L157.454 303.16V313H162.134V296.2H157.67L150.734 306.064V296.2H146.054V313Z" fill="black"/>
<path d="M176.35 313H181.702L176.398 304.312L181.654 296.2H176.662L172.654 302.728H170.374V296.2H165.646V313H170.374V306.568H172.534L176.35 313Z" fill="black"/>
<path d="M194.952 296.2L190.896 304.312L186.984 296.2H181.968L188.496 308.296C187.872 309.208 187.2 309.592 186.264 309.592C185.76 309.592 185.232 309.496 184.584 309.304L183.456 312.808C184.488 313.216 185.472 313.432 186.432 313.432C188.952 313.432 191.136 311.992 192.624 309.184L199.584 296.2H194.952Z" fill="black"/>
<path d="M205.813 309.328V306.256H213.277V302.704H205.813V299.872H214.285V296.2H201.109V313H214.597V309.328H205.813Z" fill="black"/>
<path d="M235.4 296.2V309.232H231.056V296.2H226.376V309.232H221.984V296.2H217.304V313H240.08V296.2H235.4Z" fill="black"/>
<path d="M252.239 301.552H248.351V296.2H243.671V313H251.615C255.983 313 258.695 310.96 258.695 307.024C258.695 303.352 256.319 301.552 252.239 301.552ZM251.303 309.592H248.351V304.936H251.303C252.911 304.936 253.919 305.536 253.919 307.12C253.919 308.704 252.887 309.592 251.303 309.592Z" fill="black"/>
<path d="M262.553 307.816C260.969 307.816 259.817 308.872 259.817 310.504C259.817 311.632 260.369 312.448 261.233 312.856L260.105 316.768H262.961L264.473 313.264C265.169 311.704 265.265 311.176 265.265 310.504C265.265 308.872 264.113 307.816 262.553 307.816Z" fill="black"/>
<path d="M86.7806 324.2V341H91.4606V327.968H97.8446V341H102.549V324.2H86.7806Z" fill="black"/>
<path d="M113.82 324.2H106.14V341H110.892V336.608H113.82C118.404 336.608 121.284 334.232 121.284 330.416C121.284 326.576 118.404 324.2 113.82 324.2ZM113.532 332.864H110.892V327.944H113.532C115.5 327.944 116.484 328.856 116.484 330.416C116.484 331.952 115.5 332.864 113.532 332.864Z" fill="black"/>
<path d="M128.141 337.328V334.256H135.605V330.704H128.141V327.872H136.613V324.2H123.437V341H136.925V337.328H128.141Z" fill="black"/>
<path d="M155.4 337.232V324.2H141.864L141.672 329.384C141.504 333.872 140.952 337.184 138.816 337.232H138.216V344.384H142.584V341H153.336V344.384H157.68V337.232H155.4ZM145.824 329.792L145.896 327.968H150.72V337.232H144.36C145.344 335.816 145.704 333.08 145.824 329.792Z" fill="black"/>
<path d="M162.088 324.2L161.848 330.896C161.704 334.688 161.344 337.184 159.4 337.184C159.184 337.184 158.968 337.16 158.752 337.112L158.488 341C159.28 341.192 160 341.288 160.648 341.288C164.92 341.288 165.808 337.256 166.024 330.704L166.12 327.968H170.944V341H175.624V324.2H162.088Z" fill="black"/>
<path d="M192.13 341H197.074L189.634 324.2H184.954L177.538 341H182.386L183.706 337.736H190.81L192.13 341ZM185.098 334.232L187.258 328.856L189.418 334.232H185.098Z" fill="black"/>
<path d="M211.311 324.2H198.999V341H203.679V327.968H211.287L211.311 324.2Z" fill="black"/>
<path d="M223.044 341H227.988L220.548 324.2H215.868L208.452 341H213.3L214.62 337.736H221.724L223.044 341ZM216.012 334.232L218.172 328.856L220.332 334.232H216.012Z" fill="black"/>
<path d="M237.929 323.192C241.409 323.192 242.897 321.8 242.897 319.28H239.705C239.681 320.384 239.129 320.936 237.929 320.936C236.729 320.936 236.225 320.384 236.201 319.28H233.009C233.009 321.8 234.449 323.192 237.929 323.192ZM229.913 341H234.401L241.313 331.16V341H245.993V324.2H241.529L234.593 334.064V324.2H229.913V341Z" fill="black"/>
<path d="M249.601 334.88H253.225L254.137 324.2H248.713L249.601 334.88ZM251.425 341.216C253.033 341.216 254.137 340.088 254.137 338.696C254.137 337.28 253.033 336.224 251.425 336.224C249.817 336.224 248.689 337.28 248.689 338.696C248.689 340.088 249.817 341.216 251.425 341.216Z" fill="black"/>
<path fill-rule="evenodd" clip-rule="evenodd" d="M83.4789 317.009C82.6453 317.631 81.611 318 80.4907 318H75.7627C73.0013 318 70.7627 315.761 70.7627 313V296.2C70.7627 293.439 73.0013 291.2 75.7627 291.2H80.4907C81.6819 291.2 82.7759 291.617 83.6348 292.312C84.5119 291.603 85.6175 291.2 86.7787 291.2H91.7707C92.0358 291.2 92.2979 291.221 92.5549 291.262C92.8117 291.221 93.0749 291.2 93.3431 291.2H101.023C103.182 291.2 105.342 291.588 107.274 292.502C108.163 291.693 109.344 291.2 110.64 291.2H115.32C116.667 291.2 117.889 291.732 118.788 292.598C119.711 291.71 120.951 291.2 122.256 291.2H126.72C127.092 291.2 127.455 291.241 127.804 291.318C128.153 291.241 128.515 291.2 128.887 291.2H143.863C144.24 291.2 144.606 291.242 144.959 291.32C145.311 291.242 145.678 291.2 146.054 291.2H150.734C152.081 291.2 153.303 291.732 154.202 292.598C155.125 291.71 156.365 291.2 157.67 291.2H162.134C162.752 291.2 163.343 291.312 163.89 291.517C164.436 291.312 165.028 291.2 165.646 291.2H170.374C171.565 291.2 172.659 291.617 173.518 292.312C174.395 291.603 175.5 291.2 176.662 291.2H181.654C181.706 291.2 181.759 291.201 181.811 291.202C181.863 291.201 181.916 291.2 181.968 291.2H186.984C188.567 291.2 190.035 291.947 190.968 293.178C191.903 291.946 193.371 291.2 194.952 291.2H199.584C199.841 291.2 200.095 291.22 200.344 291.258C200.594 291.22 200.849 291.2 201.109 291.2H214.285C214.811 291.2 215.318 291.281 215.794 291.432C216.271 291.281 216.778 291.2 217.304 291.2H221.984C222.772 291.2 223.517 291.382 224.18 291.707C224.843 291.382 225.588 291.2 226.376 291.2H231.056C231.834 291.2 232.571 291.378 233.228 291.695C233.885 291.378 234.622 291.2 235.4 291.2H240.08C240.713 291.2 241.318 291.318 241.876 291.532C242.433 291.318 243.038 291.2 243.671 291.2H248.351C251.113 291.2 253.351 293.439 253.351 296.2V296.586C255.705 296.735 258.161 297.392 260.175 299.051C261.467 300.114 262.363 301.409 262.928 302.824C264.728 302.906 266.549 303.577 267.973 304.957C269.517 306.453 270.265 308.464 270.265 310.504C270.265 312.19 269.857 313.464 269.052 315.271L267.551 318.749C266.761 320.581 264.956 321.768 262.961 321.768H260.105C259.479 321.768 258.869 321.651 258.3 321.431C258.922 322.366 259.216 323.491 259.119 324.625L258.226 335.08C258.802 336.117 259.137 337.334 259.137 338.696C259.137 343.059 255.58 346.216 251.425 346.216C250.27 346.216 249.152 345.97 248.141 345.517C247.49 345.826 246.762 346 245.993 346H241.313C239.973 346 238.755 345.472 237.857 344.613C236.936 345.495 235.701 346 234.401 346H229.913C229.583 346 229.261 345.968 228.949 345.907C228.635 345.968 228.314 346 227.988 346H223.044C221.007 346 219.173 344.763 218.409 342.875L218.353 342.736H217.991L217.935 342.875C217.172 344.763 215.338 346 213.3 346H208.452C207.606 346 206.788 345.786 206.067 345.394C205.357 345.78 204.544 346 203.679 346H198.999C198.669 346 198.347 345.968 198.034 345.907C197.721 345.968 197.4 346 197.074 346H192.13C190.092 346 188.259 344.763 187.495 342.875L187.439 342.736H187.077L187.021 342.875C186.257 344.763 184.424 346 182.386 346H177.538C177.214 346 176.895 345.969 176.583 345.908C176.273 345.968 175.952 346 175.624 346H170.944C169.31 346 167.859 345.216 166.947 344.003C166.691 344.231 166.418 344.449 166.124 344.654C164.95 345.474 163.666 345.945 162.357 346.155C161.642 348.042 159.818 349.384 157.68 349.384H153.336C151.14 349.384 149.275 347.968 148.603 346H147.317C146.645 347.968 144.78 349.384 142.584 349.384H138.216C136.02 349.384 134.155 347.968 133.483 346H123.437C120.675 346 118.437 343.761 118.437 341V340.942C117.603 341.201 116.742 341.38 115.869 341.486C115.624 344.019 113.489 346 110.892 346H106.14C105.507 346 104.902 345.882 104.344 345.668C103.787 345.882 103.181 346 102.549 346H97.8446C96.6311 346 95.5185 345.568 94.6526 344.849C93.7866 345.568 92.6741 346 91.4606 346H86.7806C84.0191 346 81.7806 343.761 81.7806 341V324.2C81.7806 321.439 84.0191 319.2 86.7806 319.2H102.549C103.181 319.2 103.787 319.318 104.344 319.532C104.902 319.318 105.507 319.2 106.14 319.2H113.82C115.978 319.2 118.139 319.588 120.071 320.502C120.96 319.693 122.141 319.2 123.437 319.2H136.613C137.576 319.2 138.475 319.472 139.239 319.944C140.003 319.472 140.903 319.2 141.864 319.2H155.4C156.686 319.2 157.858 319.685 158.744 320.483C159.631 319.684 160.805 319.2 162.088 319.2H175.624C177.748 319.2 179.562 320.524 180.287 322.391L180.38 322.181C181.18 320.369 182.974 319.2 184.954 319.2H189.634C191.612 319.2 193.405 320.366 194.206 322.175L194.32 322.434C195.034 320.544 196.86 319.2 198.999 319.2H211.311C212.111 319.2 212.891 319.392 213.59 319.749C214.281 319.395 215.059 319.2 215.868 319.2H220.548C222.526 319.2 224.319 320.366 225.12 322.175L225.234 322.434C225.724 321.138 226.736 320.099 228.013 319.574C228.011 319.475 228.009 319.377 228.009 319.28C228.009 318.838 228.067 318.408 228.175 318H217.304C216.835 318 216.381 317.935 215.95 317.815C215.52 317.935 215.066 318 214.597 318H201.109C198.37 318 196.146 315.798 196.109 313.068C193.9 316.282 190.577 318.432 186.432 318.432C185.163 318.432 183.953 318.22 182.812 317.875C182.452 317.957 182.08 318 181.702 318H176.35C175.255 318 174.212 317.642 173.362 317.009C172.528 317.631 171.494 318 170.374 318H165.646C165.028 318 164.436 317.888 163.89 317.683C163.343 317.888 162.752 318 162.134 318H157.454C156.113 318 154.896 317.472 153.998 316.613C153.077 317.495 151.842 318 150.542 318H146.054C144.607 318 143.304 317.385 142.391 316.403C141.478 317.385 140.174 318 138.727 318H134.047C132.6 318 131.297 317.385 130.384 316.402C129.471 317.385 128.167 318 126.72 318H122.04C120.699 318 119.482 317.472 118.584 316.613C117.662 317.495 116.428 318 115.128 318H110.64C107.879 318 105.64 315.761 105.64 313V312.942C104.806 313.201 103.945 313.38 103.072 313.486C102.827 316.019 100.692 318 98.0951 318H93.3431C93.0832 318 92.8281 317.98 92.5789 317.942C92.3296 317.98 92.0756 318 91.8187 318H86.4667C85.3727 318 84.3289 317.642 83.4789 317.009ZM91.8187 313L86.5147 304.312L91.7707 296.2H86.7787L82.7707 302.728H80.4907V296.2H75.7627V313H80.4907V306.568H82.6507L86.4667 313H91.8187ZM93.3431 313H98.0951V308.608H101.023C102.861 308.608 104.426 308.226 105.64 307.522C107.454 306.471 108.487 304.702 108.487 302.416C108.487 300.116 107.454 298.341 105.64 297.287C104.426 296.582 102.861 296.2 101.023 296.2H93.3431V313ZM98.0951 304.864H100.735C100.834 304.864 100.93 304.862 101.023 304.857C101.962 304.812 102.653 304.54 103.095 304.078C103.49 303.667 103.687 303.104 103.687 302.416C103.687 301.717 103.49 301.149 103.095 300.734C102.653 300.268 101.962 299.996 101.023 299.951C100.93 299.946 100.834 299.944 100.735 299.944H98.0951V304.864ZM110.64 313H115.128L122.04 303.16V313H126.72V296.2H122.256L115.32 306.064V296.2H110.64V313ZM134.047 313H138.727V299.968H143.863V296.2H128.887V299.968H134.047V313ZM146.054 313H150.542L157.454 303.16V313H162.134V296.2H157.67L150.734 306.064V296.2H146.054V313ZM183.456 312.808C183.483 312.819 183.51 312.829 183.537 312.839C183.941 312.996 184.338 313.122 184.729 313.218C185.25 313.345 185.761 313.417 186.264 313.43C186.32 313.431 186.376 313.432 186.432 313.432C186.516 313.432 186.6 313.43 186.683 313.427C187.363 313.401 188.017 313.268 188.637 313.031C189.82 312.578 190.883 311.745 191.776 310.54C192.079 310.13 192.362 309.678 192.624 309.184L199.584 296.2H194.952L190.896 304.312L186.984 296.2H181.968L188.496 308.296C188.428 308.396 188.358 308.49 188.288 308.578C187.76 309.239 187.182 309.548 186.432 309.588C186.377 309.591 186.321 309.592 186.264 309.592C186.21 309.592 186.156 309.591 186.101 309.589C185.886 309.58 185.664 309.554 185.43 309.511C185.236 309.476 185.032 309.429 184.816 309.37C184.74 309.349 184.663 309.327 184.584 309.304L183.456 312.808ZM170.374 296.2H165.646V313H170.374V306.568H172.534L176.35 313H181.702L176.398 304.312L181.654 296.2H176.662L172.654 302.728H170.374V296.2ZM214.597 313V309.328H205.813V306.256H213.277V302.704H205.813V299.872H214.285V296.2H201.109V313H214.597ZM217.304 313H240.08V296.2H235.4V309.232H231.056V296.2H226.376V309.232H221.984V296.2H217.304V313ZM247.732 318C247.839 318.404 247.896 318.829 247.897 319.267C248.165 319.223 248.438 319.2 248.713 319.2H254.137C254.761 319.2 255.372 319.316 255.941 319.537C255.553 318.953 255.296 318.3 255.178 317.622C253.999 317.889 252.793 318 251.615 318H247.732ZM265.186 309.793C264.987 308.941 264.426 308.316 263.657 308.015C263.324 307.885 262.952 307.816 262.553 307.816C260.969 307.816 259.817 308.872 259.817 310.504C259.817 310.765 259.846 311.009 259.902 311.236C259.908 311.257 259.913 311.278 259.919 311.299C259.966 311.47 260.028 311.631 260.105 311.78C260.35 312.259 260.741 312.624 261.233 312.856L260.105 316.768H262.961L264.473 313.264C265.169 311.704 265.265 311.176 265.265 310.504C265.265 310.253 265.237 310.016 265.186 309.793ZM248.351 296.2H243.671V313H251.615C252.919 313 254.075 312.818 255.055 312.459C255.519 312.289 255.943 312.079 256.325 311.83C256.459 311.743 256.589 311.65 256.713 311.553C257.098 311.25 257.431 310.9 257.709 310.504C258.336 309.61 258.679 308.48 258.695 307.12C258.695 307.088 258.695 307.056 258.695 307.024C258.695 305.904 258.474 304.959 258.052 304.186C257.088 302.422 255.075 301.552 252.239 301.552H248.351V296.2ZM248.351 304.936V309.592H251.303C251.41 309.592 251.514 309.588 251.615 309.58C252.352 309.522 252.95 309.255 253.351 308.801C253.716 308.389 253.919 307.823 253.919 307.12C253.919 307.088 253.919 307.056 253.918 307.024C253.9 306.365 253.701 305.884 253.351 305.551C253.071 305.285 252.695 305.113 252.239 305.02C251.957 304.963 251.643 304.936 251.303 304.936H248.351ZM239.705 319.28C239.703 319.375 239.697 319.465 239.688 319.552C239.597 320.346 239.173 320.798 238.358 320.909C238.225 320.927 238.083 320.936 237.929 320.936C237.866 320.936 237.805 320.934 237.746 320.931C236.743 320.88 236.282 320.392 236.211 319.467C236.206 319.407 236.203 319.344 236.201 319.28H233.009C233.009 319.303 233.01 319.326 233.01 319.349C233.025 320.782 233.515 321.843 234.593 322.483C235.03 322.742 235.564 322.933 236.201 323.05C236.208 323.052 236.216 323.053 236.223 323.054C236.726 323.145 237.294 323.192 237.929 323.192C238.494 323.192 239.006 323.155 239.468 323.083C239.549 323.071 239.628 323.057 239.705 323.042C239.752 323.033 239.798 323.024 239.843 323.014C240.525 322.87 241.084 322.639 241.529 322.325C242.451 321.674 242.882 320.67 242.897 319.349C242.897 319.326 242.897 319.303 242.897 319.28H239.705ZM241.529 324.2L234.593 334.064V324.2H229.913V341H234.401L241.313 331.16V341H245.993V324.2H241.529ZM249.601 334.88H253.225L254.137 324.2H248.713L249.601 334.88ZM250.993 336.25C250.45 336.318 249.975 336.514 249.601 336.805C249.029 337.25 248.689 337.919 248.689 338.696C248.689 339.108 248.788 339.497 248.969 339.84C249.239 340.354 249.693 340.765 250.273 341C250.495 341.09 250.735 341.153 250.99 341.187C251.068 341.198 251.147 341.205 251.228 341.21C251.302 341.22 251.368 341.224 251.425 341.224C251.481 341.224 251.548 341.22 251.621 341.21C252.659 341.15 253.464 340.609 253.863 339.84C254.04 339.496 254.137 339.108 254.137 338.696C254.137 337.913 253.799 337.239 253.225 336.794C252.809 336.472 252.269 336.269 251.643 336.231C251.571 336.226 251.499 336.224 251.425 336.224C251.351 336.224 251.278 336.226 251.206 336.231C251.134 336.235 251.063 336.242 250.993 336.25ZM237.909 319.28H237.994C237.991 319.268 237.988 319.256 237.983 319.243C237.983 319.242 237.983 319.242 237.983 319.241C237.975 319.213 237.964 319.181 237.95 319.145C237.942 319.167 237.935 319.187 237.929 319.206C237.925 319.218 237.922 319.23 237.919 319.241C237.919 319.242 237.918 319.242 237.918 319.243C237.915 319.256 237.911 319.269 237.909 319.28ZM220.548 324.2H215.868L208.452 341H213.3L214.62 337.736H221.724L223.044 341H227.988L220.548 324.2ZM218.172 328.856L216.012 334.232H220.332L218.172 328.856ZM198.999 324.2V341H203.679V327.968H211.287L211.311 324.2H198.999ZM189.634 324.2H184.954L177.538 341H182.386L183.706 337.736H190.81L192.13 341H197.074L189.634 324.2ZM187.258 328.856L185.098 334.232H189.418L187.258 328.856ZM175.624 324.2H162.088L161.848 330.896C161.802 332.12 161.733 333.209 161.596 334.122C161.421 335.28 161.137 336.157 160.648 336.669C160.571 336.751 160.488 336.823 160.4 336.885C160.18 337.042 159.925 337.139 159.631 337.172C159.56 337.179 159.488 337.183 159.414 337.184C159.409 337.184 159.405 337.184 159.4 337.184C159.184 337.184 158.968 337.16 158.752 337.112L158.488 341C158.804 341.076 159.108 341.138 159.4 341.184C159.843 341.253 160.259 341.288 160.648 341.288C160.989 341.288 161.308 341.262 161.608 341.212C161.999 341.146 162.355 341.037 162.68 340.888C162.997 340.742 163.285 340.557 163.545 340.335C165.135 338.981 165.718 336.237 165.944 332.467C165.972 332.011 165.994 331.54 166.012 331.054C166.012 331.051 166.012 331.048 166.012 331.045C166.017 330.932 166.021 330.818 166.024 330.704L166.12 327.968H170.944V341H175.624V324.2ZM157.68 337.232H155.4V324.2H141.864L141.672 329.384C141.669 329.466 141.666 329.547 141.663 329.628C141.662 329.632 141.662 329.636 141.662 329.64C141.583 331.569 141.426 333.269 141.095 334.568C141.066 334.682 141.036 334.792 141.004 334.9C140.78 335.659 140.486 336.259 140.099 336.661C140.026 336.736 139.95 336.804 139.871 336.865C139.738 336.967 139.596 337.049 139.444 337.109C139.416 337.12 139.389 337.13 139.361 337.139C139.192 337.196 139.011 337.228 138.816 337.232H138.216V344.384H142.584V341H153.336V344.384H157.68V337.232ZM150.72 337.232V327.968H145.896L145.834 329.538L145.834 329.54L145.824 329.792C145.8 330.45 145.766 331.086 145.72 331.694C145.706 331.876 145.691 332.055 145.675 332.232C145.539 333.709 145.319 334.997 144.964 336C144.795 336.479 144.595 336.893 144.36 337.232H150.72ZM136.925 337.328H128.141V334.256H135.605V330.704H128.141V327.872H136.613V324.2H123.437V341H136.925V337.328ZM106.14 324.2V341H110.892V336.608H113.82C115.658 336.608 117.222 336.226 118.437 335.522C120.251 334.471 121.284 332.702 121.284 330.416C121.284 328.116 120.251 326.341 118.437 325.287C117.222 324.582 115.658 324.2 113.82 324.2H106.14ZM110.892 327.944V332.864H113.532C113.63 332.864 113.726 332.862 113.82 332.857C114.759 332.812 115.449 332.54 115.892 332.078C116.287 331.667 116.484 331.104 116.484 330.416C116.484 329.717 116.287 329.149 115.892 328.734C115.449 328.268 114.759 327.996 113.82 327.951C113.726 327.946 113.63 327.944 113.532 327.944H110.892ZM97.8446 341H102.549V324.2H86.7806V341H91.4606V327.968H97.8446V341Z" fill="white"/>
<rect x="16" y="397" width="125" height="43" rx="13" fill="white"/>
<rect x="195" y="397" width="125" height="43" rx="13" fill="white"/>
<g filter="url(#filter0_di)">
<path d="M87.4369 144.017C85.5329 144.052 84 145.606 84 147.517V212.251C84 213.217 84.784 214.001 85.7499 214.001H102.353C103.921 214.001 105.293 212.965 105.72 211.46L121.211 156.876C122.212 153.348 120.322 149.638 116.871 148.385C110.529 146.075 100.799 143.793 87.4369 144.017V144.017Z" fill="white"/>
<path d="M237.994 182.502C223.995 182.502 195.996 200.218 181.996 200.218C167.997 200.218 152.248 189.502 152.248 189.502C152.248 189.502 171.105 193.001 181.996 193.001C192.888 193.001 195.996 189.285 195.996 184.252C195.996 172.002 175.193 170.098 164.665 168.495C154.333 162.742 148.965 158.192 131.85 156.743C131.752 157.744 131.598 158.738 131.318 159.725L117.256 209.283C133.18 216.528 160.605 228 174.997 228C195.996 228 251.994 200.001 251.994 193.001C251.994 186.002 244.994 182.502 237.994 182.502Z" fill="white"/>
</g>
<path d="M252 5C252 26.7477 243.361 47.6048 227.983 62.9828C212.605 78.3607 191.748 87 170 87C148.252 87 127.395 78.3607 112.017 62.9828C96.6393 47.6048 88 26.7478 88 5.00002L170 5H252Z" fill="white"/>
<path d="M48.032 423.216C48.032 414.96 35.328 417.52 35.328 414.096C35.328 412.976 36.288 412.08 38.944 412.08C40.896 412.08 43.008 412.656 45.152 413.808L47.104 409.104C45.312 408.048 42.976 407.408 40.608 407.216V403.76H36.768V407.28C31.584 407.92 29.056 410.896 29.056 414.416C29.056 422.736 41.792 420.144 41.792 423.696C41.792 424.784 40.768 425.52 38.144 425.52C35.552 425.52 32.736 424.624 30.752 423.312L28.672 427.984C30.528 429.264 33.568 430.192 36.768 430.416V433.84H40.608V430.288C45.6 429.552 48.032 426.608 48.032 423.216Z" fill="#00BCBC"/>
<path d="M60.14 412V414.6H62.94V426H66.18V412H60.14ZM73.412 417.26H72.272L72.492 414.6H78.332V412H69.792L69.072 419.88H72.652C75.192 419.88 75.912 420.6 75.912 421.7C75.912 422.84 74.912 423.52 73.292 423.52C71.832 423.52 70.372 423.06 69.312 422.26L68.032 424.74C69.392 425.7 71.432 426.24 73.372 426.24C77.372 426.24 79.192 424.08 79.192 421.6C79.192 419.12 77.552 417.26 73.412 417.26ZM92.1706 426.24C95.6306 426.24 98.1706 423.62 98.1706 419C98.1706 414.38 95.6306 411.76 92.1706 411.76C88.7306 411.76 86.1706 414.38 86.1706 419C86.1706 423.62 88.7306 426.24 92.1706 426.24ZM92.1706 423.5C90.5706 423.5 89.4506 422.18 89.4506 419C89.4506 415.82 90.5706 414.5 92.1706 414.5C93.7906 414.5 94.9106 415.82 94.9106 419C94.9106 422.18 93.7906 423.5 92.1706 423.5ZM105.745 426.24C109.205 426.24 111.745 423.62 111.745 419C111.745 414.38 109.205 411.76 105.745 411.76C102.305 411.76 99.7448 414.38 99.7448 419C99.7448 423.62 102.305 426.24 105.745 426.24ZM105.745 423.5C104.145 423.5 103.025 422.18 103.025 419C103.025 415.82 104.145 414.5 105.745 414.5C107.365 414.5 108.485 415.82 108.485 419C108.485 422.18 107.365 423.5 105.745 423.5ZM119.319 426.24C122.779 426.24 125.319 423.62 125.319 419C125.319 414.38 122.779 411.76 119.319 411.76C115.879 411.76 113.319 414.38 113.319 419C113.319 423.62 115.879 426.24 119.319 426.24ZM119.319 423.5C117.719 423.5 116.599 422.18 116.599 419C116.599 415.82 117.719 414.5 119.319 414.5C120.939 414.5 122.059 415.82 122.059 419C122.059 422.18 120.939 423.5 119.319 423.5Z" fill="black"/>
<path d="M235.14 412V414.6H237.94V426H241.18V412H235.14ZM249.612 426.24C253.072 426.24 255.612 423.62 255.612 419C255.612 414.38 253.072 411.76 249.612 411.76C246.172 411.76 243.612 414.38 243.612 419C243.612 423.62 246.172 426.24 249.612 426.24ZM249.612 423.5C248.012 423.5 246.892 422.18 246.892 419C246.892 415.82 248.012 414.5 249.612 414.5C251.232 414.5 252.352 415.82 252.352 419C252.352 422.18 251.232 423.5 249.612 423.5ZM276.89 426L276.85 415.24H273.93L270.27 421.46L266.83 415.24H263.57V426H266.39V419.54L269.53 424.96H270.85L274.07 419.56V426H276.89ZM279.879 426H282.759L287.979 419.6V426H291.079V415.24H288.219L282.979 421.64V415.24H279.879V426ZM294.078 426H297.178V421.98H301.858V426H304.978V415.24H301.858V419.44H297.178V415.24H294.078V426Z" fill="black"/>
<path d="M216.5 406C209.595 406 204 411.595 204 418.5C204 425.405 209.595 431 216.5 431C223.405 431 229 425.405 229 418.5C229 411.595 223.405 406 216.5 406Z" fill="#00BCBC"/>
<path fill-rule="evenodd" clip-rule="evenodd" d="M215.961 410C214.878 410 214 410.878 214 411.961V419.153C214 419.311 214.019 419.464 214.054 419.611C214.047 420.263 214.376 420.901 214.974 421.262L220.414 424.535C221.313 425.077 222.481 424.786 223.022 423.887C223.563 422.988 223.273 421.82 222.374 421.279L217.923 418.6V411.961C217.923 410.878 217.045 410 215.961 410Z" fill="white"/>
<g filter="url(#filter1_d)">
<path d="M162.531 400.393L185.975 433.213C179.766 434.57 168.698 428.331 168.698 428.331C168.698 428.331 160.834 438.706 154.912 440L162.531 400.393Z" fill="white"/>
<path fill-rule="evenodd" clip-rule="evenodd" d="M154.912 440L158.469 421.51C161.522 424.284 164.956 426.604 168.698 428.331C168.698 428.331 160.834 438.706 154.912 440Z" fill="#BBFFF9"/>
</g>
<path d="M135.812 25.4V34.274H143.352V66H154.836V25.4H135.812ZM184.606 40.132C180.778 40.132 177.704 41.176 175.442 43.148C176.022 36.942 179.908 33.694 185.708 33.694C188.318 33.694 190.87 34.158 193.19 35.782L197.366 27.546C194.408 25.632 190 24.588 185.418 24.588C172.6 24.588 163.842 32.65 163.842 46.802C163.842 59.968 171.266 66.812 182.634 66.812C191.508 66.812 198.584 61.418 198.584 52.95C198.584 45.178 192.262 40.132 184.606 40.132ZM181.938 58.634C178.458 58.634 176.254 56.546 176.254 53.53C176.254 50.456 178.574 48.368 181.88 48.368C185.186 48.368 187.448 50.34 187.448 53.472C187.448 56.662 185.186 58.634 181.938 58.634Z" fill="#46BBCE"/>
<defs>
<filter id="filter0_di" x="78" y="138.002" width="187.994" height="103.998" filterUnits="userSpaceOnUse" color-interpolation-filters="sRGB">
<feFlood flood-opacity="0" result="BackgroundImageFix"/>
<feColorMatrix in="SourceAlpha" type="matrix" values="0 0 0 0 0 0 0 0 0 0 0 0 0 0 0 0 0 0 127 0"/>
<feOffset dx="4" dy="4"/>
<feGaussianBlur stdDeviation="5"/>
<feColorMatrix type="matrix" values="0 0 0 0 0.1715 0 0 0 0 0.816667 0 0 0 0 0.816667 0 0 0 1 0"/>
<feBlend mode="normal" in2="BackgroundImageFix" result="effect1_dropShadow"/>
<feBlend mode="normal" in="SourceGraphic" in2="effect1_dropShadow" result="shape"/>
<feColorMatrix in="SourceAlpha" type="matrix" values="0 0 0 0 0 0 0 0 0 0 0 0 0 0 0 0 0 0 127 0" result="hardAlpha"/>
<feOffset dx="-4" dy="-4"/>
<feGaussianBlur stdDeviation="4.5"/>
<feComposite in2="hardAlpha" operator="arithmetic" k2="-1" k3="1"/>
<feColorMatrix type="matrix" values="0 0 0 0 0.441945 0 0 0 0 0.887146 0 0 0 0 0.895833 0 0 0 0.52 0"/>
<feBlend mode="normal" in2="shape" result="effect2_innerShadow"/>
</filter>
<filter id="filter1_d" x="143" y="393" width="52.975" height="57.0001" filterUnits="userSpaceOnUse" color-interpolation-filters="sRGB">
<feFlood flood-opacity="0" result="BackgroundImageFix"/>
<feColorMatrix in="SourceAlpha" type="matrix" values="0 0 0 0 0 0 0 0 0 0 0 0 0 0 0 0 0 0 127 0"/>
<feOffset dx="3" dy="3"/>
<feGaussianBlur stdDeviation="3.5"/>
<feColorMatrix type="matrix" values="0 0 0 0 0.279 0 0 0 0 0.9 0 0 0 0 0.840225 0 0 0 1 0"/>
<feBlend mode="normal" in2="BackgroundImageFix" result="effect1_dropShadow"/>
<feBlend mode="normal" in="SourceGraphic" in2="effect1_dropShadow" result="shape"/>
</filter>
<linearGradient id="paint0_linear" x1="5.5" y1="-157" x2="289.5" y2="495.5" gradientUnits="userSpaceOnUse">
<stop stop-color="#00C2FF"/>
<stop offset="1" stop-color="#1EE7CF"/>
</linearGradient>
<linearGradient id="paint1_linear" x1="49" y1="11" x2="301.5" y2="474" gradientUnits="userSpaceOnUse">
<stop stop-color="#19D2EB"/>
<stop offset="1" stop-color="#55F5DF"/>
</linearGradient>
<linearGradient id="paint2_linear" x1="59.5" y1="-9" x2="291.5" y2="495.5" gradientUnits="userSpaceOnUse">
<stop stop-color="#00E0FF"/>
<stop offset="1" stop-color="#42F2D1"/>
</linearGradient>
<linearGradient id="paint3_linear" x1="51" y1="11" x2="303.5" y2="474" gradientUnits="userSpaceOnUse">
<stop stop-color="#B2F6FF"/>
<stop offset="1" stop-color="#28D7BE"/>
</linearGradient>
<linearGradient id="paint4_linear" x1="27" y1="473.49" x2="247.084" y2="60.8524" gradientUnits="userSpaceOnUse">
<stop stop-color="#73F5FF"/>
<stop offset="0.99" stop-color="#7AFFEC"/>
</linearGradient>
<linearGradient id="paint5_linear" x1="129.774" y1="288" x2="310" y2="288" gradientUnits="userSpaceOnUse">
<stop stop-color="white"/>
<stop offset="0.99" stop-color="white" stop-opacity="0.4"/>
</linearGradient>
<linearGradient id="paint6_linear" x1="59.8997" y1="86" x2="140" y2="86" gradientUnits="userSpaceOnUse">
<stop stop-color="white"/>
<stop offset="0.99" stop-color="white" stop-opacity="0.4"/>
</linearGradient>
</defs>
</svg>
