<svg width="338" height="474" viewBox="0 0 338 474" fill="none" xmlns="http://www.w3.org/2000/svg">
<rect x="2.5" y="2.5" width="331" height="469" rx="32.5" fill="url(#paint0_linear)" stroke="url(#paint1_linear)" stroke-width="5"/>
<mask id="mask0" mask-type="alpha" maskUnits="userSpaceOnUse" x="2" y="0" width="336" height="474">
<rect x="4.5" y="2.5" width="331" height="469" rx="41.5" fill="url(#paint2_linear)" stroke="url(#paint3_linear)" stroke-width="5"/>
</mask>
<g mask="url(#mask0)">
<path d="M198.89 5.0093C198.89 5.0093 97.8208 47.0947 93.9888 101.845C90.1568 156.595 112.775 152.615 106.069 185.086C99.3631 217.557 -10.9124 255.616 18.7856 356.766C48.4837 457.916 142.368 370.584 242 469H35C18.4315 469 5 455.569 5 439V35.0014C5 18.4323 18.4323 5.00064 35.0014 5.00144L198.89 5.0093Z" fill="url(#paint4_linear)" fill-opacity="0.5"/>
</g>
<path opacity="0.46" d="M219.887 378C202.092 377.978 184.702 372.68 169.917 362.777C155.131 352.875 143.613 338.811 136.819 322.363C130.024 305.916 128.258 287.824 131.743 270.373C135.229 252.922 143.809 236.896 156.4 224.321C168.992 211.745 185.028 203.185 202.483 199.721C219.939 196.258 238.029 198.046 254.468 204.862C270.906 211.677 284.956 223.212 294.84 238.01C304.724 252.808 310 270.204 310 288C309.958 311.876 300.447 334.761 283.553 351.633C266.66 368.506 243.763 377.988 219.887 378ZM219.887 222.747C206.985 222.764 194.378 226.607 183.659 233.788C172.94 240.969 164.59 251.166 159.665 263.091C154.74 275.016 153.461 288.134 155.989 300.786C158.517 313.438 164.739 325.056 173.868 334.173C182.998 343.29 194.625 349.496 207.28 352.006C219.936 354.517 233.051 353.219 244.97 348.278C256.888 343.336 267.074 334.972 274.24 324.243C281.406 313.515 285.231 300.902 285.231 288C285.177 270.703 278.27 254.132 266.022 241.918C253.774 229.704 237.184 222.843 219.887 222.837V222.747Z" fill="url(#paint5_linear)"/>
<path opacity="0.46" d="M99.9498 126C92.0407 125.99 84.3121 123.636 77.7407 119.234C71.1694 114.833 66.0503 108.583 63.0305 101.273C60.0106 93.9627 59.2257 85.9216 60.7747 78.1657C62.3238 70.4097 66.1374 63.2871 71.7335 57.698C77.3296 52.1089 84.457 48.3043 92.2148 46.7649C99.9727 45.2256 108.013 46.0207 115.319 49.0496C122.625 52.0786 128.869 57.2055 133.262 63.7824C137.655 70.3593 140 78.0909 140 86C139.981 96.6116 135.754 106.783 128.246 114.281C120.738 121.78 110.561 125.995 99.9498 126ZM99.9498 56.9985C94.2156 57.0064 88.6124 58.7141 83.8484 61.9056C79.0844 65.0972 75.3735 69.6294 73.1846 74.9294C70.9957 80.2294 70.4271 86.0594 71.5506 91.6825C72.6742 97.3056 75.4395 102.469 79.497 106.521C83.5545 110.573 88.7222 113.331 94.3468 114.447C99.9715 115.563 105.801 114.986 111.098 112.79C116.395 110.594 120.922 106.877 124.107 102.108C127.292 97.3398 128.991 91.7342 128.991 86C128.968 78.3124 125.898 70.9477 120.454 65.5193C115.011 60.0908 107.637 57.0412 99.9498 57.0386V56.9985Z" fill="url(#paint6_linear)"/>
<path d="M97.2489 297.2L93.1929 305.312L89.2809 297.2H84.2649L90.7929 309.296C90.1689 310.208 89.4969 310.592 88.5609 310.592C88.0569 310.592 87.5289 310.496 86.8809 310.304L85.7529 313.808C86.7849 314.216 87.7689 314.432 88.7289 314.432C91.2489 314.432 93.4329 312.992 94.9209 310.184L101.881 297.2H97.2489Z" fill="black"/>
<path d="M111.355 314.336C114.451 314.336 116.947 313.208 118.579 311.168L115.555 308.432C114.499 309.704 113.203 310.4 111.595 310.4C108.835 310.4 106.915 308.48 106.915 305.6C106.915 302.72 108.835 300.8 111.595 300.8C113.203 300.8 114.499 301.496 115.555 302.768L118.579 300.032C116.947 297.992 114.451 296.864 111.355 296.864C106.027 296.864 102.115 300.488 102.115 305.6C102.115 310.712 106.027 314.336 111.355 314.336Z" fill="black"/>
<path d="M134.121 297.2H119.145V300.968H124.305V314H128.985V300.968H134.121V297.2Z" fill="black"/>
<path d="M148.38 314H153.324L145.884 297.2H141.204L133.788 314H138.636L139.956 310.736H147.06L148.38 314ZM141.348 307.232L143.508 301.856L145.668 307.232H141.348Z" fill="black"/>
<path d="M166.481 297.2V303.512H160.001V297.2H155.249V314H160.001V307.448H166.481V314H171.233V297.2H166.481Z" fill="black"/>
<path d="M183.099 314.336C188.475 314.336 192.435 310.64 192.435 305.6C192.435 300.56 188.475 296.864 183.099 296.864C177.723 296.864 173.763 300.56 173.763 305.6C173.763 310.64 177.723 314.336 183.099 314.336ZM183.099 310.4C180.555 310.4 178.563 308.504 178.563 305.6C178.563 302.696 180.555 300.8 183.099 300.8C185.643 300.8 187.635 302.696 187.635 305.6C187.635 308.504 185.643 310.4 183.099 310.4Z" fill="black"/>
<path d="M207.216 305.216C208.656 304.496 209.496 303.224 209.496 301.568C209.496 298.784 207.144 297.2 203.136 297.2H194.976V314H203.592C207.912 314 210.264 312.152 210.264 309.2C210.264 307.184 209.16 305.84 207.216 305.216ZM199.656 300.608H202.68C204.024 300.608 204.696 301.184 204.696 302.264C204.696 303.368 204.024 303.92 202.68 303.92H199.656V300.608ZM203.4 310.592H199.656V307.136H203.4C204.768 307.136 205.464 307.688 205.464 308.84C205.464 309.992 204.768 310.592 203.4 310.592Z" fill="black"/>
<path d="M212.835 314H217.323L224.235 304.16V314H228.915V297.2H224.451L217.515 307.064V297.2H212.835V314Z" fill="black"/>
<path d="M246.058 297.2H231.082V300.968H236.242V314H240.922V300.968H246.058V297.2Z" fill="black"/>
<path d="M256.817 302.552H252.929V297.2H248.249V314H256.193C260.561 314 263.273 311.96 263.273 308.024C263.273 304.352 260.897 302.552 256.817 302.552ZM255.881 310.592H252.929V305.936H255.881C257.489 305.936 258.497 306.536 258.497 308.12C258.497 309.704 257.465 310.592 255.881 310.592Z" fill="black"/>
<path d="M46.5756 338.232V325.2H33.0396L32.8476 330.384C32.6796 334.872 32.1276 338.184 29.9916 338.232H29.3916V345.384H33.7596V342H44.5116V345.384H48.8556V338.232H46.5756ZM36.9996 330.792L37.0716 328.968H41.8956V338.232H35.5356C36.5196 336.816 36.8796 334.08 36.9996 330.792Z" fill="black"/>
<path d="M59.3839 342.336C64.7599 342.336 68.7199 338.64 68.7199 333.6C68.7199 328.56 64.7599 324.864 59.3839 324.864C54.0079 324.864 50.0479 328.56 50.0479 333.6C50.0479 338.64 54.0079 342.336 59.3839 342.336ZM59.3839 338.4C56.8399 338.4 54.8479 336.504 54.8479 333.6C54.8479 330.696 56.8399 328.8 59.3839 328.8C61.9279 328.8 63.9199 330.696 63.9199 333.6C63.9199 336.504 61.9279 338.4 59.3839 338.4Z" fill="black"/>
<path d="M79.4447 342.336C82.5407 342.336 85.0367 341.208 86.6687 339.168L83.6447 336.432C82.5887 337.704 81.2927 338.4 79.6847 338.4C76.9247 338.4 75.0047 336.48 75.0047 333.6C75.0047 330.72 76.9247 328.8 79.6847 328.8C81.2927 328.8 82.5887 329.496 83.6447 330.768L86.6687 328.032C85.0367 325.992 82.5407 324.864 79.4447 324.864C74.1167 324.864 70.2047 328.488 70.2047 333.6C70.2047 338.712 74.1167 342.336 79.4447 342.336Z" fill="black"/>
<path d="M102.211 325.2H87.2348V328.968H92.3948V342H97.0748V328.968H102.211V325.2Z" fill="black"/>
<path d="M115.003 325.2L110.947 333.312L107.035 325.2H102.019L108.547 337.296C107.923 338.208 107.251 338.592 106.315 338.592C105.811 338.592 105.283 338.496 104.635 338.304L103.507 341.808C104.539 342.216 105.523 342.432 106.483 342.432C109.003 342.432 111.187 340.992 112.675 338.184L119.635 325.2H115.003Z" fill="black"/>
<path d="M121.159 325.2V342H125.839V328.968H132.223V342H136.927V325.2H121.159Z" fill="black"/>
<path d="M147.503 325.2V342H152.183V328.968H158.567V342H163.271V325.2H147.503Z" fill="black"/>
<path d="M175.118 342.336C180.494 342.336 184.454 338.64 184.454 333.6C184.454 328.56 180.494 324.864 175.118 324.864C169.742 324.864 165.782 328.56 165.782 333.6C165.782 338.64 169.742 342.336 175.118 342.336ZM175.118 338.4C172.574 338.4 170.582 336.504 170.582 333.6C170.582 330.696 172.574 328.8 175.118 328.8C177.662 328.8 179.654 330.696 179.654 333.6C179.654 336.504 177.662 338.4 175.118 338.4Z" fill="black"/>
<path d="M202.163 342.336C205.259 342.336 207.755 341.208 209.387 339.168L206.363 336.432C205.307 337.704 204.011 338.4 202.403 338.4C199.643 338.4 197.723 336.48 197.723 333.6C197.723 330.72 199.643 328.8 202.403 328.8C204.011 328.8 205.307 329.496 206.363 330.768L209.387 328.032C207.755 325.992 205.259 324.864 202.163 324.864C196.835 324.864 192.923 328.488 192.923 333.6C192.923 338.712 196.835 342.336 202.163 342.336Z" fill="black"/>
<path d="M219.367 342.336C222.463 342.336 224.959 341.208 226.591 339.168L223.567 336.432C222.511 337.704 221.215 338.4 219.607 338.4C216.847 338.4 214.927 336.48 214.927 333.6C214.927 330.72 216.847 328.8 219.607 328.8C221.215 328.8 222.511 329.496 223.567 330.768L226.591 328.032C224.959 325.992 222.463 324.864 219.367 324.864C214.039 324.864 210.127 328.488 210.127 333.6C210.127 338.712 214.039 342.336 219.367 342.336Z" fill="black"/>
<path d="M237.305 330.552H233.417V325.2H228.737V342H236.681C241.049 342 243.761 339.96 243.761 336.024C243.761 332.352 241.385 330.552 237.305 330.552ZM245.609 342H250.289V325.2H245.609V342ZM236.369 338.592H233.417V333.936H236.369C237.977 333.936 238.985 334.536 238.985 336.12C238.985 337.704 237.953 338.592 236.369 338.592Z" fill="black"/>
<path d="M255.998 325.2L255.758 331.896C255.614 335.688 255.254 338.184 253.31 338.184C253.094 338.184 252.878 338.16 252.662 338.112L252.398 342C253.19 342.192 253.91 342.288 254.558 342.288C258.83 342.288 259.718 338.256 259.934 331.704L260.03 328.968H264.854V342H269.534V325.2H255.998Z" fill="black"/>
<path d="M283.736 342H289.088L283.784 333.312L289.04 325.2H284.048L280.04 331.728H277.76V325.2H273.032V342H277.76V335.568H279.92L283.736 342Z" fill="black"/>
<path d="M295.316 338.328V335.256H302.78V331.704H295.316V328.872H303.788V325.2H290.612V342H304.1V338.328H295.316Z" fill="black"/>
<path fill-rule="evenodd" clip-rule="evenodd" d="M93.2649 294.179C94.1994 292.946 95.6675 292.2 97.2489 292.2H101.881C103.005 292.2 104.076 292.577 104.938 293.244C106.873 292.35 109.055 291.864 111.355 291.864C113.25 291.864 115.081 292.172 116.77 292.799C117.477 292.417 118.285 292.2 119.145 292.2H134.121C135.505 292.2 136.757 292.762 137.662 293.67C138.584 292.746 139.85 292.2 141.204 292.2H145.884C147.862 292.2 149.654 293.366 150.456 295.175L150.57 295.434C151.284 293.544 153.109 292.2 155.249 292.2H160.001C161.237 292.2 162.368 292.649 163.241 293.392C164.114 292.649 165.245 292.2 166.481 292.2H171.233C172.809 292.2 174.215 292.929 175.132 294.069C177.422 292.654 180.169 291.864 183.099 291.864C186.031 291.864 188.782 292.656 191.073 294.074C191.99 292.931 193.397 292.2 194.976 292.2H203.136C205.253 292.2 207.483 292.535 209.453 293.517C210.343 292.699 211.531 292.2 212.835 292.2H217.515C218.862 292.2 220.084 292.732 220.983 293.598C221.906 292.71 223.146 292.2 224.451 292.2H228.915C229.287 292.2 229.65 292.241 229.999 292.318C230.348 292.241 230.71 292.2 231.082 292.2H246.058C246.435 292.2 246.801 292.242 247.154 292.32C247.506 292.242 247.873 292.2 248.249 292.2H252.929C255.69 292.2 257.929 294.439 257.929 297.2V297.587C260.283 297.735 262.739 298.392 264.753 300.051C267.254 302.11 268.273 305.04 268.273 308.024C268.273 311.233 267.108 314.253 264.538 316.357C262.121 318.336 259.073 319 256.193 319H248.249C246.802 319 245.499 318.385 244.586 317.403C243.673 318.385 242.369 319 240.922 319H236.242C234.795 319 233.492 318.385 232.579 317.403C231.666 318.385 230.362 319 228.915 319H224.235C222.894 319 221.677 318.472 220.779 317.613C219.857 318.495 218.623 319 217.323 319H212.835C211.613 319 210.493 318.561 209.624 317.833C207.746 318.681 205.649 319 203.592 319H194.976C193.397 319 191.99 318.269 191.073 317.126C188.782 318.544 186.031 319.336 183.099 319.336C180.169 319.336 177.422 318.546 175.132 317.131C174.215 318.271 172.809 319 171.233 319H166.481C165.245 319 164.114 318.552 163.241 317.808C162.368 318.552 161.237 319 160.001 319H155.249C154.919 319 154.596 318.968 154.284 318.907C153.971 318.968 153.649 319 153.324 319H148.38C146.342 319 144.508 317.764 143.744 315.875L143.688 315.736H143.327L143.271 315.875C142.507 317.764 140.673 319 138.636 319H133.788C132.936 319 132.112 318.783 131.387 318.386C130.674 318.777 129.856 319 128.985 319H124.305C122.51 319 120.936 318.054 120.054 316.633C117.593 318.451 114.565 319.336 111.355 319.336C106.204 319.336 101.641 316.9 99.1387 312.892C96.9674 316.747 93.3616 319.432 88.7289 319.432C87.0062 319.432 85.3936 319.043 83.9146 318.458C81.4639 317.489 80.1859 314.784 80.9934 312.276L82.1214 308.772C82.4131 307.866 82.9396 307.099 83.6126 306.519L79.8648 299.575C79.0286 298.025 79.0689 296.15 79.9711 294.638C80.8732 293.126 82.5042 292.2 84.2649 292.2H89.2809C90.8636 292.2 92.3312 292.947 93.2649 294.179ZM87.1122 310.37C87.0367 310.349 86.9597 310.327 86.8809 310.304L85.7529 313.808C85.7797 313.819 85.8066 313.829 85.8333 313.839C86.2376 313.996 86.6346 314.122 87.0258 314.218C87.5467 314.345 88.0573 314.417 88.5609 314.43C88.617 314.431 88.673 314.432 88.7289 314.432C89.4986 314.432 90.237 314.298 90.9338 314.031C92.1165 313.578 93.1793 312.745 94.0721 311.54C94.3753 311.13 94.6589 310.678 94.9209 310.184L101.881 297.2H97.2489L93.1929 305.312L89.2809 297.2H84.2649L90.7929 309.296C90.7242 309.396 90.655 309.49 90.5849 309.578C90.0566 310.239 89.479 310.549 88.7289 310.588C88.6738 310.591 88.6178 310.592 88.5609 310.592C88.5068 310.592 88.4524 310.591 88.3976 310.589C88.0042 310.573 87.5904 310.5 87.1122 310.37ZM124.305 314H128.985V300.968H134.121V297.2H119.145V300.968H124.305V314ZM115.555 302.768L118.579 300.032C118.372 299.773 118.151 299.53 117.917 299.301C116.917 298.323 115.672 297.62 114.226 297.228C114.199 297.221 114.172 297.213 114.145 297.206C113.352 296.999 112.5 296.884 111.595 296.866C111.515 296.865 111.435 296.864 111.355 296.864C109.684 296.864 108.152 297.221 106.836 297.868C106.225 298.169 105.66 298.532 105.15 298.952C103.258 300.508 102.115 302.837 102.115 305.6C102.115 306.124 102.156 306.632 102.235 307.122C102.931 311.416 106.573 314.336 111.355 314.336C111.435 314.336 111.515 314.335 111.595 314.334C112.531 314.316 113.41 314.193 114.226 313.972C115.672 313.58 116.917 312.878 117.917 311.899C118.151 311.67 118.372 311.427 118.579 311.168L115.555 308.432C115.502 308.496 115.448 308.559 115.394 308.62C115.315 308.708 115.234 308.794 115.153 308.876C114.174 309.865 113.004 310.4 111.595 310.4C111.514 310.4 111.434 310.398 111.355 310.395C108.724 310.287 106.915 308.396 106.915 305.6C106.915 302.804 108.724 300.913 111.355 300.805C111.434 300.802 111.514 300.8 111.595 300.8C112.563 300.8 113.418 301.052 114.176 301.531C114.522 301.749 114.847 302.014 115.153 302.324C115.234 302.406 115.315 302.492 115.394 302.58C115.448 302.641 115.502 302.704 115.555 302.768ZM153.324 314L145.884 297.2H141.204L133.788 314H138.636L139.956 310.736H147.06L148.38 314H153.324ZM143.508 301.856L141.348 307.232H145.668L143.508 301.856ZM160.001 314V307.448H166.481V314H171.233V297.2H166.481V303.512H160.001V297.2H155.249V314H160.001ZM176.233 311.683C177.904 313.342 180.311 314.336 183.099 314.336C185.892 314.336 188.304 313.338 189.976 311.672C191.521 310.132 192.435 308.021 192.435 305.6C192.435 303.179 191.521 301.068 189.976 299.528C188.304 297.862 185.892 296.864 183.099 296.864C180.311 296.864 177.904 297.858 176.233 299.517C174.681 301.058 173.763 303.173 173.763 305.6C173.763 308.027 174.681 310.142 176.233 311.683ZM194.976 314H203.592C205.335 314 206.758 313.699 207.835 313.146C209.417 312.334 210.253 310.978 210.263 309.233C210.264 309.222 210.264 309.211 210.264 309.2C210.264 309.078 210.259 308.958 210.251 308.84C210.164 307.572 209.609 306.594 208.661 305.919C208.412 305.743 208.136 305.587 207.835 305.452C207.639 305.364 207.433 305.286 207.216 305.216C207.436 305.106 207.643 304.982 207.835 304.846C208.129 304.638 208.387 304.401 208.608 304.137C209.045 303.613 209.332 302.983 209.443 302.264C209.478 302.04 209.496 301.808 209.496 301.568C209.496 301.262 209.467 300.97 209.411 300.693C209.214 299.718 208.675 298.93 207.835 298.351C206.746 297.6 205.15 297.2 203.136 297.2H194.976V314ZM199.656 303.92H202.68C202.946 303.92 203.186 303.898 203.4 303.855C204.112 303.71 204.53 303.325 204.656 302.698C204.676 302.593 204.689 302.482 204.694 302.364C204.695 302.331 204.696 302.298 204.696 302.264C204.696 302.252 204.695 302.239 204.695 302.227C204.695 302.193 204.694 302.161 204.692 302.128C204.686 302.027 204.674 301.93 204.656 301.838C204.636 301.743 204.61 301.653 204.577 301.568C204.559 301.521 204.538 301.476 204.515 301.432C204.46 301.327 204.393 301.231 204.312 301.145C204.052 300.867 203.66 300.694 203.136 300.633C202.993 300.616 202.841 300.608 202.68 300.608H199.656V303.92ZM199.656 307.136V310.592H203.4C203.465 310.592 203.529 310.591 203.592 310.588C204.019 310.569 204.374 310.486 204.656 310.341C204.906 310.211 205.098 310.033 205.233 309.806C205.287 309.714 205.332 309.615 205.367 309.507C205.398 309.411 205.422 309.309 205.438 309.2C205.455 309.087 205.464 308.967 205.464 308.84C205.464 308.827 205.463 308.813 205.463 308.8C205.463 308.779 205.462 308.759 205.462 308.739C205.458 308.643 205.449 308.551 205.436 308.464C205.354 307.948 205.093 307.587 204.656 307.372C204.333 307.214 203.913 307.136 203.4 307.136H199.656ZM212.835 314H217.323L224.235 304.16V314H228.915V297.2H224.451L217.515 307.064V297.2H212.835V314ZM236.242 314H240.922V300.968H246.058V297.2H231.082V300.968H236.242V314ZM248.249 314H256.193C260.525 314 263.229 311.993 263.272 308.12C263.273 308.088 263.273 308.056 263.273 308.024C263.273 304.352 260.897 302.552 256.817 302.552H252.929V297.2H248.249V314ZM252.929 310.592H255.881C255.988 310.592 256.092 310.588 256.193 310.58C256.93 310.522 257.527 310.255 257.929 309.801C258.294 309.389 258.497 308.823 258.497 308.12C258.497 308.088 258.497 308.056 258.496 308.024C258.478 307.365 258.279 306.884 257.929 306.551C257.649 306.285 257.273 306.113 256.817 306.02C256.534 305.963 256.221 305.936 255.881 305.936H252.929V310.592ZM183.213 305.432C183.149 305.406 183.108 305.401 183.099 305.4C183.09 305.401 183.048 305.406 182.985 305.432C182.903 305.465 182.816 305.522 182.741 305.599C182.74 305.599 182.74 305.6 182.739 305.6C182.74 305.6 182.74 305.601 182.741 305.601C182.816 305.679 182.903 305.735 182.985 305.768C183.048 305.794 183.09 305.799 183.099 305.8C183.099 305.8 183.099 305.8 183.099 305.8M183.458 305.6C183.458 305.6 183.457 305.601 183.457 305.601C183.382 305.679 183.294 305.735 183.213 305.768C183.15 305.794 183.109 305.799 183.099 305.8M183.213 305.432C183.294 305.465 183.382 305.522 183.457 305.599ZM183.457 305.599C183.457 305.599 183.458 305.6 183.458 305.6ZM41.8956 328.968H37.0716L36.9996 330.792C36.9756 331.45 36.9419 332.086 36.8956 332.694C36.8817 332.876 36.8667 333.055 36.8505 333.232C36.7149 334.709 36.4941 335.997 36.1398 337C35.9706 337.479 35.7709 337.893 35.5356 338.232H41.8956V328.968ZM33.7596 342V345.384H29.3916V338.232H29.9916C30.186 338.228 30.3674 338.196 30.5365 338.139C30.5643 338.13 30.5919 338.12 30.6191 338.109C30.8627 338.013 31.0801 337.862 31.274 337.661C31.6614 337.259 31.9555 336.659 32.1796 335.9C32.5739 334.564 32.7511 332.738 32.8375 330.64C32.8377 330.636 32.8379 330.632 32.838 330.628C32.8414 330.547 32.8445 330.466 32.8476 330.384L33.0396 325.2H46.5756V338.232H48.8556V345.384H44.5116V342H33.7596ZM38.4927 347C37.8208 348.968 35.9555 350.384 33.7596 350.384H29.3916C26.6302 350.384 24.3916 348.145 24.3916 345.384V338.232C24.3916 336.111 25.7124 334.298 27.5764 333.572C27.6065 333.381 27.6359 333.165 27.6638 332.924C27.752 332.159 27.8116 331.252 27.851 330.199C27.851 330.199 27.8511 330.198 27.8511 330.198C27.8511 330.198 27.8511 330.198 27.8511 330.198L28.043 325.015C28.1426 322.327 30.3502 320.2 33.0396 320.2H46.5756C48.3376 320.2 49.8867 321.111 50.7773 322.489C53.1873 320.811 56.1765 319.864 59.3839 319.864C63.2668 319.864 66.8299 321.252 69.4327 323.644C72.0161 321.247 75.5636 319.864 79.4447 319.864C81.3397 319.864 83.1712 320.172 84.86 320.799C85.5665 320.417 86.3753 320.2 87.2348 320.2H107.035C108.618 320.2 110.085 320.947 111.019 322.179C111.953 320.946 113.421 320.2 115.003 320.2H119.635C119.892 320.2 120.146 320.22 120.395 320.258C120.644 320.22 120.899 320.2 121.159 320.2H136.927C139.689 320.2 141.927 322.439 141.927 325.2V342C141.927 344.761 139.689 347 136.927 347H132.223C131.01 347 129.897 346.568 129.031 345.849C128.165 346.568 127.053 347 125.839 347H121.159C118.421 347 116.196 344.798 116.16 342.068C113.951 345.282 110.628 347.432 106.483 347.432C104.76 347.432 103.147 347.043 101.668 346.458C101.203 346.274 100.779 346.027 100.404 345.73C99.5201 346.52 98.3535 347 97.0748 347H92.3948C90.5996 347 89.0255 346.054 88.1436 344.633C85.6829 346.451 82.6549 347.336 79.4447 347.336C75.5636 347.336 72.0161 345.953 69.4327 343.557C66.8299 345.948 63.2668 347.336 59.3839 347.336C57.4014 347.336 55.5022 346.974 53.7716 346.302C53.3407 348.625 51.3036 350.384 48.8556 350.384H44.5116C42.3157 350.384 40.4504 348.968 39.7785 347H38.4927ZM50.0505 333.376C50.0488 333.45 50.0479 333.525 50.0479 333.6C50.0479 335.335 50.5174 336.911 51.3525 338.232C51.9895 339.239 52.8392 340.098 53.8556 340.766C55.3766 341.765 57.2709 342.336 59.3839 342.336C62.2899 342.336 64.7821 341.256 66.4588 339.468C67.884 337.948 68.7199 335.916 68.7199 333.6C68.7199 331.284 67.884 329.252 66.4588 327.732C64.7821 325.944 62.2899 324.864 59.3839 324.864C56.0179 324.864 53.207 326.313 51.5756 328.634C50.6403 329.964 50.0927 331.581 50.0505 333.376ZM92.3948 342H97.0748V328.968H102.211V325.556L108.547 337.296C108.478 337.396 108.409 337.49 108.339 337.578C107.811 338.239 107.233 338.549 106.483 338.588C106.428 338.591 106.372 338.592 106.315 338.592C106.261 338.592 106.206 338.591 106.152 338.589C105.758 338.573 105.344 338.5 104.866 338.37C104.791 338.349 104.714 338.327 104.635 338.304L103.507 341.808C103.534 341.819 103.56 341.829 103.587 341.839C103.992 341.996 104.389 342.122 104.78 342.218C105.301 342.345 105.811 342.417 106.315 342.43C106.371 342.431 106.427 342.432 106.483 342.432C107.253 342.432 107.991 342.298 108.688 342.031C109.87 341.578 110.933 340.745 111.826 339.54C112.129 339.13 112.413 338.678 112.675 338.184L119.635 325.2H115.003L110.947 333.312L107.035 325.2H87.2348V328.968H92.3948V342ZM83.6447 330.768L86.6687 328.032C86.4619 327.773 86.2412 327.53 86.0071 327.301C85.0064 326.323 83.7619 325.62 82.3156 325.228C82.2887 325.221 82.2618 325.213 82.2348 325.206C81.4423 324.999 80.59 324.884 79.6847 324.866C79.6051 324.865 79.5251 324.864 79.4447 324.864C76.5606 324.864 74.0914 325.926 72.433 327.711C71.0278 329.224 70.2047 331.255 70.2047 333.6C70.2047 335.945 71.0278 337.977 72.433 339.489C74.0914 341.274 76.5606 342.336 79.4447 342.336C79.5251 342.336 79.6051 342.335 79.6847 342.334C80.6208 342.316 81.5002 342.193 82.3156 341.972C83.7619 341.58 85.0064 340.878 86.0071 339.899C86.2412 339.67 86.4619 339.427 86.6687 339.168L83.6447 336.432C83.5916 336.496 83.5378 336.559 83.4834 336.62C83.4044 336.708 83.3242 336.794 83.2426 336.876C82.2641 337.865 81.0943 338.4 79.6847 338.4C79.604 338.4 79.524 338.398 79.4447 338.395C76.8141 338.287 75.0047 336.396 75.0047 333.6C75.0047 330.804 76.8141 328.913 79.4447 328.805C79.524 328.802 79.604 328.8 79.6847 328.8C80.6531 328.8 81.5083 329.052 82.2661 329.531C82.6113 329.749 82.9363 330.014 83.2426 330.324C83.3242 330.406 83.4044 330.492 83.4834 330.58C83.5378 330.641 83.5916 330.704 83.6447 330.768ZM121.159 342H125.839V328.968H132.223V342H136.927V325.2H121.159V342ZM27.3158 334.681C27.3157 334.681 27.3185 334.674 27.3249 334.661C27.3191 334.675 27.316 334.681 27.3158 334.681ZM59.4978 333.432C59.4341 333.406 59.3928 333.401 59.3839 333.4C59.375 333.401 59.3337 333.406 59.27 333.432C59.1886 333.465 59.101 333.522 59.0258 333.599C59.0253 333.599 59.0249 333.6 59.0245 333.6C59.0249 333.6 59.0253 333.601 59.0258 333.601C59.101 333.679 59.1886 333.735 59.27 333.768C59.3337 333.794 59.3751 333.799 59.3839 333.8C59.3928 333.799 59.4341 333.794 59.4978 333.768C59.5792 333.735 59.6668 333.679 59.7421 333.601C59.7425 333.601 59.7429 333.6 59.7434 333.6C59.7429 333.6 59.7425 333.599 59.7421 333.599C59.6668 333.522 59.5792 333.465 59.4978 333.432ZM142.503 325.2C142.503 322.439 144.741 320.2 147.503 320.2H163.271C164.844 320.2 166.247 320.926 167.163 322.061C169.451 320.651 172.194 319.864 175.118 319.864C181.336 319.864 186.734 323.423 188.682 328.964C190.603 323.401 195.957 319.864 202.163 319.864C205.333 319.864 208.326 320.727 210.77 322.499C213.168 320.812 216.153 319.864 219.367 319.864C221.627 319.864 223.796 320.303 225.741 321.197C226.576 320.571 227.614 320.2 228.737 320.2H233.417C236.179 320.2 238.417 322.439 238.417 325.2V325.587C239.144 325.632 239.88 325.727 240.609 325.884V325.2C240.609 322.439 242.848 320.2 245.609 320.2H250.289C251.35 320.2 252.334 320.531 253.144 321.094C253.954 320.53 254.939 320.2 255.998 320.2H269.534C270.15 320.2 270.739 320.311 271.283 320.514C271.827 320.311 272.417 320.2 273.032 320.2H277.76C278.951 320.2 280.045 320.617 280.904 321.312C281.781 320.603 282.887 320.2 284.048 320.2H289.04C289.305 320.2 289.567 320.221 289.824 320.262C290.081 320.221 290.344 320.2 290.612 320.2H303.788C306.55 320.2 308.788 322.439 308.788 325.2V328.872C308.788 330.003 308.413 331.046 307.78 331.883V334.943C308.6 335.834 309.1 337.022 309.1 338.328V342C309.1 344.761 306.862 347 304.1 347H290.612C290.352 347 290.097 346.98 289.848 346.942C289.599 346.98 289.345 347 289.088 347H283.736C282.642 347 281.598 346.642 280.748 346.009C279.915 346.632 278.88 347 277.76 347H273.032C272.417 347 271.827 346.889 271.283 346.686C270.739 346.889 270.15 347 269.534 347H264.854C263.22 347 261.769 346.216 260.856 345.003C260.601 345.231 260.328 345.449 260.034 345.654C258.352 346.83 256.443 347.288 254.558 347.288C253.47 347.288 252.389 347.134 251.344 346.889C251.004 346.962 250.651 347 250.289 347H245.609C244.425 347 243.336 346.588 242.48 345.9C240.633 346.699 238.619 347 236.681 347H228.737C227.614 347 226.576 346.629 225.741 346.004C223.796 346.898 221.627 347.336 219.367 347.336C216.153 347.336 213.168 346.388 210.77 344.701C208.326 346.473 205.333 347.336 202.163 347.336C195.957 347.336 190.603 343.8 188.682 338.236C186.734 343.777 181.336 347.336 175.118 347.336C172.194 347.336 169.451 346.549 167.163 345.139C166.247 346.274 164.844 347 163.271 347H158.567C157.353 347 156.241 346.568 155.375 345.849C154.509 346.568 153.396 347 152.183 347H147.503C144.741 347 142.503 344.761 142.503 342V325.2ZM158.567 342H163.271V325.2H147.503V342H152.183V328.968H158.567V342ZM168.271 339.701C169.942 341.35 172.341 342.336 175.118 342.336C180.494 342.336 184.454 338.64 184.454 333.6C184.454 328.56 180.494 324.864 175.118 324.864C172.341 324.864 169.942 325.85 168.271 327.499C166.708 329.041 165.782 331.164 165.782 333.6C165.782 336.036 166.708 338.159 168.271 339.701ZM228.737 342H236.681C238.208 342 239.532 341.751 240.609 341.259C242.589 340.354 243.732 338.628 243.761 336.12C243.761 336.088 243.761 336.056 243.761 336.024C243.761 333.499 242.638 331.859 240.609 331.081C239.688 330.728 238.58 330.552 237.305 330.552H233.417V325.2H228.737V342ZM233.417 338.592H236.369C236.476 338.592 236.58 338.588 236.681 338.58C237.418 338.522 238.016 338.255 238.417 337.801C238.782 337.389 238.985 336.823 238.985 336.12C238.985 336.088 238.985 336.056 238.984 336.024C238.966 335.365 238.767 334.884 238.417 334.551C238.137 334.285 237.761 334.113 237.305 334.02C237.023 333.963 236.709 333.936 236.369 333.936H233.417V338.592ZM210.139 334.095C210.2 335.308 210.485 336.43 210.96 337.43C211.643 338.87 212.717 340.058 214.077 340.905C215.55 341.821 217.358 342.336 219.367 342.336C219.447 342.336 219.527 342.335 219.607 342.334C220.543 342.316 221.422 342.193 222.237 341.972C222.765 341.829 223.266 341.645 223.737 341.421C224.559 341.031 225.293 340.521 225.929 339.899C226.163 339.67 226.384 339.427 226.591 339.168L223.567 336.432C223.513 336.496 223.46 336.559 223.405 336.62C223.326 336.708 223.246 336.794 223.165 336.876C222.186 337.865 221.016 338.4 219.607 338.4C219.526 338.4 219.446 338.398 219.367 338.395C216.736 338.287 214.927 336.396 214.927 333.6C214.927 330.804 216.736 328.913 219.367 328.805C219.446 328.802 219.526 328.8 219.607 328.8C221.016 328.8 222.186 329.335 223.164 330.324C223.246 330.406 223.326 330.492 223.405 330.58C223.46 330.641 223.513 330.704 223.567 330.768L226.591 328.032C226.384 327.773 226.163 327.53 225.929 327.301C225.293 326.679 224.559 326.169 223.737 325.779C223.266 325.555 222.765 325.371 222.237 325.228C221.422 325.007 220.543 324.884 219.607 324.866C219.527 324.865 219.447 324.864 219.367 324.864C217.358 324.864 215.55 325.379 214.077 326.295C212.717 327.142 211.643 328.33 210.96 329.77C210.485 330.77 210.2 331.892 210.139 333.105C210.131 333.268 210.127 333.433 210.127 333.6C210.127 333.767 210.131 333.932 210.139 334.095ZM208.726 339.899C208.96 339.67 209.181 339.427 209.387 339.168L206.363 336.432C206.31 336.496 206.257 336.559 206.202 336.62C206.123 336.708 206.043 336.794 205.961 336.876C205.838 337.002 205.711 337.119 205.581 337.23C204.683 337.992 203.635 338.4 202.403 338.4C202.323 338.4 202.243 338.398 202.163 338.395C199.533 338.287 197.723 336.396 197.723 333.6C197.723 330.804 199.533 328.913 202.163 328.805C202.243 328.802 202.323 328.8 202.403 328.8C203.635 328.8 204.683 329.208 205.581 329.97C205.711 330.081 205.838 330.198 205.961 330.324C206.043 330.406 206.123 330.492 206.202 330.58C206.257 330.641 206.31 330.704 206.363 330.768L209.387 328.032C209.181 327.773 208.96 327.53 208.726 327.301C208.279 326.864 207.785 326.483 207.245 326.159C206.575 325.758 205.836 325.445 205.034 325.228C204.219 325.007 203.34 324.884 202.403 324.866C202.324 324.865 202.244 324.864 202.163 324.864C196.835 324.864 192.923 328.488 192.923 333.6C192.923 338.712 196.835 342.336 202.163 342.336C202.244 342.336 202.324 342.335 202.403 342.334C203.34 342.316 204.219 342.193 205.034 341.972C205.836 341.755 206.575 341.442 207.245 341.041C207.785 340.717 208.279 340.336 208.726 339.899ZM250.289 342V325.2H245.609V342H250.289ZM264.854 342H269.534V325.2H255.998L255.758 331.896C255.692 333.64 255.58 335.11 255.289 336.189C255.117 336.828 254.883 337.329 254.558 337.669C254.287 337.954 253.953 338.126 253.54 338.172C253.47 338.179 253.398 338.184 253.323 338.184C253.319 338.184 253.315 338.184 253.31 338.184C253.094 338.184 252.878 338.16 252.662 338.112L252.398 342C252.714 342.076 253.018 342.138 253.31 342.184C253.752 342.253 254.168 342.288 254.558 342.288C254.812 342.288 255.053 342.274 255.283 342.246C255.363 342.236 255.441 342.225 255.517 342.212C256.29 342.081 256.928 341.785 257.455 341.336C259.045 339.981 259.628 337.237 259.854 333.467C259.882 333.011 259.904 332.54 259.922 332.054C259.922 332.051 259.922 332.048 259.922 332.045C259.927 331.932 259.931 331.819 259.934 331.704L260.03 328.968H264.854V342ZM289.088 342L283.784 333.312L289.04 325.2H284.048L280.04 331.728H277.76V325.2H273.032V342H277.76V335.568H279.92L283.736 342H289.088ZM290.612 342H304.1V338.328H295.316V335.256H302.78V331.704H295.316V328.872H303.788V325.2H290.612V342ZM175.232 333.432C175.169 333.406 175.127 333.401 175.118 333.4C175.109 333.401 175.068 333.406 175.004 333.432C174.923 333.465 174.835 333.522 174.76 333.599C174.76 333.599 174.759 333.6 174.759 333.6C174.759 333.6 174.76 333.601 174.76 333.601C174.835 333.679 174.923 333.735 175.004 333.768C175.068 333.794 175.109 333.799 175.118 333.8C175.127 333.799 175.169 333.794 175.232 333.768C175.314 333.735 175.401 333.679 175.476 333.601C175.477 333.601 175.477 333.6 175.478 333.6C175.477 333.6 175.477 333.599 175.476 333.599C175.401 333.522 175.314 333.465 175.232 333.432ZM178.563 305.6C178.563 308.504 180.555 310.4 183.099 310.4C185.643 310.4 187.635 308.504 187.635 305.6C187.635 302.696 185.643 300.8 183.099 300.8C180.555 300.8 178.563 302.696 178.563 305.6ZM54.8479 333.6C54.8479 336.504 56.8399 338.4 59.3839 338.4C61.9279 338.4 63.9199 336.504 63.9199 333.6C63.9199 330.696 61.9279 328.8 59.3839 328.8C56.8399 328.8 54.8479 330.696 54.8479 333.6ZM170.582 333.6C170.582 336.504 172.574 338.4 175.118 338.4C177.662 338.4 179.654 336.504 179.654 333.6C179.654 330.696 177.662 328.8 175.118 328.8C172.574 328.8 170.582 330.696 170.582 333.6Z" fill="white"/>
<rect x="16" y="397" width="125" height="43" rx="13" fill="white"/>
<rect x="195" y="397" width="125" height="43" rx="13" fill="white"/>
<g filter="url(#filter0_di)">
<path d="M107.236 254.95H181.035C187.139 254.95 192.105 249.985 192.105 243.881V165.9H166.275C160.171 165.9 155.205 160.934 155.205 154.83V129H107.236C101.132 129 96.166 133.966 96.166 140.07V243.881C96.166 249.985 101.132 254.95 107.236 254.95ZM121.996 180.905H166.275C168.315 180.905 169.965 182.556 169.965 184.595C169.965 186.635 168.315 188.285 166.275 188.285H121.996C119.956 188.285 118.306 186.635 118.306 184.595C118.306 182.556 119.956 180.905 121.996 180.905ZM121.996 195.665H166.275C168.315 195.665 169.965 197.316 169.965 199.355C169.965 201.395 168.315 203.045 166.275 203.045H121.996C119.956 203.045 118.306 201.395 118.306 199.355C118.306 197.316 119.956 195.665 121.996 195.665ZM121.996 210.425H166.275C168.315 210.425 169.965 212.075 169.965 214.115C169.965 216.154 168.315 217.805 166.275 217.805H121.996C119.956 217.805 118.306 216.154 118.306 214.115C118.306 212.075 119.956 210.425 121.996 210.425ZM121.996 225.185H151.515C153.555 225.185 155.205 226.835 155.205 228.875C155.205 230.914 153.555 232.565 151.515 232.565H121.996C119.956 232.565 118.306 230.914 118.306 228.875C118.306 226.835 119.956 225.185 121.996 225.185Z" fill="white"/>
<path d="M166.275 158.52H189.943L162.585 131.162V154.83C162.585 156.866 164.24 158.52 166.275 158.52Z" fill="white"/>
</g>
<g filter="url(#filter1_di)">
<path d="M211.311 226.661H249.157C252.287 226.661 254.834 223.877 254.834 220.456V176.744H241.588C238.457 176.744 235.911 173.96 235.911 170.538V156.06H211.311C208.181 156.06 205.634 158.843 205.634 162.265V220.456C205.634 223.877 208.181 226.661 211.311 226.661ZM218.88 185.155H241.588C242.634 185.155 243.48 186.08 243.48 187.223C243.48 188.367 242.634 189.292 241.588 189.292H218.88C217.834 189.292 216.988 188.367 216.988 187.223C216.988 186.08 217.834 185.155 218.88 185.155ZM218.88 193.429H241.588C242.634 193.429 243.48 194.354 243.48 195.497C243.48 196.64 242.634 197.565 241.588 197.565H218.88C217.834 197.565 216.988 196.64 216.988 195.497C216.988 194.354 217.834 193.429 218.88 193.429ZM218.88 201.702H241.588C242.634 201.702 243.48 202.627 243.48 203.771C243.48 204.914 242.634 205.839 241.588 205.839H218.88C217.834 205.839 216.988 204.914 216.988 203.771C216.988 202.627 217.834 201.702 218.88 201.702ZM218.88 209.976H234.019C235.064 209.976 235.911 210.901 235.911 212.044C235.911 213.187 235.064 214.113 234.019 214.113H218.88C217.834 214.113 216.988 213.187 216.988 212.044C216.988 210.901 217.834 209.976 218.88 209.976Z" fill="white"/>
</g>
<g filter="url(#filter2_di)">
<path d="M241.588 172.607H253.725L239.696 157.272V170.538C239.696 171.68 240.544 172.607 241.588 172.607Z" fill="white"/>
</g>
<path d="M252 5C252 26.7477 243.361 47.6048 227.983 62.9828C212.605 78.3607 191.748 87 170 87C148.252 87 127.395 78.3607 112.017 62.9828C96.6393 47.6048 88 26.7478 88 5.00002L170 5H252Z" fill="white"/>
<path d="M48.032 423.216C48.032 414.96 35.328 417.52 35.328 414.096C35.328 412.976 36.288 412.08 38.944 412.08C40.896 412.08 43.008 412.656 45.152 413.808L47.104 409.104C45.312 408.048 42.976 407.408 40.608 407.216V403.76H36.768V407.28C31.584 407.92 29.056 410.896 29.056 414.416C29.056 422.736 41.792 420.144 41.792 423.696C41.792 424.784 40.768 425.52 38.144 425.52C35.552 425.52 32.736 424.624 30.752 423.312L28.672 427.984C30.528 429.264 33.568 430.192 36.768 430.416V433.84H40.608V430.288C45.6 429.552 48.032 426.608 48.032 423.216Z" fill="#00BCBC"/>
<path d="M61.22 423.36L64.44 420.32C66.4 418.5 66.78 417.26 66.78 415.9C66.78 413.36 64.7 411.76 61.58 411.76C59.06 411.76 57.1 412.78 56.02 414.36L58.38 415.88C59.06 414.94 60.08 414.48 61.28 414.48C62.76 414.48 63.52 415.12 63.52 416.22C63.52 416.9 63.3 417.62 62.06 418.8L56.66 423.9V426H67.24V423.36H61.22ZM74.5378 426.24C77.9978 426.24 80.5378 423.62 80.5378 419C80.5378 414.38 77.9978 411.76 74.5378 411.76C71.0978 411.76 68.5378 414.38 68.5378 419C68.5378 423.62 71.0978 426.24 74.5378 426.24ZM74.5378 423.5C72.9378 423.5 71.8178 422.18 71.8178 419C71.8178 415.82 72.9378 414.5 74.5378 414.5C76.1578 414.5 77.2778 415.82 77.2778 419C77.2778 422.18 76.1578 423.5 74.5378 423.5ZM93.7761 426.24C97.2361 426.24 99.7761 423.62 99.7761 419C99.7761 414.38 97.2361 411.76 93.7761 411.76C90.3361 411.76 87.7761 414.38 87.7761 419C87.7761 423.62 90.3361 426.24 93.7761 426.24ZM93.7761 423.5C92.1761 423.5 91.0561 422.18 91.0561 419C91.0561 415.82 92.1761 414.5 93.7761 414.5C95.3961 414.5 96.5161 415.82 96.5161 419C96.5161 422.18 95.3961 423.5 93.7761 423.5ZM107.35 426.24C110.81 426.24 113.35 423.62 113.35 419C113.35 414.38 110.81 411.76 107.35 411.76C103.91 411.76 101.35 414.38 101.35 419C101.35 423.62 103.91 426.24 107.35 426.24ZM107.35 423.5C105.75 423.5 104.63 422.18 104.63 419C104.63 415.82 105.75 414.5 107.35 414.5C108.97 414.5 110.09 415.82 110.09 419C110.09 422.18 108.97 423.5 107.35 423.5ZM120.925 426.24C124.385 426.24 126.925 423.62 126.925 419C126.925 414.38 124.385 411.76 120.925 411.76C117.485 411.76 114.925 414.38 114.925 419C114.925 423.62 117.485 426.24 120.925 426.24ZM120.925 423.5C119.325 423.5 118.205 422.18 118.205 419C118.205 415.82 119.325 414.5 120.925 414.5C122.545 414.5 123.665 415.82 123.665 419C123.665 422.18 122.545 423.5 120.925 423.5Z" fill="black"/>
<path d="M236.14 412V414.6H238.94V426H242.18V412H236.14ZM250.612 426.24C254.072 426.24 256.612 423.62 256.612 419C256.612 414.38 254.072 411.76 250.612 411.76C247.172 411.76 244.612 414.38 244.612 419C244.612 423.62 247.172 426.24 250.612 426.24ZM250.612 423.5C249.012 423.5 247.892 422.18 247.892 419C247.892 415.82 249.012 414.5 250.612 414.5C252.232 414.5 253.352 415.82 253.352 419C253.352 422.18 252.232 423.5 250.612 423.5ZM277.89 426L277.85 415.24H274.93L271.27 421.46L267.83 415.24H264.57V426H267.39V419.54L270.53 424.96H271.85L275.07 419.56V426H277.89ZM280.879 426H283.759L288.979 419.6V426H292.079V415.24H289.219L283.979 421.64V415.24H280.879V426ZM295.078 426H298.178V421.98H302.858V426H305.978V415.24H302.858V419.44H298.178V415.24H295.078V426Z" fill="black"/>
<path d="M216.5 406C209.595 406 204 411.595 204 418.5C204 425.405 209.595 431 216.5 431C223.405 431 229 425.405 229 418.5C229 411.595 223.405 406 216.5 406Z" fill="#00BCBC"/>
<path fill-rule="evenodd" clip-rule="evenodd" d="M215.961 410C214.878 410 214 410.878 214 411.961V419.153C214 419.311 214.019 419.464 214.054 419.611C214.047 420.263 214.376 420.901 214.974 421.262L220.414 424.535C221.313 425.077 222.481 424.786 223.022 423.887C223.563 422.988 223.273 421.82 222.374 421.279L217.923 418.6V411.961C217.923 410.878 217.045 410 215.961 410Z" fill="white"/>
<g filter="url(#filter3_d)">
<path d="M162.531 400.393L185.975 433.213C179.766 434.57 168.698 428.331 168.698 428.331C168.698 428.331 160.834 438.706 154.912 440L162.531 400.393Z" fill="white"/>
<path fill-rule="evenodd" clip-rule="evenodd" d="M154.912 440L158.469 421.51C161.522 424.284 164.956 426.604 168.698 428.331C168.698 428.331 160.834 438.706 154.912 440Z" fill="#BBFFF9"/>
</g>
<path d="M138.812 25.4V34.274H146.352V66H157.836V25.4H138.812ZM181.69 24.588C172.874 24.588 165.798 29.982 165.798 38.45C165.798 46.222 172.12 51.268 179.776 51.268C183.604 51.268 186.62 50.224 188.882 48.31C188.244 54.458 184.416 57.706 178.674 57.706C176.064 57.706 173.512 57.242 171.192 55.618L167.016 63.854C169.974 65.768 174.382 66.812 178.906 66.812C191.782 66.812 200.54 58.75 200.54 44.598C200.54 31.432 193.116 24.588 181.69 24.588ZM182.502 43.032C179.196 43.032 176.934 41.06 176.934 37.928C176.934 34.738 179.196 32.766 182.444 32.766C185.924 32.766 188.128 34.854 188.128 37.87C188.128 40.944 185.808 43.032 182.502 43.032Z" fill="#46BBCE"/>
<defs>
<filter id="filter0_di" x="90.166" y="123" width="115.939" height="145.95" filterUnits="userSpaceOnUse" color-interpolation-filters="sRGB">
<feFlood flood-opacity="0" result="BackgroundImageFix"/>
<feColorMatrix in="SourceAlpha" type="matrix" values="0 0 0 0 0 0 0 0 0 0 0 0 0 0 0 0 0 0 127 0"/>
<feOffset dx="4" dy="4"/>
<feGaussianBlur stdDeviation="5"/>
<feColorMatrix type="matrix" values="0 0 0 0 0.1715 0 0 0 0 0.816667 0 0 0 0 0.816667 0 0 0 1 0"/>
<feBlend mode="normal" in2="BackgroundImageFix" result="effect1_dropShadow"/>
<feBlend mode="normal" in="SourceGraphic" in2="effect1_dropShadow" result="shape"/>
<feColorMatrix in="SourceAlpha" type="matrix" values="0 0 0 0 0 0 0 0 0 0 0 0 0 0 0 0 0 0 127 0" result="hardAlpha"/>
<feOffset dx="-4" dy="-4"/>
<feGaussianBlur stdDeviation="4.5"/>
<feComposite in2="hardAlpha" operator="arithmetic" k2="-1" k3="1"/>
<feColorMatrix type="matrix" values="0 0 0 0 0.441945 0 0 0 0 0.887146 0 0 0 0 0.895833 0 0 0 0.52 0"/>
<feBlend mode="normal" in2="shape" result="effect2_innerShadow"/>
</filter>
<filter id="filter1_di" x="199.634" y="150.06" width="69.1994" height="90.6011" filterUnits="userSpaceOnUse" color-interpolation-filters="sRGB">
<feFlood flood-opacity="0" result="BackgroundImageFix"/>
<feColorMatrix in="SourceAlpha" type="matrix" values="0 0 0 0 0 0 0 0 0 0 0 0 0 0 0 0 0 0 127 0"/>
<feOffset dx="4" dy="4"/>
<feGaussianBlur stdDeviation="5"/>
<feColorMatrix type="matrix" values="0 0 0 0 0.1715 0 0 0 0 0.816667 0 0 0 0 0.816667 0 0 0 1 0"/>
<feBlend mode="normal" in2="BackgroundImageFix" result="effect1_dropShadow"/>
<feBlend mode="normal" in="SourceGraphic" in2="effect1_dropShadow" result="shape"/>
<feColorMatrix in="SourceAlpha" type="matrix" values="0 0 0 0 0 0 0 0 0 0 0 0 0 0 0 0 0 0 127 0" result="hardAlpha"/>
<feOffset dx="-4" dy="-4"/>
<feGaussianBlur stdDeviation="4.5"/>
<feComposite in2="hardAlpha" operator="arithmetic" k2="-1" k3="1"/>
<feColorMatrix type="matrix" values="0 0 0 0 0.441945 0 0 0 0 0.887146 0 0 0 0 0.895833 0 0 0 0.52 0"/>
<feBlend mode="normal" in2="shape" result="effect2_innerShadow"/>
</filter>
<filter id="filter2_di" x="233.696" y="151.272" width="34.0295" height="35.3352" filterUnits="userSpaceOnUse" color-interpolation-filters="sRGB">
<feFlood flood-opacity="0" result="BackgroundImageFix"/>
<feColorMatrix in="SourceAlpha" type="matrix" values="0 0 0 0 0 0 0 0 0 0 0 0 0 0 0 0 0 0 127 0"/>
<feOffset dx="4" dy="4"/>
<feGaussianBlur stdDeviation="5"/>
<feColorMatrix type="matrix" values="0 0 0 0 0.1715 0 0 0 0 0.816667 0 0 0 0 0.816667 0 0 0 1 0"/>
<feBlend mode="normal" in2="BackgroundImageFix" result="effect1_dropShadow"/>
<feBlend mode="normal" in="SourceGraphic" in2="effect1_dropShadow" result="shape"/>
<feColorMatrix in="SourceAlpha" type="matrix" values="0 0 0 0 0 0 0 0 0 0 0 0 0 0 0 0 0 0 127 0" result="hardAlpha"/>
<feOffset dx="-4" dy="-4"/>
<feGaussianBlur stdDeviation="4.5"/>
<feComposite in2="hardAlpha" operator="arithmetic" k2="-1" k3="1"/>
<feColorMatrix type="matrix" values="0 0 0 0 0.441945 0 0 0 0 0.887146 0 0 0 0 0.895833 0 0 0 0.52 0"/>
<feBlend mode="normal" in2="shape" result="effect2_innerShadow"/>
</filter>
<filter id="filter3_d" x="143" y="393" width="52.975" height="57.0001" filterUnits="userSpaceOnUse" color-interpolation-filters="sRGB">
<feFlood flood-opacity="0" result="BackgroundImageFix"/>
<feColorMatrix in="SourceAlpha" type="matrix" values="0 0 0 0 0 0 0 0 0 0 0 0 0 0 0 0 0 0 127 0"/>
<feOffset dx="3" dy="3"/>
<feGaussianBlur stdDeviation="3.5"/>
<feColorMatrix type="matrix" values="0 0 0 0 0.279 0 0 0 0 0.9 0 0 0 0 0.840225 0 0 0 1 0"/>
<feBlend mode="normal" in2="BackgroundImageFix" result="effect1_dropShadow"/>
<feBlend mode="normal" in="SourceGraphic" in2="effect1_dropShadow" result="shape"/>
</filter>
<linearGradient id="paint0_linear" x1="5.5" y1="-157" x2="289.5" y2="495.5" gradientUnits="userSpaceOnUse">
<stop stop-color="#00C2FF"/>
<stop offset="1" stop-color="#1EE7CF"/>
</linearGradient>
<linearGradient id="paint1_linear" x1="49" y1="11" x2="301.5" y2="474" gradientUnits="userSpaceOnUse">
<stop stop-color="#19D2EB"/>
<stop offset="1" stop-color="#55F5DF"/>
</linearGradient>
<linearGradient id="paint2_linear" x1="59.5" y1="-9" x2="291.5" y2="495.5" gradientUnits="userSpaceOnUse">
<stop stop-color="#00E0FF"/>
<stop offset="1" stop-color="#42F2D1"/>
</linearGradient>
<linearGradient id="paint3_linear" x1="51" y1="11" x2="303.5" y2="474" gradientUnits="userSpaceOnUse">
<stop stop-color="#B2F6FF"/>
<stop offset="1" stop-color="#28D7BE"/>
</linearGradient>
<linearGradient id="paint4_linear" x1="27" y1="473.49" x2="247.084" y2="60.8524" gradientUnits="userSpaceOnUse">
<stop stop-color="#73F5FF"/>
<stop offset="0.99" stop-color="#7AFFEC"/>
</linearGradient>
<linearGradient id="paint5_linear" x1="129.774" y1="288" x2="310" y2="288" gradientUnits="userSpaceOnUse">
<stop stop-color="white"/>
<stop offset="0.99" stop-color="white" stop-opacity="0.4"/>
</linearGradient>
<linearGradient id="paint6_linear" x1="59.8997" y1="86" x2="140" y2="86" gradientUnits="userSpaceOnUse">
<stop stop-color="white"/>
<stop offset="0.99" stop-color="white" stop-opacity="0.4"/>
</linearGradient>
</defs>
</svg>
