<svg width="338" height="474" viewBox="0 0 338 474" fill="none" xmlns="http://www.w3.org/2000/svg">
<rect x="2.5" y="2.5" width="331" height="469" rx="32.5" fill="url(#paint0_linear)" stroke="url(#paint1_linear)" stroke-width="5"/>
<mask id="mask0" mask-type="alpha" maskUnits="userSpaceOnUse" x="2" y="0" width="336" height="474">
<rect x="-2.5" y="2.5" width="331" height="469" rx="41.5" transform="matrix(-1 0 0 1 333 0)" fill="url(#paint2_linear)" stroke="url(#paint3_linear)" stroke-width="5"/>
</mask>
<g mask="url(#mask0)">
<path d="M129.747 5.0093C129.747 5.0093 234.654 47.0947 238.632 101.845C242.609 156.595 219.132 152.615 226.093 185.086C233.053 217.557 347.517 255.616 316.691 356.766C285.865 457.916 188.416 370.584 85 469H301C317.569 469 331 455.569 331 439V35.0014C331 18.4323 317.568 5.00062 300.999 5.00139L129.747 5.0093Z" fill="url(#paint4_linear)" fill-opacity="0.5"/>
</g>
<path opacity="0.46" d="M114.88 323C95.8977 322.976 77.349 317.326 61.5777 306.763C45.8065 296.199 33.5206 281.198 26.2731 263.654C19.0255 246.11 17.1416 226.812 20.8594 208.198C24.5771 189.583 33.7297 172.489 47.1603 159.075C60.591 145.661 77.6967 136.53 96.3156 132.836C114.934 129.141 134.231 131.05 151.765 138.319C169.3 145.589 184.286 157.893 194.829 173.678C205.373 189.462 211 208.018 211 227C210.955 252.468 200.81 276.878 182.79 294.875C164.771 312.873 140.348 322.987 114.88 323ZM114.88 157.396C101.117 157.415 87.6698 161.514 76.2362 169.173C64.8026 176.833 55.8963 187.71 50.643 200.431C45.3896 213.151 44.025 227.143 46.7215 240.638C49.4181 254.133 56.0547 266.527 65.7928 276.251C75.5309 285.976 87.9332 292.595 101.432 295.273C114.931 297.951 128.921 296.567 141.634 291.296C154.347 286.025 165.212 277.104 172.856 265.66C180.5 254.215 184.58 240.762 184.58 227C184.522 208.55 177.154 190.874 164.09 177.846C151.026 164.818 133.33 157.499 114.88 157.493V157.396Z" fill="url(#paint5_linear)" fill-opacity="0.7"/>
<path opacity="0.46" d="M216.95 105C209.041 104.99 201.312 102.636 194.741 98.2344C188.169 93.8331 183.05 87.5825 180.03 80.2726C177.011 72.9627 176.226 64.9216 177.775 57.1657C179.324 49.4097 183.137 42.2871 188.733 36.698C194.33 31.1089 201.457 27.3043 209.215 25.7649C216.973 24.2256 225.013 25.0207 232.319 28.0496C239.625 31.0786 245.869 36.2055 250.262 42.7824C254.655 49.3593 257 57.0909 257 65C256.981 75.6116 252.754 85.7826 245.246 93.2815C237.738 100.78 227.561 104.995 216.95 105ZM216.95 35.9985C211.216 36.0064 205.612 37.7141 200.848 40.9056C196.084 44.0972 192.373 48.6294 190.185 53.9294C187.996 59.2294 187.427 65.0594 188.551 70.6825C189.674 76.3056 192.439 81.4694 196.497 85.5213C200.555 89.5732 205.722 92.3314 211.347 93.4472C216.971 94.5629 222.801 93.9863 228.098 91.79C233.395 89.5938 237.922 85.8766 241.107 81.1082C244.292 76.3398 245.991 70.7342 245.991 65C245.968 57.3124 242.898 49.9477 237.454 44.5193C232.011 39.0908 224.637 36.0412 216.95 36.0386V35.9985Z" fill="url(#paint6_linear)"/>
<path d="M94.2458 297.552C94.2458 293.16 91.1978 290.52 85.5098 290.136V288.408H81.1658V290.136C75.4778 290.568 72.4298 293.16 72.4298 297.552C72.4298 301.92 75.4778 304.536 81.1658 304.944V306.792H85.5098V304.944C91.2218 304.608 94.2458 301.92 94.2458 297.552ZM85.5098 301.248V293.856C88.2938 294.168 89.6378 295.32 89.6378 297.528C89.6378 299.736 88.3658 300.936 85.5098 301.248ZM77.0378 297.552C77.0378 295.32 78.2858 294.192 81.1658 293.856V301.224C78.4538 300.888 77.0378 299.76 77.0378 297.552Z" fill="black"/>
<path d="M102.618 302.328V299.256H110.082V295.704H102.618V292.872H111.09V289.2H97.914V306H111.402V302.328H102.618Z" fill="black"/>
<path d="M123.325 288.192C126.805 288.192 128.293 286.8 128.293 284.28H125.101C125.077 285.384 124.525 285.936 123.325 285.936C122.125 285.936 121.621 285.384 121.597 284.28H118.405C118.405 286.8 119.845 288.192 123.325 288.192ZM115.309 306H119.797L126.709 296.16V306H131.389V289.2H126.925L119.989 299.064V289.2H115.309V306Z" fill="black"/>
<path d="M146.805 306H152.157L146.853 297.312L152.109 289.2H147.117L143.109 295.728H140.829V289.2H136.101V306H140.829V299.568H142.989L146.805 306Z" fill="black"/>
<path d="M157.005 300.816C155.421 300.816 154.269 301.872 154.269 303.504C154.269 304.632 154.821 305.448 155.685 305.856L154.557 309.768H157.413L158.925 306.264C159.621 304.704 159.717 304.176 159.717 303.504C159.717 301.872 158.565 300.816 157.005 300.816Z" fill="black"/>
<path d="M187.346 302.232V289.2H173.81L173.618 294.384C173.45 298.872 172.898 302.184 170.762 302.232H170.162V309.384H174.53V306H185.282V309.384H189.626V302.232H187.346ZM177.77 294.792L177.842 292.968H182.666V302.232H176.306C177.29 300.816 177.65 298.08 177.77 294.792Z" fill="black"/>
<path d="M206.198 306H211.142L203.702 289.2H199.022L191.606 306H196.454L197.774 302.736H204.878L206.198 306ZM199.166 299.232L201.326 293.856L203.486 299.232H199.166Z" fill="black"/>
<path d="M232.457 306H237.929L233.153 297.192L237.641 289.2H232.673L229.241 295.728H227.201V289.2H222.545V295.728H220.409L217.049 289.2H212.057L216.545 297.192L211.769 306H217.265L220.553 299.568H222.545V306H227.201V299.568H229.193L232.457 306Z" fill="black"/>
<path d="M245.366 302.328V299.256H252.83V295.704H245.366V292.872H253.838V289.2H240.662V306H254.15V302.328H245.366Z" fill="black"/>
<path d="M57.8919 324.2V331.496C57.0519 331.88 56.0199 332.072 54.9159 332.072C52.8279 332.072 51.7479 331.016 51.7479 328.832V324.2H47.0679V329.36C47.0679 333.632 49.6119 335.936 54.3159 335.936C55.4199 335.936 56.5959 335.72 57.8919 335.288V341H62.5719V324.2H57.8919Z" fill="black"/>
<path d="M67.3679 341H71.8559L78.7679 331.16V341H83.4479V324.2H78.9839L72.0479 334.064V324.2H67.3679V341Z" fill="black"/>
<path d="M101.791 324.2H86.8154V327.968H91.9754V341H96.6554V327.968H101.791V324.2Z" fill="black"/>
<path d="M117.25 341H122.194L114.754 324.2H110.074L102.658 341H107.506L108.826 337.736H115.93L117.25 341ZM110.218 334.232L112.378 328.856L114.538 334.232H110.218Z" fill="black"/>
<path d="M138.012 324.2H123.036V327.968H128.196V341H132.876V327.968H138.012V324.2Z" fill="black"/>
<path d="M149.97 329.552H146.082V324.2H141.402V341H149.346C153.714 341 156.426 338.96 156.426 335.024C156.426 331.352 154.05 329.552 149.97 329.552ZM149.034 337.592H146.082V332.936H149.034C150.642 332.936 151.65 333.536 151.65 335.12C151.65 336.704 150.618 337.592 149.034 337.592Z" fill="black"/>
<path d="M179.433 324.2V330.512H172.953V324.2H168.201V341H172.953V334.448H179.433V341H184.185V324.2H179.433Z" fill="black"/>
<path d="M193.699 337.328V334.256H201.163V330.704H193.699V327.872H202.171V324.2H188.995V341H202.482V337.328H193.699Z" fill="black"/>
<path d="M214.574 341H222.974C227.342 341 229.91 339.008 229.91 335.6C229.91 332.36 227.678 330.584 223.598 330.584H219.254V327.872H228.614V324.2H214.574V341ZM219.254 337.592V333.968H222.662C224.294 333.968 225.11 334.544 225.11 335.744C225.11 336.944 224.246 337.592 222.662 337.592H219.254Z" fill="black"/>
<path d="M244.212 324.2L240.156 332.312L236.244 324.2H231.228L237.756 336.296C237.132 337.208 236.46 337.592 235.524 337.592C235.02 337.592 234.492 337.496 233.844 337.304L232.716 340.808C233.748 341.216 234.732 341.432 235.692 341.432C238.212 341.432 240.396 339.992 241.884 337.184L248.844 324.2H244.212Z" fill="black"/>
<path d="M267.008 337.232V324.2H253.472L253.28 329.384C253.112 333.872 252.56 337.184 250.424 337.232H249.824V344.384H254.192V341H264.944V344.384H269.288V337.232H267.008ZM257.432 329.792L257.504 327.968H262.328V337.232H255.968C256.952 335.816 257.312 333.08 257.432 329.792Z" fill="black"/>
<path d="M284.088 324.2L280.032 332.312L276.12 324.2H271.104L277.632 336.296C277.008 337.208 276.336 337.592 275.4 337.592C274.896 337.592 274.368 337.496 273.72 337.304L272.592 340.808C273.624 341.216 274.608 341.432 275.568 341.432C278.088 341.432 280.272 339.992 281.76 337.184L288.72 324.2H284.088Z" fill="black"/>
<path fill-rule="evenodd" clip-rule="evenodd" d="M81.1658 290.136C81.0208 290.147 80.8776 290.159 80.7361 290.173C80.6603 290.181 80.585 290.188 80.5101 290.197C75.2439 290.774 72.4298 293.332 72.4298 297.552C72.4298 301.749 75.2439 304.329 80.5101 304.886C80.5762 304.893 80.6427 304.9 80.7096 304.906C80.8597 304.92 81.0118 304.933 81.1658 304.944V306.792H85.5098V304.944C85.6449 304.936 85.7784 304.927 85.9105 304.916C85.9962 304.909 86.0812 304.902 86.1655 304.894C89.3297 304.596 91.6005 303.529 92.914 301.82C93.7954 300.673 94.2458 299.238 94.2458 297.552C94.2458 297.544 94.2458 297.536 94.2458 297.528C94.2415 295.848 93.7899 294.425 92.914 293.288C91.5974 291.578 89.3219 290.514 86.1655 290.191C86.0852 290.183 86.0044 290.176 85.9231 290.168C85.7869 290.156 85.6491 290.145 85.5098 290.136V288.408H81.1658V290.136ZM86.1658 301.156C86.0197 301.181 85.8687 301.204 85.7127 301.224C85.646 301.233 85.5783 301.241 85.5098 301.248V293.856C85.7381 293.882 85.9568 293.913 86.1658 293.95C88.5052 294.364 89.6378 295.501 89.6378 297.528C89.6378 297.536 89.6378 297.544 89.6377 297.552C89.6293 299.568 88.552 300.739 86.1658 301.156ZM81.1658 293.856C80.9369 293.883 80.7183 293.914 80.5098 293.951C78.0953 294.378 77.0378 295.497 77.0378 297.552C77.0378 299.575 78.2259 300.691 80.5098 301.122C80.7193 301.162 80.9379 301.196 81.1658 301.224V293.856ZM89.827 309.316C91.0498 308.993 92.2191 308.54 93.3008 307.932C94.0564 309.734 95.8373 311 97.914 311H111.402C112.095 311 112.756 310.859 113.356 310.604C113.956 310.859 114.616 311 115.309 311H119.797C121.097 311 122.332 310.495 123.253 309.613C124.151 310.472 125.369 311 126.709 311H131.389C132.241 311 133.043 310.787 133.745 310.411C134.447 310.787 135.249 311 136.101 311H140.829C141.949 311 142.983 310.632 143.817 310.009C144.667 310.643 145.711 311 146.805 311H149.711C149.872 311.634 150.158 312.238 150.561 312.774C151.506 314.03 152.986 314.768 154.557 314.768H157.413C159.408 314.768 161.213 313.581 162.004 311.749L163.504 308.272C164.309 306.465 164.717 305.19 164.717 303.504C164.717 301.464 163.969 299.453 162.425 297.957C160.902 296.481 158.926 295.816 157.005 295.816C155.698 295.816 154.359 296.12 153.153 296.784L156.305 291.919C157.301 290.381 157.377 288.422 156.502 286.812C155.627 285.202 153.941 284.2 152.109 284.2H147.117C145.956 284.2 144.85 284.603 143.973 285.312C143.114 284.617 142.02 284.2 140.829 284.2H136.101C135.249 284.2 134.447 284.413 133.745 284.789C133.597 284.71 133.445 284.638 133.289 284.574C133.292 284.475 133.293 284.377 133.293 284.28C133.293 281.519 131.055 279.28 128.293 279.28H125.101C124.485 279.28 123.895 279.392 123.349 279.596C122.804 279.392 122.213 279.28 121.597 279.28H118.405C115.644 279.28 113.405 281.519 113.405 284.28C113.405 284.377 113.407 284.475 113.409 284.574C113.339 284.603 113.269 284.633 113.2 284.666C112.559 284.367 111.844 284.2 111.09 284.2H97.914C95.8658 284.2 94.1052 285.432 93.3324 287.195C92.2198 286.564 91.0147 286.098 89.7555 285.766C88.8726 284.35 87.3012 283.408 85.5098 283.408H81.1658C79.3653 283.408 77.787 284.36 76.9067 285.788C74.8906 286.325 73.0105 287.204 71.4281 288.548C68.6969 290.868 67.4298 294.082 67.4298 297.552C67.4298 301.015 68.7002 304.227 71.4281 306.544C72.9891 307.87 74.8401 308.744 76.8281 309.281C77.691 310.781 79.3104 311.792 81.1658 311.792H85.5098C87.3506 311.792 88.9591 310.797 89.827 309.316ZM97.914 306H111.402V302.328H102.618V299.256H110.082V295.704H102.618V292.872H111.09V289.2H97.914V306ZM115.309 306H119.797L126.709 296.16V306H131.389V289.2H126.925L119.989 299.064V289.2H115.309V306ZM118.406 284.349C118.421 285.782 118.911 286.843 119.989 287.483C120.426 287.742 120.96 287.933 121.597 288.05C121.604 288.052 121.612 288.053 121.619 288.054C122.122 288.146 122.69 288.192 123.325 288.192C123.89 288.192 124.402 288.155 124.864 288.083C124.945 288.071 125.024 288.057 125.101 288.042C125.148 288.033 125.194 288.024 125.239 288.014C125.921 287.87 126.48 287.639 126.925 287.325C127.847 286.675 128.278 285.67 128.293 284.349C128.293 284.326 128.293 284.303 128.293 284.28H125.101C125.099 284.375 125.093 284.465 125.083 284.552C124.993 285.346 124.569 285.798 123.754 285.909C123.621 285.927 123.479 285.936 123.325 285.936C123.262 285.936 123.201 285.934 123.142 285.931C122.139 285.88 121.678 285.392 121.606 284.467C121.602 284.407 121.599 284.344 121.597 284.28H118.405C118.405 284.303 118.405 284.326 118.406 284.349ZM123.305 284.28H123.39C123.387 284.269 123.384 284.256 123.379 284.243C123.379 284.242 123.379 284.242 123.379 284.241C123.37 284.213 123.36 284.181 123.346 284.145C123.338 284.167 123.331 284.187 123.325 284.206C123.321 284.218 123.318 284.23 123.315 284.241C123.315 284.242 123.314 284.242 123.314 284.243C123.31 284.256 123.307 284.269 123.305 284.28ZM136.101 289.2V306H140.829V299.568H142.989L146.805 306H152.157L146.853 297.312L152.109 289.2H147.117L143.109 295.728H140.829V289.2H136.101ZM155.208 301.403C154.623 301.872 154.269 302.599 154.269 303.504C154.269 303.765 154.298 304.01 154.355 304.236C154.36 304.257 154.365 304.278 154.371 304.299C154.398 304.399 154.431 304.496 154.469 304.588C154.496 304.654 154.525 304.718 154.557 304.78C154.802 305.259 155.193 305.624 155.685 305.856L154.557 309.768H157.413L158.925 306.264C159.621 304.704 159.717 304.176 159.717 303.504C159.717 303.253 159.69 303.016 159.638 302.794C159.353 301.572 158.325 300.816 157.005 300.816C156.299 300.816 155.679 301.026 155.208 301.403ZM182.666 302.232V292.968H177.842L177.78 294.538L177.78 294.54L177.77 294.792C177.746 295.45 177.712 296.086 177.666 296.694C177.652 296.876 177.637 297.055 177.621 297.232C177.485 298.709 177.265 299.997 176.91 301C176.741 301.479 176.541 301.893 176.306 302.232H182.666ZM174.53 309.384H170.162V302.232H170.762C170.957 302.228 171.138 302.196 171.307 302.139C171.335 302.13 171.362 302.12 171.39 302.109C171.633 302.013 171.851 301.862 172.045 301.661C172.432 301.259 172.726 300.659 172.95 299.9C173.344 298.564 173.522 296.738 173.608 294.64C173.608 294.636 173.608 294.632 173.609 294.628C173.612 294.547 173.615 294.466 173.618 294.384L173.81 289.2H187.346V302.232H189.626V309.384H185.282V306H174.53V309.384ZM180.549 311H179.263C178.591 312.968 176.726 314.384 174.53 314.384H170.162C167.401 314.384 165.162 312.145 165.162 309.384V302.232C165.162 300.111 166.483 298.298 168.347 297.572C168.377 297.381 168.406 297.165 168.434 296.924C168.523 296.159 168.582 295.251 168.622 294.197L168.814 289.015C168.913 286.327 171.121 284.2 173.81 284.2H187.346C190.108 284.2 192.346 286.439 192.346 289.2V291.942L194.448 287.181C195.248 285.369 197.041 284.2 199.022 284.2H203.702C205.402 284.2 206.965 285.062 207.88 286.453C208.801 285.051 210.369 284.2 212.057 284.2H217.049C218.044 284.2 218.995 284.496 219.797 285.023C220.585 284.503 221.53 284.2 222.545 284.2H227.201C228.211 284.2 229.151 284.5 229.938 285.015C230.737 284.493 231.683 284.2 232.673 284.2H237.641C238.16 284.2 238.668 284.281 239.15 284.433C239.627 284.282 240.135 284.2 240.662 284.2H253.838C256.6 284.2 258.838 286.439 258.838 289.2V292.872C258.838 294.003 258.463 295.046 257.83 295.883V298.943C258.65 299.834 259.15 301.022 259.15 302.328V306C259.15 308.761 256.912 311 254.15 311H240.662C240.188 311 239.729 310.934 239.294 310.81C238.855 310.935 238.397 311 237.929 311H232.457C231.511 311 230.605 310.733 229.83 310.254C229.066 310.727 228.165 311 227.201 311H222.545C221.576 311 220.671 310.724 219.904 310.247C219.126 310.73 218.216 311 217.265 311H211.769C211.664 311 211.559 310.997 211.455 310.99C211.351 310.997 211.247 311 211.142 311H206.198C204.16 311 202.327 309.764 201.563 307.875L201.507 307.736H201.145L201.089 307.875C200.325 309.764 198.492 311 196.454 311H194.359C193.687 312.968 191.822 314.384 189.626 314.384H185.282C183.086 314.384 181.221 312.968 180.549 311ZM222.545 306H227.201V299.568H229.193L232.457 306H237.929L233.153 297.192L237.641 289.2H232.673L229.241 295.728H227.201V289.2H222.545V295.728H220.409L217.049 289.2H212.057L216.545 297.192L211.769 306H217.265L220.553 299.568H222.545V306ZM240.662 306H254.15V302.328H245.366V299.256H252.83V295.704H245.366V292.872H253.838V289.2H240.662V306ZM203.702 289.2H199.022L191.606 306H196.454L197.774 302.736H204.878L206.198 306H211.142L203.702 289.2ZM201.326 293.856L199.166 299.232H203.486L201.326 293.856ZM168.086 298.681C168.086 298.681 168.089 298.674 168.095 298.661C168.09 298.675 168.086 298.681 168.086 298.681ZM54.8199 320.255C55.6675 319.594 56.7337 319.2 57.8919 319.2H62.5719C63.4408 319.2 64.258 319.422 64.9699 319.812C65.6818 319.422 66.499 319.2 67.3679 319.2H72.0479C73.3946 319.2 74.6169 319.732 75.5159 320.598C76.4387 319.71 77.6786 319.2 78.9839 319.2H83.4479C84.0387 319.2 84.6056 319.302 85.1317 319.491C85.6578 319.302 86.2247 319.2 86.8154 319.2H101.791C103.514 319.2 105.034 320.072 105.933 321.398C106.852 320.039 108.396 319.2 110.074 319.2H114.754C116.432 319.2 117.976 320.039 118.895 321.397C119.794 320.071 121.313 319.2 123.036 319.2H138.012C138.607 319.2 139.178 319.304 139.707 319.495C140.236 319.304 140.807 319.2 141.402 319.2H146.082C148.844 319.2 151.082 321.439 151.082 324.2V324.587C153.436 324.735 155.892 325.392 157.906 327.051C160.407 329.11 161.426 332.041 161.426 335.024C161.426 338.233 160.261 341.253 157.692 343.357C155.274 345.336 152.226 346 149.346 346H141.402C139.599 346 138.019 345.045 137.139 343.614C136.259 345.045 134.679 346 132.876 346H128.196C127.07 346 126.031 345.628 125.195 345C124.341 345.64 123.292 346 122.194 346H117.25C115.213 346 113.379 344.764 112.615 342.875L112.559 342.736H112.198L112.142 342.875C111.378 344.764 109.544 346 107.506 346H102.658C101.56 346 100.511 345.64 99.6571 344.999C98.8211 345.628 97.7818 346 96.6554 346H91.9754C90.1717 346 88.5911 345.045 87.7117 343.613C86.8322 345.045 85.2516 346 83.4479 346H78.7679C77.4273 346 76.2098 345.472 75.312 344.613C74.3905 345.495 73.1557 346 71.8559 346H67.3679C66.499 346 65.6818 345.778 64.9699 345.389C64.258 345.778 63.4408 346 62.5719 346H57.8919C55.1304 346 52.8919 343.761 52.8919 341V340.881C50.2579 340.671 47.648 339.839 45.569 337.954C43.0347 335.656 42.0679 332.504 42.0679 329.36V324.2C42.0679 321.439 44.3064 319.2 47.0679 319.2H51.7479C52.906 319.2 53.9722 319.594 54.8199 320.255ZM51.7479 324.2H47.0679V329.36C47.0679 333.179 49.1006 335.425 52.8919 335.859C53.3419 335.91 53.8167 335.936 54.3159 335.936C54.5135 335.936 54.7134 335.929 54.9159 335.915C55.7509 335.858 56.6298 335.683 57.5719 335.391C57.6777 335.358 57.7844 335.324 57.8919 335.288V341H62.5719V324.2H57.8919V331.496C57.7881 331.543 57.6813 331.588 57.5719 331.63C57.3134 331.728 57.0399 331.81 56.7543 331.875C56.182 332.006 55.5613 332.072 54.9159 332.072C54.7056 332.072 54.5056 332.061 54.3159 332.04C52.7801 331.866 51.9187 330.986 51.7708 329.36C51.7555 329.192 51.7479 329.016 51.7479 328.832V324.2ZM56.7503 328.917C56.7505 328.919 56.7506 328.92 56.7506 328.92ZM78.7679 341H83.4479V324.2H78.9839L72.0479 334.064V324.2H67.3679V341H71.8559L78.7679 331.16V341ZM91.9754 341H96.6554V327.968H101.791V324.2H86.8154V327.968H91.9754V341ZM114.754 324.2H110.074L102.658 341H107.506L108.826 337.736H115.93L117.25 341H122.194L114.754 324.2ZM112.378 328.856L110.218 334.232H114.538L112.378 328.856ZM128.196 341H132.876V327.968H138.012V324.2H123.036V327.968H128.196V341ZM141.402 341H149.346C153.679 341 156.382 338.993 156.426 335.12C156.426 335.088 156.426 335.056 156.426 335.024C156.426 331.352 154.05 329.552 149.97 329.552H146.082V324.2H141.402V341ZM146.082 337.592H149.034C149.141 337.592 149.245 337.588 149.346 337.58C150.083 337.522 150.681 337.255 151.082 336.801C151.447 336.389 151.65 335.823 151.65 335.12C151.65 335.088 151.65 335.056 151.649 335.024C151.632 334.365 151.432 333.884 151.082 333.551C150.802 333.285 150.426 333.113 149.97 333.02C149.688 332.963 149.374 332.936 149.034 332.936H146.082V337.592ZM176.193 320.392C177.065 319.649 178.197 319.2 179.433 319.2H184.185C185.056 319.2 185.876 319.423 186.59 319.815C187.303 319.423 188.123 319.2 188.995 319.2H202.171C204.932 319.2 207.171 321.439 207.171 324.2V327.872C207.171 329.003 206.795 330.046 206.163 330.883V333.943C206.982 334.834 207.482 336.022 207.482 337.328V341C207.482 343.761 205.244 346 202.482 346H188.995C188.123 346 187.303 345.777 186.59 345.385C185.876 345.777 185.056 346 184.185 346H179.433C178.197 346 177.065 345.552 176.193 344.808C175.32 345.552 174.189 346 172.953 346H168.201C165.439 346 163.201 343.761 163.201 341V324.2C163.201 321.439 165.439 319.2 168.201 319.2H172.953C174.189 319.2 175.32 319.649 176.193 320.392ZM172.953 324.2H168.201V341H172.953V334.448H179.433V341H184.185V324.2H179.433V330.512H172.953V324.2ZM202.482 337.328H193.699V334.256H201.163V330.704H193.699V327.872H202.171V324.2H188.995V341H202.482V337.328ZM214.574 346C211.813 346 209.574 343.761 209.574 341V324.2C209.574 321.439 211.813 319.2 214.574 319.2H228.614C229.067 319.2 229.506 319.26 229.923 319.373C230.343 319.26 230.781 319.2 231.228 319.2H236.244C237.826 319.2 239.294 319.947 240.228 321.179C241.162 319.946 242.63 319.2 244.212 319.2H248.844C249.663 319.2 250.454 319.401 251.157 319.767C251.85 319.405 252.638 319.2 253.472 319.2H267.008C267.738 319.2 268.432 319.357 269.057 319.638C269.691 319.354 270.387 319.2 271.104 319.2H276.12C277.703 319.2 279.17 319.947 280.104 321.179C281.039 319.946 282.507 319.2 284.088 319.2H288.72C290.478 319.2 292.107 320.123 293.01 321.632C293.913 323.141 293.958 325.013 293.127 326.562L286.178 339.525C286.176 339.53 286.173 339.534 286.171 339.539C284.023 343.582 280.341 346.432 275.568 346.432C275.001 346.432 274.445 346.39 273.902 346.312C273.148 348.116 271.366 349.384 269.288 349.384H264.944C262.748 349.384 260.883 347.968 260.211 346H258.925C258.253 347.968 256.388 349.384 254.192 349.384H249.824C247.062 349.384 244.824 347.145 244.824 344.384V341.81C242.629 344.609 239.509 346.432 235.692 346.432C233.969 346.432 232.356 346.043 230.877 345.458C230.344 345.247 229.866 344.954 229.454 344.599C227.451 345.617 225.184 346 222.974 346H214.574ZM232.716 340.808C232.742 340.819 232.769 340.829 232.796 340.839C232.998 340.918 233.199 340.989 233.398 341.052C233.596 341.115 233.793 341.17 233.988 341.218C234.509 341.345 235.02 341.417 235.524 341.43C235.58 341.431 235.636 341.432 235.692 341.432C236.461 341.432 237.2 341.298 237.896 341.031C239.079 340.578 240.142 339.745 241.035 338.54C241.338 338.13 241.622 337.678 241.884 337.184L248.844 324.2H244.212L240.156 332.312L236.244 324.2H231.228L237.756 336.296C237.687 336.396 237.618 336.49 237.548 336.578C237.019 337.239 236.442 337.549 235.692 337.588C235.637 337.591 235.581 337.592 235.524 337.592C235.469 337.592 235.415 337.591 235.36 337.589C235.162 337.581 234.959 337.558 234.744 337.521C234.534 337.485 234.312 337.434 234.075 337.37C233.999 337.349 233.922 337.327 233.844 337.304C233.844 337.304 233.844 337.304 233.844 337.304L232.716 340.808ZM228.614 324.2H214.574V341H222.974C225.007 341 226.65 340.569 227.825 339.764C227.996 339.647 228.158 339.522 228.308 339.389C229.254 338.559 229.803 337.425 229.896 336.033C229.902 335.938 229.907 335.842 229.909 335.744C229.91 335.696 229.91 335.648 229.91 335.6C229.91 335.165 229.87 334.756 229.79 334.374C229.671 333.801 229.462 333.29 229.169 332.842C229.009 332.598 228.824 332.373 228.614 332.168C227.554 331.13 225.86 330.584 223.598 330.584H219.254V327.872H228.614V324.2ZM219.254 333.968V337.592H222.662C222.77 337.592 222.874 337.589 222.974 337.583C223.491 337.553 223.92 337.445 224.254 337.263C224.807 336.962 225.101 336.46 225.11 335.775C225.11 335.765 225.11 335.754 225.11 335.744C225.11 335.741 225.11 335.738 225.11 335.735C225.11 335.689 225.109 335.644 225.106 335.6C225.069 334.968 224.785 334.523 224.254 334.26C224.066 334.167 223.848 334.096 223.598 334.048C223.324 333.994 223.012 333.968 222.662 333.968H219.254ZM250.969 337.139C250.8 337.196 250.618 337.228 250.424 337.232H249.824V344.384H254.192V341H264.944V344.384H269.288V337.232H267.008V324.2H253.472L253.28 329.384C253.277 329.466 253.274 329.547 253.27 329.628C253.27 329.632 253.27 329.636 253.27 329.64C253.183 331.738 253.006 333.564 252.612 334.9C252.388 335.659 252.094 336.259 251.706 336.661C251.512 336.862 251.295 337.013 251.051 337.109C251.024 337.12 250.997 337.13 250.969 337.139ZM255.968 337.232C256.203 336.893 256.403 336.479 256.572 336C256.926 334.997 257.147 333.709 257.283 332.232C257.299 332.055 257.314 331.876 257.328 331.694C257.374 331.086 257.408 330.45 257.432 329.792L257.442 329.54L257.442 329.538L257.504 327.968H262.328V337.232H255.968ZM272.592 340.808C272.619 340.819 272.646 340.829 272.673 340.839C273.077 340.996 273.474 341.122 273.865 341.218C274.007 341.252 274.148 341.283 274.288 341.309C274.663 341.38 275.033 341.42 275.4 341.43C275.456 341.431 275.512 341.432 275.568 341.432C276.338 341.432 277.076 341.298 277.773 341.031C278.956 340.578 280.019 339.745 280.911 338.54C281.215 338.13 281.498 337.678 281.76 337.184L288.72 324.2H284.088L280.032 332.312L276.12 324.2H271.104L277.632 336.296C277.563 336.396 277.494 336.49 277.424 336.578C276.896 337.239 276.318 337.549 275.568 337.588C275.513 337.591 275.457 337.592 275.4 337.592C275.346 337.592 275.292 337.591 275.237 337.589C274.939 337.577 274.629 337.532 274.288 337.454C274.179 337.429 274.067 337.401 273.951 337.37C273.876 337.349 273.799 337.327 273.72 337.304C273.72 337.304 273.72 337.304 273.72 337.304L272.592 340.808Z" fill="white"/>
<rect x="16" y="397" width="125" height="43" rx="13" fill="white"/>
<rect x="195" y="397" width="125" height="43" rx="13" fill="white"/>
<path d="M250 5C250 26.7477 241.361 47.6048 225.983 62.9828C210.605 78.3607 189.748 87 168 87C146.252 87 125.395 78.3607 110.017 62.9828C94.6393 47.6048 86 26.7478 86 5.00002L168 5H250Z" fill="white"/>
<path d="M48.032 423.216C48.032 414.96 35.328 417.52 35.328 414.096C35.328 412.976 36.288 412.08 38.944 412.08C40.896 412.08 43.008 412.656 45.152 413.808L47.104 409.104C45.312 408.048 42.976 407.408 40.608 407.216V403.76H36.768V407.28C31.584 407.92 29.056 410.896 29.056 414.416C29.056 422.736 41.792 420.144 41.792 423.696C41.792 424.784 40.768 425.52 38.144 425.52C35.552 425.52 32.736 424.624 30.752 423.312L28.672 427.984C30.528 429.264 33.568 430.192 36.768 430.416V433.84H40.608V430.288C45.6 429.552 48.032 426.608 48.032 423.216Z" fill="#2862F3"/>
<path d="M70.78 426.24C74.24 426.24 76.78 423.62 76.78 419C76.78 414.38 74.24 411.76 70.78 411.76C67.34 411.76 64.78 414.38 64.78 419C64.78 423.62 67.34 426.24 70.78 426.24ZM70.78 423.5C69.18 423.5 68.06 422.18 68.06 419C68.06 415.82 69.18 414.5 70.78 414.5C72.4 414.5 73.52 415.82 73.52 419C73.52 422.18 72.4 423.5 70.78 423.5ZM79.9603 422.28C78.8603 422.28 78.0203 423.04 78.0203 424.2C78.0203 425.02 78.4403 425.64 79.1003 425.9L78.2203 429.08H80.2003L81.3403 426.2C81.8003 425.1 81.8803 424.72 81.8803 424.2C81.8803 423.06 81.0803 422.28 79.9603 422.28ZM89.0808 426.24C92.5408 426.24 95.0808 423.62 95.0808 419C95.0808 414.38 92.5408 411.76 89.0808 411.76C85.6408 411.76 83.0808 414.38 83.0808 419C83.0808 423.62 85.6408 426.24 89.0808 426.24ZM89.0808 423.5C87.4808 423.5 86.3608 422.18 86.3608 419C86.3608 415.82 87.4808 414.5 89.0808 414.5C90.7008 414.5 91.8208 415.82 91.8208 419C91.8208 422.18 90.7008 423.5 89.0808 423.5ZM102.655 426.24C106.115 426.24 108.655 423.62 108.655 419C108.655 414.38 106.115 411.76 102.655 411.76C99.215 411.76 96.655 414.38 96.655 419C96.655 423.62 99.215 426.24 102.655 426.24ZM102.655 423.5C101.055 423.5 99.935 422.18 99.935 419C99.935 415.82 101.055 414.5 102.655 414.5C104.275 414.5 105.395 415.82 105.395 419C105.395 422.18 104.275 423.5 102.655 423.5Z" fill="black"/>
<path d="M236.14 412V414.6H238.94V426H242.18V412H236.14ZM249.412 417.26H248.272L248.492 414.6H254.332V412H245.792L245.072 419.88H248.652C251.192 419.88 251.912 420.6 251.912 421.7C251.912 422.84 250.912 423.52 249.292 423.52C247.832 423.52 246.372 423.06 245.312 422.26L244.032 424.74C245.392 425.7 247.432 426.24 249.372 426.24C253.372 426.24 255.192 424.08 255.192 421.6C255.192 419.12 253.552 417.26 249.412 417.26ZM276.211 426L276.171 415.24H273.251L269.591 421.46L266.151 415.24H262.891V426H265.711V419.54L268.851 424.96H270.171L273.391 419.56V426H276.211ZM279.199 426H282.079L287.299 419.6V426H290.399V415.24H287.539L282.299 421.64V415.24H279.199V426ZM293.398 426H296.498V421.98H301.178V426H304.298V415.24H301.178V419.44H296.498V415.24H293.398V426Z" fill="black"/>
<path d="M216.5 406C209.595 406 204 411.595 204 418.5C204 425.405 209.595 431 216.5 431C223.405 431 229 425.405 229 418.5C229 411.595 223.405 406 216.5 406Z" fill="#2862F3"/>
<path fill-rule="evenodd" clip-rule="evenodd" d="M215.961 410C214.878 410 214 410.878 214 411.961V419.153C214 419.311 214.019 419.464 214.054 419.611C214.047 420.263 214.376 420.901 214.974 421.262L220.414 424.535C221.313 425.077 222.481 424.786 223.022 423.887C223.563 422.988 223.273 421.82 222.374 421.279L217.923 418.6V411.961C217.923 410.878 217.045 410 215.961 410Z" fill="white"/>
<g filter="url(#filter0_d)">
<path d="M162.531 400.393L185.975 433.213C179.766 434.57 168.698 428.331 168.698 428.331C168.698 428.331 160.834 438.706 154.912 440L162.531 400.393Z" fill="white"/>
</g>
<path fill-rule="evenodd" clip-rule="evenodd" d="M154.912 440L158.469 421.51C161.522 424.284 164.956 426.604 168.698 428.331C168.698 428.331 160.834 438.706 154.912 440Z" fill="#AFD4FF"/>
<path d="M166.553 37.19H163.827L164.349 31.274H180.705V22.4H154.837L152.807 46.122H163.827C170.033 46.122 171.715 47.746 171.715 50.24C171.715 52.966 169.105 54.532 165.219 54.532C161.333 54.532 157.273 53.372 153.967 51.168L149.849 59.81C153.967 62.42 159.941 63.812 165.567 63.812C177.805 63.812 183.257 57.2 183.257 49.95C183.257 42.758 178.559 37.19 166.553 37.19Z" fill="#2862F3"/>
<g filter="url(#filter1_di)">
<path d="M107.383 202.12C106.082 202.12 105.035 201.724 104.242 200.933C103.448 200.141 103.052 199.095 103.052 197.797V172.377C103.052 171.078 103.401 170.08 104.099 169.384C104.797 168.687 105.796 168.338 107.097 168.338H123.091C124.519 168.338 125.566 168.623 126.232 169.194C126.898 169.732 127.232 170.603 127.232 171.807C127.232 172.979 126.883 173.834 126.184 174.373C125.518 174.911 124.487 175.18 123.091 175.18H111.667V181.357H122.139C123.535 181.357 124.566 181.642 125.232 182.212C125.931 182.782 126.28 183.653 126.28 184.825C126.28 185.997 125.931 186.853 125.232 187.391C124.566 187.93 123.535 188.199 122.139 188.199H111.667V197.797C111.667 199.127 111.27 200.188 110.477 200.98C109.715 201.74 108.684 202.12 107.383 202.12Z" fill="white"/>
<path d="M162.568 196.466C162.854 197.068 162.997 197.654 162.997 198.224C162.997 199.27 162.568 200.156 161.711 200.885C160.886 201.614 159.934 201.978 158.856 201.978C158.126 201.978 157.459 201.788 156.856 201.408C156.253 201.028 155.777 200.457 155.428 199.697L153.287 194.898H137.865L135.675 199.697C135.326 200.457 134.834 201.028 134.2 201.408C133.597 201.788 132.93 201.978 132.2 201.978C131.122 201.978 130.138 201.614 129.249 200.885C128.393 200.156 127.964 199.27 127.964 198.224C127.964 197.654 128.107 197.068 128.393 196.466L140.959 170.714C141.371 169.859 141.974 169.209 142.767 168.766C143.592 168.291 144.497 168.053 145.48 168.053C146.432 168.053 147.321 168.291 148.146 168.766C148.971 169.209 149.59 169.859 150.002 170.714L162.568 196.466ZM140.816 188.341H150.335L145.576 177.746L140.816 188.341Z" fill="white"/>
<path d="M197.35 195.278C198.175 196.07 198.588 196.989 198.588 198.034C198.588 199.079 198.191 199.998 197.398 200.79C196.605 201.582 195.669 201.978 194.59 201.978C193.416 201.978 192.337 201.471 191.353 200.457L177.787 186.583V197.797C177.787 199.127 177.391 200.188 176.597 200.98C175.804 201.74 174.725 202.12 173.361 202.12C172.028 202.12 170.965 201.74 170.172 200.98C169.41 200.188 169.029 199.127 169.029 197.797V172.377C169.029 171.078 169.41 170.049 170.172 169.289C170.965 168.497 172.028 168.101 173.361 168.101C174.725 168.101 175.804 168.497 176.597 169.289C177.391 170.049 177.787 171.078 177.787 172.377V182.83L191.163 169.384C191.988 168.528 192.924 168.101 193.971 168.101C195.018 168.101 195.938 168.497 196.732 169.289C197.525 170.049 197.922 170.952 197.922 171.997C197.922 173.042 197.461 174.008 196.541 174.895L186.783 184.445L197.35 195.278Z" fill="white"/>
<path d="M208.69 201.835C207.389 201.835 206.39 201.487 205.692 200.79C204.993 200.093 204.644 199.095 204.644 197.797V172.377C204.644 171.078 204.993 170.08 205.692 169.384C206.39 168.687 207.389 168.338 208.69 168.338H225.159C226.524 168.338 227.555 168.623 228.253 169.194C228.951 169.764 229.3 170.587 229.3 171.664C229.3 173.945 227.92 175.085 225.159 175.085H213.165V181.452H224.207C226.968 181.452 228.348 182.576 228.348 184.825C228.348 185.902 227.999 186.726 227.301 187.296C226.603 187.866 225.572 188.151 224.207 188.151H213.165V195.088H225.159C227.92 195.088 229.3 196.229 229.3 198.509C229.3 199.586 228.951 200.41 228.253 200.98C227.555 201.55 226.524 201.835 225.159 201.835H208.69Z" fill="white"/>
<path fill-rule="evenodd" clip-rule="evenodd" d="M257.339 154.932H74.0107C68.4149 154.932 63.8786 159.468 63.8786 165.064V204.108C63.8786 209.704 68.4149 214.24 74.0107 214.24H257.339C262.935 214.24 267.471 209.704 267.471 204.108V165.064C267.471 159.468 262.935 154.932 257.339 154.932ZM74.0107 141C60.7207 141 49.947 151.774 49.947 165.064V204.108C49.947 217.398 60.7207 228.172 74.0107 228.172H257.339C270.629 228.172 281.403 217.398 281.403 204.108V165.064C281.403 151.774 270.629 141 257.339 141H74.0107Z" fill="white"/>
</g>
<defs>
<filter id="filter0_d" x="143" y="393" width="52.975" height="57" filterUnits="userSpaceOnUse" color-interpolation-filters="sRGB">
<feFlood flood-opacity="0" result="BackgroundImageFix"/>
<feColorMatrix in="SourceAlpha" type="matrix" values="0 0 0 0 0 0 0 0 0 0 0 0 0 0 0 0 0 0 127 0"/>
<feOffset dx="3" dy="3"/>
<feGaussianBlur stdDeviation="3.5"/>
<feColorMatrix type="matrix" values="0 0 0 0 0.11124 0 0 0 0 0.205788 0 0 0 0 0.754167 0 0 0 0.66 0"/>
<feBlend mode="normal" in2="BackgroundImageFix" result="effect1_dropShadow"/>
<feBlend mode="normal" in="SourceGraphic" in2="effect1_dropShadow" result="shape"/>
</filter>
<filter id="filter1_di" x="43.947" y="135" width="251.456" height="107.172" filterUnits="userSpaceOnUse" color-interpolation-filters="sRGB">
<feFlood flood-opacity="0" result="BackgroundImageFix"/>
<feColorMatrix in="SourceAlpha" type="matrix" values="0 0 0 0 0 0 0 0 0 0 0 0 0 0 0 0 0 0 127 0"/>
<feOffset dx="4" dy="4"/>
<feGaussianBlur stdDeviation="5"/>
<feColorMatrix type="matrix" values="0 0 0 0 0.168813 0 0 0 0 0.394509 0 0 0 0 0.9125 0 0 0 1 0"/>
<feBlend mode="normal" in2="BackgroundImageFix" result="effect1_dropShadow"/>
<feBlend mode="normal" in="SourceGraphic" in2="effect1_dropShadow" result="shape"/>
<feColorMatrix in="SourceAlpha" type="matrix" values="0 0 0 0 0 0 0 0 0 0 0 0 0 0 0 0 0 0 127 0" result="hardAlpha"/>
<feOffset dx="-2" dy="-2"/>
<feGaussianBlur stdDeviation="2"/>
<feComposite in2="hardAlpha" operator="arithmetic" k2="-1" k3="1"/>
<feColorMatrix type="matrix" values="0 0 0 0 0.564167 0 0 0 0 0.713194 0 0 0 0 1 0 0 0 1 0"/>
<feBlend mode="normal" in2="shape" result="effect2_innerShadow"/>
</filter>
<linearGradient id="paint0_linear" x1="57.5" y1="-9" x2="289.5" y2="495.5" gradientUnits="userSpaceOnUse">
<stop stop-color="#3793FF"/>
<stop offset="1" stop-color="#141CE1"/>
</linearGradient>
<linearGradient id="paint1_linear" x1="49" y1="11" x2="301.5" y2="474" gradientUnits="userSpaceOnUse">
<stop stop-color="#6369FF"/>
<stop offset="1" stop-color="#51B5F4"/>
</linearGradient>
<linearGradient id="paint2_linear" x1="57.5" y1="-9" x2="289.5" y2="495.5" gradientUnits="userSpaceOnUse">
<stop stop-color="#00E0FF"/>
<stop offset="1" stop-color="#42F2D1"/>
</linearGradient>
<linearGradient id="paint3_linear" x1="49" y1="11" x2="301.5" y2="474" gradientUnits="userSpaceOnUse">
<stop stop-color="#51B5F5"/>
<stop offset="1" stop-color="#28D7BE"/>
</linearGradient>
<linearGradient id="paint4_linear" x1="308.165" y1="473.49" x2="92.7043" y2="54.1817" gradientUnits="userSpaceOnUse">
<stop stop-color="#73F5FF"/>
<stop offset="0.99" stop-color="#7AFFEC"/>
</linearGradient>
<linearGradient id="paint5_linear" x1="18.7592" y1="227" x2="211" y2="227" gradientUnits="userSpaceOnUse">
<stop stop-color="white"/>
<stop offset="0.99" stop-color="white" stop-opacity="0.4"/>
</linearGradient>
<linearGradient id="paint6_linear" x1="176.9" y1="65" x2="257" y2="65" gradientUnits="userSpaceOnUse">
<stop stop-color="white"/>
<stop offset="0.99" stop-color="white" stop-opacity="0.4"/>
</linearGradient>
</defs>
</svg>
