<svg width="338" height="474" viewBox="0 0 338 474" fill="none" xmlns="http://www.w3.org/2000/svg">
<rect x="2.5" y="2.5" width="331" height="469" rx="32.5" fill="url(#paint0_linear)" stroke="url(#paint1_linear)" stroke-width="5"/>
<mask id="mask0" mask-type="alpha" maskUnits="userSpaceOnUse" x="2" y="0" width="336" height="474">
<rect x="4.5" y="2.5" width="331" height="469" rx="41.5" fill="url(#paint2_linear)" stroke="url(#paint3_linear)" stroke-width="5"/>
</mask>
<g mask="url(#mask0)">
<path d="M198.89 5.0093C198.89 5.0093 97.8208 47.0947 93.9888 101.845C90.1568 156.595 112.775 152.615 106.069 185.086C99.3631 217.557 -10.9124 255.616 18.7856 356.766C48.4837 457.916 142.368 370.584 242 469H35C18.4315 469 5 455.569 5 439V35.0014C5 18.4323 18.4323 5.00064 35.0014 5.00144L198.89 5.0093Z" fill="url(#paint4_linear)" fill-opacity="0.5"/>
</g>
<path opacity="0.46" d="M219.887 378C202.092 377.978 184.702 372.68 169.917 362.777C155.131 352.875 143.613 338.811 136.819 322.363C130.024 305.916 128.258 287.824 131.743 270.373C135.229 252.922 143.809 236.896 156.4 224.321C168.992 211.745 185.028 203.185 202.483 199.721C219.939 196.258 238.029 198.046 254.468 204.862C270.906 211.677 284.956 223.212 294.84 238.01C304.724 252.808 310 270.204 310 288C309.958 311.876 300.447 334.761 283.553 351.633C266.66 368.506 243.763 377.988 219.887 378ZM219.887 222.747C206.985 222.764 194.378 226.607 183.659 233.788C172.94 240.969 164.59 251.166 159.665 263.091C154.74 275.016 153.461 288.134 155.989 300.786C158.517 313.438 164.739 325.056 173.868 334.173C182.998 343.29 194.625 349.496 207.28 352.006C219.936 354.517 233.051 353.219 244.97 348.278C256.888 343.336 267.074 334.972 274.24 324.243C281.406 313.515 285.231 300.902 285.231 288C285.177 270.703 278.27 254.132 266.022 241.918C253.774 229.704 237.184 222.843 219.887 222.837V222.747Z" fill="url(#paint5_linear)"/>
<path opacity="0.46" d="M99.9498 126C92.0407 125.99 84.3121 123.636 77.7407 119.234C71.1694 114.833 66.0503 108.583 63.0305 101.273C60.0106 93.9627 59.2257 85.9216 60.7747 78.1657C62.3238 70.4097 66.1374 63.2871 71.7335 57.698C77.3296 52.1089 84.457 48.3043 92.2148 46.7649C99.9727 45.2256 108.013 46.0207 115.319 49.0496C122.625 52.0786 128.869 57.2055 133.262 63.7824C137.655 70.3593 140 78.0909 140 86C139.981 96.6116 135.754 106.783 128.246 114.281C120.738 121.78 110.561 125.995 99.9498 126ZM99.9498 56.9985C94.2156 57.0064 88.6124 58.7141 83.8484 61.9056C79.0844 65.0972 75.3735 69.6294 73.1846 74.9294C70.9957 80.2294 70.4271 86.0594 71.5506 91.6825C72.6742 97.3056 75.4395 102.469 79.497 106.521C83.5545 110.573 88.7222 113.331 94.3468 114.447C99.9715 115.563 105.801 114.986 111.098 112.79C116.395 110.594 120.922 106.877 124.107 102.108C127.292 97.3398 128.991 91.7342 128.991 86C128.968 78.3124 125.898 70.9477 120.454 65.5193C115.011 60.0908 107.637 57.0412 99.9498 57.0386V56.9985Z" fill="url(#paint6_linear)"/>
<path d="M102.586 304.216C104.026 303.496 104.866 302.224 104.866 300.568C104.866 297.784 102.514 296.2 98.5061 296.2H90.3461V313H98.9621C103.282 313 105.634 311.152 105.634 308.2C105.634 306.184 104.53 304.84 102.586 304.216ZM95.0261 299.608H98.0501C99.3941 299.608 100.066 300.184 100.066 301.264C100.066 302.368 99.3941 302.92 98.0501 302.92H95.0261V299.608ZM98.7701 309.592H95.0261V306.136H98.7701C100.138 306.136 100.834 306.688 100.834 307.84C100.834 308.992 100.138 309.592 98.7701 309.592Z" fill="black"/>
<path d="M114.109 309.328V306.256H121.573V302.704H114.109V299.872H122.581V296.2H109.405V313H122.893V309.328H114.109Z" fill="black"/>
<path d="M138.033 296.2V302.512H131.553V296.2H126.801V313H131.553V306.448H138.033V313H142.785V296.2H138.033Z" fill="black"/>
<path d="M147.595 313H152.083L158.994 303.16V313H163.675V296.2H159.211L152.275 306.064V296.2H147.595V313Z" fill="black"/>
<path d="M181.394 313H186.338L178.898 296.2H174.218L166.802 313H171.65L172.97 309.736H180.074L181.394 313ZM174.362 306.232L176.522 300.856L178.682 306.232H174.362Z" fill="black"/>
<path d="M208.999 313L208.951 296.2H205.039L199.279 305.896L193.375 296.2H189.463V313H193.831V304.288L198.151 311.344H200.263L204.583 304.096L204.607 313H208.999Z" fill="black"/>
<path d="M213.773 313H218.261L225.173 303.16V313H229.853V296.2H225.389L218.453 306.064V296.2H213.773V313Z" fill="black"/>
<path d="M245.892 296.2V302.512H239.412V296.2H234.66V313H239.412V306.448H245.892V313H250.644V296.2H245.892Z" fill="black"/>
<path d="M102.318 326.2H90.0062V343H94.6862V329.968H102.294L102.318 326.2Z" fill="black"/>
<path d="M105.644 343H110.132L117.044 333.16V343H121.724V326.2H117.26L110.324 336.064V326.2H105.644V343Z" fill="black"/>
<path d="M137.763 326.2V332.512H131.283V326.2H126.531V343H131.283V336.448H137.763V343H142.515V326.2H137.763Z" fill="black"/>
<path d="M155.581 343.336C160.957 343.336 164.917 339.64 164.917 334.6C164.917 329.56 160.957 325.864 155.581 325.864C150.205 325.864 146.245 329.56 146.245 334.6C146.245 339.64 150.205 343.336 155.581 343.336ZM155.581 339.4C153.037 339.4 151.045 337.504 151.045 334.6C151.045 331.696 153.037 329.8 155.581 329.8C158.125 329.8 160.117 331.696 160.117 334.6C160.117 337.504 158.125 339.4 155.581 339.4Z" fill="black"/>
<path d="M183.957 339.232V326.2H170.421L170.229 331.384C170.061 335.872 169.509 339.184 167.373 339.232H166.773V346.384H171.141V343H181.893V346.384H186.237V339.232H183.957ZM174.381 331.792L174.453 329.968H179.277V339.232H172.917C173.901 337.816 174.261 335.08 174.381 331.792Z" fill="black"/>
<path d="M209.245 343L209.197 326.2H205.285L199.525 335.896L193.621 326.2H189.709V343H194.077V334.288L198.397 341.344H200.509L204.829 334.096L204.853 343H209.245Z" fill="black"/>
<path d="M226.931 343H231.875L224.435 326.2H219.755L212.339 343H217.187L218.507 339.736H225.611L226.931 343ZM219.899 336.232L222.059 330.856L224.219 336.232H219.899Z" fill="black"/>
<path d="M246.232 326.2V332.512H239.752V326.2H235V343H239.752V336.448H246.232V343H250.984V326.2H246.232Z" fill="black"/>
<path fill-rule="evenodd" clip-rule="evenodd" d="M99.683 300.145C99.423 299.867 99.0307 299.694 98.5061 299.633C98.3638 299.616 98.2118 299.608 98.0501 299.608H95.0261V302.92H98.0501C98.3165 302.92 98.5565 302.898 98.7701 302.855C99.4823 302.71 99.9009 302.325 100.026 301.698C100.047 301.593 100.06 301.482 100.064 301.363C100.065 301.331 100.066 301.298 100.066 301.264C100.066 301.251 100.066 301.239 100.066 301.227C100.065 301.193 100.064 301.161 100.062 301.128C100.057 301.027 100.045 300.93 100.026 300.838C100.007 300.742 99.9806 300.653 99.9474 300.568C99.929 300.521 99.9085 300.476 99.8858 300.432C99.8308 300.327 99.7632 300.231 99.683 300.145ZM100.806 307.464C100.724 306.948 100.463 306.587 100.026 306.372C99.7031 306.214 99.284 306.136 98.7701 306.136H95.0261V309.592H98.7701C98.8356 309.592 98.8996 309.591 98.9621 309.588C99.3893 309.569 99.7443 309.486 100.026 309.34C100.276 309.211 100.469 309.033 100.603 308.806C100.657 308.714 100.702 308.615 100.737 308.507C100.769 308.411 100.793 308.309 100.809 308.2C100.826 308.087 100.834 307.967 100.834 307.84C100.834 307.827 100.834 307.813 100.834 307.8C100.833 307.779 100.833 307.759 100.832 307.739C100.829 307.643 100.82 307.551 100.806 307.464ZM90.3461 313V296.2H98.5061C101.477 296.2 103.538 297.07 104.405 298.654C104.58 298.972 104.706 299.319 104.781 299.693C104.838 299.97 104.866 300.261 104.866 300.568C104.866 300.808 104.848 301.04 104.814 301.264C104.744 301.713 104.606 302.128 104.405 302.504C104.285 302.729 104.142 302.941 103.978 303.137C103.614 303.574 103.145 303.936 102.586 304.216C103.137 304.393 103.621 304.628 104.031 304.919C104.164 305.014 104.289 305.114 104.405 305.22C105.126 305.873 105.547 306.749 105.622 307.84C105.63 307.957 105.634 308.077 105.634 308.2C105.634 308.211 105.634 308.222 105.634 308.233C105.627 309.465 105.208 310.503 104.405 311.292C103.297 312.383 101.458 313 98.9621 313H90.3461ZM105.778 316.441C103.71 317.585 101.31 318 98.9621 318H90.3461C87.5846 318 85.3461 315.761 85.3461 313L85.3461 296.2C85.3461 293.439 87.5846 291.2 90.3461 291.2H98.5061C100.909 291.2 103.456 291.632 105.606 292.95C106.523 291.879 107.885 291.2 109.405 291.2H122.581C123.335 291.2 124.05 291.367 124.691 291.665C125.332 291.367 126.047 291.2 126.801 291.2H131.553C132.789 291.2 133.92 291.648 134.793 292.392C135.665 291.648 136.797 291.2 138.033 291.2H142.785C143.656 291.2 144.476 291.423 145.19 291.815C145.903 291.423 146.723 291.2 147.595 291.2H152.275C153.621 291.2 154.843 291.732 155.742 292.598C156.665 291.71 157.905 291.2 159.211 291.2H163.675C166.436 291.2 168.675 293.439 168.675 296.2V296.377L169.644 294.181C170.444 292.369 172.237 291.2 174.218 291.2H178.898C180.876 291.2 182.669 292.366 183.47 294.175L184.463 296.419V296.2C184.463 293.439 186.702 291.2 189.463 291.2H193.375C195.12 291.2 196.738 292.109 197.646 293.6L199.226 296.195L200.741 293.646C201.642 292.13 203.275 291.2 205.039 291.2H208.951C209.825 291.2 210.647 291.424 211.362 291.818C212.077 291.424 212.899 291.2 213.773 291.2H218.453C219.799 291.2 221.022 291.732 221.921 292.598C222.843 291.71 224.083 291.2 225.389 291.2H229.853C230.724 291.2 231.543 291.423 232.256 291.815C232.97 291.423 233.789 291.2 234.66 291.2H239.412C240.648 291.2 241.779 291.648 242.652 292.392C243.525 291.648 244.656 291.2 245.892 291.2H250.644C253.406 291.2 255.644 293.439 255.644 296.2V313C255.644 315.761 253.406 318 250.644 318H245.892C244.656 318 243.525 317.551 242.652 316.808C241.779 317.551 240.648 318 239.412 318H234.66C233.789 318 232.97 317.777 232.256 317.385C231.543 317.777 230.724 318 229.853 318H225.173C223.832 318 222.615 317.472 221.717 316.613C220.795 317.495 219.56 318 218.261 318H213.773C212.908 318 212.094 317.78 211.385 317.394C210.659 317.788 209.84 318 208.999 318H204.607C203.115 318 201.775 317.346 200.858 316.308C200.662 316.332 200.464 316.344 200.263 316.344H198.151C197.958 316.344 197.767 316.333 197.578 316.311C196.662 317.347 195.323 318 193.831 318H189.463C188.917 318 188.391 317.912 187.899 317.75C187.401 317.914 186.876 318 186.338 318H181.394C179.356 318 177.523 316.763 176.759 314.875L176.703 314.736H176.341L176.285 314.875C175.521 316.763 173.688 318 171.65 318H166.802C166.264 318 165.738 317.913 165.24 317.75C164.748 317.912 164.221 318 163.675 318H158.994C157.654 318 156.436 317.472 155.539 316.613C154.617 317.495 153.382 318 152.083 318H147.595C146.723 318 145.903 317.777 145.19 317.385C144.476 317.777 143.656 318 142.785 318H138.033C136.797 318 135.665 317.551 134.793 316.808C133.92 317.551 132.789 318 131.553 318H126.801C126.108 318 125.447 317.859 124.847 317.604C124.247 317.859 123.587 318 122.893 318H109.405C107.977 318 106.689 317.401 105.778 316.441ZM109.405 313H122.893V309.328H114.109V306.256H121.573V302.704H114.109V299.872H122.581V296.2H109.405V313ZM126.801 313H131.553V306.448H138.033V313H142.785V296.2H138.033V302.512H131.553V296.2H126.801V313ZM158.994 313H163.675V296.2H159.211L152.275 306.064V296.2H147.595V313H152.083L158.994 303.16V313ZM186.338 313L178.898 296.2H174.218L166.802 313H171.65L172.97 309.736H180.074L181.394 313H186.338ZM176.522 300.856L174.362 306.232H178.682L176.522 300.856ZM193.831 313V304.288L198.151 311.344H200.263L204.583 304.096L204.607 313H208.999V312.988L208.951 296.2H205.039L199.279 305.896L193.375 296.2H189.463V313H193.831ZM218.261 313L225.173 303.16V313H229.853V296.2H225.389L218.453 306.064V296.2H213.773V313H218.261ZM245.892 313H250.644V296.2H245.892V302.512H239.412V296.2H234.66V313H239.412V306.448H245.892V313ZM105.644 326.2H110.324V336.064L117.26 326.2H121.724V343H117.044V333.16L110.132 343H105.644V326.2ZM102.294 329.968L102.318 326.2H90.0062V343H94.6862V329.968H102.294ZM99.6862 334.968H100.644V343C100.644 345.761 102.882 348 105.644 348H110.132C111.431 348 112.666 347.495 113.588 346.613C114.486 347.472 115.703 348 117.044 348H121.724C122.595 348 123.414 347.777 124.127 347.385C124.841 347.777 125.66 348 126.531 348H131.283C132.519 348 133.651 347.551 134.523 346.808C135.396 347.551 136.527 348 137.763 348H142.515C144.331 348 145.92 347.033 146.796 345.585C149.236 347.341 152.294 348.336 155.581 348.336C157.804 348.336 159.923 347.881 161.816 347.043C162.139 349.493 164.235 351.384 166.773 351.384H171.141C173.337 351.384 175.202 349.968 175.874 348H177.16C177.832 349.968 179.697 351.384 181.893 351.384H186.237C188.433 351.384 190.298 349.968 190.97 348H194.077C195.569 348 196.908 347.347 197.824 346.311C198.013 346.333 198.204 346.344 198.397 346.344H200.509C200.71 346.344 200.908 346.332 201.104 346.308C202.021 347.346 203.361 348 204.853 348H209.245C209.776 348 210.297 347.916 210.792 347.755C211.285 347.915 211.806 348 212.339 348H217.187C219.224 348 221.058 346.763 221.822 344.875L221.878 344.736H222.239L222.295 344.875C223.059 346.763 224.893 348 226.931 348H231.875C232.412 348 232.938 347.914 233.435 347.75C233.927 347.912 234.453 348 235 348H239.752C240.988 348 242.119 347.551 242.992 346.808C243.865 347.551 244.996 348 246.232 348H250.984C253.745 348 255.984 345.761 255.984 343V326.2C255.984 323.439 253.745 321.2 250.984 321.2H246.232C244.996 321.2 243.865 321.648 242.992 322.392C242.119 321.648 240.988 321.2 239.752 321.2H235C232.239 321.2 230 323.439 230 326.2V326.419L229.006 324.175C228.205 322.366 226.413 321.2 224.435 321.2H219.755C217.774 321.2 215.98 322.369 215.181 324.181L214.198 326.407L214.197 326.186C214.189 323.43 211.953 321.2 209.197 321.2H205.285C203.521 321.2 201.888 322.13 200.987 323.646L199.472 326.195L197.892 323.6C196.985 322.109 195.366 321.2 193.621 321.2H189.709C188.639 321.2 187.647 321.536 186.833 322.109C186.02 321.536 185.028 321.2 183.957 321.2H170.421C168.2 321.2 166.307 322.651 165.659 324.671C163.054 322.262 159.479 320.864 155.581 320.864C152.294 320.864 149.236 321.859 146.796 323.615C145.92 322.167 144.331 321.2 142.515 321.2H137.763C136.527 321.2 135.396 321.648 134.523 322.392C133.651 321.648 132.519 321.2 131.283 321.2H126.531C125.66 321.2 124.841 321.423 124.127 321.815C123.414 321.423 122.595 321.2 121.724 321.2H117.26C115.954 321.2 114.714 321.71 113.792 322.598C112.893 321.732 111.67 321.2 110.324 321.2H105.644C105.06 321.2 104.5 321.3 103.979 321.484C103.45 321.298 102.889 321.2 102.318 321.2H90.0062C87.2448 321.2 85.0062 323.439 85.0062 326.2L85.0062 343C85.0062 345.761 87.2448 348 90.0062 348H94.6862C97.4476 348 99.6862 345.761 99.6862 343V334.968ZM126.531 326.2V343H131.283V336.448H137.763V343H142.515V326.2H137.763V332.512H131.283V326.2H126.531ZM167.373 339.232H166.773V346.384H171.141V343H181.893V346.384H186.237V339.232H183.957V326.2H170.421L170.229 331.384C170.226 331.466 170.223 331.547 170.219 331.628C170.219 331.632 170.219 331.636 170.219 331.64C170.163 333.009 170.068 334.262 169.899 335.339C169.809 335.912 169.698 336.436 169.561 336.9C169.337 337.659 169.043 338.259 168.655 338.661C168.462 338.862 168.244 339.013 168.001 339.109C167.973 339.12 167.946 339.13 167.918 339.139C167.749 339.196 167.567 339.228 167.373 339.232ZM172.917 339.232C173.152 338.893 173.352 338.479 173.521 338C173.875 336.997 174.096 335.709 174.232 334.232C174.248 334.055 174.263 333.876 174.277 333.694C174.323 333.086 174.357 332.45 174.381 331.792L174.391 331.54L174.391 331.538L174.453 329.968H179.277V339.232H172.917ZM189.709 343H194.077V334.288L198.397 341.344H200.509L204.829 334.096L204.853 343H209.245V342.988L209.197 326.2H205.285L199.525 335.896L193.621 326.2H189.709V343ZM164.884 335.387C164.9 335.204 164.91 335.018 164.914 334.831C164.916 334.754 164.917 334.677 164.917 334.6C164.917 334.596 164.917 334.592 164.917 334.588C164.911 329.554 160.953 325.864 155.581 325.864C152.031 325.864 149.098 327.476 147.515 330.023C146.702 331.332 146.245 332.889 146.245 334.6C146.245 336.311 146.702 337.868 147.515 339.177C149.098 341.724 152.031 343.336 155.581 343.336C158.013 343.336 160.156 342.579 161.773 341.284C162.499 340.702 163.12 340.011 163.612 339.232C164.319 338.114 164.764 336.813 164.884 335.387ZM231.875 343L224.435 326.2H219.755L212.339 343H217.187L218.507 339.736H225.611L226.931 343H231.875ZM222.059 330.856L219.899 336.232H224.219L222.059 330.856ZM235 343H239.752V336.448H246.232V343H250.984V326.2H246.232V332.512H239.752V326.2H235V343ZM155.581 334.4C155.572 334.401 155.53 334.406 155.467 334.432C155.386 334.465 155.298 334.521 155.223 334.599C155.222 334.599 155.222 334.6 155.222 334.6C155.222 334.6 155.222 334.601 155.223 334.601C155.298 334.678 155.386 334.735 155.467 334.768C155.531 334.794 155.572 334.799 155.581 334.8C155.59 334.799 155.631 334.794 155.695 334.768C155.776 334.735 155.864 334.678 155.939 334.601C155.94 334.601 155.94 334.6 155.94 334.6C155.94 334.6 155.94 334.599 155.939 334.599C155.864 334.521 155.776 334.465 155.695 334.432C155.631 334.406 155.59 334.401 155.581 334.4ZM151.045 334.6C151.045 337.504 153.037 339.4 155.581 339.4C158.125 339.4 160.117 337.504 160.117 334.6C160.117 331.696 158.125 329.8 155.581 329.8C153.037 329.8 151.045 331.696 151.045 334.6Z" fill="white"/>
<rect x="16" y="397" width="125" height="43" rx="13" fill="white"/>
<rect x="195" y="397" width="125" height="43" rx="13" fill="white"/>
<path d="M252 5C252 26.7477 243.361 47.6048 227.983 62.9828C212.605 78.3607 191.748 87 170 87C148.252 87 127.395 78.3607 112.017 62.9828C96.6393 47.6048 88 26.7478 88 5.00002L170 5H252Z" fill="white"/>
<path d="M48.032 423.216C48.032 414.96 35.328 417.52 35.328 414.096C35.328 412.976 36.288 412.08 38.944 412.08C40.896 412.08 43.008 412.656 45.152 413.808L47.104 409.104C45.312 408.048 42.976 407.408 40.608 407.216V403.76H36.768V407.28C31.584 407.92 29.056 410.896 29.056 414.416C29.056 422.736 41.792 420.144 41.792 423.696C41.792 424.784 40.768 425.52 38.144 425.52C35.552 425.52 32.736 424.624 30.752 423.312L28.672 427.984C30.528 429.264 33.568 430.192 36.768 430.416V433.84H40.608V430.288C45.6 429.552 48.032 426.608 48.032 423.216Z" fill="#00BCBC"/>
<path d="M68.6 420.42H66.32V417.8H63.26V420.42H59.5L65.62 412H62.22L55.62 420.88V423.06H63.16V426H66.32V423.06H68.6V420.42ZM75.5691 426.24C79.0291 426.24 81.5691 423.62 81.5691 419C81.5691 414.38 79.0291 411.76 75.5691 411.76C72.1291 411.76 69.5691 414.38 69.5691 419C69.5691 423.62 72.1291 426.24 75.5691 426.24ZM75.5691 423.5C73.9691 423.5 72.8491 422.18 72.8491 419C72.8491 415.82 73.9691 414.5 75.5691 414.5C77.1891 414.5 78.3091 415.82 78.3091 419C78.3091 422.18 77.1891 423.5 75.5691 423.5ZM94.8073 426.24C98.2673 426.24 100.807 423.62 100.807 419C100.807 414.38 98.2673 411.76 94.8073 411.76C91.3673 411.76 88.8073 414.38 88.8073 419C88.8073 423.62 91.3673 426.24 94.8073 426.24ZM94.8073 423.5C93.2073 423.5 92.0873 422.18 92.0873 419C92.0873 415.82 93.2073 414.5 94.8073 414.5C96.4273 414.5 97.5473 415.82 97.5473 419C97.5473 422.18 96.4273 423.5 94.8073 423.5ZM108.382 426.24C111.842 426.24 114.382 423.62 114.382 419C114.382 414.38 111.842 411.76 108.382 411.76C104.942 411.76 102.382 414.38 102.382 419C102.382 423.62 104.942 426.24 108.382 426.24ZM108.382 423.5C106.782 423.5 105.662 422.18 105.662 419C105.662 415.82 106.782 414.5 108.382 414.5C110.002 414.5 111.122 415.82 111.122 419C111.122 422.18 110.002 423.5 108.382 423.5ZM121.956 426.24C125.416 426.24 127.956 423.62 127.956 419C127.956 414.38 125.416 411.76 121.956 411.76C118.516 411.76 115.956 414.38 115.956 419C115.956 423.62 118.516 426.24 121.956 426.24ZM121.956 423.5C120.356 423.5 119.236 422.18 119.236 419C119.236 415.82 120.356 414.5 121.956 414.5C123.576 414.5 124.696 415.82 124.696 419C124.696 422.18 123.576 423.5 121.956 423.5Z" fill="black"/>
<path d="M240.32 417.7L243.48 414.1V412H233.68V414.6H239.64L236.76 417.86V420H238.24C240.08 420 240.86 420.66 240.86 421.72C240.86 422.86 239.86 423.52 238.24 423.52C236.78 423.52 235.3 423.06 234.24 422.26L232.98 424.74C234.34 425.7 236.36 426.24 238.32 426.24C242.3 426.24 244.12 424.08 244.12 421.72C244.12 419.66 242.84 418.1 240.32 417.7ZM250.221 417.26H249.081L249.301 414.6H255.141V412H246.601L245.881 419.88H249.461C252.001 419.88 252.721 420.6 252.721 421.7C252.721 422.84 251.721 423.52 250.101 423.52C248.641 423.52 247.181 423.06 246.121 422.26L244.841 424.74C246.201 425.7 248.241 426.24 250.181 426.24C254.181 426.24 256.001 424.08 256.001 421.6C256.001 419.12 254.361 417.26 250.221 417.26ZM277.019 426L276.979 415.24H274.059L270.399 421.46L266.959 415.24H263.699V426H266.519V419.54L269.659 424.96H270.979L274.199 419.56V426H277.019ZM280.008 426H282.888L288.108 419.6V426H291.208V415.24H288.348L283.108 421.64V415.24H280.008V426ZM294.207 426H297.307V421.98H301.987V426H305.107V415.24H301.987V419.44H297.307V415.24H294.207V426Z" fill="black"/>
<path d="M216.5 406C209.595 406 204 411.595 204 418.5C204 425.405 209.595 431 216.5 431C223.405 431 229 425.405 229 418.5C229 411.595 223.405 406 216.5 406Z" fill="#00BCBC"/>
<path fill-rule="evenodd" clip-rule="evenodd" d="M215.961 410C214.878 410 214 410.878 214 411.961V419.153C214 419.311 214.019 419.464 214.054 419.611C214.047 420.263 214.376 420.901 214.974 421.262L220.414 424.535C221.313 425.077 222.481 424.786 223.022 423.887C223.563 422.988 223.273 421.82 222.374 421.279L217.923 418.6V411.961C217.923 410.878 217.045 410 215.961 410Z" fill="white"/>
<g filter="url(#filter0_d)">
<path d="M162.531 400.393L185.975 433.213C179.766 434.57 168.698 428.331 168.698 428.331C168.698 428.331 160.834 438.706 154.912 440L162.531 400.393Z" fill="white"/>
<path fill-rule="evenodd" clip-rule="evenodd" d="M154.912 440L158.469 421.51C161.522 424.284 164.956 426.604 168.698 428.331C168.698 428.331 160.834 438.706 154.912 440Z" fill="#BBFFF9"/>
</g>
<path d="M150.511 25.4V40.77H160.313V34.506H170.985L157.297 66H169.825L184.151 32.592V25.4H150.511Z" fill="#46BBCE"/>
<g filter="url(#filter1_di)">
<path d="M170.5 125C133.925 125 104 154.925 104 191.5C104 228.075 133.925 258 170.5 258C207.075 258 237 228.075 237 191.5C237 154.925 207.075 125 170.5 125ZM215.387 228.075C212.894 227.244 211.231 225.581 208.738 225.581L190.45 222.256C188.787 222.256 187.125 219.762 187.125 218.1V213.944C187.956 212.281 189.619 209.788 190.45 208.125C191.281 206.462 192.944 203.969 193.775 203.137C197.1 199.812 201.256 195.656 202.088 189.838C202.919 184.85 202.087 182.356 201.256 179.862C201.256 174.875 201.256 168.225 199.594 163.237C199.594 156.587 197.931 153.263 195.438 149.938C192.944 147.444 190.45 147.444 187.956 146.612C187.125 146.612 185.463 146.613 185.463 145.781C179.644 143.287 175.488 141.625 170.5 141.625C159.694 142.456 145.562 149.106 141.406 161.575C139.744 164.9 139.744 171.55 140.575 176.537V179.862C138.913 181.525 138.081 184.019 138.912 189.006C139.744 193.994 143.9 198.15 147.225 202.306C148.056 203.138 148.887 205.631 150.55 207.294C151.381 209.787 153.044 211.45 153.875 213.113V217.269C153.875 218.931 152.212 220.594 150.55 221.425L132.263 224.75C129.769 225.581 127.275 226.413 125.612 227.244C117.3 218.1 112.312 205.631 112.312 191.5C112.312 159.081 138.081 133.312 170.5 133.312C202.919 133.312 228.688 159.081 228.688 191.5C228.688 205.631 223.7 218.1 215.387 228.075Z" fill="white"/>
</g>
<defs>
<filter id="filter0_d" x="143" y="393" width="52.975" height="57.0001" filterUnits="userSpaceOnUse" color-interpolation-filters="sRGB">
<feFlood flood-opacity="0" result="BackgroundImageFix"/>
<feColorMatrix in="SourceAlpha" type="matrix" values="0 0 0 0 0 0 0 0 0 0 0 0 0 0 0 0 0 0 127 0"/>
<feOffset dx="3" dy="3"/>
<feGaussianBlur stdDeviation="3.5"/>
<feColorMatrix type="matrix" values="0 0 0 0 0.279 0 0 0 0 0.9 0 0 0 0 0.840225 0 0 0 1 0"/>
<feBlend mode="normal" in2="BackgroundImageFix" result="effect1_dropShadow"/>
<feBlend mode="normal" in="SourceGraphic" in2="effect1_dropShadow" result="shape"/>
</filter>
<filter id="filter1_di" x="98" y="119" width="153" height="153" filterUnits="userSpaceOnUse" color-interpolation-filters="sRGB">
<feFlood flood-opacity="0" result="BackgroundImageFix"/>
<feColorMatrix in="SourceAlpha" type="matrix" values="0 0 0 0 0 0 0 0 0 0 0 0 0 0 0 0 0 0 127 0"/>
<feOffset dx="4" dy="4"/>
<feGaussianBlur stdDeviation="5"/>
<feColorMatrix type="matrix" values="0 0 0 0 0.1715 0 0 0 0 0.816667 0 0 0 0 0.816667 0 0 0 1 0"/>
<feBlend mode="normal" in2="BackgroundImageFix" result="effect1_dropShadow"/>
<feBlend mode="normal" in="SourceGraphic" in2="effect1_dropShadow" result="shape"/>
<feColorMatrix in="SourceAlpha" type="matrix" values="0 0 0 0 0 0 0 0 0 0 0 0 0 0 0 0 0 0 127 0" result="hardAlpha"/>
<feOffset dx="-4" dy="-4"/>
<feGaussianBlur stdDeviation="4.5"/>
<feComposite in2="hardAlpha" operator="arithmetic" k2="-1" k3="1"/>
<feColorMatrix type="matrix" values="0 0 0 0 0.441945 0 0 0 0 0.887146 0 0 0 0 0.895833 0 0 0 0.52 0"/>
<feBlend mode="normal" in2="shape" result="effect2_innerShadow"/>
</filter>
<linearGradient id="paint0_linear" x1="5.5" y1="-157" x2="289.5" y2="495.5" gradientUnits="userSpaceOnUse">
<stop stop-color="#00C2FF"/>
<stop offset="1" stop-color="#1EE7CF"/>
</linearGradient>
<linearGradient id="paint1_linear" x1="49" y1="11" x2="301.5" y2="474" gradientUnits="userSpaceOnUse">
<stop stop-color="#19D2EB"/>
<stop offset="1" stop-color="#55F5DF"/>
</linearGradient>
<linearGradient id="paint2_linear" x1="59.5" y1="-9" x2="291.5" y2="495.5" gradientUnits="userSpaceOnUse">
<stop stop-color="#00E0FF"/>
<stop offset="1" stop-color="#42F2D1"/>
</linearGradient>
<linearGradient id="paint3_linear" x1="51" y1="11" x2="303.5" y2="474" gradientUnits="userSpaceOnUse">
<stop stop-color="#B2F6FF"/>
<stop offset="1" stop-color="#28D7BE"/>
</linearGradient>
<linearGradient id="paint4_linear" x1="27" y1="473.49" x2="247.084" y2="60.8524" gradientUnits="userSpaceOnUse">
<stop stop-color="#73F5FF"/>
<stop offset="0.99" stop-color="#7AFFEC"/>
</linearGradient>
<linearGradient id="paint5_linear" x1="129.774" y1="288" x2="310" y2="288" gradientUnits="userSpaceOnUse">
<stop stop-color="white"/>
<stop offset="0.99" stop-color="white" stop-opacity="0.4"/>
</linearGradient>
<linearGradient id="paint6_linear" x1="59.8997" y1="86" x2="140" y2="86" gradientUnits="userSpaceOnUse">
<stop stop-color="white"/>
<stop offset="0.99" stop-color="white" stop-opacity="0.4"/>
</linearGradient>
</defs>
</svg>
