<svg width="338" height="474" viewBox="0 0 338 474" fill="none" xmlns="http://www.w3.org/2000/svg">
<rect x="2.5" y="2.5" width="331" height="469" rx="32.5" fill="url(#paint0_linear)" stroke="url(#paint1_linear)" stroke-width="5"/>
<mask id="mask0" mask-type="alpha" maskUnits="userSpaceOnUse" x="2" y="0" width="336" height="474">
<rect x="4.5" y="2.5" width="331" height="469" rx="41.5" fill="url(#paint2_linear)" stroke="url(#paint3_linear)" stroke-width="5"/>
</mask>
<g mask="url(#mask0)">
<path d="M198.89 5.0093C198.89 5.0093 97.8208 47.0947 93.9888 101.845C90.1568 156.595 112.775 152.615 106.069 185.086C99.3631 217.557 -10.9124 255.616 18.7856 356.766C48.4837 457.916 142.368 370.584 242 469H35C18.4315 469 5 455.569 5 439V35.0014C5 18.4323 18.4323 5.00064 35.0014 5.00144L198.89 5.0093Z" fill="url(#paint4_linear)" fill-opacity="0.5"/>
</g>
<path opacity="0.46" d="M219.887 378C202.092 377.978 184.702 372.68 169.917 362.777C155.131 352.875 143.613 338.811 136.819 322.363C130.024 305.916 128.258 287.824 131.743 270.373C135.229 252.922 143.809 236.896 156.4 224.321C168.992 211.745 185.028 203.185 202.483 199.721C219.939 196.258 238.029 198.046 254.468 204.862C270.906 211.677 284.956 223.212 294.84 238.01C304.724 252.808 310 270.204 310 288C309.958 311.876 300.447 334.761 283.553 351.633C266.66 368.506 243.763 377.988 219.887 378ZM219.887 222.747C206.985 222.764 194.378 226.607 183.659 233.788C172.94 240.969 164.59 251.166 159.665 263.091C154.74 275.016 153.461 288.134 155.989 300.786C158.517 313.438 164.739 325.056 173.868 334.173C182.998 343.29 194.625 349.496 207.28 352.006C219.936 354.517 233.051 353.219 244.97 348.278C256.888 343.336 267.074 334.972 274.24 324.243C281.406 313.515 285.231 300.902 285.231 288C285.177 270.703 278.27 254.132 266.022 241.918C253.774 229.704 237.184 222.843 219.887 222.837V222.747Z" fill="url(#paint5_linear)"/>
<path opacity="0.46" d="M99.9498 126C92.0407 125.99 84.3121 123.636 77.7407 119.234C71.1694 114.833 66.0503 108.583 63.0305 101.273C60.0106 93.9627 59.2257 85.9216 60.7747 78.1657C62.3238 70.4097 66.1374 63.2871 71.7335 57.698C77.3296 52.1089 84.457 48.3043 92.2148 46.7649C99.9727 45.2256 108.013 46.0207 115.319 49.0496C122.625 52.0786 128.869 57.2055 133.262 63.7824C137.655 70.3593 140 78.0909 140 86C139.981 96.6116 135.754 106.783 128.246 114.281C120.738 121.78 110.561 125.995 99.9498 126ZM99.9498 56.9985C94.2156 57.0064 88.6124 58.7141 83.8484 61.9056C79.0844 65.0972 75.3735 69.6294 73.1846 74.9294C70.9957 80.2294 70.4271 86.0594 71.5506 91.6825C72.6742 97.3056 75.4395 102.469 79.497 106.521C83.5545 110.573 88.7222 113.331 94.3468 114.447C99.9715 115.563 105.801 114.986 111.098 112.79C116.395 110.594 120.922 106.877 124.107 102.108C127.292 97.3398 128.991 91.7342 128.991 86C128.968 78.3124 125.898 70.9477 120.454 65.5193C115.011 60.0908 107.637 57.0412 99.9498 57.0386V56.9985Z" fill="url(#paint6_linear)"/>
<path d="M78.6009 315L78.5529 298.2H74.6409L68.8809 307.896L62.9769 298.2H59.0649V315H63.4329V306.288L67.7529 313.344H69.8649L74.1849 306.096L74.2089 315H78.6009Z" fill="black"/>
<path d="M88.0783 311.328V308.256H95.5423V304.704H88.0783V301.872H96.5503V298.2H83.3743V315H96.8623V311.328H88.0783Z" fill="black"/>
<path d="M108.93 315.336C112.026 315.336 114.522 314.208 116.154 312.168L113.13 309.432C112.074 310.704 110.778 311.4 109.17 311.4C106.41 311.4 104.49 309.48 104.49 306.6C104.49 303.72 106.41 301.8 109.17 301.8C110.778 301.8 112.074 302.496 113.13 303.768L116.154 301.032C114.522 298.992 112.026 297.864 108.93 297.864C103.602 297.864 99.6902 301.488 99.6902 306.6C99.6902 311.712 103.602 315.336 108.93 315.336Z" fill="black"/>
<path d="M132.896 298.2H117.92V301.968H123.08V315H127.76V301.968H132.896V298.2Z" fill="black"/>
<path d="M144.308 315.336C149.684 315.336 153.644 311.64 153.644 306.6C153.644 301.56 149.684 297.864 144.308 297.864C138.932 297.864 134.972 301.56 134.972 306.6C134.972 311.64 138.932 315.336 144.308 315.336ZM144.308 311.4C141.764 311.4 139.772 309.504 139.772 306.6C139.772 303.696 141.764 301.8 144.308 301.8C146.852 301.8 148.844 303.696 148.844 306.6C148.844 309.504 146.852 311.4 144.308 311.4Z" fill="black"/>
<path d="M165.57 315H170.058L176.97 305.16V315H181.65V298.2H177.186L170.25 308.064V298.2H165.57V315Z" fill="black"/>
<path d="M210.41 311.232V298.2H196.874L196.682 303.384C196.514 307.872 195.962 311.184 193.826 311.232H193.226V318.384H197.594V315H208.346V318.384H212.69V311.232H210.41ZM200.834 303.792L200.906 301.968H205.73V311.232H199.37C200.354 309.816 200.714 307.08 200.834 303.792Z" fill="black"/>
<path d="M229.261 315H234.205L226.765 298.2H222.085L214.669 315H219.517L220.837 311.736H227.941L229.261 315ZM222.229 308.232L224.389 302.856L226.549 308.232H222.229Z" fill="black"/>
<path d="M250.023 298.2H235.047V301.968H240.207V315H244.887V301.968H250.023V298.2Z" fill="black"/>
<path d="M265.482 315H270.426L262.986 298.2H258.306L250.89 315H255.738L257.058 311.736H264.162L265.482 315ZM258.45 308.232L260.61 302.856L262.77 308.232H258.45Z" fill="black"/>
<path d="M94.7293 326.2H87.0493V343H91.8013V338.608H94.7293C99.3133 338.608 102.193 336.232 102.193 332.416C102.193 328.576 99.3133 326.2 94.7293 326.2ZM94.4413 334.864H91.8013V329.944H94.4413C96.4093 329.944 97.3933 330.856 97.3933 332.416C97.3933 333.952 96.4093 334.864 94.4413 334.864Z" fill="black"/>
<path d="M114.037 343.336C119.413 343.336 123.373 339.64 123.373 334.6C123.373 329.56 119.413 325.864 114.037 325.864C108.661 325.864 104.701 329.56 104.701 334.6C104.701 339.64 108.661 343.336 114.037 343.336ZM114.037 339.4C111.493 339.4 109.501 337.504 109.501 334.6C109.501 331.696 111.493 329.8 114.037 329.8C116.581 329.8 118.573 331.696 118.573 334.6C118.573 337.504 116.581 339.4 114.037 339.4Z" fill="black"/>
<path d="M145.608 343H151.08L146.304 334.192L150.792 326.2H145.824L142.392 332.728H140.352V326.2H135.696V332.728H133.56L130.2 326.2H125.208L129.696 334.192L124.92 343H130.416L133.704 336.568H135.696V343H140.352V336.568H142.344L145.608 343Z" fill="black"/>
<path d="M170.05 339.232V326.2H156.514L156.322 331.384C156.154 335.872 155.602 339.184 153.466 339.232H152.866V346.384H157.234V343H167.986V346.384H172.33V339.232H170.05ZM160.474 331.792L160.546 329.968H165.37V339.232H159.01C159.994 337.816 160.354 335.08 160.474 331.792Z" fill="black"/>
<path d="M180.506 339.328V336.256H187.97V332.704H180.506V329.872H188.978V326.2H175.802V343H189.29V339.328H180.506Z" fill="black"/>
<path d="M204.43 326.2V332.512H197.95V326.2H193.198V343H197.95V336.448H204.43V343H209.182V326.2H204.43Z" fill="black"/>
<path d="M213.992 343H218.479L225.391 333.16V343H230.072V326.2H225.607L218.671 336.064V326.2H213.992V343Z" fill="black"/>
<path d="M241.383 326.2C236.775 326.2 233.871 328.624 233.871 332.584C233.871 335.2 235.119 337.096 237.327 338.08L233.919 343H238.911L241.671 338.776H244.263V343H248.943V326.2H241.383ZM241.479 329.944H244.263V335.104H241.431C239.631 335.104 238.671 334.192 238.671 332.512C238.671 330.808 239.631 329.944 241.479 329.944Z" fill="black"/>
<path fill-rule="evenodd" clip-rule="evenodd" d="M80.9866 319.394C80.2608 319.788 79.4418 320 78.6009 320H74.2089C72.7164 320 71.3763 319.346 70.46 318.309C70.2639 318.332 70.0653 318.344 69.8649 318.344H67.7529C67.56 318.344 67.3686 318.333 67.1796 318.311C66.2635 319.347 64.9245 320 63.4329 320H59.0649C56.3035 320 54.0649 317.761 54.0649 315L54.0649 298.2C54.0649 295.439 56.3035 293.2 59.0649 293.2H62.9769C64.7216 293.2 66.3401 294.109 67.2475 295.6L68.828 298.195L70.3423 295.646C71.2433 294.13 72.8768 293.2 74.6409 293.2H78.5529C79.4269 293.2 80.2487 293.424 80.9636 293.818C81.6785 293.424 82.5002 293.2 83.3743 293.2H96.5503C98.2306 293.2 99.7173 294.029 100.624 295.3C102.971 293.738 105.845 292.864 108.93 292.864C111.1 292.864 113.186 293.268 115.07 294.091C115.879 293.529 116.861 293.2 117.92 293.2H132.896C134.387 293.2 135.726 293.853 136.642 294.888C138.871 293.587 141.506 292.864 144.308 292.864C152.124 292.864 158.644 298.487 158.644 306.6C158.644 314.713 152.124 320.336 144.308 320.336C139.615 320.336 135.388 318.308 132.76 314.93V315C132.76 317.761 130.522 320 127.76 320H123.08C121.011 320 119.235 318.743 118.475 316.951C115.88 319.23 112.519 320.336 108.93 320.336C105.937 320.336 103.142 319.513 100.834 318.037C99.9206 319.231 98.4813 320 96.8623 320H83.3743C82.5096 320 81.6961 319.781 80.9866 319.394ZM96.8623 315V311.328H88.0783V308.256H95.5423V304.704H88.0783V301.872H96.5503V298.2H83.3743V315H96.8623ZM99.7286 305.732C99.7032 306.016 99.6902 306.306 99.6902 306.6C99.6902 306.808 99.6967 307.014 99.7095 307.217C99.7319 307.572 99.7735 307.918 99.8334 308.256C99.9329 308.816 100.083 309.352 100.279 309.861C100.479 310.38 100.728 310.87 101.02 311.328C101.27 311.719 101.551 312.086 101.862 312.428C103.521 314.25 106.013 315.336 108.93 315.336C109.011 315.336 109.091 315.335 109.17 315.334C110.106 315.316 110.986 315.193 111.801 314.972C113.247 314.58 114.492 313.878 115.493 312.899C115.727 312.67 115.947 312.427 116.154 312.168L113.13 309.432C113.077 309.496 113.023 309.559 112.969 309.62C112.89 309.708 112.81 309.794 112.728 309.876C111.75 310.865 110.58 311.4 109.17 311.4C109.089 311.4 109.009 311.398 108.93 311.395C106.3 311.287 104.49 309.396 104.49 306.6C104.49 303.804 106.3 301.913 108.93 301.805C109.009 301.802 109.089 301.8 109.17 301.8C110.58 301.8 111.75 302.335 112.728 303.324C112.81 303.406 112.89 303.492 112.969 303.58C113.023 303.641 113.077 303.704 113.13 303.768L116.154 301.032C115.947 300.773 115.727 300.53 115.493 300.301C114.76 299.585 113.897 299.017 112.92 298.61C112.562 298.461 112.189 298.333 111.801 298.228C110.986 298.007 110.106 297.884 109.17 297.866C109.091 297.865 109.011 297.864 108.93 297.864C105.824 297.864 103.199 299.096 101.55 301.136C101.36 301.371 101.183 301.616 101.02 301.872C100.748 302.298 100.514 302.752 100.322 303.231C100.134 303.699 99.985 304.191 99.8794 304.704C99.8107 305.038 99.7601 305.381 99.7286 305.732ZM117.859 306.968L118.08 307.168V306.968H117.92C117.9 306.968 117.879 306.968 117.859 306.968ZM123.08 315H127.76V301.968H132.896V298.2H117.92V301.968H123.08V315ZM134.973 306.518C134.973 306.545 134.972 306.573 134.972 306.6C134.972 311.64 138.932 315.336 144.308 315.336C149.684 315.336 153.644 311.64 153.644 306.6C153.644 301.56 149.684 297.864 144.308 297.864C141.764 297.864 139.537 298.692 137.896 300.099C137.264 300.641 136.719 301.268 136.277 301.968C135.455 303.268 134.987 304.815 134.973 306.518ZM62.9769 298.2H59.0649V315H63.4329V306.288L67.7529 313.344H69.8649L74.1849 306.096L74.2089 315H78.6009L78.5529 298.2H74.6409L68.8809 307.896L62.9769 298.2ZM144.308 306.4C144.308 306.4 144.308 306.4 144.308 306.4C144.317 306.401 144.359 306.406 144.422 306.432C144.504 306.465 144.591 306.522 144.667 306.599C144.667 306.599 144.667 306.6 144.668 306.6C144.667 306.6 144.667 306.601 144.667 306.601C144.591 306.679 144.504 306.735 144.422 306.768C144.359 306.794 144.318 306.799 144.309 306.8C144.309 306.8 144.309 306.8 144.309 306.8M165.57 320C162.808 320 160.57 317.761 160.57 315V298.2C160.57 295.439 162.808 293.2 165.57 293.2H170.25C171.596 293.2 172.819 293.732 173.718 294.598C174.64 293.71 175.88 293.2 177.186 293.2H181.65C184.411 293.2 186.65 295.439 186.65 298.2V315C186.65 317.761 184.411 320 181.65 320H176.97C175.629 320 174.412 319.472 173.514 318.613C172.592 319.495 171.357 320 170.058 320H165.57ZM176.97 315H181.65V298.2H177.186L170.25 308.064V298.2H165.57V315H170.058L176.97 305.16V315ZM205.73 311.232V301.968H200.906L200.844 303.538L200.843 303.54L200.834 303.792C200.809 304.45 200.776 305.086 200.73 305.694C200.716 305.876 200.701 306.055 200.684 306.232C200.549 307.709 200.328 308.997 199.974 310C199.804 310.479 199.605 310.893 199.37 311.232H205.73ZM197.594 318.384H193.226V311.232H193.826C194.02 311.228 194.201 311.196 194.37 311.139C194.398 311.13 194.426 311.12 194.453 311.109C194.697 311.013 194.914 310.862 195.108 310.661C195.495 310.259 195.789 309.659 196.013 308.9C196.408 307.564 196.585 305.738 196.671 303.64C196.672 303.636 196.672 303.632 196.672 303.628C196.675 303.547 196.678 303.466 196.682 303.384L196.874 298.2H210.41V311.232H212.69V318.384H208.346V315H197.594V318.384ZM203.612 320H202.327C202.04 320.84 201.536 321.579 200.883 322.15C200.988 322.227 201.091 322.307 201.19 322.392C202.012 321.692 203.064 321.253 204.216 321.204C203.964 320.836 203.76 320.431 203.612 320ZM213.992 326.2V343H218.479L225.391 333.16V343H230.072V326.2H225.607L218.671 336.064V326.2H213.992ZM222.139 322.598C221.24 321.732 220.018 321.2 218.671 321.2H216.822C217.073 320.832 217.276 320.429 217.423 320H219.517C221.555 320 223.389 318.764 224.153 316.875L224.209 316.736H224.57L224.626 316.875C225.39 318.764 227.224 320 229.261 320H234.205C235.303 320 236.352 319.64 237.206 319C238.042 319.628 239.081 320 240.207 320H244.887C246.013 320 247.052 319.628 247.888 318.999C248.742 319.64 249.792 320 250.89 320H255.738C257.775 320 259.609 318.764 260.373 316.875L260.429 316.736H260.79L260.846 316.875C261.61 318.764 263.444 320 265.482 320H270.426C272.117 320 273.694 319.145 274.616 317.727C275.539 316.31 275.682 314.522 274.997 312.975L267.557 296.175C266.756 294.366 264.964 293.2 262.986 293.2H258.306C256.627 293.2 255.083 294.039 254.164 295.398C253.265 294.072 251.746 293.2 250.023 293.2H235.047C233.324 293.2 231.805 294.071 230.906 295.397C229.987 294.039 228.443 293.2 226.765 293.2H222.085C220.105 293.2 218.311 294.369 217.511 296.181L215.41 300.942V298.2C215.41 295.439 213.171 293.2 210.41 293.2H196.874C194.184 293.2 191.976 295.327 191.877 298.015L191.685 303.197C191.685 303.198 191.685 303.198 191.685 303.199C191.645 304.252 191.586 305.159 191.498 305.924C191.47 306.165 191.44 306.381 191.41 306.572C189.546 307.298 188.226 309.111 188.226 311.232V318.384C188.226 319.429 188.546 320.399 189.094 321.201C189.056 321.2 189.017 321.2 188.978 321.2H175.802C174.732 321.2 173.74 321.537 172.926 322.11C172.113 321.537 171.121 321.2 170.05 321.2H156.514C155.452 321.2 154.465 321.532 153.653 322.099C152.827 321.523 151.832 321.2 150.792 321.2H145.824C144.834 321.2 143.888 321.493 143.089 322.015C142.302 321.5 141.362 321.2 140.352 321.2H135.696C134.681 321.2 133.736 321.503 132.948 322.023C132.146 321.496 131.195 321.2 130.2 321.2H125.208C123.802 321.2 122.479 321.79 121.544 322.797C119.35 321.553 116.773 320.864 114.037 320.864C110.173 320.864 106.625 322.239 104.026 324.609C103.819 324.406 103.602 324.21 103.375 324.022C100.946 322.004 97.8356 321.2 94.7293 321.2H87.0493C84.2879 321.2 82.0493 323.439 82.0493 326.2V343C82.0493 345.761 84.2879 348 87.0493 348H91.8013C94.3987 348 96.5335 346.02 96.778 343.486C98.5307 343.273 100.235 342.769 101.764 341.9C104.293 345.891 108.883 348.336 114.037 348.336C116.695 348.336 119.203 347.685 121.357 346.508C122.285 347.451 123.564 348 124.92 348H130.416C131.367 348 132.277 347.73 133.055 347.247C133.822 347.724 134.727 348 135.696 348H140.352C141.316 348 142.217 347.727 142.981 347.254C143.756 347.733 144.662 348 145.608 348H148.133C148.805 349.968 150.67 351.384 152.866 351.384H157.234C159.43 351.384 161.295 349.968 161.967 348H163.253C163.925 349.968 165.79 351.384 167.986 351.384H172.33C174.526 351.384 176.391 349.968 177.063 348H189.29C189.984 348 190.644 347.859 191.244 347.604C191.844 347.859 192.505 348 193.198 348H197.95C199.186 348 200.317 347.552 201.19 346.808C202.062 347.552 203.194 348 204.43 348H209.182C210.053 348 210.873 347.777 211.587 347.385C212.3 347.777 213.12 348 213.992 348H218.479C219.779 348 221.014 347.495 221.936 346.613C222.833 347.472 224.051 348 225.391 348H230.072C230.754 348 231.404 347.863 231.997 347.616C232.596 347.865 233.247 348 233.919 348H238.911C239.873 348 240.798 347.723 241.586 347.224C242.36 347.715 243.278 348 244.263 348H248.943C251.704 348 253.943 345.761 253.943 343V326.2C253.943 323.439 251.704 321.2 248.943 321.2H241.383C238.796 321.2 236.207 321.762 234.009 323.119C233.094 321.951 231.671 321.2 230.072 321.2H225.607C224.302 321.2 223.062 321.71 222.139 322.598ZM244.263 343H248.943V326.2H241.383C238.532 326.2 236.334 327.128 235.072 328.773C234.306 329.771 233.885 331.033 233.871 332.512C233.871 332.536 233.871 332.56 233.871 332.584C233.871 334.099 234.29 335.373 235.072 336.368C235.173 336.497 235.28 336.621 235.393 336.741C235.704 337.068 236.06 337.36 236.458 337.614C236.677 337.754 236.909 337.883 237.154 338C237.211 338.027 237.269 338.054 237.327 338.08L233.919 343H238.911L241.671 338.776H244.263V343ZM244.263 335.104V329.944H241.479C241.447 329.944 241.415 329.944 241.383 329.945C240.426 329.961 239.716 330.216 239.263 330.707C238.871 331.133 238.671 331.735 238.671 332.512C238.671 332.536 238.671 332.56 238.672 332.584C238.682 333.202 238.825 333.714 239.096 334.11C239.147 334.185 239.203 334.256 239.263 334.323C239.277 334.339 239.292 334.354 239.307 334.37C239.758 334.838 240.442 335.088 241.344 335.103C241.373 335.104 241.402 335.104 241.431 335.104H244.263ZM209.182 343V326.2H204.43V332.512H197.95V326.2H193.198V343H197.95V336.448H204.43V343H209.182ZM188.978 329.872V326.2H175.802V343H189.29V339.328H180.506V336.256H187.97V332.704H180.506V329.872H188.978ZM170.05 326.2H156.514L156.322 331.384C156.319 331.466 156.316 331.547 156.313 331.628C156.312 331.632 156.312 331.636 156.312 331.64C156.226 333.738 156.048 335.564 155.654 336.9C155.43 337.659 155.136 338.259 154.749 338.661C154.677 338.735 154.602 338.802 154.524 338.862C154.391 338.966 154.247 339.048 154.094 339.109C154.066 339.12 154.039 339.13 154.011 339.139C153.842 339.196 153.661 339.228 153.466 339.232H152.866V346.384H157.234V343H167.986V346.384H172.33V339.232H170.05V326.2ZM165.37 329.968H160.546L160.484 331.538L160.484 331.54L160.474 331.792C160.45 332.45 160.416 333.086 160.37 333.694C160.356 333.876 160.341 334.055 160.325 334.232C160.189 335.709 159.969 336.997 159.614 338C159.445 338.479 159.245 338.893 159.01 339.232H165.37V329.968ZM140.352 326.2H135.696V332.728H133.56L130.2 326.2H125.208L129.696 334.192L124.92 343H130.416L133.704 336.568H135.696V343H140.352V336.568H142.344L145.608 343H151.08L146.304 334.192L150.792 326.2H145.824L142.392 332.728H140.352V326.2ZM123.205 332.846C122.881 331.185 122.097 329.729 120.967 328.582C120.869 328.483 120.769 328.386 120.667 328.292C119.008 326.768 116.696 325.864 114.037 325.864C110.975 325.864 108.373 327.062 106.7 329.025C105.879 329.988 105.281 331.136 104.963 332.416C104.791 333.108 104.701 333.839 104.701 334.6C104.701 335.967 104.992 337.236 105.524 338.358C106.953 341.373 110.119 343.336 114.037 343.336C116.466 343.336 118.605 342.582 120.222 341.289C120.427 341.126 120.623 340.953 120.811 340.772C122.235 339.4 123.147 337.556 123.336 335.432C123.36 335.159 123.373 334.882 123.373 334.6C123.373 333.994 123.315 333.408 123.205 332.846ZM87.0493 326.2V343H91.8013V338.608H94.7293C96.8737 338.608 98.6451 338.088 99.9233 337.144C100.81 336.489 101.459 335.631 101.831 334.6C102.069 333.94 102.193 333.209 102.193 332.416C102.193 330.946 101.771 329.69 100.993 328.7C99.738 327.105 97.5581 326.2 94.7293 326.2H87.0493ZM91.8013 329.944V334.864H94.4413C94.5398 334.864 94.6358 334.862 94.7293 334.857C95.6681 334.812 96.3588 334.54 96.8013 334.078C97.196 333.667 97.3933 333.104 97.3933 332.416C97.3933 331.717 97.196 331.149 96.8013 330.734C96.3588 330.268 95.6681 329.996 94.7293 329.951C94.6358 329.946 94.5398 329.944 94.4413 329.944H91.8013ZM191.15 307.681C191.15 307.681 191.152 307.674 191.159 307.661C191.153 307.675 191.15 307.681 191.15 307.681ZM226.765 298.2H222.085L214.669 315H219.517L220.837 311.736H227.941L229.261 315H234.205L226.765 298.2ZM224.389 302.856L222.229 308.232H226.549L224.389 302.856ZM240.207 315H244.887V301.968H250.023V298.2H235.047V301.968H240.207V315ZM262.986 298.2H258.306L250.89 315H255.738L257.058 311.736H264.162L265.482 315H270.426L262.986 298.2ZM260.61 302.856L258.45 308.232H262.77L260.61 302.856ZM114.037 334.4C114.028 334.401 113.986 334.406 113.923 334.432C113.841 334.465 113.754 334.522 113.678 334.599C113.678 334.599 113.678 334.6 113.677 334.6C113.678 334.6 113.678 334.601 113.678 334.601C113.754 334.679 113.841 334.735 113.923 334.768C113.986 334.794 114.028 334.799 114.037 334.8M114.037 334.4C114.045 334.401 114.087 334.406 114.15 334.432ZM114.15 334.432C114.232 334.465 114.319 334.522 114.395 334.599ZM114.395 334.599C114.395 334.599 114.396 334.6 114.396 334.6ZM114.396 334.6C114.396 334.6 114.395 334.601 114.395 334.601ZM114.395 334.601C114.319 334.679 114.232 334.735 114.15 334.768ZM114.15 334.768C114.087 334.794 114.045 334.799 114.037 334.8ZM139.772 306.6C139.772 309.504 141.764 311.4 144.308 311.4C146.852 311.4 148.844 309.504 148.844 306.6C148.844 303.696 146.852 301.8 144.308 301.8C141.764 301.8 139.772 303.696 139.772 306.6ZM109.501 334.6C109.501 337.504 111.493 339.4 114.037 339.4C116.581 339.4 118.573 337.504 118.573 334.6C118.573 331.696 116.581 329.8 114.037 329.8C111.493 329.8 109.501 331.696 109.501 334.6Z" fill="white"/>
<rect x="16" y="397" width="125" height="43" rx="13" fill="white"/>
<rect x="195" y="397" width="125" height="43" rx="13" fill="white"/>
<path d="M252 5C252 26.7477 243.361 47.6048 227.983 62.9828C212.605 78.3607 191.748 87 170 87C148.252 87 127.395 78.3607 112.017 62.9828C96.6393 47.6048 88 26.7478 88 5.00002L170 5H252Z" fill="white"/>
<path d="M48.032 423.216C48.032 414.96 35.328 417.52 35.328 414.096C35.328 412.976 36.288 412.08 38.944 412.08C40.896 412.08 43.008 412.656 45.152 413.808L47.104 409.104C45.312 408.048 42.976 407.408 40.608 407.216V403.76H36.768V407.28C31.584 407.92 29.056 410.896 29.056 414.416C29.056 422.736 41.792 420.144 41.792 423.696C41.792 424.784 40.768 425.52 38.144 425.52C35.552 425.52 32.736 424.624 30.752 423.312L28.672 427.984C30.528 429.264 33.568 430.192 36.768 430.416V433.84H40.608V430.288C45.6 429.552 48.032 426.608 48.032 423.216Z" fill="#00BCBC"/>
<path d="M70.78 426.24C74.24 426.24 76.78 423.62 76.78 419C76.78 414.38 74.24 411.76 70.78 411.76C67.34 411.76 64.78 414.38 64.78 419C64.78 423.62 67.34 426.24 70.78 426.24ZM70.78 423.5C69.18 423.5 68.06 422.18 68.06 419C68.06 415.82 69.18 414.5 70.78 414.5C72.4 414.5 73.52 415.82 73.52 419C73.52 422.18 72.4 423.5 70.78 423.5ZM79.9603 422.28C78.8603 422.28 78.0203 423.04 78.0203 424.2C78.0203 425.02 78.4403 425.64 79.1003 425.9L78.2203 429.08H80.2003L81.3403 426.2C81.8003 425.1 81.8803 424.72 81.8803 424.2C81.8803 423.06 81.0803 422.28 79.9603 422.28ZM89.0808 426.24C92.5408 426.24 95.0808 423.62 95.0808 419C95.0808 414.38 92.5408 411.76 89.0808 411.76C85.6408 411.76 83.0808 414.38 83.0808 419C83.0808 423.62 85.6408 426.24 89.0808 426.24ZM89.0808 423.5C87.4808 423.5 86.3608 422.18 86.3608 419C86.3608 415.82 87.4808 414.5 89.0808 414.5C90.7008 414.5 91.8208 415.82 91.8208 419C91.8208 422.18 90.7008 423.5 89.0808 423.5ZM102.655 426.24C106.115 426.24 108.655 423.62 108.655 419C108.655 414.38 106.115 411.76 102.655 411.76C99.215 411.76 96.655 414.38 96.655 419C96.655 423.62 99.215 426.24 102.655 426.24ZM102.655 423.5C101.055 423.5 99.935 422.18 99.935 419C99.935 415.82 101.055 414.5 102.655 414.5C104.275 414.5 105.395 415.82 105.395 419C105.395 422.18 104.275 423.5 102.655 423.5Z" fill="black"/>
<path d="M237.14 412V414.6H239.94V426H243.18V412H237.14ZM250.412 417.26H249.272L249.492 414.6H255.332V412H246.792L246.072 419.88H249.652C252.192 419.88 252.912 420.6 252.912 421.7C252.912 422.84 251.912 423.52 250.292 423.52C248.832 423.52 247.372 423.06 246.312 422.26L245.032 424.74C246.392 425.7 248.432 426.24 250.372 426.24C254.372 426.24 256.192 424.08 256.192 421.6C256.192 419.12 254.552 417.26 250.412 417.26ZM277.211 426L277.171 415.24H274.251L270.591 421.46L267.151 415.24H263.891V426H266.711V419.54L269.851 424.96H271.171L274.391 419.56V426H277.211ZM280.199 426H283.079L288.299 419.6V426H291.399V415.24H288.539L283.299 421.64V415.24H280.199V426ZM294.398 426H297.498V421.98H302.178V426H305.298V415.24H302.178V419.44H297.498V415.24H294.398V426Z" fill="black"/>
<path d="M216.5 406C209.595 406 204 411.595 204 418.5C204 425.405 209.595 431 216.5 431C223.405 431 229 425.405 229 418.5C229 411.595 223.405 406 216.5 406Z" fill="#00BCBC"/>
<path fill-rule="evenodd" clip-rule="evenodd" d="M215.961 410C214.878 410 214 410.878 214 411.961V419.153C214 419.311 214.019 419.464 214.054 419.611C214.047 420.263 214.376 420.901 214.974 421.262L220.414 424.535C221.313 425.077 222.481 424.786 223.022 423.887C223.563 422.988 223.273 421.82 222.374 421.279L217.923 418.6V411.961C217.923 410.878 217.045 410 215.961 410Z" fill="white"/>
<g filter="url(#filter0_d)">
<path d="M162.531 400.393L185.975 433.213C179.766 434.57 168.698 428.331 168.698 428.331C168.698 428.331 160.834 438.706 154.912 440L162.531 400.393Z" fill="white"/>
<path fill-rule="evenodd" clip-rule="evenodd" d="M154.912 440L158.469 421.51C161.522 424.284 164.956 426.604 168.698 428.331C168.698 428.331 160.834 438.706 154.912 440Z" fill="#BBFFF9"/>
</g>
<path d="M167.987 24.588C159.171 24.588 152.095 29.982 152.095 38.45C152.095 46.222 158.417 51.268 166.073 51.268C169.901 51.268 172.917 50.224 175.179 48.31C174.541 54.458 170.713 57.706 164.971 57.706C162.361 57.706 159.809 57.242 157.489 55.618L153.313 63.854C156.271 65.768 160.679 66.812 165.203 66.812C178.079 66.812 186.837 58.75 186.837 44.598C186.837 31.432 179.413 24.588 167.987 24.588ZM168.799 43.032C165.493 43.032 163.231 41.06 163.231 37.928C163.231 34.738 165.493 32.766 168.741 32.766C172.221 32.766 174.425 34.854 174.425 37.87C174.425 40.944 172.105 43.032 168.799 43.032Z" fill="#46BBCE"/>
<g filter="url(#filter1_di)">
<path fill-rule="evenodd" clip-rule="evenodd" d="M168.414 155.709C166.1 155.709 164.223 157.58 164.223 159.887V175.207C164.223 175.543 164.263 175.869 164.338 176.182C164.324 177.571 165.026 178.93 166.305 179.697L177.928 186.671C179.849 187.823 182.344 187.205 183.501 185.29C184.657 183.374 184.037 180.887 182.115 179.734L172.605 174.028V159.887C172.605 157.58 170.729 155.709 168.414 155.709Z" fill="white"/>
<path d="M170.5 123C143.206 123 121 145.206 121 172.5C121 206.373 165.298 256.1 167.184 258.2C168.955 260.174 172.048 260.17 173.816 258.2C175.702 256.1 220 206.373 220 172.5C219.999 145.206 197.794 123 170.5 123ZM170.5 197.404C156.767 197.404 145.596 186.232 145.596 172.5C145.596 158.767 156.768 147.595 170.5 147.595C184.232 147.595 195.404 158.767 195.404 172.5C195.404 186.233 184.232 197.404 170.5 197.404Z" fill="white"/>
</g>
<defs>
<filter id="filter0_d" x="143" y="393" width="52.975" height="57.0001" filterUnits="userSpaceOnUse" color-interpolation-filters="sRGB">
<feFlood flood-opacity="0" result="BackgroundImageFix"/>
<feColorMatrix in="SourceAlpha" type="matrix" values="0 0 0 0 0 0 0 0 0 0 0 0 0 0 0 0 0 0 127 0"/>
<feOffset dx="3" dy="3"/>
<feGaussianBlur stdDeviation="3.5"/>
<feColorMatrix type="matrix" values="0 0 0 0 0.279 0 0 0 0 0.9 0 0 0 0 0.840225 0 0 0 1 0"/>
<feBlend mode="normal" in2="BackgroundImageFix" result="effect1_dropShadow"/>
<feBlend mode="normal" in="SourceGraphic" in2="effect1_dropShadow" result="shape"/>
</filter>
<filter id="filter1_di" x="115" y="117" width="119" height="156.679" filterUnits="userSpaceOnUse" color-interpolation-filters="sRGB">
<feFlood flood-opacity="0" result="BackgroundImageFix"/>
<feColorMatrix in="SourceAlpha" type="matrix" values="0 0 0 0 0 0 0 0 0 0 0 0 0 0 0 0 0 0 127 0"/>
<feOffset dx="4" dy="4"/>
<feGaussianBlur stdDeviation="5"/>
<feColorMatrix type="matrix" values="0 0 0 0 0.1715 0 0 0 0 0.816667 0 0 0 0 0.816667 0 0 0 1 0"/>
<feBlend mode="normal" in2="BackgroundImageFix" result="effect1_dropShadow"/>
<feBlend mode="normal" in="SourceGraphic" in2="effect1_dropShadow" result="shape"/>
<feColorMatrix in="SourceAlpha" type="matrix" values="0 0 0 0 0 0 0 0 0 0 0 0 0 0 0 0 0 0 127 0" result="hardAlpha"/>
<feOffset dx="-4" dy="-4"/>
<feGaussianBlur stdDeviation="4.5"/>
<feComposite in2="hardAlpha" operator="arithmetic" k2="-1" k3="1"/>
<feColorMatrix type="matrix" values="0 0 0 0 0.441945 0 0 0 0 0.887146 0 0 0 0 0.895833 0 0 0 0.52 0"/>
<feBlend mode="normal" in2="shape" result="effect2_innerShadow"/>
</filter>
<linearGradient id="paint0_linear" x1="5.5" y1="-157" x2="289.5" y2="495.5" gradientUnits="userSpaceOnUse">
<stop stop-color="#00C2FF"/>
<stop offset="1" stop-color="#1EE7CF"/>
</linearGradient>
<linearGradient id="paint1_linear" x1="49" y1="11" x2="301.5" y2="474" gradientUnits="userSpaceOnUse">
<stop stop-color="#19D2EB"/>
<stop offset="1" stop-color="#55F5DF"/>
</linearGradient>
<linearGradient id="paint2_linear" x1="59.5" y1="-9" x2="291.5" y2="495.5" gradientUnits="userSpaceOnUse">
<stop stop-color="#00E0FF"/>
<stop offset="1" stop-color="#42F2D1"/>
</linearGradient>
<linearGradient id="paint3_linear" x1="51" y1="11" x2="303.5" y2="474" gradientUnits="userSpaceOnUse">
<stop stop-color="#B2F6FF"/>
<stop offset="1" stop-color="#28D7BE"/>
</linearGradient>
<linearGradient id="paint4_linear" x1="27" y1="473.49" x2="247.084" y2="60.8524" gradientUnits="userSpaceOnUse">
<stop stop-color="#73F5FF"/>
<stop offset="0.99" stop-color="#7AFFEC"/>
</linearGradient>
<linearGradient id="paint5_linear" x1="129.774" y1="288" x2="310" y2="288" gradientUnits="userSpaceOnUse">
<stop stop-color="white"/>
<stop offset="0.99" stop-color="white" stop-opacity="0.4"/>
</linearGradient>
<linearGradient id="paint6_linear" x1="59.8997" y1="86" x2="140" y2="86" gradientUnits="userSpaceOnUse">
<stop stop-color="white"/>
<stop offset="0.99" stop-color="white" stop-opacity="0.4"/>
</linearGradient>
</defs>
</svg>
