<svg width="338" height="474" viewBox="0 0 338 474" fill="none" xmlns="http://www.w3.org/2000/svg">
<rect x="2.5" y="2.5" width="331" height="469" rx="32.5" fill="url(#paint0_linear)" stroke="url(#paint1_linear)" stroke-width="5"/>
<mask id="mask0" mask-type="alpha" maskUnits="userSpaceOnUse" x="2" y="0" width="336" height="474">
<rect x="4.5" y="2.5" width="331" height="469" rx="41.5" fill="url(#paint2_linear)" stroke="url(#paint3_linear)" stroke-width="5"/>
</mask>
<g mask="url(#mask0)">
<path d="M198.89 5.0093C198.89 5.0093 97.8208 47.0947 93.9888 101.845C90.1568 156.595 112.775 152.615 106.069 185.086C99.3631 217.557 -10.9124 255.616 18.7856 356.766C48.4837 457.916 142.368 370.584 242 469H35C18.4315 469 5 455.569 5 439V35.0014C5 18.4323 18.4323 5.00064 35.0014 5.00144L198.89 5.0093Z" fill="url(#paint4_linear)" fill-opacity="0.5"/>
</g>
<path opacity="0.46" d="M219.887 378C202.092 377.978 184.702 372.68 169.917 362.777C155.131 352.875 143.613 338.811 136.819 322.363C130.024 305.916 128.258 287.824 131.743 270.373C135.229 252.922 143.809 236.896 156.4 224.321C168.992 211.745 185.028 203.185 202.483 199.721C219.939 196.258 238.029 198.046 254.468 204.862C270.906 211.677 284.956 223.212 294.84 238.01C304.724 252.808 310 270.204 310 288C309.958 311.876 300.447 334.761 283.553 351.633C266.66 368.506 243.763 377.988 219.887 378ZM219.887 222.747C206.985 222.764 194.378 226.607 183.659 233.788C172.94 240.969 164.59 251.166 159.665 263.091C154.74 275.016 153.461 288.134 155.989 300.786C158.517 313.438 164.739 325.056 173.868 334.173C182.998 343.29 194.625 349.496 207.28 352.006C219.936 354.517 233.051 353.219 244.97 348.278C256.888 343.336 267.074 334.972 274.24 324.243C281.406 313.515 285.231 300.902 285.231 288C285.177 270.703 278.27 254.132 266.022 241.918C253.774 229.704 237.184 222.843 219.887 222.837V222.747Z" fill="url(#paint5_linear)"/>
<path opacity="0.46" d="M99.9498 126C92.0407 125.99 84.3121 123.636 77.7407 119.234C71.1694 114.833 66.0503 108.583 63.0305 101.273C60.0106 93.9627 59.2257 85.9216 60.7747 78.1657C62.3238 70.4097 66.1374 63.2871 71.7335 57.698C77.3296 52.1089 84.457 48.3043 92.2148 46.7649C99.9727 45.2256 108.013 46.0207 115.319 49.0496C122.625 52.0786 128.869 57.2055 133.262 63.7824C137.655 70.3593 140 78.0909 140 86C139.981 96.6116 135.754 106.783 128.246 114.281C120.738 121.78 110.561 125.995 99.9498 126ZM99.9498 56.9985C94.2156 57.0064 88.6124 58.7141 83.8484 61.9056C79.0844 65.0972 75.3735 69.6294 73.1846 74.9294C70.9957 80.2294 70.4271 86.0594 71.5506 91.6825C72.6742 97.3056 75.4395 102.469 79.497 106.521C83.5545 110.573 88.7222 113.331 94.3468 114.447C99.9715 115.563 105.801 114.986 111.098 112.79C116.395 110.594 120.922 106.877 124.107 102.108C127.292 97.3398 128.991 91.7342 128.991 86C128.968 78.3124 125.898 70.9477 120.454 65.5193C115.011 60.0908 107.637 57.0412 99.9498 57.0386V56.9985Z" fill="url(#paint6_linear)"/>
<path d="M43.6565 313.308C48.5845 313.308 52.2145 309.92 52.2145 305.3C52.2145 300.68 48.5845 297.292 43.6565 297.292C38.7285 297.292 35.0985 300.68 35.0985 305.3C35.0985 309.92 38.7285 313.308 43.6565 313.308ZM43.6565 309.7C41.3245 309.7 39.4985 307.962 39.4985 305.3C39.4985 302.638 41.3245 300.9 43.6565 300.9C45.9885 300.9 47.8145 302.638 47.8145 305.3C47.8145 307.962 45.9885 309.7 43.6565 309.7Z" fill="black"/>
<path d="M67.8367 297.6H54.1087V301.054H58.8387V313H63.1287V301.054H67.8367V297.6Z" fill="black"/>
<path d="M77.9847 297.6H70.9447V313H75.3007V308.974H77.9847C82.1867 308.974 84.8267 306.796 84.8267 303.298C84.8267 299.778 82.1867 297.6 77.9847 297.6ZM77.7207 305.542H75.3007V301.032H77.7207C79.5247 301.032 80.4267 301.868 80.4267 303.298C80.4267 304.706 79.5247 305.542 77.7207 305.542Z" fill="black"/>
<path d="M92.2122 309.634V306.818H99.0542V303.562H92.2122V300.966H99.9782V297.6H87.9002V313H100.264V309.634H92.2122Z" fill="black"/>
<path d="M118.3 309.546V297.6H105.892L105.716 302.352C105.562 306.466 105.056 309.502 103.098 309.546H102.548V316.102H106.552V313H116.408V316.102H120.39V309.546H118.3ZM109.522 302.726L109.588 301.054H114.01V309.546H108.18C109.082 308.248 109.412 305.74 109.522 302.726Z" fill="black"/>
<path d="M135.581 313H140.113L133.293 297.6H129.003L122.205 313H126.649L127.859 310.008H134.371L135.581 313ZM129.135 306.796L131.115 301.868L133.095 306.796H129.135Z" fill="black"/>
<path d="M152.702 313H157.608L152.746 305.036L157.564 297.6H152.988L149.314 303.584H147.224V297.6H142.89V313H147.224V307.104H149.204L152.702 313Z" fill="black"/>
<path d="M172.32 297.6H158.592V301.054H163.322V313H167.612V301.054H172.32V297.6Z" fill="black"/>
<path d="M175.428 313H179.542L185.878 303.98V313H190.168V297.6H186.076L179.718 306.642V297.6H175.428V313Z" fill="black"/>
<path d="M201.614 297.6H194.574V313H198.93V308.974H201.614C205.816 308.974 208.456 306.796 208.456 303.298C208.456 299.778 205.816 297.6 201.614 297.6ZM201.35 305.542H198.93V301.032H201.35C203.154 301.032 204.056 301.868 204.056 303.298C204.056 304.706 203.154 305.542 201.35 305.542Z" fill="black"/>
<path d="M219.313 313.308C224.241 313.308 227.871 309.92 227.871 305.3C227.871 300.68 224.241 297.292 219.313 297.292C214.385 297.292 210.755 300.68 210.755 305.3C210.755 309.92 214.385 313.308 219.313 313.308ZM219.313 309.7C216.981 309.7 215.155 307.962 215.155 305.3C215.155 302.638 216.981 300.9 219.313 300.9C221.645 300.9 223.471 302.638 223.471 305.3C223.471 307.962 221.645 309.7 219.313 309.7Z" fill="black"/>
<path d="M242.52 304.948C243.84 304.288 244.61 303.122 244.61 301.604C244.61 299.052 242.454 297.6 238.78 297.6H231.3V313H239.198C243.158 313 245.314 311.306 245.314 308.6C245.314 306.752 244.302 305.52 242.52 304.948ZM235.59 300.724H238.362C239.594 300.724 240.21 301.252 240.21 302.242C240.21 303.254 239.594 303.76 238.362 303.76H235.59V300.724ZM239.022 309.876H235.59V306.708H239.022C240.276 306.708 240.914 307.214 240.914 308.27C240.914 309.326 240.276 309.876 239.022 309.876Z" fill="black"/>
<path d="M260.607 313H265.139L258.319 297.6H254.029L247.231 313H251.675L252.885 310.008H259.397L260.607 313ZM254.161 306.796L256.141 301.868L258.121 306.796H254.161Z" fill="black"/>
<path d="M279.638 297.6H265.91V301.054H270.64V313H274.93V301.054H279.638V297.6Z" fill="black"/>
<path d="M290.6 302.506H287.036V297.6H282.746V313H290.028C294.032 313 296.518 311.13 296.518 307.522C296.518 304.156 294.34 302.506 290.6 302.506ZM289.742 309.876H287.036V305.608H289.742C291.216 305.608 292.14 306.158 292.14 307.61C292.14 309.062 291.194 309.876 289.742 309.876Z" fill="black"/>
<path d="M137.029 330.948C138.349 330.288 139.119 329.122 139.119 327.604C139.119 325.052 136.963 323.6 133.289 323.6H125.809V339H133.707C137.667 339 139.823 337.306 139.823 334.6C139.823 332.752 138.811 331.52 137.029 330.948ZM130.099 326.724H132.871C134.103 326.724 134.719 327.252 134.719 328.242C134.719 329.254 134.103 329.76 132.871 329.76H130.099V326.724ZM133.531 335.876H130.099V332.708H133.531C134.785 332.708 135.423 333.214 135.423 334.27C135.423 335.326 134.785 335.876 133.531 335.876Z" fill="black"/>
<path d="M143.28 339H147.394L153.73 329.98V339H158.02V323.6H153.928L147.57 332.642V323.6H143.28V339Z" fill="black"/>
<path d="M176.838 335.546V323.6H164.43L164.254 328.352C164.1 332.466 163.594 335.502 161.636 335.546H161.086V342.102H165.09V339H174.946V342.102H178.928V335.546H176.838ZM168.06 328.726L168.126 327.054H172.548V335.546H166.718C167.62 334.248 167.95 331.74 168.06 328.726Z" fill="black"/>
<path d="M186.423 335.634V332.818H193.265V329.562H186.423V326.966H194.189V323.6H182.111V339H194.475V335.634H186.423Z" fill="black"/>
<path d="M205.604 339.308C210.532 339.308 214.162 335.92 214.162 331.3C214.162 326.68 210.532 323.292 205.604 323.292C200.676 323.292 197.046 326.68 197.046 331.3C197.046 335.92 200.676 339.308 205.604 339.308ZM205.604 335.7C203.272 335.7 201.446 333.962 201.446 331.3C201.446 328.638 203.272 326.9 205.604 326.9C207.936 326.9 209.762 328.638 209.762 331.3C209.762 333.962 207.936 335.7 205.604 335.7Z" fill="black"/>
<path fill-rule="evenodd" clip-rule="evenodd" d="M53.9294 313.953C51.4232 316.692 47.7188 318.308 43.6565 318.308C36.2888 318.308 30.0985 312.993 30.0985 305.3C30.0985 297.607 36.2888 292.292 43.6565 292.292C46.1752 292.292 48.5563 292.913 50.5996 294.038C51.5023 293.149 52.7414 292.6 54.1087 292.6H67.8367C68.3792 292.6 68.9016 292.686 69.3907 292.846C69.8799 292.686 70.4022 292.6 70.9447 292.6H77.9847C80.1839 292.6 82.4057 293.029 84.361 294.068C85.2661 293.161 86.5176 292.6 87.9002 292.6H99.9782C101.085 292.6 102.107 292.959 102.935 293.568C103.764 292.959 104.788 292.6 105.892 292.6H118.3C121.061 292.6 123.3 294.839 123.3 297.6V298.138L124.429 295.581C125.228 293.769 127.022 292.6 129.003 292.6H133.293C135.271 292.6 137.063 293.766 137.864 295.575L138.11 296.129C138.738 294.085 140.64 292.6 142.89 292.6H147.224C148.297 292.6 149.291 292.938 150.106 293.514C150.936 292.928 151.939 292.6 152.988 292.6H157.564C157.736 292.6 157.907 292.609 158.076 292.626C158.245 292.609 158.417 292.6 158.592 292.6H172.32C172.862 292.6 173.384 292.686 173.874 292.846C174.363 292.686 174.885 292.6 175.428 292.6H179.718C180.925 292.6 182.033 293.028 182.897 293.741C183.781 293.012 184.902 292.6 186.076 292.6H190.168C190.958 292.6 191.706 292.784 192.371 293.11C193.036 292.784 193.784 292.6 194.574 292.6H201.614C204.53 292.6 207.485 293.355 209.806 295.283C209.922 295.379 210.035 295.477 210.145 295.577C212.577 293.492 215.812 292.292 219.313 292.292C222.257 292.292 225.013 293.141 227.262 294.651C228.171 293.408 229.641 292.6 231.3 292.6H238.78C241.168 292.6 243.754 293.055 245.893 294.517C247.059 295.313 247.974 296.332 248.605 297.506L249.455 295.581C250.255 293.769 252.048 292.6 254.029 292.6H258.319C259.802 292.6 261.18 293.255 262.115 294.345C263.032 293.277 264.392 292.6 265.91 292.6H279.638C280.181 292.6 280.703 292.686 281.192 292.846C281.681 292.686 282.204 292.6 282.746 292.6H287.036C289.787 292.6 292.019 294.821 292.036 297.568C294.134 297.755 296.319 298.392 298.14 299.892C300.549 301.875 301.518 304.691 301.518 307.522C301.518 310.567 300.41 313.463 297.942 315.483C295.627 317.378 292.726 318 290.028 318H282.746C281.165 318 279.755 317.266 278.838 316.119C277.922 317.266 276.512 318 274.93 318H270.64C269.624 318 268.678 317.697 267.889 317.176C267.085 317.706 266.131 318 265.139 318H260.607C258.707 318 256.984 316.925 256.141 315.248C255.297 316.925 253.575 318 251.675 318H247.231C246.198 318 245.208 317.681 244.384 317.11C242.731 317.756 240.939 318 239.198 318H231.3C229.641 318 228.171 317.192 227.262 315.949C225.013 317.459 222.257 318.308 219.313 318.308C214.595 318.308 210.361 316.129 207.924 312.542C206.655 313.204 205.276 313.613 203.864 313.817C203.474 316.19 201.414 318 198.93 318H194.574C193.784 318 193.036 317.816 192.371 317.49C191.706 317.816 190.958 318 190.168 318H185.878C184.675 318 183.572 317.576 182.709 316.868C181.826 317.592 180.71 318 179.542 318H175.428C173.846 318 172.436 317.266 171.52 316.119C170.603 317.266 169.193 318 167.612 318H163.322C162.259 318 161.274 317.669 160.464 317.104C159.64 317.677 158.647 318 157.608 318H152.702C151.712 318 150.764 317.708 149.963 317.183C149.176 317.7 148.235 318 147.224 318H142.89C142.407 318 141.94 317.932 141.499 317.804C141.054 317.933 140.588 318 140.113 318H135.581C133.681 318 131.958 316.925 131.115 315.248C130.271 316.925 128.549 318 126.649 318H125.017C124.911 318.257 124.785 318.504 124.64 318.738C125.015 318.648 125.407 318.6 125.809 318.6H133.289C135.428 318.6 137.726 318.965 139.719 320.091C140.625 319.171 141.886 318.6 143.28 318.6H147.57C148.778 318.6 149.885 319.028 150.75 319.741C151.634 319.012 152.755 318.6 153.928 318.6H158.02C159.24 318.6 160.358 319.037 161.225 319.762C162.095 319.036 163.213 318.6 164.43 318.6H176.838C177.806 318.6 178.709 318.875 179.475 319.351C180.24 318.875 181.144 318.6 182.111 318.6H194.189C195.736 318.6 197.118 319.302 198.035 320.405C200.211 319.049 202.823 318.292 205.604 318.292C212.971 318.292 219.162 323.607 219.162 331.3C219.162 338.993 212.971 344.308 205.604 344.308C202.903 344.308 200.36 343.594 198.223 342.31C197.307 343.346 195.967 344 194.475 344H183.556C182.808 345.82 181.018 347.102 178.928 347.102H174.946C172.857 347.102 171.067 345.82 170.319 344H169.718C168.97 345.82 167.18 347.102 165.09 347.102H161.086C158.997 347.102 157.207 345.82 156.459 344H153.73C152.528 344 151.425 343.576 150.562 342.868C149.679 343.592 148.563 344 147.394 344H143.28C141.967 344 140.773 343.494 139.88 342.666C137.97 343.648 135.802 344 133.707 344H125.809C123.048 344 120.809 341.761 120.809 339V323.6C120.809 322.633 121.084 321.73 121.56 320.964C121.184 321.054 120.793 321.102 120.39 321.102H116.408C114.318 321.102 112.528 319.82 111.781 318H111.179C110.432 319.82 108.641 321.102 106.552 321.102H102.548C100.458 321.102 98.6681 319.82 97.9207 318H87.9002C85.1905 318 82.9842 315.844 82.9025 313.155C82.0406 313.469 81.1442 313.686 80.2344 313.817C79.8446 316.19 77.7841 318 75.3007 318H70.9447C69.3631 318 67.9529 317.266 67.0367 316.119C66.1205 317.266 64.7104 318 63.1287 318H58.8387C56.4031 318 54.3742 316.258 53.9294 313.953ZM58.8387 313H63.1287V301.054H67.8367V297.6H54.1087V301.054H58.8387V313ZM70.9447 313H75.3007V308.974H77.9847C80.0382 308.974 81.7186 308.454 82.9002 307.514C84.1365 306.53 84.8267 305.087 84.8267 303.298C84.8267 301.498 84.1365 300.049 82.9002 299.063C81.7186 298.12 80.0382 297.6 77.9847 297.6H70.9447V313ZM75.3007 305.542H77.7207C77.811 305.542 77.899 305.54 77.9847 305.536C79.2429 305.475 80.0149 304.97 80.3007 304.127C80.3847 303.879 80.4267 303.602 80.4267 303.298C80.4267 302.989 80.3847 302.709 80.3007 302.458C80.0149 301.604 79.2429 301.099 77.9847 301.038C77.899 301.034 77.811 301.032 77.7207 301.032H75.3007V305.542ZM52.2062 305.679C52.2117 305.554 52.2145 305.427 52.2145 305.3C52.2145 303.709 51.7841 302.265 51.0187 301.054C50.517 300.261 49.8714 299.568 49.1087 299C47.655 297.919 45.7758 297.292 43.6565 297.292C38.7285 297.292 35.0985 300.68 35.0985 305.3C35.0985 309.92 38.7285 313.308 43.6565 313.308C48.4486 313.308 52.0133 310.104 52.2062 305.679ZM87.9002 313H100.264V309.634H92.2122V306.818H99.0542V303.562H92.2122V300.966H99.9782V297.6H87.9002V313ZM102.548 309.546V316.102H106.552V313H116.408V316.102H120.39V309.546H118.3V297.6H105.892L105.716 302.352C105.713 302.427 105.71 302.501 105.707 302.575C105.707 302.579 105.707 302.583 105.707 302.587C105.627 304.51 105.465 306.184 105.104 307.408C105.055 307.573 105.003 307.729 104.947 307.877C104.885 308.041 104.818 308.194 104.746 308.336C104.389 309.039 103.907 309.466 103.252 309.536C103.228 309.539 103.204 309.541 103.18 309.542C103.153 309.544 103.126 309.545 103.098 309.546H102.548ZM114.01 309.546V301.054H109.588L109.522 302.726C109.499 303.357 109.466 303.966 109.421 304.546C109.336 305.629 109.206 306.613 109.01 307.454C108.966 307.643 108.918 307.826 108.868 308C108.687 308.619 108.461 309.141 108.18 309.546H114.01ZM140.113 313L133.293 297.6H129.003L122.205 313H126.649L127.859 310.008H134.371L135.581 313H140.113ZM133.095 306.796L131.115 301.868L129.135 306.796H133.095ZM143.28 339H147.394L153.73 329.98V339H158.02V323.6H153.928L147.57 332.642V323.6H143.28V339ZM125.809 323.6V339H133.707C135.707 339 137.246 338.568 138.28 337.792C139.156 337.135 139.67 336.232 139.794 335.135C139.814 334.961 139.823 334.783 139.823 334.6C139.823 334.488 139.82 334.378 139.812 334.27C139.743 333.262 139.351 332.454 138.682 331.854C138.557 331.743 138.424 331.639 138.28 331.542C137.921 331.298 137.502 331.1 137.029 330.948C137.529 330.698 137.95 330.376 138.28 329.989C138.381 329.872 138.472 329.749 138.555 329.62C138.817 329.214 138.992 328.753 139.071 328.242C139.103 328.037 139.119 327.824 139.119 327.604C139.119 327.133 139.046 326.699 138.903 326.304C138.762 325.916 138.553 325.566 138.28 325.257C137.333 324.182 135.616 323.6 133.289 323.6H125.809ZM130.099 326.724V329.76H132.871C133.116 329.76 133.336 329.74 133.531 329.7C134.142 329.576 134.517 329.259 134.657 328.749C134.661 328.733 134.665 328.718 134.669 328.702C134.703 328.562 134.719 328.409 134.719 328.242C134.719 328.075 134.702 327.921 134.667 327.78C134.651 327.719 134.633 327.66 134.611 327.604C134.532 327.403 134.411 327.236 134.247 327.103C134.178 327.048 134.103 326.998 134.02 326.955C133.82 326.85 133.576 326.78 133.289 326.747C133.159 326.732 133.02 326.724 132.871 326.724H130.099ZM130.099 332.708V335.876H133.531C133.591 335.876 133.65 335.875 133.707 335.872C134.235 335.849 134.643 335.719 134.928 335.485C134.991 335.434 135.048 335.377 135.099 335.315C135.101 335.313 135.103 335.31 135.105 335.308C135.26 335.118 135.358 334.882 135.4 334.6C135.412 334.523 135.419 334.442 135.422 334.358C135.423 334.329 135.423 334.3 135.423 334.27C135.423 333.834 135.315 333.493 135.099 333.241C134.792 332.883 134.268 332.708 133.531 332.708H130.099ZM161.086 335.546V342.102H165.09V339H174.946V342.102H178.928V335.546H176.838V323.6H164.43L164.254 328.352C164.252 328.427 164.249 328.501 164.246 328.575C164.245 328.579 164.245 328.583 164.245 328.587C164.166 330.51 164.003 332.184 163.642 333.408C163.54 333.755 163.421 334.066 163.284 334.336C163.203 334.496 163.115 334.642 163.02 334.772C162.684 335.235 162.258 335.506 161.718 335.542C161.691 335.544 161.664 335.545 161.636 335.546H161.086ZM172.548 335.546V327.054H168.126L168.06 328.726C168.037 329.357 168.005 329.966 167.959 330.546C167.874 331.629 167.744 332.613 167.548 333.454C167.504 333.644 167.457 333.826 167.406 334C167.225 334.619 167 335.141 166.718 335.546H172.548ZM182.111 339H194.475V335.634H186.423V332.818H193.265V329.562H186.423V326.966H194.189V323.6H182.111V339ZM197.893 327.666C197.594 328.255 197.368 328.89 197.225 329.562C197.122 330.046 197.062 330.549 197.049 331.068C197.047 331.145 197.046 331.222 197.046 331.3C197.046 331.315 197.046 331.33 197.046 331.344C197.048 331.852 197.095 332.344 197.182 332.818C197.313 333.533 197.537 334.208 197.843 334.833C197.979 335.11 198.131 335.377 198.298 335.634C198.632 336.147 199.027 336.616 199.475 337.035C200.999 338.461 203.139 339.308 205.604 339.308C210.532 339.308 214.162 335.92 214.162 331.3C214.162 326.68 210.532 323.292 205.604 323.292C202.981 323.292 200.725 324.252 199.189 325.846C198.857 326.191 198.559 326.565 198.298 326.966C198.151 327.191 198.016 327.425 197.893 327.666ZM147.224 313V307.104H149.204L152.702 313H157.608L152.746 305.036L157.564 297.6H152.988L149.314 303.584H147.224V297.6H142.89V313H147.224ZM163.322 313H167.612V301.054H172.32V297.6H158.592V301.054H163.322V313ZM175.428 313H179.542L185.878 303.98V313H190.168V297.6H186.076L179.718 306.642V297.6H175.428V313ZM194.574 297.6V313H198.93V308.974H201.614C203.377 308.974 204.865 308.591 205.999 307.887C207.006 307.262 207.733 306.385 208.124 305.3C208.342 304.695 208.456 304.025 208.456 303.298C208.456 301.773 207.961 300.501 207.058 299.547C205.876 298.3 203.996 297.6 201.614 297.6H194.574ZM198.93 301.032V305.542H201.35C201.441 305.542 201.529 305.54 201.614 305.536C202.873 305.475 203.645 304.97 203.93 304.127C204.014 303.879 204.056 303.602 204.056 303.298C204.056 302.989 204.014 302.708 203.93 302.458C203.645 301.604 202.873 301.099 201.614 301.038C201.529 301.034 201.441 301.032 201.35 301.032H198.93ZM211.729 309.172C213.126 311.693 215.91 313.308 219.313 313.308C222.284 313.308 224.783 312.076 226.3 310.086C227.298 308.775 227.871 307.134 227.871 305.3C227.871 303.466 227.298 301.825 226.3 300.514C224.783 298.524 222.284 297.292 219.313 297.292C216.697 297.292 214.447 298.247 212.911 299.833C211.991 300.784 211.327 301.962 210.995 303.298C210.838 303.932 210.755 304.602 210.755 305.3C210.755 306.73 211.102 308.042 211.729 309.172ZM231.3 313H239.198C240.379 313 241.399 312.849 242.25 312.566C242.963 312.329 243.557 311.998 244.026 311.585C244.747 310.95 245.173 310.121 245.284 309.135C245.304 308.961 245.314 308.783 245.314 308.6C245.314 308.488 245.31 308.378 245.303 308.27C245.253 307.547 245.038 306.928 244.673 306.414C244.529 306.211 244.362 306.024 244.172 305.854C243.735 305.463 243.18 305.16 242.52 304.948C243.171 304.622 243.689 304.173 244.046 303.62C244.307 303.214 244.483 302.753 244.562 302.242C244.594 302.037 244.61 301.824 244.61 301.604C244.61 301.133 244.536 300.699 244.393 300.304C243.761 298.565 241.775 297.6 238.78 297.6H231.3V313ZM235.59 309.876H239.022C239.082 309.876 239.141 309.875 239.198 309.872C239.726 309.849 240.133 309.719 240.419 309.485C240.482 309.434 240.539 309.377 240.59 309.315C240.592 309.313 240.594 309.31 240.596 309.308C240.75 309.118 240.849 308.882 240.891 308.6C240.902 308.523 240.909 308.442 240.912 308.358C240.913 308.329 240.914 308.3 240.914 308.27C240.914 307.834 240.805 307.493 240.59 307.241C240.283 306.883 239.759 306.708 239.022 306.708H235.59V309.876ZM238.362 303.76C238.606 303.76 238.826 303.74 239.022 303.7C239.632 303.576 240.007 303.259 240.147 302.749C240.152 302.733 240.156 302.718 240.159 302.702C240.193 302.562 240.21 302.409 240.21 302.242C240.21 302.075 240.192 301.921 240.157 301.78C240.142 301.719 240.123 301.66 240.101 301.604C240.022 301.403 239.901 301.236 239.737 301.103C239.669 301.048 239.593 300.998 239.51 300.955C239.31 300.85 239.066 300.78 238.78 300.747C238.649 300.732 238.51 300.724 238.362 300.724H235.59V303.76H238.362ZM270.64 313H274.93V301.054H279.638V297.6H265.91V301.054H270.64V313ZM282.746 313H290.028C294 313 296.478 311.16 296.518 307.61C296.518 307.581 296.518 307.551 296.518 307.522C296.518 304.156 294.34 302.506 290.6 302.506H287.036V297.6H282.746V313ZM287.036 309.876H289.742C289.84 309.876 289.935 309.872 290.028 309.865C291.049 309.785 291.777 309.267 292.036 308.383C292.105 308.15 292.14 307.892 292.14 307.61C292.14 307.58 292.14 307.551 292.139 307.522C292.133 307.273 292.098 307.052 292.036 306.856C291.83 306.198 291.325 305.832 290.6 305.685C290.341 305.633 290.054 305.608 289.742 305.608H287.036V309.876ZM247.231 313H251.675L252.885 310.008H259.397L260.607 313H265.139L258.319 297.6H254.029L247.231 313ZM254.161 306.796H258.121L256.141 301.868L254.161 306.796ZM44.2831 305.008C44.0395 304.758 43.7643 304.7 43.6565 304.7C43.5486 304.7 43.2735 304.758 43.0298 305.008C42.924 305.116 42.8628 305.224 42.8321 305.3C42.8628 305.376 42.924 305.484 43.0298 305.592C43.2735 305.842 43.5486 305.9 43.6565 305.9C43.7643 305.9 44.0395 305.842 44.2831 305.592C44.389 305.484 44.4502 305.376 44.4809 305.3C44.4502 305.224 44.389 305.116 44.2831 305.008ZM219.939 305.008C219.696 304.758 219.421 304.7 219.313 304.7C219.205 304.7 218.93 304.758 218.686 305.008C218.58 305.116 218.519 305.224 218.488 305.3C218.519 305.376 218.58 305.484 218.686 305.592C218.93 305.842 219.205 305.9 219.313 305.9C219.421 305.9 219.696 305.842 219.939 305.592C220.045 305.484 220.106 305.376 220.137 305.3C220.106 305.224 220.045 305.116 219.939 305.008ZM206.23 331.008C205.987 330.758 205.711 330.7 205.604 330.7C205.496 330.7 205.221 330.758 204.977 331.008C204.871 331.116 204.81 331.224 204.779 331.3C204.81 331.376 204.871 331.484 204.977 331.592C205.221 331.842 205.496 331.9 205.604 331.9C205.711 331.9 205.987 331.842 206.23 331.592C206.336 331.484 206.397 331.376 206.428 331.3C206.397 331.224 206.336 331.116 206.23 331.008ZM39.4985 305.3C39.4985 307.962 41.3245 309.7 43.6565 309.7C45.9885 309.7 47.8145 307.962 47.8145 305.3C47.8145 302.638 45.9885 300.9 43.6565 300.9C41.3245 300.9 39.4985 302.638 39.4985 305.3ZM215.155 305.3C215.155 307.962 216.981 309.7 219.313 309.7C221.645 309.7 223.471 307.962 223.471 305.3C223.471 302.638 221.645 300.9 219.313 300.9C216.981 300.9 215.155 302.638 215.155 305.3ZM201.446 331.3C201.446 333.962 203.272 335.7 205.604 335.7C207.936 335.7 209.762 333.962 209.762 331.3C209.762 328.638 207.936 326.9 205.604 326.9C203.272 326.9 201.446 328.638 201.446 331.3Z" fill="white"/>
<rect x="16" y="397" width="125" height="43" rx="13" fill="white"/>
<rect x="195" y="397" width="125" height="43" rx="13" fill="white"/>
<g filter="url(#filter0_di)">
<path d="M178.575 151H118.425C110.491 151 104 157.453 104 165.339V213.661C104 221.547 110.491 228 118.425 228H178.575C186.509 228 193 221.547 193 213.661V165.339C193 157.309 186.509 151 178.575 151Z" fill="white"/>
<path d="M225.215 158.233C224.34 158.377 223.466 158.811 222.737 159.245L200 172.255V205.791L222.883 218.801C227.109 221.258 232.356 219.813 234.834 215.621C235.563 214.32 236 212.874 236 211.284V166.617C236 161.268 230.899 156.932 225.215 158.233Z" fill="white"/>
</g>
<path d="M250 5C250 26.7478 241.361 47.6048 225.983 62.9828C210.605 78.3607 189.748 87 168 87C146.252 87 125.395 78.3607 110.017 62.9828C94.6393 47.6048 86 26.7478 86 5.00002L168 5H250Z" fill="white"/>
<path d="M152 26V34.7429H159.53V66H171V26H152Z" fill="#46BBCE"/>
<path d="M48.032 423.216C48.032 414.96 35.328 417.52 35.328 414.096C35.328 412.976 36.288 412.08 38.944 412.08C40.896 412.08 43.008 412.656 45.152 413.808L47.104 409.104C45.312 408.048 42.976 407.408 40.608 407.216V403.76H36.768V407.28C31.584 407.92 29.056 410.896 29.056 414.416C29.056 422.736 41.792 420.144 41.792 423.696C41.792 424.784 40.768 425.52 38.144 425.52C35.552 425.52 32.736 424.624 30.752 423.312L28.672 427.984C30.528 429.264 33.568 430.192 36.768 430.416V433.84H40.608V430.288C45.6 429.552 48.032 426.608 48.032 423.216Z" fill="#00BCBC"/>
<path d="M60.58 417.26H59.44L59.66 414.6H65.5V412H56.96L56.24 419.88H59.82C62.36 419.88 63.08 420.6 63.08 421.7C63.08 422.84 62.08 423.52 60.46 423.52C59 423.52 57.54 423.06 56.48 422.26L55.2 424.74C56.56 425.7 58.6 426.24 60.54 426.24C64.54 426.24 66.36 424.08 66.36 421.6C66.36 419.12 64.72 417.26 60.58 417.26ZM73.6745 426.24C77.1345 426.24 79.6745 423.62 79.6745 419C79.6745 414.38 77.1345 411.76 73.6745 411.76C70.2345 411.76 67.6745 414.38 67.6745 419C67.6745 423.62 70.2345 426.24 73.6745 426.24ZM73.6745 423.5C72.0745 423.5 70.9545 422.18 70.9545 419C70.9545 415.82 72.0745 414.5 73.6745 414.5C75.2945 414.5 76.4145 415.82 76.4145 419C76.4145 422.18 75.2945 423.5 73.6745 423.5ZM92.9128 426.24C96.3728 426.24 98.9128 423.62 98.9128 419C98.9128 414.38 96.3728 411.76 92.9128 411.76C89.4728 411.76 86.9128 414.38 86.9128 419C86.9128 423.62 89.4728 426.24 92.9128 426.24ZM92.9128 423.5C91.3128 423.5 90.1928 422.18 90.1928 419C90.1928 415.82 91.3128 414.5 92.9128 414.5C94.5328 414.5 95.6528 415.82 95.6528 419C95.6528 422.18 94.5328 423.5 92.9128 423.5ZM106.487 426.24C109.947 426.24 112.487 423.62 112.487 419C112.487 414.38 109.947 411.76 106.487 411.76C103.047 411.76 100.487 414.38 100.487 419C100.487 423.62 103.047 426.24 106.487 426.24ZM106.487 423.5C104.887 423.5 103.767 422.18 103.767 419C103.767 415.82 104.887 414.5 106.487 414.5C108.107 414.5 109.227 415.82 109.227 419C109.227 422.18 108.107 423.5 106.487 423.5ZM120.061 426.24C123.521 426.24 126.061 423.62 126.061 419C126.061 414.38 123.521 411.76 120.061 411.76C116.621 411.76 114.061 414.38 114.061 419C114.061 423.62 116.621 426.24 120.061 426.24ZM120.061 423.5C118.461 423.5 117.341 422.18 117.341 419C117.341 415.82 118.461 414.5 120.061 414.5C121.681 414.5 122.801 415.82 122.801 419C122.801 422.18 121.681 423.5 120.061 423.5Z" fill="black"/>
<path d="M246.6 420.42H244.32V417.8H241.26V420.42H237.5L243.62 412H240.22L233.62 420.88V423.06H241.16V426H244.32V423.06H246.6V420.42ZM252.33 417.26H251.19L251.41 414.6H257.25V412H248.71L247.99 419.88H251.57C254.11 419.88 254.83 420.6 254.83 421.7C254.83 422.84 253.83 423.52 252.21 423.52C250.75 423.52 249.29 423.06 248.23 422.26L246.95 424.74C248.31 425.7 250.35 426.24 252.29 426.24C256.29 426.24 258.11 424.08 258.11 421.6C258.11 419.12 256.47 417.26 252.33 417.26ZM279.129 426L279.089 415.24H276.169L272.509 421.46L269.069 415.24H265.809V426H268.629V419.54L271.769 424.96H273.089L276.309 419.56V426H279.129ZM282.117 426H284.997L290.217 419.6V426H293.317V415.24H290.457L285.217 421.64V415.24H282.117V426ZM296.316 426H299.416V421.98H304.096V426H307.216V415.24H304.096V419.44H299.416V415.24H296.316V426Z" fill="black"/>
<path d="M216.5 406C209.595 406 204 411.595 204 418.5C204 425.405 209.595 431 216.5 431C223.405 431 229 425.405 229 418.5C229 411.595 223.405 406 216.5 406Z" fill="#00BCBC"/>
<path fill-rule="evenodd" clip-rule="evenodd" d="M215.961 410C214.878 410 214 410.878 214 411.961V419.153C214 419.311 214.019 419.464 214.054 419.611C214.047 420.263 214.376 420.901 214.974 421.262L220.414 424.535C221.313 425.077 222.481 424.786 223.022 423.887C223.563 422.988 223.273 421.82 222.374 421.279L217.923 418.6V411.961C217.923 410.878 217.045 410 215.961 410Z" fill="white"/>
<g filter="url(#filter1_d)">
<path d="M162.531 400.393L185.975 433.213C179.766 434.57 168.698 428.331 168.698 428.331C168.698 428.331 160.834 438.706 154.912 440L162.531 400.393Z" fill="white"/>
<path fill-rule="evenodd" clip-rule="evenodd" d="M154.912 440L158.469 421.51C161.522 424.284 164.956 426.604 168.698 428.331C168.698 428.331 160.834 438.706 154.912 440Z" fill="#BBFFF9"/>
</g>
<defs>
<filter id="filter0_di" x="98" y="145" width="152" height="97" filterUnits="userSpaceOnUse" color-interpolation-filters="sRGB">
<feFlood flood-opacity="0" result="BackgroundImageFix"/>
<feColorMatrix in="SourceAlpha" type="matrix" values="0 0 0 0 0 0 0 0 0 0 0 0 0 0 0 0 0 0 127 0"/>
<feOffset dx="4" dy="4"/>
<feGaussianBlur stdDeviation="5"/>
<feColorMatrix type="matrix" values="0 0 0 0 0.1715 0 0 0 0 0.816667 0 0 0 0 0.816667 0 0 0 1 0"/>
<feBlend mode="normal" in2="BackgroundImageFix" result="effect1_dropShadow"/>
<feBlend mode="normal" in="SourceGraphic" in2="effect1_dropShadow" result="shape"/>
<feColorMatrix in="SourceAlpha" type="matrix" values="0 0 0 0 0 0 0 0 0 0 0 0 0 0 0 0 0 0 127 0" result="hardAlpha"/>
<feOffset dx="-4" dy="-4"/>
<feGaussianBlur stdDeviation="4.5"/>
<feComposite in2="hardAlpha" operator="arithmetic" k2="-1" k3="1"/>
<feColorMatrix type="matrix" values="0 0 0 0 0.441945 0 0 0 0 0.887146 0 0 0 0 0.895833 0 0 0 0.52 0"/>
<feBlend mode="normal" in2="shape" result="effect2_innerShadow"/>
</filter>
<filter id="filter1_d" x="143" y="393" width="52.975" height="57.0001" filterUnits="userSpaceOnUse" color-interpolation-filters="sRGB">
<feFlood flood-opacity="0" result="BackgroundImageFix"/>
<feColorMatrix in="SourceAlpha" type="matrix" values="0 0 0 0 0 0 0 0 0 0 0 0 0 0 0 0 0 0 127 0"/>
<feOffset dx="3" dy="3"/>
<feGaussianBlur stdDeviation="3.5"/>
<feColorMatrix type="matrix" values="0 0 0 0 0.279 0 0 0 0 0.9 0 0 0 0 0.840225 0 0 0 1 0"/>
<feBlend mode="normal" in2="BackgroundImageFix" result="effect1_dropShadow"/>
<feBlend mode="normal" in="SourceGraphic" in2="effect1_dropShadow" result="shape"/>
</filter>
<linearGradient id="paint0_linear" x1="5.5" y1="-157" x2="289.5" y2="495.5" gradientUnits="userSpaceOnUse">
<stop stop-color="#00C2FF"/>
<stop offset="1" stop-color="#1EE7CF"/>
</linearGradient>
<linearGradient id="paint1_linear" x1="49" y1="11" x2="301.5" y2="474" gradientUnits="userSpaceOnUse">
<stop stop-color="#19D2EB"/>
<stop offset="1" stop-color="#55F5DF"/>
</linearGradient>
<linearGradient id="paint2_linear" x1="59.5" y1="-9" x2="291.5" y2="495.5" gradientUnits="userSpaceOnUse">
<stop stop-color="#00E0FF"/>
<stop offset="1" stop-color="#42F2D1"/>
</linearGradient>
<linearGradient id="paint3_linear" x1="51" y1="11" x2="303.5" y2="474" gradientUnits="userSpaceOnUse">
<stop stop-color="#B2F6FF"/>
<stop offset="1" stop-color="#28D7BE"/>
</linearGradient>
<linearGradient id="paint4_linear" x1="27" y1="473.49" x2="247.084" y2="60.8524" gradientUnits="userSpaceOnUse">
<stop stop-color="#73F5FF"/>
<stop offset="0.99" stop-color="#7AFFEC"/>
</linearGradient>
<linearGradient id="paint5_linear" x1="129.774" y1="288" x2="310" y2="288" gradientUnits="userSpaceOnUse">
<stop stop-color="white"/>
<stop offset="0.99" stop-color="white" stop-opacity="0.4"/>
</linearGradient>
<linearGradient id="paint6_linear" x1="59.8997" y1="86" x2="140" y2="86" gradientUnits="userSpaceOnUse">
<stop stop-color="white"/>
<stop offset="0.99" stop-color="white" stop-opacity="0.4"/>
</linearGradient>
</defs>
</svg>
