<svg width="338" height="474" viewBox="0 0 338 474" fill="none" xmlns="http://www.w3.org/2000/svg">
<rect x="2.5" y="2.5" width="331" height="469" rx="32.5" fill="url(#paint0_linear)" stroke="url(#paint1_linear)" stroke-width="5"/>
<mask id="mask0" mask-type="alpha" maskUnits="userSpaceOnUse" x="2" y="0" width="336" height="474">
<rect x="4.5" y="2.5" width="331" height="469" rx="41.5" fill="url(#paint2_linear)" stroke="url(#paint3_linear)" stroke-width="5"/>
</mask>
<g mask="url(#mask0)">
<path d="M198.89 5.0093C198.89 5.0093 97.8208 47.0947 93.9888 101.845C90.1568 156.595 112.775 152.615 106.069 185.086C99.3631 217.557 -10.9124 255.616 18.7856 356.766C48.4837 457.916 142.368 370.584 242 469H35C18.4315 469 5 455.569 5 439V35.0014C5 18.4323 18.4323 5.00064 35.0014 5.00144L198.89 5.0093Z" fill="url(#paint4_linear)" fill-opacity="0.5"/>
</g>
<path opacity="0.46" d="M219.887 378C202.092 377.978 184.702 372.68 169.917 362.777C155.131 352.875 143.613 338.811 136.819 322.363C130.024 305.916 128.258 287.824 131.743 270.373C135.229 252.922 143.809 236.896 156.4 224.321C168.992 211.745 185.028 203.185 202.483 199.721C219.939 196.258 238.029 198.046 254.468 204.862C270.906 211.677 284.956 223.212 294.84 238.01C304.724 252.808 310 270.204 310 288C309.958 311.876 300.447 334.761 283.553 351.633C266.66 368.506 243.763 377.988 219.887 378ZM219.887 222.747C206.985 222.764 194.378 226.607 183.659 233.788C172.94 240.969 164.59 251.166 159.665 263.091C154.74 275.016 153.461 288.134 155.989 300.786C158.517 313.438 164.739 325.056 173.868 334.173C182.998 343.29 194.625 349.496 207.28 352.006C219.936 354.517 233.051 353.219 244.97 348.278C256.888 343.336 267.074 334.972 274.24 324.243C281.406 313.515 285.231 300.902 285.231 288C285.177 270.703 278.27 254.132 266.022 241.918C253.774 229.704 237.184 222.843 219.887 222.837V222.747Z" fill="url(#paint5_linear)"/>
<path opacity="0.46" d="M99.9498 126C92.0407 125.99 84.3121 123.636 77.7407 119.234C71.1694 114.833 66.0503 108.583 63.0305 101.273C60.0106 93.9627 59.2257 85.9216 60.7747 78.1657C62.3238 70.4097 66.1374 63.2871 71.7335 57.698C77.3296 52.1089 84.457 48.3043 92.2148 46.7649C99.9727 45.2256 108.013 46.0207 115.319 49.0496C122.625 52.0786 128.869 57.2055 133.262 63.7824C137.655 70.3593 140 78.0909 140 86C139.981 96.6116 135.754 106.783 128.246 114.281C120.738 121.78 110.561 125.995 99.9498 126ZM99.9498 56.9985C94.2156 57.0064 88.6124 58.7141 83.8484 61.9056C79.0844 65.0972 75.3735 69.6294 73.1846 74.9294C70.9957 80.2294 70.4271 86.0594 71.5506 91.6825C72.6742 97.3056 75.4395 102.469 79.497 106.521C83.5545 110.573 88.7222 113.331 94.3468 114.447C99.9715 115.563 105.801 114.986 111.098 112.79C116.395 110.594 120.922 106.877 124.107 102.108C127.292 97.3398 128.991 91.7342 128.991 86C128.968 78.3124 125.898 70.9477 120.454 65.5193C115.011 60.0908 107.637 57.0412 99.9498 57.0386V56.9985Z" fill="url(#paint6_linear)"/>
<path d="M92.3451 270.2L88.2891 278.312L84.3771 270.2H79.3611L85.8891 282.296C85.2651 283.208 84.5931 283.592 83.6571 283.592C83.1531 283.592 82.6251 283.496 81.9771 283.304L80.8491 286.808C81.8811 287.216 82.8651 287.432 83.8251 287.432C86.3451 287.432 88.5291 285.992 90.0171 283.184L96.9771 270.2H92.3451Z" fill="black"/>
<path d="M107.651 287.336C110.747 287.336 113.243 286.208 114.875 284.168L111.851 281.432C110.795 282.704 109.499 283.4 107.891 283.4C105.131 283.4 103.211 281.48 103.211 278.6C103.211 275.72 105.131 273.8 107.891 273.8C109.499 273.8 110.795 274.496 111.851 275.768L114.875 273.032C113.243 270.992 110.747 269.864 107.651 269.864C102.323 269.864 98.4111 273.488 98.4111 278.6C98.4111 283.712 102.323 287.336 107.651 287.336Z" fill="black"/>
<path d="M131.617 270.2H116.641V273.968H121.801V287H126.481V273.968H131.617V270.2Z" fill="black"/>
<path d="M147.076 287H152.02L144.58 270.2H139.9L132.484 287H137.332L138.652 283.736H145.756L147.076 287ZM140.044 280.232L142.204 274.856L144.364 280.232H140.044Z" fill="black"/>
<path d="M166.377 270.2V276.512H159.897V270.2H155.145V287H159.897V280.448H166.377V287H171.129V270.2H166.377Z" fill="black"/>
<path d="M184.195 287.336C189.571 287.336 193.531 283.64 193.531 278.6C193.531 273.56 189.571 269.864 184.195 269.864C178.819 269.864 174.859 273.56 174.859 278.6C174.859 283.64 178.819 287.336 184.195 287.336ZM184.195 283.4C181.651 283.4 179.659 281.504 179.659 278.6C179.659 275.696 181.651 273.8 184.195 273.8C186.739 273.8 188.731 275.696 188.731 278.6C188.731 281.504 186.739 283.4 184.195 283.4Z" fill="black"/>
<path d="M209.512 278.216C210.952 277.496 211.792 276.224 211.792 274.568C211.792 271.784 209.44 270.2 205.432 270.2H197.272V287H205.888C210.208 287 212.56 285.152 212.56 282.2C212.56 280.184 211.456 278.84 209.512 278.216ZM201.952 273.608H204.976C206.32 273.608 206.992 274.184 206.992 275.264C206.992 276.368 206.32 276.92 204.976 276.92H201.952V273.608ZM205.696 283.592H201.952V280.136H205.696C207.064 280.136 207.76 280.688 207.76 281.84C207.76 282.992 207.064 283.592 205.696 283.592Z" fill="black"/>
<path d="M226.939 287H232.291L226.987 278.312L232.243 270.2H227.251L223.243 276.728H220.963V270.2H216.235V287H220.963V280.568H223.123L226.939 287Z" fill="black"/>
<path d="M247.529 287H252.473L245.033 270.2H240.353L232.937 287H237.785L239.105 283.736H246.209L247.529 287ZM240.497 280.232L242.657 274.856L244.817 280.232H240.497Z" fill="black"/>
<path d="M62.907 315H71.307C75.675 315 78.243 313.008 78.243 309.6C78.243 306.36 76.011 304.584 71.931 304.584H67.587V301.872H76.947V298.2H62.907V315ZM67.587 311.592V307.968H70.995C72.627 307.968 73.443 308.544 73.443 309.744C73.443 310.944 72.579 311.592 70.995 311.592H67.587Z" fill="black"/>
<path d="M86.6 311.328V308.256H94.064V304.704H86.6V301.872H95.072V298.2H81.896V315H95.384V311.328H86.6Z" fill="black"/>
<path d="M107.452 315.336C110.548 315.336 113.044 314.208 114.676 312.168L111.652 309.432C110.596 310.704 109.3 311.4 107.692 311.4C104.932 311.4 103.012 309.48 103.012 306.6C103.012 303.72 104.932 301.8 107.692 301.8C109.3 301.8 110.596 302.496 111.652 303.768L114.676 301.032C113.044 298.992 110.548 297.864 107.452 297.864C102.124 297.864 98.2119 301.488 98.2119 306.6C98.2119 311.712 102.124 315.336 107.452 315.336Z" fill="black"/>
<path d="M118.023 298.2V315H122.703V301.968H129.087V315H133.791V298.2H118.023Z" fill="black"/>
<path d="M140.671 298.2L140.431 304.896C140.287 308.688 139.927 311.184 137.983 311.184C137.767 311.184 137.551 311.16 137.335 311.112L137.071 315C137.863 315.192 138.583 315.288 139.231 315.288C143.503 315.288 144.391 311.256 144.607 304.704L144.703 301.968H149.527V315H154.207V298.2H140.671Z" fill="black"/>
<path d="M171.913 315H176.857L169.417 298.2H164.737L157.321 315H162.169L163.489 311.736H170.593L171.913 315ZM164.881 308.232L167.041 302.856L169.201 308.232H164.881Z" fill="black"/>
<path d="M192.674 298.2H177.698V301.968H182.858V315H187.538V301.968H192.674V298.2Z" fill="black"/>
<path d="M207.297 298.2V304.512H200.817V298.2H196.065V315H200.817V308.448H207.297V315H212.049V298.2H207.297Z" fill="black"/>
<path d="M225.115 315.336C230.491 315.336 234.451 311.64 234.451 306.6C234.451 301.56 230.491 297.864 225.115 297.864C219.739 297.864 215.779 301.56 215.779 306.6C215.779 311.64 219.739 315.336 225.115 315.336ZM225.115 311.4C222.571 311.4 220.579 309.504 220.579 306.6C220.579 303.696 222.571 301.8 225.115 301.8C227.659 301.8 229.651 303.696 229.651 306.6C229.651 309.504 227.659 311.4 225.115 311.4Z" fill="black"/>
<path d="M250.503 298.2H238.191V315H242.871V301.968H250.479L250.503 298.2Z" fill="black"/>
<path d="M260.632 315.336C266.008 315.336 269.968 311.64 269.968 306.6C269.968 301.56 266.008 297.864 260.632 297.864C255.256 297.864 251.296 301.56 251.296 306.6C251.296 311.64 255.256 315.336 260.632 315.336ZM260.632 311.4C258.088 311.4 256.096 309.504 256.096 306.6C256.096 303.696 258.088 301.8 260.632 301.8C263.176 301.8 265.168 303.696 265.168 306.6C265.168 309.504 263.176 311.4 260.632 311.4Z" fill="black"/>
<path d="M93.2229 326.2H85.5429V343H90.2949V338.608H93.2229C97.8069 338.608 100.687 336.232 100.687 332.416C100.687 328.576 97.8069 326.2 93.2229 326.2ZM92.9349 334.864H90.2949V329.944H92.9349C94.9029 329.944 95.8869 330.856 95.8869 332.416C95.8869 333.952 94.9029 334.864 92.9349 334.864Z" fill="black"/>
<path d="M108.744 339.328V336.256H116.208V332.704H108.744V329.872H117.216V326.2H104.04V343H117.528V339.328H108.744Z" fill="black"/>
<path d="M137.203 339.232V326.2H123.667L123.475 331.384C123.307 335.872 122.755 339.184 120.619 339.232H120.019V346.384H124.387V343H135.139V346.384H139.483V339.232H137.203ZM127.627 331.792L127.699 329.968H132.523V339.232H126.163C127.147 337.816 127.507 335.08 127.627 331.792Z" fill="black"/>
<path d="M156.055 343H160.999L153.559 326.2H148.879L141.463 343H146.311L147.631 339.736H154.735L156.055 343ZM149.023 336.232L151.183 330.856L153.343 336.232H149.023Z" fill="black"/>
<path d="M174.732 343H180.084L174.78 334.312L180.036 326.2H175.044L171.036 332.728H168.756V326.2H164.028V343H168.756V336.568H170.916L174.732 343Z" fill="black"/>
<path d="M196.134 326.2H181.158V329.968H186.318V343H190.998V329.968H196.134V326.2Z" fill="black"/>
<path d="M207.546 343.336C212.922 343.336 216.882 339.64 216.882 334.6C216.882 329.56 212.922 325.864 207.546 325.864C202.17 325.864 198.21 329.56 198.21 334.6C198.21 339.64 202.17 343.336 207.546 343.336ZM207.546 339.4C205.002 339.4 203.01 337.504 203.01 334.6C203.01 331.696 205.002 329.8 207.546 329.8C210.09 329.8 212.082 331.696 212.082 334.6C212.082 337.504 210.09 339.4 207.546 339.4Z" fill="black"/>
<path d="M228.303 326.2H220.623V343H225.375V338.608H228.303C232.887 338.608 235.767 336.232 235.767 332.416C235.767 328.576 232.887 326.2 228.303 326.2ZM228.015 334.864H225.375V329.944H228.015C229.983 329.944 230.967 330.856 230.967 332.416C230.967 333.952 229.983 334.864 228.015 334.864Z" fill="black"/>
<path d="M251.188 343H256.132L248.692 326.2H244.012L236.596 343H241.444L242.764 339.736H249.868L251.188 343ZM244.156 336.232L246.316 330.856L248.476 336.232H244.156Z" fill="black"/>
<path fill-rule="evenodd" clip-rule="evenodd" d="M88.3611 267.179C89.2956 265.946 90.7637 265.2 92.3451 265.2H96.9771C98.3 265.2 99.5498 265.723 100.472 266.624C102.587 265.488 105.044 264.864 107.651 264.864C109.821 264.864 111.907 265.268 113.791 266.091C114.6 265.529 115.582 265.2 116.641 265.2H131.617C133.34 265.2 134.86 266.072 135.759 267.398C136.678 266.039 138.222 265.2 139.9 265.2H144.58C146.558 265.2 148.351 266.366 149.152 268.175L150.145 270.419V270.2C150.145 267.439 152.384 265.2 155.145 265.2H159.897C161.133 265.2 162.265 265.649 163.137 266.392C164.01 265.649 165.141 265.2 166.377 265.2H171.129C172.945 265.2 174.534 266.167 175.41 267.615C177.85 265.859 180.908 264.864 184.195 264.864C187.486 264.864 190.546 265.861 192.988 267.62C193.863 266.17 195.454 265.2 197.272 265.2H205.432C207.811 265.2 210.332 265.623 212.469 266.912C213.385 265.863 214.733 265.2 216.235 265.2H220.963C222.154 265.2 223.248 265.617 224.107 266.312C224.984 265.603 226.09 265.2 227.251 265.2H232.243C233.862 265.2 235.366 265.982 236.298 267.274C237.226 265.989 238.726 265.2 240.353 265.2H245.033C247.012 265.2 248.804 266.366 249.605 268.175L257.045 284.975C257.73 286.522 257.586 288.31 256.664 289.727C255.741 291.145 254.165 292 252.473 292H247.529C245.492 292 243.658 290.764 242.894 288.875L242.838 288.736H242.477L242.42 288.875C241.657 290.764 239.823 292 237.785 292H232.937C232.829 292 232.721 291.997 232.614 291.99C232.507 291.997 232.399 292 232.291 292H226.939C225.845 292 224.801 291.642 223.951 291.009C223.118 291.632 222.084 292 220.963 292H216.235C214.824 292 213.55 291.415 212.641 290.475C210.587 291.593 208.212 292 205.888 292H197.272C195.454 292 193.863 291.03 192.988 289.58C190.546 291.339 187.486 292.336 184.195 292.336C180.908 292.336 177.85 291.341 175.41 289.585C174.534 291.033 172.945 292 171.129 292H166.377C165.141 292 164.01 291.552 163.137 290.808C162.265 291.552 161.133 292 159.897 292H155.145C154.599 292 154.073 291.912 153.581 291.75C153.084 291.914 152.558 292 152.02 292H147.076C145.038 292 143.205 290.764 142.441 288.875L142.385 288.736H142.023L141.967 288.875C141.203 290.764 139.37 292 137.332 292H132.484C131.386 292 130.337 291.64 129.483 290.999C128.647 291.628 127.608 292 126.481 292H121.801C119.732 292 117.956 290.743 117.196 288.951C114.601 291.23 111.24 292.336 107.651 292.336C102.048 292.336 97.1396 289.453 94.8244 284.799L94.4352 285.525C94.4332 285.529 94.4311 285.533 94.4291 285.537C92.282 289.581 88.5988 292.432 83.8251 292.432C82.1025 292.432 80.4898 292.043 79.0108 291.458C76.5602 290.489 75.2822 287.784 76.0897 285.276L77.2177 281.772C77.5094 280.866 78.0359 280.099 78.7089 279.519L74.961 272.575C74.1248 271.025 74.1652 269.15 75.0673 267.638C75.9695 266.126 77.6004 265.2 79.3611 265.2H84.3771C85.9599 265.2 87.4274 265.947 88.3611 267.179ZM82.2084 283.37C82.133 283.349 82.056 283.327 81.9771 283.304L80.8491 286.808C80.876 286.819 80.9028 286.829 80.9296 286.839C81.3339 286.996 81.7309 287.122 82.122 287.218C82.643 287.345 83.1535 287.417 83.6571 287.43C83.7132 287.431 83.7692 287.432 83.8251 287.432C84.5949 287.432 85.3333 287.298 86.03 287.031C87.2127 286.578 88.2756 285.745 89.1683 284.54C89.4715 284.13 89.7551 283.678 90.0171 283.184L96.9771 270.2H92.3451L88.2891 278.312L84.3771 270.2H79.3611L85.8891 282.296C85.8205 282.396 85.7513 282.49 85.6812 282.578C85.1529 283.239 84.5752 283.549 83.8251 283.588C83.7701 283.591 83.7141 283.592 83.6571 283.592C83.603 283.592 83.5487 283.591 83.4939 283.589C83.1005 283.573 82.6866 283.5 82.2084 283.37ZM107.802 278.442C107.802 278.442 107.802 278.442 107.802 278.442ZM116.58 278.968L116.801 279.168V278.968H116.641C116.621 278.968 116.6 278.968 116.58 278.968ZM121.801 287H126.481V273.968H131.617V270.2H116.641V273.968H121.801V287ZM111.851 275.768C111.798 275.704 111.744 275.641 111.69 275.58C111.611 275.492 111.531 275.406 111.449 275.324C110.47 274.335 109.301 273.8 107.891 273.8C107.81 273.8 107.73 273.802 107.651 273.805C105.02 273.913 103.211 275.804 103.211 278.6C103.211 281.396 105.02 283.287 107.651 283.395C107.73 283.398 107.81 283.4 107.891 283.4C109.301 283.4 110.47 282.865 111.449 281.876C111.531 281.794 111.611 281.708 111.69 281.62C111.744 281.559 111.798 281.496 111.851 281.432L114.875 284.168C114.668 284.427 114.448 284.67 114.214 284.899C113.213 285.878 111.968 286.58 110.522 286.972C109.707 287.193 108.827 287.316 107.891 287.334C107.812 287.335 107.732 287.336 107.651 287.336C102.323 287.336 98.4111 283.712 98.4111 278.6C98.4111 278.426 98.4157 278.253 98.4247 278.083C98.5464 275.77 99.4846 273.79 100.993 272.353C101.229 272.129 101.478 271.917 101.74 271.72C103.312 270.54 105.35 269.864 107.651 269.864C107.732 269.864 107.812 269.865 107.891 269.866C108.827 269.884 109.707 270.007 110.522 270.228C110.91 270.333 111.283 270.461 111.641 270.61C112.618 271.017 113.481 271.585 114.214 272.301C114.448 272.53 114.668 272.773 114.875 273.032L111.851 275.768ZM152.02 287L144.58 270.2H139.9L132.484 287H137.332L138.652 283.736H145.756L147.076 287H152.02ZM142.204 274.856L140.044 280.232H144.364L142.204 274.856ZM159.897 287V280.448H166.377V287H171.129V270.2H166.377V276.512H159.897V270.2H155.145V287H159.897ZM176.129 283.177C177.712 285.724 180.645 287.336 184.195 287.336C187.754 287.336 190.692 285.716 192.272 283.159C193.079 281.854 193.531 280.304 193.531 278.6C193.531 276.896 193.079 275.346 192.272 274.041C190.692 271.484 187.754 269.864 184.195 269.864C180.645 269.864 177.712 271.476 176.129 274.023C175.316 275.332 174.859 276.889 174.859 278.6C174.859 280.311 175.316 281.868 176.129 283.177ZM197.272 287H205.888C208.313 287 210.118 286.417 211.235 285.384C212.1 284.584 212.552 283.513 212.56 282.233C212.56 282.222 212.56 282.211 212.56 282.2C212.56 282.078 212.556 281.958 212.548 281.84C212.469 280.701 212.014 279.797 211.235 279.136C211.147 279.06 211.054 278.988 210.957 278.919C210.547 278.628 210.063 278.393 209.512 278.216C210.071 277.936 210.54 277.574 210.904 277.137C211.026 276.991 211.137 276.836 211.235 276.673C211.488 276.254 211.659 275.782 211.74 275.264C211.774 275.04 211.792 274.808 211.792 274.568C211.792 274.262 211.763 273.97 211.707 273.693C211.618 273.253 211.46 272.851 211.235 272.49C210.317 271.01 208.298 270.2 205.432 270.2H197.272V287ZM201.952 283.592H205.696C205.761 283.592 205.825 283.591 205.888 283.588C206.315 283.569 206.67 283.486 206.952 283.341C207.202 283.211 207.395 283.033 207.529 282.806C207.583 282.714 207.628 282.615 207.663 282.507C207.695 282.411 207.718 282.309 207.735 282.2C207.751 282.087 207.76 281.967 207.76 281.84C207.76 281.827 207.76 281.813 207.76 281.8C207.759 281.779 207.759 281.759 207.758 281.739C207.754 281.643 207.746 281.551 207.732 281.464C207.65 280.948 207.389 280.587 206.952 280.372C206.629 280.214 206.21 280.136 205.696 280.136H201.952V283.592ZM204.976 276.92C205.242 276.92 205.482 276.898 205.696 276.855C206.408 276.71 206.827 276.325 206.952 275.698C206.973 275.593 206.985 275.482 206.99 275.364C206.991 275.331 206.992 275.298 206.992 275.264C206.992 275.252 206.992 275.239 206.992 275.227C206.991 275.193 206.99 275.161 206.988 275.128C206.983 275.027 206.97 274.93 206.952 274.838C206.933 274.743 206.906 274.653 206.873 274.568C206.855 274.521 206.834 274.476 206.812 274.432C206.757 274.327 206.689 274.231 206.609 274.145C206.349 273.867 205.956 273.694 205.432 273.633C205.29 273.616 205.138 273.608 204.976 273.608H201.952V276.92H204.976ZM216.235 287H220.963V280.568H223.123L226.939 287H232.291L226.987 278.312L232.243 270.2H227.251L223.243 276.728H220.963V270.2H216.235V287ZM245.033 270.2H240.353L232.937 287H237.785L239.105 283.736H246.209L247.529 287H252.473L245.033 270.2ZM242.657 274.856L240.497 280.232H244.817L242.657 274.856ZM184.195 278.4C184.186 278.401 184.145 278.406 184.081 278.432C184 278.465 183.912 278.522 183.837 278.599C183.836 278.599 183.836 278.6 183.836 278.6C183.836 278.6 183.836 278.601 183.837 278.601C183.912 278.679 184 278.735 184.081 278.768C184.145 278.794 184.186 278.799 184.195 278.8C184.204 278.799 184.245 278.794 184.309 278.768C184.39 278.735 184.478 278.679 184.553 278.601C184.554 278.601 184.554 278.6 184.554 278.6C184.554 278.6 184.554 278.599 184.553 278.599C184.478 278.522 184.39 278.465 184.309 278.432C184.245 278.406 184.204 278.401 184.195 278.4ZM62.907 320C60.1456 320 57.907 317.761 57.907 315L57.907 298.2C57.907 295.439 60.1456 293.2 62.907 293.2H76.947C77.8472 293.2 78.6919 293.438 79.4215 293.854C80.1512 293.438 80.9958 293.2 81.896 293.2H95.072C96.7523 293.2 98.2391 294.029 99.1456 295.3C101.492 293.738 104.367 292.864 107.452 292.864C110.009 292.864 112.45 293.425 114.582 294.572C115.478 293.722 116.689 293.2 118.023 293.2H133.791C135.123 293.2 136.335 293.722 137.231 294.572C138.129 293.72 139.341 293.2 140.671 293.2H154.207C156.969 293.2 159.207 295.439 159.207 298.2V298.345L160.163 296.181C160.962 294.369 162.756 293.2 164.737 293.2H169.417C171.094 293.2 172.638 294.039 173.557 295.397C174.456 294.071 175.976 293.2 177.698 293.2H192.674C193.269 293.2 193.84 293.304 194.37 293.495C194.899 293.304 195.47 293.2 196.065 293.2H200.817C202.053 293.2 203.184 293.649 204.057 294.392C204.929 293.649 206.061 293.2 207.297 293.2H212.049C213.864 293.2 215.453 294.167 216.329 295.615C218.77 293.859 221.828 292.864 225.115 292.864C228.405 292.864 231.466 293.861 233.907 295.62C234.783 294.17 236.374 293.2 238.191 293.2H250.503C251.719 293.2 252.889 293.643 253.798 294.439C255.839 293.421 258.171 292.864 260.632 292.864C268.447 292.864 274.968 298.487 274.968 306.6C274.968 314.713 268.447 320.336 260.632 320.336C255.127 320.336 250.266 317.547 247.871 313.063V315C247.871 317.761 245.633 320 242.871 320H238.191C236.374 320 234.783 319.03 233.907 317.58C231.466 319.339 228.405 320.336 225.115 320.336C221.828 320.336 218.77 319.341 216.329 317.585C215.453 319.033 213.864 320 212.049 320H207.297C206.061 320 204.929 319.552 204.057 318.808C203.184 319.552 202.053 320 200.817 320H196.065C194.261 320 192.681 319.045 191.802 317.614C190.922 319.045 189.342 320 187.538 320H182.858C181.732 320 180.693 319.628 179.857 319C179.004 319.64 177.954 320 176.857 320H171.913C169.875 320 168.041 318.764 167.277 316.875L167.221 316.736H166.86L166.804 316.875C166.04 318.764 164.206 320 162.169 320H157.321C156.785 320 156.261 319.914 155.766 319.752C155.275 319.913 154.751 320 154.207 320H149.527C147.893 320 146.442 319.216 145.529 318.003C145.274 318.231 145 318.449 144.707 318.654C143.024 319.83 141.116 320.288 139.231 320.288C138.1 320.288 136.977 320.122 135.893 319.859C135.736 319.821 135.583 319.776 135.433 319.724C134.918 319.903 134.366 320 133.791 320H129.087C127.873 320 126.761 319.568 125.895 318.849C125.029 319.568 123.916 320 122.703 320H118.023C116.689 320 115.478 319.478 114.582 318.628C112.45 319.775 110.009 320.336 107.452 320.336C104.458 320.336 101.663 319.513 99.3561 318.037C98.4423 319.231 97.003 320 95.384 320H81.896C80.4349 320 79.1201 319.373 78.2059 318.374C76.1036 319.561 73.6725 320 71.307 320H62.907ZM81.896 315H95.384V311.328H86.6V308.256H94.064V304.704H86.6V301.872H95.072V298.2H81.896V315ZM98.2504 305.732C98.2249 306.016 98.2119 306.306 98.2119 306.6C98.2119 306.808 98.2184 307.014 98.2312 307.217C98.2536 307.572 98.2952 307.918 98.3552 308.256C98.4546 308.816 98.6045 309.352 98.8008 309.861C99.001 310.38 99.2495 310.87 99.5418 311.328C99.7914 311.719 100.073 312.086 100.384 312.428C102.043 314.25 104.535 315.336 107.452 315.336C107.532 315.336 107.612 315.335 107.692 315.334C108.628 315.316 109.507 315.193 110.323 314.972C111.324 314.701 112.229 314.28 113.023 313.723C113.375 313.475 113.706 313.2 114.014 312.899C114.248 312.67 114.469 312.427 114.676 312.168L111.652 309.432C111.599 309.496 111.545 309.559 111.491 309.62C111.412 309.708 111.331 309.794 111.25 309.876C110.271 310.865 109.101 311.4 107.692 311.4C107.611 311.4 107.531 311.398 107.452 311.395C104.821 311.287 103.012 309.396 103.012 306.6C103.012 303.804 104.821 301.913 107.452 301.805C107.531 301.802 107.611 301.8 107.692 301.8C109.101 301.8 110.271 302.335 111.25 303.324C111.331 303.406 111.412 303.492 111.491 303.58C111.545 303.641 111.599 303.704 111.652 303.768L114.676 301.032C114.469 300.773 114.248 300.53 114.014 300.301C113.706 300 113.375 299.725 113.023 299.477C112.229 298.92 111.324 298.499 110.323 298.228C109.507 298.007 108.628 297.884 107.692 297.866C107.612 297.865 107.532 297.864 107.452 297.864C104.346 297.864 101.721 299.096 100.072 301.136C99.8821 301.371 99.7051 301.616 99.5418 301.872C99.2699 302.298 99.0359 302.752 98.8434 303.231C98.6553 303.699 98.5068 304.191 98.4011 304.704C98.3324 305.038 98.2818 305.381 98.2504 305.732ZM118.023 315H122.703V301.968H129.087V315H133.791V298.2H118.023V315ZM149.527 315H154.207V298.2H140.671L140.431 304.896C140.326 307.672 140.105 309.753 139.231 310.669C139.1 310.807 138.953 310.919 138.791 311.002C138.618 311.091 138.426 311.148 138.213 311.172C138.143 311.179 138.071 311.184 137.996 311.184C137.992 311.184 137.987 311.184 137.983 311.184C137.767 311.184 137.551 311.16 137.335 311.112L137.071 315C137.387 315.076 137.691 315.138 137.983 315.184C138.26 315.227 138.527 315.257 138.783 315.273C138.936 315.283 139.085 315.288 139.231 315.288C139.572 315.288 139.891 315.262 140.19 315.212C140.963 315.081 141.601 314.785 142.128 314.336C143.717 312.981 144.301 310.237 144.527 306.467C144.555 306.011 144.577 305.54 144.595 305.054C144.595 305.051 144.595 305.048 144.595 305.045C144.599 304.932 144.603 304.819 144.607 304.704L144.703 301.968H149.527V315ZM76.947 298.2H62.907V315H71.307C73.8084 315 75.7195 314.347 76.896 313.148C77.7449 312.284 78.2114 311.135 78.2414 309.744C78.2425 309.696 78.243 309.648 78.243 309.6C78.243 308.511 77.991 307.588 77.5015 306.842C77.3418 306.598 77.1568 306.373 76.947 306.168C76.9302 306.152 76.9132 306.135 76.896 306.119C75.8326 305.113 74.1568 304.584 71.931 304.584H67.587V301.872H76.947V298.2ZM67.587 307.968V311.592H70.995C71.1023 311.592 71.2063 311.589 71.307 311.583C71.8241 311.553 72.2527 311.445 72.587 311.263C73.1398 310.962 73.4343 310.46 73.4428 309.775C73.4429 309.765 73.443 309.754 73.443 309.744C73.443 309.741 73.443 309.738 73.443 309.735C73.4428 309.689 73.4414 309.644 73.4389 309.6C73.4022 308.967 73.1182 308.523 72.587 308.26C72.3992 308.167 72.1805 308.096 71.931 308.048C71.6564 307.994 71.3444 307.968 70.995 307.968H67.587ZM169.417 298.2H164.737L157.321 315H162.169L163.489 311.736H170.593L171.913 315H176.857L169.417 298.2ZM167.041 302.856L164.881 308.232H169.201L167.041 302.856ZM182.858 315H187.538V301.968H192.674V298.2H177.698V301.968H182.858V315ZM196.065 315H200.817V308.448H207.297V315H212.049V298.2H207.297V304.512H200.817V298.2H196.065V315ZM217.049 311.177C218.631 313.724 221.564 315.336 225.115 315.336C228.673 315.336 231.612 313.716 233.191 311.159C233.998 309.854 234.451 308.304 234.451 306.6C234.451 304.896 233.998 303.346 233.191 302.041C231.612 299.484 228.673 297.864 225.115 297.864C221.564 297.864 218.631 299.476 217.049 302.023C216.235 303.332 215.779 304.889 215.779 306.6C215.779 308.311 216.235 309.868 217.049 311.177ZM238.191 315H242.871V301.968H250.479L250.503 298.2H238.191V315ZM251.3 306.901C251.455 311.786 255.363 315.336 260.632 315.336C266.008 315.336 269.968 311.64 269.968 306.6C269.968 301.56 266.008 297.864 260.632 297.864C258.697 297.864 256.946 298.343 255.497 299.19C254.301 299.89 253.31 300.841 252.592 301.981C251.762 303.299 251.296 304.871 251.296 306.6C251.296 306.701 251.297 306.801 251.3 306.901ZM225.228 306.432C225.165 306.406 225.123 306.401 225.115 306.4C225.106 306.401 225.064 306.406 225.001 306.432C224.919 306.465 224.832 306.522 224.756 306.599C224.756 306.599 224.756 306.6 224.755 306.6C224.756 306.6 224.756 306.601 224.756 306.601C224.832 306.679 224.919 306.735 225.001 306.768C225.064 306.794 225.106 306.799 225.115 306.8C225.115 306.8 225.114 306.8 225.115 306.8M225.474 306.6C225.474 306.6 225.473 306.601 225.473 306.601C225.397 306.679 225.31 306.735 225.228 306.768C225.166 306.794 225.125 306.799 225.115 306.8M225.228 306.432C225.31 306.465 225.397 306.522 225.473 306.599ZM225.473 306.599C225.473 306.599 225.474 306.6 225.474 306.6ZM260.746 306.432C260.682 306.406 260.641 306.401 260.632 306.4C260.623 306.401 260.581 306.406 260.518 306.432C260.436 306.465 260.349 306.522 260.274 306.599C260.273 306.599 260.273 306.6 260.272 306.6C260.273 306.6 260.273 306.601 260.274 306.601C260.349 306.679 260.436 306.735 260.518 306.768C260.581 306.794 260.623 306.799 260.632 306.8C260.641 306.799 260.682 306.794 260.746 306.768C260.827 306.735 260.915 306.679 260.99 306.601C260.99 306.601 260.991 306.6 260.991 306.6C260.991 306.6 260.99 306.599 260.99 306.599C260.915 306.522 260.827 306.465 260.746 306.432ZM80.5429 326.2C80.5429 323.439 82.7815 321.2 85.5429 321.2H93.2229C95.6826 321.2 98.145 321.704 100.269 322.916C101.186 321.864 102.535 321.2 104.04 321.2H117.216C118.445 321.2 119.571 321.644 120.441 322.38C121.313 321.643 122.44 321.2 123.667 321.2H137.203C139.965 321.2 142.203 323.439 142.203 326.2V328.942L144.305 324.181C145.105 322.369 146.898 321.2 148.879 321.2H153.559C155.537 321.2 157.33 322.366 158.131 324.175L159.028 326.202V326.2C159.028 323.439 161.267 321.2 164.028 321.2H168.756C169.947 321.2 171.041 321.617 171.9 322.312C172.777 321.603 173.883 321.2 175.044 321.2H180.036C180.224 321.2 180.411 321.211 180.595 321.231C180.78 321.211 180.967 321.2 181.158 321.2H196.134C197.625 321.2 198.964 321.853 199.88 322.888C202.108 321.587 204.744 320.864 207.546 320.864C210.836 320.864 213.897 321.861 216.339 323.62C217.214 322.17 218.805 321.2 220.623 321.2H228.303C231.409 321.2 234.519 322.004 236.948 324.022C237.617 324.578 238.199 325.197 238.693 325.867L239.438 324.181C240.237 322.369 242.031 321.2 244.012 321.2H248.692C250.67 321.2 252.462 322.366 253.263 324.175L260.703 340.975C261.388 342.522 261.245 344.31 260.322 345.727C259.4 347.145 257.823 348 256.132 348H251.188C249.15 348 247.316 346.764 246.552 344.875L246.496 344.736H246.135L246.079 344.875C245.315 346.764 243.481 348 241.444 348H236.596C234.905 348 233.33 347.146 232.407 345.73C231.922 344.986 231.652 344.141 231.604 343.281C231.19 343.367 230.772 343.435 230.351 343.486C230.107 346.02 227.972 348 225.375 348H220.623C218.805 348 217.214 347.03 216.339 345.58C213.897 347.339 210.836 348.336 207.546 348.336C202.852 348.336 198.625 346.308 195.998 342.93V343C195.998 345.761 193.759 348 190.998 348H186.318C185.139 348 184.056 347.592 183.201 346.91C182.329 347.604 181.235 348 180.084 348H174.732C173.638 348 172.594 347.642 171.744 347.009C170.911 347.632 169.876 348 168.756 348H164.028C163.499 348 162.99 347.918 162.511 347.766C162.029 347.919 161.519 348 160.999 348H156.055C154.017 348 152.184 346.764 151.42 344.875L151.364 344.736H151.002L150.946 344.875C150.182 346.764 148.349 348 146.311 348H144.216C143.544 349.968 141.679 351.384 139.483 351.384H135.139C132.943 351.384 131.078 349.968 130.406 348H129.12C128.448 349.968 126.583 351.384 124.387 351.384H120.019C117.823 351.384 115.958 349.968 115.286 348H104.04C101.278 348 99.0398 345.761 99.0398 343V342.502C97.8448 343.01 96.5716 343.328 95.2716 343.486C95.0271 346.02 92.8923 348 90.2949 348H85.5429C82.7815 348 80.5429 345.761 80.5429 343V326.2ZM85.5429 326.2V343H90.2949V338.608H93.2229C95.7411 338.608 97.745 337.891 99.0398 336.612C100.102 335.563 100.687 334.136 100.687 332.416C100.687 330.685 100.102 329.252 99.0398 328.2C97.745 326.917 95.7411 326.2 93.2229 326.2H85.5429ZM90.2949 329.944V334.864H92.9349C93.0334 334.864 93.1294 334.862 93.2229 334.857C94.1617 334.812 94.8524 334.54 95.2949 334.078C95.6896 333.667 95.8869 333.104 95.8869 332.416C95.8869 331.717 95.6896 331.149 95.2949 330.734C94.8524 330.268 94.1617 329.996 93.2229 329.951C93.1294 329.946 93.0334 329.944 92.9349 329.944H90.2949ZM104.04 343H117.528V339.328H108.744V336.256H116.208V332.704H108.744V329.872H117.216V326.2H104.04V343ZM120.019 339.232V346.384H124.387V343H135.139V346.384H139.483V339.232H137.203V326.2H123.667L123.475 331.384C123.472 331.466 123.469 331.547 123.466 331.628C123.465 331.632 123.465 331.636 123.465 331.64C123.379 333.738 123.201 335.564 122.807 336.9C122.681 337.328 122.532 337.706 122.357 338.026C122.221 338.273 122.07 338.486 121.902 338.661C121.708 338.862 121.49 339.013 121.247 339.109C121.219 339.12 121.192 339.13 121.164 339.139C120.995 339.196 120.814 339.228 120.619 339.232H120.019ZM126.163 339.232C126.398 338.893 126.598 338.479 126.767 338C127.122 336.997 127.342 335.709 127.478 334.232C127.494 334.055 127.509 333.876 127.523 333.694C127.569 333.086 127.603 332.45 127.627 331.792L127.637 331.54L127.637 331.538L127.699 329.968H132.523V339.232H126.163ZM160.999 343L153.559 326.2H148.879L141.463 343H146.311L147.631 339.736H154.735L156.055 343H160.999ZM151.183 330.856L149.023 336.232H153.343L151.183 330.856ZM168.756 343V336.568H170.916L174.732 343H180.084L174.78 334.312L180.036 326.2H175.044L171.036 332.728H168.756V326.2H164.028V343H168.756ZM181.038 334.967L181.318 335.425V334.968H181.158C181.118 334.968 181.078 334.968 181.038 334.967ZM186.318 343H190.998V329.968H196.134V326.2H181.158V329.968H186.318V343ZM198.21 334.518C198.21 334.545 198.21 334.573 198.21 334.6C198.21 339.64 202.17 343.336 207.546 343.336C211.105 343.336 214.043 341.716 215.623 339.159C216.429 337.854 216.882 336.304 216.882 334.6C216.882 332.896 216.429 331.346 215.623 330.041C214.043 327.484 211.105 325.864 207.546 325.864C205.001 325.864 202.774 326.692 201.134 328.099C200.502 328.641 199.957 329.268 199.514 329.968C198.692 331.268 198.225 332.815 198.21 334.518ZM220.623 343H225.375V338.608H228.303C230.642 338.608 232.538 337.989 233.834 336.875C235.058 335.823 235.746 334.329 235.766 332.498C235.766 332.471 235.767 332.443 235.767 332.416C235.767 328.576 232.887 326.2 228.303 326.2H220.623V343ZM225.375 334.864H228.015C228.113 334.864 228.209 334.862 228.303 334.857C229.241 334.812 229.932 334.54 230.375 334.078C230.769 333.667 230.967 333.104 230.967 332.416C230.967 331.717 230.769 331.149 230.375 330.734C229.932 330.268 229.241 329.996 228.303 329.951C228.209 329.946 228.113 329.944 228.015 329.944H225.375V334.864ZM248.692 326.2H244.012L236.596 343H241.444L242.764 339.736H249.868L251.188 343H256.132L248.692 326.2ZM244.156 336.232L246.316 330.856L248.476 336.232H244.156ZM207.66 334.432C207.596 334.406 207.555 334.401 207.546 334.4C207.546 334.4 207.546 334.4 207.546 334.4M207.186 334.6C207.187 334.6 207.187 334.599 207.188 334.599C207.263 334.521 207.35 334.465 207.432 334.432C207.494 334.406 207.536 334.401 207.546 334.4M207.065 334.421C207.065 334.421 207.065 334.421 207.065 334.421ZM207.66 334.432C207.741 334.465 207.829 334.521 207.904 334.599ZM207.904 334.599C207.904 334.599 207.905 334.6 207.905 334.6ZM207.905 334.6C207.905 334.6 207.904 334.601 207.904 334.601ZM207.904 334.601C207.829 334.679 207.741 334.735 207.66 334.768ZM207.66 334.768C207.596 334.794 207.555 334.799 207.546 334.8ZM207.546 334.8C207.537 334.799 207.496 334.794 207.432 334.768C207.35 334.735 207.263 334.679 207.188 334.601C207.187 334.601 207.187 334.6 207.186 334.6M179.659 278.6C179.659 281.504 181.651 283.4 184.195 283.4C186.739 283.4 188.731 281.504 188.731 278.6C188.731 275.696 186.739 273.8 184.195 273.8C181.651 273.8 179.659 275.696 179.659 278.6ZM220.579 306.6C220.579 309.504 222.571 311.4 225.115 311.4C227.659 311.4 229.651 309.504 229.651 306.6C229.651 303.696 227.659 301.8 225.115 301.8C222.571 301.8 220.579 303.696 220.579 306.6ZM256.096 306.6C256.096 309.504 258.088 311.4 260.632 311.4C263.176 311.4 265.168 309.504 265.168 306.6C265.168 303.696 263.176 301.8 260.632 301.8C258.088 301.8 256.096 303.696 256.096 306.6ZM203.01 334.6C203.01 337.504 205.002 339.4 207.546 339.4C210.09 339.4 212.082 337.504 212.082 334.6C212.082 331.696 210.09 329.8 207.546 329.8C205.002 329.8 203.01 331.696 203.01 334.6Z" fill="white"/>
<rect x="16" y="397" width="125" height="43" rx="13" fill="white"/>
<rect x="195" y="397" width="125" height="43" rx="13" fill="white"/>
<path d="M252 5C252 26.7477 243.361 47.6048 227.983 62.9828C212.605 78.3607 191.748 87 170 87C148.252 87 127.395 78.3607 112.017 62.9828C96.6393 47.6048 88 26.7478 88 5.00002L170 5H252Z" fill="white"/>
<path d="M48.032 423.216C48.032 414.96 35.328 417.52 35.328 414.096C35.328 412.976 36.288 412.08 38.944 412.08C40.896 412.08 43.008 412.656 45.152 413.808L47.104 409.104C45.312 408.048 42.976 407.408 40.608 407.216V403.76H36.768V407.28C31.584 407.92 29.056 410.896 29.056 414.416C29.056 422.736 41.792 420.144 41.792 423.696C41.792 424.784 40.768 425.52 38.144 425.52C35.552 425.52 32.736 424.624 30.752 423.312L28.672 427.984C30.528 429.264 33.568 430.192 36.768 430.416V433.84H40.608V430.288C45.6 429.552 48.032 426.608 48.032 423.216Z" fill="#00BCBC"/>
<path d="M67.58 417.26H66.44L66.66 414.6H72.5V412H63.96L63.24 419.88H66.82C69.36 419.88 70.08 420.6 70.08 421.7C70.08 422.84 69.08 423.52 67.46 423.52C66 423.52 64.54 423.06 63.48 422.26L62.2 424.74C63.56 425.7 65.6 426.24 67.54 426.24C71.54 426.24 73.36 424.08 73.36 421.6C73.36 419.12 71.72 417.26 67.58 417.26ZM86.3386 426.24C89.7986 426.24 92.3386 423.62 92.3386 419C92.3386 414.38 89.7986 411.76 86.3386 411.76C82.8986 411.76 80.3386 414.38 80.3386 419C80.3386 423.62 82.8986 426.24 86.3386 426.24ZM86.3386 423.5C84.7386 423.5 83.6186 422.18 83.6186 419C83.6186 415.82 84.7386 414.5 86.3386 414.5C87.9586 414.5 89.0786 415.82 89.0786 419C89.0786 422.18 87.9586 423.5 86.3386 423.5ZM99.9128 426.24C103.373 426.24 105.913 423.62 105.913 419C105.913 414.38 103.373 411.76 99.9128 411.76C96.4728 411.76 93.9128 414.38 93.9128 419C93.9128 423.62 96.4728 426.24 99.9128 426.24ZM99.9128 423.5C98.3128 423.5 97.1928 422.18 97.1928 419C97.1928 415.82 98.3128 414.5 99.9128 414.5C101.533 414.5 102.653 415.82 102.653 419C102.653 422.18 101.533 423.5 99.9128 423.5ZM113.487 426.24C116.947 426.24 119.487 423.62 119.487 419C119.487 414.38 116.947 411.76 113.487 411.76C110.047 411.76 107.487 414.38 107.487 419C107.487 423.62 110.047 426.24 113.487 426.24ZM113.487 423.5C111.887 423.5 110.767 422.18 110.767 419C110.767 415.82 111.887 414.5 113.487 414.5C115.107 414.5 116.227 415.82 116.227 419C116.227 422.18 115.107 423.5 113.487 423.5Z" fill="black"/>
<path d="M237.14 412V414.6H239.94V426H243.18V412H237.14ZM251.612 426.24C255.072 426.24 257.612 423.62 257.612 419C257.612 414.38 255.072 411.76 251.612 411.76C248.172 411.76 245.612 414.38 245.612 419C245.612 423.62 248.172 426.24 251.612 426.24ZM251.612 423.5C250.012 423.5 248.892 422.18 248.892 419C248.892 415.82 250.012 414.5 251.612 414.5C253.232 414.5 254.352 415.82 254.352 419C254.352 422.18 253.232 423.5 251.612 423.5ZM278.89 426L278.85 415.24H275.93L272.27 421.46L268.83 415.24H265.57V426H268.39V419.54L271.53 424.96H272.85L276.07 419.56V426H278.89ZM281.879 426H284.759L289.979 419.6V426H293.079V415.24H290.219L284.979 421.64V415.24H281.879V426ZM296.078 426H299.178V421.98H303.858V426H306.978V415.24H303.858V419.44H299.178V415.24H296.078V426Z" fill="black"/>
<g filter="url(#filter0_di)">
<path d="M210.987 148.991C207.401 145.405 203.426 142.351 199.161 139.859H213.373C215.008 144.627 219.533 148.064 224.848 148.064C231.536 148.064 236.978 142.623 236.978 135.934C236.978 129.246 231.536 123.804 224.848 123.804C219.533 123.804 215.008 127.242 213.373 132.009H182.923V123H157.055V132.009H126.605C124.969 127.242 120.445 123.804 115.13 123.804C108.442 123.804 103 129.246 103 135.934C103 142.623 108.442 148.064 115.13 148.064C120.445 148.064 124.969 144.627 126.605 139.859H140.816C136.551 142.351 132.577 145.405 128.991 148.991C121.156 156.825 115.843 166.508 113.451 177.054H103V202.923H128.868V177.054H121.555C126.169 159.79 139.79 146.169 157.055 141.554V148.846H182.923V141.555C200.188 146.169 213.809 159.79 218.423 177.055H211.109V202.923H236.978V177.055H226.526C224.135 166.508 218.821 156.826 210.987 148.991V148.991Z" fill="white"/>
<path d="M151.725 210.644L148.111 217.633V239H191.933V217.633L188.32 210.644H151.725Z" fill="white"/>
<path d="M180.036 153.933H173.914V184.545H166.064V153.933H159.942C155.876 163.481 150.102 172.514 142.717 180.847L140.957 182.832L151.47 203.861H188.507L199.02 182.832L197.26 180.847C189.876 172.514 184.103 163.481 180.036 153.933Z" fill="white"/>
</g>
<path d="M216.5 406C209.595 406 204 411.595 204 418.5C204 425.405 209.595 431 216.5 431C223.405 431 229 425.405 229 418.5C229 411.595 223.405 406 216.5 406Z" fill="#00BCBC"/>
<path fill-rule="evenodd" clip-rule="evenodd" d="M215.961 410C214.878 410 214 410.878 214 411.961V419.153C214 419.311 214.019 419.464 214.054 419.611C214.047 420.263 214.376 420.901 214.974 421.262L220.414 424.535C221.313 425.077 222.481 424.786 223.022 423.887C223.563 422.988 223.273 421.82 222.374 421.279L217.923 418.6V411.961C217.923 410.878 217.045 410 215.961 410Z" fill="white"/>
<g filter="url(#filter1_d)">
<path d="M162.531 400.393L185.975 433.213C179.766 434.57 168.698 428.331 168.698 428.331C168.698 428.331 160.834 438.706 154.912 440L162.531 400.393Z" fill="white"/>
<path fill-rule="evenodd" clip-rule="evenodd" d="M154.912 440L158.469 421.51C161.522 424.284 164.956 426.604 168.698 428.331C168.698 428.331 160.834 438.706 154.912 440Z" fill="#BBFFF9"/>
</g>
<path d="M138.793 25.4V34.274H146.333V66H157.817V25.4H138.793ZM184.744 66.812C195.068 66.812 202.608 59.098 202.608 45.7C202.608 32.302 195.068 24.588 184.744 24.588C174.362 24.588 166.822 32.302 166.822 45.7C166.822 59.098 174.362 66.812 184.744 66.812ZM184.744 57.416C181.032 57.416 178.364 54.226 178.364 45.7C178.364 37.174 181.032 33.984 184.744 33.984C188.398 33.984 191.066 37.174 191.066 45.7C191.066 54.226 188.398 57.416 184.744 57.416Z" fill="#46BBCE"/>
<defs>
<filter id="filter0_di" x="97" y="117" width="153.978" height="136" filterUnits="userSpaceOnUse" color-interpolation-filters="sRGB">
<feFlood flood-opacity="0" result="BackgroundImageFix"/>
<feColorMatrix in="SourceAlpha" type="matrix" values="0 0 0 0 0 0 0 0 0 0 0 0 0 0 0 0 0 0 127 0"/>
<feOffset dx="4" dy="4"/>
<feGaussianBlur stdDeviation="5"/>
<feColorMatrix type="matrix" values="0 0 0 0 0.1715 0 0 0 0 0.816667 0 0 0 0 0.816667 0 0 0 1 0"/>
<feBlend mode="normal" in2="BackgroundImageFix" result="effect1_dropShadow"/>
<feBlend mode="normal" in="SourceGraphic" in2="effect1_dropShadow" result="shape"/>
<feColorMatrix in="SourceAlpha" type="matrix" values="0 0 0 0 0 0 0 0 0 0 0 0 0 0 0 0 0 0 127 0" result="hardAlpha"/>
<feOffset dx="-4" dy="-4"/>
<feGaussianBlur stdDeviation="4.5"/>
<feComposite in2="hardAlpha" operator="arithmetic" k2="-1" k3="1"/>
<feColorMatrix type="matrix" values="0 0 0 0 0.441945 0 0 0 0 0.887146 0 0 0 0 0.895833 0 0 0 0.52 0"/>
<feBlend mode="normal" in2="shape" result="effect2_innerShadow"/>
</filter>
<filter id="filter1_d" x="143" y="393" width="52.975" height="57.0001" filterUnits="userSpaceOnUse" color-interpolation-filters="sRGB">
<feFlood flood-opacity="0" result="BackgroundImageFix"/>
<feColorMatrix in="SourceAlpha" type="matrix" values="0 0 0 0 0 0 0 0 0 0 0 0 0 0 0 0 0 0 127 0"/>
<feOffset dx="3" dy="3"/>
<feGaussianBlur stdDeviation="3.5"/>
<feColorMatrix type="matrix" values="0 0 0 0 0.279 0 0 0 0 0.9 0 0 0 0 0.840225 0 0 0 1 0"/>
<feBlend mode="normal" in2="BackgroundImageFix" result="effect1_dropShadow"/>
<feBlend mode="normal" in="SourceGraphic" in2="effect1_dropShadow" result="shape"/>
</filter>
<linearGradient id="paint0_linear" x1="5.5" y1="-157" x2="289.5" y2="495.5" gradientUnits="userSpaceOnUse">
<stop stop-color="#00C2FF"/>
<stop offset="1" stop-color="#1EE7CF"/>
</linearGradient>
<linearGradient id="paint1_linear" x1="49" y1="11" x2="301.5" y2="474" gradientUnits="userSpaceOnUse">
<stop stop-color="#19D2EB"/>
<stop offset="1" stop-color="#55F5DF"/>
</linearGradient>
<linearGradient id="paint2_linear" x1="59.5" y1="-9" x2="291.5" y2="495.5" gradientUnits="userSpaceOnUse">
<stop stop-color="#00E0FF"/>
<stop offset="1" stop-color="#42F2D1"/>
</linearGradient>
<linearGradient id="paint3_linear" x1="51" y1="11" x2="303.5" y2="474" gradientUnits="userSpaceOnUse">
<stop stop-color="#B2F6FF"/>
<stop offset="1" stop-color="#28D7BE"/>
</linearGradient>
<linearGradient id="paint4_linear" x1="27" y1="473.49" x2="247.084" y2="60.8524" gradientUnits="userSpaceOnUse">
<stop stop-color="#73F5FF"/>
<stop offset="0.99" stop-color="#7AFFEC"/>
</linearGradient>
<linearGradient id="paint5_linear" x1="129.774" y1="288" x2="310" y2="288" gradientUnits="userSpaceOnUse">
<stop stop-color="white"/>
<stop offset="0.99" stop-color="white" stop-opacity="0.4"/>
</linearGradient>
<linearGradient id="paint6_linear" x1="59.8997" y1="86" x2="140" y2="86" gradientUnits="userSpaceOnUse">
<stop stop-color="white"/>
<stop offset="0.99" stop-color="white" stop-opacity="0.4"/>
</linearGradient>
</defs>
</svg>
