<svg width="338" height="474" viewBox="0 0 338 474" fill="none" xmlns="http://www.w3.org/2000/svg">
<rect x="2.5" y="2.5" width="331" height="469" rx="32.5" fill="url(#paint0_linear)" stroke="url(#paint1_linear)" stroke-width="5"/>
<mask id="mask0" mask-type="alpha" maskUnits="userSpaceOnUse" x="2" y="0" width="336" height="474">
<rect x="4.5" y="2.5" width="331" height="469" rx="41.5" fill="url(#paint2_linear)" stroke="url(#paint3_linear)" stroke-width="5"/>
</mask>
<g mask="url(#mask0)">
<path d="M198.89 5.0093C198.89 5.0093 97.8208 47.0947 93.9888 101.845C90.1568 156.595 112.775 152.615 106.069 185.086C99.3631 217.557 -10.9124 255.616 18.7856 356.766C48.4837 457.916 142.368 370.584 242 469H35C18.4315 469 5 455.569 5 439V35.0014C5 18.4323 18.4323 5.00064 35.0014 5.00144L198.89 5.0093Z" fill="url(#paint4_linear)" fill-opacity="0.5"/>
</g>
<path opacity="0.46" d="M219.887 378C202.092 377.978 184.702 372.68 169.917 362.777C155.131 352.875 143.613 338.811 136.819 322.363C130.024 305.916 128.258 287.824 131.743 270.373C135.229 252.922 143.809 236.896 156.4 224.321C168.992 211.745 185.028 203.185 202.483 199.721C219.939 196.258 238.029 198.046 254.468 204.862C270.906 211.677 284.956 223.212 294.84 238.01C304.724 252.808 310 270.204 310 288C309.958 311.876 300.447 334.761 283.553 351.633C266.66 368.506 243.763 377.988 219.887 378ZM219.887 222.747C206.985 222.764 194.378 226.607 183.659 233.788C172.94 240.969 164.59 251.166 159.665 263.091C154.74 275.016 153.461 288.134 155.989 300.786C158.517 313.438 164.739 325.056 173.868 334.173C182.998 343.29 194.625 349.496 207.28 352.006C219.936 354.517 233.051 353.219 244.97 348.278C256.888 343.336 267.074 334.972 274.24 324.243C281.406 313.515 285.231 300.902 285.231 288C285.177 270.703 278.27 254.132 266.022 241.918C253.774 229.704 237.184 222.843 219.887 222.837V222.747Z" fill="url(#paint5_linear)"/>
<path opacity="0.46" d="M99.9498 126C92.0407 125.99 84.3121 123.636 77.7407 119.234C71.1694 114.833 66.0503 108.583 63.0305 101.273C60.0106 93.9627 59.2257 85.9216 60.7747 78.1657C62.3238 70.4097 66.1374 63.2871 71.7335 57.698C77.3296 52.1089 84.457 48.3043 92.2148 46.7649C99.9727 45.2256 108.013 46.0207 115.319 49.0496C122.625 52.0786 128.869 57.2055 133.262 63.7824C137.655 70.3593 140 78.0909 140 86C139.981 96.6116 135.754 106.783 128.246 114.281C120.738 121.78 110.561 125.995 99.9498 126ZM99.9498 56.9985C94.2156 57.0064 88.6124 58.7141 83.8484 61.9056C79.0844 65.0972 75.3735 69.6294 73.1846 74.9294C70.9957 80.2294 70.4271 86.0594 71.5506 91.6825C72.6742 97.3056 75.4395 102.469 79.497 106.521C83.5545 110.573 88.7222 113.331 94.3468 114.447C99.9715 115.563 105.801 114.986 111.098 112.79C116.395 110.594 120.922 106.877 124.107 102.108C127.292 97.3398 128.991 91.7342 128.991 86C128.968 78.3124 125.898 70.9477 120.454 65.5193C115.011 60.0908 107.637 57.0412 99.9498 57.0386V56.9985Z" fill="url(#paint6_linear)"/>
<path d="M41.2272 305.264C42.6432 304.568 43.5312 303.296 43.5312 301.712C43.5312 298.592 39.9312 296.816 35.8512 296.816C33.8832 296.816 31.7952 297.224 29.9472 298.112L31.3392 301.712C32.7792 300.944 34.4352 300.56 35.8032 300.56C37.4592 300.56 38.7312 301.136 38.7312 302.264C38.7312 303.128 38.0112 303.68 36.7152 303.68H32.8032V307.16H37.0992C38.4432 307.16 39.4032 307.592 39.4032 308.624C39.4032 309.92 37.8192 310.592 35.8032 310.592C34.2672 310.592 32.4672 310.208 30.9072 309.416L29.4912 312.728C31.6752 313.832 34.0992 314.36 36.3312 314.36C40.6032 314.36 44.2032 312.488 44.2032 309.272C44.2032 307.424 43.0752 305.96 41.2272 305.264Z" fill="black"/>
<path d="M59.6847 314H64.6287L57.1887 297.2H52.5087L45.0927 314H49.9407L51.2607 310.736H58.3647L59.6847 314ZM52.6527 307.232L54.8127 301.856L56.9727 307.232H52.6527Z" fill="black"/>
<path d="M66.554 297.2V314H71.234V300.968H77.618V314H82.322V297.2H66.554Z" fill="black"/>
<path d="M94.1693 314.336C99.5453 314.336 103.505 310.64 103.505 305.6C103.505 300.56 99.5453 296.864 94.1693 296.864C88.7933 296.864 84.8333 300.56 84.8333 305.6C84.8333 310.64 88.7933 314.336 94.1693 314.336ZM94.1693 310.4C91.6253 310.4 89.6333 308.504 89.6333 305.6C89.6333 302.696 91.6253 300.8 94.1693 300.8C96.7133 300.8 98.7053 302.696 98.7053 305.6C98.7053 308.504 96.7133 310.4 94.1693 310.4Z" fill="black"/>
<path d="M107.713 297.2L107.473 303.896C107.329 307.688 106.969 310.184 105.025 310.184C104.809 310.184 104.593 310.16 104.377 310.112L104.113 314C104.905 314.192 105.625 314.288 106.273 314.288C110.545 314.288 111.433 310.256 111.649 303.704L111.745 300.968H116.569V314H121.249V297.2H107.713Z" fill="black"/>
<path d="M136.075 297.2V303.512H129.595V297.2H124.843V314H129.595V307.448H136.075V314H140.827V297.2H136.075Z" fill="black"/>
<path d="M144.437 314H148.925L155.837 304.16V314H160.517V297.2H156.053L149.117 307.064V297.2H144.437V314Z" fill="black"/>
<path d="M177.66 297.2H162.684V300.968H167.844V314H172.524V300.968H177.66V297.2Z" fill="black"/>
<path d="M188.419 302.552H184.531V297.2H179.851V314H187.795C192.163 314 194.875 311.96 194.875 308.024C194.875 304.352 192.499 302.552 188.419 302.552ZM187.483 310.592H184.531V305.936H187.483C189.091 305.936 190.099 306.536 190.099 308.12C190.099 309.704 189.067 310.592 187.483 310.592Z" fill="black"/>
<path d="M224.937 305.552C224.937 301.16 221.889 298.52 216.201 298.136V296.408H211.857V298.136C206.169 298.568 203.121 301.16 203.121 305.552C203.121 309.92 206.169 312.536 211.857 312.944V314.792H216.201V312.944C221.913 312.608 224.937 309.92 224.937 305.552ZM216.201 309.248V301.856C218.985 302.168 220.329 303.32 220.329 305.528C220.329 307.736 219.057 308.936 216.201 309.248ZM207.729 305.552C207.729 303.32 208.977 302.192 211.857 301.856V309.224C209.145 308.888 207.729 307.76 207.729 305.552Z" fill="black"/>
<path d="M235.662 314.336C241.038 314.336 244.998 310.64 244.998 305.6C244.998 300.56 241.038 296.864 235.662 296.864C230.286 296.864 226.326 300.56 226.326 305.6C226.326 310.64 230.286 314.336 235.662 314.336ZM235.662 310.4C233.118 310.4 231.126 308.504 231.126 305.6C231.126 302.696 233.118 300.8 235.662 300.8C238.206 300.8 240.198 302.696 240.198 305.6C240.198 308.504 238.206 310.4 235.662 310.4Z" fill="black"/>
<path d="M255.218 297.2H247.538V314H252.29V309.608H255.218C259.802 309.608 262.682 307.232 262.682 303.416C262.682 299.576 259.802 297.2 255.218 297.2ZM254.93 305.864H252.29V300.944H254.93C256.898 300.944 257.882 301.856 257.882 303.416C257.882 304.952 256.898 305.864 254.93 305.864Z" fill="black"/>
<path d="M284.371 314L284.323 297.2H280.411L274.651 306.896L268.747 297.2H264.835V314H269.203V305.288L273.523 312.344H275.635L279.955 305.096L279.979 314H284.371Z" fill="black"/>
<path d="M299.273 297.2L295.217 305.312L291.305 297.2H286.289L292.817 309.296C292.193 310.208 291.521 310.592 290.585 310.592C290.081 310.592 289.553 310.496 288.905 310.304L287.777 313.808C288.809 314.216 289.793 314.432 290.753 314.432C293.273 314.432 295.457 312.992 296.945 310.184L303.905 297.2H299.273Z" fill="black"/>
<path d="M92.0422 342H96.5302L103.442 332.16V342H108.122V325.2H103.658L96.7222 335.064V325.2H92.0422V342Z" fill="black"/>
<path d="M122.122 333.264C123.538 332.568 124.426 331.296 124.426 329.712C124.426 326.592 120.826 324.816 116.746 324.816C114.778 324.816 112.69 325.224 110.842 326.112L112.234 329.712C113.674 328.944 115.33 328.56 116.698 328.56C118.354 328.56 119.626 329.136 119.626 330.264C119.626 331.128 118.906 331.68 117.61 331.68H113.698V335.16H117.994C119.338 335.16 120.298 335.592 120.298 336.624C120.298 337.92 118.714 338.592 116.698 338.592C115.162 338.592 113.362 338.208 111.802 337.416L110.386 340.728C112.57 341.832 114.994 342.36 117.226 342.36C121.498 342.36 125.098 340.488 125.098 337.272C125.098 335.424 123.97 333.96 122.122 333.264Z" fill="black"/>
<path d="M134.652 325.2V342H139.332V328.968H145.716V342H150.42V325.2H134.652Z" fill="black"/>
<path d="M154.011 342H158.499L165.411 332.16V342H170.091V325.2H165.627L158.691 335.064V325.2H154.011V342Z" fill="black"/>
<path d="M181.882 342.336C184.978 342.336 187.475 341.208 189.107 339.168L186.083 336.432C185.027 337.704 183.73 338.4 182.122 338.4C179.362 338.4 177.443 336.48 177.443 333.6C177.443 330.72 179.362 328.8 182.122 328.8C183.73 328.8 185.027 329.496 186.083 330.768L189.107 328.032C187.475 325.992 184.978 324.864 181.882 324.864C176.554 324.864 172.643 328.488 172.643 333.6C172.643 338.712 176.554 342.336 181.882 342.336Z" fill="black"/>
<path d="M199.821 330.552H195.933V325.2H191.253V342H199.197C203.565 342 206.277 339.96 206.277 336.024C206.277 332.352 203.901 330.552 199.821 330.552ZM198.885 338.592H195.933V333.936H198.885C200.493 333.936 201.501 334.536 201.501 336.12C201.501 337.704 200.469 338.592 198.885 338.592Z" fill="black"/>
<path d="M228.203 342L228.155 325.2H224.243L218.483 334.896L212.579 325.2H208.667V342H213.035V333.288L217.355 340.344H219.467L223.787 333.096L223.811 342H228.203Z" fill="black"/>
<path d="M244.689 342H249.633L242.193 325.2H237.513L230.097 342H234.945L236.265 338.736H243.369L244.689 342ZM237.657 335.232L239.817 329.856L241.977 335.232H237.657Z" fill="black"/>
<path fill-rule="evenodd" clip-rule="evenodd" d="M38.5416 301.576C38.4666 301.454 38.3707 301.342 38.2563 301.242C37.8986 300.928 37.3601 300.722 36.7152 300.625C36.4442 300.584 36.1543 300.562 35.8512 300.56C35.8352 300.56 35.8192 300.56 35.8032 300.56C35.2589 300.56 34.6689 300.621 34.0652 300.742C33.8865 300.778 33.7066 300.82 33.5263 300.866C33.2853 300.929 33.0436 301 32.8032 301.082C32.3989 301.219 31.9981 301.382 31.6103 301.573C31.5192 301.618 31.4288 301.664 31.3392 301.712L29.9472 298.112C30.5293 297.832 31.1352 297.6 31.7537 297.413C32.7591 297.11 33.7977 296.926 34.8211 296.853C35.1506 296.829 35.4785 296.817 35.8032 296.816C35.8192 296.816 35.8352 296.816 35.8512 296.816C39.493 296.816 42.7524 298.231 43.4105 300.754C43.4897 301.057 43.5312 301.377 43.5312 301.712C43.5312 301.901 43.5186 302.085 43.4941 302.264C43.3918 303.01 43.0821 303.672 42.6086 304.218C42.2403 304.642 41.773 304.996 41.2272 305.264C41.7146 305.448 42.152 305.685 42.5318 305.968C42.6981 306.092 42.8533 306.225 42.9969 306.366C43.6194 306.979 44.0226 307.748 44.1552 308.624C44.187 308.834 44.2032 309.05 44.2032 309.272C44.2032 309.291 44.2031 309.31 44.2028 309.328C44.1841 310.753 43.4549 311.911 42.2738 312.756C41.6584 313.195 40.9203 313.55 40.0962 313.813C38.9707 314.172 37.6847 314.36 36.3312 314.36C36.1563 314.36 35.9802 314.357 35.8032 314.35C35.3057 314.332 34.8004 314.288 34.2922 314.217C33.2699 314.076 32.2353 313.828 31.2258 313.47C30.6365 313.26 30.0558 313.013 29.4912 312.728L30.9072 309.416C30.9756 309.451 31.0446 309.485 31.1139 309.518C31.4476 309.678 31.791 309.819 32.1394 309.943C32.3591 310.021 32.5807 310.092 32.8032 310.155C33.527 310.363 34.2591 310.495 34.9585 310.555C35.2466 310.58 35.5291 310.592 35.8032 310.592C35.9829 310.592 36.1592 310.587 36.3312 310.576C36.5985 310.559 36.8555 310.53 37.0992 310.488C37.8766 310.354 38.5185 310.091 38.9256 309.703C39.0387 309.595 39.1338 309.477 39.2085 309.35C39.2236 309.325 39.2379 309.298 39.2514 309.272C39.3438 309.09 39.3961 308.889 39.4025 308.67C39.4026 308.667 39.4027 308.664 39.4028 308.661C39.4031 308.648 39.4032 308.636 39.4032 308.624C39.4032 308.494 39.388 308.374 39.3588 308.263C39.1555 307.49 38.2741 307.16 37.0992 307.16H32.8032V303.68H36.7152C36.8494 303.68 36.9775 303.674 37.0992 303.662C38.0773 303.569 38.6461 303.111 38.7224 302.426C38.7242 302.41 38.7257 302.394 38.727 302.377C38.7291 302.348 38.7305 302.319 38.731 302.29C38.7311 302.281 38.7312 302.273 38.7312 302.264C38.7312 302.062 38.6905 301.878 38.6143 301.712C38.5928 301.665 38.5686 301.62 38.5416 301.576ZM27.8032 305.247C27.3162 304.76 26.9297 304.172 26.6757 303.515L25.2837 299.915C24.343 297.482 25.4306 294.735 27.7816 293.605C30.3884 292.353 33.2315 291.816 35.8512 291.816C38.5286 291.816 41.3905 292.385 43.7667 293.79C45.0309 294.538 46.2528 295.601 47.1426 296.975L47.9345 295.181C48.7343 293.369 50.5282 292.2 52.5087 292.2H57.1887C59.167 292.2 60.9594 293.366 61.7604 295.175L61.8749 295.434C62.5886 293.544 64.4143 292.2 66.5539 292.2H82.3219C83.8947 292.2 85.2978 292.926 86.2144 294.061C88.5023 292.651 91.2451 291.864 94.1693 291.864C97.6093 291.864 100.798 292.953 103.291 294.865C104.131 293.276 105.8 292.2 107.713 292.2H121.249C121.883 292.2 122.489 292.318 123.046 292.533C123.604 292.318 124.21 292.2 124.843 292.2H129.595C130.831 292.2 131.962 292.648 132.835 293.392C133.708 292.648 134.839 292.2 136.075 292.2H140.827C141.463 292.2 142.072 292.319 142.632 292.536C143.192 292.319 143.8 292.2 144.437 292.2H149.117C150.463 292.2 151.686 292.732 152.585 293.598C153.508 292.71 154.747 292.2 156.053 292.2H160.517C160.889 292.2 161.252 292.241 161.601 292.318C161.949 292.241 162.312 292.2 162.684 292.2H177.66C178.037 292.2 178.403 292.242 178.756 292.32C179.108 292.242 179.475 292.2 179.851 292.2H184.531C187.292 292.2 189.531 294.439 189.531 297.2V297.586C191.885 297.735 194.341 298.392 196.355 300.051C197.237 300.777 197.934 301.611 198.468 302.518C199.012 300.236 200.207 298.172 202.12 296.548C203.702 295.204 205.582 294.325 207.598 293.787C208.479 292.36 210.057 291.408 211.857 291.408H216.201C217.993 291.408 219.564 292.35 220.447 293.766C222.185 294.224 223.821 294.939 225.252 295.987C227.881 293.385 231.596 291.864 235.662 291.864C238.594 291.864 241.344 292.656 243.636 294.074C244.552 292.931 245.96 292.2 247.538 292.2H255.218C257.377 292.2 259.537 292.588 261.47 293.502C262.358 292.693 263.539 292.2 264.835 292.2H268.747C270.492 292.2 272.11 293.109 273.018 294.6L274.598 297.195L276.113 294.646C277.014 293.13 278.647 292.2 280.411 292.2H284.323C284.66 292.2 284.99 292.233 285.308 292.297C285.628 292.233 285.956 292.2 286.289 292.2H291.305C292.887 292.2 294.355 292.947 295.289 294.178C296.223 292.946 297.691 292.2 299.273 292.2H303.905C305.663 292.2 307.292 293.123 308.195 294.632C309.098 296.141 309.142 298.013 308.311 299.562L301.363 312.525C301.361 312.529 301.359 312.532 301.357 312.536C299.21 316.58 295.526 319.432 290.753 319.432C289.178 319.432 287.695 319.106 286.322 318.604C285.711 318.863 285.048 319 284.371 319H279.979C278.487 319 277.147 318.346 276.23 317.308C276.034 317.332 275.836 317.344 275.635 317.344H273.523C273.33 317.344 273.139 317.333 272.95 317.311C272.034 318.347 270.695 319 269.203 319H264.835C262.074 319 259.835 316.761 259.835 314V313.942C259.002 314.201 258.14 314.38 257.267 314.486C257.022 317.019 254.888 319 252.29 319H247.538C245.96 319 244.552 318.269 243.636 317.126C241.344 318.544 238.594 319.336 235.662 319.336C231.569 319.336 227.831 317.794 225.199 315.16C223.802 316.172 222.211 316.868 220.518 317.316C219.651 318.797 218.042 319.792 216.201 319.792H211.857C210.002 319.792 208.383 318.781 207.52 317.281C205.532 316.743 203.681 315.87 202.12 314.544C200.983 313.578 200.099 312.457 199.455 311.227C198.911 313.195 197.829 314.974 196.14 316.357C193.723 318.336 190.675 319 187.795 319H179.851C178.404 319 177.101 318.385 176.188 317.403C175.275 318.385 173.971 319 172.524 319H167.844C166.397 319 165.094 318.385 164.181 317.402C163.268 318.385 161.964 319 160.517 319H155.837C154.496 319 153.279 318.472 152.381 317.613C151.459 318.495 150.225 319 148.925 319H144.437C143.8 319 143.192 318.881 142.632 318.664C142.072 318.881 141.463 319 140.827 319H136.075C134.839 319 133.708 318.551 132.835 317.808C131.962 318.551 130.831 319 129.595 319H124.843C124.21 319 123.604 318.882 123.046 318.667C122.489 318.882 121.883 319 121.249 319H116.569C114.935 319 113.484 318.216 112.571 317.003C112.316 317.231 112.043 317.449 111.749 317.654C110.067 318.83 108.158 319.288 106.273 319.288C105.142 319.288 104.019 319.122 102.935 318.859C102.159 318.671 101.463 318.308 100.886 317.819C98.8732 318.8 96.583 319.336 94.1693 319.336C91.2451 319.336 88.5023 318.549 86.2144 317.139C85.2978 318.274 83.8947 319 82.3219 319H77.6179C76.4044 319 75.2919 318.568 74.4259 317.849C73.56 318.568 72.4475 319 71.2339 319H66.5539C66.2239 319 65.9013 318.968 65.5891 318.907C65.2758 318.968 64.9544 319 64.6287 319H59.6847C57.6471 319 55.8133 317.764 55.0494 315.875L54.9934 315.736H54.632L54.576 315.875C53.8121 317.764 51.9783 319 49.9407 319H45.0927C44.1592 319 43.2607 318.74 42.4877 318.268C40.5328 319.033 38.3905 319.36 36.3312 319.36C33.3498 319.36 30.1489 318.663 27.2355 317.19C24.8819 316.001 23.857 313.187 24.8938 310.762L26.3098 307.45C26.6404 306.677 27.1569 306.008 27.8032 305.496V305.247ZM64.6287 314L57.1887 297.2H52.5087L45.0927 314H49.9407L51.2607 310.736H58.3647L59.6847 314H64.6287ZM52.6527 307.232L54.8127 301.856L56.9727 307.232H52.6527ZM71.2339 314V300.968H77.6179V314H82.3219V297.2H66.5539V314H71.2339ZM116.569 314H121.249V297.2H107.713L107.473 303.896C107.451 304.498 107.422 305.068 107.383 305.6C107.241 307.52 106.957 308.952 106.273 309.669C106.002 309.954 105.668 310.126 105.255 310.172C105.185 310.179 105.113 310.183 105.038 310.184C105.034 310.184 105.03 310.184 105.025 310.184C104.809 310.184 104.593 310.16 104.377 310.112L104.113 314C104.429 314.076 104.733 314.138 105.025 314.184C105.175 314.207 105.323 314.227 105.467 314.242C105.747 314.273 106.016 314.288 106.273 314.288C106.614 314.288 106.933 314.262 107.233 314.212C108.005 314.081 108.643 313.785 109.17 313.335C110.76 311.981 111.343 309.237 111.569 305.467C111.597 305.011 111.619 304.54 111.637 304.054C111.637 304.051 111.637 304.048 111.637 304.045C111.642 303.932 111.646 303.818 111.649 303.704L111.745 300.968H116.569V314ZM87.3219 311.701C88.9927 313.35 91.392 314.336 94.1693 314.336C96.0417 314.336 97.7423 313.888 99.1636 313.09C100.508 312.336 101.603 311.27 102.357 309.975C103.094 308.709 103.505 307.224 103.505 305.6C103.505 305.592 103.505 305.585 103.505 305.577C103.505 305.447 103.502 305.318 103.497 305.19C103.475 304.694 103.415 304.212 103.318 303.747C103.318 303.744 103.317 303.741 103.317 303.738C103.157 302.971 102.898 302.249 102.553 301.582C101.068 298.714 97.9733 296.864 94.1693 296.864C91.392 296.864 88.9927 297.85 87.3219 299.499C85.7587 301.041 84.8333 303.164 84.8333 305.6C84.8333 308.036 85.7587 310.159 87.3219 311.701ZM136.075 314H140.827V297.2H136.075V303.512H129.595V297.2H124.843V314H129.595V307.448H136.075V314ZM155.837 314H160.517V297.2H156.053L149.117 307.064V297.2H144.437V314H148.925L155.837 304.16V314ZM167.844 314H172.524V300.968H177.66V297.2H162.684V300.968H167.844V314ZM179.851 314H187.795C192.127 314 194.83 311.993 194.874 308.12C194.875 308.088 194.875 308.056 194.875 308.024C194.875 304.352 192.499 302.552 188.419 302.552H184.531V297.2H179.851V314ZM184.531 310.592H187.483C187.589 310.592 187.693 310.588 187.795 310.58C188.532 310.522 189.129 310.255 189.531 309.801C189.896 309.389 190.099 308.823 190.099 308.12C190.099 308.088 190.098 308.056 190.098 308.024C190.08 307.365 189.881 306.884 189.531 306.551C189.251 306.285 188.875 306.113 188.419 306.02C188.136 305.963 187.823 305.936 187.483 305.936H184.531V310.592ZM211.857 314.792H216.201V312.944C216.336 312.936 216.47 312.927 216.602 312.916C216.688 312.909 216.773 312.902 216.857 312.894C219.205 312.673 221.061 312.028 222.399 311.012C224.063 309.749 224.925 307.911 224.937 305.6C224.937 305.584 224.937 305.568 224.937 305.552C224.937 305.544 224.937 305.536 224.937 305.528C224.931 303.211 224.075 301.383 222.428 300.119C221.086 299.089 219.218 298.433 216.857 298.191C216.777 298.183 216.696 298.175 216.615 298.168C216.478 298.156 216.341 298.145 216.201 298.136V296.408H211.857V298.136C211.712 298.147 211.569 298.159 211.428 298.173C211.352 298.181 211.276 298.188 211.202 298.197C205.935 298.774 203.121 301.332 203.121 305.552C203.121 309.749 205.935 312.329 211.202 312.886C211.268 312.893 211.334 312.9 211.401 312.906C211.551 312.92 211.703 312.933 211.857 312.944V314.792ZM216.857 309.156C216.711 309.181 216.56 309.204 216.404 309.224C216.337 309.232 216.27 309.24 216.201 309.248V301.856C216.43 301.882 216.648 301.913 216.857 301.95C219.197 302.364 220.329 303.501 220.329 305.528C220.329 305.536 220.329 305.544 220.329 305.552C220.321 307.568 219.243 308.739 216.857 309.156ZM211.857 301.856C211.628 301.883 211.41 301.914 211.201 301.951C208.787 302.378 207.729 303.497 207.729 305.552C207.729 307.574 208.917 308.691 211.201 309.122C211.411 309.162 211.629 309.196 211.857 309.224V301.856ZM228.524 311.4C230.2 313.229 232.719 314.336 235.662 314.336C238.455 314.336 240.866 313.338 242.538 311.672C244.084 310.132 244.998 308.021 244.998 305.6C244.998 303.179 244.084 301.068 242.538 299.528C240.866 297.862 238.455 296.864 235.662 296.864C232.738 296.864 230.232 297.957 228.556 299.766C227.159 301.271 226.337 303.273 226.326 305.552C226.326 305.568 226.326 305.584 226.326 305.6C226.326 307.881 227.137 309.887 228.524 311.4ZM247.538 314H252.29V309.608H255.218C257.057 309.608 258.621 309.226 259.835 308.522C261.649 307.471 262.682 305.702 262.682 303.416C262.682 301.116 261.649 299.341 259.835 298.287C258.621 297.582 257.057 297.2 255.218 297.2H247.538V314ZM252.29 305.864H254.93C255.029 305.864 255.125 305.862 255.218 305.857C256.157 305.812 256.848 305.54 257.29 305.078C257.685 304.667 257.882 304.104 257.882 303.416C257.882 302.717 257.685 302.149 257.29 301.734C256.848 301.268 256.157 300.996 255.218 300.951C255.125 300.946 255.029 300.944 254.93 300.944H252.29V305.864ZM264.835 314H269.203V305.288L273.523 312.344H275.635L279.955 305.096L279.979 314H284.371V313.988L284.323 297.2H280.411L274.651 306.896L268.747 297.2H264.835V314ZM289.136 310.37C289.06 310.349 288.983 310.327 288.905 310.304L287.777 313.808C287.803 313.819 287.83 313.829 287.857 313.839C287.995 313.893 288.132 313.943 288.268 313.989C288.531 314.078 288.792 314.155 289.049 314.218C289.154 314.243 289.259 314.267 289.363 314.288C289.776 314.371 290.182 314.419 290.585 314.43C290.641 314.431 290.697 314.432 290.753 314.432C291.522 314.432 292.261 314.298 292.957 314.031C294.14 313.578 295.203 312.745 296.096 311.54C296.399 311.13 296.683 310.678 296.945 310.184L303.905 297.2H299.273L295.217 305.312L291.305 297.2H286.289L292.817 309.296C292.748 309.396 292.679 309.49 292.609 309.578C292.08 310.239 291.503 310.548 290.753 310.588C290.698 310.591 290.642 310.592 290.585 310.592C290.53 310.592 290.476 310.591 290.421 310.589C290.091 310.575 289.746 310.522 289.361 310.428C289.287 310.41 289.212 310.391 289.136 310.37ZM94.1692 305.4C94.1691 305.4 94.1692 305.4 94.1692 305.4C94.178 305.401 94.2196 305.406 94.2832 305.432C94.3647 305.465 94.4522 305.521 94.5275 305.599C94.5279 305.599 94.5284 305.6 94.5288 305.6C94.5284 305.6 94.5279 305.601 94.5275 305.601C94.4522 305.678 94.3647 305.735 94.2832 305.768C94.2196 305.794 94.1782 305.799 94.1693 305.8C94.1605 305.799 94.1191 305.794 94.0554 305.768C93.974 305.735 93.8864 305.678 93.8112 305.601C93.8107 305.601 93.8103 305.6 93.8099 305.6C93.8103 305.6 93.8107 305.599 93.8112 305.599C93.8864 305.521 93.974 305.465 94.0554 305.432C94.1187 305.406 94.16 305.401 94.1692 305.4ZM235.775 305.432C235.712 305.406 235.67 305.401 235.662 305.4C235.661 305.4 235.662 305.4 235.662 305.4M235.302 305.6C235.302 305.6 235.303 305.599 235.303 305.599C235.379 305.521 235.466 305.465 235.548 305.432C235.61 305.406 235.651 305.401 235.662 305.4M235.775 305.432C235.857 305.465 235.944 305.521 236.02 305.599ZM236.02 305.599C236.02 305.599 236.021 305.6 236.021 305.6ZM236.021 305.6C236.021 305.6 236.02 305.601 236.02 305.601ZM236.02 305.601C235.944 305.678 235.857 305.735 235.775 305.768ZM235.775 305.768C235.712 305.794 235.67 305.799 235.662 305.8ZM235.662 305.8C235.653 305.799 235.611 305.794 235.548 305.768ZM235.548 305.768C235.466 305.735 235.379 305.678 235.303 305.601ZM235.303 305.601C235.303 305.601 235.302 305.6 235.302 305.6ZM92.0422 347C89.2808 347 87.0422 344.761 87.0422 342V325.2C87.0422 322.439 89.2808 320.2 92.0422 320.2H96.7222C98.0689 320.2 99.2912 320.732 100.19 321.598C101.113 320.71 102.353 320.2 103.658 320.2H108.122C109.008 320.2 109.839 320.43 110.561 320.834C112.616 320.129 114.746 319.816 116.746 319.816C119.423 319.816 122.285 320.385 124.661 321.79C127.124 323.247 129.426 325.9 129.426 329.712C129.426 330.796 129.24 331.811 128.903 332.74C129.206 333.263 129.458 333.822 129.652 334.414V325.2C129.652 322.439 131.89 320.2 134.652 320.2H150.42C151.053 320.2 151.658 320.318 152.215 320.532C152.773 320.318 153.378 320.2 154.011 320.2H158.691C160.038 320.2 161.26 320.732 162.159 321.598C163.082 320.71 164.322 320.2 165.627 320.2H170.091C171.657 320.2 173.055 320.92 173.971 322.047C176.242 320.644 178.968 319.864 181.882 319.864C184.143 319.864 186.312 320.302 188.257 321.196C189.092 320.571 190.129 320.2 191.253 320.2H195.933C198.695 320.2 200.933 322.439 200.933 325.2V325.586C201.84 325.644 202.761 325.777 203.667 326.013V325.2C203.667 322.439 205.906 320.2 208.667 320.2H212.579C214.324 320.2 215.942 321.109 216.85 322.6L218.43 325.195L219.945 322.646C220.846 321.13 222.479 320.2 224.243 320.2H228.155C230.291 320.2 232.115 321.539 232.831 323.425L232.938 323.181C233.738 321.369 235.532 320.2 237.513 320.2H242.193C244.171 320.2 245.963 321.366 246.764 323.175L254.204 339.975C254.889 341.522 254.746 343.31 253.823 344.727C252.901 346.145 251.324 347 249.633 347H244.689C242.651 347 240.817 345.764 240.053 343.875L239.997 343.736H239.636L239.58 343.875C238.816 345.764 236.982 347 234.945 347H230.097C229.776 347 229.459 346.969 229.15 346.91C228.84 346.969 228.523 347 228.203 347H223.811C222.319 347 220.979 346.346 220.062 345.308C219.866 345.332 219.668 345.344 219.467 345.344H217.355C217.162 345.344 216.971 345.333 216.782 345.311C215.866 346.347 214.527 347 213.035 347H208.667C207.394 347 206.231 346.524 205.348 345.74C203.407 346.66 201.259 347 199.197 347H191.253C190.129 347 189.092 346.629 188.257 346.003C186.312 346.897 184.143 347.336 181.882 347.336C178.968 347.336 176.242 346.556 173.971 345.153C173.055 346.28 171.657 347 170.091 347H165.411C164.07 347 162.853 346.472 161.955 345.613C161.033 346.495 159.799 347 158.499 347H154.011C153.378 347 152.773 346.882 152.215 346.668C151.658 346.882 151.053 347 150.42 347H145.716C144.502 347 143.39 346.568 142.524 345.849C141.658 346.568 140.545 347 139.332 347H134.652C131.89 347 129.652 344.761 129.652 342V340.096C128.879 342.432 127.198 344.18 125.357 345.297C122.939 346.764 120.007 347.36 117.226 347.36C115.106 347.36 112.876 347.008 110.717 346.275C109.96 346.735 109.072 347 108.122 347H103.442C102.102 347 100.884 346.472 99.9863 345.613C99.0648 346.495 97.83 347 96.5302 347H92.0422ZM103.442 342H108.122V325.2H103.658L96.7222 335.064V325.2H92.0422V342H96.5302L103.442 332.16V342ZM113.698 335.16H117.994C119.169 335.16 120.05 335.49 120.253 336.263C120.283 336.374 120.298 336.494 120.298 336.624C120.298 336.636 120.298 336.648 120.297 336.661C120.297 336.664 120.297 336.667 120.297 336.67C120.291 336.889 120.238 337.09 120.146 337.272C120.132 337.298 120.118 337.325 120.103 337.35C120.028 337.477 119.933 337.595 119.82 337.703C119.413 338.091 118.771 338.354 117.994 338.488C117.75 338.53 117.493 338.559 117.226 338.576C117.054 338.587 116.877 338.592 116.698 338.592C116.424 338.592 116.141 338.58 115.853 338.555C115.154 338.495 114.422 338.363 113.698 338.155C113.505 338.1 113.313 338.04 113.122 337.974C113.093 337.964 113.063 337.953 113.034 337.943C112.686 337.819 112.342 337.678 112.008 337.518C111.939 337.485 111.87 337.451 111.802 337.416L110.386 340.728C110.95 341.013 111.531 341.26 112.12 341.47C112.452 341.587 112.786 341.693 113.122 341.787C113.808 341.979 114.5 342.122 115.187 342.217C115.695 342.288 116.2 342.332 116.698 342.35C116.875 342.357 117.051 342.36 117.226 342.36C121.473 342.36 125.056 340.51 125.097 337.328C125.098 337.31 125.098 337.291 125.098 337.272C125.098 337.05 125.081 336.834 125.05 336.624C124.887 335.545 124.314 334.63 123.426 333.968C123.047 333.685 122.609 333.448 122.122 333.264C122.668 332.996 123.135 332.642 123.503 332.218C123.977 331.672 124.286 331.01 124.389 330.264C124.413 330.085 124.426 329.901 124.426 329.712C124.426 329.377 124.384 329.057 124.305 328.754C123.647 326.231 120.388 324.816 116.746 324.816C116.73 324.816 116.714 324.816 116.698 324.816C116.373 324.817 116.045 324.829 115.716 324.853C114.852 324.915 113.978 325.055 113.122 325.28C112.964 325.321 112.805 325.366 112.648 325.413C112.03 325.6 111.424 325.832 110.842 326.112L112.234 329.712C112.323 329.664 112.414 329.618 112.505 329.573C112.708 329.473 112.914 329.381 113.122 329.296C113.313 329.219 113.505 329.147 113.698 329.082C113.938 329 114.18 328.929 114.421 328.866C114.601 328.82 114.781 328.778 114.96 328.742C115.563 328.621 116.153 328.56 116.698 328.56C116.714 328.56 116.73 328.56 116.746 328.56C117.049 328.562 117.339 328.584 117.61 328.625C118.255 328.722 118.793 328.928 119.151 329.242C119.265 329.342 119.361 329.454 119.436 329.576C119.463 329.62 119.487 329.665 119.509 329.712C119.585 329.878 119.626 330.062 119.626 330.264C119.626 330.273 119.626 330.281 119.626 330.29C119.625 330.319 119.624 330.348 119.621 330.377C119.62 330.394 119.619 330.41 119.617 330.426C119.541 331.111 118.972 331.569 117.994 331.662C117.872 331.674 117.744 331.68 117.61 331.68H113.698V335.16ZM145.716 342H150.42V325.2H134.652V342H139.332V328.968H145.716V342ZM165.411 342H170.091V325.2H165.627L158.691 335.064V325.2H154.011V342H158.499L165.411 332.16V342ZM191.253 342H199.197C200.991 342 202.505 341.656 203.667 340.978C205.312 340.018 206.251 338.39 206.277 336.12C206.277 336.088 206.277 336.056 206.277 336.024C206.277 333.734 205.353 332.172 203.667 331.32C202.65 330.807 201.356 330.552 199.821 330.552H195.933V325.2H191.253V342ZM195.933 338.592H198.885C198.992 338.592 199.096 338.588 199.197 338.58C199.934 338.522 200.532 338.255 200.933 337.801C201.298 337.389 201.501 336.823 201.501 336.12C201.501 336.088 201.501 336.056 201.5 336.024C201.482 335.365 201.283 334.884 200.933 334.551C200.653 334.285 200.277 334.113 199.821 334.02C199.539 333.963 199.225 333.936 198.885 333.936H195.933V338.592ZM175.091 339.717C176.744 341.364 179.123 342.336 181.882 342.336C181.963 342.336 182.043 342.335 182.122 342.334C183.059 342.316 183.938 342.193 184.753 341.972C185.281 341.829 185.781 341.645 186.253 341.421C187.075 341.031 187.809 340.521 188.445 339.899C188.679 339.67 188.9 339.427 189.106 339.168L186.082 336.432C186.029 336.496 185.976 336.559 185.921 336.62C185.842 336.708 185.762 336.794 185.68 336.876C184.702 337.865 183.532 338.4 182.122 338.4C182.042 338.4 181.962 338.398 181.882 338.395C179.252 338.287 177.442 336.396 177.442 333.6C177.442 330.804 179.252 328.913 181.882 328.805C181.962 328.802 182.042 328.8 182.122 328.8C183.532 328.8 184.702 329.335 185.68 330.324C185.762 330.406 185.842 330.492 185.921 330.58C185.976 330.641 186.029 330.704 186.082 330.768L189.106 328.032C188.9 327.773 188.679 327.529 188.445 327.301C187.809 326.679 187.075 326.169 186.253 325.779C185.781 325.555 185.281 325.371 184.753 325.228C183.938 325.007 183.059 324.884 182.122 324.866C182.043 324.865 181.963 324.864 181.882 324.864C179.123 324.864 176.744 325.836 175.091 327.483C173.552 329.016 172.642 331.135 172.642 333.6C172.642 336.065 173.552 338.184 175.091 339.717ZM213.035 342V333.288L217.355 340.344H219.467L223.787 333.096L223.811 342H228.203V341.988L228.155 325.2H224.243L218.483 334.896L212.579 325.2H208.667V342H213.035ZM242.193 325.2H237.513L230.097 342H234.945L236.265 338.736H243.369L244.689 342H249.633L242.193 325.2ZM239.817 329.856L237.657 335.232H241.977L239.817 329.856ZM89.6333 305.6C89.6333 308.504 91.6253 310.4 94.1693 310.4C96.7133 310.4 98.7053 308.504 98.7053 305.6C98.7053 302.696 96.7133 300.8 94.1693 300.8C91.6253 300.8 89.6333 302.696 89.6333 305.6ZM231.126 305.6C231.126 308.504 233.118 310.4 235.662 310.4C238.206 310.4 240.198 308.504 240.198 305.6C240.198 302.696 238.206 300.8 235.662 300.8C233.118 300.8 231.126 302.696 231.126 305.6Z" fill="white"/>
<rect x="16" y="397" width="125" height="43" rx="13" fill="white"/>
<rect x="195" y="397" width="125" height="43" rx="13" fill="white"/>
<path d="M252 5C252 26.7477 243.361 47.6048 227.983 62.9828C212.605 78.3607 191.748 87 170 87C148.252 87 127.395 78.3607 112.017 62.9828C96.6393 47.6048 88 26.7478 88 5.00002L170 5H252Z" fill="white"/>
<path d="M48.032 423.216C48.032 414.96 35.328 417.52 35.328 414.096C35.328 412.976 36.288 412.08 38.944 412.08C40.896 412.08 43.008 412.656 45.152 413.808L47.104 409.104C45.312 408.048 42.976 407.408 40.608 407.216V403.76H36.768V407.28C31.584 407.92 29.056 410.896 29.056 414.416C29.056 422.736 41.792 420.144 41.792 423.696C41.792 424.784 40.768 425.52 38.144 425.52C35.552 425.52 32.736 424.624 30.752 423.312L28.672 427.984C30.528 429.264 33.568 430.192 36.768 430.416V433.84H40.608V430.288C45.6 429.552 48.032 426.608 48.032 423.216Z" fill="#00BCBC"/>
<path d="M71.78 426.24C75.24 426.24 77.78 423.62 77.78 419C77.78 414.38 75.24 411.76 71.78 411.76C68.34 411.76 65.78 414.38 65.78 419C65.78 423.62 68.34 426.24 71.78 426.24ZM71.78 423.5C70.18 423.5 69.06 422.18 69.06 419C69.06 415.82 70.18 414.5 71.78 414.5C73.4 414.5 74.52 415.82 74.52 419C74.52 422.18 73.4 423.5 71.78 423.5ZM80.9603 422.28C79.8603 422.28 79.0203 423.04 79.0203 424.2C79.0203 425.02 79.4403 425.64 80.1003 425.9L79.2203 429.08H81.2003L82.3403 426.2C82.8003 425.1 82.8803 424.72 82.8803 424.2C82.8803 423.06 82.0803 422.28 80.9603 422.28ZM90.0808 426.24C93.5408 426.24 96.0808 423.62 96.0808 419C96.0808 414.38 93.5408 411.76 90.0808 411.76C86.6408 411.76 84.0808 414.38 84.0808 419C84.0808 423.62 86.6408 426.24 90.0808 426.24ZM90.0808 423.5C88.4808 423.5 87.3608 422.18 87.3608 419C87.3608 415.82 88.4808 414.5 90.0808 414.5C91.7008 414.5 92.8208 415.82 92.8208 419C92.8208 422.18 91.7008 423.5 90.0808 423.5ZM103.655 426.24C107.115 426.24 109.655 423.62 109.655 419C109.655 414.38 107.115 411.76 103.655 411.76C100.215 411.76 97.655 414.38 97.655 419C97.655 423.62 100.215 426.24 103.655 426.24ZM103.655 423.5C102.055 423.5 100.935 422.18 100.935 419C100.935 415.82 102.055 414.5 103.655 414.5C105.275 414.5 106.395 415.82 106.395 419C106.395 422.18 105.275 423.5 103.655 423.5Z" fill="black"/>
<g filter="url(#filter0_di)">
<path d="M141.548 221.202H150.234V229.889H141.548V221.202Z" fill="white"/>
<path d="M196.799 156.581H220.773L190.419 126.227V150.202C190.419 153.719 193.281 156.581 196.799 156.581V156.581Z" fill="white"/>
<path d="M141.548 188.621H150.234V197.308H141.548V188.621Z" fill="white"/>
<path d="M196.799 164.185C189.088 164.185 182.815 157.912 182.815 150.202V124H131.636C123.926 124 117.653 130.273 117.653 137.984V239.8C117.653 247.51 123.926 253.783 131.636 253.783H209.016C216.727 253.783 223 247.51 223 239.8V164.185H196.799ZM186.617 181.017C188.717 181.017 190.419 182.719 190.419 184.819C190.419 186.919 188.717 188.621 186.617 188.621H170.327C168.227 188.621 166.524 186.919 166.524 184.819C166.524 182.719 168.227 181.017 170.327 181.017H186.617ZM137.746 144.363H158.109C160.209 144.363 161.911 146.065 161.911 148.165C161.911 150.265 160.209 151.968 158.109 151.968H137.746C135.646 151.968 133.943 150.265 133.943 148.165C133.943 146.065 135.646 144.363 137.746 144.363ZM137.746 160.654H170.327C172.426 160.654 174.129 162.356 174.129 164.456C174.129 166.556 172.426 168.258 170.327 168.258H137.746C135.646 168.258 133.943 166.556 133.943 164.456C133.943 162.356 135.646 160.654 137.746 160.654V160.654ZM157.838 233.691C157.838 235.79 156.136 237.493 154.036 237.493H137.746C135.646 237.493 133.943 235.79 133.943 233.691V217.4C133.943 215.3 135.646 213.598 137.746 213.598H154.036C156.136 213.598 157.838 215.3 157.838 217.4V233.691ZM157.838 201.11C157.838 203.209 156.136 204.912 154.036 204.912H137.746C135.646 204.912 133.943 203.209 133.943 201.11V184.819C133.943 182.719 135.646 181.017 137.746 181.017H154.036C156.136 181.017 157.838 182.719 157.838 184.819V201.11ZM202.908 237.493H170.327C168.227 237.493 166.524 235.79 166.524 233.691C166.524 231.591 168.227 229.888 170.327 229.888H202.908C205.007 229.888 206.71 231.591 206.71 233.691C206.71 235.79 205.007 237.493 202.908 237.493V237.493ZM166.524 217.4C166.524 215.3 168.227 213.598 170.327 213.598H186.617C188.717 213.598 190.419 215.3 190.419 217.4C190.419 219.5 188.717 221.203 186.617 221.203H170.327C168.227 221.203 166.524 219.5 166.524 217.4V217.4ZM202.908 204.912H170.327C168.227 204.912 166.524 203.209 166.524 201.11C166.524 199.01 168.227 197.307 170.327 197.307H202.908C205.007 197.307 206.71 199.01 206.71 201.11C206.71 203.209 205.007 204.912 202.908 204.912V204.912Z" fill="white"/>
</g>
<path d="M235.14 412V414.6H237.94V426H241.18V412H235.14ZM249.612 426.24C253.072 426.24 255.612 423.62 255.612 419C255.612 414.38 253.072 411.76 249.612 411.76C246.172 411.76 243.612 414.38 243.612 419C243.612 423.62 246.172 426.24 249.612 426.24ZM249.612 423.5C248.012 423.5 246.892 422.18 246.892 419C246.892 415.82 248.012 414.5 249.612 414.5C251.232 414.5 252.352 415.82 252.352 419C252.352 422.18 251.232 423.5 249.612 423.5ZM276.89 426L276.85 415.24H273.93L270.27 421.46L266.83 415.24H263.57V426H266.39V419.54L269.53 424.96H270.85L274.07 419.56V426H276.89ZM279.879 426H282.759L287.979 419.6V426H291.079V415.24H288.219L282.979 421.64V415.24H279.879V426ZM294.078 426H297.178V421.98H301.858V426H304.978V415.24H301.858V419.44H297.178V415.24H294.078V426Z" fill="black"/>
<path d="M216.5 406C209.595 406 204 411.595 204 418.5C204 425.405 209.595 431 216.5 431C223.405 431 229 425.405 229 418.5C229 411.595 223.405 406 216.5 406Z" fill="#00BCBC"/>
<path fill-rule="evenodd" clip-rule="evenodd" d="M215.961 410C214.878 410 214 410.878 214 411.961V419.153C214 419.311 214.019 419.464 214.054 419.611C214.047 420.263 214.376 420.901 214.974 421.262L220.414 424.535C221.313 425.077 222.481 424.786 223.022 423.887C223.563 422.988 223.273 421.82 222.374 421.279L217.923 418.6V411.961C217.923 410.878 217.045 410 215.961 410Z" fill="white"/>
<g filter="url(#filter1_d)">
<path d="M162.531 400.393L185.975 433.213C179.766 434.57 168.698 428.331 168.698 428.331C168.698 428.331 160.834 438.706 154.912 440L162.531 400.393Z" fill="white"/>
<path fill-rule="evenodd" clip-rule="evenodd" d="M154.912 440L158.469 421.51C161.522 424.284 164.956 426.604 168.698 428.331C168.698 428.331 160.834 438.706 154.912 440Z" fill="#BBFFF9"/>
</g>
<path d="M139.785 25.4V34.274H147.325V66H158.809V25.4H139.785ZM183.533 56.894L191.189 49.818C196.989 44.482 198.091 40.886 198.091 36.942C198.091 29.402 191.653 24.588 182.315 24.588C174.311 24.588 168.569 27.952 165.495 33.056L174.021 37.812C175.645 35.202 178.313 33.868 181.271 33.868C184.751 33.868 186.491 35.434 186.491 38.044C186.491 39.726 186.027 41.582 182.779 44.598L167.583 58.808V66H199.193V56.894H183.533Z" fill="#46BBCE"/>
<defs>
<filter id="filter0_di" x="114.653" y="121" width="119.347" height="143.783" filterUnits="userSpaceOnUse" color-interpolation-filters="sRGB">
<feFlood flood-opacity="0" result="BackgroundImageFix"/>
<feColorMatrix in="SourceAlpha" type="matrix" values="0 0 0 0 0 0 0 0 0 0 0 0 0 0 0 0 0 0 127 0"/>
<feOffset dx="4" dy="4"/>
<feGaussianBlur stdDeviation="3.5"/>
<feColorMatrix type="matrix" values="0 0 0 0 0.1715 0 0 0 0 0.816667 0 0 0 0 0.816667 0 0 0 1 0"/>
<feBlend mode="normal" in2="BackgroundImageFix" result="effect1_dropShadow"/>
<feBlend mode="normal" in="SourceGraphic" in2="effect1_dropShadow" result="shape"/>
<feColorMatrix in="SourceAlpha" type="matrix" values="0 0 0 0 0 0 0 0 0 0 0 0 0 0 0 0 0 0 127 0" result="hardAlpha"/>
<feOffset dx="-2" dy="-2"/>
<feGaussianBlur stdDeviation="2.5"/>
<feComposite in2="hardAlpha" operator="arithmetic" k2="-1" k3="1"/>
<feColorMatrix type="matrix" values="0 0 0 0 0.441945 0 0 0 0 0.887146 0 0 0 0 0.895833 0 0 0 0.52 0"/>
<feBlend mode="normal" in2="shape" result="effect2_innerShadow"/>
</filter>
<filter id="filter1_d" x="143" y="393" width="52.975" height="57.0001" filterUnits="userSpaceOnUse" color-interpolation-filters="sRGB">
<feFlood flood-opacity="0" result="BackgroundImageFix"/>
<feColorMatrix in="SourceAlpha" type="matrix" values="0 0 0 0 0 0 0 0 0 0 0 0 0 0 0 0 0 0 127 0"/>
<feOffset dx="3" dy="3"/>
<feGaussianBlur stdDeviation="3.5"/>
<feColorMatrix type="matrix" values="0 0 0 0 0.279 0 0 0 0 0.9 0 0 0 0 0.840225 0 0 0 1 0"/>
<feBlend mode="normal" in2="BackgroundImageFix" result="effect1_dropShadow"/>
<feBlend mode="normal" in="SourceGraphic" in2="effect1_dropShadow" result="shape"/>
</filter>
<linearGradient id="paint0_linear" x1="5.5" y1="-157" x2="289.5" y2="495.5" gradientUnits="userSpaceOnUse">
<stop stop-color="#00C2FF"/>
<stop offset="1" stop-color="#1EE7CF"/>
</linearGradient>
<linearGradient id="paint1_linear" x1="49" y1="11" x2="301.5" y2="474" gradientUnits="userSpaceOnUse">
<stop stop-color="#19D2EB"/>
<stop offset="1" stop-color="#55F5DF"/>
</linearGradient>
<linearGradient id="paint2_linear" x1="59.5" y1="-9" x2="291.5" y2="495.5" gradientUnits="userSpaceOnUse">
<stop stop-color="#00E0FF"/>
<stop offset="1" stop-color="#42F2D1"/>
</linearGradient>
<linearGradient id="paint3_linear" x1="51" y1="11" x2="303.5" y2="474" gradientUnits="userSpaceOnUse">
<stop stop-color="#B2F6FF"/>
<stop offset="1" stop-color="#28D7BE"/>
</linearGradient>
<linearGradient id="paint4_linear" x1="27" y1="473.49" x2="247.084" y2="60.8524" gradientUnits="userSpaceOnUse">
<stop stop-color="#73F5FF"/>
<stop offset="0.99" stop-color="#7AFFEC"/>
</linearGradient>
<linearGradient id="paint5_linear" x1="129.774" y1="288" x2="310" y2="288" gradientUnits="userSpaceOnUse">
<stop stop-color="white"/>
<stop offset="0.99" stop-color="white" stop-opacity="0.4"/>
</linearGradient>
<linearGradient id="paint6_linear" x1="59.8997" y1="86" x2="140" y2="86" gradientUnits="userSpaceOnUse">
<stop stop-color="white"/>
<stop offset="0.99" stop-color="white" stop-opacity="0.4"/>
</linearGradient>
</defs>
</svg>
