<svg width="338" height="474" viewBox="0 0 338 474" fill="none" xmlns="http://www.w3.org/2000/svg">
<rect x="2.5" y="2.5" width="331" height="469" rx="32.5" fill="url(#paint0_linear)" stroke="url(#paint1_linear)" stroke-width="5"/>
<mask id="mask0" mask-type="alpha" maskUnits="userSpaceOnUse" x="2" y="0" width="336" height="474">
<rect x="-2.5" y="2.5" width="331" height="469" rx="41.5" transform="matrix(-1 0 0 1 333 0)" fill="url(#paint2_linear)" stroke="url(#paint3_linear)" stroke-width="5"/>
</mask>
<g mask="url(#mask0)">
<path d="M129.747 5.0093C129.747 5.0093 234.654 47.0947 238.632 101.845C242.609 156.595 219.132 152.615 226.093 185.086C233.053 217.557 347.517 255.616 316.691 356.766C285.865 457.916 188.416 370.584 85 469H301C317.569 469 331 455.569 331 439V35.0014C331 18.4323 317.568 5.00062 300.999 5.00139L129.747 5.0093Z" fill="url(#paint4_linear)" fill-opacity="0.5"/>
</g>
<path opacity="0.46" d="M114.88 323C95.8977 322.976 77.349 317.326 61.5777 306.763C45.8065 296.199 33.5206 281.198 26.2731 263.654C19.0255 246.11 17.1416 226.812 20.8594 208.198C24.5771 189.583 33.7297 172.489 47.1603 159.075C60.591 145.661 77.6967 136.53 96.3156 132.836C114.934 129.141 134.231 131.05 151.765 138.319C169.3 145.589 184.286 157.893 194.829 173.678C205.373 189.462 211 208.018 211 227C210.955 252.468 200.81 276.878 182.79 294.875C164.771 312.873 140.348 322.987 114.88 323ZM114.88 157.396C101.117 157.415 87.6698 161.514 76.2362 169.173C64.8026 176.833 55.8963 187.71 50.643 200.431C45.3896 213.151 44.025 227.143 46.7215 240.638C49.4181 254.133 56.0547 266.527 65.7928 276.251C75.5309 285.976 87.9332 292.595 101.432 295.273C114.931 297.951 128.921 296.567 141.634 291.296C154.347 286.025 165.212 277.104 172.856 265.66C180.5 254.215 184.58 240.762 184.58 227C184.522 208.55 177.154 190.874 164.09 177.846C151.026 164.818 133.33 157.499 114.88 157.493V157.396Z" fill="url(#paint5_linear)" fill-opacity="0.7"/>
<path opacity="0.46" d="M216.95 105C209.041 104.99 201.312 102.636 194.741 98.2344C188.169 93.8331 183.05 87.5825 180.03 80.2726C177.011 72.9627 176.226 64.9216 177.775 57.1657C179.324 49.4097 183.137 42.2871 188.733 36.698C194.33 31.1089 201.457 27.3043 209.215 25.7649C216.973 24.2256 225.013 25.0207 232.319 28.0496C239.625 31.0786 245.869 36.2055 250.262 42.7824C254.655 49.3593 257 57.0909 257 65C256.981 75.6116 252.754 85.7826 245.246 93.2815C237.738 100.78 227.561 104.995 216.95 105ZM216.95 35.9985C211.216 36.0064 205.612 37.7141 200.848 40.9056C196.084 44.0972 192.373 48.6294 190.185 53.9294C187.996 59.2294 187.427 65.0594 188.551 70.6825C189.674 76.3056 192.439 81.4694 196.497 85.5213C200.555 89.5732 205.722 92.3314 211.347 93.4472C216.971 94.5629 222.801 93.9863 228.098 91.79C233.395 89.5938 237.922 85.8766 241.107 81.1082C244.292 76.3398 245.991 70.7342 245.991 65C245.968 57.3124 242.898 49.9477 237.454 44.5193C232.011 39.0908 224.637 36.0412 216.95 36.0386V35.9985Z" fill="url(#paint6_linear)"/>
<path d="M66.7227 314.864C63.6027 314.864 61.0827 315.992 59.4507 318.032L62.4507 320.768C63.5307 319.496 64.8507 318.8 66.4827 318.8C68.4747 318.8 69.9387 319.928 70.4907 321.776H64.4667V325.28H70.5387C70.0107 327.2 68.5227 328.4 66.4827 328.4C64.8507 328.4 63.5307 327.704 62.4507 326.432L59.4507 329.168C61.0827 331.208 63.6027 332.336 66.7227 332.336C71.8827 332.336 75.5787 328.712 75.5787 323.6C75.5787 318.488 71.8827 314.864 66.7227 314.864Z" fill="black"/>
<path d="M92.6429 315.2H77.6669V318.968H82.8269V332H87.5069V318.968H92.6429V315.2Z" fill="black"/>
<path d="M104.055 332.336C109.431 332.336 113.391 328.64 113.391 323.6C113.391 318.56 109.431 314.864 104.055 314.864C98.6791 314.864 94.7191 318.56 94.7191 323.6C94.7191 328.64 98.6791 332.336 104.055 332.336ZM104.055 328.4C101.511 328.4 99.5191 326.504 99.5191 323.6C99.5191 320.696 101.511 318.8 104.055 318.8C106.599 318.8 108.591 320.696 108.591 323.6C108.591 326.504 106.599 328.4 104.055 328.4Z" fill="black"/>
<path d="M125.316 332H133.716C138.084 332 140.652 330.008 140.652 326.6C140.652 323.36 138.42 321.584 134.34 321.584H129.996V318.872H139.356V315.2H125.316V332ZM129.996 328.592V324.968H133.404C135.036 324.968 135.852 325.544 135.852 326.744C135.852 327.944 134.988 328.592 133.404 328.592H129.996Z" fill="black"/>
<path d="M152.873 320.552H148.985V315.2H144.305V332H152.249C156.617 332 159.329 329.96 159.329 326.024C159.329 322.352 156.953 320.552 152.873 320.552ZM161.177 332H165.857V315.2H161.177V332ZM151.937 328.592H148.985V323.936H151.937C153.545 323.936 154.553 324.536 154.553 326.12C154.553 327.704 153.521 328.592 151.937 328.592Z" fill="black"/>
<path d="M172.766 315.2L172.526 321.896C172.382 325.688 172.022 328.184 170.078 328.184C169.862 328.184 169.646 328.16 169.43 328.112L169.166 332C169.958 332.192 170.678 332.288 171.326 332.288C175.598 332.288 176.486 328.256 176.702 321.704L176.798 318.968H181.622V332H186.302V315.2H172.766Z" fill="black"/>
<path d="M207.464 332.336C210.56 332.336 213.056 331.208 214.688 329.168L211.664 326.432C210.608 327.704 209.312 328.4 207.704 328.4C204.944 328.4 203.024 326.48 203.024 323.6C203.024 320.72 204.944 318.8 207.704 318.8C209.312 318.8 210.608 319.496 211.664 320.768L214.688 318.032C213.056 315.992 210.56 314.864 207.464 314.864C202.136 314.864 198.224 318.488 198.224 323.6C198.224 328.712 202.136 332.336 207.464 332.336Z" fill="black"/>
<path d="M218.035 315.2V332H222.715V318.968H229.099V332H233.803V315.2H218.035Z" fill="black"/>
<path d="M251.506 332H256.45L249.01 315.2H244.33L236.914 332H241.762L243.082 328.736H250.186L251.506 332ZM244.474 325.232L246.634 319.856L248.794 325.232H244.474Z" fill="black"/>
<path d="M279.112 332L279.064 315.2H275.152L269.392 324.896L263.488 315.2H259.576V332H263.944V323.288L268.264 330.344H270.376L274.696 323.096L274.72 332H279.112Z" fill="black"/>
<path fill-rule="evenodd" clip-rule="evenodd" d="M56.0815 321.726C54.1339 319.95 53.8997 316.967 55.5464 314.909C58.2813 311.49 62.3488 309.864 66.7228 309.864C69.4305 309.864 71.919 310.553 74.0174 311.782C74.9297 310.808 76.2273 310.2 77.667 310.2H92.643C94.1341 310.2 95.4729 310.853 96.3889 311.888C98.6173 310.587 101.253 309.864 104.055 309.864C111.871 309.864 118.391 315.487 118.391 323.6C118.391 331.713 111.871 337.336 104.055 337.336C99.3612 337.336 95.1346 335.308 92.507 331.93V332C92.507 334.761 90.2684 337 87.507 337H82.827C80.0815 337 77.8528 334.787 77.8272 332.048C75.3334 335.325 71.3477 337.336 66.7228 337.336C62.3488 337.336 58.2813 335.71 55.5464 332.291C53.8997 330.233 54.1339 327.25 56.0815 325.474L58.136 323.6L56.0815 321.726ZM75.5124 324.767C75.5563 324.388 75.5788 323.999 75.5788 323.6C75.5788 323.571 75.5786 323.541 75.5784 323.512C75.5745 323.047 75.54 322.594 75.4764 322.156C75.3881 321.547 75.2438 320.965 75.0482 320.415C74.8666 319.904 74.6408 319.421 74.3743 318.968C73.9182 318.193 73.343 317.508 72.667 316.931C71.1334 315.621 69.0809 314.864 66.7228 314.864C66.6424 314.864 66.5624 314.865 66.4828 314.866C65.529 314.884 64.6331 315.009 63.8036 315.235C62.3737 315.624 61.1412 316.312 60.1493 317.266C59.9012 317.505 59.6681 317.76 59.4508 318.032L62.4508 320.768C62.5079 320.701 62.5658 320.635 62.6243 320.571C62.6805 320.509 62.7373 320.449 62.7948 320.391C63.3005 319.876 63.8556 319.479 64.4668 319.21C65.0802 318.94 65.75 318.8 66.4828 318.8C66.5636 318.8 66.6437 318.802 66.7228 318.806C67.9895 318.865 69.0265 319.394 69.7282 320.28C70.0621 320.702 70.32 321.204 70.4908 321.776H64.4668V325.28H70.5388C70.5236 325.335 70.5076 325.39 70.4908 325.444C70.336 325.943 70.1143 326.39 69.8334 326.776C69.1289 327.745 68.0519 328.332 66.7228 328.394C66.6436 328.398 66.5636 328.4 66.4828 328.4C65.75 328.4 65.0802 328.26 64.4668 327.99C63.8556 327.721 63.3005 327.324 62.7948 326.809C62.7373 326.751 62.6805 326.691 62.6243 326.629C62.5658 326.565 62.5079 326.499 62.4508 326.432L59.4508 329.168C59.6681 329.44 59.9012 329.695 60.1493 329.934C61.1412 330.888 62.3737 331.576 63.8036 331.965C64.6331 332.191 65.529 332.316 66.4828 332.334C66.5624 332.335 66.6424 332.336 66.7228 332.336C70.8231 332.336 73.999 330.048 75.1305 326.543C75.3119 325.981 75.4407 325.388 75.5124 324.767ZM82.827 332H87.507V318.968H92.643V315.2H77.667V318.968H82.827V332ZM94.7195 323.518C94.7193 323.545 94.7191 323.573 94.7191 323.6C94.7191 328.64 98.6791 332.336 104.055 332.336C109.431 332.336 113.391 328.64 113.391 323.6C113.391 318.56 109.431 314.864 104.055 314.864C101.511 314.864 99.2833 315.692 97.643 317.099C97.0109 317.641 96.466 318.268 96.0237 318.968C95.2018 320.268 94.7341 321.815 94.7195 323.518ZM104.055 323.4C104.046 323.401 104.005 323.406 103.941 323.432C103.86 323.465 103.772 323.522 103.697 323.599C103.697 323.599 103.696 323.6 103.696 323.6C103.696 323.6 103.697 323.601 103.697 323.601C103.772 323.679 103.86 323.735 103.941 323.768C104.005 323.794 104.046 323.799 104.055 323.8C104.064 323.799 104.105 323.794 104.169 323.768C104.25 323.735 104.338 323.679 104.413 323.601C104.414 323.601 104.414 323.6 104.415 323.6C104.414 323.6 104.414 323.599 104.413 323.599C104.338 323.522 104.25 323.465 104.169 323.432C104.105 323.406 104.064 323.401 104.055 323.4ZM125.316 337C122.555 337 120.316 334.761 120.316 332V315.2C120.316 312.439 122.555 310.2 125.316 310.2H139.356C140.257 310.2 141.101 310.438 141.831 310.854C142.561 310.438 143.405 310.2 144.305 310.2H148.985C151.747 310.2 153.985 312.439 153.985 315.2V315.587C154.712 315.632 155.448 315.727 156.177 315.884V315.2C156.177 312.439 158.416 310.2 161.177 310.2H165.857C167.197 310.2 168.414 310.727 169.312 311.585C170.211 310.726 171.429 310.2 172.766 310.2H186.302C189.064 310.2 191.302 312.439 191.302 315.2V332C191.302 334.761 189.064 337 186.302 337H181.622C179.988 337 178.537 336.216 177.624 335.003C177.369 335.231 177.096 335.449 176.802 335.654C175.12 336.83 173.211 337.288 171.326 337.288C170.195 337.288 169.072 337.122 167.988 336.859C167.826 336.82 167.668 336.773 167.514 336.719C166.995 336.901 166.438 337 165.857 337H161.177C159.993 337 158.905 336.588 158.048 335.9C156.201 336.699 154.187 337 152.249 337H144.305C142.844 337 141.529 336.373 140.615 335.374C138.513 336.561 136.082 337 133.716 337H125.316ZM144.305 332H152.249C153.776 332 155.1 331.751 156.177 331.259C158.157 330.354 159.3 328.628 159.329 326.12C159.329 326.088 159.329 326.056 159.329 326.024C159.329 323.499 158.206 321.859 156.177 321.081C155.256 320.728 154.148 320.552 152.873 320.552H148.985V315.2H144.305V332ZM148.985 328.592H151.937C152.044 328.592 152.148 328.588 152.249 328.58C152.986 328.522 153.584 328.255 153.985 327.801C154.35 327.389 154.553 326.823 154.553 326.12C154.553 326.088 154.553 326.056 154.552 326.024C154.535 325.365 154.335 324.884 153.985 324.551C153.706 324.285 153.329 324.113 152.873 324.02C152.591 323.963 152.278 323.936 151.937 323.936H148.985V328.592ZM139.356 315.2H125.316V332H133.716C136.218 332 138.129 331.347 139.305 330.148C140.154 329.284 140.621 328.135 140.651 326.744C140.652 326.696 140.652 326.648 140.652 326.6C140.652 325.511 140.4 324.588 139.911 323.842C139.751 323.598 139.566 323.373 139.356 323.168C139.34 323.152 139.323 323.135 139.305 323.119C138.242 322.113 136.566 321.584 134.34 321.584H129.996V318.872H139.356V315.2ZM129.996 324.968V328.592H133.404C133.512 328.592 133.616 328.589 133.716 328.583C134.233 328.553 134.662 328.445 134.996 328.263C135.549 327.962 135.844 327.46 135.852 326.775C135.852 326.765 135.852 326.754 135.852 326.744C135.852 326.741 135.852 326.738 135.852 326.735C135.852 326.689 135.851 326.644 135.848 326.6C135.812 325.967 135.528 325.523 134.996 325.26C134.809 325.167 134.59 325.096 134.34 325.048C134.066 324.994 133.754 324.968 133.404 324.968H129.996ZM165.857 332V315.2H161.177V332H165.857ZM181.622 332H186.302V315.2H172.766L172.526 321.896C172.421 324.672 172.2 326.753 171.326 327.669C171.187 327.815 171.032 327.932 170.857 328.016C170.692 328.097 170.51 328.149 170.308 328.172C170.238 328.179 170.166 328.184 170.091 328.184C170.087 328.184 170.083 328.184 170.078 328.184C169.862 328.184 169.646 328.16 169.43 328.112L169.166 332C169.482 332.076 169.786 332.138 170.078 332.184C170.345 332.226 170.602 332.255 170.85 332.272C171.013 332.283 171.172 332.288 171.326 332.288C171.667 332.288 171.986 332.262 172.286 332.212C173.058 332.081 173.696 331.785 174.223 331.336C175.813 329.981 176.396 327.237 176.622 323.467C176.65 323.011 176.672 322.54 176.69 322.054C176.69 322.051 176.69 322.048 176.69 322.045C176.695 321.932 176.699 321.819 176.702 321.704L176.798 318.968H181.622V332ZM213.035 330.723C213.388 330.475 213.719 330.2 214.027 329.899C214.261 329.67 214.482 329.427 214.688 329.168L211.664 326.432C211.611 326.496 211.557 326.559 211.503 326.62C211.424 326.708 211.344 326.794 211.262 326.876C210.284 327.865 209.114 328.4 207.704 328.4C207.624 328.4 207.544 328.398 207.464 328.395C204.834 328.287 203.024 326.396 203.024 323.6C203.024 320.804 204.834 318.913 207.464 318.805C207.544 318.802 207.624 318.8 207.704 318.8C209.114 318.8 210.284 319.335 211.262 320.324C211.344 320.406 211.424 320.492 211.503 320.58C211.557 320.641 211.611 320.704 211.664 320.768L214.688 318.032C214.482 317.773 214.261 317.53 214.027 317.301C213.719 317 213.388 316.725 213.035 316.477C212.241 315.92 211.337 315.499 210.335 315.228C209.52 315.007 208.64 314.884 207.704 314.866C207.625 314.865 207.545 314.864 207.464 314.864C202.136 314.864 198.224 318.488 198.224 323.6C198.224 328.712 202.136 332.336 207.464 332.336C207.545 332.336 207.625 332.335 207.704 332.334C208.64 332.316 209.52 332.193 210.335 331.972C211.337 331.701 212.241 331.28 213.035 330.723ZM214.594 311.572C212.463 310.425 210.021 309.864 207.464 309.864C199.672 309.864 193.224 315.439 193.224 323.6C193.224 331.761 199.672 337.336 207.464 337.336C210.021 337.336 212.463 336.775 214.594 335.628C215.49 336.478 216.702 337 218.035 337H222.715C223.929 337 225.041 336.568 225.907 335.849C226.773 336.568 227.886 337 229.099 337H233.803C234.347 337 234.871 336.913 235.361 336.753C235.856 336.914 236.379 337 236.914 337H241.762C243.8 337 245.634 335.764 246.398 333.875L246.454 333.736H246.815L246.871 333.875C247.635 335.764 249.469 337 251.506 337H256.45C256.988 337 257.514 336.914 258.011 336.75C258.503 336.912 259.029 337 259.576 337H263.944C265.435 337 266.774 336.347 267.69 335.311C267.879 335.333 268.071 335.344 268.264 335.344H270.376C270.576 335.344 270.775 335.332 270.971 335.309C271.887 336.346 273.227 337 274.72 337H279.112C280.44 337 281.714 336.471 282.652 335.53C283.59 334.59 284.115 333.314 284.112 331.986L284.064 315.186C284.056 312.43 281.82 310.2 279.064 310.2H275.152C273.388 310.2 271.754 311.13 270.853 312.646L269.339 315.195L267.758 312.6C266.851 311.109 265.232 310.2 263.488 310.2H259.576C256.814 310.2 254.576 312.439 254.576 315.2V315.419L253.582 313.175C252.781 311.366 250.989 310.2 249.01 310.2H244.33C242.35 310.2 240.556 311.369 239.756 313.181L238.803 315.34V315.2C238.803 312.439 236.565 310.2 233.803 310.2H218.035C216.702 310.2 215.49 310.722 214.594 311.572ZM218.035 315.2V332H222.715V318.968H229.099V332H233.803V315.2H218.035ZM256.45 332L249.01 315.2H244.33L236.914 332H241.762L243.082 328.736H250.186L251.506 332H256.45ZM246.634 319.856L244.474 325.232H248.794L246.634 319.856ZM259.576 332H263.944V323.288L268.264 330.344H270.376L274.696 323.096L274.72 332H279.112V331.988L279.064 315.2H275.152L269.392 324.896L263.488 315.2H259.576V332ZM99.5191 323.6C99.5191 326.504 101.511 328.4 104.055 328.4C106.599 328.4 108.591 326.504 108.591 323.6C108.591 320.696 106.599 318.8 104.055 318.8C101.511 318.8 99.5191 320.696 99.5191 323.6Z" fill="white"/>
<rect x="16" y="397" width="125" height="43" rx="13" fill="white"/>
<rect x="195" y="397" width="125" height="43" rx="13" fill="white"/>
<path d="M250 5C250 26.7477 241.361 47.6048 225.983 62.9828C210.605 78.3607 189.748 87 168 87C146.252 87 125.395 78.3607 110.017 62.9828C94.6393 47.6048 86 26.7478 86 5.00002L168 5H250Z" fill="white"/>
<path d="M48.032 423.216C48.032 414.96 35.328 417.52 35.328 414.096C35.328 412.976 36.288 412.08 38.944 412.08C40.896 412.08 43.008 412.656 45.152 413.808L47.104 409.104C45.312 408.048 42.976 407.408 40.608 407.216V403.76H36.768V407.28C31.584 407.92 29.056 410.896 29.056 414.416C29.056 422.736 41.792 420.144 41.792 423.696C41.792 424.784 40.768 425.52 38.144 425.52C35.552 425.52 32.736 424.624 30.752 423.312L28.672 427.984C30.528 429.264 33.568 430.192 36.768 430.416V433.84H40.608V430.288C45.6 429.552 48.032 426.608 48.032 423.216Z" fill="#2862F3"/>
<path d="M71.6 420.42H69.32V417.8H66.26V420.42H62.5L68.62 412H65.22L58.62 420.88V423.06H66.16V426H69.32V423.06H71.6V420.42ZM77.33 417.26H76.19L76.41 414.6H82.25V412H73.71L72.99 419.88H76.57C79.11 419.88 79.83 420.6 79.83 421.7C79.83 422.84 78.83 423.52 77.21 423.52C75.75 423.52 74.29 423.06 73.23 422.26L71.95 424.74C73.31 425.7 75.35 426.24 77.29 426.24C81.29 426.24 83.11 424.08 83.11 421.6C83.11 419.12 81.47 417.26 77.33 417.26ZM96.0886 426.24C99.5486 426.24 102.089 423.62 102.089 419C102.089 414.38 99.5486 411.76 96.0886 411.76C92.6486 411.76 90.0886 414.38 90.0886 419C90.0886 423.62 92.6486 426.24 96.0886 426.24ZM96.0886 423.5C94.4886 423.5 93.3686 422.18 93.3686 419C93.3686 415.82 94.4886 414.5 96.0886 414.5C97.7086 414.5 98.8286 415.82 98.8286 419C98.8286 422.18 97.7086 423.5 96.0886 423.5ZM109.663 426.24C113.123 426.24 115.663 423.62 115.663 419C115.663 414.38 113.123 411.76 109.663 411.76C106.223 411.76 103.663 414.38 103.663 419C103.663 423.62 106.223 426.24 109.663 426.24ZM109.663 423.5C108.063 423.5 106.943 422.18 106.943 419C106.943 415.82 108.063 414.5 109.663 414.5C111.283 414.5 112.403 415.82 112.403 419C112.403 422.18 111.283 423.5 109.663 423.5ZM123.237 426.24C126.697 426.24 129.237 423.62 129.237 419C129.237 414.38 126.697 411.76 123.237 411.76C119.797 411.76 117.237 414.38 117.237 419C117.237 423.62 119.797 426.24 123.237 426.24ZM123.237 423.5C121.637 423.5 120.517 422.18 120.517 419C120.517 415.82 121.637 414.5 123.237 414.5C124.857 414.5 125.977 415.82 125.977 419C125.977 422.18 124.857 423.5 123.237 423.5Z" fill="black"/>
<path d="M241.22 423.36L244.44 420.32C246.4 418.5 246.78 417.26 246.78 415.9C246.78 413.36 244.7 411.76 241.58 411.76C239.06 411.76 237.1 412.78 236.02 414.36L238.38 415.88C239.06 414.94 240.08 414.48 241.28 414.48C242.76 414.48 243.52 415.12 243.52 416.22C243.52 416.9 243.3 417.62 242.06 418.8L236.66 423.9V426H247.24V423.36H241.22ZM253.377 417.26H252.237L252.457 414.6H258.297V412H249.757L249.037 419.88H252.617C255.157 419.88 255.877 420.6 255.877 421.7C255.877 422.84 254.877 423.52 253.257 423.52C251.797 423.52 250.337 423.06 249.277 422.26L247.997 424.74C249.357 425.7 251.397 426.24 253.337 426.24C257.337 426.24 259.157 424.08 259.157 421.6C259.157 419.12 257.517 417.26 253.377 417.26ZM280.175 426L280.135 415.24H277.215L273.555 421.46L270.115 415.24H266.855V426H269.675V419.54L272.815 424.96H274.135L277.355 419.56V426H280.175ZM283.164 426H286.044L291.264 419.6V426H294.364V415.24H291.504L286.264 421.64V415.24H283.164V426ZM297.363 426H300.463V421.98H305.143V426H308.263V415.24H305.143V419.44H300.463V415.24H297.363V426Z" fill="black"/>
<path d="M216.5 406C209.595 406 204 411.595 204 418.5C204 425.405 209.595 431 216.5 431C223.405 431 229 425.405 229 418.5C229 411.595 223.405 406 216.5 406Z" fill="#2862F3"/>
<path fill-rule="evenodd" clip-rule="evenodd" d="M215.961 410C214.878 410 214 410.878 214 411.961V419.153C214 419.311 214.019 419.464 214.054 419.611C214.047 420.263 214.376 420.901 214.974 421.262L220.414 424.535C221.313 425.077 222.481 424.786 223.022 423.887C223.563 422.988 223.273 421.82 222.374 421.279L217.923 418.6V411.961C217.923 410.878 217.045 410 215.961 410Z" fill="white"/>
<g filter="url(#filter0_d)">
<path d="M162.531 400.393L185.975 433.213C179.766 434.57 168.698 428.331 168.698 428.331C168.698 428.331 160.834 438.706 154.912 440L162.531 400.393Z" fill="white"/>
</g>
<path fill-rule="evenodd" clip-rule="evenodd" d="M154.912 440L158.469 421.51C161.522 424.284 164.956 426.604 168.698 428.331C168.698 428.331 160.834 438.706 154.912 440Z" fill="#AFD4FF"/>
<path d="M134.839 22.4V31.274H142.379V63H153.863V22.4H134.839ZM201.149 46.122H195.117V39.22H184.271V46.122H176.035L192.565 22.4H180.675L162.463 47.746V55.228H183.923V63H195.117V55.228H201.149V46.122Z" fill="#2862F3"/>
<g filter="url(#filter1_di)">
<path d="M179.703 202.209C183.222 196.235 189.971 192.417 197.209 192.417C204.446 192.417 211.207 196.263 214.865 202.453L220.185 211.087C223.061 208.549 224.917 204.875 224.917 200.73V150.854C224.917 143.201 218.716 137 211.063 137H116.854C109.201 137 103 143.201 103 150.854V200.73C103 208.383 109.201 214.584 116.854 214.584H172.088L179.703 202.209ZM161.022 181.777L114.083 159.887V150.688L163.959 173.963L213.834 150.688V159.887L166.896 181.777C165.954 182.22 164.956 182.442 163.959 182.442C162.961 182.442 161.964 182.22 161.022 181.777V181.777Z" fill="white"/>
<path d="M234.587 255.625L205.315 208.083C203.647 205.257 200.538 203.5 197.208 203.5C193.877 203.5 190.768 205.257 189.139 208.016L159.918 255.487C158.937 256.955 158.416 258.706 158.416 260.552C158.416 265.761 162.672 270 167.898 270H226.512C231.744 270 236 265.761 236 260.552C236 258.706 235.479 256.955 234.587 255.625V255.625ZM197.208 258.917C194.914 258.917 193.052 257.055 193.052 254.761C193.052 252.466 194.914 250.604 197.208 250.604C199.502 250.604 201.364 252.466 201.364 254.761C201.364 257.055 199.502 258.917 197.208 258.917ZM201.364 240.906C201.364 243.201 199.502 245.063 197.208 245.063C194.914 245.063 193.052 243.201 193.052 240.906V224.281C193.052 221.987 194.914 220.125 197.208 220.125C199.502 220.125 201.364 221.987 201.364 224.281V240.906Z" fill="white"/>
</g>
<defs>
<filter id="filter0_d" x="143" y="393" width="52.975" height="57" filterUnits="userSpaceOnUse" color-interpolation-filters="sRGB">
<feFlood flood-opacity="0" result="BackgroundImageFix"/>
<feColorMatrix in="SourceAlpha" type="matrix" values="0 0 0 0 0 0 0 0 0 0 0 0 0 0 0 0 0 0 127 0"/>
<feOffset dx="3" dy="3"/>
<feGaussianBlur stdDeviation="3.5"/>
<feColorMatrix type="matrix" values="0 0 0 0 0.11124 0 0 0 0 0.205788 0 0 0 0 0.754167 0 0 0 0.66 0"/>
<feBlend mode="normal" in2="BackgroundImageFix" result="effect1_dropShadow"/>
<feBlend mode="normal" in="SourceGraphic" in2="effect1_dropShadow" result="shape"/>
</filter>
<filter id="filter1_di" x="97" y="131" width="153" height="153" filterUnits="userSpaceOnUse" color-interpolation-filters="sRGB">
<feFlood flood-opacity="0" result="BackgroundImageFix"/>
<feColorMatrix in="SourceAlpha" type="matrix" values="0 0 0 0 0 0 0 0 0 0 0 0 0 0 0 0 0 0 127 0"/>
<feOffset dx="4" dy="4"/>
<feGaussianBlur stdDeviation="5"/>
<feColorMatrix type="matrix" values="0 0 0 0 0.168813 0 0 0 0 0.394509 0 0 0 0 0.9125 0 0 0 1 0"/>
<feBlend mode="normal" in2="BackgroundImageFix" result="effect1_dropShadow"/>
<feBlend mode="normal" in="SourceGraphic" in2="effect1_dropShadow" result="shape"/>
<feColorMatrix in="SourceAlpha" type="matrix" values="0 0 0 0 0 0 0 0 0 0 0 0 0 0 0 0 0 0 127 0" result="hardAlpha"/>
<feOffset dx="-2" dy="-2"/>
<feGaussianBlur stdDeviation="2"/>
<feComposite in2="hardAlpha" operator="arithmetic" k2="-1" k3="1"/>
<feColorMatrix type="matrix" values="0 0 0 0 0.564167 0 0 0 0 0.713194 0 0 0 0 1 0 0 0 1 0"/>
<feBlend mode="normal" in2="shape" result="effect2_innerShadow"/>
</filter>
<linearGradient id="paint0_linear" x1="57.5" y1="-9" x2="289.5" y2="495.5" gradientUnits="userSpaceOnUse">
<stop stop-color="#3793FF"/>
<stop offset="1" stop-color="#141CE1"/>
</linearGradient>
<linearGradient id="paint1_linear" x1="49" y1="11" x2="301.5" y2="474" gradientUnits="userSpaceOnUse">
<stop stop-color="#6369FF"/>
<stop offset="1" stop-color="#51B5F4"/>
</linearGradient>
<linearGradient id="paint2_linear" x1="57.5" y1="-9" x2="289.5" y2="495.5" gradientUnits="userSpaceOnUse">
<stop stop-color="#00E0FF"/>
<stop offset="1" stop-color="#42F2D1"/>
</linearGradient>
<linearGradient id="paint3_linear" x1="49" y1="11" x2="301.5" y2="474" gradientUnits="userSpaceOnUse">
<stop stop-color="#51B5F5"/>
<stop offset="1" stop-color="#28D7BE"/>
</linearGradient>
<linearGradient id="paint4_linear" x1="308.165" y1="473.49" x2="92.7043" y2="54.1817" gradientUnits="userSpaceOnUse">
<stop stop-color="#73F5FF"/>
<stop offset="0.99" stop-color="#7AFFEC"/>
</linearGradient>
<linearGradient id="paint5_linear" x1="18.7592" y1="227" x2="211" y2="227" gradientUnits="userSpaceOnUse">
<stop stop-color="white"/>
<stop offset="0.99" stop-color="white" stop-opacity="0.4"/>
</linearGradient>
<linearGradient id="paint6_linear" x1="176.9" y1="65" x2="257" y2="65" gradientUnits="userSpaceOnUse">
<stop stop-color="white"/>
<stop offset="0.99" stop-color="white" stop-opacity="0.4"/>
</linearGradient>
</defs>
</svg>
