<svg width="338" height="474" viewBox="0 0 338 474" fill="none" xmlns="http://www.w3.org/2000/svg">
<rect x="2.5" y="2.5" width="331" height="469" rx="32.5" fill="url(#paint0_linear)" stroke="url(#paint1_linear)" stroke-width="5"/>
<mask id="mask0" mask-type="alpha" maskUnits="userSpaceOnUse" x="2" y="0" width="336" height="474">
<rect x="4.5" y="2.5" width="331" height="469" rx="41.5" fill="url(#paint2_linear)" stroke="url(#paint3_linear)" stroke-width="5"/>
</mask>
<g mask="url(#mask0)">
<path d="M198.89 5.0093C198.89 5.0093 97.8208 47.0947 93.9888 101.845C90.1568 156.595 112.775 152.615 106.069 185.086C99.3631 217.557 -10.9124 255.616 18.7856 356.766C48.4837 457.916 142.368 370.584 242 469H35C18.4315 469 5 455.569 5 439V35.0014C5 18.4323 18.4323 5.00064 35.0014 5.00144L198.89 5.0093Z" fill="url(#paint4_linear)" fill-opacity="0.5"/>
</g>
<path opacity="0.46" d="M219.887 378C202.092 377.978 184.702 372.68 169.917 362.777C155.131 352.875 143.613 338.811 136.819 322.363C130.024 305.916 128.258 287.824 131.743 270.373C135.229 252.922 143.809 236.896 156.4 224.321C168.992 211.745 185.028 203.185 202.483 199.721C219.939 196.258 238.029 198.046 254.468 204.862C270.906 211.677 284.956 223.212 294.84 238.01C304.724 252.808 310 270.204 310 288C309.958 311.876 300.447 334.761 283.553 351.633C266.66 368.506 243.763 377.988 219.887 378ZM219.887 222.747C206.985 222.764 194.378 226.607 183.659 233.788C172.94 240.969 164.59 251.166 159.665 263.091C154.74 275.016 153.461 288.134 155.989 300.786C158.517 313.438 164.739 325.056 173.868 334.173C182.998 343.29 194.625 349.496 207.28 352.006C219.936 354.517 233.051 353.219 244.97 348.278C256.888 343.336 267.074 334.972 274.24 324.243C281.406 313.515 285.231 300.902 285.231 288C285.177 270.703 278.27 254.132 266.022 241.918C253.774 229.704 237.184 222.843 219.887 222.837V222.747Z" fill="url(#paint5_linear)"/>
<path opacity="0.46" d="M99.9498 126C92.0407 125.99 84.3121 123.636 77.7407 119.234C71.1694 114.833 66.0503 108.583 63.0305 101.273C60.0106 93.9627 59.2257 85.9216 60.7747 78.1657C62.3238 70.4097 66.1374 63.2871 71.7335 57.698C77.3296 52.1089 84.457 48.3043 92.2148 46.7649C99.9727 45.2256 108.013 46.0207 115.319 49.0496C122.625 52.0786 128.869 57.2055 133.262 63.7824C137.655 70.3593 140 78.0909 140 86C139.981 96.6116 135.754 106.783 128.246 114.281C120.738 121.78 110.561 125.995 99.9498 126ZM99.9498 56.9985C94.2156 57.0064 88.6124 58.7141 83.8484 61.9056C79.0844 65.0972 75.3735 69.6294 73.1846 74.9294C70.9957 80.2294 70.4271 86.0594 71.5506 91.6825C72.6742 97.3056 75.4395 102.469 79.497 106.521C83.5545 110.573 88.7222 113.331 94.3468 114.447C99.9715 115.563 105.801 114.986 111.098 112.79C116.395 110.594 120.922 106.877 124.107 102.108C127.292 97.3398 128.991 91.7342 128.991 86C128.968 78.3124 125.898 70.9477 120.454 65.5193C115.011 60.0908 107.637 57.0412 99.9498 57.0386V56.9985Z" fill="url(#paint6_linear)"/>
<path d="M53.0474 297.2V303.512H46.5674V297.2H41.8154V314H46.5674V307.448H53.0474V314H57.7994V297.2H53.0474Z" fill="black"/>
<path d="M72.7372 297.2L68.6812 305.312L64.7692 297.2H59.7532L66.2812 309.296C65.6572 310.208 64.9852 310.592 64.0492 310.592C63.5452 310.592 63.0172 310.496 62.3692 310.304L61.2412 313.808C62.2732 314.216 63.2572 314.432 64.2172 314.432C66.7372 314.432 68.9212 312.992 70.4092 310.184L77.3692 297.2H72.7372Z" fill="black"/>
<path d="M97.6694 314H103.141L98.3654 305.192L102.853 297.2H97.8854L94.4534 303.728H92.4134V297.2H87.7574V303.728H85.6214L82.2614 297.2H77.2694L81.7574 305.192L76.9814 314H82.4774L85.7654 307.568H87.7574V314H92.4134V307.568H94.4054L97.6694 314Z" fill="black"/>
<path d="M115.907 297.2V303.512H109.427V297.2H104.675V314H109.427V307.448H115.907V314H120.659V297.2H115.907Z" fill="black"/>
<path d="M132.525 314.336C137.901 314.336 141.861 310.64 141.861 305.6C141.861 300.56 137.901 296.864 132.525 296.864C127.149 296.864 123.189 300.56 123.189 305.6C123.189 310.64 127.149 314.336 132.525 314.336ZM132.525 310.4C129.981 310.4 127.989 308.504 127.989 305.6C127.989 302.696 129.981 300.8 132.525 300.8C135.069 300.8 137.061 302.696 137.061 305.6C137.061 308.504 135.069 310.4 132.525 310.4Z" fill="black"/>
<path d="M159.642 314.336C165.018 314.336 168.978 310.64 168.978 305.6C168.978 300.56 165.018 296.864 159.642 296.864C154.266 296.864 150.306 300.56 150.306 305.6C150.306 310.64 154.266 314.336 159.642 314.336ZM159.642 310.4C157.098 310.4 155.106 308.504 155.106 305.6C155.106 302.696 157.098 300.8 159.642 300.8C162.186 300.8 164.178 302.696 164.178 305.6C164.178 308.504 162.186 310.4 159.642 310.4Z" fill="black"/>
<path d="M184.82 297.2H169.844V300.968H175.004V314H179.684V300.968H184.82V297.2Z" fill="black"/>
<path d="M188.209 297.2L187.969 303.896C187.825 307.688 187.465 310.184 185.521 310.184C185.305 310.184 185.089 310.16 184.873 310.112L184.609 314C185.401 314.192 186.121 314.288 186.769 314.288C191.041 314.288 191.929 310.256 192.145 303.704L192.241 300.968H197.065V314H201.745V297.2H188.209Z" fill="black"/>
<path d="M205.339 314H209.827L216.739 304.16V314H221.419V297.2H216.955L210.019 307.064V297.2H205.339V314Z" fill="black"/>
<path d="M234.446 297.2V304.496C233.606 304.88 232.574 305.072 231.47 305.072C229.382 305.072 228.302 304.016 228.302 301.832V297.2H223.622V302.36C223.622 306.632 226.166 308.936 230.87 308.936C231.974 308.936 233.15 308.72 234.446 308.288V314H239.126V297.2H234.446Z" fill="black"/>
<path d="M255.634 314H260.578L253.138 297.2H248.458L241.042 314H245.89L247.21 310.736H254.314L255.634 314ZM248.602 307.232L250.762 301.856L252.922 307.232H248.602Z" fill="black"/>
<path d="M275.195 297.2H260.219V300.968H265.379V314H270.059V300.968H275.195V297.2Z" fill="black"/>
<path d="M285.954 302.552H282.066V297.2H277.386V314H285.33C289.698 314 292.41 311.96 292.41 308.024C292.41 304.352 290.034 302.552 285.954 302.552ZM285.018 310.592H282.066V305.936H285.018C286.626 305.936 287.634 306.536 287.634 308.12C287.634 309.704 286.602 310.592 285.018 310.592Z" fill="black"/>
<path d="M52.621 342L52.573 325.2H48.661L42.901 334.896L36.997 325.2H33.085V342H37.453V333.288L41.773 340.344H43.885L48.205 333.096L48.229 342H52.621Z" fill="black"/>
<path d="M67.4263 325.2V331.512H60.9463V325.2H56.1943V342H60.9463V335.448H67.4263V342H72.1783V325.2H67.4263Z" fill="black"/>
<path d="M80.4921 338.328V335.256H87.9561V331.704H80.4921V328.872H88.9641V325.2H75.7881V342H89.2761V338.328H80.4921Z" fill="black"/>
<path d="M103.215 325.2V331.512H96.7354V325.2H91.9834V342H96.7354V335.448H103.215V342H107.967V325.2H103.215Z" fill="black"/>
<path d="M111.577 342H116.065L122.977 332.16V342H127.657V325.2H123.193L116.257 335.064V325.2H111.577V342Z" fill="black"/>
<path d="M135.969 338.328V335.256H143.433V331.704H135.969V328.872H144.441V325.2H131.265V342H144.753V338.328H135.969Z" fill="black"/>
<path d="M162.7 342.336C168.076 342.336 172.036 338.64 172.036 333.6C172.036 328.56 168.076 324.864 162.7 324.864C157.324 324.864 153.364 328.56 153.364 333.6C153.364 338.64 157.324 342.336 162.7 342.336ZM162.7 338.4C160.156 338.4 158.164 336.504 158.164 333.6C158.164 330.696 160.156 328.8 162.7 328.8C165.244 328.8 167.236 330.696 167.236 333.6C167.236 336.504 165.244 338.4 162.7 338.4Z" fill="black"/>
<path d="M187.879 325.2H172.903V328.968H178.063V342H182.743V328.968H187.879V325.2Z" fill="black"/>
<path d="M217.742 333.552C217.742 329.16 214.694 326.52 209.006 326.136V324.408H204.662V326.136C198.974 326.568 195.926 329.16 195.926 333.552C195.926 337.92 198.974 340.536 204.662 340.944V342.792H209.006V340.944C214.718 340.608 217.742 337.92 217.742 333.552ZM209.006 337.248V329.856C211.79 330.168 213.134 331.32 213.134 333.528C213.134 335.736 211.862 336.936 209.006 337.248ZM200.534 333.552C200.534 331.32 201.782 330.192 204.662 329.856V337.224C201.95 336.888 200.534 335.76 200.534 333.552Z" fill="black"/>
<path d="M232.888 342H237.832L230.392 325.2H225.712L218.296 342H223.144L224.464 338.736H231.568L232.888 342ZM225.856 335.232L228.016 329.856L230.176 335.232H225.856Z" fill="black"/>
<path d="M250.365 342H255.717L250.413 333.312L255.669 325.2H250.677L246.669 331.728H244.389V325.2H239.661V342H244.389V335.568H246.549L250.365 342Z" fill="black"/>
<path d="M270.566 325.2H255.59V328.968H260.75V342H265.43V328.968H270.566V325.2Z" fill="black"/>
<path d="M280.778 342.336C286.154 342.336 290.114 338.64 290.114 333.6C290.114 328.56 286.154 324.864 280.778 324.864C275.402 324.864 271.442 328.56 271.442 333.6C271.442 338.64 275.402 342.336 280.778 342.336ZM280.778 338.4C278.234 338.4 276.242 336.504 276.242 333.6C276.242 330.696 278.234 328.8 280.778 328.8C283.322 328.8 285.314 330.696 285.314 333.6C285.314 336.504 283.322 338.4 280.778 338.4Z" fill="black"/>
<path d="M304.895 333.216C306.335 332.496 307.175 331.224 307.175 329.568C307.175 326.784 304.823 325.2 300.815 325.2H292.655V342H301.271C305.591 342 307.943 340.152 307.943 337.2C307.943 335.184 306.839 333.84 304.895 333.216ZM297.335 328.608H300.359C301.703 328.608 302.375 329.184 302.375 330.264C302.375 331.368 301.703 331.92 300.359 331.92H297.335V328.608ZM301.079 338.592H297.335V335.136H301.079C302.447 335.136 303.143 335.688 303.143 336.84C303.143 337.992 302.447 338.592 301.079 338.592Z" fill="black"/>
<path fill-rule="evenodd" clip-rule="evenodd" d="M49.8074 293.392C50.6801 292.649 51.8114 292.2 53.0474 292.2H57.7994C58.1345 292.2 58.4619 292.233 58.7785 292.296C59.0962 292.233 59.4224 292.2 59.7532 292.2H64.7692C66.3519 292.2 67.8195 292.947 68.7532 294.179C69.6877 292.946 71.1558 292.2 72.7372 292.2H82.2614C83.2567 292.2 84.2077 292.496 85.0089 293.023C85.7976 292.503 86.7422 292.2 87.7574 292.2H92.4134C93.4236 292.2 94.3637 292.5 95.1499 293.015C95.9489 292.493 96.8954 292.2 97.8854 292.2H102.853C103.161 292.2 103.465 292.228 103.762 292.283C104.058 292.229 104.363 292.2 104.675 292.2H109.427C110.663 292.2 111.794 292.649 112.667 293.392C113.539 292.649 114.671 292.2 115.907 292.2H120.659C122.235 292.2 123.641 292.929 124.557 294.069C126.848 292.654 129.595 291.864 132.525 291.864C138.738 291.864 144.132 295.418 146.083 300.951C148.034 295.418 153.429 291.864 159.642 291.864C162.122 291.864 164.471 292.43 166.523 293.462C167.406 292.677 168.569 292.2 169.844 292.2H184.82C185.415 292.2 185.986 292.304 186.515 292.495C187.045 292.304 187.615 292.2 188.209 292.2H201.745C202.379 292.2 202.984 292.318 203.542 292.533C204.1 292.318 204.706 292.2 205.339 292.2H210.019C211.366 292.2 212.588 292.732 213.487 293.598C214.41 292.71 215.649 292.2 216.955 292.2H221.419C221.797 292.2 222.166 292.242 222.52 292.322C222.875 292.242 223.243 292.2 223.622 292.2H228.302C229.46 292.2 230.526 292.594 231.374 293.255C232.221 292.594 233.287 292.2 234.446 292.2H239.126C241.25 292.2 243.065 293.525 243.789 295.394L243.884 295.181C244.683 293.369 246.477 292.2 248.458 292.2H253.138C254.491 292.2 255.757 292.746 256.679 293.67C257.584 292.762 258.836 292.2 260.219 292.2H275.195C275.571 292.2 275.938 292.242 276.29 292.32C276.643 292.242 277.009 292.2 277.386 292.2H282.066C284.827 292.2 287.066 294.439 287.066 297.2V297.587C289.42 297.735 291.875 298.392 293.89 300.051C296.391 302.11 297.41 305.04 297.41 308.024C297.41 311.233 296.245 314.253 293.675 316.357C291.258 318.336 288.21 319 285.33 319H277.386C275.939 319 274.635 318.385 273.722 317.403C272.809 318.385 271.506 319 270.059 319H265.379C264.509 319 263.69 318.778 262.977 318.386C262.253 318.783 261.43 319 260.578 319H255.634C253.596 319 251.762 317.764 250.998 315.875L250.942 315.736H250.581L250.525 315.875C249.761 317.764 247.927 319 245.89 319H241.042C240.718 319 240.398 318.969 240.086 318.908C239.775 318.968 239.454 319 239.126 319H234.446C231.684 319 229.446 316.761 229.446 314V313.88C228.423 313.799 227.404 313.624 226.419 313.33V314C226.419 316.761 224.18 319 221.419 319H216.739C215.398 319 214.181 318.472 213.283 317.613C212.361 318.495 211.127 319 209.827 319H205.339C204.706 319 204.1 318.882 203.542 318.667C202.984 318.882 202.379 319 201.745 319H197.065C195.431 319 193.98 318.216 193.067 317.003C192.812 317.231 192.538 317.449 192.245 317.654C190.563 318.83 188.654 319.288 186.769 319.288C185.638 319.288 184.515 319.122 183.431 318.859C182.972 318.748 182.542 318.576 182.147 318.352C181.42 318.765 180.58 319 179.684 319H175.004C172.632 319 170.645 317.348 170.133 315.131C167.499 317.783 163.749 319.336 159.642 319.336C153.429 319.336 148.034 315.782 146.083 310.249C144.132 315.782 138.738 319.336 132.525 319.336C129.595 319.336 126.848 318.546 124.557 317.131C123.641 318.271 122.235 319 120.659 319H115.907C114.671 319 113.539 318.552 112.667 317.808C111.794 318.552 110.663 319 109.427 319H104.675C104.413 319 104.157 318.98 103.906 318.941C103.655 318.98 103.4 319 103.141 319H97.6694C96.7232 319 95.8174 318.733 95.0421 318.254C94.2783 318.727 93.3778 319 92.4134 319H87.7574C86.788 319 85.8831 318.724 85.1168 318.247C84.3388 318.73 83.4284 319 82.4774 319H76.9814C75.219 319 73.5867 318.072 72.6851 316.558C72.5642 316.355 72.4589 316.145 72.3691 315.931C70.2632 318.085 67.4976 319.432 64.2172 319.432C62.6355 319.432 61.1465 319.104 59.7686 318.597C59.1643 318.856 58.4986 319 57.7994 319H53.0474C51.8114 319 50.6801 318.552 49.8074 317.808C48.9348 318.552 47.8035 319 46.5674 319H41.8154C39.054 319 36.8154 316.761 36.8154 314V297.2C36.8154 294.439 39.054 292.2 41.8154 292.2H46.5674C47.8035 292.2 48.9348 292.649 49.8074 293.392ZM46.5674 297.2H41.8154V314H46.5674V307.448H53.0474V314H57.7994V297.2H53.0474V303.512H46.5674V297.2ZM62.6005 310.37C62.525 310.349 62.448 310.327 62.3692 310.304L61.2412 313.808C61.268 313.819 61.2948 313.829 61.3216 313.839C61.4706 313.897 61.6185 313.951 61.7655 314C62.0176 314.085 62.267 314.158 62.5141 314.218C62.6069 314.24 62.6995 314.261 62.7917 314.28C63.2168 314.369 63.6353 314.419 64.0492 314.43C64.1053 314.431 64.1613 314.432 64.2172 314.432C64.9869 314.432 65.7253 314.298 66.4221 314.031C67.6048 313.578 68.6676 312.745 69.5604 311.54C69.8636 311.13 70.1472 310.678 70.4092 310.184L77.3205 297.291L81.7574 305.192L76.9814 314H82.4774L85.7654 307.568H87.7574V314H92.4134V307.568H94.4054L97.6694 314H103.141L98.3654 305.192L102.853 297.2H97.8854L94.4534 303.728H92.4134V297.2H87.7574V303.728H85.6214L82.2614 297.2H72.7372L68.6812 305.312L64.7692 297.2H59.7532L66.2812 309.296C66.2125 309.396 66.1433 309.49 66.0732 309.578C65.5449 310.239 64.9673 310.549 64.2172 310.588C64.1621 310.591 64.1061 310.592 64.0492 310.592C63.9951 310.592 63.9407 310.591 63.8859 310.589C63.5481 310.575 63.1952 310.519 62.7994 310.422C62.7343 310.405 62.668 310.388 62.6005 310.37ZM104.675 314H109.427V307.448H115.907V314H120.659V297.2H115.907V303.512H109.427V297.2H104.675V314ZM125.659 311.683C127.33 313.342 129.737 314.336 132.525 314.336C137.901 314.336 141.861 310.64 141.861 305.6C141.861 300.56 137.901 296.864 132.525 296.864C129.737 296.864 127.33 297.858 125.659 299.517C124.107 301.058 123.189 303.173 123.189 305.6C123.189 308.027 124.107 310.142 125.659 311.683ZM175.004 314H179.684V300.968H184.82V297.2H169.844V300.968H175.004V314ZM197.065 314H201.745V297.2H188.209L187.969 303.896C187.956 304.238 187.942 304.569 187.924 304.888C187.8 307.166 187.535 308.866 186.769 309.669C186.498 309.954 186.164 310.126 185.751 310.172C185.681 310.179 185.609 310.184 185.534 310.184C185.53 310.184 185.526 310.184 185.521 310.184C185.305 310.184 185.089 310.16 184.873 310.112L184.609 314C184.634 314.006 184.659 314.012 184.684 314.018C184.973 314.086 185.252 314.141 185.521 314.184C185.963 314.253 186.379 314.288 186.769 314.288C187.11 314.288 187.429 314.262 187.728 314.212C188.501 314.081 189.139 313.785 189.666 313.336C191.256 311.981 191.839 309.237 192.065 305.467C192.093 305.011 192.115 304.54 192.133 304.054C192.133 304.051 192.133 304.048 192.133 304.045C192.137 303.932 192.141 303.819 192.145 303.704L192.241 300.968H197.065V314ZM168.973 305.892C168.976 305.795 168.978 305.698 168.978 305.6C168.978 303.865 168.508 302.289 167.673 300.968C166.969 299.855 166.006 298.923 164.844 298.23C163.382 297.358 161.606 296.864 159.642 296.864C154.266 296.864 150.306 300.56 150.306 305.6C150.306 310.64 154.266 314.336 159.642 314.336C164.913 314.336 168.823 310.782 168.973 305.892ZM216.739 314H221.419V297.2H216.955L210.019 307.064V297.2H205.339V314H209.827L216.739 304.16V314ZM234.446 314H239.126V297.2H234.446V304.496C234.342 304.543 234.235 304.588 234.126 304.63C233.867 304.728 233.594 304.81 233.308 304.875C232.736 305.006 232.115 305.072 231.47 305.072C231.259 305.072 231.059 305.061 230.87 305.04C229.334 304.866 228.472 303.986 228.325 302.36C228.309 302.192 228.302 302.016 228.302 301.832V297.2H223.622V302.36C223.622 304.987 224.584 306.87 226.419 307.931C227.251 308.412 228.263 308.723 229.446 308.859C229.896 308.91 230.37 308.936 230.87 308.936C231.067 308.936 231.267 308.929 231.47 308.915C232.305 308.858 233.184 308.683 234.126 308.391C234.231 308.358 234.338 308.324 234.446 308.288V314ZM260.578 314L253.138 297.2H248.458L241.042 314H245.89L247.21 310.736H254.314L255.634 314H260.578ZM250.762 301.856L248.602 307.232H252.922L250.762 301.856ZM265.379 314H270.059V300.968H275.195V297.2H260.219V300.968H265.379V314ZM277.386 314H285.33C289.662 314 292.365 311.993 292.409 308.12C292.41 308.088 292.41 308.056 292.41 308.024C292.41 304.352 290.034 302.552 285.954 302.552H282.066V297.2H277.386V314ZM282.066 310.592H285.018C285.124 310.592 285.228 310.588 285.33 310.58C286.067 310.522 286.664 310.255 287.066 309.801C287.43 309.389 287.634 308.823 287.634 308.12C287.634 308.088 287.633 308.056 287.633 308.024C287.615 307.365 287.415 306.884 287.066 306.551C286.786 306.285 286.41 306.113 285.954 306.02C285.671 305.963 285.358 305.936 285.018 305.936H282.066V310.592ZM132.525 305.4C132.516 305.401 132.474 305.406 132.411 305.432C132.329 305.465 132.242 305.522 132.166 305.599C132.166 305.599 132.166 305.6 132.165 305.6C132.166 305.6 132.166 305.601 132.166 305.601C132.242 305.679 132.329 305.735 132.411 305.768C132.474 305.794 132.516 305.799 132.525 305.8C132.525 305.8 132.524 305.8 132.525 305.8M132.884 305.6C132.884 305.6 132.883 305.601 132.883 305.601C132.807 305.679 132.72 305.735 132.638 305.768C132.575 305.794 132.534 305.799 132.525 305.8M132.525 305.4C132.533 305.401 132.575 305.406 132.638 305.432ZM132.638 305.432C132.72 305.465 132.807 305.522 132.883 305.599ZM132.883 305.599C132.883 305.599 132.884 305.6 132.884 305.6ZM159.756 305.432C159.692 305.406 159.651 305.401 159.642 305.4C159.633 305.401 159.591 305.406 159.528 305.432C159.446 305.465 159.359 305.522 159.284 305.599C159.283 305.599 159.283 305.6 159.282 305.6C159.283 305.6 159.283 305.601 159.284 305.601C159.359 305.679 159.446 305.735 159.528 305.768C159.591 305.794 159.633 305.799 159.642 305.8C159.642 305.8 159.642 305.8 159.642 305.8M160.001 305.6C160.001 305.6 160 305.601 160 305.601C159.925 305.679 159.837 305.735 159.756 305.768C159.693 305.794 159.652 305.799 159.642 305.8M159.756 305.432C159.837 305.465 159.925 305.522 160 305.599ZM160 305.599C160 305.599 160.001 305.6 160.001 305.6ZM54.4058 346.671C53.8413 346.886 53.237 347 52.621 347H48.229C46.7364 347 45.3963 346.346 44.4801 345.309C44.284 345.332 44.0853 345.344 43.885 345.344H41.773C41.58 345.344 41.3887 345.333 41.1996 345.311C40.2835 346.347 38.9445 347 37.453 347H33.085C30.3235 347 28.085 344.761 28.085 342L28.085 325.2C28.085 322.439 30.3235 320.2 33.085 320.2H36.997C38.7416 320.2 40.3602 321.109 41.2675 322.6L42.8481 325.195L44.3623 322.646C45.2633 321.13 46.8968 320.2 48.661 320.2H52.573C53.2115 320.2 53.8221 320.32 54.3836 320.538C54.9451 320.32 55.5557 320.2 56.1943 320.2H60.9463C62.1824 320.2 63.3137 320.649 64.1863 321.392C65.059 320.649 66.1903 320.2 67.4263 320.2H72.1783C72.8147 320.2 73.4234 320.319 73.9832 320.536C74.5431 320.319 75.1517 320.2 75.7881 320.2H88.9641C89.4902 320.2 89.9974 320.281 90.4737 320.432C90.9501 320.281 91.4572 320.2 91.9834 320.2H96.7354C97.9714 320.2 99.1027 320.649 99.9754 321.392C100.848 320.649 101.979 320.2 103.215 320.2H107.967C108.604 320.2 109.212 320.319 109.772 320.536C110.332 320.319 110.941 320.2 111.577 320.2H116.257C117.604 320.2 118.826 320.732 119.725 321.598C120.648 320.71 121.888 320.2 123.193 320.2H127.657C128.293 320.2 128.901 320.319 129.461 320.535C130.02 320.319 130.629 320.2 131.265 320.2H144.441C147.202 320.2 149.441 322.439 149.441 325.2V328.181C151.604 323.09 156.78 319.864 162.7 319.864C165.18 319.864 167.53 320.43 169.582 321.462C170.465 320.677 171.628 320.2 172.903 320.2H187.879C190.64 320.2 192.879 322.439 192.879 325.2V326.826C193.436 325.999 194.116 325.234 194.924 324.548C196.506 323.204 198.386 322.325 200.403 321.787C201.283 320.36 202.861 319.408 204.662 319.408H209.006C210.797 319.408 212.369 320.35 213.251 321.766C215.279 322.3 217.166 323.184 218.752 324.538C219.206 324.925 219.62 325.338 219.994 325.772L221.137 323.181C221.937 321.369 223.731 320.2 225.712 320.2H230.392C232.37 320.2 234.162 321.366 234.963 323.175L235.027 323.319C235.77 321.49 237.565 320.2 239.661 320.2H244.389C245.58 320.2 246.674 320.617 247.533 321.312C248.41 320.603 249.516 320.2 250.677 320.2H270.566C271.843 320.2 273.007 320.678 273.891 321.465C275.944 320.431 278.296 319.864 280.778 319.864C283.711 319.864 286.461 320.656 288.753 322.074C289.669 320.931 291.077 320.2 292.655 320.2H300.815C303.371 320.2 306.089 320.688 308.319 322.212C310.789 323.899 312.175 326.546 312.175 329.568C312.175 330.612 312.012 331.599 311.706 332.512C312.565 333.963 312.943 335.582 312.943 337.2C312.943 340.169 311.676 342.903 309.193 344.733C306.905 346.418 304.052 347 301.271 347H292.655C291.077 347 289.669 346.269 288.753 345.126C286.461 346.544 283.711 347.336 280.778 347.336C276.677 347.336 272.932 345.787 270.299 343.143C269.782 345.354 267.799 347 265.43 347H260.75C259.832 347 258.972 346.753 258.233 346.321C257.482 346.758 256.617 347 255.717 347H250.365C249.271 347 248.227 346.642 247.377 346.009C246.543 346.632 245.509 347 244.389 347H239.661C239.348 347 239.041 346.971 238.744 346.916C238.446 346.971 238.141 347 237.832 347H232.888C230.85 347 229.016 345.764 228.252 343.875L228.196 343.736H227.835L227.779 343.875C227.015 345.764 225.181 347 223.144 347H218.296C216.725 347 215.253 346.262 214.312 345.022C213.987 345.13 213.657 345.228 213.323 345.316C212.455 346.797 210.847 347.792 209.006 347.792H204.662C202.806 347.792 201.187 346.781 200.324 345.281C198.336 344.743 196.485 343.87 194.924 342.544C192.196 340.227 190.926 337.015 190.926 333.552C190.926 333.341 190.93 333.131 190.94 332.922C190.094 333.578 189.032 333.968 187.879 333.968H187.743V342C187.743 344.761 185.504 347 182.743 347H178.063C175.69 347 173.704 345.348 173.191 343.131C170.558 345.783 166.808 347.336 162.7 347.336C157.048 347.336 152.074 344.395 149.753 339.699V342C149.753 344.761 147.514 347 144.753 347H131.265C130.629 347 130.02 346.881 129.461 346.665C128.901 346.881 128.293 347 127.657 347H122.977C121.636 347 120.419 346.472 119.521 345.613C118.6 346.495 117.365 347 116.065 347H111.577C110.941 347 110.332 346.881 109.772 346.664C109.212 346.881 108.604 347 107.967 347H103.215C101.979 347 100.848 346.552 99.9754 345.808C99.1027 346.552 97.9714 347 96.7354 347H91.9834C91.5143 347 91.0603 346.935 90.6297 346.815C90.1992 346.935 89.7452 347 89.2761 347H75.7881C75.1517 347 74.5431 346.881 73.9832 346.664C73.4234 346.881 72.8147 347 72.1783 347H67.4263C66.1903 347 65.059 346.552 64.1863 345.808C63.3137 346.552 62.1824 347 60.9463 347H56.1943C55.5641 347 54.9611 346.883 54.4058 346.671ZM60.9463 342V335.448H67.4263V342H72.1783V325.2H67.4263V331.512H60.9463V325.2H56.1943V342H60.9463ZM89.2761 342V338.328H80.4921V335.256H87.9561V331.704H80.4921V328.872H88.9641V325.2H75.7881V342H89.2761ZM91.9834 342H96.7354V335.448H103.215V342H107.967V325.2H103.215V331.512H96.7354V325.2H91.9834V342ZM122.977 342H127.657V325.2H123.193L116.257 335.064V325.2H111.577V342H116.065L122.977 332.16V342ZM144.753 342V338.328H135.969V335.256H143.433V331.704H135.969V328.872H144.441V325.2H131.265V342H144.753ZM148.433 331.883C148.445 331.866 148.458 331.849 148.47 331.833C148.456 331.947 148.444 332.062 148.433 332.177V331.883ZM178.063 342H182.743V328.968H187.879V325.2H172.903V328.968H178.063V342ZM172.032 333.892C172.035 333.795 172.036 333.698 172.036 333.6C172.036 331.865 171.567 330.289 170.732 328.968C170.028 327.855 169.064 326.923 167.903 326.23C166.441 325.358 164.665 324.864 162.7 324.864C157.324 324.864 153.364 328.56 153.364 333.6C153.364 338.64 157.324 342.336 162.7 342.336C167.972 342.336 171.882 338.782 172.032 333.892ZM204.662 342.792H209.006V340.944C209.141 340.936 209.274 340.927 209.406 340.916C209.492 340.909 209.577 340.902 209.661 340.894C211.263 340.743 212.636 340.395 213.772 339.866C216.385 338.65 217.742 336.478 217.742 333.552C217.742 333.544 217.742 333.536 217.742 333.528C217.74 332.791 217.652 332.103 217.48 331.467C216.67 328.476 213.996 326.634 209.661 326.191C209.581 326.183 209.5 326.176 209.419 326.168C209.283 326.156 209.145 326.145 209.006 326.136V324.408H204.662V326.136C204.517 326.147 204.374 326.159 204.232 326.173C204.156 326.181 204.081 326.188 204.006 326.197C198.74 326.774 195.926 329.332 195.926 333.552C195.926 337.749 198.74 340.329 204.006 340.886C204.072 340.893 204.139 340.9 204.206 340.906C204.356 340.92 204.508 340.933 204.662 340.944V342.792ZM209.662 337.156C209.516 337.181 209.365 337.204 209.209 337.224C209.142 337.233 209.074 337.241 209.006 337.248V329.856C209.234 329.882 209.453 329.913 209.662 329.95C212.001 330.364 213.134 331.501 213.134 333.528C213.134 333.536 213.134 333.544 213.134 333.552C213.125 335.568 212.048 336.739 209.662 337.156ZM204.662 329.856C204.433 329.883 204.214 329.914 204.006 329.951C201.591 330.378 200.534 331.497 200.534 333.552C200.534 335.575 201.722 336.691 204.006 337.122C204.215 337.162 204.434 337.196 204.662 337.224V329.856ZM237.832 342L230.392 325.2H225.712L218.296 342H223.144L224.464 338.736H231.568L232.888 342H237.832ZM225.856 335.232L228.016 329.856L230.176 335.232H225.856ZM244.389 342V335.568H246.549L250.365 342H255.717L250.413 333.312L255.59 325.321V328.968H260.75V342H265.43V328.968H270.566V325.2H250.677L246.669 331.728H244.389V325.2H239.661V342H244.389ZM271.447 333.891C271.596 338.782 275.506 342.336 280.778 342.336C283.572 342.336 285.983 341.338 287.655 339.672C289.201 338.132 290.114 336.021 290.114 333.6C290.114 331.179 289.201 329.068 287.655 327.528C285.983 325.862 283.572 324.864 280.778 324.864C278.809 324.864 277.03 325.36 275.566 326.236C274.409 326.928 273.449 327.858 272.747 328.968C271.912 330.289 271.442 331.865 271.442 333.6C271.442 333.697 271.444 333.794 271.447 333.891ZM292.655 342H301.271C305.575 342 307.926 340.166 307.943 337.233C307.943 337.222 307.943 337.211 307.943 337.2C307.943 337.078 307.939 336.958 307.931 336.84C307.844 335.572 307.289 334.594 306.34 333.919C305.93 333.628 305.447 333.393 304.895 333.216C305.454 332.936 305.923 332.574 306.287 332.137C306.725 331.613 307.012 330.983 307.123 330.264C307.158 330.04 307.175 329.808 307.175 329.568C307.175 329.262 307.147 328.97 307.091 328.693C306.637 326.454 304.382 325.2 300.815 325.2H292.655V342ZM297.335 331.92H300.359C300.626 331.92 300.866 331.898 301.079 331.855C301.792 331.71 302.21 331.325 302.335 330.698C302.356 330.593 302.369 330.482 302.373 330.364C302.375 330.331 302.375 330.298 302.375 330.264C302.375 330.252 302.375 330.239 302.375 330.227C302.375 330.193 302.373 330.161 302.372 330.128C302.366 330.027 302.354 329.93 302.335 329.838C302.316 329.743 302.29 329.653 302.257 329.568C302.238 329.521 302.218 329.476 302.195 329.432C302.14 329.327 302.072 329.231 301.992 329.145C301.732 328.867 301.34 328.694 300.815 328.633C300.673 328.616 300.521 328.608 300.359 328.608H297.335V331.92ZM297.335 335.136V338.592H301.079C301.145 338.592 301.209 338.591 301.271 338.588C301.699 338.569 302.054 338.486 302.335 338.341C302.586 338.211 302.778 338.033 302.912 337.806C302.967 337.714 303.011 337.615 303.047 337.507C303.078 337.411 303.102 337.309 303.118 337.2C303.135 337.087 303.143 336.967 303.143 336.84C303.143 336.827 303.143 336.813 303.143 336.8C303.143 336.779 303.142 336.759 303.141 336.739C303.138 336.643 303.129 336.551 303.115 336.464C303.033 335.948 302.772 335.587 302.335 335.372C302.012 335.214 301.593 335.136 301.079 335.136H297.335ZM36.997 325.2H33.085V342H37.453V333.288L41.773 340.344H43.885L48.205 333.096L48.229 342H52.621L52.573 325.2H48.661L42.901 334.896L36.997 325.2ZM162.7 333.4C162.709 333.401 162.751 333.406 162.814 333.432ZM162.814 333.432C162.896 333.465 162.983 333.522 163.058 333.599ZM163.058 333.599C163.059 333.599 163.059 333.6 163.06 333.6ZM163.06 333.6C163.059 333.6 163.059 333.601 163.058 333.601ZM163.058 333.601C162.983 333.679 162.896 333.735 162.814 333.768ZM162.814 333.768C162.752 333.794 162.711 333.799 162.701 333.8ZM162.701 333.8C162.701 333.8 162.701 333.8 162.701 333.8C162.692 333.799 162.65 333.794 162.586 333.768C162.505 333.735 162.417 333.679 162.342 333.601C162.342 333.601 162.341 333.6 162.341 333.6C162.341 333.6 162.342 333.599 162.342 333.599C162.417 333.522 162.505 333.465 162.586 333.432C162.65 333.406 162.691 333.401 162.7 333.4M162.219 333.42C162.219 333.421 162.219 333.421 162.219 333.422ZM280.892 333.432C280.829 333.406 280.787 333.401 280.778 333.4C280.77 333.401 280.728 333.406 280.665 333.432C280.583 333.465 280.496 333.522 280.42 333.599C280.42 333.599 280.419 333.6 280.419 333.6C280.419 333.6 280.42 333.601 280.42 333.601C280.496 333.679 280.583 333.735 280.665 333.768C280.728 333.794 280.77 333.799 280.778 333.8C280.779 333.8 280.778 333.8 280.778 333.8M281.138 333.6C281.137 333.6 281.137 333.601 281.137 333.601C281.061 333.679 280.974 333.735 280.892 333.768C280.83 333.794 280.788 333.799 280.778 333.8M280.892 333.432C280.974 333.465 281.061 333.522 281.137 333.599ZM281.137 333.599C281.137 333.599 281.137 333.6 281.138 333.6ZM127.989 305.6C127.989 308.504 129.981 310.4 132.525 310.4C135.069 310.4 137.061 308.504 137.061 305.6C137.061 302.696 135.069 300.8 132.525 300.8C129.981 300.8 127.989 302.696 127.989 305.6ZM155.106 305.6C155.106 308.504 157.098 310.4 159.642 310.4C162.186 310.4 164.178 308.504 164.178 305.6C164.178 302.696 162.186 300.8 159.642 300.8C157.098 300.8 155.106 302.696 155.106 305.6ZM158.164 333.6C158.164 336.504 160.156 338.4 162.7 338.4C165.244 338.4 167.236 336.504 167.236 333.6C167.236 330.696 165.244 328.8 162.7 328.8C160.156 328.8 158.164 330.696 158.164 333.6ZM276.242 333.6C276.242 336.504 278.234 338.4 280.778 338.4C283.322 338.4 285.314 336.504 285.314 333.6C285.314 330.696 283.322 328.8 280.778 328.8C278.234 328.8 276.242 330.696 276.242 333.6Z" fill="white"/>
<rect x="16" y="397" width="125" height="43" rx="13" fill="white"/>
<rect x="195" y="397" width="125" height="43" rx="13" fill="white"/>
<path d="M252 5C252 26.7477 243.361 47.6048 227.983 62.9828C212.605 78.3607 191.748 87 170 87C148.252 87 127.395 78.3607 112.017 62.9828C96.6393 47.6048 88 26.7478 88 5.00002L170 5H252Z" fill="white"/>
<path d="M48.032 423.216C48.032 414.96 35.328 417.52 35.328 414.096C35.328 412.976 36.288 412.08 38.944 412.08C40.896 412.08 43.008 412.656 45.152 413.808L47.104 409.104C45.312 408.048 42.976 407.408 40.608 407.216V403.76H36.768V407.28C31.584 407.92 29.056 410.896 29.056 414.416C29.056 422.736 41.792 420.144 41.792 423.696C41.792 424.784 40.768 425.52 38.144 425.52C35.552 425.52 32.736 424.624 30.752 423.312L28.672 427.984C30.528 429.264 33.568 430.192 36.768 430.416V433.84H40.608V430.288C45.6 429.552 48.032 426.608 48.032 423.216Z" fill="#00BCBC"/>
<path d="M60.14 412V414.6H62.94V426H66.18V412H60.14ZM74.612 426.24C78.072 426.24 80.612 423.62 80.612 419C80.612 414.38 78.072 411.76 74.612 411.76C71.172 411.76 68.612 414.38 68.612 419C68.612 423.62 71.172 426.24 74.612 426.24ZM74.612 423.5C73.012 423.5 71.892 422.18 71.892 419C71.892 415.82 73.012 414.5 74.612 414.5C76.232 414.5 77.352 415.82 77.352 419C77.352 422.18 76.232 423.5 74.612 423.5ZM93.8503 426.24C97.3103 426.24 99.8503 423.62 99.8503 419C99.8503 414.38 97.3103 411.76 93.8503 411.76C90.4103 411.76 87.8503 414.38 87.8503 419C87.8503 423.62 90.4103 426.24 93.8503 426.24ZM93.8503 423.5C92.2503 423.5 91.1303 422.18 91.1303 419C91.1303 415.82 92.2503 414.5 93.8503 414.5C95.4703 414.5 96.5903 415.82 96.5903 419C96.5903 422.18 95.4703 423.5 93.8503 423.5ZM107.425 426.24C110.885 426.24 113.425 423.62 113.425 419C113.425 414.38 110.885 411.76 107.425 411.76C103.985 411.76 101.425 414.38 101.425 419C101.425 423.62 103.985 426.24 107.425 426.24ZM107.425 423.5C105.825 423.5 104.705 422.18 104.705 419C104.705 415.82 105.825 414.5 107.425 414.5C109.045 414.5 110.165 415.82 110.165 419C110.165 422.18 109.045 423.5 107.425 423.5ZM120.999 426.24C124.459 426.24 126.999 423.62 126.999 419C126.999 414.38 124.459 411.76 120.999 411.76C117.559 411.76 114.999 414.38 114.999 419C114.999 423.62 117.559 426.24 120.999 426.24ZM120.999 423.5C119.399 423.5 118.279 422.18 118.279 419C118.279 415.82 119.399 414.5 120.999 414.5C122.619 414.5 123.739 415.82 123.739 419C123.739 422.18 122.619 423.5 120.999 423.5Z" fill="black"/>
<path d="M242.32 417.7L245.48 414.1V412H235.68V414.6H241.64L238.76 417.86V420H240.24C242.08 420 242.86 420.66 242.86 421.72C242.86 422.86 241.86 423.52 240.24 423.52C238.78 423.52 237.3 423.06 236.24 422.26L234.98 424.74C236.34 425.7 238.36 426.24 240.32 426.24C244.3 426.24 246.12 424.08 246.12 421.72C246.12 419.66 244.84 418.1 242.32 417.7ZM253.616 426.24C257.076 426.24 259.616 423.62 259.616 419C259.616 414.38 257.076 411.76 253.616 411.76C250.176 411.76 247.616 414.38 247.616 419C247.616 423.62 250.176 426.24 253.616 426.24ZM253.616 423.5C252.016 423.5 250.896 422.18 250.896 419C250.896 415.82 252.016 414.5 253.616 414.5C255.236 414.5 256.356 415.82 256.356 419C256.356 422.18 255.236 423.5 253.616 423.5ZM280.894 426L280.854 415.24H277.934L274.274 421.46L270.834 415.24H267.574V426H270.394V419.54L273.534 424.96H274.854L278.074 419.56V426H280.894ZM283.883 426H286.763L291.983 419.6V426H295.083V415.24H292.223L286.983 421.64V415.24H283.883V426ZM298.082 426H301.182V421.98H305.862V426H308.982V415.24H305.862V419.44H301.182V415.24H298.082V426Z" fill="black"/>
<path d="M216.5 406C209.595 406 204 411.595 204 418.5C204 425.405 209.595 431 216.5 431C223.405 431 229 425.405 229 418.5C229 411.595 223.405 406 216.5 406Z" fill="#00BCBC"/>
<path fill-rule="evenodd" clip-rule="evenodd" d="M215.961 410C214.878 410 214 410.878 214 411.961V419.153C214 419.311 214.019 419.464 214.054 419.611C214.047 420.263 214.376 420.901 214.974 421.262L220.414 424.535C221.313 425.077 222.481 424.786 223.022 423.887C223.563 422.988 223.273 421.82 222.374 421.279L217.923 418.6V411.961C217.923 410.878 217.045 410 215.961 410Z" fill="white"/>
<g filter="url(#filter0_d)">
<path d="M162.531 400.393L185.975 433.213C179.766 434.57 168.698 428.331 168.698 428.331C168.698 428.331 160.834 438.706 154.912 440L162.531 400.393Z" fill="white"/>
<path fill-rule="evenodd" clip-rule="evenodd" d="M154.912 440L158.469 421.51C161.522 424.284 164.956 426.604 168.698 428.331C168.698 428.331 160.834 438.706 154.912 440Z" fill="#BBFFF9"/>
</g>
<path d="M139.53 25.4V34.274H147.07V66H158.554V25.4H139.53ZM182.756 40.19H180.03L180.552 34.274H196.908V25.4H171.04L169.01 49.122H180.03C186.236 49.122 187.918 50.746 187.918 53.24C187.918 55.966 185.308 57.532 181.422 57.532C177.536 57.532 173.476 56.372 170.17 54.168L166.052 62.81C170.17 65.42 176.144 66.812 181.77 66.812C194.008 66.812 199.46 60.2 199.46 52.95C199.46 45.758 194.762 40.19 182.756 40.19Z" fill="#46BBCE"/>
<g filter="url(#filter1_di)">
<path d="M169.5 123C133.383 123 104 149.561 104 182.211C104 193.623 107.594 204.678 114.41 214.237C113.12 228.572 109.662 239.215 104.64 244.257C103.976 244.923 103.81 245.943 104.229 246.785C104.601 247.537 105.365 248 106.184 248C106.284 248 106.384 247.993 106.487 247.978C107.371 247.853 127.912 244.884 142.77 236.27C151.206 239.689 160.193 241.421 169.5 241.421C205.617 241.421 235 214.86 235 182.211C235 149.561 205.617 123 169.5 123ZM138.933 190.982C134.117 190.982 130.2 187.048 130.2 182.211C130.2 177.373 134.117 173.439 138.933 173.439C143.75 173.439 147.667 177.373 147.667 182.211C147.667 187.048 143.75 190.982 138.933 190.982ZM169.5 190.982C164.684 190.982 160.767 187.048 160.767 182.211C160.767 177.373 164.684 173.439 169.5 173.439C174.317 173.439 178.233 177.373 178.233 182.211C178.233 187.048 174.317 190.982 169.5 190.982ZM200.067 190.982C195.25 190.982 191.333 187.048 191.333 182.211C191.333 177.373 195.25 173.439 200.067 173.439C204.883 173.439 208.8 177.373 208.8 182.211C208.8 187.048 204.883 190.982 200.067 190.982Z" fill="white"/>
</g>
<defs>
<filter id="filter0_d" x="143" y="393" width="52.975" height="57.0001" filterUnits="userSpaceOnUse" color-interpolation-filters="sRGB">
<feFlood flood-opacity="0" result="BackgroundImageFix"/>
<feColorMatrix in="SourceAlpha" type="matrix" values="0 0 0 0 0 0 0 0 0 0 0 0 0 0 0 0 0 0 127 0"/>
<feOffset dx="3" dy="3"/>
<feGaussianBlur stdDeviation="3.5"/>
<feColorMatrix type="matrix" values="0 0 0 0 0.279 0 0 0 0 0.9 0 0 0 0 0.840225 0 0 0 1 0"/>
<feBlend mode="normal" in2="BackgroundImageFix" result="effect1_dropShadow"/>
<feBlend mode="normal" in="SourceGraphic" in2="effect1_dropShadow" result="shape"/>
</filter>
<filter id="filter1_di" x="98" y="117" width="151" height="145" filterUnits="userSpaceOnUse" color-interpolation-filters="sRGB">
<feFlood flood-opacity="0" result="BackgroundImageFix"/>
<feColorMatrix in="SourceAlpha" type="matrix" values="0 0 0 0 0 0 0 0 0 0 0 0 0 0 0 0 0 0 127 0"/>
<feOffset dx="4" dy="4"/>
<feGaussianBlur stdDeviation="5"/>
<feColorMatrix type="matrix" values="0 0 0 0 0.1715 0 0 0 0 0.816667 0 0 0 0 0.816667 0 0 0 1 0"/>
<feBlend mode="normal" in2="BackgroundImageFix" result="effect1_dropShadow"/>
<feBlend mode="normal" in="SourceGraphic" in2="effect1_dropShadow" result="shape"/>
<feColorMatrix in="SourceAlpha" type="matrix" values="0 0 0 0 0 0 0 0 0 0 0 0 0 0 0 0 0 0 127 0" result="hardAlpha"/>
<feOffset dx="-4" dy="-4"/>
<feGaussianBlur stdDeviation="4.5"/>
<feComposite in2="hardAlpha" operator="arithmetic" k2="-1" k3="1"/>
<feColorMatrix type="matrix" values="0 0 0 0 0.441945 0 0 0 0 0.887146 0 0 0 0 0.895833 0 0 0 0.52 0"/>
<feBlend mode="normal" in2="shape" result="effect2_innerShadow"/>
</filter>
<linearGradient id="paint0_linear" x1="5.5" y1="-157" x2="289.5" y2="495.5" gradientUnits="userSpaceOnUse">
<stop stop-color="#00C2FF"/>
<stop offset="1" stop-color="#1EE7CF"/>
</linearGradient>
<linearGradient id="paint1_linear" x1="49" y1="11" x2="301.5" y2="474" gradientUnits="userSpaceOnUse">
<stop stop-color="#19D2EB"/>
<stop offset="1" stop-color="#55F5DF"/>
</linearGradient>
<linearGradient id="paint2_linear" x1="59.5" y1="-9" x2="291.5" y2="495.5" gradientUnits="userSpaceOnUse">
<stop stop-color="#00E0FF"/>
<stop offset="1" stop-color="#42F2D1"/>
</linearGradient>
<linearGradient id="paint3_linear" x1="51" y1="11" x2="303.5" y2="474" gradientUnits="userSpaceOnUse">
<stop stop-color="#B2F6FF"/>
<stop offset="1" stop-color="#28D7BE"/>
</linearGradient>
<linearGradient id="paint4_linear" x1="27" y1="473.49" x2="247.084" y2="60.8524" gradientUnits="userSpaceOnUse">
<stop stop-color="#73F5FF"/>
<stop offset="0.99" stop-color="#7AFFEC"/>
</linearGradient>
<linearGradient id="paint5_linear" x1="129.774" y1="288" x2="310" y2="288" gradientUnits="userSpaceOnUse">
<stop stop-color="white"/>
<stop offset="0.99" stop-color="white" stop-opacity="0.4"/>
</linearGradient>
<linearGradient id="paint6_linear" x1="59.8997" y1="86" x2="140" y2="86" gradientUnits="userSpaceOnUse">
<stop stop-color="white"/>
<stop offset="0.99" stop-color="white" stop-opacity="0.4"/>
</linearGradient>
</defs>
</svg>
