<svg width="338" height="474" viewBox="0 0 338 474" fill="none" xmlns="http://www.w3.org/2000/svg">
<rect x="2.5" y="2.5" width="331" height="469" rx="32.5" fill="url(#paint0_linear)" stroke="url(#paint1_linear)" stroke-width="5"/>
<mask id="mask0" mask-type="alpha" maskUnits="userSpaceOnUse" x="2" y="0" width="336" height="474">
<rect x="4.5" y="2.5" width="331" height="469" rx="41.5" fill="url(#paint2_linear)" stroke="url(#paint3_linear)" stroke-width="5"/>
</mask>
<g mask="url(#mask0)">
<path d="M198.89 5.0093C198.89 5.0093 97.8208 47.0947 93.9888 101.845C90.1568 156.595 112.775 152.615 106.069 185.086C99.3631 217.557 -10.9124 255.616 18.7856 356.766C48.4837 457.916 142.368 370.584 242 469H35C18.4315 469 5 455.569 5 439V35.0014C5 18.4323 18.4323 5.00064 35.0014 5.00144L198.89 5.0093Z" fill="url(#paint4_linear)" fill-opacity="0.5"/>
</g>
<path opacity="0.46" d="M219.887 378C202.092 377.978 184.702 372.68 169.917 362.777C155.131 352.875 143.613 338.811 136.819 322.363C130.024 305.916 128.258 287.824 131.743 270.373C135.229 252.922 143.809 236.896 156.4 224.321C168.992 211.745 185.028 203.185 202.483 199.721C219.939 196.258 238.029 198.046 254.468 204.862C270.906 211.677 284.956 223.212 294.84 238.01C304.724 252.808 310 270.204 310 288C309.958 311.876 300.447 334.761 283.553 351.633C266.66 368.506 243.763 377.988 219.887 378ZM219.887 222.747C206.985 222.764 194.378 226.607 183.659 233.788C172.94 240.969 164.59 251.166 159.665 263.091C154.74 275.016 153.461 288.134 155.989 300.786C158.517 313.438 164.739 325.056 173.868 334.173C182.998 343.29 194.625 349.496 207.28 352.006C219.936 354.517 233.051 353.219 244.97 348.278C256.888 343.336 267.074 334.972 274.24 324.243C281.406 313.515 285.231 300.902 285.231 288C285.177 270.703 278.27 254.132 266.022 241.918C253.774 229.704 237.184 222.843 219.887 222.837V222.747Z" fill="url(#paint5_linear)"/>
<path opacity="0.46" d="M99.9498 126C92.0407 125.99 84.3121 123.636 77.7407 119.234C71.1694 114.833 66.0503 108.583 63.0305 101.273C60.0106 93.9627 59.2257 85.9216 60.7747 78.1657C62.3238 70.4097 66.1374 63.2871 71.7335 57.698C77.3296 52.1089 84.457 48.3043 92.2148 46.7649C99.9727 45.2256 108.013 46.0207 115.319 49.0496C122.625 52.0786 128.869 57.2055 133.262 63.7824C137.655 70.3593 140 78.0909 140 86C139.981 96.6116 135.754 106.783 128.246 114.281C120.738 121.78 110.561 125.995 99.9498 126ZM99.9498 56.9985C94.2156 57.0064 88.6124 58.7141 83.8484 61.9056C79.0844 65.0972 75.3735 69.6294 73.1846 74.9294C70.9957 80.2294 70.4271 86.0594 71.5506 91.6825C72.6742 97.3056 75.4395 102.469 79.497 106.521C83.5545 110.573 88.7222 113.331 94.3468 114.447C99.9715 115.563 105.801 114.986 111.098 112.79C116.395 110.594 120.922 106.877 124.107 102.108C127.292 97.3398 128.991 91.7342 128.991 86C128.968 78.3124 125.898 70.9477 120.454 65.5193C115.011 60.0908 107.637 57.0412 99.9498 57.0386V56.9985Z" fill="url(#paint6_linear)"/>
<path d="M93.257 293.2L89.2009 301.312L85.2889 293.2H80.2729L86.801 305.296C86.1769 306.208 85.5049 306.592 84.5689 306.592C84.0649 306.592 83.5369 306.496 82.8889 306.304L81.7609 309.808C82.7929 310.216 83.7769 310.432 84.7369 310.432C87.2569 310.432 89.4409 308.992 90.9289 306.184L97.889 293.2H93.257Z" fill="black"/>
<path d="M107.363 310.336C110.459 310.336 112.955 309.208 114.587 307.168L111.563 304.432C110.507 305.704 109.211 306.4 107.603 306.4C104.843 306.4 102.923 304.48 102.923 301.6C102.923 298.72 104.843 296.8 107.603 296.8C109.211 296.8 110.507 297.496 111.563 298.768L114.587 296.032C112.955 293.992 110.459 292.864 107.363 292.864C102.035 292.864 98.1229 296.488 98.1229 301.6C98.1229 306.712 102.035 310.336 107.363 310.336Z" fill="black"/>
<path d="M130.129 293.2H115.153V296.968H120.313V310H124.993V296.968H130.129V293.2Z" fill="black"/>
<path d="M144.388 310H149.332L141.892 293.2H137.212L129.796 310H134.644L135.964 306.736H143.068L144.388 310ZM137.356 303.232L139.516 297.856L141.676 303.232H137.356Z" fill="black"/>
<path d="M162.489 293.2V299.512H156.009V293.2H151.257V310H156.009V303.448H162.489V310H167.241V293.2H162.489Z" fill="black"/>
<path d="M179.107 310.336C184.483 310.336 188.443 306.64 188.443 301.6C188.443 296.56 184.483 292.864 179.107 292.864C173.731 292.864 169.771 296.56 169.771 301.6C169.771 306.64 173.731 310.336 179.107 310.336ZM179.107 306.4C176.563 306.4 174.571 304.504 174.571 301.6C174.571 298.696 176.563 296.8 179.107 296.8C181.651 296.8 183.643 298.696 183.643 301.6C183.643 304.504 181.651 306.4 179.107 306.4Z" fill="black"/>
<path d="M203.224 301.216C204.664 300.496 205.504 299.224 205.504 297.568C205.504 294.784 203.152 293.2 199.144 293.2H190.984V310H199.6C203.92 310 206.272 308.152 206.272 305.2C206.272 303.184 205.168 301.84 203.224 301.216ZM195.664 296.608H198.688C200.032 296.608 200.704 297.184 200.704 298.264C200.704 299.368 200.032 299.92 198.688 299.92H195.664V296.608ZM199.408 306.592H195.664V303.136H199.408C200.776 303.136 201.472 303.688 201.472 304.84C201.472 305.992 200.776 306.592 199.408 306.592Z" fill="black"/>
<path d="M208.843 310H213.331L220.243 300.16V310H224.923V293.2H220.459L213.523 303.064V293.2H208.843V310Z" fill="black"/>
<path d="M242.067 293.2H227.091V296.968H232.251V310H236.931V296.968H242.067V293.2Z" fill="black"/>
<path d="M252.825 298.552H248.937V293.2H244.257V310H252.201C256.569 310 259.281 307.96 259.281 304.024C259.281 300.352 256.905 298.552 252.825 298.552ZM251.889 306.592H248.937V301.936H251.889C253.497 301.936 254.505 302.536 254.505 304.12C254.505 305.704 253.473 306.592 251.889 306.592Z" fill="black"/>
<path d="M96.8483 321.2H89.1683V338H93.9203V333.608H96.8483C101.432 333.608 104.312 331.232 104.312 327.416C104.312 323.576 101.432 321.2 96.8483 321.2ZM96.5603 329.864H93.9203V324.944H96.5603C98.5283 324.944 99.5123 325.856 99.5123 327.416C99.5123 328.952 98.5283 329.864 96.5603 329.864Z" fill="black"/>
<path d="M117.861 321.2V327.512H111.381V321.2H106.629V338H111.381V331.448H117.861V338H122.613V321.2H117.861Z" fill="black"/>
<path d="M134.437 338.336C139.813 338.336 143.773 334.64 143.773 329.6C143.773 324.56 139.813 320.864 134.437 320.864C129.061 320.864 125.101 324.56 125.101 329.6C125.101 334.64 129.061 338.336 134.437 338.336ZM134.437 334.4C131.893 334.4 129.901 332.504 129.901 329.6C129.901 326.696 131.893 324.8 134.437 324.8C136.981 324.8 138.973 326.696 138.973 329.6C138.973 332.504 136.981 334.4 134.437 334.4Z" fill="black"/>
<path d="M149.604 338H154.356V324.968H159.492V321.2H144.444V324.968H149.604V338Z" fill="black"/>
<path d="M169.5 338.336C174.876 338.336 178.836 334.64 178.836 329.6C178.836 324.56 174.876 320.864 169.5 320.864C164.124 320.864 160.164 324.56 160.164 329.6C160.164 334.64 164.124 338.336 169.5 338.336ZM169.5 334.4C166.956 334.4 164.964 332.504 164.964 329.6C164.964 326.696 166.956 324.8 169.5 324.8C172.044 324.8 174.036 326.696 174.036 329.6C174.036 332.504 172.044 334.4 169.5 334.4Z" fill="black"/>
<path d="M187.229 338.336C192.221 338.336 194.669 335.84 194.669 332.912C194.669 326.72 185.141 328.64 185.141 326.072C185.141 325.232 185.861 324.56 187.853 324.56C189.317 324.56 190.901 324.992 192.509 325.856L193.973 322.328C192.317 321.368 190.061 320.864 187.877 320.864C182.885 320.864 180.437 323.312 180.437 326.312C180.437 332.552 189.989 330.608 189.989 333.272C189.989 334.088 189.221 334.64 187.253 334.64C185.309 334.64 183.197 333.968 181.709 332.984L180.149 336.488C181.733 337.592 184.469 338.336 187.229 338.336Z" fill="black"/>
<path d="M208.096 321.2V327.512H201.616V321.2H196.864V338H201.616V331.448H208.096V338H212.848V321.2H208.096Z" fill="black"/>
<path d="M224.672 338.336C230.048 338.336 234.008 334.64 234.008 329.6C234.008 324.56 230.048 320.864 224.672 320.864C219.296 320.864 215.336 324.56 215.336 329.6C215.336 334.64 219.296 338.336 224.672 338.336ZM224.672 334.4C222.128 334.4 220.136 332.504 220.136 329.6C220.136 326.696 222.128 324.8 224.672 324.8C227.216 324.8 229.208 326.696 229.208 329.6C229.208 332.504 227.216 334.4 224.672 334.4Z" fill="black"/>
<path d="M244.176 321.2H236.496V338H241.248V333.608H244.176C248.76 333.608 251.64 331.232 251.64 327.416C251.64 323.576 248.76 321.2 244.176 321.2ZM243.888 329.864H241.248V324.944H243.888C245.856 324.944 246.84 325.856 246.84 327.416C246.84 328.952 245.856 329.864 243.888 329.864Z" fill="black"/>
<path fill-rule="evenodd" clip-rule="evenodd" d="M89.273 290.179C90.2074 288.946 91.6755 288.2 93.257 288.2H97.889C99.0129 288.2 100.084 288.577 100.946 289.244C102.881 288.35 105.063 287.864 107.363 287.864C109.258 287.864 111.089 288.172 112.778 288.799C113.485 288.417 114.294 288.2 115.153 288.2H130.129C131.513 288.2 132.765 288.762 133.67 289.67C134.592 288.746 135.858 288.2 137.212 288.2H141.892C143.87 288.2 145.662 289.366 146.464 291.175L146.578 291.434C147.292 289.544 149.117 288.2 151.257 288.2H156.009C157.245 288.2 158.376 288.649 159.249 289.392C160.122 288.649 161.253 288.2 162.489 288.2H167.241C168.817 288.2 170.223 288.929 171.14 290.069C173.43 288.654 176.177 287.864 179.107 287.864C182.039 287.864 184.79 288.656 187.081 290.074C187.998 288.931 189.405 288.2 190.984 288.2H199.144C201.261 288.2 203.491 288.535 205.461 289.517C206.352 288.699 207.539 288.2 208.843 288.2H213.523C214.87 288.2 216.092 288.732 216.991 289.598C217.914 288.71 219.154 288.2 220.459 288.2H224.923C225.295 288.2 225.658 288.241 226.007 288.318C226.356 288.241 226.718 288.2 227.091 288.2H242.067C242.443 288.2 242.809 288.242 243.162 288.32C243.514 288.242 243.881 288.2 244.257 288.2H248.937C251.699 288.2 253.937 290.439 253.937 293.2V293.587C256.291 293.735 258.747 294.392 260.761 296.051C263.262 298.11 264.281 301.04 264.281 304.024C264.281 307.233 263.116 310.253 260.546 312.357C258.129 314.336 255.081 315 252.201 315H244.257C242.81 315 241.507 314.385 240.594 313.403C239.681 314.385 238.377 315 236.931 315H232.251C230.803 315 229.5 314.385 228.587 313.403C227.674 314.385 226.37 315 224.923 315H220.243C218.902 315 217.685 314.472 216.787 313.613C215.866 314.495 214.631 315 213.331 315H208.843C207.621 315 206.501 314.561 205.632 313.833C203.754 314.681 201.657 315 199.6 315H190.984C189.405 315 187.998 314.269 187.081 313.126C184.79 314.544 182.039 315.336 179.107 315.336C176.177 315.336 173.43 314.546 171.14 313.131C170.223 314.271 168.817 315 167.241 315H162.489C161.253 315 160.122 314.552 159.249 313.808C158.376 314.552 157.245 315 156.009 315H151.257C150.927 315 150.604 314.968 150.292 314.907C149.979 314.968 149.657 315 149.332 315H144.388C142.35 315 140.516 313.764 139.753 311.875L139.696 311.736H139.335L139.279 311.875C138.515 313.764 136.681 315 134.644 315H129.796C128.944 315 128.12 314.783 127.395 314.386C126.682 314.777 125.864 315 124.993 315H120.313C118.518 315 116.944 314.054 116.062 312.633C113.601 314.451 110.573 315.336 107.363 315.336C102.212 315.336 97.6487 312.9 95.1468 308.892C92.9754 312.747 89.3697 315.432 84.7369 315.432C83.0143 315.432 81.4016 315.043 79.9227 314.458C77.472 313.489 76.194 310.784 77.0015 308.276L78.1295 304.772C78.4212 303.866 78.9477 303.099 79.6207 302.519L75.8728 295.575C75.0366 294.025 75.077 292.15 75.9792 290.638C76.8813 289.126 78.5122 288.2 80.273 288.2H85.2889C86.8717 288.2 88.3392 288.947 89.273 290.179ZM83.1202 306.37C83.0448 306.349 82.9678 306.327 82.889 306.304L81.761 309.808C81.7878 309.819 81.8146 309.829 81.8414 309.839C82.2457 309.996 82.6427 310.122 83.0339 310.218C83.5548 310.345 84.0653 310.417 84.569 310.43C84.625 310.431 84.681 310.432 84.7369 310.432C85.5067 310.432 86.2451 310.298 86.9419 310.031C88.1246 309.578 89.1874 308.745 90.0802 307.54C90.3834 307.13 90.6669 306.678 90.929 306.184L97.889 293.2H93.257L89.201 301.312L85.2889 293.2H80.273L86.801 305.296C86.7323 305.396 86.6631 305.49 86.593 305.578C86.0647 306.239 85.4871 306.549 84.7369 306.588C84.6819 306.591 84.6259 306.592 84.569 306.592C84.5148 306.592 84.4605 306.591 84.4057 306.589C84.0123 306.573 83.5985 306.5 83.1202 306.37ZM120.313 310H124.993V296.968H130.129V293.2H115.153V296.968H120.313V310ZM111.563 298.768L114.587 296.032C114.38 295.773 114.159 295.53 113.925 295.301C112.925 294.323 111.68 293.62 110.234 293.228C110.207 293.221 110.18 293.213 110.153 293.206C109.36 292.999 108.508 292.884 107.603 292.866C107.523 292.865 107.443 292.864 107.363 292.864C105.692 292.864 104.16 293.221 102.844 293.868C102.233 294.169 101.668 294.532 101.158 294.952C99.2659 296.508 98.1229 298.837 98.1229 301.6C98.1229 302.124 98.164 302.632 98.2434 303.122C98.9393 307.416 102.581 310.336 107.363 310.336C107.443 310.336 107.523 310.335 107.603 310.334C108.539 310.316 109.418 310.193 110.234 309.972C111.68 309.58 112.925 308.878 113.925 307.899C114.159 307.67 114.38 307.427 114.587 307.168L111.563 304.432C111.51 304.496 111.456 304.559 111.402 304.62C111.323 304.708 111.242 304.794 111.161 304.876C110.182 305.865 109.012 306.4 107.603 306.4C107.522 306.4 107.442 306.398 107.363 306.395C104.732 306.287 102.923 304.396 102.923 301.6C102.923 298.804 104.732 296.913 107.363 296.805C107.442 296.802 107.522 296.8 107.603 296.8C108.571 296.8 109.427 297.052 110.184 297.531C110.53 297.749 110.855 298.014 111.161 298.324C111.242 298.406 111.323 298.492 111.402 298.58C111.456 298.641 111.51 298.704 111.563 298.768ZM149.332 310L141.892 293.2H137.212L129.796 310H134.644L135.964 306.736H143.068L144.388 310H149.332ZM139.516 297.856L137.356 303.232H141.676L139.516 297.856ZM156.009 310V303.448H162.489V310H167.241V293.2H162.489V299.512H156.009V293.2H151.257V310H156.009ZM172.241 307.683C173.913 309.342 176.319 310.336 179.107 310.336C181.9 310.336 184.312 309.338 185.984 307.672C187.529 306.132 188.443 304.021 188.443 301.6C188.443 299.179 187.529 297.068 185.984 295.528C184.312 293.862 181.9 292.864 179.107 292.864C176.319 292.864 173.913 293.858 172.241 295.517C170.689 297.058 169.771 299.173 169.771 301.6C169.771 304.027 170.689 306.142 172.241 307.683ZM190.984 310H199.6C201.343 310 202.766 309.699 203.843 309.146C205.425 308.334 206.261 306.978 206.272 305.233C206.272 305.222 206.272 305.211 206.272 305.2C206.272 305.078 206.268 304.958 206.259 304.84C206.172 303.572 205.617 302.594 204.669 301.919C204.42 301.743 204.144 301.587 203.843 301.452C203.647 301.364 203.441 301.286 203.224 301.216C203.445 301.106 203.651 300.982 203.843 300.846C204.137 300.638 204.395 300.401 204.616 300.137C205.053 299.613 205.34 298.983 205.451 298.264C205.486 298.04 205.504 297.808 205.504 297.568C205.504 297.262 205.475 296.97 205.419 296.693C205.222 295.718 204.683 294.93 203.843 294.351C202.754 293.6 201.158 293.2 199.144 293.2H190.984V310ZM195.664 299.92H198.688C198.954 299.92 199.194 299.898 199.408 299.855C200.12 299.71 200.539 299.325 200.664 298.698C200.685 298.593 200.697 298.482 200.702 298.364C200.703 298.331 200.704 298.298 200.704 298.264C200.704 298.252 200.704 298.239 200.703 298.227C200.703 298.193 200.702 298.161 200.7 298.128C200.694 298.027 200.682 297.93 200.664 297.838C200.644 297.743 200.618 297.653 200.585 297.568C200.567 297.521 200.546 297.476 200.523 297.432C200.468 297.327 200.401 297.231 200.321 297.145C200.061 296.867 199.668 296.694 199.144 296.633C199.001 296.616 198.849 296.608 198.688 296.608H195.664V299.92ZM195.664 303.136V306.592H199.408C199.473 306.592 199.537 306.591 199.6 306.588C200.027 306.569 200.382 306.486 200.664 306.341C200.914 306.211 201.106 306.033 201.241 305.806C201.295 305.714 201.34 305.615 201.375 305.507C201.407 305.411 201.43 305.309 201.446 305.2C201.463 305.087 201.472 304.967 201.472 304.84C201.472 304.827 201.472 304.813 201.471 304.8C201.471 304.779 201.471 304.759 201.47 304.739C201.466 304.643 201.458 304.551 201.444 304.464C201.362 303.948 201.101 303.587 200.664 303.372C200.341 303.214 199.922 303.136 199.408 303.136H195.664ZM208.843 310H213.331L220.243 300.16V310H224.923V293.2H220.459L213.523 303.064V293.2H208.843V310ZM232.251 310H236.931V296.968H242.067V293.2H227.091V296.968H232.251V310ZM244.257 310H252.201C256.533 310 259.237 307.993 259.281 304.12C259.281 304.088 259.281 304.056 259.281 304.024C259.281 300.352 256.905 298.552 252.825 298.552H248.937V293.2H244.257V310ZM248.937 306.592H251.889C251.996 306.592 252.1 306.588 252.201 306.58C252.938 306.522 253.535 306.255 253.937 305.801C254.302 305.389 254.505 304.823 254.505 304.12C254.505 304.088 254.505 304.056 254.504 304.024C254.486 303.365 254.287 302.884 253.937 302.551C253.657 302.285 253.281 302.113 252.825 302.02C252.542 301.963 252.229 301.936 251.889 301.936H248.937V306.592ZM179.107 301.4C179.098 301.401 179.057 301.406 178.993 301.432C178.911 301.465 178.824 301.522 178.749 301.599C178.748 301.599 178.748 301.6 178.747 301.6C178.748 301.6 178.748 301.601 178.749 301.601C178.824 301.679 178.911 301.735 178.993 301.768C179.057 301.794 179.098 301.799 179.107 301.8C179.116 301.799 179.157 301.794 179.221 301.768C179.302 301.735 179.39 301.679 179.465 301.601C179.465 301.601 179.466 301.6 179.466 301.6C179.466 301.6 179.465 301.599 179.465 301.599C179.39 301.522 179.302 301.465 179.221 301.432C179.157 301.406 179.116 301.401 179.107 301.4ZM84.1683 321.2C84.1683 318.439 86.4069 316.2 89.1683 316.2H96.8483C99.0471 316.2 101.248 316.603 103.208 317.554C104.102 316.714 105.306 316.2 106.629 316.2H111.381C112.617 316.2 113.749 316.649 114.621 317.392C115.494 316.649 116.625 316.2 117.861 316.2H122.613C124.182 316.2 125.581 316.922 126.498 318.052C128.783 316.648 131.52 315.864 134.437 315.864C136.867 315.864 139.171 316.407 141.194 317.4C142.068 316.652 143.203 316.2 144.444 316.2H159.492C160.733 316.2 161.868 316.652 162.742 317.401C164.765 316.408 167.07 315.864 169.5 315.864C172.983 315.864 176.208 316.981 178.714 318.937C178.86 318.807 179.01 318.68 179.165 318.556C181.536 316.662 184.613 315.864 187.877 315.864C189.932 315.864 192.164 316.197 194.224 316.953C194.99 316.476 195.895 316.2 196.864 316.2H201.616C202.852 316.2 203.983 316.649 204.856 317.392C205.728 316.649 206.86 316.2 208.096 316.2H212.848C214.416 316.2 215.816 316.922 216.732 318.052C219.017 316.648 221.754 315.864 224.672 315.864C227.589 315.864 230.327 316.648 232.611 318.052C233.528 316.922 234.928 316.2 236.496 316.2H244.176C247.283 316.2 250.393 317.004 252.822 319.022C255.357 321.128 256.64 324.142 256.64 327.416C256.64 330.687 255.35 333.695 252.817 335.794C250.925 337.36 248.621 338.195 246.225 338.486C245.981 341.02 243.846 343 241.248 343H236.496C234.928 343 233.528 342.278 232.611 341.148C230.327 342.552 227.589 343.336 224.672 343.336C221.754 343.336 219.017 342.552 216.732 341.148C215.816 342.278 214.416 343 212.848 343H208.096C206.86 343 205.728 342.552 204.856 341.808C203.983 342.552 202.852 343 201.616 343H196.864C195.716 343 194.658 342.613 193.814 341.963C191.855 342.909 189.598 343.336 187.229 343.336C184.004 343.336 180.428 342.555 177.795 340.922C175.441 342.468 172.57 343.336 169.5 343.336C165.482 343.336 161.807 341.85 159.184 339.304C158.61 341.433 156.666 343 154.356 343H149.604C147.287 343 145.339 341.425 144.771 339.287C142.146 341.843 138.464 343.336 134.437 343.336C131.52 343.336 128.783 342.552 126.498 341.148C125.581 342.278 124.182 343 122.613 343H117.861C116.625 343 115.494 342.552 114.621 341.808C113.749 342.552 112.617 343 111.381 343H106.629C103.868 343 101.629 340.761 101.629 338V337.889C100.745 338.178 99.8278 338.373 98.897 338.486C98.6525 341.02 96.5177 343 93.9203 343H89.1683C86.4069 343 84.1683 340.761 84.1683 338V321.2ZM89.1683 321.2V338H93.9203V333.608H96.8483C98.7705 333.608 100.393 333.19 101.629 332.424C103.341 331.362 104.312 329.632 104.312 327.416C104.312 325.186 103.341 323.45 101.629 322.386C100.393 321.618 98.7705 321.2 96.8483 321.2H89.1683ZM93.9203 324.944V329.864H96.5603C96.6588 329.864 96.7548 329.862 96.8483 329.857C97.7871 329.812 98.4778 329.54 98.9203 329.078C99.315 328.667 99.5123 328.104 99.5123 327.416C99.5123 326.717 99.315 326.149 98.9203 325.734C98.4778 325.268 97.7871 324.996 96.8483 324.951C96.7548 324.946 96.6588 324.944 96.5603 324.944H93.9203ZM106.629 338H111.381V331.448H117.861V338H122.613V321.2H117.861V327.512H111.381V321.2H106.629V338ZM149.604 338H154.356V324.968H159.492V321.2H144.444V324.968H149.604V338ZM196.864 338H201.616V331.448H208.096V338H212.848V321.2H208.096V327.512H201.616V321.2H196.864V338ZM160.169 329.923C160.334 334.797 164.239 338.336 169.5 338.336C171.671 338.336 173.61 337.733 175.152 336.683C175.827 336.223 176.426 335.676 176.935 335.057C177.442 334.44 177.859 333.749 178.172 333C178.357 332.555 178.506 332.09 178.615 331.607C178.76 330.968 178.836 330.297 178.836 329.6C178.836 329.367 178.827 329.137 178.811 328.91C178.743 327.987 178.539 327.116 178.217 326.312C177.722 325.074 176.944 323.994 175.947 323.129C174.304 321.704 172.063 320.864 169.5 320.864C167.621 320.864 165.916 321.315 164.492 322.117C163.243 322.82 162.211 323.793 161.468 324.968C160.633 326.289 160.164 327.865 160.164 329.6C160.164 329.708 160.166 329.816 160.169 329.923ZM180.752 328.076C181.002 328.697 181.387 329.194 181.861 329.6C182.294 329.971 182.801 330.265 183.347 330.506C183.494 330.571 183.644 330.632 183.796 330.689C184.37 330.907 184.974 331.077 185.571 331.224C185.951 331.318 186.328 331.402 186.692 331.483C186.883 331.526 187.07 331.568 187.253 331.609C188.581 331.915 189.651 332.229 189.922 332.912C189.966 333.022 189.989 333.141 189.989 333.272C189.989 333.326 189.985 333.379 189.978 333.431C189.978 333.434 189.977 333.437 189.977 333.44C189.875 334.163 189.082 334.64 187.253 334.64C187.245 334.64 187.237 334.64 187.229 334.64C186.545 334.638 185.84 334.553 185.15 334.401C184.953 334.358 184.757 334.309 184.563 334.255C184.098 334.125 183.644 333.967 183.213 333.783C182.906 333.653 182.611 333.511 182.33 333.358C182.113 333.239 181.906 333.114 181.709 332.984L180.149 336.488C180.547 336.766 181.019 337.021 181.545 337.247C181.995 337.44 182.485 337.612 183.004 337.759C183.597 337.927 184.226 338.063 184.877 338.16C185.641 338.274 186.434 338.336 187.229 338.336C187.237 338.336 187.245 338.336 187.253 338.336C189.161 338.333 190.696 337.964 191.864 337.347C193.615 336.42 194.54 334.931 194.656 333.272C194.664 333.153 194.669 333.033 194.669 332.912C194.669 331.97 194.448 331.216 194.074 330.605C193.565 329.773 192.772 329.208 191.864 328.795C191.615 328.682 191.357 328.581 191.094 328.489C190.597 328.315 190.082 328.174 189.573 328.05C189.168 327.952 188.767 327.865 188.381 327.781C188.201 327.742 188.025 327.704 187.853 327.665C186.465 327.356 185.365 327.041 185.171 326.312C185.151 326.237 185.141 326.157 185.141 326.072C185.141 325.995 185.147 325.919 185.159 325.845C185.16 325.84 185.161 325.835 185.162 325.83C185.294 325.107 186.056 324.56 187.853 324.56C187.861 324.56 187.869 324.56 187.877 324.56C188.546 324.562 189.24 324.655 189.95 324.837C190.051 324.863 190.151 324.89 190.252 324.92C190.783 325.074 191.321 325.278 191.864 325.532C191.929 325.563 191.995 325.594 192.061 325.626C192.21 325.699 192.359 325.776 192.509 325.856L193.973 322.328C193.344 321.964 192.629 321.665 191.864 321.434C191.813 321.419 191.762 321.404 191.711 321.389C190.893 321.155 190.023 320.997 189.143 320.92C188.722 320.883 188.298 320.864 187.877 320.864C187.869 320.864 187.861 320.864 187.853 320.864C185.179 320.868 183.237 321.576 182.013 322.695C181.02 323.602 180.499 324.78 180.442 326.072C180.438 326.152 180.437 326.232 180.437 326.312C180.437 326.992 180.55 327.574 180.752 328.076ZM143.768 329.923C143.771 329.816 143.773 329.708 143.773 329.6C143.773 327.865 143.304 326.289 142.469 324.968C141.726 323.793 140.693 322.82 139.444 322.116C138.02 321.315 136.315 320.864 134.437 320.864C131.673 320.864 129.283 321.841 127.613 323.476C126.036 325.02 125.101 327.152 125.101 329.6C125.101 332.048 126.036 334.18 127.613 335.724C129.283 337.359 131.673 338.336 134.437 338.336C139.698 338.336 143.603 334.797 143.768 329.923ZM217.848 335.724C219.517 337.359 221.907 338.336 224.672 338.336C227.436 338.336 229.827 337.358 231.496 335.723C233.073 334.179 234.008 332.048 234.008 329.6C234.008 327.152 233.073 325.021 231.496 323.477C229.827 321.842 227.436 320.864 224.672 320.864C221.907 320.864 219.517 321.841 217.848 323.476C216.27 325.02 215.336 327.152 215.336 329.6C215.336 332.048 216.27 334.18 217.848 335.724ZM236.496 338H241.248V333.608H244.176C248.76 333.608 251.64 331.232 251.64 327.416C251.64 323.576 248.76 321.2 244.176 321.2H236.496V338ZM241.248 329.864H243.888C243.987 329.864 244.083 329.862 244.176 329.857C245.115 329.812 245.806 329.54 246.248 329.078C246.643 328.667 246.84 328.104 246.84 327.416C246.84 326.717 246.643 326.149 246.248 325.734C245.806 325.268 245.115 324.996 244.176 324.951C244.083 324.946 243.987 324.944 243.888 324.944H241.248V329.864ZM134.551 329.432C134.487 329.406 134.446 329.401 134.437 329.4C134.428 329.401 134.387 329.406 134.323 329.432C134.242 329.465 134.154 329.522 134.079 329.599C134.079 329.599 134.078 329.6 134.078 329.6C134.078 329.6 134.079 329.601 134.079 329.601C134.154 329.679 134.242 329.735 134.323 329.768C134.387 329.794 134.428 329.799 134.437 329.8M134.551 329.432C134.633 329.465 134.72 329.522 134.795 329.599ZM134.795 329.599C134.796 329.599 134.796 329.6 134.797 329.6ZM134.797 329.6C134.796 329.6 134.796 329.601 134.795 329.601ZM134.795 329.601C134.72 329.679 134.633 329.735 134.551 329.768ZM134.551 329.768C134.487 329.794 134.446 329.799 134.437 329.8ZM169.5 329.4C169.491 329.401 169.449 329.406 169.386 329.432C169.304 329.465 169.217 329.522 169.142 329.599C169.141 329.599 169.141 329.6 169.14 329.6C169.141 329.6 169.141 329.601 169.142 329.601C169.217 329.679 169.304 329.735 169.386 329.768C169.449 329.794 169.491 329.799 169.5 329.8M169.5 329.4C169.509 329.401 169.55 329.406 169.614 329.432ZM169.614 329.432C169.695 329.465 169.783 329.522 169.858 329.599ZM169.858 329.599C169.858 329.599 169.859 329.6 169.859 329.6ZM169.859 329.6C169.859 329.6 169.858 329.601 169.858 329.601ZM169.858 329.601C169.783 329.679 169.695 329.735 169.614 329.768ZM169.614 329.768C169.55 329.794 169.509 329.799 169.5 329.8ZM224.785 329.432C224.722 329.406 224.68 329.401 224.672 329.4C224.663 329.401 224.621 329.406 224.558 329.432C224.476 329.465 224.389 329.522 224.313 329.599C224.313 329.599 224.313 329.6 224.312 329.6C224.313 329.6 224.313 329.601 224.313 329.601C224.389 329.679 224.476 329.735 224.558 329.768C224.621 329.794 224.663 329.799 224.672 329.8C224.672 329.8 224.671 329.8 224.672 329.8M225.031 329.6C225.031 329.6 225.03 329.601 225.03 329.601C224.954 329.679 224.867 329.735 224.785 329.768C224.723 329.794 224.682 329.799 224.672 329.8M224.785 329.432C224.867 329.465 224.954 329.522 225.03 329.599ZM225.03 329.599C225.03 329.599 225.031 329.6 225.031 329.6ZM174.571 301.6C174.571 304.504 176.563 306.4 179.107 306.4C181.651 306.4 183.643 304.504 183.643 301.6C183.643 298.696 181.651 296.8 179.107 296.8C176.563 296.8 174.571 298.696 174.571 301.6ZM129.901 329.6C129.901 332.504 131.893 334.4 134.437 334.4C136.981 334.4 138.973 332.504 138.973 329.6C138.973 326.696 136.981 324.8 134.437 324.8C131.893 324.8 129.901 326.696 129.901 329.6ZM164.964 329.6C164.964 332.504 166.956 334.4 169.5 334.4C172.044 334.4 174.036 332.504 174.036 329.6C174.036 326.696 172.044 324.8 169.5 324.8C166.956 324.8 164.964 326.696 164.964 329.6ZM220.136 329.6C220.136 332.504 222.128 334.4 224.672 334.4C227.216 334.4 229.208 332.504 229.208 329.6C229.208 326.696 227.216 324.8 224.672 324.8C222.128 324.8 220.136 326.696 220.136 329.6Z" fill="white"/>
<g filter="url(#filter0_di)">
<path d="M129.104 235.772V203.058C130.849 203.228 132.906 203.316 135.152 203.316C148.841 203.316 159.908 199.706 167.162 192.871C173.104 187.225 176.378 178.815 176.378 169.19C176.378 159.841 172.468 151.388 165.658 146.003C158.962 140.647 149.124 138.044 135.579 138.044C123.847 138.044 113.932 138.719 106.109 140.05C105.469 140.159 105 140.714 105 141.364V235.772C105 236.508 105.597 237.105 106.333 237.105H127.771C128.507 237.105 129.104 236.508 129.104 235.772ZM129.104 183.706V157.619C130.412 157.367 132.871 157.035 136.714 157.035C146.604 157.035 152.275 161.672 152.275 169.757C152.275 178.7 145.822 184.041 135.011 184.041C132.417 184.041 130.57 183.938 129.104 183.706Z" fill="white"/>
<path d="M215.226 192.066C206.394 188.975 204.904 187.503 204.904 185.374C204.904 181.592 209.227 181.028 211.805 181.028C217.279 181.028 222.989 183.081 226.215 184.839C226.577 185.036 227.007 185.055 227.385 184.892C227.76 184.727 228.041 184.399 228.144 184.001L231.977 169.096C232.134 168.488 231.844 167.853 231.283 167.572C227.303 165.583 219.91 163.456 211.094 163.456C193.675 163.456 181.51 173.345 181.51 187.481C181.392 194.378 184.877 203.82 202.154 209.636C210.547 212.434 211.465 213.888 211.465 216.322C211.465 217.432 211.465 220.81 203.57 220.81C197.656 220.81 189.671 218.183 185.664 215.75C185.301 215.53 184.856 215.495 184.464 215.658C184.072 215.819 183.781 216.158 183.678 216.569L179.846 232.044C179.7 232.635 179.972 233.248 180.506 233.537C186.369 236.706 194.776 238.524 203.57 238.524C222.957 238.524 235 229.418 235 214.743C234.847 203.712 228.746 196.718 215.226 192.066Z" fill="white"/>
</g>
<rect x="16" y="397" width="125" height="43" rx="13" fill="white"/>
<rect x="195" y="397" width="125" height="43" rx="13" fill="white"/>
<path d="M252 5C252 26.7477 243.361 47.6048 227.983 62.9828C212.605 78.3607 191.748 87 170 87C148.252 87 127.395 78.3607 112.017 62.9828C96.6393 47.6048 88 26.7478 88 5.00002L170 5H252Z" fill="white"/>
<path d="M48.032 423.216C48.032 414.96 35.328 417.52 35.328 414.096C35.328 412.976 36.288 412.08 38.944 412.08C40.896 412.08 43.008 412.656 45.152 413.808L47.104 409.104C45.312 408.048 42.976 407.408 40.608 407.216V403.76H36.768V407.28C31.584 407.92 29.056 410.896 29.056 414.416C29.056 422.736 41.792 420.144 41.792 423.696C41.792 424.784 40.768 425.52 38.144 425.52C35.552 425.52 32.736 424.624 30.752 423.312L28.672 427.984C30.528 429.264 33.568 430.192 36.768 430.416V433.84H40.608V430.288C45.6 429.552 48.032 426.608 48.032 423.216Z" fill="#00BCBC"/>
<path d="M69.6 420.42H67.32V417.8H64.26V420.42H60.5L66.62 412H63.22L56.62 420.88V423.06H64.16V426H67.32V423.06H69.6V420.42ZM76.5691 426.24C80.0291 426.24 82.5691 423.62 82.5691 419C82.5691 414.38 80.0291 411.76 76.5691 411.76C73.1291 411.76 70.5691 414.38 70.5691 419C70.5691 423.62 73.1291 426.24 76.5691 426.24ZM76.5691 423.5C74.9691 423.5 73.8491 422.18 73.8491 419C73.8491 415.82 74.9691 414.5 76.5691 414.5C78.1891 414.5 79.3091 415.82 79.3091 419C79.3091 422.18 78.1891 423.5 76.5691 423.5ZM95.8073 426.24C99.2673 426.24 101.807 423.62 101.807 419C101.807 414.38 99.2673 411.76 95.8073 411.76C92.3673 411.76 89.8073 414.38 89.8073 419C89.8073 423.62 92.3673 426.24 95.8073 426.24ZM95.8073 423.5C94.2073 423.5 93.0873 422.18 93.0873 419C93.0873 415.82 94.2073 414.5 95.8073 414.5C97.4273 414.5 98.5473 415.82 98.5473 419C98.5473 422.18 97.4273 423.5 95.8073 423.5ZM109.382 426.24C112.842 426.24 115.382 423.62 115.382 419C115.382 414.38 112.842 411.76 109.382 411.76C105.942 411.76 103.382 414.38 103.382 419C103.382 423.62 105.942 426.24 109.382 426.24ZM109.382 423.5C107.782 423.5 106.662 422.18 106.662 419C106.662 415.82 107.782 414.5 109.382 414.5C111.002 414.5 112.122 415.82 112.122 419C112.122 422.18 111.002 423.5 109.382 423.5ZM122.956 426.24C126.416 426.24 128.956 423.62 128.956 419C128.956 414.38 126.416 411.76 122.956 411.76C119.516 411.76 116.956 414.38 116.956 419C116.956 423.62 119.516 426.24 122.956 426.24ZM122.956 423.5C121.356 423.5 120.236 422.18 120.236 419C120.236 415.82 121.356 414.5 122.956 414.5C124.576 414.5 125.696 415.82 125.696 419C125.696 422.18 124.576 423.5 122.956 423.5Z" fill="black"/>
<path d="M242.32 417.7L245.48 414.1V412H235.68V414.6H241.64L238.76 417.86V420H240.24C242.08 420 242.86 420.66 242.86 421.72C242.86 422.86 241.86 423.52 240.24 423.52C238.78 423.52 237.3 423.06 236.24 422.26L234.98 424.74C236.34 425.7 238.36 426.24 240.32 426.24C244.3 426.24 246.12 424.08 246.12 421.72C246.12 419.66 244.84 418.1 242.32 417.7ZM252.221 417.26H251.081L251.301 414.6H257.141V412H248.601L247.881 419.88H251.461C254.001 419.88 254.721 420.6 254.721 421.7C254.721 422.84 253.721 423.52 252.101 423.52C250.641 423.52 249.181 423.06 248.121 422.26L246.841 424.74C248.201 425.7 250.241 426.24 252.181 426.24C256.181 426.24 258.001 424.08 258.001 421.6C258.001 419.12 256.361 417.26 252.221 417.26ZM279.019 426L278.979 415.24H276.059L272.399 421.46L268.959 415.24H265.699V426H268.519V419.54L271.659 424.96H272.979L276.199 419.56V426H279.019ZM282.008 426H284.888L290.108 419.6V426H293.208V415.24H290.348L285.108 421.64V415.24H282.008V426ZM296.207 426H299.307V421.98H303.987V426H307.107V415.24H303.987V419.44H299.307V415.24H296.207V426Z" fill="black"/>
<path d="M216.5 406C209.595 406 204 411.595 204 418.5C204 425.405 209.595 431 216.5 431C223.405 431 229 425.405 229 418.5C229 411.595 223.405 406 216.5 406Z" fill="#00BCBC"/>
<path fill-rule="evenodd" clip-rule="evenodd" d="M215.961 410C214.878 410 214 410.878 214 411.961V419.153C214 419.311 214.019 419.464 214.054 419.611C214.047 420.263 214.376 420.901 214.974 421.262L220.414 424.535C221.313 425.077 222.481 424.786 223.022 423.887C223.563 422.988 223.273 421.82 222.374 421.279L217.923 418.6V411.961C217.923 410.878 217.045 410 215.961 410Z" fill="white"/>
<g filter="url(#filter1_d)">
<path d="M162.531 400.393L185.975 433.213C179.766 434.57 168.698 428.331 168.698 428.331C168.698 428.331 160.834 438.706 154.912 440L162.531 400.393Z" fill="white"/>
<path fill-rule="evenodd" clip-rule="evenodd" d="M154.912 440L158.469 421.51C161.522 424.284 164.956 426.604 168.698 428.331C168.698 428.331 160.834 438.706 154.912 440Z" fill="#BBFFF9"/>
</g>
<path d="M138.822 25.4V34.274H146.362V66H157.846V25.4H138.822ZM166.214 25.4V40.77H176.016V34.506H186.688L173 66H185.528L199.854 32.592V25.4H166.214Z" fill="#46BBCE"/>
<defs>
<filter id="filter0_di" x="99" y="132.044" width="150" height="120.48" filterUnits="userSpaceOnUse" color-interpolation-filters="sRGB">
<feFlood flood-opacity="0" result="BackgroundImageFix"/>
<feColorMatrix in="SourceAlpha" type="matrix" values="0 0 0 0 0 0 0 0 0 0 0 0 0 0 0 0 0 0 127 0"/>
<feOffset dx="4" dy="4"/>
<feGaussianBlur stdDeviation="5"/>
<feColorMatrix type="matrix" values="0 0 0 0 0.1715 0 0 0 0 0.816667 0 0 0 0 0.816667 0 0 0 1 0"/>
<feBlend mode="normal" in2="BackgroundImageFix" result="effect1_dropShadow"/>
<feBlend mode="normal" in="SourceGraphic" in2="effect1_dropShadow" result="shape"/>
<feColorMatrix in="SourceAlpha" type="matrix" values="0 0 0 0 0 0 0 0 0 0 0 0 0 0 0 0 0 0 127 0" result="hardAlpha"/>
<feOffset dx="-4" dy="-4"/>
<feGaussianBlur stdDeviation="4.5"/>
<feComposite in2="hardAlpha" operator="arithmetic" k2="-1" k3="1"/>
<feColorMatrix type="matrix" values="0 0 0 0 0.441945 0 0 0 0 0.887146 0 0 0 0 0.895833 0 0 0 0.52 0"/>
<feBlend mode="normal" in2="shape" result="effect2_innerShadow"/>
</filter>
<filter id="filter1_d" x="143" y="393" width="52.975" height="57.0001" filterUnits="userSpaceOnUse" color-interpolation-filters="sRGB">
<feFlood flood-opacity="0" result="BackgroundImageFix"/>
<feColorMatrix in="SourceAlpha" type="matrix" values="0 0 0 0 0 0 0 0 0 0 0 0 0 0 0 0 0 0 127 0"/>
<feOffset dx="3" dy="3"/>
<feGaussianBlur stdDeviation="3.5"/>
<feColorMatrix type="matrix" values="0 0 0 0 0.279 0 0 0 0 0.9 0 0 0 0 0.840225 0 0 0 1 0"/>
<feBlend mode="normal" in2="BackgroundImageFix" result="effect1_dropShadow"/>
<feBlend mode="normal" in="SourceGraphic" in2="effect1_dropShadow" result="shape"/>
</filter>
<linearGradient id="paint0_linear" x1="5.5" y1="-157" x2="289.5" y2="495.5" gradientUnits="userSpaceOnUse">
<stop stop-color="#00C2FF"/>
<stop offset="1" stop-color="#1EE7CF"/>
</linearGradient>
<linearGradient id="paint1_linear" x1="49" y1="11" x2="301.5" y2="474" gradientUnits="userSpaceOnUse">
<stop stop-color="#19D2EB"/>
<stop offset="1" stop-color="#55F5DF"/>
</linearGradient>
<linearGradient id="paint2_linear" x1="59.5" y1="-9" x2="291.5" y2="495.5" gradientUnits="userSpaceOnUse">
<stop stop-color="#00E0FF"/>
<stop offset="1" stop-color="#42F2D1"/>
</linearGradient>
<linearGradient id="paint3_linear" x1="51" y1="11" x2="303.5" y2="474" gradientUnits="userSpaceOnUse">
<stop stop-color="#B2F6FF"/>
<stop offset="1" stop-color="#28D7BE"/>
</linearGradient>
<linearGradient id="paint4_linear" x1="27" y1="473.49" x2="247.084" y2="60.8524" gradientUnits="userSpaceOnUse">
<stop stop-color="#73F5FF"/>
<stop offset="0.99" stop-color="#7AFFEC"/>
</linearGradient>
<linearGradient id="paint5_linear" x1="129.774" y1="288" x2="310" y2="288" gradientUnits="userSpaceOnUse">
<stop stop-color="white"/>
<stop offset="0.99" stop-color="white" stop-opacity="0.4"/>
</linearGradient>
<linearGradient id="paint6_linear" x1="59.8997" y1="86" x2="140" y2="86" gradientUnits="userSpaceOnUse">
<stop stop-color="white"/>
<stop offset="0.99" stop-color="white" stop-opacity="0.4"/>
</linearGradient>
</defs>
</svg>
