<svg width="338" height="474" viewBox="0 0 338 474" fill="none" xmlns="http://www.w3.org/2000/svg">
<rect x="2.5" y="2.5" width="331" height="469" rx="32.5" fill="url(#paint0_linear)" stroke="url(#paint1_linear)" stroke-width="5"/>
<mask id="mask0" mask-type="alpha" maskUnits="userSpaceOnUse" x="2" y="0" width="336" height="474">
<rect x="4.5" y="2.5" width="331" height="469" rx="41.5" fill="url(#paint2_linear)" stroke="url(#paint3_linear)" stroke-width="5"/>
</mask>
<g mask="url(#mask0)">
<path d="M198.89 5.0093C198.89 5.0093 97.8208 47.0947 93.9888 101.845C90.1568 156.595 112.775 152.615 106.069 185.086C99.3631 217.557 -10.9124 255.616 18.7856 356.766C48.4837 457.916 142.368 370.584 242 469H35C18.4315 469 5 455.569 5 439V35.0014C5 18.4323 18.4323 5.00064 35.0014 5.00144L198.89 5.0093Z" fill="url(#paint4_linear)" fill-opacity="0.5"/>
</g>
<path opacity="0.46" d="M219.887 378C202.092 377.978 184.702 372.68 169.917 362.777C155.131 352.875 143.613 338.811 136.819 322.363C130.024 305.916 128.258 287.824 131.743 270.373C135.229 252.922 143.809 236.896 156.4 224.321C168.992 211.745 185.028 203.185 202.483 199.721C219.939 196.258 238.029 198.046 254.468 204.862C270.906 211.677 284.956 223.212 294.84 238.01C304.724 252.808 310 270.204 310 288C309.958 311.876 300.447 334.761 283.553 351.633C266.66 368.506 243.763 377.988 219.887 378ZM219.887 222.747C206.985 222.764 194.378 226.607 183.659 233.788C172.94 240.969 164.59 251.166 159.665 263.091C154.74 275.016 153.461 288.134 155.989 300.786C158.517 313.438 164.739 325.056 173.868 334.173C182.998 343.29 194.625 349.496 207.28 352.006C219.936 354.517 233.051 353.219 244.97 348.278C256.888 343.336 267.074 334.972 274.24 324.243C281.406 313.515 285.231 300.902 285.231 288C285.177 270.703 278.27 254.132 266.022 241.918C253.774 229.704 237.184 222.843 219.887 222.837V222.747Z" fill="url(#paint5_linear)"/>
<path opacity="0.46" d="M99.9498 126C92.0407 125.99 84.3121 123.636 77.7407 119.234C71.1694 114.833 66.0503 108.583 63.0305 101.273C60.0106 93.9627 59.2257 85.9216 60.7747 78.1657C62.3238 70.4097 66.1374 63.2871 71.7335 57.698C77.3296 52.1089 84.457 48.3043 92.2148 46.7649C99.9727 45.2256 108.013 46.0207 115.319 49.0496C122.625 52.0786 128.869 57.2055 133.262 63.7824C137.655 70.3593 140 78.0909 140 86C139.981 96.6116 135.754 106.783 128.246 114.281C120.738 121.78 110.561 125.995 99.9498 126ZM99.9498 56.9985C94.2156 57.0064 88.6124 58.7141 83.8484 61.9056C79.0844 65.0972 75.3735 69.6294 73.1846 74.9294C70.9957 80.2294 70.4271 86.0594 71.5506 91.6825C72.6742 97.3056 75.4395 102.469 79.497 106.521C83.5545 110.573 88.7222 113.331 94.3468 114.447C99.9715 115.563 105.801 114.986 111.098 112.79C116.395 110.594 120.922 106.877 124.107 102.108C127.292 97.3398 128.991 91.7342 128.991 86C128.968 78.3124 125.898 70.9477 120.454 65.5193C115.011 60.0908 107.637 57.0412 99.9498 57.0386V56.9985Z" fill="url(#paint6_linear)"/>
<path d="M59.0654 315H63.5534L70.4654 305.16V315H75.1454V298.2H70.6814L63.7454 308.064V298.2H59.0654V315Z" fill="black"/>
<path d="M86.9369 315.336C90.0329 315.336 92.5289 314.208 94.1609 312.168L91.1369 309.432C90.0809 310.704 88.7849 311.4 87.1769 311.4C84.4169 311.4 82.4969 309.48 82.4969 306.6C82.4969 303.72 84.4169 301.8 87.1769 301.8C88.7849 301.8 90.0809 302.496 91.1369 303.768L94.1609 301.032C92.5289 298.992 90.0329 297.864 86.9369 297.864C81.6089 297.864 77.6969 301.488 77.6969 306.6C77.6969 311.712 81.6089 315.336 86.9369 315.336Z" fill="black"/>
<path d="M96.3076 298.2V315H100.988V301.968H107.372V315H112.076V298.2H96.3076Z" fill="black"/>
<path d="M123.923 315.336C129.299 315.336 133.259 311.64 133.259 306.6C133.259 301.56 129.299 297.864 123.923 297.864C118.547 297.864 114.587 301.56 114.587 306.6C114.587 311.64 118.547 315.336 123.923 315.336ZM123.923 311.4C121.379 311.4 119.387 309.504 119.387 306.6C119.387 303.696 121.379 301.8 123.923 301.8C126.467 301.8 128.459 303.696 128.459 306.6C128.459 309.504 126.467 311.4 123.923 311.4Z" fill="black"/>
<path d="M137.467 298.2L137.227 304.896C137.083 308.688 136.723 311.184 134.779 311.184C134.563 311.184 134.347 311.16 134.131 311.112L133.867 315C134.659 315.192 135.379 315.288 136.027 315.288C140.299 315.288 141.187 311.256 141.403 304.704L141.499 301.968H146.323V315H151.003V298.2H137.467Z" fill="black"/>
<path d="M163.165 303.552H159.277V298.2H154.597V315H162.541C166.909 315 169.621 312.96 169.621 309.024C169.621 305.352 167.245 303.552 163.165 303.552ZM162.229 311.592H159.277V306.936H162.229C163.837 306.936 164.845 307.536 164.845 309.12C164.845 310.704 163.813 311.592 162.229 311.592Z" fill="black"/>
<path d="M181.934 306.264C183.35 305.568 184.238 304.296 184.238 302.712C184.238 299.592 180.638 297.816 176.558 297.816C174.59 297.816 172.502 298.224 170.654 299.112L172.046 302.712C173.486 301.944 175.142 301.56 176.51 301.56C178.166 301.56 179.438 302.136 179.438 303.264C179.438 304.128 178.718 304.68 177.422 304.68H173.51V308.16H177.806C179.15 308.16 180.11 308.592 180.11 309.624C180.11 310.92 178.526 311.592 176.51 311.592C174.974 311.592 173.174 311.208 171.614 310.416L170.198 313.728C172.382 314.832 174.806 315.36 177.038 315.36C181.31 315.36 184.91 313.488 184.91 310.272C184.91 308.424 183.782 306.96 181.934 306.264Z" fill="black"/>
<path d="M195.735 315.336C201.111 315.336 205.071 311.64 205.071 306.6C205.071 301.56 201.111 297.864 195.735 297.864C190.359 297.864 186.399 301.56 186.399 306.6C186.399 311.64 190.359 315.336 195.735 315.336ZM195.735 311.4C193.191 311.4 191.199 309.504 191.199 306.6C191.199 303.696 193.191 301.8 195.735 301.8C198.279 301.8 200.271 303.696 200.271 306.6C200.271 309.504 198.279 311.4 195.735 311.4Z" fill="black"/>
<path d="M219.852 306.216C221.292 305.496 222.132 304.224 222.132 302.568C222.132 299.784 219.78 298.2 215.772 298.2H207.612V315H216.228C220.548 315 222.9 313.152 222.9 310.2C222.9 308.184 221.796 306.84 219.852 306.216ZM212.292 301.608H215.316C216.66 301.608 217.332 302.184 217.332 303.264C217.332 304.368 216.66 304.92 215.316 304.92H212.292V301.608ZM216.036 311.592H212.292V308.136H216.036C217.404 308.136 218.1 308.688 218.1 309.84C218.1 310.992 217.404 311.592 216.036 311.592Z" fill="black"/>
<path d="M238.384 315H243.328L235.888 298.2H231.208L223.792 315H228.64L229.96 311.736H237.064L238.384 315ZM231.352 308.232L233.512 302.856L235.672 308.232H231.352Z" fill="black"/>
<path d="M257.945 298.2H242.969V301.968H248.129V315H252.809V301.968H257.945V298.2Z" fill="black"/>
<path d="M268.704 303.552H264.816V298.2H260.136V315H268.08C272.448 315 275.16 312.96 275.16 309.024C275.16 305.352 272.784 303.552 268.704 303.552ZM267.768 311.592H264.816V306.936H267.768C269.376 306.936 270.384 307.536 270.384 309.12C270.384 310.704 269.352 311.592 267.768 311.592Z" fill="black"/>
<path d="M142.973 329.872V326.2H129.797V343H134.549V337.24H141.965V333.568H134.549V329.872H142.973Z" fill="black"/>
<path d="M145.195 343H149.947V326.2H145.195V343Z" fill="black"/>
<path d="M164.584 338.848C163.744 339.232 162.904 339.4 162.016 339.4C159.184 339.4 157.264 337.432 157.264 334.6C157.264 331.696 159.184 329.8 162.064 329.8C163.672 329.8 164.992 330.4 166.144 331.672L169.168 328.936C167.512 326.944 164.968 325.864 161.824 325.864C156.376 325.864 152.464 329.488 152.464 334.6C152.464 339.712 156.376 343.336 161.728 343.336C164.176 343.336 166.84 342.592 168.784 341.2V334.24H164.584V338.848Z" fill="black"/>
<path d="M191.333 343L191.285 326.2H187.373L181.613 335.896L175.709 326.2H171.797V343H176.189V334.336L180.485 341.344H182.597L186.917 334.096L186.965 343H191.333Z" fill="black"/>
<path d="M207.271 343H212.215L204.775 326.2H200.095L192.679 343H197.527L198.847 339.736H205.951L207.271 343ZM200.239 336.232L202.399 330.856L204.559 336.232H200.239Z" fill="black"/>
<path fill-rule="evenodd" clip-rule="evenodd" d="M59.0654 320C56.304 320 54.0654 317.761 54.0654 315L54.0654 298.2C54.0654 295.438 56.304 293.2 59.0654 293.2H63.7454C65.0921 293.2 66.3144 293.732 67.2134 294.598C68.1362 293.71 69.3761 293.2 70.6814 293.2H75.1454C76.7113 293.2 78.109 293.92 79.0258 295.046C81.2969 293.644 84.0229 292.864 86.9369 292.864C89.197 292.864 91.3667 293.302 93.3118 294.196C94.1468 293.571 95.1839 293.2 96.3076 293.2H112.076C113.648 293.2 115.051 293.926 115.968 295.061C118.256 293.651 120.999 292.864 123.923 292.864C127.363 292.864 130.552 293.953 133.045 295.865C133.885 294.276 135.554 293.2 137.467 293.2H151.003C151.636 293.2 152.242 293.318 152.8 293.532C153.357 293.318 153.963 293.2 154.597 293.2H159.277C162.038 293.2 164.277 295.438 164.277 298.2V298.586C164.738 298.616 165.203 298.664 165.667 298.736C165.799 297.006 166.829 295.403 168.488 294.605C171.095 293.353 173.938 292.816 176.558 292.816C179.235 292.816 182.097 293.385 184.473 294.79C185.098 295.16 185.712 295.606 186.281 296.129C188.819 294.054 192.14 292.864 195.735 292.864C198.668 292.864 201.418 293.656 203.71 295.073C204.626 293.931 206.034 293.2 207.612 293.2H215.772C218.328 293.2 221.046 293.688 223.276 295.211C224.354 295.948 225.226 296.867 225.866 297.92L226.634 296.181C227.433 294.369 229.227 293.2 231.208 293.2H235.888C237.241 293.2 238.507 293.746 239.429 294.67C240.334 293.762 241.586 293.2 242.969 293.2H257.945C258.321 293.2 258.688 293.241 259.04 293.32C259.393 293.241 259.759 293.2 260.136 293.2H264.816C267.577 293.2 269.816 295.438 269.816 298.2V298.586C272.17 298.735 274.625 299.392 276.64 301.051C279.141 303.11 280.16 306.04 280.16 309.024C280.16 312.233 278.995 315.253 276.425 317.357C274.008 319.336 270.96 320 268.08 320H260.136C258.689 320 257.385 319.385 256.472 318.403C255.559 319.385 254.256 320 252.809 320H248.129C247.259 320 246.44 319.777 245.727 319.386C245.003 319.783 244.18 320 243.328 320H238.384C236.346 320 234.512 318.763 233.748 316.874L233.692 316.736H233.331L233.275 316.874C232.511 318.763 230.677 320 228.64 320H223.792C222.853 320 221.949 319.736 221.173 319.259C219.59 319.791 217.896 320 216.228 320H207.612C206.034 320 204.626 319.269 203.71 318.126C201.418 319.544 198.668 320.336 195.735 320.336C192.272 320.336 189.063 319.232 186.563 317.296C186.118 317.672 185.649 318.006 185.169 318.297C182.751 319.764 179.819 320.36 177.038 320.36C174.379 320.36 171.545 319.805 168.896 318.64C166.902 319.635 164.675 320 162.541 320H154.597C153.963 320 153.357 319.882 152.8 319.667C152.242 319.882 151.636 320 151.003 320H146.323C144.689 320 143.237 319.216 142.325 318.003C142.07 318.231 141.796 318.449 141.503 318.654C139.82 319.83 137.912 320.288 136.027 320.288C134.896 320.288 133.773 320.122 132.689 319.859C131.912 319.671 131.217 319.308 130.64 318.819C128.627 319.8 126.337 320.336 123.923 320.336C120.999 320.336 118.256 319.549 115.968 318.138C115.051 319.274 113.648 320 112.076 320H107.372C106.158 320 105.046 319.568 104.18 318.849C103.314 319.568 102.201 320 100.988 320H96.3076C95.1839 320 94.1468 319.629 93.3118 319.003C91.3667 319.897 89.197 320.336 86.9369 320.336C84.0229 320.336 81.2969 319.556 79.0258 318.153C78.109 319.28 76.7113 320 75.1454 320H70.4654C69.1248 320 67.9073 319.472 67.0095 318.613C66.0879 319.495 64.8532 320 63.5534 320H59.0654ZM70.4654 315H75.1454V298.2H70.6814L63.7454 308.064V298.2H59.0654V315H63.5534L70.4654 305.16V315ZM96.3076 315H100.988V301.968H107.372V315H112.076V298.2H96.3076V315ZM80.1454 312.717C81.7985 314.364 84.1778 315.336 86.9369 315.336C87.0173 315.336 87.0973 315.335 87.1769 315.334C88.113 315.316 88.9925 315.193 89.8078 314.972C90.3352 314.829 90.8359 314.645 91.3076 314.421C92.1294 314.031 92.8636 313.521 93.4993 312.899C93.7334 312.67 93.9541 312.426 94.1609 312.168L91.1369 309.432C91.0838 309.496 91.03 309.559 90.9756 309.62C90.8966 309.708 90.8164 309.794 90.7348 309.876C89.7563 310.865 88.5865 311.4 87.1769 311.4C87.0962 311.4 87.0162 311.398 86.9369 311.395C84.3063 311.287 82.4969 309.396 82.4969 306.6C82.4969 303.804 84.3063 301.913 86.9369 301.805C87.0162 301.802 87.0962 301.8 87.1769 301.8C88.5865 301.8 89.7563 302.335 90.7348 303.323C90.8164 303.406 90.8966 303.491 90.9756 303.58C91.03 303.641 91.0838 303.704 91.1369 303.768L94.1609 301.032C93.9541 300.773 93.7334 300.529 93.4993 300.301C92.8636 299.679 92.1294 299.169 91.3076 298.779C90.8359 298.555 90.3352 298.371 89.8078 298.228C88.9925 298.007 88.113 297.884 87.1769 297.866C87.0973 297.865 87.0173 297.864 86.9369 297.864C84.1778 297.864 81.7985 298.836 80.1454 300.483C78.6064 302.016 77.6969 304.135 77.6969 306.6C77.6969 309.065 78.6064 311.184 80.1454 312.717ZM87.084 306.806C87.084 306.806 87.0845 306.806 87.0855 306.806ZM146.323 315H151.003V298.2H137.467L137.227 304.896C137.204 305.498 137.176 306.068 137.137 306.6C136.995 308.52 136.711 309.952 136.027 310.669C135.756 310.954 135.422 311.126 135.009 311.172C134.939 311.179 134.867 311.183 134.792 311.184C134.788 311.184 134.783 311.184 134.779 311.184C134.563 311.184 134.347 311.16 134.131 311.112L133.867 315C134.182 315.076 134.486 315.138 134.779 315.184C134.929 315.207 135.076 315.227 135.22 315.242C135.501 315.273 135.77 315.288 136.027 315.288C136.368 315.288 136.687 315.262 136.986 315.212C137.759 315.081 138.396 314.785 138.924 314.335C140.513 312.981 141.097 310.237 141.323 306.467C141.35 306.011 141.373 305.54 141.391 305.054C141.391 305.051 141.391 305.048 141.391 305.045C141.395 304.932 141.399 304.818 141.403 304.704L141.499 301.968H146.323V315ZM117.076 312.701C118.746 314.35 121.146 315.336 123.923 315.336C125.795 315.336 127.496 314.888 128.917 314.09C130.262 313.336 131.357 312.269 132.111 310.975C132.848 309.708 133.259 308.224 133.259 306.6C133.259 306.592 133.259 306.585 133.259 306.577C133.259 306.447 133.256 306.318 133.25 306.19C133.229 305.694 133.169 305.212 133.072 304.747C133.071 304.744 133.071 304.741 133.07 304.738C132.91 303.971 132.652 303.249 132.307 302.582C130.822 299.714 127.727 297.864 123.923 297.864C121.146 297.864 118.746 298.85 117.076 300.499C115.512 302.041 114.587 304.164 114.587 306.6C114.587 309.036 115.512 311.158 117.076 312.701ZM186.696 308.918C186.821 309.389 186.984 309.841 187.183 310.272C187.705 311.407 188.472 312.397 189.431 313.192C191.061 314.544 193.246 315.336 195.735 315.336C198.529 315.336 200.94 314.338 202.612 312.672C204.158 311.132 205.071 309.021 205.071 306.6C205.071 304.179 204.158 302.068 202.612 300.528C200.94 298.862 198.529 297.864 195.735 297.864C192.991 297.864 190.615 298.827 188.947 300.441C188.269 301.097 187.707 301.861 187.286 302.712C187.153 302.98 187.034 303.258 186.929 303.543C186.585 304.483 186.399 305.51 186.399 306.6C186.399 307.411 186.502 308.186 186.696 308.918ZM159.277 298.2H154.597V315H162.541C163.549 315 164.469 314.891 165.288 314.675C166.552 314.343 167.574 313.755 168.308 312.92C168.789 312.372 169.146 311.717 169.365 310.957C169.49 310.524 169.57 310.057 169.603 309.556C169.613 309.414 169.618 309.268 169.62 309.12C169.62 309.088 169.621 309.056 169.621 309.024C169.621 308.723 169.605 308.435 169.573 308.16C169.521 307.699 169.424 307.273 169.286 306.881C169.198 306.631 169.092 306.394 168.97 306.172C168.836 305.93 168.683 305.704 168.51 305.495C168.198 305.119 167.823 304.798 167.389 304.531C166.322 303.876 164.897 303.552 163.165 303.552H159.277V298.2ZM159.277 306.936V311.592H162.229C162.335 311.592 162.439 311.588 162.541 311.58C163.278 311.522 163.875 311.255 164.277 310.801C164.641 310.389 164.845 309.823 164.845 309.12C164.845 309.088 164.844 309.056 164.843 309.024C164.826 308.365 164.626 307.884 164.277 307.551C163.997 307.285 163.621 307.113 163.165 307.02C162.882 306.963 162.569 306.936 162.229 306.936H159.277ZM173.51 308.16H177.806C178.981 308.16 179.862 308.49 180.066 309.263C180.095 309.374 180.11 309.494 180.11 309.624C180.11 309.636 180.11 309.648 180.11 309.661C180.109 309.664 180.109 309.667 180.109 309.67C180.103 309.889 180.051 310.09 179.958 310.272C179.945 310.298 179.93 310.325 179.915 310.35C179.841 310.477 179.746 310.595 179.632 310.703C179.225 311.091 178.583 311.354 177.806 311.488C177.562 311.53 177.305 311.559 177.038 311.576C176.866 311.587 176.69 311.592 176.51 311.592C176.236 311.592 175.953 311.58 175.665 311.555C175.252 311.52 174.828 311.459 174.401 311.373C174.104 311.313 173.806 311.24 173.51 311.155C173.288 311.092 173.066 311.021 172.846 310.943C172.498 310.819 172.154 310.678 171.821 310.518C171.751 310.485 171.682 310.451 171.614 310.416L170.198 313.728C170.763 314.013 171.343 314.26 171.933 314.47C172.314 314.605 172.7 314.725 173.086 314.829C173.723 315 174.363 315.129 174.999 315.217C175.507 315.288 176.012 315.332 176.51 315.35C176.687 315.357 176.863 315.36 177.038 315.36C179.532 315.36 181.796 314.722 183.25 313.552C184.272 312.728 184.892 311.642 184.91 310.328C184.91 310.31 184.91 310.291 184.91 310.272C184.91 310.05 184.894 309.834 184.862 309.624C184.699 308.545 184.126 307.63 183.239 306.968C183.06 306.835 182.869 306.712 182.666 306.6C182.437 306.474 182.192 306.361 181.934 306.264C182.48 305.996 182.947 305.642 183.315 305.218C183.789 304.672 184.099 304.01 184.201 303.264C184.225 303.085 184.238 302.9 184.238 302.712C184.238 302.377 184.196 302.057 184.117 301.754C183.941 301.076 183.576 300.479 183.067 299.967C181.681 298.573 179.222 297.816 176.558 297.816C176.542 297.816 176.526 297.816 176.51 297.816C176.185 297.817 175.857 297.829 175.528 297.853C174.504 297.926 173.466 298.11 172.46 298.413C171.842 298.6 171.236 298.832 170.654 299.112L172.046 302.712C172.136 302.664 172.226 302.618 172.317 302.573C172.38 302.542 172.443 302.512 172.506 302.483C172.834 302.33 173.171 302.197 173.51 302.082C173.75 302 173.992 301.929 174.233 301.866C174.413 301.82 174.593 301.778 174.772 301.742C175.376 301.621 175.966 301.56 176.51 301.56C176.526 301.56 176.542 301.56 176.558 301.56C176.861 301.562 177.151 301.584 177.422 301.624C178.067 301.722 178.605 301.928 178.963 302.242C179.078 302.342 179.173 302.454 179.248 302.576C179.275 302.62 179.3 302.665 179.321 302.712C179.397 302.878 179.438 303.062 179.438 303.264C179.438 303.273 179.438 303.281 179.438 303.29C179.437 303.319 179.436 303.348 179.434 303.377C179.432 303.394 179.431 303.41 179.429 303.426C179.353 304.111 178.784 304.569 177.806 304.662C177.684 304.674 177.556 304.68 177.422 304.68H173.51V308.16ZM207.612 315H216.228C217.182 315 218.041 314.91 218.799 314.737C219.695 314.534 220.452 314.215 221.061 313.795C222.261 312.967 222.891 311.746 222.9 310.233C222.9 310.222 222.9 310.211 222.9 310.2C222.9 310.077 222.896 309.957 222.888 309.84C222.815 308.781 222.416 307.925 221.735 307.278C221.6 307.15 221.454 307.031 221.297 306.919C220.887 306.628 220.404 306.393 219.852 306.216C220.411 305.936 220.88 305.573 221.244 305.137C221.682 304.613 221.969 303.983 222.08 303.264C222.115 303.04 222.132 302.808 222.132 302.568C222.132 302.261 222.104 301.97 222.048 301.693C221.594 299.454 219.339 298.2 215.772 298.2H207.612V315ZM212.292 304.92H215.316C215.583 304.92 215.823 304.898 216.036 304.855C216.749 304.71 217.167 304.324 217.292 303.698C217.313 303.593 217.326 303.482 217.33 303.363C217.332 303.331 217.332 303.298 217.332 303.264C217.332 303.251 217.332 303.239 217.332 303.227C217.332 303.193 217.33 303.161 217.329 303.128C217.323 303.027 217.311 302.93 217.292 302.838C217.273 302.742 217.247 302.652 217.214 302.568C217.195 302.521 217.175 302.476 217.152 302.432C217.097 302.327 217.029 302.231 216.949 302.145C216.689 301.867 216.297 301.694 215.772 301.633C215.63 301.616 215.478 301.608 215.316 301.608H212.292V304.92ZM212.292 308.136V311.592H216.036C216.102 311.592 216.166 311.591 216.228 311.588C216.656 311.569 217.011 311.486 217.292 311.34C217.543 311.211 217.735 311.033 217.869 310.806C217.924 310.714 217.968 310.614 218.004 310.507C218.035 310.411 218.059 310.308 218.075 310.2C218.092 310.087 218.1 309.967 218.1 309.84C218.1 309.827 218.1 309.813 218.1 309.8C218.1 309.779 218.099 309.759 218.098 309.739C218.095 309.643 218.086 309.551 218.072 309.464C217.99 308.948 217.729 308.587 217.292 308.372C216.969 308.214 216.55 308.136 216.036 308.136H212.292ZM243.328 315L235.888 298.2H231.208L223.792 315H228.64L229.96 311.736H237.064L238.384 315H243.328ZM231.352 308.232L233.512 302.856L235.672 308.232H231.352ZM248.129 315H252.809V301.968H257.945V298.2H242.969V301.968H248.129V315ZM260.136 315H268.08C272.412 315 275.115 312.993 275.159 309.12C275.16 309.088 275.16 309.056 275.16 309.024C275.16 305.352 272.784 303.552 268.704 303.552H264.816V298.2H260.136V315ZM264.816 311.592H267.768C267.874 311.592 267.978 311.588 268.08 311.58C268.817 311.522 269.414 311.255 269.816 310.801C270.18 310.389 270.384 309.823 270.384 309.12C270.384 309.088 270.383 309.056 270.382 309.024C270.365 308.365 270.165 307.884 269.816 307.551C269.536 307.285 269.16 307.113 268.704 307.02C268.421 306.963 268.108 306.936 267.768 306.936H264.816V311.592ZM123.923 306.4C123.914 306.401 123.873 306.406 123.809 306.432C123.728 306.465 123.64 306.521 123.565 306.599C123.564 306.599 123.564 306.599 123.564 306.6C123.564 306.6 123.564 306.601 123.565 306.601C123.64 306.678 123.728 306.735 123.809 306.768C123.873 306.794 123.914 306.799 123.923 306.8C123.932 306.799 123.973 306.794 124.037 306.768C124.118 306.735 124.206 306.678 124.281 306.601C124.282 306.601 124.282 306.6 124.282 306.6C124.282 306.599 124.282 306.599 124.281 306.599C124.206 306.521 124.118 306.465 124.037 306.432C123.973 306.406 123.932 306.401 123.923 306.4ZM195.849 306.432C195.786 306.406 195.744 306.401 195.735 306.4C195.727 306.401 195.685 306.406 195.622 306.432C195.54 306.465 195.453 306.521 195.377 306.599C195.377 306.599 195.376 306.599 195.376 306.6C195.376 306.6 195.377 306.601 195.377 306.601C195.453 306.678 195.54 306.735 195.622 306.768C195.685 306.794 195.727 306.799 195.735 306.8C195.744 306.799 195.786 306.794 195.849 306.768C195.931 306.735 196.018 306.678 196.094 306.601C196.094 306.601 196.095 306.6 196.095 306.6C196.095 306.599 196.094 306.599 196.094 306.599C196.018 306.521 195.931 306.465 195.849 306.432ZM141.965 333.568H134.549V329.872H142.973V326.2H129.797V343H134.549V337.24H141.965V333.568ZM139.549 342.24V343C139.549 345.761 137.31 348 134.549 348H129.797C127.036 348 124.797 345.761 124.797 343V326.2C124.797 323.438 127.036 321.2 129.797 321.2H142.973C143.355 321.2 143.727 321.243 144.084 321.324C144.442 321.243 144.814 321.2 145.195 321.2H149.947C151.513 321.2 152.91 321.919 153.827 323.045C156.12 321.641 158.875 320.864 161.824 320.864C164.225 320.864 166.555 321.334 168.63 322.33C169.493 321.624 170.595 321.2 171.797 321.2H175.709C177.454 321.2 179.072 322.109 179.98 323.6L181.56 326.195L183.074 323.646C183.975 322.13 185.609 321.2 187.373 321.2H191.285C193.19 321.2 194.847 322.265 195.691 323.834C196.557 322.221 198.244 321.2 200.095 321.2H204.775C206.754 321.2 208.546 322.366 209.347 324.175L216.787 340.975C217.472 342.522 217.329 344.31 216.406 345.727C215.483 347.145 213.907 348 212.215 348H207.271C205.234 348 203.4 346.763 202.636 344.874L202.58 344.736H202.219L202.163 344.874C201.399 346.763 199.565 348 197.527 348H192.679C192.452 348 192.228 347.985 192.006 347.954C191.784 347.985 191.559 348 191.333 348H186.965C185.471 348 184.13 347.345 183.214 346.306C183.011 346.331 182.805 346.344 182.597 346.344H180.485C180.299 346.344 180.115 346.334 179.933 346.313C179.017 347.348 177.679 348 176.189 348H171.797C170.629 348 169.554 347.599 168.703 346.928C166.448 347.88 163.997 348.336 161.728 348.336C158.815 348.336 156.09 347.561 153.818 346.165C152.901 347.285 151.508 348 149.947 348H145.195C142.434 348 140.195 345.761 140.195 343V342.24H139.549ZM145.195 343H149.947V326.2H145.195V343ZM171.797 343H176.189V334.336L180.485 341.344H182.597L186.917 334.096L186.965 343H191.333V342.976L191.285 326.2H187.373L181.613 335.896L175.709 326.2H171.797V343ZM169.168 328.936C169.168 328.935 169.167 328.935 169.167 328.934C169.026 328.764 168.878 328.601 168.724 328.445C168.162 327.874 167.517 327.393 166.797 327.007C166.163 326.667 165.472 326.4 164.728 326.21C163.902 325.999 163.011 325.883 162.064 325.866C161.985 325.865 161.905 325.864 161.824 325.864C159.015 325.864 156.614 326.828 154.947 328.462C153.382 329.997 152.464 332.124 152.464 334.6C152.464 337.082 153.386 339.213 154.947 340.749C156.602 342.377 158.975 343.336 161.728 343.336C161.824 343.336 161.92 343.335 162.016 343.333C163.431 343.299 164.906 343.022 166.262 342.518C166.443 342.451 166.621 342.38 166.797 342.305C167.51 342.001 168.182 341.631 168.784 341.2V334.24H164.584V338.848C164.318 338.97 164.052 339.07 163.784 339.149C163.207 339.322 162.623 339.4 162.016 339.4C161.919 339.4 161.823 339.398 161.728 339.393C160.951 339.355 160.248 339.166 159.642 338.848C159.622 338.838 159.603 338.828 159.584 338.817C158.141 338.033 157.264 336.514 157.264 334.6C157.264 331.777 159.078 329.907 161.824 329.804C161.903 329.801 161.983 329.8 162.064 329.8C162.135 329.8 162.206 329.801 162.276 329.803C163.12 329.832 163.883 330.032 164.584 330.414C165.096 330.693 165.575 331.069 166.028 331.546C166.067 331.588 166.106 331.629 166.144 331.672L169.168 328.936ZM204.775 326.2H200.095L192.681 342.996L192.679 343H197.527L198.847 339.736H205.951L207.271 343H212.215L204.775 326.2ZM200.239 336.232L202.399 330.856L204.559 336.232H200.239ZM119.387 306.6C119.387 309.504 121.379 311.4 123.923 311.4C126.467 311.4 128.459 309.504 128.459 306.6C128.459 303.696 126.467 301.8 123.923 301.8C121.379 301.8 119.387 303.696 119.387 306.6ZM191.199 306.6C191.199 309.504 193.191 311.4 195.735 311.4C198.279 311.4 200.271 309.504 200.271 306.6C200.271 303.696 198.279 301.8 195.735 301.8C193.191 301.8 191.199 303.696 191.199 306.6Z" fill="white"/>
<rect x="16" y="397" width="125" height="43" rx="13" fill="white"/>
<rect x="195" y="397" width="125" height="43" rx="13" fill="white"/>
<path d="M252 5C252 26.7477 243.361 47.6048 227.983 62.9828C212.605 78.3607 191.748 87 170 87C148.252 87 127.395 78.3607 112.017 62.9828C96.6393 47.6048 88 26.7478 88 5.00002L170 5H252Z" fill="white"/>
<path d="M48.032 423.216C48.032 414.96 35.328 417.52 35.328 414.096C35.328 412.976 36.288 412.08 38.944 412.08C40.896 412.08 43.008 412.656 45.152 413.808L47.104 409.104C45.312 408.048 42.976 407.408 40.608 407.216V403.76H36.768V407.28C31.584 407.92 29.056 410.896 29.056 414.416C29.056 422.736 41.792 420.144 41.792 423.696C41.792 424.784 40.768 425.52 38.144 425.52C35.552 425.52 32.736 424.624 30.752 423.312L28.672 427.984C30.528 429.264 33.568 430.192 36.768 430.416V433.84H40.608V430.288C45.6 429.552 48.032 426.608 48.032 423.216Z" fill="#00BCBC"/>
<path d="M61.58 417.26H60.44L60.66 414.6H66.5V412H57.96L57.24 419.88H60.82C63.36 419.88 64.08 420.6 64.08 421.7C64.08 422.84 63.08 423.52 61.46 423.52C60 423.52 58.54 423.06 57.48 422.26L56.2 424.74C57.56 425.7 59.6 426.24 61.54 426.24C65.54 426.24 67.36 424.08 67.36 421.6C67.36 419.12 65.72 417.26 61.58 417.26ZM74.6745 426.24C78.1345 426.24 80.6745 423.62 80.6745 419C80.6745 414.38 78.1345 411.76 74.6745 411.76C71.2345 411.76 68.6745 414.38 68.6745 419C68.6745 423.62 71.2345 426.24 74.6745 426.24ZM74.6745 423.5C73.0745 423.5 71.9545 422.18 71.9545 419C71.9545 415.82 73.0745 414.5 74.6745 414.5C76.2945 414.5 77.4145 415.82 77.4145 419C77.4145 422.18 76.2945 423.5 74.6745 423.5ZM93.9128 426.24C97.3728 426.24 99.9128 423.62 99.9128 419C99.9128 414.38 97.3728 411.76 93.9128 411.76C90.4728 411.76 87.9128 414.38 87.9128 419C87.9128 423.62 90.4728 426.24 93.9128 426.24ZM93.9128 423.5C92.3128 423.5 91.1928 422.18 91.1928 419C91.1928 415.82 92.3128 414.5 93.9128 414.5C95.5328 414.5 96.6528 415.82 96.6528 419C96.6528 422.18 95.5328 423.5 93.9128 423.5ZM107.487 426.24C110.947 426.24 113.487 423.62 113.487 419C113.487 414.38 110.947 411.76 107.487 411.76C104.047 411.76 101.487 414.38 101.487 419C101.487 423.62 104.047 426.24 107.487 426.24ZM107.487 423.5C105.887 423.5 104.767 422.18 104.767 419C104.767 415.82 105.887 414.5 107.487 414.5C109.107 414.5 110.227 415.82 110.227 419C110.227 422.18 109.107 423.5 107.487 423.5ZM121.061 426.24C124.521 426.24 127.061 423.62 127.061 419C127.061 414.38 124.521 411.76 121.061 411.76C117.621 411.76 115.061 414.38 115.061 419C115.061 423.62 117.621 426.24 121.061 426.24ZM121.061 423.5C119.461 423.5 118.341 422.18 118.341 419C118.341 415.82 119.461 414.5 121.061 414.5C122.681 414.5 123.801 415.82 123.801 419C123.801 422.18 122.681 423.5 121.061 423.5Z" fill="black"/>
<path d="M248.6 420.42H246.32V417.8H243.26V420.42H239.5L245.62 412H242.22L235.62 420.88V423.06H243.16V426H246.32V423.06H248.6V420.42ZM255.569 426.24C259.029 426.24 261.569 423.62 261.569 419C261.569 414.38 259.029 411.76 255.569 411.76C252.129 411.76 249.569 414.38 249.569 419C249.569 423.62 252.129 426.24 255.569 426.24ZM255.569 423.5C253.969 423.5 252.849 422.18 252.849 419C252.849 415.82 253.969 414.5 255.569 414.5C257.189 414.5 258.309 415.82 258.309 419C258.309 422.18 257.189 423.5 255.569 423.5ZM282.847 426L282.807 415.24H279.887L276.227 421.46L272.787 415.24H269.527V426H272.347V419.54L275.487 424.96H276.807L280.027 419.56V426H282.847ZM285.836 426H288.716L293.936 419.6V426H297.036V415.24H294.176L288.936 421.64V415.24H285.836V426ZM300.035 426H303.135V421.98H307.815V426H310.935V415.24H307.815V419.44H303.135V415.24H300.035V426Z" fill="black"/>
<path d="M216.5 406C209.595 406 204 411.595 204 418.5C204 425.405 209.595 431 216.5 431C223.405 431 229 425.405 229 418.5C229 411.595 223.405 406 216.5 406Z" fill="#00BCBC"/>
<path fill-rule="evenodd" clip-rule="evenodd" d="M215.961 410C214.878 410 214 410.878 214 411.961V419.153C214 419.311 214.019 419.464 214.054 419.611C214.047 420.263 214.376 420.901 214.974 421.262L220.414 424.535C221.313 425.077 222.481 424.786 223.022 423.887C223.563 422.988 223.273 421.82 222.374 421.279L217.923 418.6V411.961C217.923 410.878 217.045 410 215.961 410Z" fill="white"/>
<g filter="url(#filter0_d)">
<path d="M162.531 400.393L185.975 433.213C179.766 434.57 168.698 428.331 168.698 428.331C168.698 428.331 160.834 438.706 154.912 440L162.531 400.393Z" fill="white"/>
<path fill-rule="evenodd" clip-rule="evenodd" d="M154.912 440L158.469 421.51C161.522 424.284 164.956 426.604 168.698 428.331C168.698 428.331 160.834 438.706 154.912 440Z" fill="#BBFFF9"/>
</g>
<path d="M137.746 25.4V34.274H145.286V66H156.77V25.4H137.746ZM195.008 44.598C197.734 42.684 199.358 39.9 199.358 36.42C199.358 29.228 192.746 24.588 183.176 24.588C173.606 24.588 166.994 29.228 166.994 36.42C166.994 39.9 168.618 42.684 171.344 44.598C167.69 46.686 165.544 49.876 165.544 54.052C165.544 61.824 172.678 66.812 183.176 66.812C193.674 66.812 200.808 61.824 200.808 54.052C200.808 49.876 198.662 46.686 195.008 44.598ZM183.176 32.65C186.018 32.65 188.048 34.216 188.048 36.942C188.048 39.61 186.076 41.176 183.176 41.176C180.276 41.176 178.362 39.61 178.362 36.942C178.362 34.216 180.334 32.65 183.176 32.65ZM183.176 58.75C179.522 58.75 177.086 56.836 177.086 53.704C177.086 50.572 179.522 48.658 183.176 48.658C186.83 48.658 189.266 50.572 189.266 53.704C189.266 56.836 186.83 58.75 183.176 58.75Z" fill="#46BBCE"/>
<g filter="url(#filter1_di)">
<path d="M148.32 249.063C159.537 249.063 168.64 239.932 168.64 228.682V208.301H148.32C137.103 208.301 128 217.432 128 228.682C128 239.932 137.103 249.063 148.32 249.063Z" fill="white"/>
<path d="M128 186.032C128 174.781 137.103 165.651 148.32 165.651H168.64V206.413H148.32C137.103 206.413 128 197.282 128 186.032Z" fill="white"/>
<path d="M128 143.381C128 132.131 137.104 123 148.321 123H168.641V163.762H148.321C137.104 163.762 128 154.631 128 143.381Z" fill="white"/>
<path d="M170.528 123H190.848C202.065 123 211.168 132.131 211.168 143.381C211.168 154.631 202.065 163.762 190.848 163.762H170.528V123Z" fill="white"/>
<path d="M211.168 186.032C211.168 197.282 202.065 206.413 190.848 206.413C179.632 206.413 170.528 197.282 170.528 186.032C170.528 174.781 179.632 165.651 190.848 165.651C202.065 165.651 211.168 174.781 211.168 186.032Z" fill="white"/>
</g>
<defs>
<filter id="filter0_d" x="143" y="393" width="52.975" height="57.0001" filterUnits="userSpaceOnUse" color-interpolation-filters="sRGB">
<feFlood flood-opacity="0" result="BackgroundImageFix"/>
<feColorMatrix in="SourceAlpha" type="matrix" values="0 0 0 0 0 0 0 0 0 0 0 0 0 0 0 0 0 0 127 0"/>
<feOffset dx="3" dy="3"/>
<feGaussianBlur stdDeviation="3.5"/>
<feColorMatrix type="matrix" values="0 0 0 0 0.279 0 0 0 0 0.9 0 0 0 0 0.840225 0 0 0 1 0"/>
<feBlend mode="normal" in2="BackgroundImageFix" result="effect1_dropShadow"/>
<feBlend mode="normal" in="SourceGraphic" in2="effect1_dropShadow" result="shape"/>
</filter>
<filter id="filter1_di" x="122" y="117" width="103.168" height="146.063" filterUnits="userSpaceOnUse" color-interpolation-filters="sRGB">
<feFlood flood-opacity="0" result="BackgroundImageFix"/>
<feColorMatrix in="SourceAlpha" type="matrix" values="0 0 0 0 0 0 0 0 0 0 0 0 0 0 0 0 0 0 127 0"/>
<feOffset dx="4" dy="4"/>
<feGaussianBlur stdDeviation="5"/>
<feColorMatrix type="matrix" values="0 0 0 0 0.1715 0 0 0 0 0.816667 0 0 0 0 0.816667 0 0 0 1 0"/>
<feBlend mode="normal" in2="BackgroundImageFix" result="effect1_dropShadow"/>
<feBlend mode="normal" in="SourceGraphic" in2="effect1_dropShadow" result="shape"/>
<feColorMatrix in="SourceAlpha" type="matrix" values="0 0 0 0 0 0 0 0 0 0 0 0 0 0 0 0 0 0 127 0" result="hardAlpha"/>
<feOffset dx="-4" dy="-4"/>
<feGaussianBlur stdDeviation="4.5"/>
<feComposite in2="hardAlpha" operator="arithmetic" k2="-1" k3="1"/>
<feColorMatrix type="matrix" values="0 0 0 0 0.441945 0 0 0 0 0.887146 0 0 0 0 0.895833 0 0 0 0.52 0"/>
<feBlend mode="normal" in2="shape" result="effect2_innerShadow"/>
</filter>
<linearGradient id="paint0_linear" x1="5.5" y1="-157" x2="289.5" y2="495.5" gradientUnits="userSpaceOnUse">
<stop stop-color="#00C2FF"/>
<stop offset="1" stop-color="#1EE7CF"/>
</linearGradient>
<linearGradient id="paint1_linear" x1="49" y1="11" x2="301.5" y2="474" gradientUnits="userSpaceOnUse">
<stop stop-color="#19D2EB"/>
<stop offset="1" stop-color="#55F5DF"/>
</linearGradient>
<linearGradient id="paint2_linear" x1="59.5" y1="-9" x2="291.5" y2="495.5" gradientUnits="userSpaceOnUse">
<stop stop-color="#00E0FF"/>
<stop offset="1" stop-color="#42F2D1"/>
</linearGradient>
<linearGradient id="paint3_linear" x1="51" y1="11" x2="303.5" y2="474" gradientUnits="userSpaceOnUse">
<stop stop-color="#B2F6FF"/>
<stop offset="1" stop-color="#28D7BE"/>
</linearGradient>
<linearGradient id="paint4_linear" x1="27" y1="473.49" x2="247.084" y2="60.8524" gradientUnits="userSpaceOnUse">
<stop stop-color="#73F5FF"/>
<stop offset="0.99" stop-color="#7AFFEC"/>
</linearGradient>
<linearGradient id="paint5_linear" x1="129.774" y1="288" x2="310" y2="288" gradientUnits="userSpaceOnUse">
<stop stop-color="white"/>
<stop offset="0.99" stop-color="white" stop-opacity="0.4"/>
</linearGradient>
<linearGradient id="paint6_linear" x1="59.8997" y1="86" x2="140" y2="86" gradientUnits="userSpaceOnUse">
<stop stop-color="white"/>
<stop offset="0.99" stop-color="white" stop-opacity="0.4"/>
</linearGradient>
</defs>
</svg>
