<svg width="338" height="474" viewBox="0 0 338 474" fill="none" xmlns="http://www.w3.org/2000/svg">
<rect x="2.5" y="2.5" width="331" height="469" rx="32.5" fill="url(#paint0_linear)" stroke="url(#paint1_linear)" stroke-width="5"/>
<mask id="mask0" mask-type="alpha" maskUnits="userSpaceOnUse" x="2" y="0" width="336" height="474">
<rect x="-2.5" y="2.5" width="331" height="469" rx="41.5" transform="matrix(-1 0 0 1 333 0)" fill="url(#paint2_linear)" stroke="url(#paint3_linear)" stroke-width="5"/>
</mask>
<g mask="url(#mask0)">
<path d="M129.747 5.0093C129.747 5.0093 234.654 47.0947 238.632 101.845C242.609 156.595 219.132 152.615 226.093 185.086C233.053 217.557 347.517 255.616 316.691 356.766C285.865 457.916 188.416 370.584 85 469H301C317.569 469 331 455.569 331 439V35.0014C331 18.4323 317.568 5.00062 300.999 5.00139L129.747 5.0093Z" fill="url(#paint4_linear)" fill-opacity="0.5"/>
</g>
<path opacity="0.46" d="M114.88 323C95.8977 322.976 77.349 317.326 61.5777 306.763C45.8065 296.199 33.5206 281.198 26.2731 263.654C19.0255 246.11 17.1416 226.812 20.8594 208.198C24.5771 189.583 33.7297 172.489 47.1603 159.075C60.591 145.661 77.6967 136.53 96.3156 132.836C114.934 129.141 134.231 131.05 151.765 138.319C169.3 145.589 184.286 157.893 194.829 173.678C205.373 189.462 211 208.018 211 227C210.955 252.468 200.81 276.878 182.79 294.875C164.771 312.873 140.348 322.987 114.88 323ZM114.88 157.396C101.117 157.415 87.6698 161.514 76.2362 169.173C64.8026 176.833 55.8963 187.71 50.643 200.431C45.3896 213.151 44.025 227.143 46.7215 240.638C49.4181 254.133 56.0547 266.527 65.7928 276.251C75.5309 285.976 87.9332 292.595 101.432 295.273C114.931 297.951 128.921 296.567 141.634 291.296C154.347 286.025 165.212 277.104 172.856 265.66C180.5 254.215 184.58 240.762 184.58 227C184.522 208.55 177.154 190.874 164.09 177.846C151.026 164.818 133.33 157.499 114.88 157.493V157.396Z" fill="url(#paint5_linear)" fill-opacity="0.7"/>
<path opacity="0.46" d="M216.95 105C209.041 104.99 201.312 102.636 194.741 98.2344C188.169 93.8331 183.05 87.5825 180.03 80.2726C177.011 72.9627 176.226 64.9216 177.775 57.1657C179.324 49.4097 183.137 42.2871 188.733 36.698C194.33 31.1089 201.457 27.3043 209.215 25.7649C216.973 24.2256 225.013 25.0207 232.319 28.0496C239.625 31.0786 245.869 36.2055 250.262 42.7824C254.655 49.3593 257 57.0909 257 65C256.981 75.6116 252.754 85.7826 245.246 93.2815C237.738 100.78 227.561 104.995 216.95 105ZM216.95 35.9985C211.216 36.0064 205.612 37.7141 200.848 40.9056C196.084 44.0972 192.373 48.6294 190.185 53.9294C187.996 59.2294 187.427 65.0594 188.551 70.6825C189.674 76.3056 192.439 81.4694 196.497 85.5213C200.555 89.5732 205.722 92.3314 211.347 93.4472C216.971 94.5629 222.801 93.9863 228.098 91.79C233.395 89.5938 237.922 85.8766 241.107 81.1082C244.292 76.3398 245.991 70.7342 245.991 65C245.968 57.3124 242.898 49.9477 237.454 44.5193C232.011 39.0908 224.637 36.0412 216.95 36.0386V35.9985Z" fill="url(#paint6_linear)"/>
<path d="M98.6021 310.336C103.978 310.336 107.938 306.64 107.938 301.6C107.938 296.56 103.978 292.864 98.6021 292.864C93.2261 292.864 89.2661 296.56 89.2661 301.6C89.2661 306.64 93.2261 310.336 98.6021 310.336ZM98.6021 306.4C96.0581 306.4 94.0661 304.504 94.0661 301.6C94.0661 298.696 96.0581 296.8 98.6021 296.8C101.146 296.8 103.138 298.696 103.138 301.6C103.138 304.504 101.146 306.4 98.6021 306.4Z" fill="black"/>
<path d="M124.981 293.2H110.005V296.968H115.165V310H119.845V296.968H124.981V293.2Z" fill="black"/>
<path d="M138.979 310H144.331L139.027 301.312L144.283 293.2H139.291L135.283 299.728H133.003V293.2H128.275V310H133.003V303.568H135.163L138.979 310Z" fill="black"/>
<path d="M159.569 310H164.513L157.073 293.2H152.393L144.977 310H149.825L151.145 306.736H158.249L159.569 310ZM152.537 303.232L154.697 297.856L156.857 303.232H152.537Z" fill="black"/>
<path d="M178.03 301.264C179.446 300.568 180.334 299.296 180.334 297.712C180.334 294.592 176.734 292.816 172.654 292.816C170.686 292.816 168.598 293.224 166.75 294.112L168.142 297.712C169.582 296.944 171.238 296.56 172.606 296.56C174.262 296.56 175.534 297.136 175.534 298.264C175.534 299.128 174.814 299.68 173.518 299.68H169.606V303.16H173.902C175.246 303.16 176.206 303.592 176.206 304.624C176.206 305.92 174.622 306.592 172.606 306.592C171.07 306.592 169.27 306.208 167.71 305.416L166.294 308.728C168.478 309.832 170.902 310.36 173.134 310.36C177.406 310.36 181.006 308.488 181.006 305.272C181.006 303.424 179.878 301.96 178.03 301.264Z" fill="black"/>
<path d="M197.688 310H202.632L195.192 293.2H190.512L183.096 310H187.944L189.264 306.736H196.368L197.688 310ZM190.656 303.232L192.816 297.856L194.976 303.232H190.656Z" fill="black"/>
<path d="M218.449 293.2H203.473V296.968H208.633V310H213.313V296.968H218.449V293.2Z" fill="black"/>
<path d="M230.408 298.552H226.52V293.2H221.84V310H229.784C234.152 310 236.864 307.96 236.864 304.024C236.864 300.352 234.488 298.552 230.408 298.552ZM229.472 306.592H226.52V301.936H229.472C231.08 301.936 232.088 302.536 232.088 304.12C232.088 305.704 231.056 306.592 229.472 306.592Z" fill="black"/>
<path d="M99.6822 336.216C101.122 335.496 101.962 334.224 101.962 332.568C101.962 329.784 99.6102 328.2 95.6022 328.2H87.4422V345H96.0582C100.378 345 102.73 343.152 102.73 340.2C102.73 338.184 101.626 336.84 99.6822 336.216ZM92.1222 331.608H95.1462C96.4902 331.608 97.1622 332.184 97.1622 333.264C97.1622 334.368 96.4902 334.92 95.1462 334.92H92.1222V331.608ZM95.8662 341.592H92.1222V338.136H95.8662C97.2342 338.136 97.9302 338.688 97.9302 339.84C97.9302 340.992 97.2342 341.592 95.8662 341.592Z" fill="black"/>
<path d="M114.686 328.2V345H119.366V331.968H125.75V345H130.454V328.2H114.686Z" fill="black"/>
<path d="M143.501 345.336C148.877 345.336 152.837 341.64 152.837 336.6C152.837 331.56 148.877 327.864 143.501 327.864C138.125 327.864 134.165 331.56 134.165 336.6C134.165 341.64 138.125 345.336 143.501 345.336ZM143.501 341.4C140.957 341.4 138.965 339.504 138.965 336.6C138.965 333.696 140.957 331.8 143.501 331.8C146.045 331.8 148.037 333.696 148.037 336.6C148.037 339.504 146.045 341.4 143.501 341.4Z" fill="black"/>
<path d="M176.114 345L176.066 328.2H172.154L166.394 337.896L160.49 328.2H156.578V345H160.946V336.288L165.266 343.344H167.378L171.698 336.096L171.722 345H176.114Z" fill="black"/>
<path d="M189.144 345.336C194.52 345.336 198.48 341.64 198.48 336.6C198.48 331.56 194.52 327.864 189.144 327.864C183.768 327.864 179.808 331.56 179.808 336.6C179.808 341.64 183.768 345.336 189.144 345.336ZM189.144 341.4C186.6 341.4 184.608 339.504 184.608 336.6C184.608 333.696 186.6 331.8 189.144 331.8C191.688 331.8 193.68 333.696 193.68 336.6C193.68 339.504 191.688 341.4 189.144 341.4Z" fill="black"/>
<path d="M224.996 341.232V328.2H220.316V341.232H215.972V328.2H211.292V341.232H206.9V328.2H202.22V345H222.812V348.384H227.18V341.232H224.996Z" fill="black"/>
<path d="M230.655 345H235.143L242.055 335.16V345H246.735V328.2H242.271L235.335 338.064V328.2H230.655V345Z" fill="black"/>
<path fill-rule="evenodd" clip-rule="evenodd" d="M110.165 309.912C107.538 313.3 103.305 315.336 98.6021 315.336C90.7864 315.336 84.2661 309.712 84.2661 301.6C84.2661 293.487 90.7864 287.864 98.6021 287.864C101.402 287.864 104.035 288.585 106.262 289.884C107.178 288.851 108.515 288.2 110.005 288.2H124.981C125.558 288.2 126.112 288.298 126.628 288.478C127.144 288.298 127.698 288.2 128.275 288.2H133.003C134.194 288.2 135.288 288.617 136.147 289.312C137.024 288.603 138.13 288.2 139.291 288.2H144.283C145.902 288.2 147.406 288.982 148.338 290.274C149.265 288.989 150.766 288.2 152.393 288.2H157.073C159.051 288.2 160.844 289.366 161.645 291.175L162.115 292.237C162.567 291.12 163.421 290.164 164.585 289.605C167.192 288.353 170.035 287.816 172.654 287.816C175.332 287.816 178.194 288.385 180.57 289.79C182.187 290.747 183.734 292.219 184.607 294.196L185.938 291.181C186.737 289.369 188.531 288.2 190.512 288.2H195.192C196.869 288.2 198.413 289.039 199.332 290.397C200.232 289.071 201.751 288.2 203.473 288.2H218.449C219.044 288.2 219.615 288.304 220.145 288.495C220.674 288.304 221.245 288.2 221.84 288.2H226.52C229.281 288.2 231.52 290.438 231.52 293.2V293.586C233.874 293.735 236.33 294.392 238.344 296.051C240.845 298.11 241.864 301.04 241.864 304.024C241.864 307.233 240.699 310.253 238.129 312.357C235.712 314.336 232.664 315 229.784 315H221.84C220.036 315 218.456 314.045 217.577 312.614C216.697 314.045 215.117 315 213.313 315H208.633C207.507 315 206.468 314.628 205.632 314C204.779 314.64 203.729 315 202.632 315H197.688C195.65 315 193.816 313.763 193.053 311.874L192.996 311.736H192.635L192.579 311.874C191.815 313.763 189.981 315 187.944 315H183.096C181.971 315 180.897 314.622 180.033 313.952C177.886 314.944 175.457 315.36 173.134 315.36C171.115 315.36 168.995 315.04 166.932 314.376C166.202 314.779 165.372 315 164.513 315H159.569C157.531 315 155.698 313.763 154.934 311.874L154.878 311.736H154.516L154.46 311.874C153.696 313.763 151.863 315 149.825 315H144.977C144.869 315 144.761 314.996 144.654 314.99C144.547 314.996 144.439 315 144.331 315H138.979C137.885 315 136.841 314.642 135.991 314.009C135.158 314.631 134.123 315 133.003 315H128.275C126.504 315 124.948 314.079 124.06 312.69C123.172 314.079 121.616 315 119.845 315H115.165C112.403 315 110.165 312.761 110.165 310V309.912ZM115.165 310H119.845V296.968H124.981V293.2H110.005V296.968H115.165V310ZM128.275 310H133.003V303.568H135.163L138.979 310H144.331L139.027 301.312L144.283 293.2H139.291L135.283 299.728H133.003V293.2H128.275V310ZM181.006 305.328C181.006 305.31 181.006 305.291 181.006 305.272C181.006 305.05 180.99 304.834 180.958 304.624C180.891 304.179 180.754 303.761 180.553 303.378C180.268 302.833 179.856 302.357 179.335 301.968C178.955 301.685 178.518 301.448 178.03 301.264C178.576 300.996 179.043 300.642 179.412 300.218C179.885 299.672 180.195 299.01 180.297 298.264C180.322 298.085 180.334 297.9 180.334 297.712C180.334 297.377 180.293 297.057 180.214 296.754C179.556 294.231 176.296 292.816 172.654 292.816C172.638 292.816 172.622 292.816 172.606 292.816C172.282 292.817 171.954 292.829 171.624 292.853C170.601 292.926 169.562 293.11 168.557 293.413C167.938 293.6 167.332 293.832 166.75 294.112L168.142 297.712C168.232 297.664 168.322 297.618 168.413 297.573C168.801 297.382 169.202 297.219 169.606 297.082C169.847 297 170.088 296.929 170.329 296.866C170.51 296.82 170.69 296.778 170.868 296.742C171.472 296.621 172.062 296.56 172.606 296.56C172.622 296.56 172.638 296.56 172.654 296.56C172.957 296.562 173.247 296.584 173.518 296.624C174.163 296.722 174.702 296.928 175.059 297.242C175.174 297.342 175.27 297.454 175.345 297.576C175.372 297.62 175.396 297.665 175.417 297.712C175.494 297.878 175.534 298.062 175.534 298.264C175.534 298.273 175.534 298.281 175.534 298.29C175.534 298.319 175.532 298.348 175.53 298.377C175.529 298.394 175.527 298.41 175.525 298.426C175.449 299.111 174.88 299.569 173.902 299.662C173.781 299.674 173.653 299.68 173.518 299.68H169.606V303.16H173.902C175.077 303.16 175.959 303.49 176.162 304.263C176.191 304.374 176.206 304.494 176.206 304.624C176.206 304.636 176.206 304.648 176.206 304.661C176.206 304.664 176.206 304.667 176.206 304.67C176.199 304.889 176.147 305.09 176.054 305.272C176.041 305.298 176.027 305.325 176.012 305.35C175.937 305.477 175.842 305.595 175.729 305.703C175.322 306.091 174.68 306.354 173.902 306.488C173.659 306.53 173.402 306.559 173.134 306.576C172.962 306.587 172.786 306.592 172.606 306.592C172.332 306.592 172.05 306.58 171.762 306.555C171.062 306.495 170.33 306.363 169.606 306.155C169.384 306.092 169.162 306.021 168.942 305.943C168.629 305.831 168.319 305.706 168.017 305.565C167.984 305.55 167.95 305.534 167.917 305.518C167.848 305.485 167.779 305.451 167.71 305.416L166.294 308.728C166.467 308.815 166.642 308.899 166.817 308.979C167.215 309.161 167.62 309.324 168.029 309.47C168.519 309.644 169.015 309.791 169.512 309.914C170.04 310.044 170.569 310.145 171.095 310.217C171.604 310.288 172.109 310.332 172.606 310.35C172.783 310.357 172.959 310.36 173.134 310.36C175.018 310.36 176.772 309.996 178.143 309.313C178.656 309.058 179.115 308.758 179.508 308.416C180.433 307.61 180.99 306.571 181.006 305.328ZM195.192 293.2H190.512L183.096 310H187.944L189.264 306.736H196.368L197.688 310H202.632L195.192 293.2ZM192.816 297.856L190.656 303.232H194.976L192.816 297.856ZM157.073 293.2H152.393L144.977 310H149.825L151.145 306.736H158.249L159.569 310H164.513L157.073 293.2ZM154.697 297.856L152.537 303.232H156.857L154.697 297.856ZM107.938 301.522C107.924 299.817 107.456 298.269 106.634 296.968C106.189 296.265 105.641 295.634 105.005 295.09C103.365 293.689 101.142 292.864 98.6021 292.864C93.2261 292.864 89.2661 296.56 89.2661 301.6C89.2661 306.64 93.2261 310.336 98.6021 310.336C103.978 310.336 107.938 306.64 107.938 301.6C107.938 301.574 107.938 301.548 107.938 301.522ZM208.633 310H213.313V296.968H218.449V293.2H203.473V296.968H208.633V310ZM221.84 310H229.784C234.116 310 236.819 307.993 236.863 304.12C236.864 304.088 236.864 304.056 236.864 304.024C236.864 300.352 234.488 298.552 230.408 298.552H226.52V293.2H221.84V310ZM226.52 306.592H229.472C229.578 306.592 229.682 306.588 229.784 306.58C230.521 306.522 231.118 306.255 231.52 305.801C231.885 305.389 232.088 304.823 232.088 304.12C232.088 304.088 232.087 304.056 232.087 304.024C232.069 303.365 231.87 302.884 231.52 302.551C231.24 302.285 230.864 302.113 230.408 302.02C230.125 301.963 229.812 301.936 229.472 301.936H226.52V306.592ZM98.6021 301.4C98.5932 301.401 98.5519 301.406 98.4882 301.432C98.4068 301.465 98.3192 301.521 98.244 301.599C98.2435 301.599 98.2431 301.599 98.2427 301.6C98.2431 301.6 98.2435 301.601 98.244 301.601C98.3192 301.678 98.4068 301.735 98.4882 301.768C98.5519 301.794 98.5932 301.799 98.6021 301.8C98.611 301.799 98.6523 301.794 98.716 301.768C98.7974 301.735 98.885 301.678 98.9603 301.601C98.9607 301.601 98.9611 301.6 98.9616 301.6C98.9611 301.599 98.9607 301.599 98.9603 301.599C98.885 301.521 98.7974 301.465 98.716 301.432C98.6524 301.406 98.611 301.401 98.6021 301.4ZM96.7791 332.145C96.5191 331.867 96.1268 331.694 95.6022 331.633C95.4599 331.616 95.3079 331.608 95.1462 331.608H92.1222V334.92H95.1462C95.4126 334.92 95.6526 334.898 95.8662 334.855C96.5784 334.71 96.9971 334.324 97.1222 333.698C97.1431 333.593 97.1558 333.482 97.1603 333.363C97.1616 333.331 97.1622 333.298 97.1622 333.264C97.1622 333.251 97.1621 333.239 97.1619 333.227C97.1614 333.193 97.1603 333.161 97.1585 333.128C97.1529 333.027 97.1408 332.93 97.1222 332.838C97.1029 332.742 97.0767 332.652 97.0436 332.568C97.0252 332.521 97.0046 332.476 96.9819 332.432C96.9269 332.327 96.8593 332.231 96.7791 332.145ZM97.9022 339.464C97.8204 338.948 97.5593 338.587 97.1222 338.372C96.7992 338.214 96.3801 338.136 95.8662 338.136H92.1222V341.592H95.8662C95.9317 341.592 95.9957 341.591 96.0582 341.588C96.4855 341.569 96.8404 341.486 97.1222 341.34C97.3724 341.211 97.5649 341.033 97.6992 340.806C97.7536 340.714 97.7984 340.614 97.8336 340.507C97.8651 340.411 97.8889 340.308 97.905 340.2C97.9218 340.087 97.9302 339.967 97.9302 339.84C97.9302 339.827 97.9301 339.813 97.9299 339.8C97.9296 339.779 97.9291 339.759 97.9283 339.739C97.9248 339.643 97.9161 339.551 97.9022 339.464ZM87.4422 345V328.2H95.6022C99.169 328.2 101.424 329.454 101.878 331.693C101.934 331.97 101.962 332.261 101.962 332.568C101.962 332.808 101.945 333.04 101.91 333.264C101.799 333.983 101.512 334.613 101.074 335.137C100.71 335.573 100.241 335.936 99.6822 336.216C100.233 336.393 100.717 336.628 101.127 336.919C102.076 337.594 102.631 338.572 102.718 339.84C102.726 339.957 102.73 340.077 102.73 340.2C102.73 340.211 102.73 340.222 102.73 340.233C102.713 343.166 100.362 345 96.0582 345H87.4422ZM106.493 335.512C107.352 336.963 107.73 338.582 107.73 340.2C107.73 343.168 106.463 345.903 103.98 347.732C101.692 349.418 98.8388 350 96.0582 350H87.4422C84.6808 350 82.4422 347.761 82.4422 345V328.2C82.4422 325.438 84.6808 323.2 87.4422 323.2H95.6022C98.1574 323.2 100.876 323.688 103.106 325.211C105.576 326.899 106.962 329.546 106.962 332.568C106.962 333.612 106.798 334.599 106.493 335.512ZM109.686 328.2C109.686 325.438 111.925 323.2 114.686 323.2H130.454C132.265 323.2 133.852 324.163 134.729 325.606C137.167 323.855 140.22 322.864 143.501 322.864C146.792 322.864 149.853 323.861 152.294 325.62C153.169 324.17 154.76 323.2 156.578 323.2H160.49C162.235 323.2 163.853 324.109 164.761 325.6L166.341 328.195L167.855 325.646C168.756 324.13 170.39 323.2 172.154 323.2H176.066C177.884 323.2 179.475 324.17 180.35 325.621C182.792 323.861 185.853 322.864 189.144 322.864C192.434 322.864 195.495 323.861 197.936 325.62C198.812 324.17 200.403 323.2 202.22 323.2H206.9C207.688 323.2 208.433 323.382 209.096 323.707C209.759 323.382 210.504 323.2 211.292 323.2H215.972C216.751 323.2 217.487 323.378 218.144 323.695C218.801 323.378 219.538 323.2 220.316 323.2H224.996C226.046 323.2 227.021 323.524 227.826 324.077C228.63 323.524 229.605 323.2 230.655 323.2H235.335C236.681 323.2 237.904 323.732 238.803 324.598C239.725 323.71 240.965 323.2 242.271 323.2H246.735C249.496 323.2 251.735 325.438 251.735 328.2V345C251.735 347.761 249.496 350 246.735 350H242.055C240.714 350 239.497 349.472 238.599 348.613C237.677 349.495 236.442 350 235.143 350H231.913C231.242 351.968 229.376 353.384 227.18 353.384H222.812C220.616 353.384 218.751 351.968 218.079 350H202.22C200.403 350 198.812 349.03 197.936 347.58C195.495 349.339 192.434 350.336 189.144 350.336C185.868 350.336 182.819 349.348 180.383 347.603C180.179 347.937 179.936 348.249 179.655 348.53C178.717 349.471 177.443 350 176.114 350H171.722C170.23 350 168.89 349.346 167.973 348.308C167.777 348.332 167.578 348.344 167.378 348.344H165.266C165.073 348.344 164.882 348.333 164.693 348.311C163.777 349.347 162.438 350 160.946 350H156.578C154.76 350 153.169 349.03 152.294 347.58C149.853 349.339 146.792 350.336 143.501 350.336C140.22 350.336 137.167 349.345 134.729 347.594C133.852 349.037 132.265 350 130.454 350H125.75C124.536 350 123.424 349.568 122.558 348.849C121.692 349.568 120.579 350 119.366 350H114.686C111.925 350 109.686 347.761 109.686 345V328.2ZM125.75 345H130.454V328.2H114.686V345H119.366V331.968H125.75V345ZM135.454 341.207C137.041 343.736 139.965 345.336 143.501 345.336C147.06 345.336 149.998 343.716 151.578 341.159C152.385 339.854 152.837 338.304 152.837 336.6C152.837 334.896 152.385 333.346 151.578 332.04C149.998 329.484 147.06 327.864 143.501 327.864C139.965 327.864 137.041 329.464 135.454 331.993C134.629 333.309 134.165 334.876 134.165 336.6C134.165 338.324 134.629 339.891 135.454 341.207ZM156.578 345H160.946V336.288L165.266 343.344H167.378L171.698 336.096L171.722 345H176.114V344.988L176.066 328.2H172.154L166.394 337.896L160.49 328.2H156.578V345ZM181.103 341.218C182.692 343.741 185.612 345.336 189.144 345.336C192.702 345.336 195.641 343.716 197.22 341.159C198.027 339.854 198.48 338.304 198.48 336.6C198.48 334.896 198.027 333.346 197.22 332.04C195.641 329.484 192.702 327.864 189.144 327.864C185.593 327.864 182.659 329.476 181.077 332.024C180.264 333.333 179.808 334.889 179.808 336.6C179.808 338.329 180.274 339.9 181.103 341.218ZM202.22 345H222.812V348.384H227.18V341.232H224.996V328.2H220.316V341.232H215.972V328.2H211.292V341.232H206.9V328.2H202.22V345ZM230.655 345H235.143L242.055 335.16V345H246.735V328.2H242.271L235.335 338.064V328.2H230.655V345ZM143.615 336.432C143.552 336.406 143.51 336.401 143.501 336.4C143.492 336.401 143.451 336.406 143.387 336.432C143.306 336.465 143.218 336.521 143.143 336.599C143.143 336.599 143.142 336.599 143.142 336.6C143.142 336.6 143.143 336.601 143.143 336.601C143.218 336.678 143.306 336.735 143.387 336.768C143.451 336.794 143.492 336.799 143.501 336.8C143.51 336.799 143.552 336.794 143.615 336.768C143.697 336.735 143.784 336.678 143.859 336.601C143.86 336.601 143.86 336.6 143.861 336.6C143.86 336.599 143.86 336.599 143.859 336.599C143.784 336.521 143.697 336.465 143.615 336.432ZM189.143 336.4C189.134 336.401 189.093 336.406 189.03 336.432C188.948 336.465 188.861 336.521 188.785 336.599C188.785 336.599 188.784 336.599 188.784 336.6C188.784 336.6 188.785 336.601 188.785 336.601C188.861 336.678 188.948 336.735 189.03 336.768C189.093 336.794 189.135 336.799 189.144 336.8C189.152 336.799 189.194 336.794 189.257 336.768C189.339 336.735 189.426 336.678 189.502 336.601C189.502 336.601 189.503 336.6 189.503 336.6C189.503 336.599 189.502 336.599 189.502 336.599C189.426 336.521 189.339 336.465 189.257 336.432C189.194 336.406 189.152 336.401 189.143 336.4ZM94.0661 301.6C94.0661 304.504 96.0581 306.4 98.6021 306.4C101.146 306.4 103.138 304.504 103.138 301.6C103.138 298.696 101.146 296.8 98.6021 296.8C96.0581 296.8 94.0661 298.696 94.0661 301.6ZM138.965 336.6C138.965 339.504 140.957 341.4 143.501 341.4C146.045 341.4 148.037 339.504 148.037 336.6C148.037 333.696 146.045 331.8 143.501 331.8C140.957 331.8 138.965 333.696 138.965 336.6ZM184.608 336.6C184.608 339.504 186.6 341.4 189.144 341.4C191.688 341.4 193.68 339.504 193.68 336.6C193.68 333.696 191.688 331.8 189.144 331.8C186.6 331.8 184.608 333.696 184.608 336.6Z" fill="white"/>
<rect x="16" y="397" width="125" height="43" rx="13" fill="white"/>
<rect x="195" y="397" width="125" height="43" rx="13" fill="white"/>
<path d="M250 5C250 26.7478 241.361 47.6048 225.983 62.9828C210.605 78.3607 189.748 87 168 87C146.252 87 125.395 78.3607 110.017 62.9828C94.6393 47.6048 86 26.7478 86 5.00002L168 5H250Z" fill="white"/>
<path d="M48.032 423.216C48.032 414.96 35.328 417.52 35.328 414.096C35.328 412.976 36.288 412.08 38.944 412.08C40.896 412.08 43.008 412.656 45.152 413.808L47.104 409.104C45.312 408.048 42.976 407.408 40.608 407.216V403.76H36.768V407.28C31.584 407.92 29.056 410.896 29.056 414.416C29.056 422.736 41.792 420.144 41.792 423.696C41.792 424.784 40.768 425.52 38.144 425.52C35.552 425.52 32.736 424.624 30.752 423.312L28.672 427.984C30.528 429.264 33.568 430.192 36.768 430.416V433.84H40.608V430.288C45.6 429.552 48.032 426.608 48.032 423.216Z" fill="#2862F3"/>
<path d="M70.78 426.24C74.24 426.24 76.78 423.62 76.78 419C76.78 414.38 74.24 411.76 70.78 411.76C67.34 411.76 64.78 414.38 64.78 419C64.78 423.62 67.34 426.24 70.78 426.24ZM70.78 423.5C69.18 423.5 68.06 422.18 68.06 419C68.06 415.82 69.18 414.5 70.78 414.5C72.4 414.5 73.52 415.82 73.52 419C73.52 422.18 72.4 423.5 70.78 423.5ZM79.9603 422.28C78.8603 422.28 78.0203 423.04 78.0203 424.2C78.0203 425.02 78.4403 425.64 79.1003 425.9L78.2203 429.08H80.2003L81.3403 426.2C81.8003 425.1 81.8803 424.72 81.8803 424.2C81.8803 423.06 81.0803 422.28 79.9603 422.28ZM89.0808 426.24C92.5408 426.24 95.0808 423.62 95.0808 419C95.0808 414.38 92.5408 411.76 89.0808 411.76C85.6408 411.76 83.0808 414.38 83.0808 419C83.0808 423.62 85.6408 426.24 89.0808 426.24ZM89.0808 423.5C87.4808 423.5 86.3608 422.18 86.3608 419C86.3608 415.82 87.4808 414.5 89.0808 414.5C90.7008 414.5 91.8208 415.82 91.8208 419C91.8208 422.18 90.7008 423.5 89.0808 423.5ZM102.655 426.24C106.115 426.24 108.655 423.62 108.655 419C108.655 414.38 106.115 411.76 102.655 411.76C99.215 411.76 96.655 414.38 96.655 419C96.655 423.62 99.215 426.24 102.655 426.24ZM102.655 423.5C101.055 423.5 99.935 422.18 99.935 419C99.935 415.82 101.055 414.5 102.655 414.5C104.275 414.5 105.395 415.82 105.395 419C105.395 422.18 104.275 423.5 102.655 423.5Z" fill="black"/>
<path d="M238.22 423.36L241.44 420.32C243.4 418.5 243.78 417.26 243.78 415.9C243.78 413.36 241.7 411.76 238.58 411.76C236.06 411.76 234.1 412.78 233.02 414.36L235.38 415.88C236.06 414.94 237.08 414.48 238.28 414.48C239.76 414.48 240.52 415.12 240.52 416.22C240.52 416.9 240.3 417.62 239.06 418.8L233.66 423.9V426H244.24V423.36H238.22ZM251.538 426.24C254.998 426.24 257.538 423.62 257.538 419C257.538 414.38 254.998 411.76 251.538 411.76C248.098 411.76 245.538 414.38 245.538 419C245.538 423.62 248.098 426.24 251.538 426.24ZM251.538 423.5C249.938 423.5 248.818 422.18 248.818 419C248.818 415.82 249.938 414.5 251.538 414.5C253.158 414.5 254.278 415.82 254.278 419C254.278 422.18 253.158 423.5 251.538 423.5ZM278.816 426L278.776 415.24H275.856L272.196 421.46L268.756 415.24H265.496V426H268.316V419.54L271.456 424.96H272.776L275.996 419.56V426H278.816ZM281.805 426H284.685L289.905 419.6V426H293.005V415.24H290.145L284.905 421.64V415.24H281.805V426ZM296.004 426H299.104V421.98H303.784V426H306.904V415.24H303.784V419.44H299.104V415.24H296.004V426Z" fill="black"/>
<path d="M216.5 406C209.595 406 204 411.595 204 418.5C204 425.405 209.595 431 216.5 431C223.405 431 229 425.405 229 418.5C229 411.595 223.405 406 216.5 406Z" fill="#2862F3"/>
<path fill-rule="evenodd" clip-rule="evenodd" d="M215.961 410C214.878 410 214 410.878 214 411.961V419.153C214 419.311 214.019 419.464 214.054 419.611C214.047 420.263 214.376 420.901 214.974 421.262L220.414 424.535C221.313 425.077 222.481 424.786 223.022 423.887C223.563 422.988 223.273 421.82 222.374 421.279L217.923 418.6V411.961C217.923 410.878 217.045 410 215.961 410Z" fill="white"/>
<g filter="url(#filter0_d)">
<path d="M162.531 400.393L185.975 433.213C179.766 434.57 168.698 428.331 168.698 428.331C168.698 428.331 160.834 438.706 154.912 440L162.531 400.393Z" fill="white"/>
</g>
<path fill-rule="evenodd" clip-rule="evenodd" d="M154.912 440L158.469 421.51C161.522 424.284 164.956 426.604 168.698 428.331C168.698 428.331 160.834 438.706 154.912 440Z" fill="#AFD4FF"/>
<path d="M167.83 53.894L175.486 46.818C181.286 41.482 182.388 37.886 182.388 33.942C182.388 26.402 175.95 21.588 166.612 21.588C158.608 21.588 152.866 24.952 149.792 30.056L158.318 34.812C159.942 32.202 162.61 30.868 165.568 30.868C169.048 30.868 170.788 32.434 170.788 35.044C170.788 36.726 170.324 38.582 167.076 41.598L151.88 55.808V63H183.49V53.894H167.83Z" fill="#2862F3"/>
<g filter="url(#filter1_di)">
<path d="M191.366 186L224.913 152.454C229.029 148.337 229.029 141.663 224.913 137.543L217.457 130.087C213.341 125.971 206.666 125.971 202.546 130.087L169 163.634L135.454 130.087C131.337 125.971 124.663 125.971 120.543 130.087L113.087 137.543C108.971 141.659 108.971 148.334 113.087 152.454L146.634 186L113.087 219.546C108.971 223.663 108.971 230.337 113.087 234.457L120.543 241.913C124.659 246.029 131.337 246.029 135.454 241.913L169 208.366L202.546 241.913C206.663 246.029 213.341 246.029 217.457 241.913L224.913 234.457C229.029 230.341 229.029 223.666 224.913 219.546L191.366 186Z" fill="white"/>
</g>
<defs>
<filter id="filter0_d" x="143" y="393" width="52.975" height="57" filterUnits="userSpaceOnUse" color-interpolation-filters="sRGB">
<feFlood flood-opacity="0" result="BackgroundImageFix"/>
<feColorMatrix in="SourceAlpha" type="matrix" values="0 0 0 0 0 0 0 0 0 0 0 0 0 0 0 0 0 0 127 0"/>
<feOffset dx="3" dy="3"/>
<feGaussianBlur stdDeviation="3.5"/>
<feColorMatrix type="matrix" values="0 0 0 0 0.11124 0 0 0 0 0.205788 0 0 0 0 0.754167 0 0 0 0.66 0"/>
<feBlend mode="normal" in2="BackgroundImageFix" result="effect1_dropShadow"/>
<feBlend mode="normal" in="SourceGraphic" in2="effect1_dropShadow" result="shape"/>
</filter>
<filter id="filter1_di" x="104" y="121" width="138" height="138" filterUnits="userSpaceOnUse" color-interpolation-filters="sRGB">
<feFlood flood-opacity="0" result="BackgroundImageFix"/>
<feColorMatrix in="SourceAlpha" type="matrix" values="0 0 0 0 0 0 0 0 0 0 0 0 0 0 0 0 0 0 127 0"/>
<feOffset dx="4" dy="4"/>
<feGaussianBlur stdDeviation="5"/>
<feColorMatrix type="matrix" values="0 0 0 0 0.168813 0 0 0 0 0.394509 0 0 0 0 0.9125 0 0 0 1 0"/>
<feBlend mode="normal" in2="BackgroundImageFix" result="effect1_dropShadow"/>
<feBlend mode="normal" in="SourceGraphic" in2="effect1_dropShadow" result="shape"/>
<feColorMatrix in="SourceAlpha" type="matrix" values="0 0 0 0 0 0 0 0 0 0 0 0 0 0 0 0 0 0 127 0" result="hardAlpha"/>
<feOffset dx="-4" dy="-4"/>
<feGaussianBlur stdDeviation="4.5"/>
<feComposite in2="hardAlpha" operator="arithmetic" k2="-1" k3="1"/>
<feColorMatrix type="matrix" values="0 0 0 0 0.564167 0 0 0 0 0.713194 0 0 0 0 1 0 0 0 1 0"/>
<feBlend mode="normal" in2="shape" result="effect2_innerShadow"/>
</filter>
<linearGradient id="paint0_linear" x1="57.5" y1="-9" x2="289.5" y2="495.5" gradientUnits="userSpaceOnUse">
<stop stop-color="#3793FF"/>
<stop offset="1" stop-color="#141CE1"/>
</linearGradient>
<linearGradient id="paint1_linear" x1="49" y1="11" x2="301.5" y2="474" gradientUnits="userSpaceOnUse">
<stop stop-color="#6369FF"/>
<stop offset="1" stop-color="#51B5F4"/>
</linearGradient>
<linearGradient id="paint2_linear" x1="57.5" y1="-9" x2="289.5" y2="495.5" gradientUnits="userSpaceOnUse">
<stop stop-color="#00E0FF"/>
<stop offset="1" stop-color="#42F2D1"/>
</linearGradient>
<linearGradient id="paint3_linear" x1="49" y1="11" x2="301.5" y2="474" gradientUnits="userSpaceOnUse">
<stop stop-color="#51B5F5"/>
<stop offset="1" stop-color="#28D7BE"/>
</linearGradient>
<linearGradient id="paint4_linear" x1="308.165" y1="473.49" x2="92.7043" y2="54.1817" gradientUnits="userSpaceOnUse">
<stop stop-color="#73F5FF"/>
<stop offset="0.99" stop-color="#7AFFEC"/>
</linearGradient>
<linearGradient id="paint5_linear" x1="18.7592" y1="227" x2="211" y2="227" gradientUnits="userSpaceOnUse">
<stop stop-color="white"/>
<stop offset="0.99" stop-color="white" stop-opacity="0.4"/>
</linearGradient>
<linearGradient id="paint6_linear" x1="176.9" y1="65" x2="257" y2="65" gradientUnits="userSpaceOnUse">
<stop stop-color="white"/>
<stop offset="0.99" stop-color="white" stop-opacity="0.4"/>
</linearGradient>
</defs>
</svg>
