<svg width="338" height="474" viewBox="0 0 338 474" fill="none" xmlns="http://www.w3.org/2000/svg">
<rect x="2.5" y="2.5" width="331" height="469" rx="32.5" fill="url(#paint0_linear)" stroke="url(#paint1_linear)" stroke-width="5"/>
<mask id="mask0" mask-type="alpha" maskUnits="userSpaceOnUse" x="2" y="0" width="336" height="474">
<rect x="4.5" y="2.5" width="331" height="469" rx="41.5" fill="url(#paint2_linear)" stroke="url(#paint3_linear)" stroke-width="5"/>
</mask>
<g mask="url(#mask0)">
<path d="M198.89 5.0093C198.89 5.0093 97.8208 47.0947 93.9888 101.845C90.1568 156.595 112.775 152.615 106.069 185.086C99.3631 217.557 -10.9124 255.616 18.7856 356.766C48.4837 457.916 142.368 370.584 242 469H35C18.4315 469 5 455.569 5 439V35.0014C5 18.4323 18.4323 5.00064 35.0014 5.00144L198.89 5.0093Z" fill="url(#paint4_linear)" fill-opacity="0.5"/>
</g>
<path opacity="0.46" d="M219.887 378C202.092 377.978 184.702 372.68 169.917 362.777C155.131 352.875 143.613 338.811 136.819 322.363C130.024 305.916 128.258 287.824 131.743 270.373C135.229 252.922 143.809 236.896 156.4 224.321C168.992 211.745 185.028 203.185 202.483 199.721C219.939 196.258 238.029 198.046 254.468 204.862C270.906 211.677 284.956 223.212 294.84 238.01C304.724 252.808 310 270.204 310 288C309.958 311.876 300.447 334.761 283.553 351.633C266.66 368.506 243.763 377.988 219.887 378ZM219.887 222.747C206.985 222.764 194.378 226.607 183.659 233.788C172.94 240.969 164.59 251.166 159.665 263.091C154.74 275.016 153.461 288.134 155.989 300.786C158.517 313.438 164.739 325.056 173.868 334.173C182.998 343.29 194.625 349.496 207.28 352.006C219.936 354.517 233.051 353.219 244.97 348.278C256.888 343.336 267.074 334.972 274.24 324.243C281.406 313.515 285.231 300.902 285.231 288C285.177 270.703 278.27 254.132 266.022 241.918C253.774 229.704 237.184 222.843 219.887 222.837V222.747Z" fill="url(#paint5_linear)"/>
<path opacity="0.46" d="M99.9498 126C92.0407 125.99 84.3121 123.636 77.7407 119.234C71.1694 114.833 66.0503 108.583 63.0305 101.273C60.0106 93.9627 59.2257 85.9216 60.7747 78.1657C62.3238 70.4097 66.1374 63.2871 71.7335 57.698C77.3296 52.1089 84.457 48.3043 92.2148 46.7649C99.9727 45.2256 108.013 46.0207 115.319 49.0496C122.625 52.0786 128.869 57.2055 133.262 63.7824C137.655 70.3593 140 78.0909 140 86C139.981 96.6116 135.754 106.783 128.246 114.281C120.738 121.78 110.561 125.995 99.9498 126ZM99.9498 56.9985C94.2156 57.0064 88.6124 58.7141 83.8484 61.9056C79.0844 65.0972 75.3735 69.6294 73.1846 74.9294C70.9957 80.2294 70.4271 86.0594 71.5506 91.6825C72.6742 97.3056 75.4395 102.469 79.497 106.521C83.5545 110.573 88.7222 113.331 94.3468 114.447C99.9715 115.563 105.801 114.986 111.098 112.79C116.395 110.594 120.922 106.877 124.107 102.108C127.292 97.3398 128.991 91.7342 128.991 86C128.968 78.3124 125.898 70.9477 120.454 65.5193C115.011 60.0908 107.637 57.0412 99.9498 57.0386V56.9985Z" fill="url(#paint6_linear)"/>
<path d="M64.2276 318.322C69.3796 318.322 73.1746 314.78 73.1746 309.95C73.1746 305.12 69.3796 301.578 64.2276 301.578C59.0756 301.578 55.2806 305.12 55.2806 309.95C55.2806 314.78 59.0756 318.322 64.2276 318.322ZM64.2276 314.55C61.7896 314.55 59.8806 312.733 59.8806 309.95C59.8806 307.167 61.7896 305.35 64.2276 305.35C66.6656 305.35 68.5746 307.167 68.5746 309.95C68.5746 312.733 66.6656 314.55 64.2276 314.55Z" fill="black"/>
<path d="M88.3569 301.9H74.0049V305.511H78.9499V318H83.4349V305.511H88.3569V301.9Z" fill="black"/>
<path d="M90.4562 301.9V318H94.9412V305.511H101.059V318H105.567V301.9H90.4562Z" fill="black"/>
<path d="M116.369 301.9H109.009V318H113.563V313.791H116.369C120.762 313.791 123.522 311.514 123.522 307.857C123.522 304.177 120.762 301.9 116.369 301.9ZM116.093 310.203H113.563V305.488H116.093C117.979 305.488 118.922 306.362 118.922 307.857C118.922 309.329 117.979 310.203 116.093 310.203Z" fill="black"/>
<path d="M137.151 318H141.889L134.759 301.9H130.274L123.167 318H127.813L129.078 314.872H135.886L137.151 318ZM130.412 311.514L132.482 306.362L134.552 311.514H130.412Z" fill="black"/>
<path d="M155.464 309.582C156.844 308.892 157.649 307.673 157.649 306.086C157.649 303.418 155.395 301.9 151.554 301.9H143.734V318H151.991C156.131 318 158.385 316.229 158.385 313.4C158.385 311.468 157.327 310.18 155.464 309.582ZM148.219 305.166H151.117C152.405 305.166 153.049 305.718 153.049 306.753C153.049 307.811 152.405 308.34 151.117 308.34H148.219V305.166ZM151.807 314.734H148.219V311.422H151.807C153.118 311.422 153.785 311.951 153.785 313.055C153.785 314.159 153.118 314.734 151.807 314.734Z" fill="black"/>
<path d="M160.849 318H165.15L171.774 308.57V318H176.259V301.9H171.981L165.334 311.353V301.9H160.849V318Z" fill="black"/>
<path d="M192.688 301.9H178.336V305.511H183.281V318H187.766V305.511H192.688V301.9Z" fill="black"/>
<path d="M202.998 307.029H199.272V301.9H194.787V318H202.4C206.586 318 209.185 316.045 209.185 312.273C209.185 308.754 206.908 307.029 202.998 307.029ZM202.101 314.734H199.272V310.272H202.101C203.642 310.272 204.608 310.847 204.608 312.365C204.608 313.883 203.619 314.734 202.101 314.734Z" fill="black"/>
<path d="M218.169 301.9V318H222.654V305.511H228.772V318H233.28V301.9H218.169Z" fill="black"/>
<path d="M244.082 301.9H236.722V318H241.276V313.791H244.082C248.475 313.791 251.235 311.514 251.235 307.857C251.235 304.177 248.475 301.9 244.082 301.9ZM243.806 310.203H241.276V305.488H243.806C245.692 305.488 246.635 306.362 246.635 307.857C246.635 309.329 245.692 310.203 243.806 310.203Z" fill="black"/>
<path d="M253.298 318H257.599L264.223 308.57V318H268.708V301.9H264.43L257.783 311.353V301.9H253.298V318Z" fill="black"/>
<path d="M283.964 301.9H272.165V318H276.65V305.511H283.941L283.964 301.9Z" fill="black"/>
<path d="M280.596 313.124H287.312V309.766H280.596V313.124Z" fill="black"/>
<path d="M41.0789 328.9L40.8489 335.317C40.7109 338.951 40.3659 341.343 38.5029 341.343C38.2959 341.343 38.0889 341.32 37.8819 341.274L37.6289 345C38.3879 345.184 39.0779 345.276 39.6989 345.276C43.7929 345.276 44.6439 341.412 44.8509 335.133L44.9429 332.511H49.5659V345H54.0509V328.9H41.0789Z" fill="black"/>
<path d="M69.8688 345H74.6068L67.4768 328.9H62.9918L55.8848 345H60.5308L61.7958 341.872H68.6038L69.8688 345ZM63.1298 338.514L65.1998 333.362L67.2698 338.514H63.1298Z" fill="black"/>
<path d="M93.7938 328.9V341.389H89.6308V328.9H85.1458V341.389H80.9368V328.9H76.4518V345H98.2788V328.9H93.7938Z" fill="black"/>
<path d="M106.228 341.481V338.537H113.381V335.133H106.228V332.419H114.347V328.9H101.72V345H114.646V341.481H106.228Z" fill="black"/>
<path d="M128.005 328.9V334.949H121.795V328.9H117.241V345H121.795V338.721H128.005V345H132.559V328.9H128.005Z" fill="black"/>
<path d="M136.018 345H140.319L146.943 335.57V345H151.428V328.9H147.15L140.503 338.353V328.9H136.018V345Z" fill="black"/>
<path d="M159.393 341.481V338.537H166.546V335.133H159.393V332.419H167.512V328.9H154.885V345H167.811V341.481H159.393Z" fill="black"/>
<path d="M177.099 328.9V345H181.584V332.511H187.702V345H192.21V328.9H177.099Z" fill="black"/>
<path d="M203.564 345.322C208.716 345.322 212.511 341.78 212.511 336.95C212.511 332.12 208.716 328.578 203.564 328.578C198.412 328.578 194.617 332.12 194.617 336.95C194.617 341.78 198.412 345.322 203.564 345.322ZM203.564 341.55C201.126 341.55 199.217 339.733 199.217 336.95C199.217 334.167 201.126 332.35 203.564 332.35C206.002 332.35 207.911 334.167 207.911 336.95C207.911 339.733 206.002 341.55 203.564 341.55Z" fill="black"/>
<path d="M226.032 341.481V338.537H233.185V335.133H226.032V332.419H234.151V328.9H221.524V345H234.45V341.481H226.032Z" fill="black"/>
<path d="M236.022 340.124H242.738V336.766H236.022V340.124Z" fill="black"/>
<path d="M264.167 345L264.121 328.9H260.372L254.852 338.192L249.194 328.9H245.445V345H249.654V336.697L253.771 343.413H255.795L259.935 336.467L259.981 345H264.167Z" fill="black"/>
<path d="M279.442 345H284.18L277.05 328.9H272.565L265.458 345H270.104L271.369 341.872H278.177L279.442 345ZM272.703 338.514L274.773 333.362L276.843 338.514H272.703Z" fill="black"/>
<path d="M285.471 345H290.025V328.9H285.471V345Z" fill="black"/>
<path d="M293.265 345H305.501V341.389H297.819V328.9H293.265V345Z" fill="black"/>
<path fill-rule="evenodd" clip-rule="evenodd" d="M74.1733 319.482C71.6256 321.909 68.0864 323.322 64.2277 323.322C56.636 323.322 50.2807 317.853 50.2807 309.95C50.2807 302.048 56.636 296.578 64.2277 296.578C66.5858 296.578 68.8245 297.106 70.7906 298.07C71.6597 297.34 72.781 296.9 74.0051 296.9H88.3571C88.7171 296.9 89.0682 296.938 89.4067 297.01C89.7452 296.938 90.0963 296.9 90.4563 296.9H105.567C106.172 296.9 106.752 297.007 107.288 297.204C107.825 297.007 108.404 296.9 109.009 296.9H116.369C119.38 296.9 122.413 297.68 124.788 299.652C125.041 299.863 125.282 300.083 125.51 300.311L125.699 299.881C126.499 298.069 128.293 296.9 130.274 296.9H134.759C136.67 296.9 138.408 297.989 139.246 299.694C140.061 298.039 141.764 296.9 143.734 296.9H151.554C153.557 296.9 155.679 297.21 157.574 298.122C158.451 297.361 159.596 296.9 160.849 296.9H165.334C166.61 296.9 167.774 297.378 168.657 298.164C169.563 297.359 170.743 296.9 171.981 296.9H176.259C176.615 296.9 176.962 296.937 177.298 297.008C177.633 296.937 177.98 296.9 178.336 296.9H192.688C193.048 296.9 193.399 296.938 193.738 297.01C194.076 296.938 194.427 296.9 194.787 296.9H199.272C202.034 296.9 204.272 299.139 204.272 301.9V302.076C206.498 302.244 208.818 302.892 210.736 304.472C211.817 305.362 212.615 306.417 213.169 307.567V301.9C213.169 299.139 215.408 296.9 218.169 296.9H233.28C233.885 296.9 234.465 297.007 235.001 297.204C235.538 297.007 236.117 296.9 236.722 296.9H244.082C246.128 296.9 248.184 297.26 250.037 298.11C250.913 297.356 252.052 296.9 253.298 296.9H257.783C259.059 296.9 260.223 297.378 261.107 298.164C262.012 297.359 263.192 296.9 264.43 296.9H268.708C269.316 296.9 269.898 297.009 270.437 297.207C270.975 297.009 271.558 296.9 272.165 296.9H283.964C285.296 296.9 286.573 297.431 287.511 298.376C288.45 299.32 288.973 300.6 288.964 301.932L288.944 305.039C290.904 305.715 292.312 307.576 292.312 309.766V313.124C292.312 315.886 290.074 318.124 287.312 318.124H281.649C281.583 320.828 279.37 323 276.65 323H272.165C271.558 323 270.975 322.892 270.437 322.693C269.898 322.892 269.316 323 268.708 323H264.223C262.953 323 261.793 322.526 260.911 321.746C260.007 322.545 258.832 323 257.599 323H253.298C250.611 323 248.419 320.881 248.303 318.223C247.627 318.418 246.934 318.559 246.234 318.652C245.914 321.105 243.816 323 241.276 323H236.722C236.117 323 235.538 322.893 235.001 322.696C234.465 322.893 233.885 323 233.28 323H228.772C227.62 323 226.559 322.61 225.713 321.955C224.868 322.61 223.806 323 222.654 323H218.169C215.408 323 213.169 320.762 213.169 318V317.041C212.571 318.312 211.699 319.463 210.53 320.42C208.163 322.357 205.19 323 202.4 323H194.787C193.419 323 192.18 322.451 191.277 321.56C190.374 322.451 189.134 323 187.766 323H183.281C181.913 323 180.673 322.45 179.77 321.56C178.867 322.45 177.627 323 176.259 323H171.774C170.504 323 169.344 322.526 168.462 321.746C167.558 322.545 166.383 323 165.15 323H160.849C159.674 323 158.593 322.595 157.74 321.916C155.935 322.705 153.939 323 151.991 323H143.734C143.418 323 143.109 322.971 142.809 322.915C142.508 322.971 142.2 323 141.889 323H137.151C135.113 323 133.279 321.764 132.515 319.875L132.514 319.872H132.449L132.448 319.875C131.684 321.764 129.85 323 127.813 323H123.167C121.476 323 119.9 322.146 118.978 320.73C118.706 320.312 118.501 319.863 118.366 319.396C117.761 321.478 115.84 323 113.563 323H109.009C108.404 323 107.825 322.893 107.288 322.696C106.752 322.893 106.172 323 105.567 323H101.059C99.9071 323 98.8459 322.61 98.0004 321.955C97.1548 322.61 96.0936 323 94.9413 323H90.4563C89.0882 323 87.8485 322.451 86.9457 321.56C86.0429 322.451 84.8032 323 83.4351 323H78.9501C76.7045 323 74.8047 321.52 74.1733 319.482ZM78.9501 318H83.4351V305.511H88.3571V301.9H74.0051V305.511H78.9501V318ZM90.4563 318H94.9413V305.511H101.059V318H105.567V301.9H90.4563V318ZM73.1615 310.44C73.1703 310.278 73.1747 310.115 73.1747 309.95C73.1747 308.287 72.7248 306.777 71.9245 305.511C71.2083 304.378 70.2113 303.442 69.0051 302.767C67.6447 302.006 66.0182 301.578 64.2277 301.578C59.0757 301.578 55.2807 305.12 55.2807 309.95C55.2807 314.78 59.0757 318.322 64.2277 318.322C69.2038 318.322 72.914 315.018 73.1615 310.44ZM141.889 318L134.759 301.9H130.274L123.167 318H127.813L129.078 314.872H135.886L137.151 318H141.889ZM132.482 306.362L130.412 311.514H134.552L132.482 306.362ZM109.009 301.9V318H113.563V313.791H116.369C117.67 313.791 118.828 313.591 119.813 313.215C122.155 312.321 123.522 310.431 123.522 307.857C123.522 307.059 123.392 306.327 123.144 305.67C122.248 303.297 119.809 301.9 116.369 301.9H109.009ZM113.563 310.203H116.093C116.187 310.203 116.279 310.201 116.369 310.197C117.433 310.145 118.164 309.79 118.563 309.19C118.802 308.83 118.922 308.381 118.922 307.857C118.922 307.325 118.802 306.871 118.563 306.507C118.164 305.901 117.433 305.546 116.369 305.495C116.279 305.49 116.187 305.488 116.093 305.488H113.563V310.203ZM160.849 318H165.15L171.774 308.57V318H176.259V301.9H171.981L165.334 311.353V301.9H160.849V318ZM143.734 301.9V318H151.991C153.551 318 154.844 317.748 155.849 317.283C157.42 316.556 158.288 315.306 158.377 313.681C158.382 313.589 158.385 313.495 158.385 313.4C158.385 313.283 158.381 313.168 158.373 313.055C158.295 311.916 157.823 311.022 157.016 310.382C156.683 310.118 156.292 309.897 155.849 309.72C155.725 309.671 155.596 309.625 155.464 309.582C155.598 309.515 155.726 309.443 155.849 309.366C156.281 309.096 156.644 308.767 156.928 308.383C157.274 307.916 157.503 307.368 157.599 306.753C157.632 306.539 157.649 306.316 157.649 306.086C157.649 305.7 157.602 305.338 157.509 305.002C157.263 304.105 156.697 303.387 155.849 302.868C154.814 302.236 153.359 301.9 151.554 301.9H143.734ZM148.219 305.166V308.34H151.117C151.372 308.34 151.602 308.319 151.807 308.278C152.53 308.131 152.937 307.725 153.029 307.06C153.033 307.027 153.037 306.994 153.04 306.96C153.046 306.893 153.049 306.824 153.049 306.753C153.049 306.667 153.044 306.584 153.035 306.505C153.018 306.353 152.985 306.213 152.935 306.086C152.884 305.955 152.815 305.837 152.728 305.734C152.668 305.662 152.6 305.596 152.523 305.538C152.283 305.354 151.96 305.237 151.554 305.19C151.417 305.174 151.272 305.166 151.117 305.166H148.219ZM148.219 311.422V314.734H151.807C151.87 314.734 151.931 314.733 151.991 314.73C152.514 314.707 152.924 314.584 153.219 314.363C153.302 314.301 153.376 314.232 153.44 314.155C153.497 314.087 153.546 314.015 153.589 313.936C153.673 313.78 153.731 313.601 153.761 313.4C153.777 313.292 153.785 313.177 153.785 313.055C153.785 313.005 153.783 312.956 153.781 312.908C153.777 312.851 153.772 312.796 153.765 312.743C153.765 312.741 153.765 312.74 153.764 312.738C153.706 312.311 153.524 311.99 153.219 311.772C152.89 311.537 152.418 311.422 151.807 311.422H148.219ZM183.281 318H187.766V305.511H192.688V301.9H178.336V305.511H183.281V318ZM194.787 318H202.4C206.552 318 209.143 316.077 209.185 312.365C209.185 312.335 209.185 312.304 209.185 312.273C209.185 308.754 206.908 307.029 202.998 307.029H199.272V301.9H194.787V318ZM199.272 314.734H202.101C202.204 314.734 202.303 314.73 202.4 314.723C203.248 314.656 203.903 314.3 204.272 313.693C204.49 313.336 204.608 312.89 204.608 312.365C204.608 312.334 204.608 312.303 204.607 312.273C204.594 311.787 204.478 311.402 204.272 311.105C203.997 310.707 203.561 310.467 202.998 310.353C202.728 310.298 202.427 310.272 202.101 310.272H199.272V314.734ZM228.772 318H233.28V301.9H218.169V318H222.654V305.511H228.772V318ZM236.722 301.9V318H241.276V313.791H244.082C245.74 313.791 247.166 313.467 248.298 312.866C250.165 311.875 251.235 310.134 251.235 307.857C251.235 305.566 250.165 303.819 248.298 302.826C247.166 302.225 245.74 301.9 244.082 301.9H236.722ZM241.276 310.203H243.806C243.9 310.203 243.992 310.201 244.082 310.197C245.146 310.145 245.877 309.79 246.276 309.19C246.515 308.83 246.635 308.381 246.635 307.857C246.635 307.325 246.515 306.871 246.276 306.507C245.877 305.901 245.146 305.546 244.082 305.495C243.992 305.49 243.9 305.488 243.806 305.488H241.276V310.203ZM253.298 318H257.599L264.223 308.57V318H268.708V301.9H264.43L257.783 311.353V301.9H253.298V318ZM280.596 313.124H287.312V309.766H280.596V313.124ZM272.165 301.9V318H276.65V305.511H283.941L283.964 301.9H272.165ZM64.4159 309.596C64.3126 309.554 64.2427 309.55 64.2277 309.55C64.2127 309.55 64.1428 309.554 64.0396 309.596C63.9354 309.639 63.8275 309.709 63.7353 309.803C63.6844 309.856 63.647 309.906 63.6202 309.95C63.647 309.994 63.6844 310.045 63.7353 310.097C63.8275 310.191 63.9354 310.261 64.0396 310.304C64.1428 310.346 64.2127 310.35 64.2277 310.35C64.2427 310.35 64.3126 310.346 64.4159 310.304C64.52 310.261 64.6279 310.191 64.7201 310.097C64.771 310.045 64.8085 309.994 64.8352 309.95C64.8085 309.906 64.771 309.856 64.7201 309.803C64.6279 309.709 64.52 309.639 64.4159 309.596ZM36.0822 328.721C36.1787 326.031 38.3873 323.9 41.079 323.9H54.051C56.0069 323.9 57.7004 325.023 58.5221 326.659C59.3663 324.974 61.0933 323.9 62.9919 323.9H67.4769C69.3882 323.9 71.1259 324.989 71.9638 326.694C72.7789 325.039 74.4825 323.9 76.4519 323.9H80.9369C81.6887 323.9 82.4018 324.066 83.0414 324.363C83.6811 324.066 84.3941 323.9 85.1459 323.9H89.6309C90.3737 323.9 91.0787 324.062 91.7124 324.353C92.3462 324.062 93.0512 323.9 93.7939 323.9H98.279C98.8836 323.9 99.4632 324.007 99.9997 324.204C100.536 324.007 101.116 323.9 101.721 323.9H114.348C114.851 323.9 115.336 323.974 115.794 324.113C116.252 323.974 116.738 323.9 117.241 323.9H121.795C122.968 323.9 124.047 324.304 124.9 324.981C125.753 324.304 126.832 323.9 128.005 323.9H132.559C133.167 323.9 133.75 324.009 134.289 324.207C134.828 324.009 135.41 323.9 136.018 323.9H140.503C141.779 323.9 142.943 324.378 143.827 325.164C144.733 324.359 145.912 323.9 147.15 323.9H151.428C152.036 323.9 152.618 324.009 153.157 324.207C153.696 324.009 154.278 323.9 154.886 323.9H167.513C169.778 323.9 171.692 325.407 172.306 327.473C172.92 325.407 174.834 323.9 177.099 323.9H192.21C193.718 323.9 195.069 324.567 195.986 325.622C198.18 324.309 200.79 323.578 203.564 323.578C209.372 323.578 214.456 326.779 216.524 331.821V328.9C216.524 326.139 218.763 323.9 221.524 323.9H234.151C236.913 323.9 239.151 326.139 239.151 328.9V331.766H240.445V328.9C240.445 326.139 242.684 323.9 245.445 323.9H249.194C250.939 323.9 252.558 324.81 253.465 326.3L254.799 328.491L256.074 326.346C256.975 324.83 258.608 323.9 260.372 323.9H264.121C265.896 323.9 267.456 324.825 268.343 326.22C269.251 324.79 270.837 323.9 272.565 323.9H277.05C278.77 323.9 280.351 324.783 281.26 326.203C282.149 324.818 283.703 323.9 285.471 323.9H290.025C290.592 323.9 291.137 323.994 291.645 324.168C292.153 323.994 292.698 323.9 293.265 323.9H297.819C300.58 323.9 302.819 326.139 302.819 328.9V336.389H305.501C308.262 336.389 310.501 338.628 310.501 341.389V345C310.501 347.762 308.262 350 305.501 350H293.265C292.698 350 292.153 349.906 291.645 349.732C291.137 349.906 290.592 350 290.025 350H285.471C285.251 350 285.035 349.986 284.823 349.959C284.611 349.986 284.396 350 284.18 350H279.442C277.404 350 275.57 348.764 274.806 346.875L274.805 346.872H274.74L274.739 346.875C273.975 348.764 272.141 350 270.104 350H265.458C265.24 350 265.025 349.986 264.812 349.958C264.6 349.986 264.384 350 264.167 350H259.981C258.527 350 257.217 349.379 256.303 348.387C256.136 348.404 255.966 348.413 255.795 348.413H253.771C253.622 348.413 253.474 348.406 253.327 348.393C252.413 349.381 251.106 350 249.654 350H245.445C242.725 350 240.513 347.828 240.447 345.124H239.449C239.383 347.828 237.17 350 234.45 350H221.524C218.763 350 216.524 347.762 216.524 345V342.079C214.456 347.121 209.372 350.322 203.564 350.322C200.79 350.322 198.18 349.592 195.986 348.279C195.069 349.333 193.718 350 192.21 350H187.702C186.55 350 185.489 349.61 184.643 348.955C183.798 349.61 182.737 350 181.584 350H177.099C174.994 350 173.193 348.699 172.455 346.857C171.718 348.699 169.917 350 167.812 350H154.886C154.278 350 153.696 349.892 153.157 349.693C152.618 349.892 152.036 350 151.428 350H146.943C145.673 350 144.513 349.526 143.631 348.746C142.727 349.545 141.553 350 140.319 350H136.018C135.41 350 134.828 349.892 134.289 349.693C133.75 349.892 133.167 350 132.559 350H128.005C126.832 350 125.753 349.596 124.9 348.919C124.047 349.596 122.968 350 121.795 350H117.241C116.792 350 116.357 349.941 115.944 349.83C115.53 349.941 115.095 350 114.647 350H101.721C101.116 350 100.536 349.893 99.9997 349.696C99.4632 349.893 98.8836 350 98.279 350H76.4519C76.136 350 75.8269 349.971 75.5272 349.915C75.2266 349.971 74.9187 350 74.6069 350H69.8689C67.8313 350 65.9975 348.764 65.2336 346.875L65.2326 346.872H65.1673L65.1662 346.875C64.4023 348.764 62.5685 350 60.5309 350H55.8849C55.5751 350 55.269 349.971 54.9702 349.916C54.6722 349.971 54.365 350 54.051 350H49.566C48.012 350 46.6235 349.291 45.7065 348.179C45.5045 348.35 45.2913 348.515 45.0662 348.673C43.4122 349.829 41.5394 350.276 39.699 350.276C38.5949 350.276 37.5017 350.114 36.451 349.859C34.0846 349.286 32.4756 347.091 32.6405 344.661L32.8935 340.935C32.9922 339.481 33.7204 338.143 34.8874 337.27C35.1631 337.064 35.4568 336.889 35.7633 336.745C35.8003 336.288 35.8287 335.755 35.8524 335.133C35.8525 335.131 35.8526 335.129 35.8526 335.127L36.0822 328.721ZM49.566 345H54.051V328.9H41.079L40.849 335.317C40.748 337.977 40.5361 339.972 39.699 340.85C39.4392 341.122 39.1192 341.287 38.7235 341.331C38.6564 341.339 38.5871 341.343 38.5156 341.343C38.5114 341.343 38.5072 341.343 38.503 341.343C38.296 341.343 38.089 341.32 37.882 341.274L37.629 345C37.9313 345.073 38.2226 345.132 38.503 345.176C38.9267 345.243 39.3253 345.276 39.699 345.276C40.0256 345.276 40.3316 345.252 40.6182 345.203C41.4707 345.059 42.1523 344.704 42.6978 344.157C43.7292 343.123 44.2737 341.404 44.566 339.13C44.707 338.034 44.7893 336.808 44.8393 335.469C44.8394 335.466 44.8395 335.463 44.8396 335.46C44.8436 335.352 44.8474 335.243 44.851 335.133L44.943 332.511H49.566V345ZM35.5603 338.17C35.5533 338.192 35.553 338.189 35.5619 338.165C35.5614 338.167 35.5608 338.169 35.5603 338.17ZM74.6069 345L67.4769 328.9H62.9919L55.8849 345H60.5309L61.7959 341.872H68.6039L69.8689 345H74.6069ZM65.1999 333.362L63.1299 338.514H67.2699L65.1999 333.362ZM98.279 345V328.9H93.7939V341.389H89.6309V328.9H85.1459V341.389H80.9369V328.9H76.4519V345H98.279ZM114.647 345V341.481H106.229V338.537H113.382V335.133H106.229V332.419H114.348V328.9H101.721V345H114.647ZM117.241 345H121.795V338.721H128.005V345H132.559V328.9H128.005V334.949H121.795V328.9H117.241V345ZM146.943 345H151.428V328.9H147.15L140.503 338.353V328.9H136.018V345H140.319L146.943 335.57V345ZM167.812 345V341.481H159.394V338.537H166.547V335.133H159.394V332.419H167.513V328.9H154.886V345H167.812ZM171.547 335.374C171.765 335.077 171.951 334.754 172.099 334.412V338.908C171.938 338.64 171.753 338.389 171.547 338.157V335.374ZM187.702 345H192.21V328.9H177.099V345H181.584V332.511H187.702V345ZM197.21 342.995C198.8 344.456 201.016 345.322 203.564 345.322C208.716 345.322 212.511 341.78 212.511 336.95C212.511 332.12 208.716 328.578 203.564 328.578C201.016 328.578 198.8 329.445 197.21 330.905C195.586 332.397 194.617 334.509 194.617 336.95C194.617 339.391 195.586 341.503 197.21 342.995ZM234.45 341.481H226.032V338.537H233.185V335.133H226.032V332.419H234.151V328.9H221.524V345H234.45V341.481ZM236.022 336.766V340.124H242.738V336.766H236.022ZM245.445 345H249.654V336.697L253.771 343.413H255.795L259.935 336.467L259.981 345H264.167V344.978L264.121 328.9H260.372L254.852 338.192L249.194 328.9H245.445V345ZM284.18 345L277.05 328.9H272.565L265.458 345H270.104L271.369 341.872H278.177L279.442 345H284.18ZM272.703 338.514L274.773 333.362L276.843 338.514H272.703ZM290.025 345V328.9H285.471V345H290.025ZM305.501 345V341.389H297.819V328.9H293.265V345H305.501ZM203.752 336.596C203.649 336.554 203.579 336.55 203.564 336.55C203.549 336.55 203.479 336.554 203.376 336.596C203.272 336.639 203.164 336.709 203.072 336.803C203.021 336.856 202.983 336.906 202.957 336.95C202.983 336.994 203.021 337.045 203.072 337.097C203.164 337.191 203.272 337.261 203.376 337.304C203.479 337.346 203.549 337.35 203.564 337.35C203.579 337.35 203.649 337.346 203.752 337.304C203.856 337.261 203.964 337.191 204.057 337.097C204.107 337.045 204.145 336.994 204.172 336.95C204.145 336.906 204.107 336.856 204.057 336.803C203.964 336.709 203.856 336.639 203.752 336.596ZM59.8807 309.95C59.8807 312.733 61.7897 314.55 64.2277 314.55C66.6657 314.55 68.5747 312.733 68.5747 309.95C68.5747 307.167 66.6657 305.35 64.2277 305.35C61.7897 305.35 59.8807 307.167 59.8807 309.95ZM199.217 336.95C199.217 339.733 201.126 341.55 203.564 341.55C206.002 341.55 207.911 339.733 207.911 336.95C207.911 334.167 206.002 332.35 203.564 332.35C201.126 332.35 199.217 334.167 199.217 336.95Z" fill="white"/>
<rect x="16" y="397" width="125" height="43" rx="13" fill="white"/>
<rect x="195" y="397" width="125" height="43" rx="13" fill="white"/>
<path d="M252 5C252 26.7477 243.361 47.6048 227.983 62.9828C212.605 78.3607 191.748 87 170 87C148.252 87 127.395 78.3607 112.017 62.9828C96.6393 47.6048 88 26.7478 88 5.00002L170 5H252Z" fill="white"/>
<path d="M48.032 423.216C48.032 414.96 35.328 417.52 35.328 414.096C35.328 412.976 36.288 412.08 38.944 412.08C40.896 412.08 43.008 412.656 45.152 413.808L47.104 409.104C45.312 408.048 42.976 407.408 40.608 407.216V403.76H36.768V407.28C31.584 407.92 29.056 410.896 29.056 414.416C29.056 422.736 41.792 420.144 41.792 423.696C41.792 424.784 40.768 425.52 38.144 425.52C35.552 425.52 32.736 424.624 30.752 423.312L28.672 427.984C30.528 429.264 33.568 430.192 36.768 430.416V433.84H40.608V430.288C45.6 429.552 48.032 426.608 48.032 423.216Z" fill="#00BCBC"/>
<path d="M61.22 423.36L64.44 420.32C66.4 418.5 66.78 417.26 66.78 415.9C66.78 413.36 64.7 411.76 61.58 411.76C59.06 411.76 57.1 412.78 56.02 414.36L58.38 415.88C59.06 414.94 60.08 414.48 61.28 414.48C62.76 414.48 63.52 415.12 63.52 416.22C63.52 416.9 63.3 417.62 62.06 418.8L56.66 423.9V426H67.24V423.36H61.22ZM73.3769 417.26H72.2369L72.4569 414.6H78.2969V412H69.7569L69.0369 419.88H72.6169C75.1569 419.88 75.8769 420.6 75.8769 421.7C75.8769 422.84 74.8769 423.52 73.2569 423.52C71.7969 423.52 70.3369 423.06 69.2769 422.26L67.9969 424.74C69.3569 425.7 71.3969 426.24 73.3369 426.24C77.3369 426.24 79.1569 424.08 79.1569 421.6C79.1569 419.12 77.5169 417.26 73.3769 417.26ZM92.1355 426.24C95.5955 426.24 98.1355 423.62 98.1355 419C98.1355 414.38 95.5955 411.76 92.1355 411.76C88.6955 411.76 86.1355 414.38 86.1355 419C86.1355 423.62 88.6955 426.24 92.1355 426.24ZM92.1355 423.5C90.5355 423.5 89.4155 422.18 89.4155 419C89.4155 415.82 90.5355 414.5 92.1355 414.5C93.7555 414.5 94.8755 415.82 94.8755 419C94.8755 422.18 93.7555 423.5 92.1355 423.5ZM105.71 426.24C109.17 426.24 111.71 423.62 111.71 419C111.71 414.38 109.17 411.76 105.71 411.76C102.27 411.76 99.7097 414.38 99.7097 419C99.7097 423.62 102.27 426.24 105.71 426.24ZM105.71 423.5C104.11 423.5 102.99 422.18 102.99 419C102.99 415.82 104.11 414.5 105.71 414.5C107.33 414.5 108.45 415.82 108.45 419C108.45 422.18 107.33 423.5 105.71 423.5ZM119.284 426.24C122.744 426.24 125.284 423.62 125.284 419C125.284 414.38 122.744 411.76 119.284 411.76C115.844 411.76 113.284 414.38 113.284 419C113.284 423.62 115.844 426.24 119.284 426.24ZM119.284 423.5C117.684 423.5 116.564 422.18 116.564 419C116.564 415.82 117.684 414.5 119.284 414.5C120.904 414.5 122.024 415.82 122.024 419C122.024 422.18 120.904 423.5 119.284 423.5Z" fill="black"/>
<path d="M240.22 423.36L243.44 420.32C245.4 418.5 245.78 417.26 245.78 415.9C245.78 413.36 243.7 411.76 240.58 411.76C238.06 411.76 236.1 412.78 235.02 414.36L237.38 415.88C238.06 414.94 239.08 414.48 240.28 414.48C241.76 414.48 242.52 415.12 242.52 416.22C242.52 416.9 242.3 417.62 241.06 418.8L235.66 423.9V426H246.24V423.36H240.22ZM253.538 426.24C256.998 426.24 259.538 423.62 259.538 419C259.538 414.38 256.998 411.76 253.538 411.76C250.098 411.76 247.538 414.38 247.538 419C247.538 423.62 250.098 426.24 253.538 426.24ZM253.538 423.5C251.938 423.5 250.818 422.18 250.818 419C250.818 415.82 251.938 414.5 253.538 414.5C255.158 414.5 256.278 415.82 256.278 419C256.278 422.18 255.158 423.5 253.538 423.5ZM280.816 426L280.776 415.24H277.856L274.196 421.46L270.756 415.24H267.496V426H270.316V419.54L273.456 424.96H274.776L277.996 419.56V426H280.816ZM283.805 426H286.685L291.905 419.6V426H295.005V415.24H292.145L286.905 421.64V415.24H283.805V426ZM298.004 426H301.104V421.98H305.784V426H308.904V415.24H305.784V419.44H301.104V415.24H298.004V426Z" fill="black"/>
<path d="M216.5 406C209.595 406 204 411.595 204 418.5C204 425.405 209.595 431 216.5 431C223.405 431 229 425.405 229 418.5C229 411.595 223.405 406 216.5 406Z" fill="#00BCBC"/>
<path fill-rule="evenodd" clip-rule="evenodd" d="M215.961 410C214.878 410 214 410.878 214 411.961V419.153C214 419.311 214.019 419.464 214.054 419.611C214.047 420.263 214.376 420.901 214.974 421.262L220.414 424.535C221.313 425.077 222.481 424.786 223.022 423.887C223.563 422.988 223.273 421.82 222.374 421.279L217.923 418.6V411.961C217.923 410.878 217.045 410 215.961 410Z" fill="white"/>
<g filter="url(#filter0_d)">
<path d="M162.531 400.393L185.975 433.213C179.766 434.57 168.698 428.331 168.698 428.331C168.698 428.331 160.834 438.706 154.912 440L162.531 400.393Z" fill="white"/>
<path fill-rule="evenodd" clip-rule="evenodd" d="M154.912 440L158.469 421.51C161.522 424.284 164.956 426.604 168.698 428.331C168.698 428.331 160.834 438.706 154.912 440Z" fill="#BBFFF9"/>
</g>
<path d="M149.055 56.894L156.711 49.818C162.511 44.482 163.613 40.886 163.613 36.942C163.613 29.402 157.175 24.588 147.837 24.588C139.833 24.588 134.091 27.952 131.017 33.056L139.543 37.812C141.167 35.202 143.835 33.868 146.793 33.868C150.273 33.868 152.013 35.434 152.013 38.044C152.013 39.726 151.549 41.582 148.301 44.598L133.105 58.808V66H164.715V56.894H149.055ZM188.823 66.812C199.147 66.812 206.687 59.098 206.687 45.7C206.687 32.302 199.147 24.588 188.823 24.588C178.441 24.588 170.901 32.302 170.901 45.7C170.901 59.098 178.441 66.812 188.823 66.812ZM188.823 57.416C185.111 57.416 182.443 54.226 182.443 45.7C182.443 37.174 185.111 33.984 188.823 33.984C192.477 33.984 195.145 37.174 195.145 45.7C195.145 54.226 192.477 57.416 188.823 57.416Z" fill="#46BBCE"/>
<g filter="url(#filter1_di)">
<path d="M207.119 143.624C196.54 133.875 183.381 129 167.666 129C151.146 129 137.064 134.537 125.443 145.636C113.822 156.734 108 170.53 108 187.047C108 202.878 113.538 216.485 124.591 227.891C135.691 239.297 150.601 245 169.37 245C180.683 245 191.783 242.681 202.67 238.019C206.22 236.505 207.948 232.435 206.504 228.861C205.013 225.17 200.8 223.466 197.132 225.028C187.665 229.098 178.387 231.133 169.346 231.133C154.956 231.133 143.809 226.755 135.904 217.976C128.023 209.22 124.07 198.927 124.07 187.118C124.07 174.293 128.307 163.596 136.756 155.007C145.182 146.44 155.572 142.133 167.879 142.133C179.215 142.133 188.801 145.659 196.611 152.711C204.421 159.763 208.326 168.637 208.326 179.333C208.326 186.645 206.527 192.75 202.954 197.601C199.38 202.476 195.664 204.89 191.806 204.89C189.724 204.89 188.682 203.778 188.682 201.53C188.682 199.707 188.824 197.578 189.085 195.117L193.487 159.124H178.34L177.369 162.65C173.511 159.503 169.275 157.917 164.683 157.917C157.394 157.917 151.146 160.828 145.963 166.625C140.756 172.423 138.176 179.901 138.176 189.035C138.176 197.956 140.472 205.174 145.087 210.64C149.702 216.13 155.24 218.851 161.725 218.851C167.524 218.851 172.47 216.414 176.588 211.563C179.689 216.225 184.256 218.544 190.292 218.544C199.167 218.544 206.835 214.687 213.296 206.949C219.758 199.234 223 189.911 223 179.002C223 165.182 217.722 153.374 207.119 143.624ZM172.233 198.075C169.559 201.672 166.364 203.494 162.648 203.494C160.116 203.494 158.08 202.169 156.542 199.518C154.98 196.868 154.199 193.579 154.199 189.627C154.199 184.752 155.288 180.824 157.465 177.842C159.642 174.86 162.34 173.346 165.559 173.346C168.352 173.346 170.837 174.458 173.014 176.706C175.192 178.954 176.281 181.936 176.281 185.675C176.257 190.337 174.908 194.454 172.233 198.075Z" fill="white"/>
</g>
<defs>
<filter id="filter0_d" x="143" y="393" width="52.975" height="57.0001" filterUnits="userSpaceOnUse" color-interpolation-filters="sRGB">
<feFlood flood-opacity="0" result="BackgroundImageFix"/>
<feColorMatrix in="SourceAlpha" type="matrix" values="0 0 0 0 0 0 0 0 0 0 0 0 0 0 0 0 0 0 127 0"/>
<feOffset dx="3" dy="3"/>
<feGaussianBlur stdDeviation="3.5"/>
<feColorMatrix type="matrix" values="0 0 0 0 0.279 0 0 0 0 0.9 0 0 0 0 0.840225 0 0 0 1 0"/>
<feBlend mode="normal" in2="BackgroundImageFix" result="effect1_dropShadow"/>
<feBlend mode="normal" in="SourceGraphic" in2="effect1_dropShadow" result="shape"/>
</filter>
<filter id="filter1_di" x="102" y="123" width="135" height="136" filterUnits="userSpaceOnUse" color-interpolation-filters="sRGB">
<feFlood flood-opacity="0" result="BackgroundImageFix"/>
<feColorMatrix in="SourceAlpha" type="matrix" values="0 0 0 0 0 0 0 0 0 0 0 0 0 0 0 0 0 0 127 0"/>
<feOffset dx="4" dy="4"/>
<feGaussianBlur stdDeviation="5"/>
<feColorMatrix type="matrix" values="0 0 0 0 0.1715 0 0 0 0 0.816667 0 0 0 0 0.816667 0 0 0 1 0"/>
<feBlend mode="normal" in2="BackgroundImageFix" result="effect1_dropShadow"/>
<feBlend mode="normal" in="SourceGraphic" in2="effect1_dropShadow" result="shape"/>
<feColorMatrix in="SourceAlpha" type="matrix" values="0 0 0 0 0 0 0 0 0 0 0 0 0 0 0 0 0 0 127 0" result="hardAlpha"/>
<feOffset dx="-4" dy="-4"/>
<feGaussianBlur stdDeviation="4.5"/>
<feComposite in2="hardAlpha" operator="arithmetic" k2="-1" k3="1"/>
<feColorMatrix type="matrix" values="0 0 0 0 0.441945 0 0 0 0 0.887146 0 0 0 0 0.895833 0 0 0 0.52 0"/>
<feBlend mode="normal" in2="shape" result="effect2_innerShadow"/>
</filter>
<linearGradient id="paint0_linear" x1="5.5" y1="-157" x2="289.5" y2="495.5" gradientUnits="userSpaceOnUse">
<stop stop-color="#00C2FF"/>
<stop offset="1" stop-color="#1EE7CF"/>
</linearGradient>
<linearGradient id="paint1_linear" x1="49" y1="11" x2="301.5" y2="474" gradientUnits="userSpaceOnUse">
<stop stop-color="#19D2EB"/>
<stop offset="1" stop-color="#55F5DF"/>
</linearGradient>
<linearGradient id="paint2_linear" x1="59.5" y1="-9" x2="291.5" y2="495.5" gradientUnits="userSpaceOnUse">
<stop stop-color="#00E0FF"/>
<stop offset="1" stop-color="#42F2D1"/>
</linearGradient>
<linearGradient id="paint3_linear" x1="51" y1="11" x2="303.5" y2="474" gradientUnits="userSpaceOnUse">
<stop stop-color="#B2F6FF"/>
<stop offset="1" stop-color="#28D7BE"/>
</linearGradient>
<linearGradient id="paint4_linear" x1="27" y1="473.49" x2="247.084" y2="60.8524" gradientUnits="userSpaceOnUse">
<stop stop-color="#73F5FF"/>
<stop offset="0.99" stop-color="#7AFFEC"/>
</linearGradient>
<linearGradient id="paint5_linear" x1="129.774" y1="288" x2="310" y2="288" gradientUnits="userSpaceOnUse">
<stop stop-color="white"/>
<stop offset="0.99" stop-color="white" stop-opacity="0.4"/>
</linearGradient>
<linearGradient id="paint6_linear" x1="59.8997" y1="86" x2="140" y2="86" gradientUnits="userSpaceOnUse">
<stop stop-color="white"/>
<stop offset="0.99" stop-color="white" stop-opacity="0.4"/>
</linearGradient>
</defs>
</svg>
