<svg width="338" height="474" viewBox="0 0 338 474" fill="none" xmlns="http://www.w3.org/2000/svg">
<rect x="2.5" y="2.5" width="331" height="469" rx="32.5" fill="url(#paint0_linear)" stroke="url(#paint1_linear)" stroke-width="5"/>
<mask id="mask0" mask-type="alpha" maskUnits="userSpaceOnUse" x="2" y="0" width="336" height="474">
<rect x="4.5" y="2.5" width="331" height="469" rx="41.5" fill="url(#paint2_linear)" stroke="url(#paint3_linear)" stroke-width="5"/>
</mask>
<g mask="url(#mask0)">
<path d="M198.89 5.0093C198.89 5.0093 97.8208 47.0947 93.9888 101.845C90.1568 156.595 112.775 152.615 106.069 185.086C99.3631 217.557 -10.9124 255.616 18.7856 356.766C48.4837 457.916 142.368 370.584 242 469H35C18.4315 469 5 455.569 5 439V35.0014C5 18.4323 18.4323 5.00064 35.0014 5.00144L198.89 5.0093Z" fill="url(#paint4_linear)" fill-opacity="0.5"/>
</g>
<path opacity="0.46" d="M219.887 378C202.092 377.978 184.702 372.68 169.917 362.777C155.131 352.875 143.613 338.811 136.819 322.363C130.024 305.916 128.258 287.824 131.743 270.373C135.229 252.922 143.809 236.896 156.4 224.321C168.992 211.745 185.028 203.185 202.483 199.721C219.939 196.258 238.029 198.046 254.468 204.862C270.906 211.677 284.956 223.212 294.84 238.01C304.724 252.808 310 270.204 310 288C309.958 311.876 300.447 334.761 283.553 351.633C266.66 368.506 243.763 377.988 219.887 378ZM219.887 222.747C206.985 222.764 194.378 226.607 183.659 233.788C172.94 240.969 164.59 251.166 159.665 263.091C154.74 275.016 153.461 288.134 155.989 300.786C158.517 313.438 164.739 325.056 173.868 334.173C182.998 343.29 194.625 349.496 207.28 352.006C219.936 354.517 233.051 353.219 244.97 348.278C256.888 343.336 267.074 334.972 274.24 324.243C281.406 313.515 285.231 300.902 285.231 288C285.177 270.703 278.27 254.132 266.022 241.918C253.774 229.704 237.184 222.843 219.887 222.837V222.747Z" fill="url(#paint5_linear)"/>
<path opacity="0.46" d="M99.9498 126C92.0407 125.99 84.3121 123.636 77.7407 119.234C71.1694 114.833 66.0503 108.583 63.0305 101.273C60.0106 93.9627 59.2257 85.9216 60.7747 78.1657C62.3238 70.4097 66.1374 63.2871 71.7335 57.698C77.3296 52.1089 84.457 48.3043 92.2148 46.7649C99.9727 45.2256 108.013 46.0207 115.319 49.0496C122.625 52.0786 128.869 57.2055 133.262 63.7824C137.655 70.3593 140 78.0909 140 86C139.981 96.6116 135.754 106.783 128.246 114.281C120.738 121.78 110.561 125.995 99.9498 126ZM99.9498 56.9985C94.2156 57.0064 88.6124 58.7141 83.8484 61.9056C79.0844 65.0972 75.3735 69.6294 73.1846 74.9294C70.9957 80.2294 70.4271 86.0594 71.5506 91.6825C72.6742 97.3056 75.4395 102.469 79.497 106.521C83.5545 110.573 88.7222 113.331 94.3468 114.447C99.9715 115.563 105.801 114.986 111.098 112.79C116.395 110.594 120.922 106.877 124.107 102.108C127.292 97.3398 128.991 91.7342 128.991 86C128.968 78.3124 125.898 70.9477 120.454 65.5193C115.011 60.0908 107.637 57.0412 99.9498 57.0386V56.9985Z" fill="url(#paint6_linear)"/>
<path d="M125.628 298.6V304.386H119.688V298.6H115.332V314H119.688V307.994H125.628V314H129.984V298.6H125.628Z" fill="black"/>
<path d="M146.229 314H150.761L143.941 298.6H139.651L132.853 314H137.297L138.507 311.008H145.019L146.229 314ZM139.783 307.796L141.763 302.868L143.743 307.796H139.783Z" fill="black"/>
<path d="M163.922 298.6V304.386H157.982V298.6H153.626V314H157.982V307.994H163.922V314H168.278V298.6H163.922Z" fill="black"/>
<path d="M178.649 298.6C174.425 298.6 171.763 300.822 171.763 304.452C171.763 306.85 172.907 308.588 174.931 309.49L171.807 314H176.383L178.913 310.128H181.289V314H185.579V298.6H178.649ZM178.737 302.032H181.289V306.762H178.693C177.043 306.762 176.163 305.926 176.163 304.386C176.163 302.824 177.043 302.032 178.737 302.032Z" fill="black"/>
<path d="M202.394 298.6H188.666V302.054H193.396V314H197.686V302.054H202.394V298.6Z" fill="black"/>
<path d="M213.356 303.506H209.792V298.6H205.502V314H212.784C216.788 314 219.274 312.13 219.274 308.522C219.274 305.156 217.096 303.506 213.356 303.506ZM212.498 310.876H209.792V306.608H212.498C213.972 306.608 214.896 307.158 214.896 308.61C214.896 310.062 213.95 310.876 212.498 310.876Z" fill="black"/>
<path d="M55.4024 324.6V330.386H49.4624V324.6H45.1064V340H49.4624V333.994H55.4024V340H59.7584V324.6H55.4024Z" fill="black"/>
<path d="M68.4794 336.634V333.818H75.3214V330.562H68.4794V327.966H76.2454V324.6H64.1674V340H76.5314V336.634H68.4794Z" fill="black"/>
<path d="M87.4611 323.676C90.6511 323.676 92.0151 322.4 92.0151 320.09H89.0891C89.0671 321.102 88.5611 321.608 87.4611 321.608C86.3611 321.608 85.8991 321.102 85.8771 320.09H82.9511C82.9511 322.4 84.2711 323.676 87.4611 323.676ZM80.1131 340H84.2271L90.5631 330.98V340H94.8531V324.6H90.7611L84.4031 333.642V324.6H80.1131V340Z" fill="black"/>
<path d="M106.3 324.6H99.26V340H103.616V335.974H106.3C110.502 335.974 113.142 333.796 113.142 330.298C113.142 326.778 110.502 324.6 106.3 324.6ZM106.036 332.542H103.616V328.032H106.036C107.84 328.032 108.742 328.868 108.742 330.298C108.742 331.706 107.84 332.542 106.036 332.542Z" fill="black"/>
<path d="M123.998 340.308C128.926 340.308 132.556 336.92 132.556 332.3C132.556 327.68 128.926 324.292 123.998 324.292C119.07 324.292 115.44 327.68 115.44 332.3C115.44 336.92 119.07 340.308 123.998 340.308ZM123.998 336.7C121.666 336.7 119.84 334.962 119.84 332.3C119.84 329.638 121.666 327.9 123.998 327.9C126.33 327.9 128.156 329.638 128.156 332.3C128.156 334.962 126.33 336.7 123.998 336.7Z" fill="black"/>
<path d="M154.949 332.256C154.949 328.23 152.155 325.81 146.941 325.458V323.874H142.959V325.458C137.745 325.854 134.951 328.23 134.951 332.256C134.951 336.26 137.745 338.658 142.959 339.032V340.726H146.941V339.032C152.177 338.724 154.949 336.26 154.949 332.256ZM146.941 335.644V328.868C149.493 329.154 150.725 330.21 150.725 332.234C150.725 334.258 149.559 335.358 146.941 335.644ZM139.175 332.256C139.175 330.21 140.319 329.176 142.959 328.868V335.622C140.473 335.314 139.175 334.28 139.175 332.256Z" fill="black"/>
<path d="M158.312 340H162.426L168.762 330.98V340H173.052V324.6H168.96L162.602 333.642V324.6H158.312V340Z" fill="black"/>
<path d="M186.985 331.992C188.283 331.354 189.097 330.188 189.097 328.736C189.097 325.876 185.797 324.248 182.057 324.248C180.253 324.248 178.339 324.622 176.645 325.436L177.921 328.736C179.241 328.032 180.759 327.68 182.013 327.68C183.531 327.68 184.697 328.208 184.697 329.242C184.697 330.034 184.037 330.54 182.849 330.54H179.263V333.73H183.201C184.433 333.73 185.313 334.126 185.313 335.072C185.313 336.26 183.861 336.876 182.013 336.876C180.605 336.876 178.955 336.524 177.525 335.798L176.227 338.834C178.229 339.846 180.451 340.33 182.497 340.33C186.413 340.33 189.713 338.614 189.713 335.666C189.713 333.972 188.679 332.63 186.985 331.992Z" fill="black"/>
<path d="M193.168 340H197.282L203.618 330.98V340H207.908V324.6H203.816L197.458 333.642V324.6H193.168V340Z" fill="black"/>
<path d="M219.883 340.308C224.811 340.308 228.441 336.92 228.441 332.3C228.441 327.68 224.811 324.292 219.883 324.292C214.955 324.292 211.325 327.68 211.325 332.3C211.325 336.92 214.955 340.308 219.883 340.308ZM219.883 336.7C217.551 336.7 215.725 334.962 215.725 332.3C215.725 329.638 217.551 327.9 219.883 327.9C222.215 327.9 224.041 329.638 224.041 332.3C224.041 334.962 222.215 336.7 219.883 336.7Z" fill="black"/>
<path d="M233.398 324.6L233.178 330.738C233.046 334.214 232.716 336.502 230.934 336.502C230.736 336.502 230.538 336.48 230.34 336.436L230.098 340C230.824 340.176 231.484 340.264 232.078 340.264C235.994 340.264 236.808 336.568 237.006 330.562L237.094 328.054H241.516V340H245.806V324.6H233.398Z" fill="black"/>
<path d="M257.769 340.308C262.697 340.308 266.327 336.92 266.327 332.3C266.327 327.68 262.697 324.292 257.769 324.292C252.841 324.292 249.211 327.68 249.211 332.3C249.211 336.92 252.841 340.308 257.769 340.308ZM257.769 336.7C255.437 336.7 253.611 334.962 253.611 332.3C253.611 329.638 255.437 327.9 257.769 327.9C260.101 327.9 261.927 329.638 261.927 332.3C261.927 334.962 260.101 336.7 257.769 336.7Z" fill="black"/>
<path d="M281.042 324.6H269.756V340H274.046V328.054H281.02L281.042 324.6Z" fill="black"/>
<path d="M292.897 340H297.429L290.609 324.6H286.319L279.521 340H283.965L285.175 337.008H291.687L292.897 340ZM286.451 333.796L288.431 328.868L290.411 333.796H286.451Z" fill="black"/>
<path fill-rule="evenodd" clip-rule="evenodd" d="M122.658 294.577C123.489 293.963 124.516 293.6 125.628 293.6H129.984C132.269 293.6 134.196 295.132 134.793 297.225L135.077 296.581C135.877 294.769 137.671 293.6 139.651 293.6H143.941C145.92 293.6 147.712 294.767 148.513 296.575L148.811 297.248C149.401 295.144 151.333 293.6 153.626 293.6H157.982C159.094 293.6 160.122 293.963 160.952 294.577C161.783 293.963 162.81 293.6 163.922 293.6H168.278C169.745 293.6 171.064 294.232 171.979 295.238C174.004 294.078 176.338 293.6 178.649 293.6H185.579C186.118 293.6 186.637 293.685 187.123 293.843C187.609 293.685 188.128 293.6 188.666 293.6H202.394C202.937 293.6 203.459 293.687 203.948 293.846C204.437 293.687 204.96 293.6 205.502 293.6H209.792C212.543 293.6 214.775 295.821 214.792 298.568C216.89 298.755 219.075 299.392 220.896 300.892C223.305 302.875 224.274 305.692 224.274 308.522C224.274 311.568 223.166 314.463 220.698 316.483C218.383 318.379 215.482 319 212.784 319H205.502C203.921 319 202.511 318.266 201.594 317.119C200.678 318.266 199.268 319 197.686 319H193.396C191.814 319 190.404 318.265 189.488 317.119C188.572 318.265 187.161 319 185.579 319H181.289C180.397 319 179.56 318.767 178.835 318.358C178.098 318.773 177.256 319 176.383 319H171.807C171.195 319 170.599 318.888 170.044 318.679C169.495 318.887 168.9 319 168.278 319H163.922C162.81 319 161.783 318.637 160.952 318.023C160.122 318.637 159.094 319 157.982 319H153.626C153.128 319 152.646 318.927 152.192 318.791C151.733 318.928 151.252 319 150.761 319H148.062C149.321 319.288 150.398 320.052 151.096 321.091C152.081 321.361 153.034 321.721 153.931 322.189C154.782 320.646 156.425 319.6 158.312 319.6H162.602C163.809 319.6 164.917 320.028 165.781 320.741C166.666 320.012 167.786 319.6 168.96 319.6H173.052C174.044 319.6 174.968 319.889 175.745 320.387C177.832 319.595 180.018 319.248 182.057 319.248C184.564 319.248 187.266 319.78 189.525 321.116C189.537 321.123 189.549 321.13 189.561 321.138C190.471 320.19 191.751 319.6 193.168 319.6H197.458C198.666 319.6 199.773 320.028 200.637 320.741C201.522 320.012 202.643 319.6 203.816 319.6H207.908C209.564 319.6 211.032 320.405 211.942 321.646C214.189 320.139 216.942 319.292 219.883 319.292C223.306 319.292 226.476 320.44 228.888 322.44C229.695 320.756 231.416 319.6 233.398 319.6H245.806C247.46 319.6 248.926 320.403 249.836 321.64C252.082 320.137 254.832 319.292 257.769 319.292C260.713 319.292 263.469 320.141 265.717 321.651C266.627 320.408 268.097 319.6 269.756 319.6H281.042C281.982 319.6 282.895 319.865 283.68 320.353C284.457 319.871 285.366 319.6 286.319 319.6H290.609C292.587 319.6 294.379 320.767 295.18 322.575L302 337.975C302.685 339.522 302.542 341.31 301.619 342.727C300.697 344.145 299.12 345 297.429 345H292.897C290.997 345 289.274 343.925 288.431 342.249C287.587 343.925 285.865 345 283.965 345H279.521C278.534 345 277.586 344.709 276.784 344.184C275.997 344.7 275.056 345 274.046 345H269.756C268.097 345 266.627 344.192 265.717 342.949C263.469 344.459 260.713 345.308 257.769 345.308C254.832 345.308 252.082 344.463 249.836 342.96C248.926 344.197 247.46 345 245.806 345H241.516C240.041 345 238.714 344.361 237.799 343.344C237.651 343.463 237.497 343.579 237.337 343.691C235.711 344.827 233.874 345.264 232.078 345.264C231.001 345.264 229.938 345.106 228.92 344.859C228.053 344.649 227.288 344.221 226.674 343.644C224.665 344.717 222.34 345.308 219.883 345.308C216.942 345.308 214.189 344.461 211.942 342.955C211.032 344.195 209.564 345 207.908 345H203.618C202.416 345 201.313 344.576 200.45 343.869C199.567 344.592 198.451 345 197.282 345H193.168C191.836 345 190.626 344.479 189.73 343.63C187.522 344.84 184.937 345.33 182.497 345.33C180.338 345.33 178.059 344.941 175.874 344.128C175.071 344.678 174.099 345 173.052 345H168.762C167.56 345 166.456 344.576 165.594 343.869C164.711 344.592 163.595 345 162.426 345H158.312C156.398 345 154.735 343.925 153.895 342.345C153.031 342.791 152.116 343.137 151.168 343.398C150.282 344.797 148.72 345.726 146.941 345.726H142.959C141.166 345.726 139.594 344.782 138.711 343.365C137.051 342.898 135.486 342.174 134.124 341.11C131.622 343.754 127.982 345.308 123.998 345.308C119.281 345.308 115.046 343.129 112.61 339.542C111.341 340.204 109.962 340.613 108.55 340.817C108.16 343.19 106.099 345 103.616 345H99.26C98.4692 345 97.7213 344.817 97.0565 344.49C96.3918 344.817 95.6439 345 94.8531 345H90.5631C89.3607 345 88.2575 344.576 87.395 343.869C86.5119 344.592 85.3958 345 84.2271 345H80.1131C79.482 345 78.8782 344.883 78.3222 344.67C77.7662 344.883 77.1625 345 76.5314 345H64.1674C63.3762 345 62.6279 344.816 61.9629 344.489C61.2979 344.816 60.5496 345 59.7584 345H55.4024C54.2903 345 53.2629 344.637 52.4324 344.023C51.602 344.637 50.5746 345 49.4624 345H45.1064C42.345 345 40.1064 342.762 40.1064 340V324.6C40.1064 321.839 42.345 319.6 45.1064 319.6H49.4624C50.5746 319.6 51.602 319.963 52.4324 320.577C53.2629 319.963 54.2903 319.6 55.4024 319.6H59.7584C60.5496 319.6 61.2979 319.784 61.9629 320.111C62.6279 319.784 63.3762 319.6 64.1674 319.6H76.2454C76.8457 319.6 77.4213 319.706 77.9546 319.9C78.0546 317.227 80.2534 315.09 82.9511 315.09H85.8771C86.4386 315.09 86.9788 315.183 87.4831 315.354C87.9874 315.183 88.5276 315.09 89.0891 315.09H92.0151C94.7765 315.09 97.0151 317.329 97.0151 320.09C97.0151 320.09 97.0151 320.09 97.0151 320.09C97.0289 320.097 97.0428 320.104 97.0565 320.111C97.7213 319.784 98.4692 319.6 99.26 319.6H106.3C109.215 319.6 112.17 320.355 114.491 322.283C114.607 322.379 114.72 322.477 114.831 322.577C117.262 320.492 120.497 319.292 123.998 319.292C127.954 319.292 131.569 320.824 134.071 323.433C135.467 322.329 137.08 321.586 138.791 321.112C139.686 319.763 141.219 318.874 142.959 318.874H145.113C143.674 318.545 142.438 317.589 141.763 316.249C140.92 317.925 139.197 319 137.297 319H132.853C132.362 319 131.88 318.928 131.421 318.791C130.966 318.927 130.484 319 129.984 319H125.628C124.516 319 123.489 318.637 122.658 318.023C121.828 318.637 120.801 319 119.688 319H115.332C112.571 319 110.332 316.762 110.332 314V298.6C110.332 295.839 112.571 293.6 115.332 293.6H119.688C120.801 293.6 121.828 293.963 122.658 294.577ZM119.688 298.6H115.332V314H119.688V307.994H125.628V314H129.984V298.6H125.628V304.386H119.688V298.6ZM150.761 314L143.941 298.6H139.651L132.853 314H137.297L138.507 311.008H145.019L146.229 314H150.761ZM143.743 307.796L141.763 302.868L139.783 307.796H143.743ZM142.959 340.726H146.941V339.032C147.065 339.025 147.188 339.016 147.309 339.007C147.53 338.989 147.747 338.967 147.959 338.942C150.341 338.653 152.137 337.866 153.312 336.651C154.394 335.531 154.949 334.048 154.949 332.256C154.949 332.249 154.949 332.241 154.949 332.234C154.945 330.447 154.388 328.977 153.312 327.865C152.135 326.649 150.336 325.862 147.958 325.557C147.75 325.53 147.537 325.507 147.32 325.488C147.195 325.477 147.069 325.467 146.941 325.458V323.874H142.959V325.458C142.826 325.468 142.695 325.48 142.565 325.492C142.354 325.513 142.146 325.537 141.942 325.564C139.674 325.871 137.932 326.599 136.755 327.716C135.565 328.844 134.951 330.369 134.951 332.256C134.951 332.271 134.951 332.285 134.951 332.3C134.961 334.171 135.584 335.689 136.782 336.811C137.959 337.913 139.691 338.633 141.942 338.93C142.138 338.955 142.338 338.978 142.541 338.997C142.679 339.01 142.818 339.022 142.959 339.032V340.726ZM147.959 335.475C147.701 335.535 147.424 335.584 147.127 335.622C147.066 335.63 147.004 335.637 146.941 335.644V328.868C147.308 328.909 147.647 328.966 147.959 329.04C149.822 329.477 150.725 330.501 150.725 332.234C150.725 332.241 150.725 332.249 150.725 332.256C150.718 333.983 149.856 335.033 147.959 335.475ZM142.959 328.868C142.591 328.911 142.252 328.968 141.941 329.04C140.023 329.484 139.175 330.495 139.175 332.256C139.175 333.983 140.12 334.989 141.941 335.439C142.255 335.516 142.594 335.577 142.959 335.622V328.868ZM130.933 327.446C129.412 325.496 126.935 324.292 123.998 324.292C121.383 324.292 119.133 325.247 117.597 326.833C116.677 327.784 116.013 328.962 115.681 330.298C115.523 330.932 115.44 331.602 115.44 332.3C115.44 333.73 115.788 335.042 116.414 336.172C117.811 338.693 120.595 340.308 123.998 340.308C126.953 340.308 129.442 339.09 130.961 337.118C131.975 335.802 132.556 334.15 132.556 332.3C132.556 332.285 132.556 332.271 132.556 332.256C132.547 330.408 131.956 328.758 130.933 327.446ZM99.26 324.6V340H103.616V335.974H106.3C108.063 335.974 109.551 335.591 110.684 334.887C111.691 334.263 112.418 333.385 112.81 332.3C113.028 331.695 113.142 331.025 113.142 330.298C113.142 328.773 112.647 327.501 111.744 326.547C110.562 325.3 108.682 324.6 106.3 324.6H99.26ZM103.616 328.032V332.542H106.036C106.126 332.542 106.214 332.54 106.3 332.536C107.558 332.475 108.33 331.97 108.616 331.127C108.7 330.879 108.742 330.602 108.742 330.298C108.742 329.99 108.7 329.709 108.616 329.458C108.33 328.604 107.558 328.099 106.3 328.038C106.214 328.034 106.126 328.032 106.036 328.032H103.616ZM94.8531 324.6H90.7611L84.4031 333.642V324.6H80.1131V340H84.2271L90.5631 330.98V340H94.8531V324.6ZM76.2454 324.6H64.1674V340H76.5314V336.634H68.4794V333.818H75.3214V330.562H68.4794V327.966H76.2454V324.6ZM87.0177 320.09H87.9468C87.9455 320.083 87.9441 320.074 87.9423 320.065C87.9411 320.059 87.9397 320.052 87.9382 320.045C87.9261 319.989 87.9041 319.907 87.8646 319.806C87.7824 319.596 87.6515 319.372 87.4748 319.168C87.4702 319.173 87.4656 319.179 87.4611 319.184C87.307 319.37 87.1881 319.572 87.1095 319.769C87.0613 319.889 87.0372 319.984 87.0254 320.045C87.024 320.052 87.0228 320.059 87.0217 320.065C87.0201 320.075 87.0188 320.083 87.0177 320.09ZM86.8136 321.531C86.1756 321.355 85.8941 320.875 85.8771 320.09H82.9511C82.9511 320.111 82.9512 320.133 82.9514 320.154C82.9654 321.467 83.4148 322.44 84.4031 323.026C84.7032 323.204 85.0531 323.347 85.4556 323.453C85.5902 323.488 85.7306 323.519 85.8771 323.546C86.3432 323.632 86.8701 323.676 87.4611 323.676C88.069 323.676 88.6106 323.63 89.0891 323.539C89.1317 323.531 89.1739 323.522 89.2156 323.513C89.2377 323.509 89.2596 323.504 89.2814 323.499C89.8767 323.366 90.3677 323.159 90.7611 322.881C91.6063 322.285 92.0014 321.364 92.0147 320.154C92.015 320.133 92.0151 320.111 92.0151 320.09H89.0891C89.0738 320.795 88.8235 321.255 88.3011 321.468C88.0737 321.562 87.7947 321.608 87.4611 321.608C87.2137 321.608 86.9987 321.583 86.8136 321.531ZM49.4624 324.6H45.1064V340H49.4624V333.994H55.4024V340H59.7584V324.6H55.4024V330.386H49.4624V324.6ZM158.312 340H162.426L168.762 330.98V340H173.052V324.6H168.96L162.602 333.642V324.6H158.312V340ZM193.168 340H197.282L203.618 330.98V340H207.908V324.6H203.816L197.458 333.642V324.6H193.168V340ZM177.525 335.798C177.588 335.83 177.651 335.861 177.714 335.892C177.826 335.945 177.938 335.996 178.052 336.045C178.25 336.13 178.451 336.209 178.654 336.281C178.856 336.352 179.059 336.417 179.263 336.476C179.753 336.616 180.247 336.719 180.73 336.786C181.171 336.846 181.602 336.876 182.013 336.876C182.178 336.876 182.339 336.871 182.497 336.861C182.742 336.846 182.977 336.819 183.201 336.781C183.712 336.693 184.158 336.544 184.508 336.336C184.618 336.27 184.719 336.199 184.809 336.121C184.964 335.987 185.088 335.835 185.174 335.666C185.251 335.514 185.297 335.348 185.31 335.167C185.312 335.136 185.313 335.104 185.313 335.072C185.313 334.126 184.433 333.73 183.201 333.73H179.263V330.54H182.849C182.972 330.54 183.089 330.535 183.201 330.524C184.166 330.432 184.697 329.952 184.697 329.242C184.697 329.096 184.673 328.959 184.629 328.833C184.617 328.8 184.604 328.768 184.59 328.736C184.503 328.547 184.367 328.384 184.189 328.245C184.101 328.177 184.004 328.115 183.897 328.059C183.607 327.907 183.25 327.8 182.849 327.739C182.6 327.702 182.335 327.682 182.057 327.68C182.042 327.68 182.027 327.68 182.013 327.68C181.366 327.68 180.649 327.774 179.926 327.961C179.925 327.961 179.924 327.961 179.924 327.961C179.704 328.018 179.483 328.084 179.263 328.158C178.892 328.284 178.525 328.434 178.169 328.609C178.13 328.628 178.091 328.648 178.052 328.668C178.008 328.69 177.964 328.713 177.921 328.736L176.645 325.436C177.1 325.217 177.571 325.03 178.052 324.874C178.135 324.847 178.218 324.821 178.301 324.796C179.366 324.474 180.472 324.299 181.55 324.258C181.705 324.252 181.859 324.249 182.013 324.248C182.027 324.248 182.042 324.248 182.057 324.248C184.594 324.248 186.929 324.997 188.168 326.372C188.432 326.665 188.646 326.986 188.802 327.334C188.993 327.761 189.097 328.229 189.097 328.736C189.097 328.909 189.085 329.078 189.063 329.242C188.989 329.781 188.797 330.271 188.507 330.7C188.406 330.849 188.293 330.991 188.168 331.125C187.844 331.473 187.445 331.766 186.985 331.992C187.426 332.158 187.823 332.372 188.168 332.628C188.286 332.715 188.397 332.807 188.502 332.903C189.132 333.48 189.54 334.221 189.669 335.072C189.698 335.265 189.713 335.463 189.713 335.666C189.713 335.858 189.699 336.044 189.672 336.225C189.524 337.213 188.983 338.042 188.168 338.69C186.835 339.752 184.77 340.33 182.497 340.33C182.336 340.33 182.175 340.327 182.013 340.321C181.697 340.31 181.379 340.287 181.058 340.252C180.061 340.146 179.045 339.928 178.052 339.595C177.973 339.569 177.895 339.542 177.817 339.514C177.277 339.322 176.744 339.096 176.227 338.834L177.525 335.798ZM241.516 340H245.806V324.6H233.398L233.178 330.738C233.157 331.29 233.132 331.812 233.096 332.3C232.966 334.06 232.705 335.373 232.078 336.03C231.83 336.291 231.524 336.449 231.145 336.491C231.081 336.498 231.015 336.502 230.946 336.502C230.942 336.502 230.938 336.502 230.934 336.502C230.736 336.502 230.538 336.48 230.34 336.436L230.098 340C230.35 340.061 230.594 340.112 230.83 340.151C230.865 340.157 230.9 340.163 230.934 340.169C231.34 340.232 231.721 340.264 232.078 340.264C232.391 340.264 232.683 340.241 232.958 340.194C233.901 340.035 234.625 339.606 235.182 338.935C235.821 338.166 236.24 337.08 236.516 335.72C236.792 334.366 236.926 332.739 236.995 330.883C236.995 330.88 236.995 330.878 236.995 330.875C236.999 330.771 237.003 330.667 237.006 330.562L237.094 328.054H241.516V340ZM212.908 337.102C214.426 339.083 216.92 340.308 219.883 340.308C221.925 340.308 223.744 339.727 225.174 338.717C226.106 338.058 226.874 337.218 227.43 336.238C228.034 335.174 228.389 333.945 228.436 332.605C228.439 332.504 228.441 332.402 228.441 332.3C228.441 332.137 228.437 331.976 228.428 331.816C228.404 331.386 228.347 330.967 228.261 330.562C228.261 330.558 228.26 330.555 228.259 330.551C228.238 330.455 228.216 330.359 228.192 330.265C227.294 326.719 224.054 324.292 219.883 324.292C216.92 324.292 214.426 325.517 212.908 327.499C211.902 328.812 211.325 330.458 211.325 332.3C211.325 334.142 211.902 335.788 212.908 337.102ZM250.806 337.118C252.325 339.09 254.814 340.308 257.769 340.308C260.74 340.308 263.239 339.076 264.756 337.086C265.754 335.775 266.327 334.135 266.327 332.3C266.327 330.466 265.754 328.825 264.756 327.514C263.239 325.524 260.74 324.292 257.769 324.292C254.814 324.292 252.325 325.51 250.806 327.482C249.792 328.798 249.211 330.45 249.211 332.3C249.211 334.15 249.792 335.802 250.806 337.118ZM269.756 340H274.046V328.054H281.02L281.042 324.6H269.756V340ZM279.521 340H283.965L285.175 337.008H291.687L292.897 340H297.429L290.609 324.6H286.319L279.521 340ZM286.451 333.796H290.411L288.431 328.868L286.451 333.796ZM157.982 314V307.994H163.922V314H168.278V298.6H163.922V304.386H157.982V298.6H153.626V314H157.982ZM171.807 314H176.383L178.913 310.128H181.289V314H185.579V298.6H178.649C176.325 298.6 174.473 299.273 173.278 300.483C172.315 301.459 171.778 302.783 171.763 304.386C171.763 304.408 171.763 304.43 171.763 304.452C171.763 306.021 172.253 307.308 173.158 308.262C173.198 308.303 173.237 308.344 173.278 308.384C173.438 308.541 173.609 308.688 173.792 308.825C173.871 308.886 173.954 308.944 174.038 309C174.313 309.184 174.611 309.347 174.931 309.49L171.807 314ZM176.289 305.297C176.341 305.463 176.408 305.615 176.491 305.754C176.511 305.787 176.531 305.82 176.553 305.851C176.96 306.448 177.682 306.762 178.693 306.762H181.289V302.032H178.737C178.722 302.032 178.708 302.032 178.693 302.032C178.678 302.032 178.664 302.033 178.649 302.033C177.378 302.054 176.581 302.536 176.289 303.471C176.205 303.739 176.163 304.044 176.163 304.386C176.163 304.408 176.163 304.43 176.164 304.452C176.169 304.764 176.211 305.046 176.289 305.297ZM193.396 314H197.686V302.054H202.394V298.6H188.666V302.054H193.396V314ZM205.502 314H212.784C216.756 314 219.234 312.16 219.274 308.61C219.274 308.581 219.274 308.552 219.274 308.522C219.274 305.156 217.096 303.506 213.356 303.506H209.792V298.6H205.502V314ZM209.792 310.876H212.498C212.596 310.876 212.691 310.872 212.784 310.865C213.805 310.785 214.533 310.267 214.792 309.383C214.861 309.15 214.896 308.892 214.896 308.61C214.896 308.58 214.896 308.551 214.895 308.522C214.889 308.273 214.854 308.052 214.792 307.857C214.586 307.198 214.081 306.832 213.356 306.685C213.097 306.633 212.81 306.608 212.498 306.608H209.792V310.876ZM124.625 332.008C124.381 331.758 124.106 331.7 123.998 331.7C123.89 331.7 123.615 331.758 123.372 332.008C123.266 332.117 123.205 332.224 123.174 332.3C123.205 332.376 123.266 332.484 123.372 332.592C123.615 332.842 123.89 332.9 123.998 332.9C124.106 332.9 124.381 332.842 124.625 332.592C124.731 332.484 124.792 332.376 124.823 332.3C124.792 332.224 124.731 332.117 124.625 332.008ZM220.51 332.008C220.266 331.758 219.991 331.7 219.883 331.7C219.775 331.7 219.5 331.758 219.256 332.008C219.151 332.117 219.089 332.224 219.059 332.3C219.089 332.376 219.151 332.484 219.256 332.592C219.5 332.842 219.775 332.9 219.883 332.9C219.991 332.9 220.266 332.842 220.51 332.592C220.616 332.484 220.677 332.376 220.707 332.3C220.677 332.224 220.616 332.117 220.51 332.008ZM258.395 332.008C258.152 331.758 257.876 331.7 257.769 331.7C257.661 331.7 257.386 331.758 257.142 332.008C257.036 332.117 256.975 332.224 256.944 332.3C256.975 332.376 257.036 332.484 257.142 332.592C257.386 332.842 257.661 332.9 257.769 332.9C257.876 332.9 258.152 332.842 258.395 332.592C258.501 332.484 258.562 332.376 258.593 332.3C258.562 332.224 258.501 332.117 258.395 332.008ZM119.84 332.3C119.84 334.962 121.666 336.7 123.998 336.7C126.33 336.7 128.156 334.962 128.156 332.3C128.156 329.638 126.33 327.9 123.998 327.9C121.666 327.9 119.84 329.638 119.84 332.3ZM215.725 332.3C215.725 334.962 217.551 336.7 219.883 336.7C222.215 336.7 224.041 334.962 224.041 332.3C224.041 329.638 222.215 327.9 219.883 327.9C217.551 327.9 215.725 329.638 215.725 332.3ZM253.611 332.3C253.611 334.962 255.437 336.7 257.769 336.7C260.101 336.7 261.927 334.962 261.927 332.3C261.927 329.638 260.101 327.9 257.769 327.9C255.437 327.9 253.611 329.638 253.611 332.3Z" fill="white"/>
<rect x="16" y="397" width="125" height="43" rx="13" fill="white"/>
<rect x="195" y="397" width="125" height="43" rx="13" fill="white"/>
<path d="M252 5C252 26.7478 243.361 47.6048 227.983 62.9828C212.605 78.3607 191.748 87 170 87C148.252 87 127.395 78.3607 112.017 62.9828C96.6393 47.6048 88 26.7478 88 5.00002L170 5H252Z" fill="white"/>
<path d="M48.032 423.216C48.032 414.96 35.328 417.52 35.328 414.096C35.328 412.976 36.288 412.08 38.944 412.08C40.896 412.08 43.008 412.656 45.152 413.808L47.104 409.104C45.312 408.048 42.976 407.408 40.608 407.216V403.76H36.768V407.28C31.584 407.92 29.056 410.896 29.056 414.416C29.056 422.736 41.792 420.144 41.792 423.696C41.792 424.784 40.768 425.52 38.144 425.52C35.552 425.52 32.736 424.624 30.752 423.312L28.672 427.984C30.528 429.264 33.568 430.192 36.768 430.416V433.84H40.608V430.288C45.6 429.552 48.032 426.608 48.032 423.216Z" fill="#00BCBC"/>
<path d="M62.32 417.7L65.48 414.1V412H55.68V414.6H61.64L58.76 417.86V420H60.24C62.08 420 62.86 420.66 62.86 421.72C62.86 422.86 61.86 423.52 60.24 423.52C58.78 423.52 57.3 423.06 56.24 422.26L54.98 424.74C56.34 425.7 58.36 426.24 60.32 426.24C64.3 426.24 66.12 424.08 66.12 421.72C66.12 419.66 64.84 418.1 62.32 417.7ZM72.2206 417.26H71.0806L71.3006 414.6H77.1406V412H68.6006L67.8806 419.88H71.4606C74.0006 419.88 74.7206 420.6 74.7206 421.7C74.7206 422.84 73.7206 423.52 72.1006 423.52C70.6406 423.52 69.1806 423.06 68.1206 422.26L66.8406 424.74C68.2006 425.7 70.2406 426.24 72.1806 426.24C76.1806 426.24 78.0006 424.08 78.0006 421.6C78.0006 419.12 76.3606 417.26 72.2206 417.26ZM90.9792 426.24C94.4392 426.24 96.9792 423.62 96.9792 419C96.9792 414.38 94.4392 411.76 90.9792 411.76C87.5392 411.76 84.9792 414.38 84.9792 419C84.9792 423.62 87.5392 426.24 90.9792 426.24ZM90.9792 423.5C89.3792 423.5 88.2592 422.18 88.2592 419C88.2592 415.82 89.3792 414.5 90.9792 414.5C92.5992 414.5 93.7192 415.82 93.7192 419C93.7192 422.18 92.5992 423.5 90.9792 423.5ZM104.553 426.24C108.013 426.24 110.553 423.62 110.553 419C110.553 414.38 108.013 411.76 104.553 411.76C101.113 411.76 98.5534 414.38 98.5534 419C98.5534 423.62 101.113 426.24 104.553 426.24ZM104.553 423.5C102.953 423.5 101.833 422.18 101.833 419C101.833 415.82 102.953 414.5 104.553 414.5C106.173 414.5 107.293 415.82 107.293 419C107.293 422.18 106.173 423.5 104.553 423.5ZM118.128 426.24C121.588 426.24 124.128 423.62 124.128 419C124.128 414.38 121.588 411.76 118.128 411.76C114.688 411.76 112.128 414.38 112.128 419C112.128 423.62 114.688 426.24 118.128 426.24ZM118.128 423.5C116.528 423.5 115.408 422.18 115.408 419C115.408 415.82 116.528 414.5 118.128 414.5C119.748 414.5 120.868 415.82 120.868 419C120.868 422.18 119.748 423.5 118.128 423.5Z" fill="black"/>
<path d="M238.22 423.36L241.44 420.32C243.4 418.5 243.78 417.26 243.78 415.9C243.78 413.36 241.7 411.76 238.58 411.76C236.06 411.76 234.1 412.78 233.02 414.36L235.38 415.88C236.06 414.94 237.08 414.48 238.28 414.48C239.76 414.48 240.52 415.12 240.52 416.22C240.52 416.9 240.3 417.62 239.06 418.8L233.66 423.9V426H244.24V423.36H238.22ZM251.538 426.24C254.998 426.24 257.538 423.62 257.538 419C257.538 414.38 254.998 411.76 251.538 411.76C248.098 411.76 245.538 414.38 245.538 419C245.538 423.62 248.098 426.24 251.538 426.24ZM251.538 423.5C249.938 423.5 248.818 422.18 248.818 419C248.818 415.82 249.938 414.5 251.538 414.5C253.158 414.5 254.278 415.82 254.278 419C254.278 422.18 253.158 423.5 251.538 423.5ZM278.816 426L278.776 415.24H275.856L272.196 421.46L268.756 415.24H265.496V426H268.316V419.54L271.456 424.96H272.776L275.996 419.56V426H278.816ZM281.805 426H284.685L289.905 419.6V426H293.005V415.24H290.145L284.905 421.64V415.24H281.805V426ZM296.004 426H299.104V421.98H303.784V426H306.904V415.24H303.784V419.44H299.104V415.24H296.004V426Z" fill="black"/>
<path d="M216.5 406C209.595 406 204 411.595 204 418.5C204 425.405 209.595 431 216.5 431C223.405 431 229 425.405 229 418.5C229 411.595 223.405 406 216.5 406Z" fill="#00BCBC"/>
<path fill-rule="evenodd" clip-rule="evenodd" d="M215.961 410C214.878 410 214 410.878 214 411.961V419.153C214 419.311 214.019 419.464 214.054 419.611C214.047 420.263 214.376 420.901 214.974 421.262L220.414 424.535C221.313 425.077 222.481 424.786 223.022 423.887C223.563 422.988 223.273 421.82 222.374 421.279L217.923 418.6V411.961C217.923 410.878 217.045 410 215.961 410Z" fill="white"/>
<g filter="url(#filter0_d)">
<path d="M162.531 400.393L185.975 433.213C179.766 434.57 168.698 428.331 168.698 428.331C168.698 428.331 160.834 438.706 154.912 440L162.531 400.393Z" fill="white"/>
<path fill-rule="evenodd" clip-rule="evenodd" d="M154.912 440L158.469 421.51C161.522 424.284 164.956 426.604 168.698 428.331C168.698 428.331 160.834 438.706 154.912 440Z" fill="#BBFFF9"/>
</g>
<path d="M175.82 41.64L184.23 32.592V25.4H154.882V34.274H170.89L163.64 42.104V49.354H168.454C172.862 49.354 174.66 50.862 174.66 53.298C174.66 56.024 172.108 57.532 168.222 57.532C164.394 57.532 160.218 56.372 156.97 54.168L152.794 62.81C156.97 65.42 162.944 66.812 168.57 66.812C180.808 66.812 186.26 60.2 186.26 53.298C186.26 47.498 182.664 43.09 175.82 41.64Z" fill="#46BBCE"/>
<g filter="url(#filter1_di)">
<path d="M162.608 199.486H166.27V192.162H151.622V181.176C151.622 179.157 149.979 177.514 147.96 177.514C145.941 177.514 144.298 179.157 144.298 181.176V192.162H117.965C111.054 203.952 116.67 219.631 130.223 223.974C127.007 238.174 137.771 251 151.622 251C157.244 251 162.381 248.876 166.27 245.387V221.459H162.608C156.551 221.459 151.622 216.53 151.622 210.473C151.622 204.416 156.551 199.486 162.608 199.486ZM221.9 192.162H202.891V195.824C202.891 201.881 197.962 206.811 191.905 206.811C185.848 206.811 180.919 201.881 180.919 195.824V192.162H173.595V206.811H162.608C160.589 206.811 158.946 208.454 158.946 210.473C158.946 212.492 160.589 214.135 162.608 214.135H173.595V245.387C177.484 248.876 182.62 251 188.243 251C202.082 251 212.861 238.187 209.642 223.974C223.186 219.634 228.816 203.961 221.9 192.162V192.162ZM209.642 153.026C212.858 138.826 202.094 126 188.243 126C182.62 126 177.484 128.124 173.595 131.613V155.541H177.257C183.314 155.541 188.243 160.47 188.243 166.527C188.243 172.584 183.314 177.514 177.257 177.514H173.595V184.838H188.243V195.824C188.243 197.843 189.886 199.486 191.905 199.486C193.924 199.486 195.567 197.843 195.567 195.824V184.838H221.9C228.811 173.048 223.195 157.369 209.642 153.026ZM177.257 162.865H166.27V131.613C162.381 128.124 157.244 126 151.622 126C137.783 126 127.004 138.812 130.223 153.026C116.679 157.366 111.048 173.039 117.965 184.838H136.973V181.176C136.973 175.119 141.903 170.189 147.96 170.189C154.017 170.189 158.946 175.119 158.946 181.176V184.838H166.27V170.189H177.257C179.276 170.189 180.919 168.546 180.919 166.527C180.919 164.508 179.276 162.865 177.257 162.865V162.865Z" fill="white"/>
</g>
<defs>
<filter id="filter0_d" x="143" y="393" width="52.975" height="57.0001" filterUnits="userSpaceOnUse" color-interpolation-filters="sRGB">
<feFlood flood-opacity="0" result="BackgroundImageFix"/>
<feColorMatrix in="SourceAlpha" type="matrix" values="0 0 0 0 0 0 0 0 0 0 0 0 0 0 0 0 0 0 127 0"/>
<feOffset dx="3" dy="3"/>
<feGaussianBlur stdDeviation="3.5"/>
<feColorMatrix type="matrix" values="0 0 0 0 0.279 0 0 0 0 0.9 0 0 0 0 0.840225 0 0 0 1 0"/>
<feBlend mode="normal" in2="BackgroundImageFix" result="effect1_dropShadow"/>
<feBlend mode="normal" in="SourceGraphic" in2="effect1_dropShadow" result="shape"/>
</filter>
<filter id="filter1_di" x="109" y="120" width="129.865" height="145" filterUnits="userSpaceOnUse" color-interpolation-filters="sRGB">
<feFlood flood-opacity="0" result="BackgroundImageFix"/>
<feColorMatrix in="SourceAlpha" type="matrix" values="0 0 0 0 0 0 0 0 0 0 0 0 0 0 0 0 0 0 127 0"/>
<feOffset dx="4" dy="4"/>
<feGaussianBlur stdDeviation="5"/>
<feColorMatrix type="matrix" values="0 0 0 0 0.1715 0 0 0 0 0.816667 0 0 0 0 0.816667 0 0 0 1 0"/>
<feBlend mode="normal" in2="BackgroundImageFix" result="effect1_dropShadow"/>
<feBlend mode="normal" in="SourceGraphic" in2="effect1_dropShadow" result="shape"/>
<feColorMatrix in="SourceAlpha" type="matrix" values="0 0 0 0 0 0 0 0 0 0 0 0 0 0 0 0 0 0 127 0" result="hardAlpha"/>
<feOffset dx="-4" dy="-4"/>
<feGaussianBlur stdDeviation="4.5"/>
<feComposite in2="hardAlpha" operator="arithmetic" k2="-1" k3="1"/>
<feColorMatrix type="matrix" values="0 0 0 0 0.441945 0 0 0 0 0.887146 0 0 0 0 0.895833 0 0 0 0.52 0"/>
<feBlend mode="normal" in2="shape" result="effect2_innerShadow"/>
</filter>
<linearGradient id="paint0_linear" x1="5.5" y1="-157" x2="289.5" y2="495.5" gradientUnits="userSpaceOnUse">
<stop stop-color="#00C2FF"/>
<stop offset="1" stop-color="#1EE7CF"/>
</linearGradient>
<linearGradient id="paint1_linear" x1="49" y1="11" x2="301.5" y2="474" gradientUnits="userSpaceOnUse">
<stop stop-color="#19D2EB"/>
<stop offset="1" stop-color="#55F5DF"/>
</linearGradient>
<linearGradient id="paint2_linear" x1="59.5" y1="-9" x2="291.5" y2="495.5" gradientUnits="userSpaceOnUse">
<stop stop-color="#00E0FF"/>
<stop offset="1" stop-color="#42F2D1"/>
</linearGradient>
<linearGradient id="paint3_linear" x1="51" y1="11" x2="303.5" y2="474" gradientUnits="userSpaceOnUse">
<stop stop-color="#B2F6FF"/>
<stop offset="1" stop-color="#28D7BE"/>
</linearGradient>
<linearGradient id="paint4_linear" x1="27" y1="473.49" x2="247.084" y2="60.8524" gradientUnits="userSpaceOnUse">
<stop stop-color="#73F5FF"/>
<stop offset="0.99" stop-color="#7AFFEC"/>
</linearGradient>
<linearGradient id="paint5_linear" x1="129.774" y1="288" x2="310" y2="288" gradientUnits="userSpaceOnUse">
<stop stop-color="white"/>
<stop offset="0.99" stop-color="white" stop-opacity="0.4"/>
</linearGradient>
<linearGradient id="paint6_linear" x1="59.8997" y1="86" x2="140" y2="86" gradientUnits="userSpaceOnUse">
<stop stop-color="white"/>
<stop offset="0.99" stop-color="white" stop-opacity="0.4"/>
</linearGradient>
</defs>
</svg>
