<svg width="338" height="474" viewBox="0 0 338 474" fill="none" xmlns="http://www.w3.org/2000/svg">
<rect x="2.5" y="2.5" width="331" height="469" rx="32.5" fill="url(#paint0_linear)" stroke="url(#paint1_linear)" stroke-width="5"/>
<mask id="mask0" mask-type="alpha" maskUnits="userSpaceOnUse" x="2" y="0" width="336" height="474">
<rect x="4.5" y="2.5" width="331" height="469" rx="41.5" fill="url(#paint2_linear)" stroke="url(#paint3_linear)" stroke-width="5"/>
</mask>
<g mask="url(#mask0)">
<path d="M198.89 5.0093C198.89 5.0093 97.8208 47.0947 93.9888 101.845C90.1568 156.595 112.775 152.615 106.069 185.086C99.3631 217.557 -10.9124 255.616 18.7856 356.766C48.4837 457.916 142.368 370.584 242 469H35C18.4315 469 5 455.569 5 439V35.0014C5 18.4323 18.4323 5.00064 35.0014 5.00144L198.89 5.0093Z" fill="url(#paint4_linear)" fill-opacity="0.5"/>
</g>
<path opacity="0.46" d="M219.887 378C202.092 377.978 184.702 372.68 169.917 362.777C155.131 352.875 143.613 338.811 136.819 322.363C130.024 305.916 128.258 287.824 131.743 270.373C135.229 252.922 143.809 236.896 156.4 224.321C168.992 211.745 185.028 203.185 202.483 199.721C219.939 196.258 238.029 198.046 254.468 204.862C270.906 211.677 284.956 223.212 294.84 238.01C304.724 252.808 310 270.204 310 288C309.958 311.876 300.447 334.761 283.553 351.633C266.66 368.506 243.763 377.988 219.887 378ZM219.887 222.747C206.985 222.764 194.378 226.607 183.659 233.788C172.94 240.969 164.59 251.166 159.665 263.091C154.74 275.016 153.461 288.134 155.989 300.786C158.517 313.438 164.739 325.056 173.868 334.173C182.998 343.29 194.625 349.496 207.28 352.006C219.936 354.517 233.051 353.219 244.97 348.278C256.888 343.336 267.074 334.972 274.24 324.243C281.406 313.515 285.231 300.902 285.231 288C285.177 270.703 278.27 254.132 266.022 241.918C253.774 229.704 237.184 222.843 219.887 222.837V222.747Z" fill="url(#paint5_linear)"/>
<path opacity="0.46" d="M99.9498 126C92.0407 125.99 84.3121 123.636 77.7407 119.234C71.1694 114.833 66.0503 108.583 63.0305 101.273C60.0106 93.9627 59.2257 85.9216 60.7747 78.1657C62.3238 70.4097 66.1374 63.2871 71.7335 57.698C77.3296 52.1089 84.457 48.3043 92.2148 46.7649C99.9727 45.2256 108.013 46.0207 115.319 49.0496C122.625 52.0786 128.869 57.2055 133.262 63.7824C137.655 70.3593 140 78.0909 140 86C139.981 96.6116 135.754 106.783 128.246 114.281C120.738 121.78 110.561 125.995 99.9498 126ZM99.9498 56.9985C94.2156 57.0064 88.6124 58.7141 83.8484 61.9056C79.0844 65.0972 75.3735 69.6294 73.1846 74.9294C70.9957 80.2294 70.4271 86.0594 71.5506 91.6825C72.6742 97.3056 75.4395 102.469 79.497 106.521C83.5545 110.573 88.7222 113.331 94.3468 114.447C99.9715 115.563 105.801 114.986 111.098 112.79C116.395 110.594 120.922 106.877 124.107 102.108C127.292 97.3398 128.991 91.7342 128.991 86C128.968 78.3124 125.898 70.9477 120.454 65.5193C115.011 60.0908 107.637 57.0412 99.9498 57.0386V56.9985Z" fill="url(#paint6_linear)"/>
<path d="M49.4703 313.2V319.512H42.9903V313.2H38.2383V330H42.9903V323.448H49.4703V330H54.2223V313.2H49.4703Z" fill="black"/>
<path d="M71.944 330H76.888L69.448 313.2H64.768L57.352 330H62.2L63.52 326.736H70.624L71.944 330ZM64.912 323.232L67.072 317.856L69.232 323.232H64.912Z" fill="black"/>
<path d="M91.2453 313.2V319.512H84.7653V313.2H80.0133V330H84.7653V323.448H91.2453V330H95.9973V313.2H91.2453Z" fill="black"/>
<path d="M107.311 313.2C102.703 313.2 99.799 315.624 99.799 319.584C99.799 322.2 101.047 324.096 103.255 325.08L99.847 330H104.839L107.599 325.776H110.191V330H114.871V313.2H107.311ZM107.407 316.944H110.191V322.104H107.359C105.559 322.104 104.599 321.192 104.599 319.512C104.599 317.808 105.559 316.944 107.407 316.944Z" fill="black"/>
<path d="M133.215 313.2H118.239V316.968H123.399V330H128.079V316.968H133.215V313.2Z" fill="black"/>
<path d="M145.173 318.552H141.285V313.2H136.605V330H144.549C148.917 330 151.629 327.96 151.629 324.024C151.629 320.352 149.253 318.552 145.173 318.552ZM144.237 326.592H141.285V321.936H144.237C145.845 321.936 146.853 322.536 146.853 324.12C146.853 325.704 145.821 326.592 144.237 326.592Z" fill="black"/>
<path d="M182.82 330L182.772 313.2H178.86L173.1 322.896L167.196 313.2H163.284V330H167.676V321.336L171.972 328.344H174.084L178.404 321.096L178.452 330H182.82Z" fill="black"/>
<path d="M187.382 330H200.15V326.232H192.134V313.2H187.382V330Z" fill="black"/>
<path d="M202.82 324.912H209.828V321.408H202.82V324.912Z" fill="black"/>
<path d="M236.749 326.232V313.2H232.069V326.232H227.725V313.2H223.045V326.232H218.653V313.2H213.973V330H234.565V333.384H238.933V326.232H236.749Z" fill="black"/>
<path d="M242.407 330H246.895L253.807 320.16V330H258.487V313.2H254.023L247.087 323.064V313.2H242.407V330Z" fill="black"/>
<path d="M273.903 330H279.255L273.951 321.312L279.207 313.2H274.215L270.207 319.728H267.927V313.2H263.199V330H267.927V323.568H270.087L273.903 330Z" fill="black"/>
<path d="M294.492 330H299.436L291.996 313.2H287.316L279.9 330H284.748L286.068 326.736H293.172L294.492 330ZM287.46 323.232L289.62 317.856L291.78 323.232H287.46Z" fill="black"/>
<path fill-rule="evenodd" clip-rule="evenodd" d="M46.2303 309.392C47.1029 308.648 48.2342 308.2 49.4703 308.2H54.2223C56.9837 308.2 59.2223 310.439 59.2223 313.2V313.382L60.1939 311.181C60.9937 309.369 62.7875 308.2 64.768 308.2H69.448C71.4264 308.2 73.2187 309.366 74.0198 311.175L75.0133 313.419V313.2C75.0133 310.439 77.2519 308.2 80.0133 308.2H84.7653C86.0013 308.2 87.1326 308.648 88.0053 309.392C88.8779 308.648 90.0092 308.2 91.2453 308.2H95.9973C97.5967 308.2 99.0208 308.951 99.936 310.12C102.134 308.762 104.723 308.2 107.311 308.2H114.871C115.462 308.2 116.029 308.302 116.555 308.491C117.081 308.302 117.648 308.2 118.239 308.2H133.215C133.81 308.2 134.381 308.304 134.91 308.495C135.44 308.304 136.01 308.2 136.605 308.2H141.285C144.047 308.2 146.285 310.439 146.285 313.2V313.586C148.639 313.735 151.095 314.392 153.11 316.051C155.611 318.11 156.629 321.04 156.629 324.024C156.629 327.233 155.464 330.253 152.895 332.357C150.477 334.336 147.43 335 144.549 335H136.605C134.802 335 133.222 334.045 132.342 332.614C131.463 334.045 129.882 335 128.079 335H123.399C121.595 335 120.014 334.045 119.135 332.613C118.256 334.045 116.675 335 114.871 335H110.191C109.206 335 108.288 334.715 107.514 334.224C106.726 334.723 105.801 335 104.839 335H99.847C99.175 335 98.5231 334.865 97.9238 334.615C97.3309 334.863 96.6801 335 95.9973 335H91.2453C90.0092 335 88.878 334.551 88.0053 333.808C87.1326 334.551 86.0013 335 84.7653 335H80.0133C79.4668 335 78.9408 334.912 78.4486 334.75C77.9515 334.914 77.4256 335 76.888 335H71.944C69.9064 335 68.0727 333.763 67.3087 331.875L67.2527 331.736H66.8914L66.8353 331.875C66.0714 333.763 64.2376 335 62.2 335H57.352C56.8137 335 56.287 334.913 55.7892 334.75C55.2964 334.912 54.7696 335 54.2223 335H49.4703C48.2342 335 47.1029 334.551 46.2303 333.808C45.3576 334.551 44.2263 335 42.9903 335H38.2383C35.4769 335 33.2383 332.761 33.2383 330L33.2383 313.2C33.2383 310.439 35.4769 308.2 38.2383 308.2H42.9903C44.2263 308.2 45.3576 308.648 46.2303 309.392ZM42.9903 313.2H38.2383V330H42.9903V323.448H49.4703V330H54.2223V313.2H49.4703V319.512H42.9903V313.2ZM76.888 330L69.448 313.2H64.768L57.352 330H62.2L63.52 326.736H70.624L71.944 330H76.888ZM67.072 317.856L64.912 323.232H69.232L67.072 317.856ZM84.7653 330V323.448H91.2453V330H95.9973V313.2H91.2453V319.512H84.7653V313.2H80.0133V330H84.7653ZM110.191 330H114.871V313.2H107.311C104.459 313.2 102.259 314.129 100.997 315.776C100.233 316.773 99.8126 318.034 99.7993 319.512C99.7991 319.536 99.799 319.56 99.799 319.584C99.799 321.098 100.217 322.371 100.997 323.365C101.099 323.495 101.207 323.62 101.321 323.74C101.632 324.068 101.988 324.36 102.386 324.614C102.605 324.754 102.837 324.883 103.082 325C103.139 325.027 103.197 325.054 103.255 325.08L99.847 330H104.839L107.599 325.776H110.191V330ZM110.191 322.104V316.944H107.407C107.375 316.944 107.343 316.944 107.311 316.945C106.354 316.961 105.644 317.216 105.191 317.707C104.799 318.133 104.599 318.735 104.599 319.512C104.599 319.536 104.599 319.56 104.6 319.584C104.61 320.202 104.754 320.714 105.024 321.11C105.075 321.185 105.131 321.256 105.191 321.322C105.206 321.339 105.22 321.354 105.235 321.37C105.686 321.837 106.37 322.088 107.272 322.103C107.301 322.104 107.33 322.104 107.359 322.104H110.191ZM123.399 330H128.079V316.968H133.215V313.2H118.239V316.968H123.399V330ZM136.605 330H144.549C148.882 330 151.585 327.993 151.629 324.12C151.629 324.088 151.629 324.056 151.629 324.024C151.629 320.352 149.253 318.552 145.173 318.552H141.285V313.2H136.605V330ZM141.285 326.592H144.237C144.344 326.592 144.448 326.588 144.549 326.58C145.286 326.522 145.884 326.255 146.285 325.801C146.65 325.389 146.853 324.823 146.853 324.12C146.853 324.088 146.853 324.056 146.852 324.024C146.835 323.365 146.635 322.884 146.285 322.551C146.006 322.285 145.63 322.113 145.173 322.02C144.891 321.963 144.578 321.936 144.237 321.936H141.285V326.592ZM185.1 334.45C184.401 334.808 183.62 335 182.82 335H178.452C176.958 335 175.617 334.345 174.701 333.306C174.498 333.331 174.292 333.344 174.084 333.344H171.972C171.786 333.344 171.602 333.334 171.42 333.313C170.504 334.348 169.166 335 167.676 335H163.284C160.522 335 158.284 332.761 158.284 330V313.2C158.284 310.439 160.522 308.2 163.284 308.2H167.196C168.941 308.2 170.559 309.109 171.466 310.6L173.047 313.195L174.561 310.646C175.462 309.13 177.096 308.2 178.86 308.2H182.772C183.603 308.2 184.387 308.403 185.077 308.762C185.767 308.403 186.551 308.2 187.382 308.2H192.134C194.896 308.2 197.134 310.439 197.134 313.2V321.232H197.823C197.916 318.552 200.117 316.408 202.82 316.408H208.973V313.2C208.973 310.439 211.211 308.2 213.973 308.2H218.653C219.44 308.2 220.186 308.382 220.849 308.707C221.512 308.382 222.257 308.2 223.045 308.2H227.725C228.503 308.2 229.24 308.378 229.897 308.695C230.553 308.378 231.29 308.2 232.069 308.2H236.749C237.799 308.2 238.773 308.524 239.578 309.077C240.382 308.524 241.357 308.2 242.407 308.2H247.087C248.434 308.2 249.656 308.732 250.555 309.598C251.478 308.71 252.718 308.2 254.023 308.2H258.487C259.339 308.2 260.141 308.413 260.843 308.789C261.545 308.413 262.347 308.2 263.199 308.2H267.927C269.118 308.2 270.212 308.617 271.071 309.312C271.948 308.603 273.053 308.2 274.215 308.2H279.207C280.825 308.2 282.329 308.982 283.261 310.274C284.189 308.989 285.69 308.2 287.316 308.2H291.996C293.975 308.2 295.767 309.366 296.568 311.175L304.008 327.975C304.693 329.522 304.55 331.31 303.627 332.727C302.705 334.145 301.128 335 299.436 335H294.492C292.455 335 290.621 333.763 289.857 331.875L289.801 331.736H289.44L289.384 331.875C288.62 333.763 286.786 335 284.748 335H279.9C279.792 335 279.685 334.996 279.578 334.99C279.47 334.996 279.363 335 279.255 335H273.903C272.809 335 271.765 334.642 270.915 334.009C270.081 334.631 269.047 335 267.927 335H263.199C262.347 335 261.545 334.787 260.843 334.411C260.141 334.787 259.339 335 258.487 335H253.807C252.466 335 251.249 334.472 250.351 333.613C249.43 334.495 248.195 335 246.895 335H243.666C242.994 336.968 241.129 338.384 238.933 338.384H234.565C232.369 338.384 230.503 336.968 229.832 335H213.973C211.211 335 208.973 332.761 208.973 330V329.912H205.15V330C205.15 332.761 202.912 335 200.15 335H187.382C186.56 335 185.784 334.801 185.1 334.45ZM200.15 330V326.232H192.134V313.2H187.382V330H200.15ZM209.828 324.912V321.408H202.82V324.912H209.828ZM213.973 330H234.565V333.384H238.933V326.232H236.749V313.2H232.069V326.232H227.725V313.2H223.045V326.232H218.653V313.2H213.973V330ZM242.407 330H246.895L253.807 320.16V330H258.487V313.2H254.023L247.087 323.064V313.2H242.407V330ZM291.996 313.2H287.316L279.9 330H284.748L286.068 326.736H293.172L294.492 330H299.436L291.996 313.2ZM289.62 317.856L287.46 323.232H291.78L289.62 317.856ZM279.207 313.2H274.215L270.207 319.728H267.927V313.2H263.199V330H267.927V323.568H270.087L273.903 330H279.255L273.951 321.312L279.207 313.2ZM167.196 313.2H163.284V330H167.676V321.336L171.972 328.344H174.084L178.404 321.096L178.452 330H182.82V329.976L182.772 313.2H178.86L173.1 322.896L167.196 313.2Z" fill="white"/>
<rect x="16" y="397" width="125" height="43" rx="13" fill="white"/>
<rect x="195" y="397" width="125" height="43" rx="13" fill="white"/>
<path d="M252 5C252 26.7477 243.361 47.6048 227.983 62.9828C212.605 78.3607 191.748 87 170 87C148.252 87 127.395 78.3607 112.017 62.9828C96.6393 47.6048 88 26.7478 88 5.00002L170 5H252Z" fill="white"/>
<path d="M48.032 423.216C48.032 414.96 35.328 417.52 35.328 414.096C35.328 412.976 36.288 412.08 38.944 412.08C40.896 412.08 43.008 412.656 45.152 413.808L47.104 409.104C45.312 408.048 42.976 407.408 40.608 407.216V403.76H36.768V407.28C31.584 407.92 29.056 410.896 29.056 414.416C29.056 422.736 41.792 420.144 41.792 423.696C41.792 424.784 40.768 425.52 38.144 425.52C35.552 425.52 32.736 424.624 30.752 423.312L28.672 427.984C30.528 429.264 33.568 430.192 36.768 430.416V433.84H40.608V430.288C45.6 429.552 48.032 426.608 48.032 423.216Z" fill="#00BCBC"/>
<path d="M60.58 417.26H59.44L59.66 414.6H65.5V412H56.96L56.24 419.88H59.82C62.36 419.88 63.08 420.6 63.08 421.7C63.08 422.84 62.08 423.52 60.46 423.52C59 423.52 57.54 423.06 56.48 422.26L55.2 424.74C56.56 425.7 58.6 426.24 60.54 426.24C64.54 426.24 66.36 424.08 66.36 421.6C66.36 419.12 64.72 417.26 60.58 417.26ZM72.3769 417.26H71.2369L71.4569 414.6H77.2969V412H68.7569L68.0369 419.88H71.6169C74.1569 419.88 74.8769 420.6 74.8769 421.7C74.8769 422.84 73.8769 423.52 72.2569 423.52C70.7969 423.52 69.3369 423.06 68.2769 422.26L66.9969 424.74C68.3569 425.7 70.3969 426.24 72.3369 426.24C76.3369 426.24 78.1569 424.08 78.1569 421.6C78.1569 419.12 76.5169 417.26 72.3769 417.26ZM91.1355 426.24C94.5955 426.24 97.1355 423.62 97.1355 419C97.1355 414.38 94.5955 411.76 91.1355 411.76C87.6955 411.76 85.1355 414.38 85.1355 419C85.1355 423.62 87.6955 426.24 91.1355 426.24ZM91.1355 423.5C89.5355 423.5 88.4155 422.18 88.4155 419C88.4155 415.82 89.5355 414.5 91.1355 414.5C92.7555 414.5 93.8755 415.82 93.8755 419C93.8755 422.18 92.7555 423.5 91.1355 423.5ZM104.71 426.24C108.17 426.24 110.71 423.62 110.71 419C110.71 414.38 108.17 411.76 104.71 411.76C101.27 411.76 98.7097 414.38 98.7097 419C98.7097 423.62 101.27 426.24 104.71 426.24ZM104.71 423.5C103.11 423.5 101.99 422.18 101.99 419C101.99 415.82 103.11 414.5 104.71 414.5C106.33 414.5 107.45 415.82 107.45 419C107.45 422.18 106.33 423.5 104.71 423.5ZM118.284 426.24C121.744 426.24 124.284 423.62 124.284 419C124.284 414.38 121.744 411.76 118.284 411.76C114.844 411.76 112.284 414.38 112.284 419C112.284 423.62 114.844 426.24 118.284 426.24ZM118.284 423.5C116.684 423.5 115.564 422.18 115.564 419C115.564 415.82 116.684 414.5 118.284 414.5C119.904 414.5 121.024 415.82 121.024 419C121.024 422.18 119.904 423.5 118.284 423.5Z" fill="black"/>
<path d="M246.6 420.42H244.32V417.8H241.26V420.42H237.5L243.62 412H240.22L233.62 420.88V423.06H241.16V426H244.32V423.06H246.6V420.42ZM252.33 417.26H251.19L251.41 414.6H257.25V412H248.71L247.99 419.88H251.57C254.11 419.88 254.83 420.6 254.83 421.7C254.83 422.84 253.83 423.52 252.21 423.52C250.75 423.52 249.29 423.06 248.23 422.26L246.95 424.74C248.31 425.7 250.35 426.24 252.29 426.24C256.29 426.24 258.11 424.08 258.11 421.6C258.11 419.12 256.47 417.26 252.33 417.26ZM279.129 426L279.089 415.24H276.169L272.509 421.46L269.069 415.24H265.809V426H268.629V419.54L271.769 424.96H273.089L276.309 419.56V426H279.129ZM282.117 426H284.997L290.217 419.6V426H293.317V415.24H290.457L285.217 421.64V415.24H282.117V426ZM296.316 426H299.416V421.98H304.096V426H307.216V415.24H304.096V419.44H299.416V415.24H296.316V426Z" fill="black"/>
<path d="M216.5 406C209.595 406 204 411.595 204 418.5C204 425.405 209.595 431 216.5 431C223.405 431 229 425.405 229 418.5C229 411.595 223.405 406 216.5 406Z" fill="#00BCBC"/>
<path fill-rule="evenodd" clip-rule="evenodd" d="M215.961 410C214.878 410 214 410.878 214 411.961V419.153C214 419.311 214.019 419.464 214.054 419.611C214.047 420.263 214.376 420.901 214.974 421.262L220.414 424.535C221.313 425.077 222.481 424.786 223.022 423.887C223.563 422.988 223.273 421.82 222.374 421.279L217.923 418.6V411.961C217.923 410.878 217.045 410 215.961 410Z" fill="white"/>
<g filter="url(#filter0_d)">
<path d="M162.531 400.393L185.975 433.213C179.766 434.57 168.698 428.331 168.698 428.331C168.698 428.331 160.834 438.706 154.912 440L162.531 400.393Z" fill="white"/>
<path fill-rule="evenodd" clip-rule="evenodd" d="M154.912 440L158.469 421.51C161.522 424.284 164.956 426.604 168.698 428.331C168.698 428.331 160.834 438.706 154.912 440Z" fill="#BBFFF9"/>
</g>
<path d="M187.446 49.122H181.414V42.22H170.568V49.122H162.332L178.862 25.4H166.972L148.76 50.746V58.228H170.22V66H181.414V58.228H187.446V49.122Z" fill="#46BBCE"/>
<g filter="url(#filter1_di)">
<path d="M214.35 205.579C211.783 205.579 209.7 207.648 209.7 210.197V216.355H206.6V204.409C204.864 203.732 203.252 202.808 201.764 201.576C200.028 200.037 191.1 192.216 183.102 180.947H161.65V167.714C166.188 165.885 169.4 161.47 169.4 156.316C169.4 149.524 163.839 144 157 144C150.161 144 144.6 149.524 144.6 156.316C144.6 161.47 147.812 165.885 152.35 167.714V180.947H124.45C115.026 180.947 107.4 188.522 107.4 197.882V216.355H104.3V210.197C104.3 207.648 102.217 205.579 99.65 205.579C97.0832 205.579 95 207.648 95 210.197V231.75C95 234.299 97.0832 236.368 99.65 236.368C102.217 236.368 104.3 234.299 104.3 231.75V225.592H107.4V244.066C107.4 253.426 115.026 261 124.45 261H189.55C198.974 261 206.6 253.426 206.6 244.066V225.592H209.7V231.75C209.7 234.299 211.783 236.368 214.35 236.368C216.917 236.368 219 234.299 219 231.75V210.197C219 207.648 216.917 205.579 214.35 205.579ZM126 211.737C126 204.963 131.58 199.421 138.4 199.421C145.22 199.421 150.8 204.963 150.8 211.737C150.8 218.511 145.22 224.053 138.4 224.053C131.58 224.053 126 218.511 126 211.737ZM170.95 242.526H143.05C140.508 242.526 138.4 240.433 138.4 237.908C138.4 235.383 140.508 233.289 143.05 233.289H170.95C173.492 233.289 175.6 235.383 175.6 237.908C175.6 240.433 173.492 242.526 170.95 242.526ZM175.6 224.053C168.78 224.053 163.2 218.511 163.2 211.737C163.2 204.963 168.78 199.421 175.6 199.421C182.42 199.421 188 204.963 188 211.737C188 218.511 182.42 224.053 175.6 224.053Z" fill="white"/>
<path d="M213 116C195.907 116 182 129.975 182 147.157C182 170.868 208.834 193.926 209.974 194.892C211.717 196.369 214.277 196.369 216.026 194.892C217.166 193.92 244 170.862 244 147.157C244 129.975 230.093 116 213 116V116ZM213 159.077C206.161 159.077 200.6 153.557 200.6 146.769C200.6 139.982 206.161 134.462 213 134.462C219.839 134.462 225.4 139.982 225.4 146.769C225.4 153.557 219.839 159.077 213 159.077Z" fill="white"/>
</g>
<defs>
<filter id="filter0_d" x="143" y="393" width="52.975" height="57.0001" filterUnits="userSpaceOnUse" color-interpolation-filters="sRGB">
<feFlood flood-opacity="0" result="BackgroundImageFix"/>
<feColorMatrix in="SourceAlpha" type="matrix" values="0 0 0 0 0 0 0 0 0 0 0 0 0 0 0 0 0 0 127 0"/>
<feOffset dx="3" dy="3"/>
<feGaussianBlur stdDeviation="3.5"/>
<feColorMatrix type="matrix" values="0 0 0 0 0.279 0 0 0 0 0.9 0 0 0 0 0.840225 0 0 0 1 0"/>
<feBlend mode="normal" in2="BackgroundImageFix" result="effect1_dropShadow"/>
<feBlend mode="normal" in="SourceGraphic" in2="effect1_dropShadow" result="shape"/>
</filter>
<filter id="filter1_di" x="89" y="110" width="169" height="165" filterUnits="userSpaceOnUse" color-interpolation-filters="sRGB">
<feFlood flood-opacity="0" result="BackgroundImageFix"/>
<feColorMatrix in="SourceAlpha" type="matrix" values="0 0 0 0 0 0 0 0 0 0 0 0 0 0 0 0 0 0 127 0"/>
<feOffset dx="4" dy="4"/>
<feGaussianBlur stdDeviation="5"/>
<feColorMatrix type="matrix" values="0 0 0 0 0.1715 0 0 0 0 0.816667 0 0 0 0 0.816667 0 0 0 1 0"/>
<feBlend mode="normal" in2="BackgroundImageFix" result="effect1_dropShadow"/>
<feBlend mode="normal" in="SourceGraphic" in2="effect1_dropShadow" result="shape"/>
<feColorMatrix in="SourceAlpha" type="matrix" values="0 0 0 0 0 0 0 0 0 0 0 0 0 0 0 0 0 0 127 0" result="hardAlpha"/>
<feOffset dx="-4" dy="-4"/>
<feGaussianBlur stdDeviation="4.5"/>
<feComposite in2="hardAlpha" operator="arithmetic" k2="-1" k3="1"/>
<feColorMatrix type="matrix" values="0 0 0 0 0.441945 0 0 0 0 0.887146 0 0 0 0 0.895833 0 0 0 0.52 0"/>
<feBlend mode="normal" in2="shape" result="effect2_innerShadow"/>
</filter>
<linearGradient id="paint0_linear" x1="5.5" y1="-157" x2="289.5" y2="495.5" gradientUnits="userSpaceOnUse">
<stop stop-color="#00C2FF"/>
<stop offset="1" stop-color="#1EE7CF"/>
</linearGradient>
<linearGradient id="paint1_linear" x1="49" y1="11" x2="301.5" y2="474" gradientUnits="userSpaceOnUse">
<stop stop-color="#19D2EB"/>
<stop offset="1" stop-color="#55F5DF"/>
</linearGradient>
<linearGradient id="paint2_linear" x1="59.5" y1="-9" x2="291.5" y2="495.5" gradientUnits="userSpaceOnUse">
<stop stop-color="#00E0FF"/>
<stop offset="1" stop-color="#42F2D1"/>
</linearGradient>
<linearGradient id="paint3_linear" x1="51" y1="11" x2="303.5" y2="474" gradientUnits="userSpaceOnUse">
<stop stop-color="#B2F6FF"/>
<stop offset="1" stop-color="#28D7BE"/>
</linearGradient>
<linearGradient id="paint4_linear" x1="27" y1="473.49" x2="247.084" y2="60.8524" gradientUnits="userSpaceOnUse">
<stop stop-color="#73F5FF"/>
<stop offset="0.99" stop-color="#7AFFEC"/>
</linearGradient>
<linearGradient id="paint5_linear" x1="129.774" y1="288" x2="310" y2="288" gradientUnits="userSpaceOnUse">
<stop stop-color="white"/>
<stop offset="0.99" stop-color="white" stop-opacity="0.4"/>
</linearGradient>
<linearGradient id="paint6_linear" x1="59.8997" y1="86" x2="140" y2="86" gradientUnits="userSpaceOnUse">
<stop stop-color="white"/>
<stop offset="0.99" stop-color="white" stop-opacity="0.4"/>
</linearGradient>
</defs>
</svg>
