<svg width="338" height="474" viewBox="0 0 338 474" fill="none" xmlns="http://www.w3.org/2000/svg">
<rect x="2.5" y="2.5" width="331" height="469" rx="32.5" fill="url(#paint0_linear)" stroke="url(#paint1_linear)" stroke-width="5"/>
<mask id="mask0" mask-type="alpha" maskUnits="userSpaceOnUse" x="2" y="0" width="336" height="474">
<rect x="4.5" y="2.5" width="331" height="469" rx="41.5" fill="url(#paint2_linear)" stroke="url(#paint3_linear)" stroke-width="5"/>
</mask>
<g mask="url(#mask0)">
<path d="M198.89 5.0093C198.89 5.0093 97.8208 47.0947 93.9888 101.845C90.1568 156.595 112.775 152.615 106.069 185.086C99.3631 217.557 -10.9124 255.616 18.7856 356.766C48.4837 457.916 142.368 370.584 242 469H35C18.4315 469 5 455.569 5 439V35.0014C5 18.4323 18.4323 5.00064 35.0014 5.00144L198.89 5.0093Z" fill="url(#paint4_linear)" fill-opacity="0.5"/>
</g>
<path opacity="0.46" d="M219.887 378C202.092 377.978 184.702 372.68 169.917 362.777C155.131 352.875 143.613 338.811 136.819 322.363C130.024 305.916 128.258 287.824 131.743 270.373C135.229 252.922 143.809 236.896 156.4 224.321C168.992 211.745 185.028 203.185 202.483 199.721C219.939 196.258 238.029 198.046 254.468 204.862C270.906 211.677 284.956 223.212 294.84 238.01C304.724 252.808 310 270.204 310 288C309.958 311.876 300.447 334.761 283.553 351.633C266.66 368.506 243.763 377.988 219.887 378ZM219.887 222.747C206.985 222.764 194.378 226.607 183.659 233.788C172.94 240.969 164.59 251.166 159.665 263.091C154.74 275.016 153.461 288.134 155.989 300.786C158.517 313.438 164.739 325.056 173.868 334.173C182.998 343.29 194.625 349.496 207.28 352.006C219.936 354.517 233.051 353.219 244.97 348.278C256.888 343.336 267.074 334.972 274.24 324.243C281.406 313.515 285.231 300.902 285.231 288C285.177 270.703 278.27 254.132 266.022 241.918C253.774 229.704 237.184 222.843 219.887 222.837V222.747Z" fill="url(#paint5_linear)"/>
<path opacity="0.46" d="M99.9498 126C92.0407 125.99 84.3121 123.636 77.7407 119.234C71.1694 114.833 66.0503 108.583 63.0305 101.273C60.0106 93.9627 59.2257 85.9216 60.7747 78.1657C62.3238 70.4097 66.1374 63.2871 71.7335 57.698C77.3296 52.1089 84.457 48.3043 92.2148 46.7649C99.9727 45.2256 108.013 46.0207 115.319 49.0496C122.625 52.0786 128.869 57.2055 133.262 63.7824C137.655 70.3593 140 78.0909 140 86C139.981 96.6116 135.754 106.783 128.246 114.281C120.738 121.78 110.561 125.995 99.9498 126ZM99.9498 56.9985C94.2156 57.0064 88.6124 58.7141 83.8484 61.9056C79.0844 65.0972 75.3735 69.6294 73.1846 74.9294C70.9957 80.2294 70.4271 86.0594 71.5506 91.6825C72.6742 97.3056 75.4395 102.469 79.497 106.521C83.5545 110.573 88.7222 113.331 94.3468 114.447C99.9715 115.563 105.801 114.986 111.098 112.79C116.395 110.594 120.922 106.877 124.107 102.108C127.292 97.3398 128.991 91.7342 128.991 86C128.968 78.3124 125.898 70.9477 120.454 65.5193C115.011 60.0908 107.637 57.0412 99.9498 57.0386V56.9985Z" fill="url(#paint6_linear)"/>
<path d="M57.6961 319.232V306.2H44.1601L43.9681 311.384C43.8001 315.872 43.2481 319.184 41.1121 319.232H40.5121V326.384H44.8801V323H55.6321V326.384H59.9761V319.232H57.6961ZM48.1201 311.792L48.1921 309.968H53.0161V319.232H46.6561C47.6401 317.816 48.0001 315.08 48.1201 311.792Z" fill="black"/>
<path d="M76.5479 323H81.4919L74.0519 306.2H69.3719L61.9559 323H66.8039L68.1239 319.736H75.2279L76.5479 323ZM69.5159 316.232L71.6759 310.856L73.8359 316.232H69.5159Z" fill="black"/>
<path d="M92.2971 306.2H84.6171V323H89.3692V318.608H92.2971C96.8812 318.608 99.7612 316.232 99.7612 312.416C99.7612 308.576 96.8812 306.2 92.2971 306.2ZM92.0092 314.864H89.3692V309.944H92.0092C93.9772 309.944 94.9612 310.856 94.9612 312.416C94.9612 313.952 93.9772 314.864 92.0092 314.864Z" fill="black"/>
<path d="M111.682 311.552H107.794V306.2H103.114V323H111.058C115.426 323 118.138 320.96 118.138 317.024C118.138 313.352 115.762 311.552 111.682 311.552ZM110.746 319.592H107.794V314.936H110.746C112.354 314.936 113.362 315.536 113.362 317.12C113.362 318.704 112.33 319.592 110.746 319.592Z" fill="black"/>
<path d="M127.295 306.2C122.687 306.2 119.783 308.624 119.783 312.584C119.783 315.2 121.031 317.096 123.239 318.08L119.831 323H124.823L127.583 318.776H130.175V323H134.855V306.2H127.295ZM127.391 309.944H130.175V315.104H127.343C125.543 315.104 124.583 314.192 124.583 312.512C124.583 310.808 125.543 309.944 127.391 309.944Z" fill="black"/>
<path d="M147.847 323H152.335L159.247 313.16V323H163.927V306.2H159.463L152.527 316.064V306.2H147.847V323Z" fill="black"/>
<path d="M186.83 306.2V319.232H182.486V306.2H177.806V319.232H173.414V306.2H168.734V323H191.51V306.2H186.83Z" fill="black"/>
<path d="M196.302 323H200.79L207.702 313.16V323H212.382V306.2H207.918L200.982 316.064V306.2H196.302V323Z" fill="black"/>
<path d="M236.725 323L236.677 306.2H232.765L227.005 315.896L221.101 306.2H217.189V323H221.557V314.288L225.877 321.344H227.989L232.309 314.096L232.333 323H236.725Z" fill="black"/>
<path d="M249.754 323.336C255.13 323.336 259.09 319.64 259.09 314.6C259.09 309.56 255.13 305.864 249.754 305.864C244.378 305.864 240.418 309.56 240.418 314.6C240.418 319.64 244.378 323.336 249.754 323.336ZM249.754 319.4C247.21 319.4 245.218 317.504 245.218 314.6C245.218 311.696 247.21 309.8 249.754 309.8C252.298 309.8 254.29 311.696 254.29 314.6C254.29 317.504 252.298 319.4 249.754 319.4Z" fill="black"/>
<path d="M275.071 314.216C276.511 313.496 277.351 312.224 277.351 310.568C277.351 307.784 274.999 306.2 270.991 306.2H262.831V323H271.447C275.767 323 278.119 321.152 278.119 318.2C278.119 316.184 277.015 314.84 275.071 314.216ZM267.511 309.608H270.535C271.879 309.608 272.551 310.184 272.551 311.264C272.551 312.368 271.879 312.92 270.535 312.92H267.511V309.608ZM271.255 319.592H267.511V316.136H271.255C272.623 316.136 273.319 316.688 273.319 317.84C273.319 318.992 272.623 319.592 271.255 319.592Z" fill="black"/>
<path d="M294.803 323H299.747L292.307 306.2H287.627L280.211 323H285.059L286.379 319.736H293.483L294.803 323ZM287.771 316.232L289.931 310.856L292.091 316.232H287.771Z" fill="black"/>
<path fill-rule="evenodd" clip-rule="evenodd" d="M53.0161 319.232V309.968H48.1921L48.1201 311.792C48.0961 312.45 48.0624 313.086 48.0161 313.694C48.0022 313.876 47.9872 314.055 47.971 314.232C47.8354 315.709 47.6145 316.997 47.2603 318C47.0911 318.479 46.8914 318.893 46.6561 319.232H53.0161ZM44.8801 326.384H40.5121V319.232H41.1121C41.3065 319.228 41.4878 319.196 41.6569 319.139C41.6848 319.13 41.7124 319.12 41.7396 319.109C41.9832 319.013 42.2005 318.862 42.3945 318.661C42.7819 318.259 43.076 317.659 43.3001 316.9C43.6943 315.564 43.8716 313.738 43.958 311.64C43.9582 311.636 43.9584 311.632 43.9585 311.628C43.9618 311.547 43.965 311.466 43.9681 311.384L44.1601 306.2H57.6961V319.232H59.9761V326.384H55.6321V323H44.8801V326.384ZM50.899 328H49.6132C48.9413 329.968 47.076 331.384 44.8801 331.384H40.5121C37.7507 331.384 35.5121 329.145 35.5121 326.384V319.232C35.5121 317.111 36.8329 315.298 38.6969 314.572C38.727 314.381 38.7564 314.165 38.7843 313.924C38.8725 313.159 38.932 312.252 38.9715 311.199C38.9715 311.199 38.9715 311.198 38.9716 311.198C38.9716 311.198 38.9715 311.198 38.9716 311.198L39.1635 306.015C39.2631 303.327 41.4707 301.2 44.1601 301.2H57.6961C60.4575 301.2 62.6961 303.439 62.6961 306.2V308.942L64.7977 304.181C65.5975 302.369 67.3914 301.2 69.3719 301.2H74.0519C76.0302 301.2 77.8226 302.366 78.6236 304.175L79.6171 306.419V306.2C79.6171 303.439 81.8557 301.2 84.6171 301.2H92.2971C94.7568 301.2 97.2192 301.704 99.3437 302.916C100.26 301.864 101.61 301.2 103.114 301.2H107.794C110.555 301.2 112.794 303.439 112.794 306.2V306.587C113.887 306.656 115.003 306.834 116.086 307.172C116.7 306.021 117.531 304.978 118.582 304.089C121.023 302.025 124.16 301.2 127.295 301.2H134.855C137.616 301.2 139.855 303.439 139.855 306.2V323C139.855 325.761 137.616 328 134.855 328H130.175C129.19 328 128.272 327.715 127.498 327.224C126.709 327.723 125.785 328 124.823 328H119.831C118.696 328 117.619 327.616 116.756 326.943C114.937 327.71 112.961 328 111.058 328H103.114C100.353 328 98.114 325.761 98.114 323V322.502C96.919 323.01 95.6458 323.328 94.3458 323.486C94.1013 326.02 91.9665 328 89.3692 328H84.6171C84.0707 328 83.5447 327.912 83.0525 327.75C82.5554 327.914 82.0294 328 81.4919 328H76.5479C74.5103 328 72.6765 326.764 71.9126 324.875L71.8566 324.736H71.4952L71.4392 324.875C70.6753 326.764 68.8415 328 66.8039 328H64.7092C64.0373 329.968 62.172 331.384 59.9761 331.384H55.6321C53.4362 331.384 51.5709 329.968 50.899 328ZM81.4919 323L74.0519 306.2H69.3719L61.9559 323H66.8039L68.1239 319.736H75.2279L76.5479 323H81.4919ZM71.6759 310.856L69.5159 316.232H73.8359L71.6759 310.856ZM89.3692 323V318.608H92.2971C94.8153 318.608 96.8192 317.891 98.114 316.612C99.1762 315.563 99.7611 314.136 99.7611 312.416C99.7611 310.685 99.1762 309.252 98.114 308.2C96.8192 306.917 94.8153 306.2 92.2971 306.2H84.6171V323H89.3692ZM89.3692 314.864H92.0092C92.1076 314.864 92.2036 314.862 92.2971 314.857C93.2359 314.812 93.9266 314.54 94.3692 314.078C94.7638 313.667 94.9612 313.104 94.9612 312.416C94.9612 311.717 94.7638 311.149 94.3692 310.734C93.9266 310.268 93.2359 309.996 92.2971 309.951C92.2036 309.946 92.1076 309.944 92.0092 309.944H89.3692V314.864ZM103.114 323H111.058C112.534 323 113.822 322.767 114.879 322.306C115.658 321.967 116.313 321.504 116.826 320.919C117.079 320.631 117.297 320.314 117.479 319.968C117.898 319.171 118.125 318.221 118.137 317.12C118.138 317.088 118.138 317.056 118.138 317.024C118.138 316.905 118.136 316.788 118.131 316.673C118.049 314.785 117.302 313.426 115.99 312.584C115.633 312.355 115.234 312.164 114.795 312.011C113.913 311.705 112.87 311.552 111.682 311.552H107.794V306.2H103.114V323ZM107.794 319.592H110.746C110.853 319.592 110.957 319.588 111.058 319.58C111.795 319.522 112.392 319.255 112.794 318.801C113.159 318.389 113.362 317.823 113.362 317.12C113.362 317.088 113.362 317.056 113.361 317.024C113.343 316.365 113.144 315.884 112.794 315.551C112.514 315.285 112.138 315.113 111.682 315.02C111.399 314.963 111.086 314.936 110.746 314.936H107.794V319.592ZM130.175 323H134.855V306.2H127.295C123.919 306.2 121.458 307.501 120.383 309.753C119.999 310.557 119.792 311.482 119.783 312.512C119.783 312.536 119.783 312.56 119.783 312.584C119.783 314.296 120.317 315.699 121.305 316.741C121.397 316.838 121.494 316.933 121.595 317.024C121.831 317.239 122.09 317.436 122.369 317.614C122.588 317.754 122.821 317.883 123.065 318C123.077 318.006 123.088 318.011 123.1 318.017C123.146 318.038 123.192 318.059 123.239 318.08L119.831 323H124.823L127.583 318.776H130.175V323ZM130.175 315.104V309.944H127.391C127.358 309.944 127.326 309.944 127.295 309.945C126.338 309.961 125.628 310.216 125.175 310.707C124.782 311.133 124.583 311.735 124.583 312.512C124.583 312.536 124.583 312.56 124.583 312.584C124.593 313.202 124.737 313.714 125.008 314.11C125.059 314.185 125.114 314.256 125.175 314.323C125.189 314.339 125.204 314.354 125.219 314.37C125.669 314.838 126.353 315.088 127.256 315.103C127.285 315.104 127.313 315.104 127.343 315.104H130.175ZM38.4363 315.681C38.4361 315.681 38.439 315.674 38.4453 315.661C38.4396 315.675 38.4365 315.681 38.4363 315.681ZM147.847 328C145.085 328 142.847 325.761 142.847 323V306.2C142.847 303.439 145.085 301.2 147.847 301.2H152.527C153.873 301.2 155.096 301.732 155.995 302.598C156.918 301.71 158.157 301.2 159.463 301.2H163.927C164.798 301.2 165.617 301.423 166.331 301.815C167.044 301.423 167.863 301.2 168.734 301.2H173.414C174.202 301.2 174.947 301.382 175.61 301.707C176.273 301.382 177.018 301.2 177.806 301.2H182.486C183.265 301.2 184.001 301.378 184.658 301.695C185.315 301.378 186.052 301.2 186.83 301.2H191.51C192.378 301.2 193.195 301.421 193.906 301.81C194.617 301.421 195.434 301.2 196.302 301.2H200.982C202.328 301.2 203.55 301.732 204.449 302.598C205.372 301.71 206.612 301.2 207.918 301.2H212.382C213.253 301.2 214.072 301.423 214.785 301.815C215.499 301.423 216.318 301.2 217.189 301.2H221.101C222.846 301.2 224.464 302.109 225.372 303.6L226.952 306.195L228.466 303.646C229.367 302.13 231.001 301.2 232.765 301.2H236.677C238.494 301.2 240.086 302.17 240.961 303.621C243.403 301.861 246.464 300.864 249.754 300.864C253.045 300.864 256.106 301.861 258.547 303.62C259.422 302.17 261.014 301.2 262.831 301.2H270.991C273.546 301.2 276.265 301.688 278.495 303.212C279.989 304.232 281.087 305.604 281.721 307.198L283.052 304.181C283.852 302.369 285.646 301.2 287.627 301.2H292.307C294.285 301.2 296.077 302.366 296.878 304.175L304.318 320.975C305.003 322.522 304.86 324.31 303.937 325.727C303.015 327.145 301.438 328 299.747 328H294.803C292.765 328 290.931 326.764 290.167 324.875L290.111 324.736H289.75L289.694 324.875C288.93 326.764 287.096 328 285.059 328H280.211C279.095 328 278.029 327.628 277.168 326.968C275.371 327.716 273.392 328 271.447 328H262.831C261.014 328 259.422 327.03 258.547 325.58C256.106 327.339 253.045 328.336 249.754 328.336C246.478 328.336 243.43 327.348 240.994 325.603C240.79 325.937 240.546 326.249 240.266 326.53C239.328 327.471 238.054 328 236.725 328H232.333C230.84 328 229.5 327.346 228.584 326.309C228.388 326.332 228.189 326.344 227.989 326.344H225.877C225.684 326.344 225.493 326.333 225.304 326.311C224.388 327.347 223.049 328 221.557 328H217.189C216.318 328 215.499 327.777 214.785 327.385C214.072 327.777 213.253 328 212.382 328H207.702C206.361 328 205.143 327.472 204.246 326.613C203.324 327.495 202.089 328 200.79 328H196.302C195.434 328 194.617 327.779 193.906 327.39C193.195 327.779 192.378 328 191.51 328H168.734C167.863 328 167.044 327.777 166.331 327.385C165.617 327.777 164.798 328 163.927 328H159.247C157.906 328 156.689 327.472 155.791 326.613C154.869 327.495 153.635 328 152.335 328H147.847ZM159.247 323H163.927V306.2H159.463L152.527 316.064V306.2H147.847V323H152.335L159.247 313.16V323ZM191.51 323V306.2H186.83V319.232H182.486V306.2H177.806V319.232H173.414V306.2H168.734V323H191.51ZM207.702 323H212.382V306.2H207.918L200.982 316.064V306.2H196.302V323H200.79L207.702 313.16V323ZM221.557 323V314.288L225.877 321.344H227.989L232.309 314.096L232.333 323H236.725V322.988L236.677 306.2H232.765L227.005 315.896L221.101 306.2H217.189V323H221.557ZM241.714 319.218C243.303 321.741 246.223 323.336 249.754 323.336C253.313 323.336 256.251 321.716 257.831 319.159C258.638 317.854 259.09 316.304 259.09 314.6C259.09 312.896 258.638 311.346 257.831 310.041C256.251 307.484 253.313 305.864 249.754 305.864C246.203 305.864 243.27 307.477 241.688 310.024C240.875 311.333 240.418 312.889 240.418 314.6C240.418 316.329 240.885 317.9 241.714 319.218ZM262.831 323H271.447C272.964 323 274.238 322.772 275.253 322.349C275.823 322.111 276.311 321.812 276.714 321.457C277.631 320.649 278.111 319.552 278.119 318.233C278.119 318.222 278.119 318.211 278.119 318.2C278.119 318.078 278.115 317.958 278.107 317.84C278.067 317.264 277.931 316.748 277.706 316.293C277.435 315.746 277.034 315.288 276.516 314.919C276.106 314.628 275.622 314.393 275.071 314.216C275.63 313.936 276.099 313.574 276.463 313.137C276.901 312.613 277.188 311.983 277.299 311.264C277.334 311.04 277.351 310.808 277.351 310.568C277.351 310.262 277.323 309.97 277.267 309.693C276.813 307.454 274.558 306.2 270.991 306.2H262.831V323ZM267.511 319.592H271.255C271.321 319.592 271.385 319.591 271.447 319.588C271.874 319.569 272.229 319.486 272.511 319.341C272.761 319.211 272.954 319.033 273.088 318.806C273.143 318.714 273.187 318.615 273.223 318.507C273.254 318.411 273.278 318.309 273.294 318.2C273.311 318.087 273.319 317.967 273.319 317.84C273.319 317.827 273.319 317.813 273.319 317.8C273.319 317.779 273.318 317.759 273.317 317.739C273.314 317.643 273.305 317.551 273.291 317.464C273.209 316.948 272.948 316.587 272.511 316.372C272.188 316.214 271.769 316.136 271.255 316.136H267.511V319.592ZM270.535 312.92C270.802 312.92 271.042 312.898 271.255 312.855C271.967 312.71 272.386 312.325 272.511 311.698C272.532 311.593 272.545 311.482 272.549 311.364C272.551 311.331 272.551 311.298 272.551 311.264C272.551 311.252 272.551 311.239 272.551 311.227C272.55 311.193 272.549 311.161 272.548 311.128C272.542 311.027 272.53 310.93 272.511 310.838C272.492 310.743 272.466 310.653 272.433 310.568C272.414 310.521 272.394 310.476 272.371 310.432C272.316 310.327 272.248 310.231 272.168 310.145C271.908 309.867 271.516 309.694 270.991 309.633C270.849 309.616 270.697 309.608 270.535 309.608H267.511V312.92H270.535ZM292.307 306.2H287.627L280.211 323H285.059L286.379 319.736H293.483L294.803 323H299.747L292.307 306.2ZM289.931 310.856L287.771 316.232H292.091L289.931 310.856ZM249.868 314.432C249.805 314.406 249.763 314.401 249.754 314.4C249.745 314.401 249.704 314.406 249.641 314.432C249.559 314.465 249.471 314.522 249.396 314.599C249.396 314.599 249.395 314.6 249.395 314.6C249.395 314.6 249.396 314.601 249.396 314.601C249.471 314.679 249.559 314.735 249.641 314.768C249.704 314.794 249.745 314.799 249.754 314.8C249.755 314.8 249.754 314.8 249.754 314.8M250.114 314.6C250.113 314.6 250.113 314.601 250.113 314.601C250.037 314.679 249.95 314.735 249.868 314.768C249.806 314.794 249.764 314.799 249.754 314.8M249.868 314.432C249.95 314.465 250.037 314.522 250.113 314.599ZM250.113 314.599C250.113 314.599 250.113 314.6 250.114 314.6ZM245.218 314.6C245.218 317.504 247.21 319.4 249.754 319.4C252.298 319.4 254.29 317.504 254.29 314.6C254.29 311.696 252.298 309.8 249.754 309.8C247.21 309.8 245.218 311.696 245.218 314.6Z" fill="white"/>
<rect x="16" y="397" width="125" height="43" rx="13" fill="white"/>
<rect x="195" y="397" width="125" height="43" rx="13" fill="white"/>
<path d="M252 5C252 26.7477 243.361 47.6048 227.983 62.9828C212.605 78.3607 191.748 87 170 87C148.252 87 127.395 78.3607 112.017 62.9828C96.6393 47.6048 88 26.7478 88 5.00002L170 5H252Z" fill="white"/>
<path d="M48.032 423.216C48.032 414.96 35.328 417.52 35.328 414.096C35.328 412.976 36.288 412.08 38.944 412.08C40.896 412.08 43.008 412.656 45.152 413.808L47.104 409.104C45.312 408.048 42.976 407.408 40.608 407.216V403.76H36.768V407.28C31.584 407.92 29.056 410.896 29.056 414.416C29.056 422.736 41.792 420.144 41.792 423.696C41.792 424.784 40.768 425.52 38.144 425.52C35.552 425.52 32.736 424.624 30.752 423.312L28.672 427.984C30.528 429.264 33.568 430.192 36.768 430.416V433.84H40.608V430.288C45.6 429.552 48.032 426.608 48.032 423.216Z" fill="#00BCBC"/>
<path d="M62.32 417.7L65.48 414.1V412H55.68V414.6H61.64L58.76 417.86V420H60.24C62.08 420 62.86 420.66 62.86 421.72C62.86 422.86 61.86 423.52 60.24 423.52C58.78 423.52 57.3 423.06 56.24 422.26L54.98 424.74C56.34 425.7 58.36 426.24 60.32 426.24C64.3 426.24 66.12 424.08 66.12 421.72C66.12 419.66 64.84 418.1 62.32 417.7ZM72.2206 417.26H71.0806L71.3006 414.6H77.1406V412H68.6006L67.8806 419.88H71.4606C74.0006 419.88 74.7206 420.6 74.7206 421.7C74.7206 422.84 73.7206 423.52 72.1006 423.52C70.6406 423.52 69.1806 423.06 68.1206 422.26L66.8406 424.74C68.2006 425.7 70.2406 426.24 72.1806 426.24C76.1806 426.24 78.0006 424.08 78.0006 421.6C78.0006 419.12 76.3606 417.26 72.2206 417.26ZM90.9792 426.24C94.4392 426.24 96.9792 423.62 96.9792 419C96.9792 414.38 94.4392 411.76 90.9792 411.76C87.5392 411.76 84.9792 414.38 84.9792 419C84.9792 423.62 87.5392 426.24 90.9792 426.24ZM90.9792 423.5C89.3792 423.5 88.2592 422.18 88.2592 419C88.2592 415.82 89.3792 414.5 90.9792 414.5C92.5992 414.5 93.7192 415.82 93.7192 419C93.7192 422.18 92.5992 423.5 90.9792 423.5ZM104.553 426.24C108.013 426.24 110.553 423.62 110.553 419C110.553 414.38 108.013 411.76 104.553 411.76C101.113 411.76 98.5534 414.38 98.5534 419C98.5534 423.62 101.113 426.24 104.553 426.24ZM104.553 423.5C102.953 423.5 101.833 422.18 101.833 419C101.833 415.82 102.953 414.5 104.553 414.5C106.173 414.5 107.293 415.82 107.293 419C107.293 422.18 106.173 423.5 104.553 423.5ZM118.128 426.24C121.588 426.24 124.128 423.62 124.128 419C124.128 414.38 121.588 411.76 118.128 411.76C114.688 411.76 112.128 414.38 112.128 419C112.128 423.62 114.688 426.24 118.128 426.24ZM118.128 423.5C116.528 423.5 115.408 422.18 115.408 419C115.408 415.82 116.528 414.5 118.128 414.5C119.748 414.5 120.868 415.82 120.868 419C120.868 422.18 119.748 423.5 118.128 423.5Z" fill="black"/>
<path d="M240.32 417.7L243.48 414.1V412H233.68V414.6H239.64L236.76 417.86V420H238.24C240.08 420 240.86 420.66 240.86 421.72C240.86 422.86 239.86 423.52 238.24 423.52C236.78 423.52 235.3 423.06 234.24 422.26L232.98 424.74C234.34 425.7 236.36 426.24 238.32 426.24C242.3 426.24 244.12 424.08 244.12 421.72C244.12 419.66 242.84 418.1 240.32 417.7ZM251.616 426.24C255.076 426.24 257.616 423.62 257.616 419C257.616 414.38 255.076 411.76 251.616 411.76C248.176 411.76 245.616 414.38 245.616 419C245.616 423.62 248.176 426.24 251.616 426.24ZM251.616 423.5C250.016 423.5 248.896 422.18 248.896 419C248.896 415.82 250.016 414.5 251.616 414.5C253.236 414.5 254.356 415.82 254.356 419C254.356 422.18 253.236 423.5 251.616 423.5ZM278.894 426L278.854 415.24H275.934L272.274 421.46L268.834 415.24H265.574V426H268.394V419.54L271.534 424.96H272.854L276.074 419.56V426H278.894ZM281.883 426H284.763L289.983 419.6V426H293.083V415.24H290.223L284.983 421.64V415.24H281.883V426ZM296.082 426H299.182V421.98H303.862V426H306.982V415.24H303.862V419.44H299.182V415.24H296.082V426Z" fill="black"/>
<path d="M216.5 406C209.595 406 204 411.595 204 418.5C204 425.405 209.595 431 216.5 431C223.405 431 229 425.405 229 418.5C229 411.595 223.405 406 216.5 406Z" fill="#00BCBC"/>
<path fill-rule="evenodd" clip-rule="evenodd" d="M215.961 410C214.878 410 214 410.878 214 411.961V419.153C214 419.311 214.019 419.464 214.054 419.611C214.047 420.263 214.376 420.901 214.974 421.262L220.414 424.535C221.313 425.077 222.481 424.786 223.022 423.887C223.563 422.988 223.273 421.82 222.374 421.279L217.923 418.6V411.961C217.923 410.878 217.045 410 215.961 410Z" fill="white"/>
<g filter="url(#filter0_d)">
<path d="M162.531 400.393L185.975 433.213C179.766 434.57 168.698 428.331 168.698 428.331C168.698 428.331 160.834 438.706 154.912 440L162.531 400.393Z" fill="white"/>
<path fill-rule="evenodd" clip-rule="evenodd" d="M154.912 440L158.469 421.51C161.522 424.284 164.956 426.604 168.698 428.331C168.698 428.331 160.834 438.706 154.912 440Z" fill="#BBFFF9"/>
</g>
<path d="M170.903 40.132C167.075 40.132 164.001 41.176 161.739 43.148C162.319 36.942 166.205 33.694 172.005 33.694C174.615 33.694 177.167 34.158 179.487 35.782L183.663 27.546C180.705 25.632 176.297 24.588 171.715 24.588C158.897 24.588 150.139 32.65 150.139 46.802C150.139 59.968 157.563 66.812 168.931 66.812C177.805 66.812 184.881 61.418 184.881 52.95C184.881 45.178 178.559 40.132 170.903 40.132ZM168.235 58.634C164.755 58.634 162.551 56.546 162.551 53.53C162.551 50.456 164.871 48.368 168.177 48.368C171.483 48.368 173.745 50.34 173.745 53.472C173.745 56.662 171.483 58.634 168.235 58.634Z" fill="#46BBCE"/>
<g filter="url(#filter1_di)">
<path d="M168 126C131.609 126 102 155.609 102 192C102 228.391 131.609 258 168 258C204.391 258 234 228.391 234 192C234 155.609 204.391 126 168 126ZM212.674 228.548C210.562 227.393 208.309 226.419 205.859 225.907L187.767 222.278C185.869 221.906 184.5 220.207 184.5 218.235V213.532C202.526 211.808 205.125 208.129 205.125 204.375C205.125 193.279 197.749 167.514 196.537 163.323C196.38 156.847 195.2 153.209 192.238 150.016C190.143 147.747 187.057 147.219 184.574 146.798C183.601 146.625 182.256 146.402 181.761 146.13C177.364 143.754 173.016 142.599 167.827 142.5C156.962 142.946 143.605 149.859 139.034 162.498C138.704 163.678 130.875 191.579 130.875 204.375C130.875 209.713 136.906 212.526 151.5 213.813V218.235C151.5 220.207 150.122 221.906 148.217 222.278L130.108 225.907C127.674 226.419 125.438 227.384 123.326 228.539C115.159 218.581 110.25 205.852 110.25 192C110.25 160.155 136.155 134.25 168 134.25C199.837 134.25 225.75 160.155 225.75 192C225.75 205.852 220.833 218.582 212.674 228.548Z" fill="white"/>
</g>
<defs>
<filter id="filter0_d" x="143" y="393" width="52.975" height="57.0001" filterUnits="userSpaceOnUse" color-interpolation-filters="sRGB">
<feFlood flood-opacity="0" result="BackgroundImageFix"/>
<feColorMatrix in="SourceAlpha" type="matrix" values="0 0 0 0 0 0 0 0 0 0 0 0 0 0 0 0 0 0 127 0"/>
<feOffset dx="3" dy="3"/>
<feGaussianBlur stdDeviation="3.5"/>
<feColorMatrix type="matrix" values="0 0 0 0 0.279 0 0 0 0 0.9 0 0 0 0 0.840225 0 0 0 1 0"/>
<feBlend mode="normal" in2="BackgroundImageFix" result="effect1_dropShadow"/>
<feBlend mode="normal" in="SourceGraphic" in2="effect1_dropShadow" result="shape"/>
</filter>
<filter id="filter1_di" x="96" y="120" width="152" height="152" filterUnits="userSpaceOnUse" color-interpolation-filters="sRGB">
<feFlood flood-opacity="0" result="BackgroundImageFix"/>
<feColorMatrix in="SourceAlpha" type="matrix" values="0 0 0 0 0 0 0 0 0 0 0 0 0 0 0 0 0 0 127 0"/>
<feOffset dx="4" dy="4"/>
<feGaussianBlur stdDeviation="5"/>
<feColorMatrix type="matrix" values="0 0 0 0 0.1715 0 0 0 0 0.816667 0 0 0 0 0.816667 0 0 0 1 0"/>
<feBlend mode="normal" in2="BackgroundImageFix" result="effect1_dropShadow"/>
<feBlend mode="normal" in="SourceGraphic" in2="effect1_dropShadow" result="shape"/>
<feColorMatrix in="SourceAlpha" type="matrix" values="0 0 0 0 0 0 0 0 0 0 0 0 0 0 0 0 0 0 127 0" result="hardAlpha"/>
<feOffset dx="-4" dy="-4"/>
<feGaussianBlur stdDeviation="4.5"/>
<feComposite in2="hardAlpha" operator="arithmetic" k2="-1" k3="1"/>
<feColorMatrix type="matrix" values="0 0 0 0 0.441945 0 0 0 0 0.887146 0 0 0 0 0.895833 0 0 0 0.52 0"/>
<feBlend mode="normal" in2="shape" result="effect2_innerShadow"/>
</filter>
<linearGradient id="paint0_linear" x1="5.5" y1="-157" x2="289.5" y2="495.5" gradientUnits="userSpaceOnUse">
<stop stop-color="#00C2FF"/>
<stop offset="1" stop-color="#1EE7CF"/>
</linearGradient>
<linearGradient id="paint1_linear" x1="49" y1="11" x2="301.5" y2="474" gradientUnits="userSpaceOnUse">
<stop stop-color="#19D2EB"/>
<stop offset="1" stop-color="#55F5DF"/>
</linearGradient>
<linearGradient id="paint2_linear" x1="59.5" y1="-9" x2="291.5" y2="495.5" gradientUnits="userSpaceOnUse">
<stop stop-color="#00E0FF"/>
<stop offset="1" stop-color="#42F2D1"/>
</linearGradient>
<linearGradient id="paint3_linear" x1="51" y1="11" x2="303.5" y2="474" gradientUnits="userSpaceOnUse">
<stop stop-color="#B2F6FF"/>
<stop offset="1" stop-color="#28D7BE"/>
</linearGradient>
<linearGradient id="paint4_linear" x1="27" y1="473.49" x2="247.084" y2="60.8524" gradientUnits="userSpaceOnUse">
<stop stop-color="#73F5FF"/>
<stop offset="0.99" stop-color="#7AFFEC"/>
</linearGradient>
<linearGradient id="paint5_linear" x1="129.774" y1="288" x2="310" y2="288" gradientUnits="userSpaceOnUse">
<stop stop-color="white"/>
<stop offset="0.99" stop-color="white" stop-opacity="0.4"/>
</linearGradient>
<linearGradient id="paint6_linear" x1="59.8997" y1="86" x2="140" y2="86" gradientUnits="userSpaceOnUse">
<stop stop-color="white"/>
<stop offset="0.99" stop-color="white" stop-opacity="0.4"/>
</linearGradient>
</defs>
</svg>
