<svg width="338" height="474" viewBox="0 0 338 474" fill="none" xmlns="http://www.w3.org/2000/svg">
<rect x="2.5" y="2.5" width="331" height="469" rx="32.5" fill="url(#paint0_linear)" stroke="url(#paint1_linear)" stroke-width="5"/>
<mask id="mask0" mask-type="alpha" maskUnits="userSpaceOnUse" x="2" y="0" width="336" height="474">
<rect x="-2.5" y="2.5" width="331" height="469" rx="41.5" transform="matrix(-1 0 0 1 333 0)" fill="url(#paint2_linear)" stroke="url(#paint3_linear)" stroke-width="5"/>
</mask>
<g mask="url(#mask0)">
<path d="M129.747 5.0093C129.747 5.0093 234.654 47.0947 238.632 101.845C242.609 156.595 219.132 152.615 226.093 185.086C233.053 217.557 347.517 255.616 316.691 356.766C285.865 457.916 188.416 370.584 85 469H301C317.569 469 331 455.569 331 439V35.0014C331 18.4323 317.568 5.00062 300.999 5.00139L129.747 5.0093Z" fill="url(#paint4_linear)" fill-opacity="0.5"/>
</g>
<path opacity="0.46" d="M114.88 323C95.8977 322.976 77.349 317.326 61.5777 306.763C45.8065 296.199 33.5206 281.198 26.2731 263.654C19.0255 246.11 17.1416 226.812 20.8594 208.198C24.5771 189.583 33.7297 172.489 47.1603 159.075C60.591 145.661 77.6967 136.53 96.3156 132.836C114.934 129.141 134.231 131.05 151.765 138.319C169.3 145.589 184.286 157.893 194.829 173.678C205.373 189.462 211 208.018 211 227C210.955 252.468 200.81 276.878 182.79 294.875C164.771 312.873 140.348 322.987 114.88 323ZM114.88 157.396C101.117 157.415 87.6698 161.514 76.2362 169.173C64.8026 176.833 55.8963 187.71 50.643 200.431C45.3896 213.151 44.025 227.143 46.7215 240.638C49.4181 254.133 56.0547 266.527 65.7928 276.251C75.5309 285.976 87.9332 292.595 101.432 295.273C114.931 297.951 128.921 296.567 141.634 291.296C154.347 286.025 165.212 277.104 172.856 265.66C180.5 254.215 184.58 240.762 184.58 227C184.522 208.55 177.154 190.874 164.09 177.846C151.026 164.818 133.33 157.499 114.88 157.493V157.396Z" fill="url(#paint5_linear)" fill-opacity="0.7"/>
<path opacity="0.46" d="M216.95 105C209.041 104.99 201.312 102.636 194.741 98.2344C188.169 93.8331 183.05 87.5825 180.03 80.2726C177.011 72.9627 176.226 64.9216 177.775 57.1657C179.324 49.4097 183.137 42.2871 188.733 36.698C194.33 31.1089 201.457 27.3043 209.215 25.7649C216.973 24.2256 225.013 25.0207 232.319 28.0496C239.625 31.0786 245.869 36.2055 250.262 42.7824C254.655 49.3593 257 57.0909 257 65C256.981 75.6116 252.754 85.7826 245.246 93.2815C237.738 100.78 227.561 104.995 216.95 105ZM216.95 35.9985C211.216 36.0064 205.612 37.7141 200.848 40.9056C196.084 44.0972 192.373 48.6294 190.185 53.9294C187.996 59.2294 187.427 65.0594 188.551 70.6825C189.674 76.3056 192.439 81.4694 196.497 85.5213C200.555 89.5732 205.722 92.3314 211.347 93.4472C216.971 94.5629 222.801 93.9863 228.098 91.79C233.395 89.5938 237.922 85.8766 241.107 81.1082C244.292 76.3398 245.991 70.7342 245.991 65C245.968 57.3124 242.898 49.9477 237.454 44.5193C232.011 39.0908 224.637 36.0412 216.95 36.0386V35.9985Z" fill="url(#paint6_linear)"/>
<path d="M123.812 264.2H108.836V267.968H113.996V281H118.676V267.968H123.812V264.2Z" fill="black"/>
<path d="M137.804 264.2L133.748 272.312L129.836 264.2H124.82L131.348 276.296C130.724 277.208 130.052 277.592 129.116 277.592C128.612 277.592 128.084 277.496 127.436 277.304L126.308 280.808C127.34 281.216 128.324 281.432 129.284 281.432C131.804 281.432 133.988 279.992 135.476 277.184L142.436 264.2H137.804Z" fill="black"/>
<path d="M158.649 264.2H143.673V267.968H148.833V281H153.513V267.968H158.649V264.2Z" fill="black"/>
<path d="M181.456 264.2V270.512H174.976V264.2H170.224V281H174.976V274.448H181.456V281H186.208V264.2H181.456Z" fill="black"/>
<path d="M195.722 277.328V274.256H203.186V270.704H195.722V267.872H204.194V264.2H191.018V281H204.506V277.328H195.722Z" fill="black"/>
<path d="M221.949 264.2H206.973V267.968H212.133V281H216.813V267.968H221.949V264.2Z" fill="black"/>
<path d="M45.8345 296.2V313H50.5145V299.968H56.8985V313H61.6025V296.2H45.8345Z" fill="black"/>
<path d="M71.0979 309.328V306.256H78.5618V302.704H71.0979V299.872H79.5699V296.2H66.3938V313H79.8819V309.328H71.0979Z" fill="black"/>
<path d="M91.4692 296.2H83.7892V313H88.5412V308.608H91.4692C96.0532 308.608 98.9332 306.232 98.9332 302.416C98.9332 298.576 96.0532 296.2 91.4692 296.2ZM91.1812 304.864H88.5412V299.944H91.1812C93.1492 299.944 94.1332 300.856 94.1332 302.416C94.1332 303.952 93.1492 304.864 91.1812 304.864Z" fill="black"/>
<path d="M110.704 313.336C113.8 313.336 116.296 312.208 117.928 310.168L114.904 307.432C113.848 308.704 112.552 309.4 110.944 309.4C108.184 309.4 106.264 307.48 106.264 304.6C106.264 301.72 108.184 299.8 110.944 299.8C112.552 299.8 113.848 300.496 114.904 301.768L117.928 299.032C116.296 296.992 113.8 295.864 110.704 295.864C105.376 295.864 101.464 299.488 101.464 304.6C101.464 309.712 105.376 313.336 110.704 313.336Z" fill="black"/>
<path d="M129.18 313.336C134.556 313.336 138.516 309.64 138.516 304.6C138.516 299.56 134.556 295.864 129.18 295.864C123.804 295.864 119.844 299.56 119.844 304.6C119.844 309.64 123.804 313.336 129.18 313.336ZM129.18 309.4C126.636 309.4 124.644 307.504 124.644 304.6C124.644 301.696 126.636 299.8 129.18 299.8C131.724 299.8 133.716 301.696 133.716 304.6C133.716 307.504 131.724 309.4 129.18 309.4Z" fill="black"/>
<path d="M153.488 296.2V302.512H147.008V296.2H142.256V313H147.008V306.448H153.488V313H158.24V296.2H153.488Z" fill="black"/>
<path d="M175.962 313H180.906L173.466 296.2H168.786L161.37 313H166.218L167.538 309.736H174.642L175.962 313ZM168.93 306.232L171.09 300.856L173.25 306.232H168.93Z" fill="black"/>
<path d="M186.355 296.2L186.115 302.896C185.971 306.688 185.611 309.184 183.667 309.184C183.451 309.184 183.235 309.16 183.019 309.112L182.755 313C183.547 313.192 184.267 313.288 184.915 313.288C189.187 313.288 190.075 309.256 190.291 302.704L190.387 299.968H195.211V313H199.891V296.2H186.355Z" fill="black"/>
<path d="M213.252 301.552H209.364V296.2H204.684V313H212.628C216.996 313 219.708 310.96 219.708 307.024C219.708 303.352 217.332 301.552 213.252 301.552ZM212.316 309.592H209.364V304.936H212.316C213.924 304.936 214.932 305.536 214.932 307.12C214.932 308.704 213.9 309.592 212.316 309.592Z" fill="black"/>
<path d="M234.531 296.2V302.512H228.051V296.2H223.299V313H228.051V306.448H234.531V313H239.283V296.2H234.531Z" fill="black"/>
<path d="M252.66 301.552H248.772V296.2H244.092V313H252.036C256.404 313 259.116 310.96 259.116 307.024C259.116 303.352 256.74 301.552 252.66 301.552ZM260.964 313H265.644V296.2H260.964V313ZM251.724 309.592H248.772V304.936H251.724C253.332 304.936 254.34 305.536 254.34 307.12C254.34 308.704 253.308 309.592 251.724 309.592Z" fill="black"/>
<path d="M269.192 296.176L274.784 304.432L268.808 313H274.28L277.64 308.032L281.024 313H286.616L280.616 304.216L286.136 296.176H280.616L277.64 300.736L274.64 296.176H269.192Z" fill="black"/>
<path d="M122.685 341.232V328.2H109.149L108.957 333.384C108.789 337.872 108.237 341.184 106.101 341.232H105.501V348.384H109.869V345H120.621V348.384H124.965V341.232H122.685ZM113.109 333.792L113.181 331.968H118.005V341.232H111.645C112.629 339.816 112.989 337.08 113.109 333.792Z" fill="black"/>
<path d="M141.537 345H146.481L139.041 328.2H134.361L126.945 345H131.793L133.113 341.736H140.217L141.537 345ZM134.505 338.232L136.665 332.856L138.825 338.232H134.505Z" fill="black"/>
<path d="M160.838 328.2V334.512H154.358V328.2H149.606V345H154.358V338.448H160.838V345H165.59V328.2H160.838Z" fill="black"/>
<path d="M181.632 328.2V334.512H175.152V328.2H170.4V345H175.152V338.448H181.632V345H186.384V328.2H181.632Z" fill="black"/>
<path d="M199.762 333.552H195.874V328.2H191.194V345H199.138C203.506 345 206.218 342.96 206.218 339.024C206.218 335.352 203.842 333.552 199.762 333.552ZM208.066 345H212.746V328.2H208.066V345ZM198.826 341.592H195.874V336.936H198.826C200.434 336.936 201.442 337.536 201.442 339.12C201.442 340.704 200.41 341.592 198.826 341.592Z" fill="black"/>
<path d="M216.294 328.176L221.886 336.432L215.91 345H221.382L224.742 340.032L228.126 345H233.718L227.718 336.216L233.238 328.176H227.718L224.742 332.736L221.742 328.176H216.294Z" fill="black"/>
<path fill-rule="evenodd" clip-rule="evenodd" d="M124.82 264.2L131.348 276.296C131.279 276.396 131.21 276.49 131.14 276.578C130.612 277.239 130.034 277.548 129.284 277.588C129.229 277.591 129.173 277.592 129.116 277.592C129.062 277.592 129.007 277.591 128.953 277.589C128.559 277.573 128.145 277.5 127.667 277.37C127.592 277.349 127.515 277.327 127.436 277.304L126.308 280.808C126.335 280.819 126.362 280.829 126.388 280.839C126.793 280.996 127.19 281.122 127.581 281.218C128.102 281.345 128.612 281.417 129.116 281.43C129.172 281.431 129.228 281.432 129.284 281.432C130.054 281.432 130.792 281.298 131.489 281.031C132.671 280.578 133.734 279.745 134.627 278.54C134.93 278.13 135.214 277.678 135.476 277.184L142.436 264.2H137.804L133.748 272.312L129.836 264.2H124.82ZM124.317 259.225C124.151 259.209 123.983 259.2 123.812 259.2H108.836C106.074 259.2 103.836 261.439 103.836 264.2V267.968C103.836 270.729 106.074 272.968 108.836 272.968H108.996V281C108.996 283.761 111.234 286 113.996 286H118.676C120.251 286 121.656 285.271 122.573 284.133C123.077 284.701 123.718 285.161 124.47 285.458C125.949 286.042 127.561 286.432 129.284 286.432C134.057 286.432 137.74 283.581 139.887 279.537C139.89 279.533 139.892 279.529 139.894 279.525L143.412 272.961C143.499 272.966 143.586 272.968 143.673 272.968H143.833V281C143.833 283.761 146.072 286 148.833 286H153.513C156.275 286 158.513 283.761 158.513 281V272.968H158.649C161.411 272.968 163.649 270.729 163.649 267.968V264.2C163.649 261.439 161.411 259.2 158.649 259.2H143.673C143.463 259.2 143.256 259.213 143.053 259.238C142.85 259.213 142.644 259.2 142.436 259.2H137.804C136.222 259.2 134.754 259.946 133.82 261.178C132.886 259.947 131.419 259.2 129.836 259.2H124.82C124.651 259.2 124.483 259.208 124.317 259.225ZM108.836 264.2V267.968H113.996V281H118.676V267.968H123.812V264.2H108.836ZM123.676 272.968H123.812C123.831 272.968 123.851 272.968 123.87 272.968L124.168 273.519C123.993 273.669 123.829 273.832 123.676 274.006V272.968ZM143.673 264.2V267.968H148.833V281H153.513V267.968H158.649V264.2H143.673ZM178.216 260.392C179.089 259.648 180.22 259.2 181.456 259.2H186.208C187.08 259.2 187.9 259.423 188.613 259.815C189.327 259.423 190.146 259.2 191.018 259.2H204.194C204.676 259.2 205.143 259.268 205.584 259.396C206.025 259.268 206.491 259.2 206.973 259.2H221.949C224.711 259.2 226.949 261.439 226.949 264.2V267.968C226.949 270.729 224.711 272.968 221.949 272.968H221.813V281C221.813 283.761 219.575 286 216.813 286H212.133C210.605 286 209.237 285.314 208.32 284.234C207.403 285.314 206.034 286 204.506 286H191.018C190.146 286 189.327 285.777 188.613 285.385C187.9 285.777 187.08 286 186.208 286H181.456C180.22 286 179.089 285.551 178.216 284.808C177.344 285.551 176.212 286 174.976 286H170.224C167.463 286 165.224 283.761 165.224 281V264.2C165.224 261.439 167.463 259.2 170.224 259.2H174.976C176.212 259.2 177.344 259.648 178.216 260.392ZM174.976 264.2H170.224V281H174.976V274.448H181.456V281H186.208V264.2H181.456V270.512H174.976V264.2ZM212.133 281H216.813V267.968H221.949V264.2H206.973V267.968H212.133V281ZM203.186 270.704H195.722V267.872H204.194V264.2H191.018V281H204.506V277.328H195.722V274.256H203.186V270.704ZM40.8345 296.2C40.8345 293.439 43.073 291.2 45.8345 291.2H61.6025C62.4705 291.2 63.2868 291.421 63.9982 291.81C64.7095 291.421 65.5259 291.2 66.3938 291.2H79.5699C80.3237 291.2 81.0385 291.367 81.6795 291.665C82.3205 291.367 83.0353 291.2 83.7892 291.2H91.4692C94.5754 291.2 97.686 292.004 100.115 294.022C100.336 294.205 100.547 294.395 100.748 294.592C103.327 292.227 106.851 290.864 110.704 290.864C114.144 290.864 117.374 291.88 119.922 293.971C122.434 291.994 125.677 290.864 129.18 290.864C132.47 290.864 135.531 291.861 137.972 293.62C138.848 292.17 140.439 291.2 142.256 291.2H147.008C148.244 291.2 149.376 291.648 150.248 292.392C151.121 291.648 152.252 291.2 153.488 291.2H158.24C161.002 291.2 163.24 293.439 163.24 296.2V296.382L164.212 294.181C165.012 292.369 166.806 291.2 168.786 291.2H173.466C175.444 291.2 177.237 292.366 178.038 294.175L181.171 301.249L181.358 296.021C181.454 293.331 183.663 291.2 186.355 291.2H199.891C200.759 291.2 201.576 291.421 202.288 291.811C202.999 291.421 203.816 291.2 204.684 291.2H209.364C212.126 291.2 214.364 293.439 214.364 296.2V296.586C215.675 296.669 217.018 296.91 218.299 297.393V296.2C218.299 293.439 220.537 291.2 223.299 291.2H228.051C229.287 291.2 230.418 291.648 231.291 292.392C232.163 291.648 233.294 291.2 234.531 291.2H239.283C240.154 291.2 240.974 291.423 241.687 291.815C242.401 291.423 243.221 291.2 244.092 291.2H248.772C251.534 291.2 253.772 293.439 253.772 296.2V296.586C254.499 296.632 255.235 296.727 255.964 296.884V296.2C255.964 293.439 258.203 291.2 260.964 291.2H265.644C266.258 291.2 266.845 291.31 267.388 291.513C267.955 291.293 268.565 291.176 269.192 291.176H274.64C275.732 291.176 276.777 291.532 277.628 292.167C278.48 291.533 279.524 291.176 280.616 291.176H286.136C287.992 291.176 289.696 292.204 290.561 293.847C291.425 295.489 291.309 297.476 290.258 299.006L286.676 304.223L290.745 310.18C291.791 311.711 291.903 313.695 291.038 315.334C290.172 316.974 288.47 318 286.616 318H281.024C279.763 318 278.563 317.524 277.652 316.692C276.741 317.524 275.542 318 274.28 318H268.808C268.262 318 267.73 317.911 267.228 317.744C266.73 317.91 266.198 318 265.644 318H260.964C259.78 318 258.691 317.588 257.835 316.9C255.988 317.699 253.974 318 252.036 318H244.092C243.221 318 242.401 317.777 241.687 317.385C240.974 317.777 240.154 318 239.283 318H234.531C233.294 318 232.163 317.551 231.291 316.808C230.418 317.551 229.287 318 228.051 318H223.299C221.815 318 220.482 317.354 219.567 316.328C217.43 317.56 214.974 318 212.628 318H204.684C203.816 318 202.999 317.779 202.288 317.389C201.576 317.779 200.759 318 199.891 318H195.211C193.576 318 192.125 317.216 191.213 316.003C190.958 316.231 190.684 316.449 190.391 316.654C188.708 317.83 186.8 318.288 184.915 318.288C183.868 318.288 182.827 318.146 181.819 317.916C181.521 317.971 181.215 318 180.906 318H175.962C173.924 318 172.091 316.763 171.327 314.875L171.271 314.736H170.909L170.853 314.875C170.089 316.763 168.256 318 166.218 318H161.37C160.832 318 160.305 317.913 159.807 317.75C159.314 317.912 158.788 318 158.24 318H153.488C152.252 318 151.121 317.551 150.248 316.808C149.376 317.551 148.244 318 147.008 318H142.256C140.439 318 138.848 317.03 137.972 315.58C135.531 317.339 132.47 318.336 129.18 318.336C125.677 318.336 122.434 317.206 119.922 315.229C117.374 317.32 114.144 318.336 110.704 318.336C105.559 318.336 101 315.905 98.4964 311.904C96.9691 312.771 95.2677 313.273 93.5178 313.486C93.2733 316.019 91.1385 318 88.5412 318H83.7892C83.0959 318 82.4357 317.859 81.8355 317.604C81.2353 317.859 80.5751 318 79.8819 318H66.3938C65.5259 318 64.7095 317.779 63.9982 317.39C63.2868 317.779 62.4705 318 61.6025 318H56.8985C55.685 318 54.5724 317.568 53.7065 316.849C52.8405 317.568 51.728 318 50.5145 318H45.8345C43.073 318 40.8345 315.761 40.8345 313L40.8345 296.2ZM56.8985 313H61.6025V296.2H45.8345V313H50.5145V299.968H56.8985V313ZM79.8819 313V309.328H71.0979V306.256H78.5618V302.704H71.0979V299.872H79.5699V296.2H66.3938V313H79.8819ZM83.7892 313H88.5412V308.608H91.4692C93.6231 308.608 95.4008 308.083 96.6803 307.131C97.558 306.478 98.2012 305.624 98.5706 304.6C98.8088 303.94 98.9332 303.209 98.9332 302.416C98.9332 300.946 98.5111 299.691 97.7331 298.701C96.4786 297.105 94.2984 296.2 91.4692 296.2H83.7892V313ZM88.5412 304.864H91.1812C91.2796 304.864 91.3756 304.862 91.4692 304.857C92.4079 304.812 93.0986 304.54 93.5412 304.078C93.9358 303.667 94.1332 303.104 94.1332 302.416C94.1332 301.717 93.9358 301.149 93.5412 300.734C93.0986 300.268 92.4079 299.996 91.4692 299.951C91.3756 299.946 91.2796 299.944 91.1812 299.944H88.5412V304.864ZM119.861 305.174C119.911 306 120.07 306.785 120.324 307.52C120.822 308.954 121.687 310.194 122.831 311.155C124.465 312.529 126.668 313.336 129.18 313.336C132.738 313.336 135.677 311.716 137.256 309.159C138.063 307.854 138.516 306.304 138.516 304.6C138.516 302.896 138.063 301.346 137.256 300.041C135.677 297.484 132.738 295.864 129.18 295.864C126.668 295.864 124.465 296.671 122.831 298.045C121.687 299.006 120.822 300.245 120.324 301.68C120.07 302.415 119.911 303.2 119.861 304.026C119.849 304.215 119.844 304.407 119.844 304.6C119.844 304.793 119.849 304.984 119.861 305.174ZM102.264 308.358C103.67 311.398 106.809 313.336 110.704 313.336C110.785 313.336 110.865 313.335 110.944 313.334C111.88 313.316 112.76 313.193 113.575 312.972C114.732 312.658 115.759 312.146 116.636 311.454C116.856 311.28 117.066 311.095 117.267 310.899C117.501 310.67 117.722 310.427 117.928 310.168L114.904 307.432C114.851 307.496 114.797 307.559 114.743 307.62C114.664 307.708 114.584 307.794 114.502 307.876C113.524 308.865 112.354 309.4 110.944 309.4C110.864 309.4 110.784 309.398 110.704 309.395C108.074 309.287 106.264 307.396 106.264 304.6C106.264 301.804 108.074 299.913 110.704 299.805C110.784 299.802 110.864 299.8 110.944 299.8C112.354 299.8 113.524 300.335 114.502 301.324C114.584 301.406 114.664 301.492 114.743 301.58C114.797 301.641 114.851 301.704 114.904 301.768L117.928 299.032C117.722 298.773 117.501 298.529 117.267 298.301C117.066 298.105 116.856 297.92 116.636 297.746C115.759 297.053 114.732 296.541 113.575 296.228C112.76 296.007 111.88 295.884 110.944 295.866C110.865 295.865 110.785 295.864 110.704 295.864C107.666 295.864 105.088 297.043 103.433 299.004C102.62 299.968 102.03 301.121 101.718 302.416C101.552 303.106 101.464 303.836 101.464 304.6C101.464 305.974 101.747 307.241 102.264 308.358ZM142.256 313H147.008V306.448H153.488V313H158.24V296.2H153.488V302.512H147.008V296.2H142.256V313ZM195.211 313H199.891V296.2H186.355L186.115 302.896C186.009 305.672 185.788 307.753 184.915 308.669C184.812 308.777 184.7 308.869 184.578 308.944C184.379 309.066 184.153 309.143 183.897 309.172C183.827 309.179 183.755 309.183 183.68 309.184C183.676 309.184 183.671 309.184 183.667 309.184C183.451 309.184 183.235 309.16 183.019 309.112L182.755 313C183.07 313.076 183.374 313.138 183.667 313.184C184.109 313.253 184.525 313.288 184.915 313.288C185.256 313.288 185.575 313.262 185.874 313.212C185.883 313.21 185.893 313.209 185.902 313.207C186.662 313.074 187.291 312.779 187.811 312.335C189.401 310.981 189.984 308.237 190.211 304.467C190.238 304.011 190.26 303.54 190.279 303.054C190.279 303.051 190.279 303.048 190.279 303.045C190.283 302.932 190.287 302.818 190.291 302.704L190.387 299.968H195.211V313ZM173.466 296.2H168.786L161.37 313H166.218L167.538 309.736H174.642L175.962 313H180.906L173.466 296.2ZM171.09 300.856L168.93 306.232H173.25L171.09 300.856ZM209.364 296.2H204.684V313H212.628C215.125 313 217.081 312.333 218.299 311.027C219.193 310.067 219.689 308.761 219.708 307.12C219.708 307.088 219.708 307.056 219.708 307.024C219.708 305.355 219.217 304.072 218.299 303.17C217.196 302.087 215.478 301.552 213.252 301.552H209.364V296.2ZM209.364 304.936V309.592H212.316C212.423 309.592 212.527 309.588 212.628 309.58C213.365 309.522 213.963 309.255 214.364 308.801C214.729 308.389 214.932 307.823 214.932 307.12C214.932 307.088 214.932 307.056 214.931 307.024C214.914 306.365 214.714 305.884 214.364 305.551C214.085 305.285 213.709 305.113 213.252 305.02C212.97 304.963 212.657 304.936 212.316 304.936H209.364ZM223.299 313H228.051V306.448H234.531V313H239.283V296.2H234.531V302.512H228.051V296.2H223.299V313ZM248.772 296.2H244.092V313H252.036C253.563 313 254.887 312.751 255.964 312.259C257.944 311.354 259.087 309.628 259.116 307.12C259.116 307.088 259.116 307.056 259.116 307.024C259.116 304.499 257.993 302.859 255.964 302.081C255.043 301.728 253.935 301.552 252.66 301.552H248.772V296.2ZM248.772 304.936V309.592H251.724C251.831 309.592 251.935 309.588 252.036 309.58C252.773 309.522 253.371 309.255 253.772 308.801C254.137 308.389 254.34 307.823 254.34 307.12C254.34 307.088 254.34 307.056 254.339 307.024C254.321 306.365 254.122 305.884 253.772 305.551C253.492 305.285 253.116 305.113 252.66 305.02C252.378 304.963 252.064 304.936 251.724 304.936H248.772ZM265.644 313V296.2H260.964V313H265.644ZM268.808 313H274.28L277.64 308.032L281.024 313H286.616L280.616 304.216L286.136 296.176H280.616L277.64 300.736L274.64 296.176H269.192L274.784 304.432L268.808 313ZM129.293 304.432C129.23 304.406 129.188 304.401 129.18 304.4C129.171 304.401 129.129 304.406 129.066 304.432C128.984 304.465 128.897 304.521 128.821 304.599C128.821 304.599 128.821 304.6 128.82 304.6C128.821 304.6 128.821 304.601 128.821 304.601C128.897 304.678 128.984 304.735 129.066 304.768C129.129 304.794 129.171 304.799 129.18 304.8C129.188 304.799 129.23 304.794 129.293 304.768C129.375 304.735 129.462 304.678 129.538 304.601C129.538 304.601 129.539 304.6 129.539 304.6C129.539 304.6 129.538 304.599 129.538 304.599C129.462 304.521 129.375 304.465 129.293 304.432ZM118.005 341.232V331.968H113.181L113.119 333.538L113.119 333.54L113.109 333.792C113.085 334.45 113.052 335.086 113.005 335.694C112.991 335.876 112.976 336.055 112.96 336.232C112.825 337.709 112.604 338.997 112.249 340C112.08 340.479 111.881 340.893 111.645 341.232H118.005ZM109.869 348.384H105.501V341.232H106.101C106.296 341.228 106.477 341.196 106.646 341.139C106.674 341.13 106.702 341.12 106.729 341.109C106.972 341.013 107.19 340.862 107.384 340.661C107.771 340.259 108.065 339.659 108.289 338.9C108.684 337.564 108.861 335.738 108.947 333.64C108.947 333.636 108.948 333.632 108.948 333.628C108.951 333.547 108.954 333.466 108.957 333.384L109.149 328.2H122.685V341.232H124.965V348.384H120.621V345H109.869V348.384ZM115.888 350H114.602C113.93 351.968 112.065 353.384 109.869 353.384H105.501C102.74 353.384 100.501 351.145 100.501 348.384V341.232C100.501 339.111 101.822 337.298 103.686 336.572C103.716 336.381 103.746 336.165 103.773 335.924C103.862 335.159 103.921 334.251 103.961 333.197L104.153 328.015C104.252 325.327 106.46 323.2 109.149 323.2H122.685C125.447 323.2 127.685 325.439 127.685 328.2V330.942L129.787 326.181C130.587 324.369 132.381 323.2 134.361 323.2H139.041C141.019 323.2 142.812 324.366 143.613 326.175L144.606 328.419V328.2C144.606 325.439 146.845 323.2 149.606 323.2H154.358C155.594 323.2 156.726 323.648 157.598 324.392C158.471 323.648 159.602 323.2 160.838 323.2H165.59C166.462 323.2 167.282 323.423 167.995 323.815C168.709 323.423 169.528 323.2 170.4 323.2H175.152C176.388 323.2 177.519 323.648 178.392 324.392C179.265 323.648 180.396 323.2 181.632 323.2H186.384C187.256 323.2 188.075 323.423 188.789 323.815C189.503 323.423 190.322 323.2 191.194 323.2H195.874C198.635 323.2 200.874 325.439 200.874 328.2V328.586C201.6 328.632 202.336 328.727 203.066 328.884V328.2C203.066 325.439 205.304 323.2 208.066 323.2H212.746C213.359 323.2 213.947 323.31 214.49 323.513C215.056 323.293 215.666 323.176 216.294 323.176H221.742C222.834 323.176 223.878 323.532 224.73 324.167C225.581 323.533 226.626 323.176 227.718 323.176H233.238C235.094 323.176 236.797 324.204 237.662 325.847C238.527 327.489 238.41 329.476 237.36 331.006L233.778 336.223L237.846 342.18C238.892 343.711 239.005 345.695 238.139 347.334C237.274 348.974 235.572 350 233.718 350H228.126C226.864 350 225.665 349.524 224.754 348.692C223.843 349.524 222.643 350 221.382 350H215.91C215.364 350 214.832 349.911 214.33 349.744C213.832 349.91 213.299 350 212.746 350H208.066C206.881 350 205.793 349.588 204.936 348.9C203.09 349.699 201.076 350 199.138 350H191.194C190.322 350 189.503 349.777 188.789 349.385C188.075 349.777 187.256 350 186.384 350H181.632C180.396 350 179.265 349.551 178.392 348.808C177.519 349.551 176.388 350 175.152 350H170.4C169.528 350 168.709 349.777 167.995 349.385C167.282 349.777 166.462 350 165.59 350H160.838C159.602 350 158.471 349.551 157.598 348.808C156.726 349.551 155.594 350 154.358 350H149.606C149.06 350 148.534 349.912 148.042 349.75C147.545 349.914 147.019 350 146.481 350H141.537C139.499 350 137.666 348.764 136.902 346.875L136.846 346.736H136.484L136.428 346.875C135.664 348.764 133.831 350 131.793 350H129.698C129.026 351.968 127.161 353.384 124.965 353.384H120.621C118.425 353.384 116.56 351.968 115.888 350ZM146.481 345L139.041 328.2H134.361L126.945 345H131.793L133.113 341.736H140.217L141.537 345H146.481ZM136.665 332.856L134.505 338.232H138.825L136.665 332.856ZM154.358 345V338.448H160.838V345H165.59V328.2H160.838V334.512H154.358V328.2H149.606V345H154.358ZM181.632 345H186.384V328.2H181.632V334.512H175.152V328.2H170.4V345H175.152V338.448H181.632V345ZM195.874 328.2H191.194V345H199.138C200.664 345 201.989 344.751 203.066 344.259C205.045 343.354 206.189 341.628 206.217 339.12C206.218 339.088 206.218 339.056 206.218 339.024C206.218 336.499 205.094 334.859 203.066 334.081C202.144 333.728 201.036 333.552 199.762 333.552H195.874V328.2ZM195.874 336.936V341.592H198.826C198.932 341.592 199.036 341.588 199.138 341.58C199.875 341.522 200.472 341.255 200.874 340.801C201.239 340.389 201.442 339.823 201.442 339.12C201.442 339.088 201.441 339.056 201.441 339.024C201.423 338.365 201.224 337.884 200.874 337.551C200.594 337.285 200.218 337.113 199.762 337.02C199.479 336.963 199.166 336.936 198.826 336.936H195.874ZM212.746 345V328.2H208.066V345H212.746ZM215.91 345H221.382L224.742 340.032L228.126 345H233.718L227.718 336.216L233.238 328.176H227.718L224.742 332.736L221.742 328.176H216.294L221.886 336.432L215.91 345ZM103.425 337.681C103.425 337.681 103.428 337.673 103.435 337.661C103.429 337.675 103.426 337.681 103.425 337.681ZM124.644 304.6C124.644 307.504 126.636 309.4 129.18 309.4C131.724 309.4 133.716 307.504 133.716 304.6C133.716 301.696 131.724 299.8 129.18 299.8C126.636 299.8 124.644 301.696 124.644 304.6Z" fill="white"/>
<rect x="16" y="397" width="125" height="43" rx="13" fill="white"/>
<rect x="195" y="397" width="125" height="43" rx="13" fill="white"/>
<path d="M250 5C250 26.7477 241.361 47.6048 225.983 62.9828C210.605 78.3607 189.748 87 168 87C146.252 87 125.395 78.3607 110.017 62.9828C94.6393 47.6048 86 26.7478 86 5.00002L168 5H250Z" fill="white"/>
<path d="M48.032 423.216C48.032 414.96 35.328 417.52 35.328 414.096C35.328 412.976 36.288 412.08 38.944 412.08C40.896 412.08 43.008 412.656 45.152 413.808L47.104 409.104C45.312 408.048 42.976 407.408 40.608 407.216V403.76H36.768V407.28C31.584 407.92 29.056 410.896 29.056 414.416C29.056 422.736 41.792 420.144 41.792 423.696C41.792 424.784 40.768 425.52 38.144 425.52C35.552 425.52 32.736 424.624 30.752 423.312L28.672 427.984C30.528 429.264 33.568 430.192 36.768 430.416V433.84H40.608V430.288C45.6 429.552 48.032 426.608 48.032 423.216Z" fill="#2862F3"/>
<path d="M63.22 423.36L66.44 420.32C68.4 418.5 68.78 417.26 68.78 415.9C68.78 413.36 66.7 411.76 63.58 411.76C61.06 411.76 59.1 412.78 58.02 414.36L60.38 415.88C61.06 414.94 62.08 414.48 63.28 414.48C64.76 414.48 65.52 415.12 65.52 416.22C65.52 416.9 65.3 417.62 64.06 418.8L58.66 423.9V426H69.24V423.36H63.22ZM76.5378 426.24C79.9978 426.24 82.5378 423.62 82.5378 419C82.5378 414.38 79.9978 411.76 76.5378 411.76C73.0978 411.76 70.5378 414.38 70.5378 419C70.5378 423.62 73.0978 426.24 76.5378 426.24ZM76.5378 423.5C74.9378 423.5 73.8178 422.18 73.8178 419C73.8178 415.82 74.9378 414.5 76.5378 414.5C78.1578 414.5 79.2778 415.82 79.2778 419C79.2778 422.18 78.1578 423.5 76.5378 423.5ZM95.7761 426.24C99.2361 426.24 101.776 423.62 101.776 419C101.776 414.38 99.2361 411.76 95.7761 411.76C92.3361 411.76 89.7761 414.38 89.7761 419C89.7761 423.62 92.3361 426.24 95.7761 426.24ZM95.7761 423.5C94.1761 423.5 93.0561 422.18 93.0561 419C93.0561 415.82 94.1761 414.5 95.7761 414.5C97.3961 414.5 98.5161 415.82 98.5161 419C98.5161 422.18 97.3961 423.5 95.7761 423.5ZM109.35 426.24C112.81 426.24 115.35 423.62 115.35 419C115.35 414.38 112.81 411.76 109.35 411.76C105.91 411.76 103.35 414.38 103.35 419C103.35 423.62 105.91 426.24 109.35 426.24ZM109.35 423.5C107.75 423.5 106.63 422.18 106.63 419C106.63 415.82 107.75 414.5 109.35 414.5C110.97 414.5 112.09 415.82 112.09 419C112.09 422.18 110.97 423.5 109.35 423.5ZM122.925 426.24C126.385 426.24 128.925 423.62 128.925 419C128.925 414.38 126.385 411.76 122.925 411.76C119.485 411.76 116.925 414.38 116.925 419C116.925 423.62 119.485 426.24 122.925 426.24ZM122.925 423.5C121.325 423.5 120.205 422.18 120.205 419C120.205 415.82 121.325 414.5 122.925 414.5C124.545 414.5 125.665 415.82 125.665 419C125.665 422.18 124.545 423.5 122.925 423.5Z" fill="black"/>
<path d="M241.22 423.36L244.44 420.32C246.4 418.5 246.78 417.26 246.78 415.9C246.78 413.36 244.7 411.76 241.58 411.76C239.06 411.76 237.1 412.78 236.02 414.36L238.38 415.88C239.06 414.94 240.08 414.48 241.28 414.48C242.76 414.48 243.52 415.12 243.52 416.22C243.52 416.9 243.3 417.62 242.06 418.8L236.66 423.9V426H247.24V423.36H241.22ZM254.538 426.24C257.998 426.24 260.538 423.62 260.538 419C260.538 414.38 257.998 411.76 254.538 411.76C251.098 411.76 248.538 414.38 248.538 419C248.538 423.62 251.098 426.24 254.538 426.24ZM254.538 423.5C252.938 423.5 251.818 422.18 251.818 419C251.818 415.82 252.938 414.5 254.538 414.5C256.158 414.5 257.278 415.82 257.278 419C257.278 422.18 256.158 423.5 254.538 423.5ZM281.816 426L281.776 415.24H278.856L275.196 421.46L271.756 415.24H268.496V426H271.316V419.54L274.456 424.96H275.776L278.996 419.56V426H281.816ZM284.805 426H287.685L292.905 419.6V426H296.005V415.24H293.145L287.905 421.64V415.24H284.805V426ZM299.004 426H302.104V421.98H306.784V426H309.904V415.24H306.784V419.44H302.104V415.24H299.004V426Z" fill="black"/>
<path d="M216.5 406C209.595 406 204 411.595 204 418.5C204 425.405 209.595 431 216.5 431C223.405 431 229 425.405 229 418.5C229 411.595 223.405 406 216.5 406Z" fill="#2862F3"/>
<path fill-rule="evenodd" clip-rule="evenodd" d="M215.961 410C214.878 410 214 410.878 214 411.961V419.153C214 419.311 214.019 419.464 214.054 419.611C214.047 420.263 214.376 420.901 214.974 421.262L220.414 424.535C221.313 425.077 222.481 424.786 223.022 423.887C223.563 422.988 223.273 421.82 222.374 421.279L217.923 418.6V411.961C217.923 410.878 217.045 410 215.961 410Z" fill="white"/>
<g filter="url(#filter0_d)">
<path d="M162.531 400.393L185.975 433.213C179.766 434.57 168.698 428.331 168.698 428.331C168.698 428.331 160.834 438.706 154.912 440L162.531 400.393Z" fill="white"/>
</g>
<path fill-rule="evenodd" clip-rule="evenodd" d="M154.912 440L158.469 421.51C161.522 424.284 164.956 426.604 168.698 428.331C168.698 428.331 160.834 438.706 154.912 440Z" fill="#AFD4FF"/>
<path d="M179.305 41.598C182.031 39.684 183.655 36.9 183.655 33.42C183.655 26.228 177.043 21.588 167.473 21.588C157.903 21.588 151.291 26.228 151.291 33.42C151.291 36.9 152.915 39.684 155.641 41.598C151.987 43.686 149.841 46.876 149.841 51.052C149.841 58.824 156.975 63.812 167.473 63.812C177.971 63.812 185.105 58.824 185.105 51.052C185.105 46.876 182.959 43.686 179.305 41.598ZM167.473 29.65C170.315 29.65 172.345 31.216 172.345 33.942C172.345 36.61 170.373 38.176 167.473 38.176C164.573 38.176 162.659 36.61 162.659 33.942C162.659 31.216 164.631 29.65 167.473 29.65ZM167.473 55.75C163.819 55.75 161.383 53.836 161.383 50.704C161.383 47.572 163.819 45.658 167.473 45.658C171.127 45.658 173.563 47.572 173.563 50.704C173.563 53.836 171.127 55.75 167.473 55.75Z" fill="#2862F3"/>
<g filter="url(#filter1_di)">
<path fill-rule="evenodd" clip-rule="evenodd" d="M206.149 186.141C215.143 175.944 228.609 162.536 238.989 168.627C248.124 174.002 243.504 186.32 235.434 187.935C235.12 188.213 234.664 188.596 234.011 189.145L233.909 189.231C226.67 195.326 220.158 202.223 213.709 209.128C210.043 213.055 202.574 213.343 198.963 209.128C196.787 206.597 194.522 204.134 192.206 201.713V226.3H147.872V200.635C145.191 203.403 142.556 206.217 140.05 209.131C136.426 213.346 128.966 213.059 125.299 209.131C124.721 208.512 124.142 207.89 123.562 207.268C117.716 200.988 111.779 194.611 105.104 189.235C104.345 188.624 103.839 188.212 103.504 187.924C95.4833 186.25 90.9103 173.986 100.029 168.627C110.405 162.532 123.868 175.944 132.866 186.141C138.587 180.217 144.624 174.557 150.618 168.938C151.308 168.292 151.996 167.646 152.684 167C152.746 166.942 152.81 166.896 152.874 166.851C152.927 166.813 152.98 166.775 153.031 166.731C162.239 156.577 181.267 157.507 188.911 169.417C194.737 174.878 200.587 180.385 206.149 186.141ZM109.674 187.066C109.566 187.111 109.459 187.156 109.351 187.203C109.725 187.062 110.102 186.903 110.481 186.69C110.209 186.842 109.942 186.954 109.674 187.066ZM228.45 186.643C228.87 186.892 229.295 187.067 229.711 187.223C229.602 187.176 229.494 187.131 229.386 187.086C229.075 186.957 228.765 186.828 228.45 186.643Z" fill="white"/>
<path d="M170.042 156.488C180.124 156.488 188.296 148.316 188.296 138.234C188.296 128.153 180.124 119.98 170.042 119.98C159.961 119.98 151.789 128.153 151.789 138.234C151.789 148.316 159.961 156.488 170.042 156.488Z" fill="white"/>
</g>
<defs>
<filter id="filter0_d" x="143" y="393" width="52.975" height="57" filterUnits="userSpaceOnUse" color-interpolation-filters="sRGB">
<feFlood flood-opacity="0" result="BackgroundImageFix"/>
<feColorMatrix in="SourceAlpha" type="matrix" values="0 0 0 0 0 0 0 0 0 0 0 0 0 0 0 0 0 0 127 0"/>
<feOffset dx="3" dy="3"/>
<feGaussianBlur stdDeviation="3.5"/>
<feColorMatrix type="matrix" values="0 0 0 0 0.11124 0 0 0 0 0.205788 0 0 0 0 0.754167 0 0 0 0.66 0"/>
<feBlend mode="normal" in2="BackgroundImageFix" result="effect1_dropShadow"/>
<feBlend mode="normal" in="SourceGraphic" in2="effect1_dropShadow" result="shape"/>
</filter>
<filter id="filter1_di" x="89" y="113.98" width="169.012" height="126.32" filterUnits="userSpaceOnUse" color-interpolation-filters="sRGB">
<feFlood flood-opacity="0" result="BackgroundImageFix"/>
<feColorMatrix in="SourceAlpha" type="matrix" values="0 0 0 0 0 0 0 0 0 0 0 0 0 0 0 0 0 0 127 0"/>
<feOffset dx="4" dy="4"/>
<feGaussianBlur stdDeviation="5"/>
<feColorMatrix type="matrix" values="0 0 0 0 0.168813 0 0 0 0 0.394509 0 0 0 0 0.9125 0 0 0 1 0"/>
<feBlend mode="normal" in2="BackgroundImageFix" result="effect1_dropShadow"/>
<feBlend mode="normal" in="SourceGraphic" in2="effect1_dropShadow" result="shape"/>
<feColorMatrix in="SourceAlpha" type="matrix" values="0 0 0 0 0 0 0 0 0 0 0 0 0 0 0 0 0 0 127 0" result="hardAlpha"/>
<feOffset dx="-2" dy="-2"/>
<feGaussianBlur stdDeviation="2"/>
<feComposite in2="hardAlpha" operator="arithmetic" k2="-1" k3="1"/>
<feColorMatrix type="matrix" values="0 0 0 0 0.564167 0 0 0 0 0.713194 0 0 0 0 1 0 0 0 1 0"/>
<feBlend mode="normal" in2="shape" result="effect2_innerShadow"/>
</filter>
<linearGradient id="paint0_linear" x1="57.5" y1="-9" x2="289.5" y2="495.5" gradientUnits="userSpaceOnUse">
<stop stop-color="#3793FF"/>
<stop offset="1" stop-color="#141CE1"/>
</linearGradient>
<linearGradient id="paint1_linear" x1="49" y1="11" x2="301.5" y2="474" gradientUnits="userSpaceOnUse">
<stop stop-color="#6369FF"/>
<stop offset="1" stop-color="#51B5F4"/>
</linearGradient>
<linearGradient id="paint2_linear" x1="57.5" y1="-9" x2="289.5" y2="495.5" gradientUnits="userSpaceOnUse">
<stop stop-color="#00E0FF"/>
<stop offset="1" stop-color="#42F2D1"/>
</linearGradient>
<linearGradient id="paint3_linear" x1="49" y1="11" x2="301.5" y2="474" gradientUnits="userSpaceOnUse">
<stop stop-color="#51B5F5"/>
<stop offset="1" stop-color="#28D7BE"/>
</linearGradient>
<linearGradient id="paint4_linear" x1="308.165" y1="473.49" x2="92.7043" y2="54.1817" gradientUnits="userSpaceOnUse">
<stop stop-color="#73F5FF"/>
<stop offset="0.99" stop-color="#7AFFEC"/>
</linearGradient>
<linearGradient id="paint5_linear" x1="18.7592" y1="227" x2="211" y2="227" gradientUnits="userSpaceOnUse">
<stop stop-color="white"/>
<stop offset="0.99" stop-color="white" stop-opacity="0.4"/>
</linearGradient>
<linearGradient id="paint6_linear" x1="176.9" y1="65" x2="257" y2="65" gradientUnits="userSpaceOnUse">
<stop stop-color="white"/>
<stop offset="0.99" stop-color="white" stop-opacity="0.4"/>
</linearGradient>
</defs>
</svg>
