<svg width="338" height="474" viewBox="0 0 338 474" fill="none" xmlns="http://www.w3.org/2000/svg">
<rect x="2.5" y="2.5" width="331" height="469" rx="32.5" fill="url(#paint0_linear)" stroke="url(#paint1_linear)" stroke-width="5"/>
<mask id="mask0" mask-type="alpha" maskUnits="userSpaceOnUse" x="2" y="0" width="336" height="474">
<rect x="4.5" y="2.5" width="331" height="469" rx="41.5" fill="url(#paint2_linear)" stroke="url(#paint3_linear)" stroke-width="5"/>
</mask>
<g mask="url(#mask0)">
<path d="M198.89 5.0093C198.89 5.0093 97.8208 47.0947 93.9888 101.845C90.1568 156.595 112.775 152.615 106.069 185.086C99.3632 217.557 -10.9124 255.616 18.7856 356.766C48.4837 457.916 142.368 370.584 242 469H35C18.4315 469 5 455.569 5 439V35.0014C5 18.4323 18.4323 5.00064 35.0014 5.00144L198.89 5.0093Z" fill="url(#paint4_linear)" fill-opacity="0.5"/>
</g>
<path opacity="0.46" d="M219.887 378C202.092 377.978 184.702 372.68 169.917 362.777C155.131 352.875 143.613 338.811 136.819 322.363C130.024 305.916 128.258 287.824 131.743 270.373C135.229 252.922 143.809 236.896 156.4 224.321C168.992 211.745 185.028 203.185 202.483 199.721C219.939 196.258 238.029 198.046 254.468 204.862C270.906 211.677 284.956 223.212 294.84 238.01C304.724 252.808 310 270.204 310 288C309.958 311.876 300.447 334.761 283.553 351.633C266.66 368.506 243.763 377.988 219.887 378ZM219.887 222.747C206.985 222.764 194.378 226.607 183.659 233.788C172.94 240.969 164.59 251.166 159.665 263.091C154.74 275.016 153.461 288.134 155.989 300.786C158.517 313.438 164.739 325.056 173.868 334.173C182.998 343.29 194.625 349.496 207.28 352.006C219.936 354.517 233.051 353.219 244.97 348.278C256.888 343.336 267.074 334.972 274.24 324.243C281.406 313.515 285.231 300.902 285.231 288C285.177 270.703 278.27 254.132 266.022 241.918C253.774 229.704 237.184 222.843 219.887 222.837V222.747Z" fill="url(#paint5_linear)"/>
<path opacity="0.46" d="M99.9498 126C92.0407 125.99 84.3121 123.636 77.7407 119.234C71.1694 114.833 66.0503 108.583 63.0305 101.273C60.0106 93.9627 59.2257 85.9216 60.7747 78.1657C62.3238 70.4097 66.1374 63.2871 71.7335 57.698C77.3296 52.1089 84.457 48.3043 92.2148 46.7649C99.9727 45.2256 108.013 46.0207 115.319 49.0496C122.625 52.0786 128.869 57.2055 133.262 63.7824C137.655 70.3593 140 78.0909 140 86C139.981 96.6116 135.754 106.783 128.246 114.281C120.738 121.78 110.561 125.995 99.9498 126ZM99.9498 56.9985C94.2156 57.0064 88.6124 58.7141 83.8484 61.9056C79.0844 65.0972 75.3735 69.6294 73.1846 74.9294C70.9957 80.2294 70.4271 86.0594 71.5506 91.6825C72.6742 97.3056 75.4395 102.469 79.497 106.521C83.5545 110.573 88.7222 113.331 94.3468 114.447C99.9715 115.563 105.801 114.986 111.098 112.79C116.395 110.594 120.922 106.877 124.107 102.108C127.292 97.3398 128.991 91.7342 128.991 86C128.968 78.3124 125.898 70.9477 120.454 65.5193C115.011 60.0908 107.637 57.0412 99.9498 57.0386V56.9985Z" fill="url(#paint6_linear)"/>
<path d="M98.8165 213.6L95.0985 221.036L91.5125 213.6H86.9145L92.8985 224.688C92.3265 225.524 91.7105 225.876 90.8525 225.876C90.3905 225.876 89.9065 225.788 89.3125 225.612L88.2785 228.824C89.2245 229.198 90.1265 229.396 91.0065 229.396C93.3165 229.396 95.3185 228.076 96.6825 225.502L103.063 213.6H98.8165Z" fill="black"/>
<path d="M112.847 229.308C115.685 229.308 117.973 228.274 119.469 226.404L116.697 223.896C115.729 225.062 114.541 225.7 113.067 225.7C110.537 225.7 108.777 223.94 108.777 221.3C108.777 218.66 110.537 216.9 113.067 216.9C114.541 216.9 115.729 217.538 116.697 218.704L119.469 216.196C117.973 214.326 115.685 213.292 112.847 213.292C107.963 213.292 104.377 216.614 104.377 221.3C104.377 225.986 107.963 229.308 112.847 229.308Z" fill="black"/>
<path d="M134.816 213.6H121.088V217.054H125.818V229H130.108V217.054H134.816V213.6Z" fill="black"/>
<path d="M148.986 229H153.518L146.698 213.6H142.408L135.61 229H140.054L141.264 226.008H147.776L148.986 229ZM142.54 222.796L144.521 217.868L146.5 222.796H142.54Z" fill="black"/>
<path d="M166.679 213.6V219.386H160.739V213.6H156.383V229H160.739V222.994H166.679V229H171.035V213.6H166.679Z" fill="black"/>
<path d="M183.012 229.308C187.94 229.308 191.57 225.92 191.57 221.3C191.57 216.68 187.94 213.292 183.012 213.292C178.084 213.292 174.454 216.68 174.454 221.3C174.454 225.92 178.084 229.308 183.012 229.308ZM183.012 225.7C180.68 225.7 178.854 223.962 178.854 221.3C178.854 218.638 180.68 216.9 183.012 216.9C185.344 216.9 187.17 218.638 187.17 221.3C187.17 223.962 185.344 225.7 183.012 225.7Z" fill="black"/>
<path d="M206.219 220.948C207.539 220.288 208.309 219.122 208.309 217.604C208.309 215.052 206.153 213.6 202.479 213.6H194.999V229H202.897C206.857 229 209.013 227.306 209.013 224.6C209.013 222.752 208.001 221.52 206.219 220.948ZM199.289 216.724H202.061C203.293 216.724 203.909 217.252 203.909 218.242C203.909 219.254 203.293 219.76 202.061 219.76H199.289V216.724ZM202.721 225.876H199.289V222.708H202.721C203.975 222.708 204.613 223.214 204.613 224.27C204.613 225.326 203.975 225.876 202.721 225.876Z" fill="black"/>
<path d="M222.194 229H227.1L222.238 221.036L227.056 213.6H222.48L218.806 219.584H216.716V213.6H212.382V229H216.716V223.104H218.696L222.194 229Z" fill="black"/>
<path d="M241.069 229H245.601L238.781 213.6H234.491L227.693 229H232.137L233.347 226.008H239.859L241.069 229ZM234.623 222.796L236.603 217.868L238.583 222.796H234.623Z" fill="black"/>
<path d="M71.8315 255H79.5315C83.5355 255 85.8895 253.174 85.8895 250.05C85.8895 247.08 83.8435 245.452 80.1035 245.452H76.1215V242.966H84.7015V239.6H71.8315V255ZM76.1215 251.876V248.554H79.2455C80.7415 248.554 81.4895 249.082 81.4895 250.182C81.4895 251.282 80.6975 251.876 79.2455 251.876H76.1215Z" fill="black"/>
<path d="M93.5502 251.634V248.818H100.392V245.562H93.5502V242.966H101.316V239.6H89.2382V255H101.602V251.634H93.5502Z" fill="black"/>
<path d="M112.664 255.308C115.502 255.308 117.79 254.274 119.286 252.404L116.514 249.896C115.546 251.062 114.358 251.7 112.884 251.7C110.354 251.7 108.594 249.94 108.594 247.3C108.594 244.66 110.354 242.9 112.884 242.9C114.358 242.9 115.546 243.538 116.514 244.704L119.286 242.196C117.79 240.326 115.502 239.292 112.664 239.292C107.78 239.292 104.194 242.614 104.194 247.3C104.194 251.986 107.78 255.308 112.664 255.308Z" fill="black"/>
<path d="M122.354 239.6V255H126.644V243.054H132.496V255H136.808V239.6H122.354Z" fill="black"/>
<path d="M143.115 239.6L142.895 245.738C142.763 249.214 142.433 251.502 140.651 251.502C140.453 251.502 140.255 251.48 140.057 251.436L139.815 255C140.541 255.176 141.201 255.264 141.795 255.264C145.711 255.264 146.525 251.568 146.723 245.562L146.811 243.054H151.233V255H155.523V239.6H143.115Z" fill="black"/>
<path d="M171.753 255H176.285L169.465 239.6H165.175L158.377 255H162.821L164.031 252.008H170.543L171.753 255ZM165.307 248.796L167.287 243.868L169.267 248.796H165.307Z" fill="black"/>
<path d="M190.785 239.6H177.057V243.054H181.787V255H186.077V243.054H190.785V239.6Z" fill="black"/>
<path d="M204.189 239.6V245.386H198.249V239.6H193.893V255H198.249V248.994H204.189V255H208.545V239.6H204.189Z" fill="black"/>
<path d="M220.522 255.308C225.45 255.308 229.08 251.92 229.08 247.3C229.08 242.68 225.45 239.292 220.522 239.292C215.594 239.292 211.964 242.68 211.964 247.3C211.964 251.92 215.594 255.308 220.522 255.308ZM220.522 251.7C218.19 251.7 216.364 249.962 216.364 247.3C216.364 244.638 218.19 242.9 220.522 242.9C222.854 242.9 224.68 244.638 224.68 247.3C224.68 249.962 222.854 251.7 220.522 251.7Z" fill="black"/>
<path d="M243.795 239.6H232.509V255H236.799V243.054H243.773L243.795 239.6Z" fill="black"/>
<path d="M253.079 255.308C258.007 255.308 261.637 251.92 261.637 247.3C261.637 242.68 258.007 239.292 253.079 239.292C248.151 239.292 244.521 242.68 244.521 247.3C244.521 251.92 248.151 255.308 253.079 255.308ZM253.079 251.7C250.747 251.7 248.921 249.962 248.921 247.3C248.921 244.638 250.747 242.9 253.079 242.9C255.411 242.9 257.237 244.638 257.237 247.3C257.237 249.962 255.411 251.7 253.079 251.7Z" fill="black"/>
<path d="M99.6212 265.6H92.5812V281H96.9372V276.974H99.6212C103.823 276.974 106.463 274.796 106.463 271.298C106.463 267.778 103.823 265.6 99.6212 265.6ZM99.3572 273.542H96.9372V269.032H99.3572C101.161 269.032 102.063 269.868 102.063 271.298C102.063 272.706 101.161 273.542 99.3572 273.542Z" fill="black"/>
<path d="M113.849 277.634V274.818H120.691V271.562H113.849V268.966H121.615V265.6H109.537V281H121.901V277.634H113.849Z" fill="black"/>
<path d="M139.936 277.546V265.6H127.528L127.352 270.352C127.198 274.466 126.692 277.502 124.734 277.546H124.184V284.102H128.188V281H138.044V284.102H142.026V277.546H139.936ZM131.158 270.726L131.224 269.054H135.646V277.546H129.816C130.718 276.248 131.048 273.74 131.158 270.726Z" fill="black"/>
<path d="M157.217 281H161.749L154.929 265.6H150.639L143.841 281H148.285L149.495 278.008H156.007L157.217 281ZM150.771 274.796L152.751 269.868L154.731 274.796H150.771Z" fill="black"/>
<path d="M174.338 281H179.244L174.382 273.036L179.2 265.6H174.624L170.95 271.584H168.86V265.6H164.526V281H168.86V275.104H170.84L174.338 281Z" fill="black"/>
<path d="M193.956 265.6H180.228V269.054H184.958V281H189.248V269.054H193.956V265.6Z" fill="black"/>
<path d="M204.417 281.308C209.345 281.308 212.975 277.92 212.975 273.3C212.975 268.68 209.345 265.292 204.417 265.292C199.489 265.292 195.859 268.68 195.859 273.3C195.859 277.92 199.489 281.308 204.417 281.308ZM204.417 277.7C202.085 277.7 200.259 275.962 200.259 273.3C200.259 270.638 202.085 268.9 204.417 268.9C206.749 268.9 208.575 270.638 208.575 273.3C208.575 275.962 206.749 277.7 204.417 277.7Z" fill="black"/>
<path d="M223.444 265.6H216.404V281H220.76V276.974H223.444C227.646 276.974 230.286 274.796 230.286 271.298C230.286 267.778 227.646 265.6 223.444 265.6ZM223.18 273.542H220.76V269.032H223.18C224.984 269.032 225.886 269.868 225.886 271.298C225.886 272.706 224.984 273.542 223.18 273.542Z" fill="black"/>
<path d="M244.422 281H248.954L242.134 265.6H237.844L231.046 281H235.49L236.7 278.008H243.212L244.422 281ZM237.976 274.796L239.956 269.868L241.936 274.796H237.976Z" fill="black"/>
<path fill-rule="evenodd" clip-rule="evenodd" d="M95.1645 210.185C96.0959 209.189 97.4115 208.6 98.8165 208.6H103.063C104.281 208.6 105.437 209.044 106.333 209.818C108.272 208.831 110.497 208.292 112.847 208.292C114.809 208.292 116.705 208.644 118.433 209.362C119.202 208.879 120.112 208.6 121.088 208.6H134.816C136.335 208.6 137.695 209.277 138.612 210.346C139.547 209.256 140.925 208.6 142.408 208.6H146.698C148.677 208.6 150.469 209.766 151.27 211.575L151.568 212.248C152.158 210.143 154.09 208.6 156.383 208.6H160.739C161.851 208.6 162.879 208.963 163.709 209.577C164.54 208.963 165.567 208.6 166.679 208.6H171.035C172.692 208.6 174.16 209.406 175.07 210.646C177.317 209.139 180.071 208.292 183.012 208.292C185.957 208.292 188.713 209.141 190.961 210.651C191.871 209.408 193.341 208.6 194.999 208.6H202.479C204.598 208.6 206.872 208.958 208.852 210.059C209.756 209.158 211.004 208.6 212.382 208.6H216.716C217.79 208.6 218.784 208.938 219.599 209.514C220.429 208.928 221.432 208.6 222.48 208.6H227.056C228.492 208.6 229.837 209.215 230.773 210.256C231.706 209.22 233.049 208.6 234.491 208.6H238.781C240.759 208.6 242.551 209.766 243.352 211.575L250.172 226.975C250.857 228.522 250.714 230.31 249.791 231.727C248.869 233.145 247.292 234 245.601 234H241.069C239.169 234 237.446 232.925 236.603 231.248C235.759 232.925 234.036 234 232.137 234H227.693C227.593 234 227.495 233.997 227.397 233.991C227.298 233.997 227.2 234 227.1 234H222.194C221.205 234 220.257 233.708 219.456 233.183C218.669 233.7 217.728 234 216.716 234H212.382C211.085 234 209.902 233.506 209.014 232.695C207.117 233.654 204.971 234 202.897 234H194.999C193.341 234 191.871 233.192 190.961 231.949C188.713 233.459 185.957 234.308 183.012 234.308C180.071 234.308 177.317 233.461 175.07 231.953C174.16 233.194 172.692 234 171.035 234H166.679C165.567 234 164.54 233.637 163.709 233.023C162.879 233.637 161.851 234 160.739 234H156.383C155.885 234 155.403 233.927 154.949 233.791C154.49 233.928 154.009 234 153.518 234H148.986C147.087 234 145.364 232.925 144.52 231.248C143.677 232.925 141.954 234 140.054 234H135.61C134.618 234 133.664 233.705 132.86 233.175C132.07 233.697 131.125 234 130.108 234H125.818C123.946 234 122.315 232.972 121.458 231.449C119.16 233.294 116.297 234.226 113.258 234.303C115.348 234.379 117.35 234.863 119.138 235.772C120.007 235.041 121.129 234.6 122.354 234.6H136.808C138.004 234.6 139.101 235.02 139.962 235.72C140.823 235.019 141.922 234.6 143.115 234.6H155.523C157.8 234.6 159.722 236.122 160.326 238.205L160.601 237.581C161.401 235.769 163.195 234.6 165.175 234.6H169.465C170.948 234.6 172.326 235.255 173.261 236.345C174.178 235.277 175.539 234.6 177.057 234.6H190.785C191.327 234.6 191.85 234.686 192.339 234.846C192.828 234.686 193.35 234.6 193.893 234.6H198.249C199.361 234.6 200.388 234.963 201.219 235.577C202.049 234.963 203.077 234.6 204.189 234.6H208.545C210.201 234.6 211.67 235.406 212.58 236.646C214.827 235.139 217.581 234.292 220.522 234.292C223.466 234.292 226.222 235.141 228.471 236.651C229.38 235.408 230.85 234.6 232.509 234.6H243.795C244.917 234.6 246 234.977 246.874 235.661C248.744 234.775 250.858 234.292 253.079 234.292C260.447 234.292 266.637 239.607 266.637 247.3C266.637 254.993 260.447 260.308 253.079 260.308C248.431 260.308 244.251 258.192 241.799 254.698V255C241.799 257.761 239.56 260 236.799 260H232.509C230.85 260 229.38 259.192 228.471 257.949C226.222 259.459 223.466 260.308 220.522 260.308C217.581 260.308 214.827 259.461 212.58 257.953C211.67 259.194 210.201 260 208.545 260H204.189C203.077 260 202.049 259.637 201.219 259.023C200.388 259.637 199.361 260 198.249 260H193.893C192.311 260 190.901 259.266 189.985 258.119C189.069 259.266 187.659 260 186.077 260H181.787C180.77 260 179.825 259.697 179.036 259.176C178.231 259.706 177.278 260 176.285 260H171.753C169.854 260 168.131 258.925 167.287 257.248C166.444 258.925 164.721 260 162.821 260H158.377C157.889 260 157.409 259.929 156.953 259.793C156.5 259.928 156.02 260 155.523 260H151.233C149.758 260 148.431 259.361 147.516 258.344C147.368 258.463 147.214 258.579 147.054 258.691C145.428 259.827 143.591 260.264 141.795 260.264C140.718 260.264 139.655 260.106 138.637 259.859C138.528 259.833 138.42 259.803 138.314 259.769C137.839 259.919 137.333 260 136.808 260H132.496C131.404 260 130.393 259.65 129.57 259.055C128.748 259.65 127.737 260 126.644 260H122.354C121.129 260 120.007 259.559 119.138 258.828C117.181 259.823 114.968 260.308 112.664 260.308C109.977 260.308 107.453 259.603 105.333 258.329C104.417 259.355 103.085 260 101.602 260H89.2382C87.8954 260 86.6762 259.471 85.778 258.609C83.8382 259.626 81.6435 260 79.5315 260H71.8315C69.0701 260 66.8315 257.761 66.8315 255V239.6C66.8315 236.839 69.0701 234.6 71.8315 234.6H84.7015C85.5182 234.6 86.2891 234.796 86.9699 235.143C87.6507 234.796 88.4216 234.6 89.2382 234.6H101.316C102.853 234.6 104.229 235.294 105.146 236.385C107.201 235.104 109.651 234.365 112.269 234.297C107.505 234.117 103.321 231.71 101.089 227.864C99.0655 231.669 95.5663 234.396 91.0065 234.396C89.3639 234.396 87.8332 234.025 86.4402 233.474C83.9896 232.505 82.7115 229.8 83.5191 227.292L84.5531 224.08C84.8079 223.288 85.242 222.603 85.7964 222.056L82.5144 215.975C81.6782 214.425 81.7186 212.55 82.6207 211.038C83.5229 209.526 85.1538 208.6 86.9145 208.6H91.5125C92.9186 208.6 94.2338 209.19 95.1645 210.185ZM89.5245 225.672C89.4554 225.654 89.3848 225.633 89.3125 225.612L88.2785 228.824C88.3031 228.834 88.3277 228.843 88.3523 228.853C88.7229 228.996 89.0868 229.112 89.4454 229.2C89.9229 229.316 90.3909 229.382 90.8525 229.394C90.9039 229.395 90.9553 229.396 91.0065 229.396C91.9032 229.396 92.7534 229.197 93.5379 228.803C94.4187 228.361 95.2166 227.673 95.9045 226.745C96.1125 226.464 96.3105 226.161 96.4977 225.836C96.5605 225.727 96.6222 225.616 96.6825 225.502L103.063 213.6H98.8165L95.0985 221.036L91.5125 213.6H86.9145L92.8985 224.688C92.7446 224.913 92.5876 225.103 92.4235 225.26C92.0147 225.652 91.5622 225.843 91.0065 225.872C90.9561 225.875 90.9047 225.876 90.8525 225.876C90.8029 225.876 90.7531 225.875 90.7029 225.873C90.3422 225.858 89.9629 225.792 89.5245 225.672ZM125.818 229H130.108V217.054H134.816V213.6H121.088V217.054H125.818V229ZM104.386 221.713C104.591 226.18 108.108 229.308 112.847 229.308C112.921 229.308 112.994 229.307 113.067 229.306C113.741 229.293 114.382 229.221 114.988 229.093C116.525 228.767 117.834 228.08 118.863 227.074C119.077 226.865 119.279 226.641 119.469 226.404L116.697 223.896C116.648 223.955 116.599 224.012 116.549 224.068C116.477 224.149 116.403 224.228 116.328 224.303C115.431 225.21 114.359 225.7 113.067 225.7C112.993 225.7 112.92 225.698 112.847 225.695C110.436 225.596 108.777 223.863 108.777 221.3C108.777 218.737 110.436 217.004 112.847 216.904C112.92 216.901 112.993 216.9 113.067 216.9C114.306 216.9 115.343 217.351 116.217 218.187C116.254 218.223 116.292 218.259 116.328 218.297C116.403 218.372 116.477 218.451 116.549 218.532C116.599 218.588 116.648 218.645 116.697 218.704L119.469 216.196C119.279 215.959 119.077 215.735 118.863 215.526C118.089 214.769 117.156 214.193 116.088 213.815C115.736 213.691 115.369 213.588 114.988 213.507C114.382 213.379 113.741 213.307 113.067 213.294C112.994 213.293 112.921 213.292 112.847 213.292C110.986 213.292 109.313 213.775 107.955 214.631C107.517 214.908 107.112 215.223 106.744 215.573C105.259 216.988 104.377 218.976 104.377 221.3C104.377 221.439 104.38 221.577 104.386 221.713ZM153.518 229L146.698 213.6H142.408L135.61 229H140.054L141.264 226.008H147.776L148.986 229H153.518ZM146.5 222.796L144.521 217.868L142.54 222.796H146.5ZM101.316 239.6H89.2382V255H101.602V251.634H93.5502V248.818H100.392V245.562H93.5502V242.966H101.316V239.6ZM122.354 255H126.644V243.054H132.496V255H136.808V239.6H122.354V255ZM151.233 255H155.523V239.6H143.115L142.895 245.738C142.799 248.269 142.598 250.17 141.808 251.017C141.804 251.021 141.8 251.026 141.795 251.03C141.547 251.291 141.241 251.449 140.862 251.491C140.798 251.498 140.732 251.502 140.663 251.502C140.659 251.502 140.655 251.502 140.651 251.502C140.453 251.502 140.255 251.48 140.057 251.436L139.815 255C140.104 255.07 140.383 255.126 140.651 255.168C141.057 255.232 141.438 255.264 141.795 255.264C141.797 255.264 141.799 255.264 141.801 255.264C142.111 255.264 142.402 255.24 142.675 255.194C143.618 255.035 144.342 254.605 144.899 253.935C145.538 253.166 145.957 252.08 146.233 250.72C146.509 249.365 146.643 247.739 146.712 245.883C146.712 245.88 146.712 245.878 146.712 245.875C146.716 245.771 146.72 245.667 146.723 245.562L146.811 243.054H151.233V255ZM106.316 241.818C105.979 242.17 105.677 242.554 105.413 242.966C105.27 243.19 105.139 243.423 105.019 243.663C104.727 244.251 104.507 244.887 104.368 245.562C104.27 246.04 104.212 246.538 104.198 247.053C104.196 247.135 104.194 247.217 104.194 247.3C104.194 247.319 104.194 247.338 104.195 247.358C104.198 247.861 104.242 248.349 104.326 248.818C104.453 249.536 104.671 250.211 104.969 250.834C105.102 251.111 105.25 251.378 105.413 251.634C105.749 252.16 106.148 252.639 106.602 253.065C108.109 254.479 110.225 255.308 112.664 255.308C112.738 255.308 112.811 255.307 112.884 255.306C113.558 255.293 114.199 255.221 114.806 255.093C115.744 254.894 116.597 254.56 117.354 254.101C117.837 253.809 118.28 253.466 118.68 253.074C118.894 252.865 119.097 252.641 119.286 252.404L116.514 249.896C116.466 249.955 116.416 250.012 116.367 250.068C116.294 250.149 116.221 250.228 116.146 250.303C115.249 251.21 114.176 251.7 112.884 251.7C112.81 251.7 112.737 251.698 112.664 251.695C110.253 251.596 108.594 249.863 108.594 247.3C108.594 244.737 110.253 243.004 112.664 242.904C112.737 242.901 112.81 242.9 112.884 242.9C114.176 242.9 115.249 243.39 116.146 244.297C116.221 244.372 116.294 244.451 116.367 244.532C116.416 244.588 116.466 244.645 116.514 244.704L119.286 242.196C119.097 241.959 118.894 241.735 118.68 241.526C118.28 241.134 117.837 240.791 117.354 240.499C116.597 240.04 115.744 239.706 114.806 239.507C114.199 239.379 113.558 239.307 112.884 239.294C112.811 239.293 112.738 239.292 112.664 239.292C110.066 239.292 107.835 240.232 106.316 241.818ZM84.7015 242.966V239.6H71.8315V255H79.5315C81.5496 255 83.1485 254.536 84.2382 253.676C85.2798 252.854 85.8561 251.669 85.8881 250.182C85.8891 250.138 85.8895 250.094 85.8895 250.05C85.8895 249.234 85.7353 248.52 85.434 247.913C85.2463 247.534 85.0015 247.198 84.7015 246.904C84.5594 246.765 84.4049 246.635 84.2382 246.516C83.2643 245.817 81.8737 245.452 80.1035 245.452H76.1215V242.966H84.7015ZM76.1215 248.554V251.876H79.2455C79.3439 251.876 79.4393 251.873 79.5315 251.868C80.2592 251.825 80.7959 251.614 81.1215 251.249C81.3641 250.977 81.4895 250.62 81.4895 250.182C81.4895 250.137 81.4883 250.093 81.4858 250.05C81.4635 249.666 81.3421 249.359 81.1215 249.124C80.8908 248.879 80.5514 248.714 80.1035 248.627C79.8518 248.578 79.5658 248.554 79.2455 248.554H76.1215ZM181.787 255H186.077V243.054H190.785V239.6H177.057V243.054H181.787V255ZM193.893 255H198.249V248.994H204.189V255H208.545V239.6H204.189V245.386H198.249V239.6H193.893V255ZM158.377 255L165.175 239.6H169.465L176.285 255H171.753L170.543 252.008H164.031L162.821 255H158.377ZM165.307 248.796H169.267L167.287 243.868L165.307 248.796ZM213.545 252.099C215.062 254.082 217.557 255.308 220.522 255.308C223.493 255.308 225.992 254.076 227.509 252.086C228.508 250.775 229.08 249.134 229.08 247.3C229.08 245.466 228.508 243.825 227.509 242.514C225.992 240.524 223.493 239.292 220.522 239.292C217.557 239.292 215.062 240.518 213.545 242.501C212.54 243.814 211.964 245.459 211.964 247.3C211.964 249.141 212.54 250.786 213.545 252.099ZM232.509 255H236.799V243.054H243.773L243.795 239.6H232.509V255ZM244.549 247.994C244.893 252.255 248.402 255.308 253.079 255.308C258.007 255.308 261.637 251.92 261.637 247.3C261.637 242.68 258.007 239.292 253.079 239.292C251.488 239.292 250.033 239.645 248.791 240.279C247.506 240.934 246.45 241.89 245.709 243.066C244.949 244.274 244.521 245.715 244.521 247.3C244.521 247.535 244.531 247.766 244.549 247.994ZM160.739 229V222.994H166.679V229H171.035V213.6H166.679V219.386H160.739V213.6H156.383V229H160.739ZM176.035 226.099C177.553 228.082 180.048 229.308 183.012 229.308C185.984 229.308 188.483 228.076 189.999 226.086C190.998 224.775 191.57 223.134 191.57 221.3C191.57 219.466 190.998 217.825 189.999 216.514C188.483 214.524 185.984 213.292 183.012 213.292C180.048 213.292 177.553 214.518 176.035 216.501C175.03 217.814 174.454 219.459 174.454 221.3C174.454 223.141 175.03 224.786 176.035 226.099ZM194.999 229H202.897C204.841 229 206.35 228.592 207.382 227.857C208.312 227.195 208.856 226.268 208.984 225.135C209.003 224.961 209.013 224.783 209.013 224.6C209.013 224.488 209.01 224.378 209.002 224.27C208.933 223.262 208.541 222.454 207.871 221.854C207.722 221.72 207.559 221.597 207.382 221.484C207.043 221.266 206.654 221.088 206.219 220.948C206.676 220.72 207.067 220.431 207.382 220.088C207.517 219.942 207.638 219.785 207.745 219.62C208.007 219.214 208.182 218.753 208.261 218.242C208.293 218.037 208.309 217.824 208.309 217.604C208.309 217.133 208.236 216.699 208.093 216.304C207.937 215.875 207.698 215.493 207.382 215.161C206.419 214.147 204.735 213.6 202.479 213.6H194.999V229ZM199.289 225.876H202.721C202.781 225.876 202.84 225.875 202.897 225.872C203.425 225.849 203.833 225.719 204.118 225.485C204.181 225.434 204.238 225.377 204.289 225.315C204.291 225.313 204.293 225.31 204.295 225.308C204.45 225.118 204.548 224.882 204.59 224.6C204.602 224.523 204.609 224.442 204.612 224.358C204.613 224.329 204.613 224.3 204.613 224.27C204.613 223.834 204.505 223.493 204.289 223.241C203.982 222.883 203.458 222.708 202.721 222.708H199.289V225.876ZM202.061 219.76C202.306 219.76 202.526 219.74 202.721 219.7C203.332 219.576 203.707 219.259 203.847 218.749C203.851 218.733 203.855 218.718 203.859 218.702C203.893 218.562 203.909 218.409 203.909 218.242C203.909 218.075 203.892 217.921 203.857 217.78C203.841 217.719 203.823 217.66 203.801 217.604C203.722 217.403 203.601 217.236 203.437 217.103C203.368 217.048 203.293 216.998 203.21 216.955C203.009 216.85 202.766 216.78 202.479 216.747C202.349 216.732 202.21 216.724 202.061 216.724H199.289V219.76H202.061ZM212.382 229H216.716V223.104H218.696L222.194 229H227.1L222.238 221.036L227.056 213.6H222.48L218.806 219.584H216.716V213.6H212.382V229ZM227.693 229H232.137L233.347 226.008H239.859L241.069 229H245.601L238.781 213.6H234.491L227.693 229ZM234.623 222.796H238.583L236.603 217.868L234.623 222.796ZM183.639 221.008C183.395 220.758 183.12 220.7 183.012 220.7C182.904 220.7 182.629 220.758 182.386 221.008C182.28 221.116 182.219 221.224 182.188 221.3C182.219 221.376 182.28 221.484 182.386 221.592C182.629 221.842 182.904 221.9 183.012 221.9C183.12 221.9 183.395 221.842 183.639 221.592C183.745 221.484 183.806 221.376 183.837 221.3C183.806 221.224 183.745 221.116 183.639 221.008ZM221.148 247.008C220.905 246.758 220.63 246.7 220.522 246.7C220.414 246.7 220.139 246.758 219.895 247.008C219.789 247.116 219.728 247.224 219.697 247.3C219.728 247.376 219.789 247.484 219.895 247.592C220.139 247.842 220.414 247.9 220.522 247.9C220.63 247.9 220.905 247.842 221.148 247.592C221.254 247.484 221.315 247.376 221.346 247.3C221.315 247.224 221.254 247.116 221.148 247.008ZM253.706 247.008C253.462 246.758 253.187 246.7 253.079 246.7C252.971 246.7 252.696 246.758 252.453 247.008C252.347 247.116 252.286 247.224 252.255 247.3C252.286 247.376 252.347 247.484 252.453 247.592C252.696 247.842 252.971 247.9 253.079 247.9C253.187 247.9 253.462 247.842 253.706 247.592C253.812 247.484 253.873 247.376 253.904 247.3C253.873 247.224 253.812 247.116 253.706 247.008ZM87.5812 265.6C87.5812 262.839 89.8197 260.6 92.5812 260.6H99.6212C101.82 260.6 104.042 261.029 105.997 262.068C106.903 261.161 108.154 260.6 109.537 260.6H121.615C122.721 260.6 123.743 260.959 124.572 261.568C125.401 260.959 126.424 260.6 127.528 260.6H139.936C142.698 260.6 144.936 262.839 144.936 265.6V266.138L146.065 263.581C146.865 261.769 148.659 260.6 150.639 260.6H154.929C156.907 260.6 158.7 261.766 159.501 263.575L159.746 264.129C160.374 262.085 162.277 260.6 164.526 260.6H168.86C169.933 260.6 170.928 260.938 171.742 261.514C172.573 260.928 173.576 260.6 174.624 260.6H179.2C179.372 260.6 179.543 260.609 179.712 260.626C179.882 260.609 180.054 260.6 180.228 260.6H193.956C195.325 260.6 196.565 261.15 197.468 262.041C199.513 260.914 201.896 260.292 204.417 260.292C207.361 260.292 210.118 261.141 212.366 262.651C213.276 261.408 214.746 260.6 216.404 260.6H223.444C226.359 260.6 229.315 261.355 231.636 263.283C232.088 263.658 232.498 264.064 232.866 264.495L233.27 263.581C234.07 261.769 235.864 260.6 237.844 260.6H242.134C244.113 260.6 245.905 261.766 246.706 263.575L253.526 278.975C254.211 280.522 254.067 282.31 253.145 283.727C252.222 285.145 250.646 286 248.954 286H244.422C242.522 286 240.8 284.925 239.956 283.248C239.113 284.925 237.39 286 235.49 286H231.046C229.356 286 227.78 285.146 226.857 283.73C226.461 283.123 226.209 282.447 226.103 281.752C225.967 281.775 225.831 281.797 225.694 281.817C225.304 284.19 223.244 286 220.76 286H216.404C214.746 286 213.276 285.192 212.366 283.949C210.118 285.459 207.361 286.308 204.417 286.308C200.361 286.308 196.661 284.697 194.155 281.964C193.706 284.264 191.679 286 189.248 286H184.958C183.896 286 182.911 285.669 182.101 285.104C181.276 285.677 180.283 286 179.244 286H174.338C173.349 286 172.4 285.708 171.599 285.183C170.813 285.7 169.871 286 168.86 286H164.526C164.043 286 163.577 285.932 163.135 285.804C162.69 285.933 162.224 286 161.749 286H157.217C155.317 286 153.595 284.925 152.751 283.248C151.908 284.925 150.185 286 148.285 286H146.654C145.906 287.82 144.116 289.102 142.026 289.102H138.044C135.955 289.102 134.165 287.82 133.417 286H132.815C132.068 287.82 130.278 289.102 128.188 289.102H124.184C122.095 289.102 120.305 287.82 119.557 286H109.537C106.827 286 104.621 283.844 104.539 281.155C103.677 281.469 102.781 281.686 101.871 281.817C101.481 284.19 99.4205 286 96.9372 286H92.5812C89.8197 286 87.5812 283.761 87.5812 281V265.6ZM92.5812 265.6V281H96.9372V276.974H99.6212C101.675 276.974 103.355 276.454 104.537 275.514C105.773 274.53 106.463 273.087 106.463 271.298C106.463 269.498 105.773 268.049 104.537 267.063C103.355 266.12 101.675 265.6 99.6212 265.6H92.5812ZM96.9372 269.032V273.542H99.3572C99.4474 273.542 99.5354 273.54 99.6212 273.536C100.879 273.475 101.651 272.97 101.937 272.127C102.021 271.879 102.063 271.602 102.063 271.298C102.063 270.989 102.021 270.709 101.937 270.458C101.651 269.604 100.879 269.099 99.6212 269.038C99.5354 269.034 99.4474 269.032 99.3572 269.032H96.9372ZM109.537 281H121.901V277.634H113.849V274.818H120.691V271.562H113.849V268.966H121.615V265.6H109.537V281ZM124.184 277.546V284.102H128.188V281H138.044V284.102H142.026V277.546H139.936V265.6H127.528L127.352 270.352C127.35 270.427 127.347 270.501 127.344 270.575C127.343 270.579 127.343 270.583 127.343 270.587C127.264 272.51 127.101 274.184 126.74 275.408C126.691 275.573 126.639 275.729 126.583 275.877C126.521 276.041 126.454 276.194 126.382 276.336C126.025 277.039 125.543 277.466 124.888 277.536C124.864 277.539 124.84 277.541 124.816 277.542C124.789 277.544 124.762 277.545 124.734 277.546H124.184ZM135.646 277.546V269.054H131.224L131.158 270.726C131.135 271.357 131.103 271.966 131.057 272.546C130.972 273.629 130.842 274.613 130.646 275.454C130.602 275.643 130.555 275.826 130.504 276C130.323 276.619 130.098 277.141 129.816 277.546H135.646ZM161.749 281L154.929 265.6H150.639L143.841 281H148.285L149.495 278.008H156.007L157.217 281H161.749ZM154.731 274.796L152.751 269.868L150.771 274.796H154.731ZM168.86 281V275.104H170.84L174.338 281H179.244L174.382 273.036L179.2 265.6H174.624L170.95 271.584H168.86V265.6H164.526V281H168.86ZM184.958 281H189.248V269.054H193.956V265.6H180.228V269.054H184.958V281ZM195.867 273.676C196.058 278.103 199.624 281.308 204.417 281.308C207.388 281.308 209.888 280.076 211.404 278.086C212.403 276.775 212.975 275.134 212.975 273.3C212.975 271.466 212.403 269.825 211.404 268.514C209.888 266.524 207.388 265.292 204.417 265.292C202.293 265.292 200.411 265.921 198.956 267.007C198.197 267.573 197.555 268.264 197.055 269.054C196.289 270.265 195.859 271.709 195.859 273.3C195.859 273.426 195.862 273.551 195.867 273.676ZM216.404 281H220.76V276.974H223.444C225.214 276.974 226.706 276.588 227.841 275.879C229.401 274.906 230.286 273.323 230.286 271.298C230.286 271.009 230.268 270.73 230.234 270.46C229.843 267.435 227.302 265.6 223.444 265.6H216.404V281ZM220.76 273.542H223.18C223.27 273.542 223.358 273.54 223.444 273.536C224.702 273.475 225.474 272.97 225.76 272.127C225.844 271.879 225.886 271.602 225.886 271.298C225.886 270.989 225.844 270.708 225.76 270.458C225.474 269.604 224.702 269.099 223.444 269.038C223.358 269.034 223.27 269.032 223.18 269.032H220.76V273.542ZM231.046 281H235.49L236.7 278.008H243.212L244.422 281H248.954L242.134 265.6H237.844L231.046 281ZM237.976 274.796H241.936L239.956 269.868L237.976 274.796ZM205.044 273.008C204.8 272.758 204.525 272.7 204.417 272.7C204.309 272.7 204.034 272.758 203.79 273.008C203.685 273.116 203.623 273.224 203.593 273.3C203.623 273.376 203.685 273.484 203.79 273.592C204.034 273.842 204.309 273.9 204.417 273.9C204.525 273.9 204.8 273.842 205.044 273.592C205.15 273.484 205.211 273.376 205.242 273.3C205.211 273.224 205.15 273.116 205.044 273.008ZM178.854 221.3C178.854 223.962 180.68 225.7 183.012 225.7C185.344 225.7 187.17 223.962 187.17 221.3C187.17 218.638 185.344 216.9 183.012 216.9C180.68 216.9 178.854 218.638 178.854 221.3ZM216.364 247.3C216.364 249.962 218.19 251.7 220.522 251.7C222.854 251.7 224.68 249.962 224.68 247.3C224.68 244.638 222.854 242.9 220.522 242.9C218.19 242.9 216.364 244.638 216.364 247.3ZM248.921 247.3C248.921 249.962 250.747 251.7 253.079 251.7C255.411 251.7 257.237 249.962 257.237 247.3C257.237 244.638 255.411 242.9 253.079 242.9C250.747 242.9 248.921 244.638 248.921 247.3ZM200.259 273.3C200.259 275.962 202.085 277.7 204.417 277.7C206.749 277.7 208.575 275.962 208.575 273.3C208.575 270.638 206.749 268.9 204.417 268.9C202.085 268.9 200.259 270.638 200.259 273.3Z" fill="white"/>
<rect x="16" y="303" width="304" height="70" rx="24" fill="white"/>
<rect x="16" y="397" width="125" height="43" rx="13" fill="white"/>
<rect x="195" y="397" width="125" height="43" rx="13" fill="white"/>
<path d="M62.5991 315.55L59.7236 321.098L56.9291 315.55H55.0526L58.8191 322.597L58.6706 322.826C58.2791 323.447 57.8201 323.704 57.2666 323.704C56.9831 323.704 56.6861 323.636 56.3486 323.528L55.9166 324.905C56.3891 325.108 56.8616 325.203 57.3071 325.203C58.4546 325.203 59.4941 324.555 60.2231 323.177L64.3271 315.55H62.5991ZM67.6935 325.095C69.0975 325.095 70.218 324.487 70.7715 323.407L69.4755 322.651C69.0435 323.339 68.3955 323.65 67.68 323.65C66.438 323.65 65.493 322.799 65.493 321.395C65.493 320.005 66.438 319.141 67.68 319.141C68.3955 319.141 69.0435 319.451 69.4755 320.14L70.7715 319.384C70.218 318.29 69.0975 317.71 67.6935 317.71C65.412 317.71 63.792 319.235 63.792 321.395C63.792 323.555 65.412 325.095 67.6935 325.095ZM77.4968 317.791H70.7468V319.222H73.2848V325H74.9723V319.222H77.4968V317.791ZM81.0024 317.71C79.8414 317.71 78.7209 318.007 77.9514 318.601L78.6129 319.829C79.1529 319.384 79.9899 319.114 80.7999 319.114C82.0014 319.114 82.5954 319.694 82.5954 320.68V320.788H80.7324C78.5454 320.788 77.7354 321.733 77.7354 322.934C77.7354 324.19 78.7749 325.095 80.4219 325.095C81.5019 325.095 82.2849 324.743 82.6899 324.122V325H84.2829V320.774C84.2829 318.695 83.0814 317.71 81.0024 317.71ZM80.7729 323.866C79.9089 323.866 79.3959 323.474 79.3959 322.867C79.3959 322.34 79.7064 321.908 80.8539 321.908H82.5954V322.745C82.3119 323.488 81.5964 323.866 80.7729 323.866ZM85.9661 325H87.6536V322.151H91.2851V325H92.9726V317.791H91.2851V320.72H87.6536V317.791H85.9661V325ZM98.0422 325.095C100.283 325.095 101.89 323.555 101.89 321.395C101.89 319.235 100.283 317.71 98.0422 317.71C95.8282 317.71 94.2082 319.235 94.2082 321.395C94.2082 323.555 95.8282 325.095 98.0422 325.095ZM98.0422 323.65C96.8272 323.65 95.9092 322.772 95.9092 321.395C95.9092 320.018 96.8272 319.141 98.0422 319.141C99.2707 319.141 100.189 320.018 100.189 321.395C100.189 322.772 99.2707 323.65 98.0422 323.65ZM108.376 321.247C109.065 320.95 109.483 320.396 109.483 319.654C109.483 318.466 108.43 317.791 106.675 317.791H103.152V325H106.824C108.768 325 109.713 324.244 109.713 322.975C109.713 322.097 109.267 321.517 108.376 321.247ZM104.758 319.019H106.527C107.391 319.019 107.836 319.303 107.836 319.897C107.836 320.491 107.391 320.801 106.527 320.801H104.758V319.019ZM106.689 323.771H104.758V321.922H106.743C107.661 321.922 108.079 322.232 108.079 322.867C108.079 323.488 107.593 323.771 106.689 323.771ZM111.105 325H112.658L116.627 320.248V325H118.314V317.791H116.775L112.793 322.543V317.791H111.105V325ZM125.89 317.791H119.14V319.222H121.678V325H123.365V319.222H125.89V317.791ZM133.142 321.436C133.142 319.181 131.603 317.71 129.497 317.71C127.351 317.71 125.771 319.249 125.771 321.395C125.771 323.542 127.337 325.095 129.754 325.095C130.996 325.095 132.008 324.689 132.656 323.92L131.752 322.88C131.239 323.407 130.604 323.663 129.794 323.663C128.539 323.663 127.661 322.988 127.459 321.935H133.115C133.129 321.773 133.142 321.571 133.142 321.436ZM129.497 319.06C130.604 319.06 131.401 319.775 131.536 320.815H127.445C127.607 319.762 128.404 319.06 129.497 319.06ZM141.81 318.142C140.703 318.142 139.758 318.587 139.124 319.357C139.272 317.791 140.096 316.981 141.837 316.616L144.875 315.995L144.632 314.483L141.284 315.199C138.719 315.739 137.504 317.426 137.504 320.315C137.504 323.461 138.962 325.135 141.432 325.135C143.7 325.135 145.28 323.717 145.28 321.598C145.28 319.559 143.876 318.142 141.81 318.142ZM141.473 323.771C140.231 323.771 139.367 322.894 139.367 321.638C139.367 320.383 140.217 319.573 141.473 319.573C142.715 319.573 143.552 320.383 143.552 321.638C143.552 322.88 142.715 323.771 141.473 323.771ZM153.258 321.436C153.258 319.181 151.719 317.71 149.613 317.71C147.467 317.71 145.887 319.249 145.887 321.395C145.887 323.542 147.453 325.095 149.87 325.095C151.112 325.095 152.124 324.689 152.772 323.92L151.868 322.88C151.355 323.407 150.72 323.663 149.91 323.663C148.655 323.663 147.777 322.988 147.575 321.935H153.231C153.245 321.773 153.258 321.571 153.258 321.436ZM149.613 319.06C150.72 319.06 151.517 319.775 151.652 320.815H147.561C147.723 319.762 148.52 319.06 149.613 319.06ZM157.98 325.095C159.384 325.095 160.504 324.487 161.058 323.407L159.762 322.651C159.33 323.339 158.682 323.65 157.966 323.65C156.724 323.65 155.779 322.799 155.779 321.395C155.779 320.005 156.724 319.141 157.966 319.141C158.682 319.141 159.33 319.451 159.762 320.14L161.058 319.384C160.504 318.29 159.384 317.71 157.98 317.71C155.698 317.71 154.078 319.235 154.078 321.395C154.078 323.555 155.698 325.095 157.98 325.095ZM162.138 317.791V325H163.826V319.222H167.376V325H169.05V317.791H162.138ZM171.624 317.791L171.503 320.572C171.422 322.07 171.381 323.609 170.274 323.609C170.18 323.609 170.072 323.596 169.95 323.569L169.869 324.986C170.22 325.081 170.531 325.135 170.801 325.135C172.502 325.135 172.88 323.218 173.001 320.653L173.069 319.222H175.769V325H177.456V317.791H171.624ZM182.01 317.71C180.849 317.71 179.729 318.007 178.959 318.601L179.621 319.829C180.161 319.384 180.998 319.114 181.808 319.114C183.009 319.114 183.603 319.694 183.603 320.68V320.788H181.74C179.553 320.788 178.743 321.733 178.743 322.934C178.743 324.19 179.783 325.095 181.43 325.095C182.51 325.095 183.293 324.743 183.698 324.122V325H185.291V320.774C185.291 318.695 184.089 317.71 182.01 317.71ZM181.781 323.866C180.917 323.866 180.404 323.474 180.404 322.867C180.404 322.34 180.714 321.908 181.862 321.908H183.603V322.745C183.32 323.488 182.604 323.866 181.781 323.866ZM192.685 317.791H185.935V319.222H188.473V325H190.16V319.222H192.685V317.791ZM193.504 325H195.191V322.151H198.823V325H200.51V317.791H198.823V320.72H195.191V317.791H193.504V325ZM205.58 325.095C207.821 325.095 209.427 323.555 209.427 321.395C209.427 319.235 207.821 317.71 205.58 317.71C203.366 317.71 201.746 319.235 201.746 321.395C201.746 323.555 203.366 325.095 205.58 325.095ZM205.58 323.65C204.365 323.65 203.447 322.772 203.447 321.395C203.447 320.018 204.365 319.141 205.58 319.141C206.808 319.141 207.726 320.018 207.726 321.395C207.726 322.772 206.808 323.65 205.58 323.65ZM217.439 321.436C217.439 319.181 215.9 317.71 213.794 317.71C211.648 317.71 210.068 319.249 210.068 321.395C210.068 323.542 211.634 325.095 214.051 325.095C215.293 325.095 216.305 324.689 216.953 323.92L216.049 322.88C215.536 323.407 214.901 323.663 214.091 323.663C212.836 323.663 211.958 322.988 211.756 321.935H217.412C217.426 321.773 217.439 321.571 217.439 321.436ZM213.794 319.06C214.901 319.06 215.698 319.775 215.833 320.815H211.742C211.904 319.762 212.701 319.06 213.794 319.06ZM222.206 325H223.758L227.727 320.248V325H229.415V317.791H227.876L223.893 322.543V317.791H222.206V325ZM243.219 325L243.205 317.791H241.626L238.939 322.3L236.374 317.791H234.606V325H236.145V320.207L238.534 324.244H239.263L241.693 320.221V325H243.219ZM251.827 321.436C251.827 319.181 250.288 317.71 248.182 317.71C246.036 317.71 244.456 319.249 244.456 321.395C244.456 323.542 246.022 325.095 248.439 325.095C249.681 325.095 250.693 324.689 251.341 323.92L250.437 322.88C249.924 323.407 249.289 323.663 248.479 323.663C247.224 323.663 246.346 322.988 246.144 321.935H251.8C251.814 321.773 251.827 321.571 251.827 321.436ZM248.182 319.06C249.289 319.06 250.086 319.775 250.221 320.815H246.13C246.292 319.762 247.089 319.06 248.182 319.06ZM253.268 325H254.956V322.151H258.587V325H260.275V317.791H258.587V320.72H254.956V317.791H253.268V325ZM268.881 321.436C268.881 319.181 267.342 317.71 265.236 317.71C263.09 317.71 261.51 319.249 261.51 321.395C261.51 323.542 263.076 325.095 265.493 325.095C266.735 325.095 267.747 324.689 268.395 323.92L267.491 322.88C266.978 323.407 266.343 323.663 265.533 323.663C264.278 323.663 263.4 322.988 263.198 321.935H268.854C268.868 321.773 268.881 321.571 268.881 321.436ZM265.236 319.06C266.343 319.06 267.14 319.775 267.275 320.815H263.184C263.346 319.762 264.143 319.06 265.236 319.06ZM277.072 321.436C277.072 319.181 275.533 317.71 273.427 317.71C271.28 317.71 269.701 319.249 269.701 321.395C269.701 323.542 271.267 325.095 273.683 325.095C274.925 325.095 275.938 324.689 276.586 323.92L275.681 322.88C275.168 323.407 274.534 323.663 273.724 323.663C272.468 323.663 271.591 322.988 271.388 321.935H277.045C277.058 321.773 277.072 321.571 277.072 321.436ZM273.427 319.06C274.534 319.06 275.33 319.775 275.465 320.815H271.375C271.537 319.762 272.333 319.06 273.427 319.06ZM26.4672 333.791V341H28.1547V335.222H31.7052V341H33.3792V333.791H26.4672ZM38.4642 341.095C40.7052 341.095 42.3117 339.555 42.3117 337.395C42.3117 335.235 40.7052 333.71 38.4642 333.71C36.2502 333.71 34.6302 335.235 34.6302 337.395C34.6302 339.555 36.2502 341.095 38.4642 341.095ZM38.4642 339.65C37.2492 339.65 36.3312 338.772 36.3312 337.395C36.3312 336.018 37.2492 335.141 38.4642 335.141C39.6927 335.141 40.6107 336.018 40.6107 337.395C40.6107 338.772 39.6927 339.65 38.4642 339.65ZM43.5737 333.791V341H45.2612V335.222H48.8117V341H50.4857V333.791H43.5737ZM57.5417 333.791L55.2602 339.123L52.9922 333.791H51.2372L54.3827 341.027L54.2612 341.311C53.9372 342.026 53.5862 342.31 52.9922 342.31C52.5332 342.31 52.0742 342.121 51.7502 341.81L51.0752 343.052C51.5342 343.471 52.2902 343.714 53.0057 343.714C54.2072 343.714 55.1252 343.214 55.7867 341.581L59.1617 333.791H57.5417ZM60.1825 333.791L60.061 336.572C59.98 338.07 59.9395 339.609 58.8325 339.609C58.738 339.609 58.63 339.596 58.5085 339.569L58.4275 340.986C58.7785 341.081 59.089 341.135 59.359 341.135C61.06 341.135 61.438 339.218 61.5595 336.653L61.627 335.222H64.327V341H66.0145V333.791H60.1825ZM70.6631 333.791C68.6516 333.791 67.3691 334.695 67.3691 336.383C67.3691 337.49 67.9496 338.246 68.9756 338.597L67.2746 341H69.0836L70.5551 338.826H72.4586V341H73.9706V333.791H70.6631ZM70.7171 335.208H72.4586V337.652H70.6631C69.6236 337.652 69.0836 337.274 69.0836 336.437C69.0836 335.573 69.6776 335.208 70.7171 335.208ZM79.8315 333.71C78.846 333.71 78.009 334.047 77.442 334.736V333.791H75.8355V343.619H77.523V340.122C78.1035 340.784 78.9135 341.095 79.8315 341.095C81.9375 341.095 83.49 339.636 83.49 337.395C83.49 335.168 81.9375 333.71 79.8315 333.71ZM79.6425 339.65C78.4275 339.65 77.496 338.772 77.496 337.395C77.496 336.018 78.4275 335.141 79.6425 335.141C80.8575 335.141 81.7755 336.018 81.7755 337.395C81.7755 338.772 80.8575 339.65 79.6425 339.65ZM84.7645 341H86.452V338.151H90.0835V341H91.771V333.791H90.0835V336.72H86.452V333.791H84.7645V341ZM96.8406 341.095C99.0816 341.095 100.688 339.555 100.688 337.395C100.688 335.235 99.0816 333.71 96.8406 333.71C94.6266 333.71 93.0066 335.235 93.0066 337.395C93.0066 339.555 94.6266 341.095 96.8406 341.095ZM96.8406 339.65C95.6256 339.65 94.7076 338.772 94.7076 337.395C94.7076 336.018 95.6256 335.141 96.8406 335.141C98.0691 335.141 98.9871 336.018 98.9871 337.395C98.9871 338.772 98.0691 339.65 96.8406 339.65ZM108.7 337.436C108.7 335.181 107.161 333.71 105.055 333.71C102.909 333.71 101.329 335.249 101.329 337.395C101.329 339.542 102.895 341.095 105.312 341.095C106.554 341.095 107.566 340.689 108.214 339.92L107.31 338.88C106.797 339.407 106.162 339.663 105.352 339.663C104.097 339.663 103.219 338.988 103.017 337.935H108.673C108.687 337.773 108.7 337.571 108.7 337.436ZM105.055 335.06C106.162 335.06 106.959 335.775 107.094 336.815H103.003C103.165 335.762 103.962 335.06 105.055 335.06ZM113.669 331.55V341H115.397V333.035H120.298V341H122.026V331.55H113.669ZM128.659 341.135C131.589 341.135 133.749 339.083 133.749 336.275C133.749 333.467 131.589 331.415 128.659 331.415C125.73 331.415 123.57 333.48 123.57 336.275C123.57 339.069 125.73 341.135 128.659 341.135ZM128.659 339.596C126.756 339.596 125.338 338.205 125.338 336.275C125.338 334.344 126.756 332.954 128.659 332.954C130.563 332.954 131.98 334.344 131.98 336.275C131.98 338.205 130.563 339.596 128.659 339.596ZM141.702 341.095C143.106 341.095 144.226 340.487 144.78 339.407L143.484 338.651C143.052 339.339 142.404 339.65 141.688 339.65C140.446 339.65 139.501 338.799 139.501 337.395C139.501 336.005 140.446 335.141 141.688 335.141C142.404 335.141 143.052 335.451 143.484 336.14L144.78 335.384C144.226 334.29 143.106 333.71 141.702 333.71C139.42 333.71 137.8 335.235 137.8 337.395C137.8 339.555 139.42 341.095 141.702 341.095ZM154.897 333.791H148.147V335.222H150.685V341H152.372V335.222H154.897V333.791ZM162.15 337.436C162.15 335.181 160.611 333.71 158.505 333.71C156.358 333.71 154.779 335.249 154.779 337.395C154.779 339.542 156.345 341.095 158.761 341.095C160.003 341.095 161.016 340.689 161.664 339.92L160.759 338.88C160.246 339.407 159.612 339.663 158.802 339.663C157.546 339.663 156.669 338.988 156.466 337.935H162.123C162.136 337.773 162.15 337.571 162.15 337.436ZM158.505 335.06C159.612 335.06 160.408 335.775 160.543 336.815H156.453C156.615 335.762 157.411 335.06 158.505 335.06ZM172.203 341L172.19 333.791H170.61L167.924 338.3L165.359 333.791H163.59V341H165.129V336.207L167.519 340.244H168.248L170.678 336.221V341H172.203ZM185.987 341H187.999L185.623 337.274L187.81 333.791H186.014L184.246 336.707H183.017V333.791H181.343V336.707H180.101L178.346 333.791H176.551L178.738 337.274L176.375 341H178.373L180.128 338.111H181.343V341H183.017V338.111H184.232L185.987 341ZM195.361 337.436C195.361 335.181 193.822 333.71 191.716 333.71C189.569 333.71 187.99 335.249 187.99 337.395C187.99 339.542 189.556 341.095 191.972 341.095C193.214 341.095 194.227 340.689 194.875 339.92L193.97 338.88C193.457 339.407 192.823 339.663 192.013 339.663C190.757 339.663 189.88 338.988 189.677 337.935H195.334C195.347 337.773 195.361 337.571 195.361 337.436ZM191.716 335.06C192.823 335.06 193.619 335.775 193.754 336.815H189.664C189.826 335.762 190.622 335.06 191.716 335.06ZM209.658 337.382C209.658 335.154 208.092 333.872 205.365 333.696V330.983H203.772V333.696C201.032 333.872 199.493 335.141 199.493 337.382C199.493 339.65 201.045 340.946 203.772 341.122V343.619H205.365V341.108C208.092 340.932 209.658 339.636 209.658 337.382ZM201.153 337.382C201.153 336.045 201.963 335.276 203.772 335.127V339.704C201.977 339.542 201.153 338.759 201.153 337.382ZM205.365 339.704V335.127C207.161 335.276 208.011 336.018 208.011 337.382C208.011 338.759 207.161 339.542 205.365 339.704ZM215.875 333.791L213.594 339.123L211.326 333.791H209.571L212.716 341.027L212.595 341.311C212.271 342.026 211.92 342.31 211.326 342.31C210.867 342.31 210.408 342.121 210.084 341.81L209.409 343.052C209.868 343.471 210.624 343.714 211.339 343.714C212.541 343.714 213.459 343.214 214.12 341.581L217.495 333.791H215.875ZM218.262 341H219.95V338.151H223.581V341H225.269V333.791H223.581V336.72H219.95V333.791H218.262V341ZM232.296 341H234.28L231.486 337.26L234.105 333.791H232.296L230.163 336.707H228.813V333.791H227.125V341H228.813V338.111H230.122L232.296 341ZM241.883 339.569V333.791H240.195V339.569H236.753V333.791H235.065V341H241.397V342.661H242.976V339.569H241.883ZM244.073 341H245.626L249.595 336.248V341H251.282V333.791H249.743L245.761 338.543V333.791H244.073V341ZM256.361 341.095C258.602 341.095 260.208 339.555 260.208 337.395C260.208 335.235 258.602 333.71 256.361 333.71C254.147 333.71 252.527 335.235 252.527 337.395C252.527 339.555 254.147 341.095 256.361 341.095ZM256.361 339.65C255.146 339.65 254.228 338.772 254.228 337.395C254.228 336.018 255.146 335.141 256.361 335.141C257.589 335.141 258.507 336.018 258.507 337.395C258.507 338.772 257.589 339.65 256.361 339.65ZM261.47 341H263.158V338.151H266.789V341H268.477V333.791H266.789V336.72H263.158V333.791H261.47V341ZM273.02 333.71C271.859 333.71 270.738 334.007 269.969 334.601L270.63 335.829C271.17 335.384 272.007 335.114 272.817 335.114C274.019 335.114 274.613 335.694 274.613 336.68V336.788H272.75C270.563 336.788 269.753 337.733 269.753 338.934C269.753 340.19 270.792 341.095 272.439 341.095C273.519 341.095 274.302 340.743 274.707 340.122V341H276.3V336.774C276.3 334.695 275.099 333.71 273.02 333.71ZM272.79 339.866C271.926 339.866 271.413 339.474 271.413 338.867C271.413 338.34 271.724 337.908 272.871 337.908H274.613V338.745C274.329 339.488 273.614 339.866 272.79 339.866ZM278.685 333.791L278.564 336.572C278.483 338.07 278.442 339.609 277.335 339.609C277.241 339.609 277.133 339.596 277.011 339.569L276.93 340.986C277.281 341.081 277.592 341.135 277.862 341.135C279.563 341.135 279.941 339.218 280.062 336.653L280.13 335.222H282.83V341H284.517V333.791H278.685ZM289.598 341.095C291.839 341.095 293.445 339.555 293.445 337.395C293.445 335.235 291.839 333.71 289.598 333.71C287.384 333.71 285.764 335.235 285.764 337.395C285.764 339.555 287.384 341.095 289.598 341.095ZM289.598 339.65C288.383 339.65 287.465 338.772 287.465 337.395C287.465 336.018 288.383 335.141 289.598 335.141C290.826 335.141 291.744 336.018 291.744 337.395C291.744 338.772 290.826 339.65 289.598 339.65ZM303.32 341L303.307 333.791H301.727L299.041 338.3L296.476 333.791H294.707V341H296.246V336.207L298.636 340.244H299.365L301.795 336.221V341H303.32ZM305.705 338.853C305.084 338.853 304.612 339.299 304.612 339.974C304.612 340.46 304.868 340.811 305.246 340.973L304.706 343.039H305.8L306.488 341.135C306.731 340.514 306.799 340.271 306.799 339.974C306.799 339.312 306.34 338.853 305.705 338.853ZM37.3971 357H39.3816L36.5871 353.26L39.2061 349.791H37.3971L35.2641 352.707H33.9141V349.791H32.2266V357H33.9141V354.111H35.2236L37.3971 357ZM43.1425 357.095C45.3835 357.095 46.99 355.555 46.99 353.395C46.99 351.235 45.3835 349.71 43.1425 349.71C40.9285 349.71 39.3085 351.235 39.3085 353.395C39.3085 355.555 40.9285 357.095 43.1425 357.095ZM43.1425 355.65C41.9275 355.65 41.0095 354.772 41.0095 353.395C41.0095 352.018 41.9275 351.141 43.1425 351.141C44.371 351.141 45.289 352.018 45.289 353.395C45.289 354.772 44.371 355.65 43.1425 355.65ZM53.6989 349.791H46.9489V351.222H49.4869V357H51.1744V351.222H53.6989V349.791ZM57.4145 357.095C59.6555 357.095 61.262 355.555 61.262 353.395C61.262 351.235 59.6555 349.71 57.4145 349.71C55.2005 349.71 53.5805 351.235 53.5805 353.395C53.5805 355.555 55.2005 357.095 57.4145 357.095ZM57.4145 355.65C56.1995 355.65 55.2815 354.772 55.2815 353.395C55.2815 352.018 56.1995 351.141 57.4145 351.141C58.643 351.141 59.561 352.018 59.561 353.395C59.561 354.772 58.643 355.65 57.4145 355.65ZM66.5201 349.71C65.5346 349.71 64.6976 350.047 64.1306 350.736V349.791H62.5241V359.619H64.2116V356.122C64.7921 356.784 65.6021 357.095 66.5201 357.095C68.6261 357.095 70.1786 355.636 70.1786 353.395C70.1786 351.168 68.6261 349.71 66.5201 349.71ZM66.3311 355.65C65.1161 355.65 64.1846 354.772 64.1846 353.395C64.1846 352.018 65.1161 351.141 66.3311 351.141C67.5461 351.141 68.4641 352.018 68.4641 353.395C68.4641 354.772 67.5461 355.65 66.3311 355.65ZM74.6661 357.095C76.9071 357.095 78.5136 355.555 78.5136 353.395C78.5136 351.235 76.9071 349.71 74.6661 349.71C72.4521 349.71 70.8321 351.235 70.8321 353.395C70.8321 355.555 72.4521 357.095 74.6661 357.095ZM74.6661 355.65C73.4511 355.65 72.5331 354.772 72.5331 353.395C72.5331 352.018 73.4511 351.141 74.6661 351.141C75.8946 351.141 76.8126 352.018 76.8126 353.395C76.8126 354.772 75.8946 355.65 74.6661 355.65ZM86.5256 353.436C86.5256 351.181 84.9866 349.71 82.8806 349.71C80.7341 349.71 79.1546 351.249 79.1546 353.395C79.1546 355.542 80.7206 357.095 83.1371 357.095C84.3791 357.095 85.3916 356.689 86.0396 355.92L85.1351 354.88C84.6221 355.407 83.9876 355.663 83.1776 355.663C81.9221 355.663 81.0446 354.988 80.8421 353.935H86.4986C86.5121 353.773 86.5256 353.571 86.5256 353.436ZM82.8806 351.06C83.9876 351.06 84.7841 351.775 84.9191 352.815H80.8286C80.9906 351.762 81.7871 351.06 82.8806 351.06ZM91.2922 357H92.9797V354.151H96.6112V357H98.2987V349.791H96.6112V352.72H92.9797V349.791H91.2922V357ZM102.842 349.71C101.681 349.71 100.56 350.007 99.7908 350.601L100.452 351.829C100.992 351.384 101.829 351.114 102.639 351.114C103.841 351.114 104.435 351.694 104.435 352.68V352.788H102.572C100.385 352.788 99.5748 353.733 99.5748 354.934C99.5748 356.19 100.614 357.095 102.261 357.095C103.341 357.095 104.124 356.743 104.529 356.122V357H106.122V352.774C106.122 350.695 104.921 349.71 102.842 349.71ZM102.612 355.866C101.748 355.866 101.235 355.474 101.235 354.867C101.235 354.34 101.546 353.908 102.693 353.908H104.435V354.745C104.151 355.488 103.436 355.866 102.612 355.866ZM114.218 357L111.396 353.314L114.096 349.791H112.274L110.505 352.153L108.737 349.791H106.86L109.547 353.341L106.739 357H108.602L110.465 354.502L112.314 357H114.218ZM117.996 357.095C120.237 357.095 121.844 355.555 121.844 353.395C121.844 351.235 120.237 349.71 117.996 349.71C115.782 349.71 114.162 351.235 114.162 353.395C114.162 355.555 115.782 357.095 117.996 357.095ZM117.996 355.65C116.781 355.65 115.863 354.772 115.863 353.395C115.863 352.018 116.781 351.141 117.996 351.141C119.225 351.141 120.143 352.018 120.143 353.395C120.143 354.772 119.225 355.65 117.996 355.65ZM129.655 355.569V349.791H123.715L123.621 352.261C123.54 353.949 123.364 355.528 122.352 355.569H122.014V358.607H123.58V357H129.142V358.607H130.722V355.569H129.655ZM125.16 352.383L125.2 351.222H127.968V355.569H124.417C124.998 355.016 125.106 353.733 125.16 352.383ZM131.824 357H133.376L137.345 352.248V357H139.033V349.791H137.494L133.511 354.543V349.791H131.824V357ZM146.608 349.791H139.858V351.222H142.396V357H144.084V351.222H146.608V349.791ZM150.392 357.095C151.796 357.095 152.916 356.487 153.47 355.407L152.174 354.651C151.742 355.339 151.094 355.65 150.378 355.65C149.136 355.65 148.191 354.799 148.191 353.395C148.191 352.005 149.136 351.141 150.378 351.141C151.094 351.141 151.742 351.451 152.174 352.14L153.47 351.384C152.916 350.29 151.796 349.71 150.392 349.71C148.11 349.71 146.49 351.235 146.49 353.395C146.49 355.555 148.11 357.095 150.392 357.095ZM157.134 349.791C155.122 349.791 153.84 350.695 153.84 352.383C153.84 353.49 154.42 354.246 155.446 354.597L153.745 357H155.554L157.026 354.826H158.929V357H160.441V349.791H157.134ZM157.188 351.208H158.929V353.652H157.134C156.094 353.652 155.554 353.274 155.554 352.437C155.554 351.573 156.148 351.208 157.188 351.208ZM170.856 353.247C171.545 352.95 171.963 352.396 171.963 351.654C171.963 350.466 170.91 349.791 169.155 349.791H165.632V357H169.304C171.248 357 172.193 356.244 172.193 354.975C172.193 354.097 171.747 353.517 170.856 353.247ZM167.238 351.019H169.007C169.871 351.019 170.316 351.303 170.316 351.897C170.316 352.491 169.871 352.801 169.007 352.801H167.238V351.019ZM169.169 355.771H167.238V353.922H169.223C170.141 353.922 170.559 354.232 170.559 354.867C170.559 355.488 170.073 355.771 169.169 355.771ZM180.124 357.095C182.365 357.095 183.972 355.555 183.972 353.395C183.972 351.235 182.365 349.71 180.124 349.71C177.91 349.71 176.29 351.235 176.29 353.395C176.29 355.555 177.91 357.095 180.124 357.095ZM180.124 355.65C178.909 355.65 177.991 354.772 177.991 353.395C177.991 352.018 178.909 351.141 180.124 351.141C181.353 351.141 182.271 352.018 182.271 353.395C182.271 354.772 181.353 355.65 180.124 355.65ZM190.681 349.791H183.931V351.222H186.469V357H188.156V351.222H190.681V349.791ZM196.67 357H198.655L195.86 353.26L198.479 349.791H196.67L194.537 352.707H193.187V349.791H191.5V357H193.187V354.111H194.497L196.67 357ZM203.436 349.71C202.45 349.71 201.613 350.047 201.046 350.736V349.791H199.44V359.619H201.127V356.122C201.708 356.784 202.518 357.095 203.436 357.095C205.542 357.095 207.094 355.636 207.094 353.395C207.094 351.168 205.542 349.71 203.436 349.71ZM203.247 355.65C202.032 355.65 201.1 354.772 201.1 353.395C201.1 352.018 202.032 351.141 203.247 351.141C204.462 351.141 205.38 352.018 205.38 353.395C205.38 354.772 204.462 355.65 203.247 355.65ZM211.879 352.167L210.056 352.153V349.791H208.369V357L211.636 357.014C213.607 357.027 214.714 356.122 214.714 354.543C214.714 353.044 213.728 352.167 211.879 352.167ZM215.645 357H217.333V349.791H215.645V357ZM211.487 355.771L210.056 355.758V353.314L211.487 353.328C212.486 353.341 213.013 353.692 213.013 354.516C213.013 355.353 212.473 355.785 211.487 355.771ZM224.907 349.791H218.157V351.222H220.695V357H222.382V351.222H224.907V349.791ZM228.622 357.095C230.863 357.095 232.47 355.555 232.47 353.395C232.47 351.235 230.863 349.71 228.622 349.71C226.408 349.71 224.788 351.235 224.788 353.395C224.788 355.555 226.408 357.095 228.622 357.095ZM228.622 355.65C227.407 355.65 226.489 354.772 226.489 353.395C226.489 352.018 227.407 351.141 228.622 351.141C229.851 351.141 230.769 352.018 230.769 353.395C230.769 354.772 229.851 355.65 228.622 355.65ZM242.345 357L242.332 349.791H240.752L238.066 354.3L235.501 349.791H233.732V357H235.271V352.207L237.661 356.244H238.39L240.82 352.221V357H242.345ZM254.158 355.569V349.791H248.218L248.123 352.261C248.042 353.949 247.867 355.528 246.854 355.569H246.517V358.607H248.083V357H253.645V358.607H255.224V355.569H254.158ZM249.662 352.383L249.703 351.222H252.47V355.569H248.92C249.5 355.016 249.608 353.733 249.662 352.383ZM259.54 357.095C261.781 357.095 263.387 355.555 263.387 353.395C263.387 351.235 261.781 349.71 259.54 349.71C257.326 349.71 255.706 351.235 255.706 353.395C255.706 355.555 257.326 357.095 259.54 357.095ZM259.54 355.65C258.325 355.65 257.407 354.772 257.407 353.395C257.407 352.018 258.325 351.141 259.54 351.141C260.768 351.141 261.686 352.018 261.686 353.395C261.686 354.772 260.768 355.65 259.54 355.65ZM267.93 357.095C269.334 357.095 270.454 356.487 271.008 355.407L269.712 354.651C269.28 355.339 268.632 355.65 267.916 355.65C266.674 355.65 265.729 354.799 265.729 353.395C265.729 352.005 266.674 351.141 267.916 351.141C268.632 351.141 269.28 351.451 269.712 352.14L271.008 351.384C270.454 350.29 269.334 349.71 267.93 349.71C265.648 349.71 264.028 351.235 264.028 353.395C264.028 355.555 265.648 357.095 267.93 357.095ZM277.733 349.791H270.983V351.222H273.521V357H275.208V351.222H277.733V349.791ZM283.789 349.791L281.507 355.123L279.239 349.791H277.484L280.63 357.027L280.508 357.311C280.184 358.026 279.833 358.31 279.239 358.31C278.78 358.31 278.321 358.121 277.997 357.81L277.322 359.052C277.781 359.471 278.537 359.714 279.253 359.714C280.454 359.714 281.372 359.214 282.034 357.581L285.409 349.791H283.789ZM286.176 349.791V357H287.863V351.222H291.414V357H293.088V349.791H286.176ZM301.71 353.436C301.71 351.181 300.171 349.71 298.065 349.71C295.918 349.71 294.339 351.249 294.339 353.395C294.339 355.542 295.905 357.095 298.321 357.095C299.563 357.095 300.576 356.689 301.224 355.92L300.319 354.88C299.806 355.407 299.172 355.663 298.362 355.663C297.106 355.663 296.229 354.988 296.026 353.935H301.683C301.696 353.773 301.71 353.571 301.71 353.436ZM298.065 351.06C299.172 351.06 299.968 351.775 300.103 352.815H296.013C296.175 351.762 296.971 351.06 298.065 351.06ZM303.664 357.095C304.271 357.095 304.771 356.622 304.771 355.974C304.771 355.299 304.271 354.853 303.664 354.853C303.056 354.853 302.557 355.299 302.557 355.974C302.557 356.622 303.056 357.095 303.664 357.095Z" fill="black"/>
<path d="M252 5C252 26.7477 243.361 47.6048 227.983 62.9828C212.605 78.3607 191.748 87 170 87C148.252 87 127.395 78.3607 112.017 62.9828C96.6393 47.6048 88 26.7478 88 5.00002L170 5H252Z" fill="white"/>
<path d="M48.032 423.216C48.032 414.96 35.328 417.52 35.328 414.096C35.328 412.976 36.288 412.08 38.944 412.08C40.896 412.08 43.008 412.656 45.152 413.808L47.104 409.104C45.312 408.048 42.976 407.408 40.608 407.216V403.76H36.768V407.28C31.584 407.92 29.056 410.896 29.056 414.416C29.056 422.736 41.792 420.144 41.792 423.696C41.792 424.784 40.768 425.52 38.144 425.52C35.552 425.52 32.736 424.624 30.752 423.312L28.672 427.984C30.528 429.264 33.568 430.192 36.768 430.416V433.84H40.608V430.288C45.6 429.552 48.032 426.608 48.032 423.216Z" fill="#00BCBC"/>
<path d="M67.58 417.26H66.44L66.66 414.6H72.5V412H63.96L63.24 419.88H66.82C69.36 419.88 70.08 420.6 70.08 421.7C70.08 422.84 69.08 423.52 67.46 423.52C66 423.52 64.54 423.06 63.48 422.26L62.2 424.74C63.56 425.7 65.6 426.24 67.54 426.24C71.54 426.24 73.36 424.08 73.36 421.6C73.36 419.12 71.72 417.26 67.58 417.26ZM86.3386 426.24C89.7986 426.24 92.3386 423.62 92.3386 419C92.3386 414.38 89.7986 411.76 86.3386 411.76C82.8986 411.76 80.3386 414.38 80.3386 419C80.3386 423.62 82.8986 426.24 86.3386 426.24ZM86.3386 423.5C84.7386 423.5 83.6186 422.18 83.6186 419C83.6186 415.82 84.7386 414.5 86.3386 414.5C87.9586 414.5 89.0786 415.82 89.0786 419C89.0786 422.18 87.9586 423.5 86.3386 423.5ZM99.9128 426.24C103.373 426.24 105.913 423.62 105.913 419C105.913 414.38 103.373 411.76 99.9128 411.76C96.4728 411.76 93.9128 414.38 93.9128 419C93.9128 423.62 96.4728 426.24 99.9128 426.24ZM99.9128 423.5C98.3128 423.5 97.1928 422.18 97.1928 419C97.1928 415.82 98.3128 414.5 99.9128 414.5C101.533 414.5 102.653 415.82 102.653 419C102.653 422.18 101.533 423.5 99.9128 423.5ZM113.487 426.24C116.947 426.24 119.487 423.62 119.487 419C119.487 414.38 116.947 411.76 113.487 411.76C110.047 411.76 107.487 414.38 107.487 419C107.487 423.62 110.047 426.24 113.487 426.24ZM113.487 423.5C111.887 423.5 110.767 422.18 110.767 419C110.767 415.82 111.887 414.5 113.487 414.5C115.107 414.5 116.227 415.82 116.227 419C116.227 422.18 115.107 423.5 113.487 423.5Z" fill="black"/>
<path d="M237.14 412V414.6H239.94V426H243.18V412H237.14ZM251.612 426.24C255.072 426.24 257.612 423.62 257.612 419C257.612 414.38 255.072 411.76 251.612 411.76C248.172 411.76 245.612 414.38 245.612 419C245.612 423.62 248.172 426.24 251.612 426.24ZM251.612 423.5C250.012 423.5 248.892 422.18 248.892 419C248.892 415.82 250.012 414.5 251.612 414.5C253.232 414.5 254.352 415.82 254.352 419C254.352 422.18 253.232 423.5 251.612 423.5ZM278.89 426L278.85 415.24H275.93L272.27 421.46L268.83 415.24H265.57V426H268.39V419.54L271.53 424.96H272.85L276.07 419.56V426H278.89ZM281.879 426H284.759L289.979 419.6V426H293.079V415.24H290.219L284.979 421.64V415.24H281.879V426ZM296.078 426H299.178V421.98H303.858V426H306.978V415.24H303.858V419.44H299.178V415.24H296.078V426Z" fill="black"/>
<g filter="url(#filter0_di)">
<path d="M199.783 121.165C197.001 118.384 193.917 116.014 190.608 114.081H201.634C202.903 117.78 206.413 120.446 210.537 120.446C215.726 120.446 219.948 116.225 219.948 111.035C219.948 105.846 215.726 101.624 210.537 101.624C206.413 101.624 202.903 104.291 201.634 107.99H178.009V101H157.939V107.99H134.314C133.045 104.291 129.535 101.624 125.411 101.624C120.222 101.624 116 105.846 116 111.035C116 116.225 120.222 120.446 125.411 120.446C129.535 120.446 133.045 117.779 134.314 114.081H145.34C142.031 116.014 138.947 118.384 136.165 121.165C130.087 127.244 125.964 134.756 124.109 142.939H116V163.009H136.07V142.939H130.396C133.976 129.544 144.544 118.976 157.939 115.396V121.053H178.009V115.396C191.404 118.976 201.972 129.544 205.553 142.939H199.878V163.009H219.948V142.939H211.839C209.984 134.756 205.861 127.244 199.783 121.165Z" fill="white"/>
<path d="M153.804 169L151 174.422V191H185V174.422L182.196 169H153.804Z" fill="white"/>
<path d="M175.769 125H171.019V148.75H164.929V125H160.179C157.024 132.408 152.545 139.416 146.815 145.881L145.449 147.422L153.606 163.737H182.342L190.498 147.422L189.133 145.881C183.404 139.416 178.925 132.408 175.769 125Z" fill="white"/>
</g>
<path d="M216.5 406C209.595 406 204 411.595 204 418.5C204 425.405 209.595 431 216.5 431C223.405 431 229 425.405 229 418.5C229 411.595 223.405 406 216.5 406Z" fill="#00BCBC"/>
<path fill-rule="evenodd" clip-rule="evenodd" d="M215.961 410C214.878 410 214 410.878 214 411.961V419.153C214 419.311 214.019 419.464 214.054 419.611C214.047 420.263 214.376 420.901 214.974 421.262L220.414 424.535C221.313 425.077 222.481 424.786 223.022 423.887C223.563 422.988 223.273 421.82 222.374 421.279L217.923 418.6V411.961C217.923 410.878 217.045 410 215.961 410Z" fill="white"/>
<g filter="url(#filter1_d)">
<path d="M162.531 400.393L185.975 433.213C179.766 434.57 168.698 428.331 168.698 428.331C168.698 428.331 160.834 438.706 154.912 440L162.531 400.393Z" fill="white"/>
<path fill-rule="evenodd" clip-rule="evenodd" d="M154.912 440L158.469 421.51C161.522 424.284 164.956 426.604 168.698 428.331C168.698 428.331 160.834 438.706 154.912 440Z" fill="#BBFFF9"/>
</g>
<path d="M138.793 25.4V34.274H146.333V66H157.817V25.4H138.793ZM184.744 66.812C195.068 66.812 202.608 59.098 202.608 45.7C202.608 32.302 195.068 24.588 184.744 24.588C174.362 24.588 166.822 32.302 166.822 45.7C166.822 59.098 174.362 66.812 184.744 66.812ZM184.744 57.416C181.032 57.416 178.364 54.226 178.364 45.7C178.364 37.174 181.032 33.984 184.744 33.984C188.398 33.984 191.066 37.174 191.066 45.7C191.066 54.226 188.398 57.416 184.744 57.416Z" fill="#46BBCE"/>
<defs>
<filter id="filter0_di" x="110" y="95" width="123.948" height="110" filterUnits="userSpaceOnUse" color-interpolation-filters="sRGB">
<feFlood flood-opacity="0" result="BackgroundImageFix"/>
<feColorMatrix in="SourceAlpha" type="matrix" values="0 0 0 0 0 0 0 0 0 0 0 0 0 0 0 0 0 0 127 0"/>
<feOffset dx="4" dy="4"/>
<feGaussianBlur stdDeviation="5"/>
<feColorMatrix type="matrix" values="0 0 0 0 0.1715 0 0 0 0 0.816667 0 0 0 0 0.816667 0 0 0 1 0"/>
<feBlend mode="normal" in2="BackgroundImageFix" result="effect1_dropShadow"/>
<feBlend mode="normal" in="SourceGraphic" in2="effect1_dropShadow" result="shape"/>
<feColorMatrix in="SourceAlpha" type="matrix" values="0 0 0 0 0 0 0 0 0 0 0 0 0 0 0 0 0 0 127 0" result="hardAlpha"/>
<feOffset dx="-4" dy="-4"/>
<feGaussianBlur stdDeviation="4.5"/>
<feComposite in2="hardAlpha" operator="arithmetic" k2="-1" k3="1"/>
<feColorMatrix type="matrix" values="0 0 0 0 0.441945 0 0 0 0 0.887146 0 0 0 0 0.895833 0 0 0 0.52 0"/>
<feBlend mode="normal" in2="shape" result="effect2_innerShadow"/>
</filter>
<filter id="filter1_d" x="150.912" y="396.393" width="45.0628" height="53.6066" filterUnits="userSpaceOnUse" color-interpolation-filters="sRGB">
<feFlood flood-opacity="0" result="BackgroundImageFix"/>
<feColorMatrix in="SourceAlpha" type="matrix" values="0 0 0 0 0 0 0 0 0 0 0 0 0 0 0 0 0 0 127 0"/>
<feOffset dx="3" dy="3"/>
<feGaussianBlur stdDeviation="3.5"/>
<feColorMatrix type="matrix" values="0 0 0 0 0.279 0 0 0 0 0.9 0 0 0 0 0.840225 0 0 0 1 0"/>
<feBlend mode="normal" in2="BackgroundImageFix" result="effect1_dropShadow"/>
<feBlend mode="normal" in="SourceGraphic" in2="effect1_dropShadow" result="shape"/>
</filter>
<linearGradient id="paint0_linear" x1="5.5" y1="-157" x2="289.5" y2="495.5" gradientUnits="userSpaceOnUse">
<stop stop-color="#00C2FF"/>
<stop offset="1" stop-color="#1EE7CF"/>
</linearGradient>
<linearGradient id="paint1_linear" x1="49" y1="11" x2="301.5" y2="474" gradientUnits="userSpaceOnUse">
<stop stop-color="#19D2EB"/>
<stop offset="1" stop-color="#55F5DF"/>
</linearGradient>
<linearGradient id="paint2_linear" x1="59.5" y1="-9" x2="291.5" y2="495.5" gradientUnits="userSpaceOnUse">
<stop stop-color="#00E0FF"/>
<stop offset="1" stop-color="#42F2D1"/>
</linearGradient>
<linearGradient id="paint3_linear" x1="51" y1="11" x2="303.5" y2="474" gradientUnits="userSpaceOnUse">
<stop stop-color="#B2F6FF"/>
<stop offset="1" stop-color="#28D7BE"/>
</linearGradient>
<linearGradient id="paint4_linear" x1="27" y1="473.49" x2="247.084" y2="60.8524" gradientUnits="userSpaceOnUse">
<stop stop-color="#73F5FF"/>
<stop offset="0.99" stop-color="#7AFFEC"/>
</linearGradient>
<linearGradient id="paint5_linear" x1="129.774" y1="288" x2="310" y2="288" gradientUnits="userSpaceOnUse">
<stop stop-color="white"/>
<stop offset="0.99" stop-color="white" stop-opacity="0.4"/>
</linearGradient>
<linearGradient id="paint6_linear" x1="59.8997" y1="86" x2="140" y2="86" gradientUnits="userSpaceOnUse">
<stop stop-color="white"/>
<stop offset="0.99" stop-color="white" stop-opacity="0.4"/>
</linearGradient>
</defs>
</svg>
