<svg width="338" height="474" viewBox="0 0 338 474" fill="none" xmlns="http://www.w3.org/2000/svg">
<rect x="2.5" y="2.5" width="331" height="469" rx="32.5" fill="url(#paint0_linear)" stroke="url(#paint1_linear)" stroke-width="5"/>
<mask id="mask0" mask-type="alpha" maskUnits="userSpaceOnUse" x="2" y="0" width="336" height="474">
<rect x="-2.5" y="2.5" width="331" height="469" rx="41.5" transform="matrix(-1 0 0 1 333 0)" fill="url(#paint2_linear)" stroke="url(#paint3_linear)" stroke-width="5"/>
</mask>
<g mask="url(#mask0)">
<path d="M129.747 5.0093C129.747 5.0093 234.654 47.0947 238.632 101.845C242.609 156.595 219.132 152.615 226.093 185.086C233.053 217.557 347.517 255.616 316.691 356.766C285.865 457.916 188.416 370.584 85 469H301C317.569 469 331 455.569 331 439V35.0014C331 18.4323 317.568 5.00062 300.999 5.00139L129.747 5.0093Z" fill="url(#paint4_linear)" fill-opacity="0.5"/>
</g>
<path opacity="0.46" d="M114.88 323C95.8977 322.976 77.349 317.326 61.5777 306.763C45.8065 296.199 33.5206 281.198 26.2731 263.654C19.0255 246.11 17.1416 226.812 20.8594 208.198C24.5771 189.583 33.7297 172.489 47.1603 159.075C60.591 145.661 77.6967 136.53 96.3156 132.836C114.934 129.141 134.231 131.05 151.765 138.319C169.3 145.589 184.286 157.893 194.829 173.678C205.373 189.462 211 208.018 211 227C210.955 252.468 200.81 276.878 182.79 294.875C164.771 312.873 140.348 322.987 114.88 323ZM114.88 157.396C101.117 157.415 87.6698 161.514 76.2362 169.173C64.8026 176.833 55.8964 187.71 50.643 200.431C45.3896 213.151 44.025 227.143 46.7215 240.638C49.4181 254.133 56.0547 266.527 65.7928 276.251C75.5309 285.976 87.9332 292.595 101.432 295.273C114.931 297.951 128.921 296.567 141.634 291.296C154.347 286.025 165.212 277.104 172.856 265.66C180.5 254.215 184.58 240.762 184.58 227C184.522 208.55 177.154 190.874 164.09 177.846C151.026 164.818 133.33 157.499 114.88 157.493V157.396Z" fill="url(#paint5_linear)" fill-opacity="0.7"/>
<path opacity="0.46" d="M216.95 105C209.041 104.99 201.312 102.636 194.741 98.2344C188.169 93.8331 183.05 87.5825 180.03 80.2726C177.011 72.9627 176.226 64.9216 177.775 57.1657C179.324 49.4097 183.137 42.2871 188.733 36.698C194.33 31.1089 201.457 27.3043 209.215 25.7649C216.973 24.2256 225.013 25.0207 232.319 28.0496C239.625 31.0786 245.869 36.2055 250.262 42.7824C254.655 49.3593 257 57.0909 257 65C256.981 75.6116 252.754 85.7826 245.246 93.2815C237.738 100.78 227.561 104.995 216.95 105ZM216.95 35.9985C211.216 36.0064 205.612 37.7141 200.848 40.9056C196.084 44.0972 192.373 48.6294 190.185 53.9294C187.996 59.2294 187.427 65.0594 188.551 70.6825C189.674 76.3056 192.439 81.4694 196.497 85.5213C200.555 89.5732 205.722 92.3314 211.347 93.4472C216.971 94.5629 222.801 93.9863 228.098 91.79C233.395 89.5938 237.922 85.8766 241.107 81.1082C244.292 76.3398 245.991 70.7342 245.991 65C245.968 57.3124 242.898 49.9477 237.454 44.5193C232.011 39.0908 224.637 36.0412 216.95 36.0386V35.9985Z" fill="url(#paint6_linear)"/>
<path d="M66.7229 248.864C63.6029 248.864 61.0829 249.992 59.4509 252.032L62.4509 254.768C63.5309 253.496 64.8509 252.8 66.4829 252.8C68.4749 252.8 69.9389 253.928 70.4909 255.776H64.4669V259.28H70.5389C70.0109 261.2 68.5229 262.4 66.4829 262.4C64.8509 262.4 63.5309 261.704 62.4509 260.432L59.4509 263.168C61.0829 265.208 63.6029 266.336 66.7229 266.336C71.8829 266.336 75.5789 262.712 75.5789 257.6C75.5789 252.488 71.8829 248.864 66.7229 248.864Z" fill="black"/>
<path d="M92.6431 249.2H77.6671V252.968H82.8271V266H87.5071V252.968H92.6431V249.2Z" fill="black"/>
<path d="M104.055 266.336C109.431 266.336 113.391 262.64 113.391 257.6C113.391 252.56 109.431 248.864 104.055 248.864C98.6793 248.864 94.7193 252.56 94.7193 257.6C94.7193 262.64 98.6793 266.336 104.055 266.336ZM104.055 262.4C101.511 262.4 99.5193 260.504 99.5193 257.6C99.5193 254.696 101.511 252.8 104.055 252.8C106.599 252.8 108.591 254.696 108.591 257.6C108.591 260.504 106.599 262.4 104.055 262.4Z" fill="black"/>
<path d="M125.316 266H133.716C138.084 266 140.652 264.008 140.652 260.6C140.652 257.36 138.42 255.584 134.34 255.584H129.996V252.872H139.356V249.2H125.316V266ZM129.996 262.592V258.968H133.404C135.036 258.968 135.852 259.544 135.852 260.744C135.852 261.944 134.988 262.592 133.404 262.592H129.996Z" fill="black"/>
<path d="M152.874 254.552H148.986V249.2H144.306V266H152.25C156.618 266 159.33 263.96 159.33 260.024C159.33 256.352 156.954 254.552 152.874 254.552ZM161.178 266H165.858V249.2H161.178V266ZM151.938 262.592H148.986V257.936H151.938C153.546 257.936 154.554 258.536 154.554 260.12C154.554 261.704 153.522 262.592 151.938 262.592Z" fill="black"/>
<path d="M172.767 249.2L172.527 255.896C172.383 259.688 172.023 262.184 170.079 262.184C169.863 262.184 169.647 262.16 169.431 262.112L169.167 266C169.959 266.192 170.679 266.288 171.327 266.288C175.599 266.288 176.487 262.256 176.703 255.704L176.799 252.968H181.623V266H186.303V249.2H172.767Z" fill="black"/>
<path d="M207.465 266.336C210.561 266.336 213.057 265.208 214.689 263.168L211.665 260.432C210.609 261.704 209.313 262.4 207.705 262.4C204.945 262.4 203.025 260.48 203.025 257.6C203.025 254.72 204.945 252.8 207.705 252.8C209.313 252.8 210.609 253.496 211.665 254.768L214.689 252.032C213.057 249.992 210.561 248.864 207.465 248.864C202.137 248.864 198.225 252.488 198.225 257.6C198.225 262.712 202.137 266.336 207.465 266.336Z" fill="black"/>
<path d="M218.035 249.2V266H222.715V252.968H229.099V266H233.803V249.2H218.035Z" fill="black"/>
<path d="M251.507 266H256.451L249.011 249.2H244.331L236.915 266H241.763L243.083 262.736H250.187L251.507 266ZM244.475 259.232L246.635 253.856L248.795 259.232H244.475Z" fill="black"/>
<path d="M279.112 266L279.064 249.2H275.152L269.392 258.896L263.488 249.2H259.576V266H263.944V257.288L268.264 264.344H270.376L274.696 257.096L274.72 266H279.112Z" fill="black"/>
<path fill-rule="evenodd" clip-rule="evenodd" d="M56.0815 255.726C54.1339 253.95 53.8997 250.967 55.5464 248.909C58.2813 245.49 62.3488 243.864 66.7228 243.864C69.4305 243.864 71.919 244.553 74.0174 245.782C74.9297 244.808 76.2273 244.2 77.667 244.2H92.643C94.1341 244.2 95.4729 244.853 96.3889 245.888C98.6173 244.587 101.253 243.864 104.055 243.864C111.871 243.864 118.391 249.487 118.391 257.6C118.391 265.713 111.871 271.336 104.055 271.336C99.3612 271.336 95.1346 269.308 92.507 265.93V266C92.507 268.761 90.2684 271 87.507 271H82.827C80.0815 271 77.8528 268.787 77.8272 266.048C75.3334 269.325 71.3477 271.336 66.7228 271.336C62.3488 271.336 58.2813 269.71 55.5464 266.291C53.8997 264.233 54.1339 261.25 56.0815 259.474L58.136 257.6L56.0815 255.726ZM75.5124 258.767C75.5563 258.388 75.5788 257.999 75.5788 257.6C75.5788 257.571 75.5786 257.541 75.5784 257.512C75.5745 257.047 75.54 256.594 75.4764 256.156C75.3881 255.547 75.2438 254.965 75.0482 254.415C74.8666 253.904 74.6408 253.421 74.3743 252.968C73.9182 252.193 73.343 251.508 72.667 250.931C71.1334 249.621 69.0809 248.864 66.7228 248.864C66.6424 248.864 66.5624 248.865 66.4828 248.866C65.529 248.884 64.6331 249.009 63.8036 249.235C62.3737 249.624 61.1412 250.312 60.1493 251.266C59.9012 251.505 59.6681 251.76 59.4508 252.032L62.4508 254.768C62.5079 254.701 62.5658 254.635 62.6243 254.571C62.6805 254.509 62.7373 254.449 62.7948 254.391C63.3005 253.876 63.8556 253.479 64.4668 253.21C65.0802 252.94 65.75 252.8 66.4828 252.8C66.5636 252.8 66.6437 252.802 66.7228 252.806C67.9895 252.865 69.0265 253.394 69.7282 254.28C70.0621 254.702 70.32 255.204 70.4908 255.776H64.4668V259.28H70.5388C70.5236 259.335 70.5076 259.39 70.4908 259.444C70.336 259.943 70.1143 260.39 69.8334 260.776C69.1289 261.745 68.0519 262.332 66.7228 262.394C66.6436 262.398 66.5636 262.4 66.4828 262.4C65.75 262.4 65.0802 262.26 64.4668 261.99C63.8556 261.721 63.3005 261.324 62.7948 260.809C62.7373 260.751 62.6805 260.691 62.6243 260.629C62.5658 260.565 62.5079 260.499 62.4508 260.432L59.4508 263.168C59.6681 263.44 59.9012 263.695 60.1493 263.934C61.1412 264.888 62.3737 265.576 63.8036 265.965C64.6331 266.191 65.529 266.316 66.4828 266.334C66.5624 266.335 66.6424 266.336 66.7228 266.336C70.8231 266.336 73.999 264.048 75.1305 260.543C75.3119 259.981 75.4407 259.388 75.5124 258.767ZM82.827 266H87.507V252.968H92.643V249.2H77.667V252.968H82.827V266ZM94.7195 257.518C94.7193 257.545 94.7191 257.573 94.7191 257.6C94.7191 262.64 98.6791 266.336 104.055 266.336C109.431 266.336 113.391 262.64 113.391 257.6C113.391 252.56 109.431 248.864 104.055 248.864C101.511 248.864 99.2833 249.692 97.643 251.099C97.0109 251.641 96.466 252.268 96.0237 252.968C95.2018 254.268 94.7341 255.815 94.7195 257.518ZM104.055 257.4C104.046 257.401 104.005 257.406 103.941 257.432C103.86 257.465 103.772 257.522 103.697 257.599C103.697 257.599 103.696 257.6 103.696 257.6C103.696 257.6 103.697 257.601 103.697 257.601C103.772 257.679 103.86 257.735 103.941 257.768C104.005 257.794 104.046 257.799 104.055 257.8C104.064 257.799 104.105 257.794 104.169 257.768C104.25 257.735 104.338 257.679 104.413 257.601C104.414 257.601 104.414 257.6 104.415 257.6C104.414 257.6 104.414 257.599 104.413 257.599C104.338 257.522 104.25 257.465 104.169 257.432C104.105 257.406 104.064 257.401 104.055 257.4ZM125.316 271C122.555 271 120.316 268.761 120.316 266V249.2C120.316 246.439 122.555 244.2 125.316 244.2H139.356C140.257 244.2 141.101 244.438 141.831 244.854C142.561 244.438 143.405 244.2 144.305 244.2H148.985C151.747 244.2 153.985 246.439 153.985 249.2V249.587C154.712 249.632 155.448 249.727 156.177 249.884V249.2C156.177 246.439 158.416 244.2 161.177 244.2H165.857C167.197 244.2 168.414 244.727 169.312 245.585C170.211 244.726 171.429 244.2 172.766 244.2H186.302C189.064 244.2 191.302 246.439 191.302 249.2V266C191.302 268.761 189.064 271 186.302 271H181.622C179.988 271 178.537 270.216 177.624 269.003C177.369 269.231 177.096 269.449 176.802 269.654C175.12 270.83 173.211 271.288 171.326 271.288C170.195 271.288 169.072 271.122 167.988 270.859C167.826 270.82 167.668 270.773 167.514 270.719C166.995 270.901 166.438 271 165.857 271H161.177C159.993 271 158.905 270.588 158.048 269.9C156.201 270.699 154.187 271 152.249 271H144.305C142.844 271 141.529 270.373 140.615 269.374C138.513 270.561 136.082 271 133.716 271H125.316ZM144.305 266H152.249C153.776 266 155.1 265.751 156.177 265.259C158.157 264.354 159.3 262.628 159.329 260.12C159.329 260.088 159.329 260.056 159.329 260.024C159.329 257.499 158.206 255.859 156.177 255.081C155.256 254.728 154.148 254.552 152.873 254.552H148.985V249.2H144.305V266ZM148.985 262.592H151.937C152.044 262.592 152.148 262.588 152.249 262.58C152.986 262.522 153.584 262.255 153.985 261.801C154.35 261.389 154.553 260.823 154.553 260.12C154.553 260.088 154.553 260.056 154.552 260.024C154.535 259.365 154.335 258.884 153.985 258.551C153.706 258.285 153.329 258.113 152.873 258.02C152.591 257.963 152.278 257.936 151.937 257.936H148.985V262.592ZM139.356 249.2H125.316V266H133.716C136.218 266 138.129 265.347 139.305 264.148C140.154 263.284 140.621 262.135 140.651 260.744C140.652 260.696 140.652 260.648 140.652 260.6C140.652 259.511 140.4 258.588 139.911 257.842C139.751 257.598 139.566 257.373 139.356 257.168C139.34 257.152 139.323 257.135 139.305 257.119C138.242 256.113 136.566 255.584 134.34 255.584H129.996V252.872H139.356V249.2ZM129.996 258.968V262.592H133.404C133.512 262.592 133.616 262.589 133.716 262.583C134.233 262.553 134.662 262.445 134.996 262.263C135.549 261.962 135.844 261.46 135.852 260.775C135.852 260.765 135.852 260.754 135.852 260.744C135.852 260.741 135.852 260.738 135.852 260.735C135.852 260.689 135.851 260.644 135.848 260.6C135.812 259.967 135.528 259.523 134.996 259.26C134.809 259.167 134.59 259.096 134.34 259.048C134.066 258.994 133.754 258.968 133.404 258.968H129.996ZM165.857 266V249.2H161.177V266H165.857ZM181.622 266H186.302V249.2H172.766L172.526 255.896C172.421 258.672 172.2 260.753 171.326 261.669C171.187 261.815 171.032 261.932 170.857 262.016C170.692 262.097 170.51 262.149 170.308 262.172C170.238 262.179 170.166 262.184 170.091 262.184C170.087 262.184 170.083 262.184 170.078 262.184C169.862 262.184 169.646 262.16 169.43 262.112L169.166 266C169.482 266.076 169.786 266.138 170.078 266.184C170.345 266.226 170.602 266.255 170.85 266.272C171.013 266.283 171.172 266.288 171.326 266.288C171.667 266.288 171.986 266.262 172.286 266.212C173.058 266.081 173.696 265.785 174.223 265.336C175.813 263.981 176.396 261.237 176.622 257.467C176.65 257.011 176.672 256.54 176.69 256.054C176.69 256.051 176.69 256.048 176.69 256.045C176.695 255.932 176.699 255.819 176.702 255.704L176.798 252.968H181.622V266ZM213.035 264.723C213.388 264.475 213.719 264.2 214.027 263.899C214.261 263.67 214.482 263.427 214.688 263.168L211.664 260.432C211.611 260.496 211.557 260.559 211.503 260.62C211.424 260.708 211.344 260.794 211.262 260.876C210.284 261.865 209.114 262.4 207.704 262.4C207.624 262.4 207.544 262.398 207.464 262.395C204.834 262.287 203.024 260.396 203.024 257.6C203.024 254.804 204.834 252.913 207.464 252.805C207.544 252.802 207.624 252.8 207.704 252.8C209.114 252.8 210.284 253.335 211.262 254.324C211.344 254.406 211.424 254.492 211.503 254.58C211.557 254.641 211.611 254.704 211.664 254.768L214.688 252.032C214.482 251.773 214.261 251.53 214.027 251.301C213.719 251 213.388 250.725 213.035 250.477C212.241 249.92 211.337 249.499 210.335 249.228C209.52 249.007 208.64 248.884 207.704 248.866C207.625 248.865 207.545 248.864 207.464 248.864C202.136 248.864 198.224 252.488 198.224 257.6C198.224 262.712 202.136 266.336 207.464 266.336C207.545 266.336 207.625 266.335 207.704 266.334C208.64 266.316 209.52 266.193 210.335 265.972C211.337 265.701 212.241 265.28 213.035 264.723ZM214.594 245.572C212.463 244.425 210.021 243.864 207.464 243.864C199.672 243.864 193.224 249.439 193.224 257.6C193.224 265.761 199.672 271.336 207.464 271.336C210.021 271.336 212.463 270.775 214.594 269.628C215.49 270.478 216.702 271 218.035 271H222.715C223.929 271 225.041 270.568 225.907 269.849C226.773 270.568 227.886 271 229.099 271H233.803C234.347 271 234.871 270.913 235.361 270.753C235.856 270.914 236.379 271 236.914 271H241.762C243.8 271 245.634 269.764 246.398 267.875L246.454 267.736H246.815L246.871 267.875C247.635 269.764 249.469 271 251.506 271H256.45C256.988 271 257.514 270.914 258.011 270.75C258.503 270.912 259.029 271 259.576 271H263.944C265.435 271 266.774 270.347 267.69 269.311C267.879 269.333 268.071 269.344 268.264 269.344H270.376C270.576 269.344 270.775 269.332 270.971 269.309C271.887 270.346 273.227 271 274.72 271H279.112C280.44 271 281.714 270.471 282.652 269.53C283.59 268.59 284.115 267.314 284.112 265.986L284.064 249.186C284.056 246.43 281.82 244.2 279.064 244.2H275.152C273.388 244.2 271.754 245.13 270.853 246.646L269.339 249.195L267.758 246.6C266.851 245.109 265.232 244.2 263.488 244.2H259.576C256.814 244.2 254.576 246.439 254.576 249.2V249.419L253.582 247.175C252.781 245.366 250.989 244.2 249.01 244.2H244.33C242.35 244.2 240.556 245.369 239.756 247.181L238.803 249.34V249.2C238.803 246.439 236.565 244.2 233.803 244.2H218.035C216.702 244.2 215.49 244.722 214.594 245.572ZM218.035 249.2V266H222.715V252.968H229.099V266H233.803V249.2H218.035ZM256.45 266L249.01 249.2H244.33L236.914 266H241.762L243.082 262.736H250.186L251.506 266H256.45ZM246.634 253.856L244.474 259.232H248.794L246.634 253.856ZM259.576 266H263.944V257.288L268.264 264.344H270.376L274.696 257.096L274.72 266H279.112V265.988L279.064 249.2H275.152L269.392 258.896L263.488 249.2H259.576V266ZM99.5191 257.6C99.5191 260.504 101.511 262.4 104.055 262.4C106.599 262.4 108.591 260.504 108.591 257.6C108.591 254.696 106.599 252.8 104.055 252.8C101.511 252.8 99.5191 254.696 99.5191 257.6Z" fill="white"/>
<rect x="16" y="300" width="304" height="73" rx="24" fill="white"/>
<rect x="16" y="397" width="125" height="43" rx="13" fill="white"/>
<rect x="195" y="397" width="125" height="43" rx="13" fill="white"/>
<path d="M66.6907 322.2V332H68.4827V323.74H73.5647V332H75.3567V322.2H66.6907ZM82.068 324.44C81.046 324.44 80.178 324.79 79.59 325.504V324.524H77.924V334.716H79.674V331.09C80.276 331.776 81.116 332.098 82.068 332.098C84.252 332.098 85.862 330.586 85.862 328.262C85.862 325.952 84.252 324.44 82.068 324.44ZM81.872 330.6C80.612 330.6 79.646 329.69 79.646 328.262C79.646 326.834 80.612 325.924 81.872 325.924C83.132 325.924 84.084 326.834 84.084 328.262C84.084 329.69 83.132 330.6 81.872 330.6ZM87.6037 332H89.2137L93.3297 327.072V332H95.0797V324.524H93.4837L89.3537 329.452V324.524H87.6037V332ZM106.702 324.524V330.516H103.832V324.524H102.082V330.516H99.1838V324.524H97.4338V332H108.452V324.524H106.702ZM117.805 328.304C117.805 325.966 116.209 324.44 114.025 324.44C111.799 324.44 110.161 326.036 110.161 328.262C110.161 330.488 111.785 332.098 114.291 332.098C115.579 332.098 116.629 331.678 117.301 330.88L116.363 329.802C115.831 330.348 115.173 330.614 114.333 330.614C113.031 330.614 112.121 329.914 111.911 328.822H117.777C117.791 328.654 117.805 328.444 117.805 328.304ZM114.025 325.84C115.173 325.84 115.999 326.582 116.139 327.66H111.897C112.065 326.568 112.891 325.84 114.025 325.84ZM120.351 324.524L120.225 327.408C120.141 328.962 120.099 330.558 118.951 330.558C118.853 330.558 118.741 330.544 118.615 330.516L118.531 331.986C118.895 332.084 119.217 332.14 119.497 332.14C121.261 332.14 121.653 330.152 121.779 327.492L121.849 326.008H124.649V332H126.399V324.524H120.351ZM135.957 332.098C138.281 332.098 139.947 330.502 139.947 328.262C139.947 326.022 138.281 324.44 135.957 324.44C133.661 324.44 131.981 326.022 131.981 328.262C131.981 330.502 133.661 332.098 135.957 332.098ZM135.957 330.6C134.697 330.6 133.745 329.69 133.745 328.262C133.745 326.834 134.697 325.924 135.957 325.924C137.231 325.924 138.183 326.834 138.183 328.262C138.183 329.69 137.231 330.6 135.957 330.6ZM146.268 324.524V327.8C145.666 328.08 145.008 328.22 144.392 328.22C143.384 328.22 142.782 327.786 142.782 326.806V324.524H141.032V326.918C141.032 328.78 142.124 329.62 144.014 329.62C144.84 329.62 145.596 329.424 146.268 329.102V332H148.018V324.524H146.268ZM157.371 328.304C157.371 325.966 155.775 324.44 153.591 324.44C151.365 324.44 149.727 326.036 149.727 328.262C149.727 330.488 151.351 332.098 153.857 332.098C155.145 332.098 156.195 331.678 156.867 330.88L155.929 329.802C155.397 330.348 154.739 330.614 153.899 330.614C152.597 330.614 151.687 329.914 151.477 328.822H157.343C157.357 328.654 157.371 328.444 157.371 328.304ZM153.591 325.84C154.739 325.84 155.565 326.582 155.705 327.66H151.463C151.631 326.568 152.457 325.84 153.591 325.84ZM163.429 324.44C162.407 324.44 161.539 324.79 160.951 325.504V324.524H159.285V334.716H161.035V331.09C161.637 331.776 162.477 332.098 163.429 332.098C165.613 332.098 167.223 330.586 167.223 328.262C167.223 325.952 165.613 324.44 163.429 324.44ZM163.233 330.6C161.973 330.6 161.007 329.69 161.007 328.262C161.007 326.834 161.973 325.924 163.233 325.924C164.493 325.924 165.445 326.834 165.445 328.262C165.445 329.69 164.493 330.6 163.233 330.6ZM175.965 328.304C175.965 325.966 174.369 324.44 172.185 324.44C169.959 324.44 168.321 326.036 168.321 328.262C168.321 330.488 169.945 332.098 172.451 332.098C173.739 332.098 174.789 331.678 175.461 330.88L174.523 329.802C173.991 330.348 173.333 330.614 172.493 330.614C171.191 330.614 170.281 329.914 170.071 328.822H175.937C175.951 328.654 175.965 328.444 175.965 328.304ZM172.185 325.84C173.333 325.84 174.159 326.582 174.299 327.66H170.057C170.225 326.568 171.051 325.84 172.185 325.84ZM184.657 330.516V324.524H178.497L178.399 327.086C178.315 328.836 178.133 330.474 177.083 330.516H176.733V333.666H178.357V332H184.125V333.666H185.763V330.516H184.657ZM179.995 327.212L180.037 326.008H182.907V330.516H179.225C179.827 329.942 179.939 328.612 179.995 327.212ZM187.326 332H189.076V329.046H192.842V332H194.592V324.524H192.842V327.562H189.076V324.524H187.326V332ZM200.27 332.098C202.594 332.098 204.26 330.502 204.26 328.262C204.26 326.022 202.594 324.44 200.27 324.44C197.974 324.44 196.294 326.022 196.294 328.262C196.294 330.502 197.974 332.098 200.27 332.098ZM200.27 330.6C199.01 330.6 198.058 329.69 198.058 328.262C198.058 326.834 199.01 325.924 200.27 325.924C201.544 325.924 202.496 326.834 202.496 328.262C202.496 329.69 201.544 330.6 200.27 330.6ZM209.615 323.642C211.113 323.642 211.939 322.942 211.967 321.584H210.777C210.763 322.256 210.315 322.676 209.601 322.676C208.873 322.676 208.453 322.256 208.439 321.584H207.277C207.291 322.942 208.117 323.642 209.615 323.642ZM205.989 332H207.599L211.715 327.072V332H213.465V324.524H211.869L207.739 329.452V324.524H205.989V332ZM224.392 332.14C226.002 332.14 227.374 331.566 228.284 330.502L227.108 329.382C226.394 330.166 225.512 330.544 224.49 330.544C222.46 330.544 220.99 329.116 220.99 327.1C220.99 325.084 222.46 323.656 224.49 323.656C225.512 323.656 226.394 324.034 227.108 324.804L228.284 323.698C227.374 322.634 226.002 322.06 224.406 322.06C221.396 322.06 219.156 324.174 219.156 327.1C219.156 330.026 221.396 332.14 224.392 332.14ZM229.988 322.2V332H231.78V323.74H236.862V332H238.654V322.2H229.988ZM248.893 332H250.797L246.373 322.2H244.581L240.171 332H242.047L243.013 329.732H247.913L248.893 332ZM243.629 328.304L245.463 324.02L247.311 328.304H243.629ZM263.038 332L263.01 322.2H261.526L257.69 328.682L253.812 322.2H252.314V332H254.036V325.588L257.256 330.88H258.068L261.288 325.504L261.302 332H263.038ZM266.13 329.774C265.486 329.774 264.996 330.236 264.996 330.936C264.996 331.44 265.262 331.804 265.654 331.972L265.094 334.114H266.228L266.942 332.14C267.194 331.496 267.264 331.244 267.264 330.936C267.264 330.25 266.788 329.774 266.13 329.774ZM118.047 340.524L115.681 346.054L113.329 340.524H111.509L114.771 348.028L114.645 348.322C114.309 349.064 113.945 349.358 113.329 349.358C112.853 349.358 112.377 349.162 112.041 348.84L111.341 350.128C111.817 350.562 112.601 350.814 113.343 350.814C114.589 350.814 115.541 350.296 116.227 348.602L119.727 340.524H118.047ZM127.352 346.516V340.524H121.192L121.094 343.086C121.01 344.836 120.828 346.474 119.778 346.516H119.428V349.666H121.052V348H126.82V349.666H128.458V346.516H127.352ZM122.69 343.212L122.732 342.008H125.602V346.516H121.92C122.522 345.942 122.634 344.612 122.69 343.212ZM132.807 340.44C131.603 340.44 130.441 340.748 129.643 341.364L130.329 342.638C130.889 342.176 131.757 341.896 132.597 341.896C133.843 341.896 134.459 342.498 134.459 343.52V343.632H132.527C130.259 343.632 129.419 344.612 129.419 345.858C129.419 347.16 130.497 348.098 132.205 348.098C133.325 348.098 134.137 347.734 134.557 347.09V348H136.209V343.618C136.209 341.462 134.963 340.44 132.807 340.44ZM132.569 346.824C131.673 346.824 131.141 346.418 131.141 345.788C131.141 345.242 131.463 344.794 132.653 344.794H134.459V345.662C134.165 346.432 133.423 346.824 132.569 346.824ZM139.102 340.524L138.976 343.408C138.892 344.962 138.85 346.558 137.702 346.558C137.604 346.558 137.492 346.544 137.366 346.516L137.282 347.986C137.646 348.084 137.968 348.14 138.248 348.14C140.012 348.14 140.404 346.152 140.53 343.492L140.6 342.008H143.4V348H145.15V340.524H139.102ZM154.339 340.44C152.393 340.44 150.895 341.63 150.545 343.422H149.257V340.524H147.507V348H149.257V345.004H150.517C150.839 346.852 152.351 348.098 154.339 348.098C156.593 348.098 158.231 346.502 158.231 344.262C158.231 342.008 156.593 340.44 154.339 340.44ZM154.339 346.614C153.121 346.614 152.197 345.704 152.197 344.262C152.197 342.82 153.121 341.924 154.339 341.924C155.557 341.924 156.495 342.82 156.495 344.262C156.495 345.704 155.557 346.614 154.339 346.614ZM159.679 344.836H163.529V343.38H159.679V344.836ZM170.834 348H172.892L169.994 344.122L172.71 340.524H170.834L168.622 343.548H167.222V340.524H165.472V348H167.222V345.004H168.58L170.834 348ZM176.775 340.44C175.571 340.44 174.409 340.748 173.611 341.364L174.297 342.638C174.857 342.176 175.725 341.896 176.565 341.896C177.811 341.896 178.427 342.498 178.427 343.52V343.632H176.495C174.227 343.632 173.387 344.612 173.387 345.858C173.387 347.16 174.465 348.098 176.173 348.098C177.293 348.098 178.105 347.734 178.525 347.09V348H180.177V343.618C180.177 341.462 178.931 340.44 176.775 340.44ZM176.537 346.824C175.641 346.824 175.109 346.418 175.109 345.788C175.109 345.242 175.431 344.794 176.621 344.794H178.427V345.662C178.133 346.432 177.391 346.824 176.537 346.824ZM189.096 340.524C187.01 340.524 185.68 341.462 185.68 343.212C185.68 344.36 186.282 345.144 187.346 345.508L185.582 348H187.458L188.984 345.746H190.958V348H192.526V340.524H189.096ZM189.152 341.994H190.958V344.528H189.096C188.018 344.528 187.458 344.136 187.458 343.268C187.458 342.372 188.074 341.994 189.152 341.994ZM205.749 344.304C205.749 341.966 204.153 340.44 201.969 340.44C199.743 340.44 198.105 342.036 198.105 344.262C198.105 346.488 199.729 348.098 202.235 348.098C203.523 348.098 204.573 347.678 205.245 346.88L204.307 345.802C203.775 346.348 203.117 346.614 202.277 346.614C200.975 346.614 200.065 345.914 199.855 344.822H205.721C205.735 344.654 205.749 344.444 205.749 344.304ZM201.969 341.84C203.117 341.84 203.943 342.582 204.083 343.66H199.841C200.009 342.568 200.835 341.84 201.969 341.84ZM213.403 340.524H207.663V348H209.413V342.008H213.403V340.524ZM217.681 348.098C220.005 348.098 221.671 346.502 221.671 344.262C221.671 342.022 220.005 340.44 217.681 340.44C215.385 340.44 213.705 342.022 213.705 344.262C213.705 346.502 215.385 348.098 217.681 348.098ZM217.681 346.6C216.421 346.6 215.469 345.69 215.469 344.262C215.469 342.834 216.421 341.924 217.681 341.924C218.955 341.924 219.907 342.834 219.907 344.262C219.907 345.69 218.955 346.6 217.681 346.6ZM223.795 348.098C224.425 348.098 224.943 347.608 224.943 346.936C224.943 346.236 224.425 345.774 223.795 345.774C223.165 345.774 222.647 346.236 222.647 346.936C222.647 347.608 223.165 348.098 223.795 348.098Z" fill="black"/>
<path d="M250 5C250 26.7477 241.361 47.6048 225.983 62.9828C210.605 78.3607 189.748 87 168 87C146.252 87 125.395 78.3607 110.017 62.9828C94.6393 47.6048 86 26.7478 86 5.00002L168 5H250Z" fill="white"/>
<path d="M48.032 423.216C48.032 414.96 35.328 417.52 35.328 414.096C35.328 412.976 36.288 412.08 38.944 412.08C40.896 412.08 43.008 412.656 45.152 413.808L47.104 409.104C45.312 408.048 42.976 407.408 40.608 407.216V403.76H36.768V407.28C31.584 407.92 29.056 410.896 29.056 414.416C29.056 422.736 41.792 420.144 41.792 423.696C41.792 424.784 40.768 425.52 38.144 425.52C35.552 425.52 32.736 424.624 30.752 423.312L28.672 427.984C30.528 429.264 33.568 430.192 36.768 430.416V433.84H40.608V430.288C45.6 429.552 48.032 426.608 48.032 423.216Z" fill="#2862F3"/>
<path d="M71.6 420.42H69.32V417.8H66.26V420.42H62.5L68.62 412H65.22L58.62 420.88V423.06H66.16V426H69.32V423.06H71.6V420.42ZM77.33 417.26H76.19L76.41 414.6H82.25V412H73.71L72.99 419.88H76.57C79.11 419.88 79.83 420.6 79.83 421.7C79.83 422.84 78.83 423.52 77.21 423.52C75.75 423.52 74.29 423.06 73.23 422.26L71.95 424.74C73.31 425.7 75.35 426.24 77.29 426.24C81.29 426.24 83.11 424.08 83.11 421.6C83.11 419.12 81.47 417.26 77.33 417.26ZM96.0886 426.24C99.5486 426.24 102.089 423.62 102.089 419C102.089 414.38 99.5486 411.76 96.0886 411.76C92.6486 411.76 90.0886 414.38 90.0886 419C90.0886 423.62 92.6486 426.24 96.0886 426.24ZM96.0886 423.5C94.4886 423.5 93.3686 422.18 93.3686 419C93.3686 415.82 94.4886 414.5 96.0886 414.5C97.7086 414.5 98.8286 415.82 98.8286 419C98.8286 422.18 97.7086 423.5 96.0886 423.5ZM109.663 426.24C113.123 426.24 115.663 423.62 115.663 419C115.663 414.38 113.123 411.76 109.663 411.76C106.223 411.76 103.663 414.38 103.663 419C103.663 423.62 106.223 426.24 109.663 426.24ZM109.663 423.5C108.063 423.5 106.943 422.18 106.943 419C106.943 415.82 108.063 414.5 109.663 414.5C111.283 414.5 112.403 415.82 112.403 419C112.403 422.18 111.283 423.5 109.663 423.5ZM123.237 426.24C126.697 426.24 129.237 423.62 129.237 419C129.237 414.38 126.697 411.76 123.237 411.76C119.797 411.76 117.237 414.38 117.237 419C117.237 423.62 119.797 426.24 123.237 426.24ZM123.237 423.5C121.637 423.5 120.517 422.18 120.517 419C120.517 415.82 121.637 414.5 123.237 414.5C124.857 414.5 125.977 415.82 125.977 419C125.977 422.18 124.857 423.5 123.237 423.5Z" fill="black"/>
<path d="M241.22 423.36L244.44 420.32C246.4 418.5 246.78 417.26 246.78 415.9C246.78 413.36 244.7 411.76 241.58 411.76C239.06 411.76 237.1 412.78 236.02 414.36L238.38 415.88C239.06 414.94 240.08 414.48 241.28 414.48C242.76 414.48 243.52 415.12 243.52 416.22C243.52 416.9 243.3 417.62 242.06 418.8L236.66 423.9V426H247.24V423.36H241.22ZM253.377 417.26H252.237L252.457 414.6H258.297V412H249.757L249.037 419.88H252.617C255.157 419.88 255.877 420.6 255.877 421.7C255.877 422.84 254.877 423.52 253.257 423.52C251.797 423.52 250.337 423.06 249.277 422.26L247.997 424.74C249.357 425.7 251.397 426.24 253.337 426.24C257.337 426.24 259.157 424.08 259.157 421.6C259.157 419.12 257.517 417.26 253.377 417.26ZM280.175 426L280.135 415.24H277.215L273.555 421.46L270.115 415.24H266.855V426H269.675V419.54L272.815 424.96H274.135L277.355 419.56V426H280.175ZM283.164 426H286.044L291.264 419.6V426H294.364V415.24H291.504L286.264 421.64V415.24H283.164V426ZM297.363 426H300.463V421.98H305.143V426H308.263V415.24H305.143V419.44H300.463V415.24H297.363V426Z" fill="black"/>
<path d="M216.5 406C209.595 406 204 411.595 204 418.5C204 425.405 209.595 431 216.5 431C223.405 431 229 425.405 229 418.5C229 411.595 223.405 406 216.5 406Z" fill="#2862F3"/>
<path fill-rule="evenodd" clip-rule="evenodd" d="M215.961 410C214.878 410 214 410.878 214 411.961V419.153C214 419.311 214.019 419.464 214.054 419.611C214.047 420.263 214.376 420.901 214.974 421.262L220.414 424.535C221.313 425.077 222.481 424.786 223.022 423.887C223.563 422.988 223.273 421.82 222.374 421.279L217.923 418.6V411.961C217.923 410.878 217.045 410 215.961 410Z" fill="white"/>
<g filter="url(#filter0_d)">
<path d="M162.531 400.393L185.975 433.213C179.766 434.57 168.698 428.331 168.698 428.331C168.698 428.331 160.834 438.706 154.912 440L162.531 400.393Z" fill="white"/>
</g>
<path fill-rule="evenodd" clip-rule="evenodd" d="M154.912 440L158.469 421.51C161.522 424.284 164.956 426.604 168.698 428.331C168.698 428.331 160.834 438.706 154.912 440Z" fill="#AFD4FF"/>
<path d="M134.839 22.4V31.274H142.379V63H153.863V22.4H134.839ZM201.149 46.122H195.117V39.22H184.271V46.122H176.035L192.565 22.4H180.675L162.463 47.746V55.228H183.923V63H195.117V55.228H201.149V46.122Z" fill="#2862F3"/>
<g filter="url(#filter1_di)">
<path d="M177.708 167.461C180.539 162.655 185.969 159.583 191.792 159.583C197.614 159.583 203.053 162.677 205.996 167.657L210.276 174.603C212.59 172.562 214.083 169.606 214.083 166.271V126.146C214.083 119.989 209.094 115 202.937 115H127.146C120.989 115 116 119.989 116 126.146V166.271C116 172.428 120.989 177.417 127.146 177.417H171.582L177.708 167.461ZM162.679 151.023L124.917 133.413V126.012L165.042 144.737L205.167 126.012V133.413L167.405 151.023C166.647 151.38 165.844 151.558 165.042 151.558C164.239 151.558 163.437 151.38 162.679 151.023Z" fill="white"/>
<path d="M221.863 210.435L198.314 172.187C196.972 169.913 194.471 168.5 191.792 168.5C189.112 168.5 186.611 169.913 185.3 172.134L161.791 210.324C161.002 211.505 160.583 212.914 160.583 214.399C160.583 218.589 164.007 222 168.211 222H215.367C219.576 222 223 218.589 223 214.399C223 212.914 222.581 211.505 221.863 210.435ZM191.792 213.083C189.946 213.083 188.448 211.585 188.448 209.74C188.448 207.894 189.946 206.396 191.792 206.396C193.637 206.396 195.135 207.894 195.135 209.74C195.135 211.585 193.637 213.083 191.792 213.083ZM195.135 198.594C195.135 200.439 193.637 201.937 191.792 201.937C189.946 201.937 188.448 200.439 188.448 198.594V185.219C188.448 183.373 189.946 181.875 191.792 181.875C193.637 181.875 195.135 183.373 195.135 185.219V198.594Z" fill="white"/>
</g>
<defs>
<filter id="filter0_d" x="150.912" y="396.393" width="45.0628" height="53.6066" filterUnits="userSpaceOnUse" color-interpolation-filters="sRGB">
<feFlood flood-opacity="0" result="BackgroundImageFix"/>
<feColorMatrix in="SourceAlpha" type="matrix" values="0 0 0 0 0 0 0 0 0 0 0 0 0 0 0 0 0 0 127 0"/>
<feOffset dx="3" dy="3"/>
<feGaussianBlur stdDeviation="3.5"/>
<feColorMatrix type="matrix" values="0 0 0 0 0.11124 0 0 0 0 0.205788 0 0 0 0 0.754167 0 0 0 0.66 0"/>
<feBlend mode="normal" in2="BackgroundImageFix" result="effect1_dropShadow"/>
<feBlend mode="normal" in="SourceGraphic" in2="effect1_dropShadow" result="shape"/>
</filter>
<filter id="filter1_di" x="110" y="109" width="127" height="127" filterUnits="userSpaceOnUse" color-interpolation-filters="sRGB">
<feFlood flood-opacity="0" result="BackgroundImageFix"/>
<feColorMatrix in="SourceAlpha" type="matrix" values="0 0 0 0 0 0 0 0 0 0 0 0 0 0 0 0 0 0 127 0"/>
<feOffset dx="4" dy="4"/>
<feGaussianBlur stdDeviation="5"/>
<feColorMatrix type="matrix" values="0 0 0 0 0.168813 0 0 0 0 0.394509 0 0 0 0 0.9125 0 0 0 1 0"/>
<feBlend mode="normal" in2="BackgroundImageFix" result="effect1_dropShadow"/>
<feBlend mode="normal" in="SourceGraphic" in2="effect1_dropShadow" result="shape"/>
<feColorMatrix in="SourceAlpha" type="matrix" values="0 0 0 0 0 0 0 0 0 0 0 0 0 0 0 0 0 0 127 0" result="hardAlpha"/>
<feOffset dx="-2" dy="-2"/>
<feGaussianBlur stdDeviation="2"/>
<feComposite in2="hardAlpha" operator="arithmetic" k2="-1" k3="1"/>
<feColorMatrix type="matrix" values="0 0 0 0 0.564167 0 0 0 0 0.713194 0 0 0 0 1 0 0 0 1 0"/>
<feBlend mode="normal" in2="shape" result="effect2_innerShadow"/>
</filter>
<linearGradient id="paint0_linear" x1="57.5" y1="-9" x2="289.5" y2="495.5" gradientUnits="userSpaceOnUse">
<stop stop-color="#3793FF"/>
<stop offset="1" stop-color="#141CE1"/>
</linearGradient>
<linearGradient id="paint1_linear" x1="49" y1="11" x2="301.5" y2="474" gradientUnits="userSpaceOnUse">
<stop stop-color="#6369FF"/>
<stop offset="1" stop-color="#51B5F4"/>
</linearGradient>
<linearGradient id="paint2_linear" x1="57.5" y1="-9" x2="289.5" y2="495.5" gradientUnits="userSpaceOnUse">
<stop stop-color="#00E0FF"/>
<stop offset="1" stop-color="#42F2D1"/>
</linearGradient>
<linearGradient id="paint3_linear" x1="49" y1="11" x2="301.5" y2="474" gradientUnits="userSpaceOnUse">
<stop stop-color="#51B5F5"/>
<stop offset="1" stop-color="#28D7BE"/>
</linearGradient>
<linearGradient id="paint4_linear" x1="308.165" y1="473.49" x2="92.7043" y2="54.1817" gradientUnits="userSpaceOnUse">
<stop stop-color="#73F5FF"/>
<stop offset="0.99" stop-color="#7AFFEC"/>
</linearGradient>
<linearGradient id="paint5_linear" x1="18.7592" y1="227" x2="211" y2="227" gradientUnits="userSpaceOnUse">
<stop stop-color="white"/>
<stop offset="0.99" stop-color="white" stop-opacity="0.4"/>
</linearGradient>
<linearGradient id="paint6_linear" x1="176.9" y1="65" x2="257" y2="65" gradientUnits="userSpaceOnUse">
<stop stop-color="white"/>
<stop offset="0.99" stop-color="white" stop-opacity="0.4"/>
</linearGradient>
</defs>
</svg>
