<svg width="338" height="474" viewBox="0 0 338 474" fill="none" xmlns="http://www.w3.org/2000/svg">
<rect x="2.5" y="2.5" width="331" height="469" rx="32.5" fill="url(#paint0_linear)" stroke="url(#paint1_linear)" stroke-width="5"/>
<mask id="mask0" mask-type="alpha" maskUnits="userSpaceOnUse" x="2" y="0" width="336" height="474">
<rect x="4.5" y="2.5" width="331" height="469" rx="41.5" fill="url(#paint2_linear)" stroke="url(#paint3_linear)" stroke-width="5"/>
</mask>
<g mask="url(#mask0)">
<path d="M198.89 5.0093C198.89 5.0093 97.8208 47.0947 93.9888 101.845C90.1568 156.595 112.775 152.615 106.069 185.086C99.3632 217.557 -10.9124 255.616 18.7856 356.766C48.4837 457.916 142.368 370.584 242 469H35C18.4315 469 5 455.569 5 439V35.0014C5 18.4323 18.4323 5.00064 35.0014 5.00144L198.89 5.0093Z" fill="url(#paint4_linear)" fill-opacity="0.5"/>
</g>
<path opacity="0.46" d="M219.887 378C202.092 377.978 184.702 372.68 169.917 362.777C155.131 352.875 143.613 338.811 136.819 322.363C130.024 305.916 128.258 287.824 131.743 270.373C135.229 252.922 143.809 236.896 156.4 224.321C168.992 211.745 185.028 203.185 202.483 199.721C219.939 196.258 238.029 198.046 254.468 204.862C270.906 211.677 284.956 223.212 294.84 238.01C304.724 252.808 310 270.204 310 288C309.958 311.876 300.447 334.761 283.553 351.633C266.66 368.506 243.763 377.988 219.887 378ZM219.887 222.747C206.985 222.764 194.378 226.607 183.659 233.788C172.94 240.969 164.59 251.166 159.665 263.091C154.74 275.016 153.461 288.134 155.989 300.786C158.517 313.438 164.739 325.056 173.868 334.173C182.998 343.29 194.625 349.496 207.28 352.006C219.936 354.517 233.051 353.219 244.97 348.278C256.888 343.336 267.074 334.972 274.24 324.243C281.406 313.515 285.231 300.902 285.231 288C285.177 270.703 278.27 254.132 266.022 241.918C253.774 229.704 237.184 222.843 219.887 222.837V222.747Z" fill="url(#paint5_linear)"/>
<path opacity="0.46" d="M99.9498 126C92.0407 125.99 84.3121 123.636 77.7407 119.234C71.1694 114.833 66.0503 108.583 63.0305 101.273C60.0106 93.9627 59.2257 85.9216 60.7747 78.1657C62.3238 70.4097 66.1374 63.2871 71.7335 57.698C77.3296 52.1089 84.457 48.3043 92.2148 46.7649C99.9727 45.2256 108.013 46.0207 115.319 49.0496C122.625 52.0786 128.869 57.2055 133.262 63.7824C137.655 70.3593 140 78.0909 140 86C139.981 96.6116 135.754 106.783 128.246 114.281C120.738 121.78 110.561 125.995 99.9498 126ZM99.9498 56.9985C94.2156 57.0064 88.6124 58.7141 83.8484 61.9056C79.0844 65.0972 75.3735 69.6294 73.1846 74.9294C70.9957 80.2294 70.4271 86.0594 71.5506 91.6825C72.6742 97.3056 75.4395 102.469 79.497 106.521C83.5545 110.573 88.7222 113.331 94.3468 114.447C99.9715 115.563 105.801 114.986 111.098 112.79C116.395 110.594 120.922 106.877 124.107 102.108C127.292 97.3398 128.991 91.7342 128.991 86C128.968 78.3124 125.898 70.9477 120.454 65.5193C115.011 60.0908 107.637 57.0412 99.9498 57.0386V56.9985Z" fill="url(#paint6_linear)"/>
<path d="M63.2936 239.6V245.386H57.3536V239.6H52.9976V255H57.3536V248.994H63.2936V255H67.6496V239.6H63.2936Z" fill="black"/>
<path d="M81.3425 239.6L77.6245 247.036L74.0385 239.6H69.4405L75.4245 250.688C74.8525 251.524 74.2365 251.876 73.3785 251.876C72.9165 251.876 72.4325 251.788 71.8385 251.612L70.8045 254.824C71.7505 255.198 72.6525 255.396 73.5325 255.396C75.8425 255.396 77.8445 254.076 79.2085 251.502L85.5885 239.6H81.3425Z" fill="black"/>
<path d="M104.197 255H109.213L104.835 246.926L108.949 239.6H104.395L101.249 245.584H99.3791V239.6H95.1111V245.584H93.1531L90.0731 239.6H85.4971L89.6111 246.926L85.2331 255H90.2711L93.2851 249.104H95.1111V255H99.3791V249.104H101.205L104.197 255Z" fill="black"/>
<path d="M120.915 239.6V245.386H114.975V239.6H110.619V255H114.975V248.994H120.915V255H125.271V239.6H120.915Z" fill="black"/>
<path d="M136.148 255.308C141.076 255.308 144.706 251.92 144.706 247.3C144.706 242.68 141.076 239.292 136.148 239.292C131.22 239.292 127.59 242.68 127.59 247.3C127.59 251.92 131.22 255.308 136.148 255.308ZM136.148 251.7C133.816 251.7 131.99 249.962 131.99 247.3C131.99 244.638 133.816 242.9 136.148 242.9C138.48 242.9 140.306 244.638 140.306 247.3C140.306 249.962 138.48 251.7 136.148 251.7Z" fill="black"/>
<path d="M161.005 255.308C165.933 255.308 169.563 251.92 169.563 247.3C169.563 242.68 165.933 239.292 161.005 239.292C156.077 239.292 152.447 242.68 152.447 247.3C152.447 251.92 156.077 255.308 161.005 255.308ZM161.005 251.7C158.673 251.7 156.847 249.962 156.847 247.3C156.847 244.638 158.673 242.9 161.005 242.9C163.337 242.9 165.163 244.638 165.163 247.3C165.163 249.962 163.337 251.7 161.005 251.7Z" fill="black"/>
<path d="M184.085 239.6H170.357V243.054H175.087V255H179.377V243.054H184.085V239.6Z" fill="black"/>
<path d="M187.192 239.6L186.972 245.738C186.84 249.214 186.51 251.502 184.728 251.502C184.53 251.502 184.332 251.48 184.134 251.436L183.892 255C184.618 255.176 185.278 255.264 185.872 255.264C189.788 255.264 190.602 251.568 190.8 245.562L190.888 243.054H195.31V255H199.6V239.6H187.192Z" fill="black"/>
<path d="M202.894 255H207.008L213.344 245.98V255H217.634V239.6H213.542L207.184 248.642V239.6H202.894V255Z" fill="black"/>
<path d="M229.575 239.6V246.288C228.805 246.64 227.859 246.816 226.847 246.816C224.933 246.816 223.943 245.848 223.943 243.846V239.6H219.653V244.33C219.653 248.246 221.985 250.358 226.297 250.358C227.309 250.358 228.387 250.16 229.575 249.764V255H233.865V239.6H229.575Z" fill="black"/>
<path d="M248.998 255H253.53L246.71 239.6H242.42L235.622 255H240.066L241.276 252.008H247.788L248.998 255ZM242.552 248.796L244.532 243.868L246.512 248.796H242.552Z" fill="black"/>
<path d="M266.929 239.6H253.201V243.054H257.931V255H262.221V243.054H266.929V239.6Z" fill="black"/>
<path d="M276.791 244.506H273.227V239.6H268.937V255H276.219C280.223 255 282.709 253.13 282.709 249.522C282.709 246.156 280.531 244.506 276.791 244.506ZM275.933 251.876H273.227V247.608H275.933C277.407 247.608 278.331 248.158 278.331 249.61C278.331 251.062 277.385 251.876 275.933 251.876Z" fill="black"/>
<path d="M62.9026 281L62.8586 265.6H59.2726L53.9926 274.488L48.5806 265.6H44.9946V281H48.9986V273.014L52.9586 279.482H54.8946L58.8546 272.838L58.8766 281H62.9026Z" fill="black"/>
<path d="M76.4742 265.6V271.386H70.5342V265.6H66.1782V281H70.5342V274.994H76.4742V281H80.8302V265.6H76.4742Z" fill="black"/>
<path d="M88.4512 277.634V274.818H95.2932V271.562H88.4512V268.966H96.2172V265.6H84.1392V281H96.5032V277.634H88.4512Z" fill="black"/>
<path d="M109.281 265.6V271.386H103.341V265.6H98.9849V281H103.341V274.994H109.281V281H113.637V265.6H109.281Z" fill="black"/>
<path d="M116.946 281H121.06L127.396 271.98V281H131.686V265.6H127.594L121.236 274.642V265.6H116.946V281Z" fill="black"/>
<path d="M139.305 277.634V274.818H146.147V271.562H139.305V268.966H147.071V265.6H134.993V281H147.357V277.634H139.305Z" fill="black"/>
<path d="M163.809 281.308C168.737 281.308 172.367 277.92 172.367 273.3C172.367 268.68 168.737 265.292 163.809 265.292C158.881 265.292 155.251 268.68 155.251 273.3C155.251 277.92 158.881 281.308 163.809 281.308ZM163.809 277.7C161.477 277.7 159.651 275.962 159.651 273.3C159.651 270.638 161.477 268.9 163.809 268.9C166.141 268.9 167.967 270.638 167.967 273.3C167.967 275.962 166.141 277.7 163.809 277.7Z" fill="black"/>
<path d="M186.889 265.6H173.161V269.054H177.891V281H182.181V269.054H186.889V265.6Z" fill="black"/>
<path d="M214.263 273.256C214.263 269.23 211.469 266.81 206.255 266.458V264.874H202.273V266.458C197.059 266.854 194.265 269.23 194.265 273.256C194.265 277.26 197.059 279.658 202.273 280.032V281.726H206.255V280.032C211.491 279.724 214.263 277.26 214.263 273.256ZM206.255 276.644V269.868C208.807 270.154 210.039 271.21 210.039 273.234C210.039 275.258 208.873 276.358 206.255 276.644ZM198.489 273.256C198.489 271.21 199.633 270.176 202.273 269.868V276.622C199.787 276.314 198.489 275.28 198.489 273.256Z" fill="black"/>
<path d="M228.147 281H232.679L225.859 265.6H221.569L214.771 281H219.215L220.425 278.008H226.937L228.147 281ZM221.701 274.796L223.681 269.868L225.661 274.796H221.701Z" fill="black"/>
<path d="M244.168 281H249.074L244.212 273.036L249.03 265.6H244.454L240.78 271.584H238.69V265.6H234.356V281H238.69V275.104H240.67L244.168 281Z" fill="black"/>
<path d="M262.686 265.6H248.958V269.054H253.688V281H257.978V269.054H262.686V265.6Z" fill="black"/>
<path d="M272.047 281.308C276.975 281.308 280.605 277.92 280.605 273.3C280.605 268.68 276.975 265.292 272.047 265.292C267.119 265.292 263.489 268.68 263.489 273.3C263.489 277.92 267.119 281.308 272.047 281.308ZM272.047 277.7C269.715 277.7 267.889 275.962 267.889 273.3C267.889 270.638 269.715 268.9 272.047 268.9C274.379 268.9 276.205 270.638 276.205 273.3C276.205 275.962 274.379 277.7 272.047 277.7Z" fill="black"/>
<path d="M294.154 272.948C295.474 272.288 296.244 271.122 296.244 269.604C296.244 267.052 294.088 265.6 290.414 265.6H282.934V281H290.832C294.792 281 296.948 279.306 296.948 276.6C296.948 274.752 295.936 273.52 294.154 272.948ZM287.224 268.724H289.996C291.228 268.724 291.844 269.252 291.844 270.242C291.844 271.254 291.228 271.76 289.996 271.76H287.224V268.724ZM290.656 277.876H287.224V274.708H290.656C291.91 274.708 292.548 275.214 292.548 276.27C292.548 277.326 291.91 277.876 290.656 277.876Z" fill="black"/>
<path fill-rule="evenodd" clip-rule="evenodd" d="M60.3236 235.577C61.154 234.963 62.1814 234.6 63.2936 234.6H67.6496C67.956 234.6 68.256 234.628 68.5472 234.68C68.8391 234.627 69.1379 234.6 69.4405 234.6H74.0385C75.4446 234.6 76.7598 235.19 77.6905 236.185C78.6219 235.189 79.9374 234.6 81.3425 234.6H90.0731C90.975 234.6 91.8405 234.843 92.5913 235.28C93.3311 234.848 94.1922 234.6 95.1111 234.6H99.3791C100.293 234.6 101.15 234.845 101.888 235.274C102.636 234.84 103.498 234.6 104.395 234.6H108.949C109.231 234.6 109.509 234.624 109.782 234.67C110.054 234.624 110.333 234.6 110.619 234.6H114.975C116.087 234.6 117.114 234.963 117.945 235.577C118.775 234.963 119.802 234.6 120.915 234.6H125.271C126.716 234.6 128.018 235.213 128.931 236.193C131.034 234.97 133.515 234.292 136.148 234.292C141.632 234.292 146.465 237.238 148.576 241.917C150.688 237.238 155.52 234.292 161.005 234.292C163.243 234.292 165.372 234.782 167.252 235.681C168.105 235.004 169.184 234.6 170.357 234.6H184.085C184.628 234.6 185.15 234.686 185.639 234.846C186.128 234.686 186.65 234.6 187.192 234.6H199.6C200.177 234.6 200.731 234.698 201.247 234.878C201.763 234.698 202.317 234.6 202.894 234.6H207.184C208.392 234.6 209.499 235.028 210.363 235.741C211.248 235.012 212.369 234.6 213.542 234.6H217.634C217.98 234.6 218.318 234.635 218.644 234.702C218.97 234.635 219.307 234.6 219.653 234.6H223.943C224.988 234.6 225.957 234.92 226.759 235.468C227.561 234.92 228.531 234.6 229.575 234.6H233.865C235.678 234.6 237.266 235.565 238.143 237.01C239.04 235.527 240.656 234.6 242.42 234.6H246.71C247.924 234.6 249.067 235.039 249.955 235.797C250.829 235.05 251.962 234.6 253.201 234.6H266.929C267.273 234.6 267.609 234.635 267.933 234.701C268.257 234.635 268.593 234.6 268.937 234.6H273.227C275.978 234.6 278.21 236.821 278.227 239.568C280.325 239.755 282.509 240.392 284.331 241.892C286.74 243.875 287.709 246.691 287.709 249.522C287.709 252.567 286.601 255.463 284.133 257.483C281.817 259.378 278.917 260 276.219 260H268.937C267.644 260 266.467 259.51 265.579 258.705C264.692 259.51 263.514 260 262.221 260H257.931C257.141 260 256.393 259.817 255.729 259.49C255.054 259.821 254.304 260 253.53 260H248.998C247.098 260 245.375 258.925 244.532 257.248C243.688 258.925 241.965 260 240.066 260H235.622C235.325 260 235.032 259.974 234.746 259.923C234.46 259.974 234.166 260 233.865 260H229.575C226.905 260 224.723 257.906 224.582 255.271C223.929 255.203 223.276 255.093 222.634 254.932V255C222.634 257.761 220.395 260 217.634 260H213.344C212.142 260 211.038 259.576 210.176 258.868C209.374 259.525 208.38 259.922 207.33 259.99C208.608 260.27 209.704 261.039 210.41 262.091C212.259 262.598 213.991 263.422 215.46 264.676C215.722 264.9 215.97 265.132 216.204 265.372L216.995 263.581C217.795 261.769 219.589 260.6 221.569 260.6H225.859C227.604 260.6 229.204 261.507 230.107 262.963C230.989 261.544 232.562 260.6 234.356 260.6H238.69C239.763 260.6 240.758 260.938 241.572 261.514C242.403 260.928 243.406 260.6 244.454 260.6H262.686C263.861 260.6 264.941 261.005 265.794 261.683C267.676 260.783 269.807 260.292 272.047 260.292C274.682 260.292 277.166 260.972 279.271 262.197C280.184 261.215 281.487 260.6 282.934 260.6H290.414C292.802 260.6 295.388 261.055 297.527 262.517C299.907 264.142 301.244 266.698 301.244 269.604C301.244 270.539 301.107 271.427 300.85 272.255C301.613 273.613 301.948 275.111 301.948 276.6C301.948 279.446 300.73 282.08 298.341 283.84C296.147 285.457 293.433 286 290.832 286H282.934C281.487 286 280.184 285.385 279.271 284.403C277.166 285.628 274.682 286.308 272.047 286.308C268.43 286.308 265.096 285.027 262.64 282.812C261.914 284.678 260.1 286 257.978 286H253.688C252.855 286 252.07 285.796 251.38 285.437C250.679 285.801 249.891 286 249.074 286H244.168C243.179 286 242.23 285.708 241.429 285.183C240.643 285.7 239.701 286 238.69 286H234.356C234.069 286 233.789 285.976 233.515 285.93C233.241 285.976 232.962 286 232.679 286H228.147C226.247 286 224.524 284.925 223.681 283.248C222.838 284.925 221.115 286 219.215 286H214.771C213.301 286 211.917 285.354 210.975 284.254C210.812 284.305 210.647 284.353 210.482 284.398C209.596 285.797 208.034 286.726 206.255 286.726H202.273C200.48 286.726 198.908 285.782 198.025 284.365C196.216 283.856 194.52 283.042 193.077 281.816C190.525 279.648 189.314 276.66 189.267 273.453C188.64 273.793 187.933 274.002 187.181 274.046V281C187.181 283.761 184.942 286 182.181 286H177.891C175.765 286 173.949 284.673 173.226 282.803C170.769 285.023 167.431 286.308 163.809 286.308C159.05 286.308 154.782 284.09 152.357 280.447V281C152.357 283.761 150.118 286 147.357 286H134.993C134.413 286 133.857 285.901 133.339 285.72C132.822 285.901 132.265 286 131.686 286H127.396C126.193 286 125.09 285.576 124.228 284.868C123.345 285.592 122.228 286 121.06 286H116.946C116.366 286 115.809 285.901 115.291 285.72C114.773 285.901 114.217 286 113.637 286H109.281C108.169 286 107.141 285.637 106.311 285.023C105.48 285.637 104.453 286 103.341 286H98.9849C98.5565 286 98.1408 285.946 97.744 285.845C97.3472 285.946 96.9315 286 96.5032 286H84.1392C83.5593 286 83.0025 285.901 82.4847 285.72C81.9668 285.901 81.4101 286 80.8302 286H76.4742C75.362 286 74.3347 285.637 73.5042 285.023C72.6738 285.637 71.6464 286 70.5342 286H66.1782C65.6038 286 65.0521 285.903 64.5384 285.725C64.0171 285.905 63.4647 286 62.9026 286H58.8766C57.4619 286 56.1841 285.412 55.2744 284.468C55.1487 284.477 55.022 284.482 54.8946 284.482H52.9586C52.8382 284.482 52.7184 284.478 52.5994 284.469C51.6899 285.413 50.4128 286 48.9986 286H44.9946C42.2332 286 39.9946 283.761 39.9946 281V265.6C39.9946 262.839 42.2332 260.6 44.9946 260.6H48.5806C50.3253 260.6 51.9438 261.509 52.8512 263L53.9397 264.787L54.9739 263.046C55.8749 261.53 57.5085 260.6 59.2726 260.6H62.8586C63.4404 260.6 63.999 260.699 64.5184 260.882C65.0378 260.699 65.5964 260.6 66.1782 260.6H70.5342C71.6464 260.6 72.6738 260.963 73.5042 261.577C74.3347 260.963 75.362 260.6 76.4742 260.6H80.8302C81.4101 260.6 81.9668 260.699 82.4847 260.88C83.0025 260.699 83.5593 260.6 84.1392 260.6H96.2172C96.6973 260.6 97.1615 260.668 97.601 260.794C98.0405 260.668 98.5048 260.6 98.9849 260.6H103.341C104.453 260.6 105.48 260.963 106.311 261.577C107.141 260.963 108.169 260.6 109.281 260.6H113.637C114.217 260.6 114.773 260.699 115.291 260.88C115.809 260.699 116.366 260.6 116.946 260.6H121.236C122.443 260.6 123.551 261.028 124.415 261.741C125.3 261.012 126.42 260.6 127.594 260.6H131.686C132.265 260.6 132.822 260.699 133.339 260.88C133.857 260.699 134.413 260.6 134.993 260.6H147.071C149.832 260.6 152.071 262.839 152.071 265.6V266.603C154.437 262.693 158.857 260.292 163.809 260.292C166.047 260.292 168.176 260.782 170.056 261.681C170.909 261.004 171.988 260.6 173.161 260.6H186.889C189.65 260.6 191.889 262.839 191.889 265.6V265.861C192.247 265.447 192.643 265.054 193.077 264.685C194.542 263.441 196.267 262.621 198.105 262.112C198.927 260.873 200.288 260.022 201.853 259.891C201.646 259.848 201.444 259.791 201.247 259.722C200.731 259.902 200.177 260 199.6 260H195.31C193.834 260 192.508 259.361 191.593 258.344C191.444 258.463 191.29 258.579 191.13 258.691C189.505 259.827 187.668 260.264 185.872 260.264C184.795 260.264 183.732 260.106 182.714 259.859C182.333 259.767 181.972 259.633 181.635 259.462C180.957 259.806 180.19 260 179.377 260H175.087C172.961 260 171.146 258.673 170.422 256.803C167.965 259.023 164.627 260.308 161.005 260.308C155.52 260.308 150.688 257.362 148.576 252.683C146.465 257.362 141.632 260.308 136.148 260.308C133.515 260.308 131.034 259.63 128.931 258.407C128.018 259.387 126.716 260 125.271 260H120.915C119.802 260 118.775 259.637 117.945 259.023C117.114 259.637 116.087 260 114.975 260H110.619C110.379 260 110.144 259.983 109.914 259.951C109.684 259.983 109.45 260 109.213 260H104.197C103.339 260 102.514 259.78 101.789 259.382C101.074 259.776 100.253 260 99.3791 260H95.1111C94.2328 260 93.4074 259.774 92.6901 259.376C91.9628 259.778 91.1336 260 90.2711 260H85.2331C83.4706 260 81.8383 259.072 80.9367 257.558C80.9191 257.528 80.9019 257.498 80.8849 257.469C78.9428 259.275 76.4556 260.396 73.5325 260.396C72.0833 260.396 70.7213 260.107 69.464 259.661C68.9015 259.88 68.2896 260 67.6496 260H63.2936C62.1814 260 61.154 259.637 60.3236 259.023C59.4931 259.637 58.4657 260 57.3536 260H52.9976C50.2361 260 47.9976 257.761 47.9976 255V239.6C47.9976 236.839 50.2361 234.6 52.9976 234.6H57.3536C58.4657 234.6 59.4931 234.963 60.3236 235.577ZM57.3536 239.6H52.9976V255H57.3536V248.994H63.2936V255H67.6496V239.6H63.2936V245.386H57.3536V239.6ZM72.0505 251.672C71.9814 251.654 71.9107 251.633 71.8385 251.612L70.8045 254.824C70.8291 254.834 70.8537 254.843 70.8782 254.853C71.0148 254.906 71.1504 254.955 71.2851 255C71.5162 255.078 71.7448 255.144 71.9713 255.2C72.1958 255.254 72.4182 255.298 72.6388 255.33C72.8875 255.366 73.1339 255.388 73.3785 255.394C73.4299 255.395 73.4812 255.396 73.5325 255.396C74.4291 255.396 75.2793 255.197 76.0639 254.803C76.9446 254.361 77.7426 253.673 78.4304 252.745C78.6385 252.464 78.8365 252.161 79.0237 251.836C79.0865 251.727 79.1481 251.616 79.2085 251.502L85.5438 239.683L89.6111 246.926L85.2331 255H90.2711L93.2851 249.104H95.1111V255H99.3791V249.104H101.205L104.197 255H109.213L104.835 246.926L108.949 239.6H104.395L101.249 245.584H99.3791V239.6H95.1111V245.584H93.1531L90.0731 239.6H81.3425L77.6245 247.036L74.0385 239.6H69.4405L75.4245 250.688C75.2706 250.913 75.1135 251.103 74.9494 251.26C74.5406 251.652 74.0882 251.843 73.5325 251.872C73.482 251.875 73.4307 251.876 73.3785 251.876C73.3289 251.876 73.2791 251.875 73.2288 251.873C73.0426 251.865 72.8513 251.844 72.6496 251.809C72.4606 251.775 72.2625 251.73 72.0505 251.672ZM110.619 255H114.975V248.994H120.915V255H125.271V239.6H120.915V245.386H114.975V239.6H110.619V255ZM130.271 253.26C131.774 254.549 133.816 255.308 136.148 255.308C141.076 255.308 144.706 251.92 144.706 247.3C144.706 242.68 141.076 239.292 136.148 239.292C133.816 239.292 131.774 240.051 130.271 241.34C128.597 242.774 127.59 244.866 127.59 247.3C127.59 249.734 128.597 251.826 130.271 253.26ZM175.087 255H179.377V243.054H184.085V239.6H170.357V243.054H175.087V255ZM169.536 247.987C169.554 247.761 169.563 247.532 169.563 247.3C169.563 245.709 169.133 244.265 168.367 243.054C167.639 241.903 166.609 240.964 165.357 240.312C164.102 239.657 162.623 239.292 161.005 239.292C156.077 239.292 152.447 242.68 152.447 247.3C152.447 251.92 156.077 255.308 161.005 255.308C165.685 255.308 169.195 252.252 169.536 247.987ZM195.31 255H199.6V239.6H187.192L186.972 245.738C186.953 246.248 186.929 246.733 186.897 247.189C186.77 249.005 186.512 250.359 185.872 251.03C185.623 251.291 185.317 251.449 184.939 251.491C184.875 251.498 184.808 251.502 184.74 251.502C184.736 251.502 184.732 251.502 184.728 251.502C184.611 251.502 184.494 251.494 184.377 251.479C184.296 251.468 184.215 251.454 184.134 251.436L183.892 255C184.057 255.04 184.218 255.075 184.376 255.106C184.495 255.13 184.613 255.15 184.728 255.168C185.133 255.232 185.514 255.264 185.872 255.264C186.184 255.264 186.477 255.24 186.751 255.194C187.694 255.035 188.419 254.605 188.976 253.935C189.614 253.166 190.033 252.08 190.31 250.72C190.585 249.365 190.719 247.739 190.789 245.883C190.789 245.88 190.789 245.878 190.789 245.875C190.793 245.771 190.796 245.667 190.8 245.562L190.888 243.054H195.31V255ZM202.273 281.726H206.255V280.032C206.379 280.025 206.502 280.016 206.623 280.007C206.844 279.989 207.061 279.967 207.273 279.941C208.322 279.814 209.259 279.59 210.078 279.276C210.217 279.222 210.352 279.166 210.484 279.108C212.971 278.006 214.263 275.99 214.263 273.256C214.263 273.249 214.263 273.241 214.263 273.234C214.261 272.322 214.115 271.493 213.829 270.752C212.943 268.451 210.714 266.999 207.272 266.557C207.064 266.53 206.851 266.507 206.634 266.488C206.509 266.476 206.383 266.467 206.255 266.458V264.874H202.273V266.458C202.14 266.468 202.009 266.479 201.879 266.492C201.668 266.513 201.46 266.537 201.256 266.564C196.697 267.18 194.265 269.5 194.265 273.256C194.265 276.991 196.697 279.329 201.256 279.929C201.452 279.955 201.652 279.978 201.855 279.997C201.993 280.01 202.132 280.022 202.273 280.032V281.726ZM207.273 276.475C207.015 276.535 206.738 276.584 206.441 276.622C206.38 276.63 206.318 276.637 206.255 276.644V269.868C206.622 269.909 206.961 269.966 207.273 270.039C209.136 270.477 210.039 271.501 210.039 273.234C210.039 273.241 210.039 273.249 210.039 273.256C210.032 274.983 209.17 276.033 207.273 276.475ZM202.273 269.868C201.905 269.911 201.566 269.968 201.255 270.04C199.337 270.484 198.489 271.495 198.489 273.256C198.489 274.983 199.434 275.989 201.255 276.438C201.569 276.516 201.908 276.577 202.273 276.622V269.868ZM173.161 265.6V269.054H177.891V281H182.181V269.054H186.889V265.6H173.161ZM172.34 273.987C172.358 273.761 172.367 273.532 172.367 273.3C172.367 271.709 171.936 270.265 171.171 269.054C170.443 267.903 169.413 266.964 168.161 266.312C166.905 265.657 165.427 265.292 163.809 265.292C158.881 265.292 155.251 268.68 155.251 273.3C155.251 277.92 158.881 281.308 163.809 281.308C168.489 281.308 171.999 278.252 172.34 273.987ZM147.071 265.6H134.993V281H147.357V277.634H139.305V274.818H146.147V271.562H139.305V268.966H147.071V265.6ZM121.236 265.6H116.946V281H121.06L127.396 271.98V281H131.686V265.6H127.594L121.236 274.642V265.6ZM103.341 265.6H98.9849V281H103.341V274.994H109.281V281H113.637V265.6H109.281V271.386H103.341V265.6ZM95.2932 271.562H88.4512V268.966H96.2172V265.6H84.1392V281H96.5032V277.634H88.4512V274.818H95.2932V271.562ZM70.5342 265.6H66.1782V281H70.5342V274.994H76.4742V281H80.8302V265.6H76.4742V271.386H70.5342V265.6ZM48.5806 265.6H44.9946V281H48.9986V273.014L52.9586 279.482H54.8946L58.8546 272.838L58.8766 281H62.9026L62.8586 265.6H59.2726L53.9926 274.488L48.5806 265.6ZM232.679 281L225.859 265.6H221.569L214.771 281H219.215L220.425 278.008H226.937L228.147 281H232.679ZM223.681 269.868L221.701 274.796H225.661L223.681 269.868ZM238.69 281V275.104H240.67L244.168 281H249.074L244.212 273.036L248.958 265.711V269.054H253.688V281H257.978V269.054H262.686V265.6H244.454L240.78 271.584H238.69V265.6H234.356V281H238.69ZM263.516 273.985C263.856 278.251 267.366 281.308 272.047 281.308C274.384 281.308 276.43 280.546 277.934 279.252C279.602 277.817 280.605 275.729 280.605 273.3C280.605 270.871 279.602 268.783 277.934 267.348C276.43 266.054 274.384 265.292 272.047 265.292C270.425 265.292 268.943 265.659 267.686 266.316C266.438 266.968 265.411 267.906 264.685 269.054C263.919 270.265 263.489 271.709 263.489 273.3C263.489 273.532 263.498 273.76 263.516 273.985ZM290.832 281C294.524 281 296.648 279.527 296.919 277.135C296.938 276.961 296.948 276.783 296.948 276.6C296.948 276.488 296.944 276.378 296.937 276.27C296.868 275.262 296.476 274.454 295.806 273.854C295.37 273.463 294.815 273.16 294.154 272.948C294.805 272.622 295.323 272.173 295.68 271.62C295.942 271.214 296.117 270.753 296.196 270.242C296.228 270.037 296.244 269.824 296.244 269.604C296.244 269.133 296.17 268.699 296.027 268.304C295.396 266.565 293.409 265.6 290.414 265.6H282.934V281H290.832ZM287.224 277.876H290.656C290.716 277.876 290.775 277.875 290.832 277.872C291.36 277.849 291.768 277.719 292.053 277.485C292.116 277.434 292.173 277.377 292.224 277.315C292.226 277.313 292.228 277.31 292.23 277.308C292.385 277.118 292.483 276.882 292.525 276.6C292.536 276.523 292.544 276.442 292.547 276.358C292.548 276.329 292.548 276.3 292.548 276.27C292.548 275.834 292.44 275.493 292.224 275.241C291.917 274.883 291.393 274.708 290.656 274.708H287.224V277.876ZM289.996 271.76C290.24 271.76 290.46 271.74 290.656 271.7C291.266 271.576 291.642 271.259 291.782 270.749C291.786 270.733 291.79 270.718 291.794 270.702C291.827 270.562 291.844 270.409 291.844 270.242C291.844 270.075 291.826 269.921 291.791 269.78C291.776 269.719 291.757 269.66 291.735 269.604C291.657 269.403 291.535 269.236 291.371 269.103C291.303 269.048 291.228 268.998 291.145 268.955C290.944 268.85 290.701 268.78 290.414 268.747C290.284 268.732 290.144 268.724 289.996 268.724H287.224V271.76H289.996ZM213.344 255H217.634V239.6H213.542L207.184 248.642V239.6H202.894V255H207.008L213.344 245.98V255ZM229.575 255H233.865V239.6H229.575V246.288C229.352 246.39 229.115 246.477 228.865 246.549C228.757 246.581 228.646 246.61 228.532 246.636C228.008 246.756 227.439 246.816 226.847 246.816C226.655 246.816 226.471 246.806 226.297 246.786C225.738 246.723 225.277 246.558 224.915 246.288C224.79 246.195 224.676 246.089 224.575 245.971C224.232 245.569 224.027 245.024 223.964 244.33C223.95 244.176 223.943 244.015 223.943 243.846V239.6H219.653V244.33C219.653 244.421 219.654 244.511 219.657 244.6C219.726 247.055 220.75 248.767 222.634 249.654C223.203 249.922 223.851 250.115 224.575 250.23C225.108 250.315 225.683 250.358 226.297 250.358C226.478 250.358 226.662 250.352 226.847 250.339C227.488 250.295 228.157 250.176 228.865 249.981C229.098 249.917 229.334 249.844 229.575 249.764V255ZM253.53 255L246.71 239.6H242.42L235.622 255H240.066L241.276 252.008H247.788L248.998 255H253.53ZM246.512 248.796L244.532 243.868L242.552 248.796H246.512ZM257.931 255H262.221V243.054H266.929V239.6H253.201V243.054H257.931V255ZM268.937 255H276.219C280.19 255 282.668 253.16 282.709 249.61C282.709 249.581 282.709 249.551 282.709 249.522C282.709 246.156 280.531 244.506 276.791 244.506H273.227V239.6H268.937V255ZM273.227 251.876H275.933C276.031 251.876 276.126 251.872 276.219 251.865C277.239 251.785 277.968 251.267 278.227 250.383C278.295 250.15 278.331 249.892 278.331 249.61C278.331 249.58 278.331 249.551 278.33 249.522C278.323 249.273 278.288 249.052 278.227 248.856C278.021 248.198 277.516 247.832 276.791 247.685C276.532 247.633 276.245 247.608 275.933 247.608H273.227V251.876ZM136.774 247.008C136.531 246.758 136.255 246.7 136.148 246.7C136.04 246.7 135.765 246.758 135.521 247.008C135.415 247.116 135.354 247.224 135.323 247.3C135.354 247.376 135.415 247.484 135.521 247.592C135.765 247.842 136.04 247.9 136.148 247.9C136.255 247.9 136.531 247.842 136.774 247.592C136.88 247.484 136.941 247.376 136.972 247.3C136.941 247.224 136.88 247.116 136.774 247.008ZM161.632 247.008C161.388 246.758 161.113 246.7 161.005 246.7C160.897 246.7 160.622 246.758 160.378 247.008C160.273 247.116 160.211 247.224 160.181 247.3C160.211 247.376 160.273 247.484 160.378 247.592C160.622 247.842 160.897 247.9 161.005 247.9C161.113 247.9 161.388 247.842 161.632 247.592C161.737 247.484 161.799 247.376 161.829 247.3C161.799 247.224 161.737 247.116 161.632 247.008ZM164.435 273.008C164.192 272.758 163.917 272.7 163.809 272.7C163.701 272.7 163.426 272.758 163.182 273.008C163.076 273.116 163.015 273.224 162.984 273.3C163.015 273.376 163.076 273.484 163.182 273.592C163.426 273.842 163.701 273.9 163.809 273.9C163.917 273.9 164.192 273.842 164.435 273.592C164.541 273.484 164.602 273.376 164.633 273.3C164.602 273.224 164.541 273.116 164.435 273.008ZM272.674 273.008C272.43 272.758 272.155 272.7 272.047 272.7C271.939 272.7 271.664 272.758 271.42 273.008C271.315 273.116 271.253 273.224 271.223 273.3C271.253 273.376 271.315 273.484 271.42 273.592C271.664 273.842 271.939 273.9 272.047 273.9C272.155 273.9 272.43 273.842 272.674 273.592C272.779 273.484 272.841 273.376 272.871 273.3C272.841 273.224 272.779 273.116 272.674 273.008ZM131.99 247.3C131.99 249.962 133.816 251.7 136.148 251.7C138.48 251.7 140.306 249.962 140.306 247.3C140.306 244.638 138.48 242.9 136.148 242.9C133.816 242.9 131.99 244.638 131.99 247.3ZM156.847 247.3C156.847 249.962 158.673 251.7 161.005 251.7C163.337 251.7 165.163 249.962 165.163 247.3C165.163 244.638 163.337 242.9 161.005 242.9C158.673 242.9 156.847 244.638 156.847 247.3ZM159.651 273.3C159.651 275.962 161.477 277.7 163.809 277.7C166.141 277.7 167.967 275.962 167.967 273.3C167.967 270.638 166.141 268.9 163.809 268.9C161.477 268.9 159.651 270.638 159.651 273.3ZM267.889 273.3C267.889 275.962 269.715 277.7 272.047 277.7C274.379 277.7 276.205 275.962 276.205 273.3C276.205 270.638 274.379 268.9 272.047 268.9C269.715 268.9 267.889 270.638 267.889 273.3Z" fill="white"/>
<rect x="16" y="303" width="304" height="70" rx="24" fill="white"/>
<rect x="16" y="397" width="125" height="43" rx="13" fill="white"/>
<rect x="195" y="397" width="125" height="43" rx="13" fill="white"/>
<path d="M50.2543 317.415C48.6613 317.415 47.3113 317.968 46.4473 318.994L47.5543 320.074C48.2563 319.318 49.1338 318.954 50.1598 318.954C51.7258 318.954 52.9273 319.98 53.2243 321.505H49.0258V322.896H53.2513C52.9948 324.502 51.7798 325.596 50.1598 325.596C49.1338 325.596 48.2563 325.231 47.5543 324.475L46.4473 325.555C47.3113 326.581 48.6613 327.135 50.2543 327.135C53.0353 327.135 55.0738 325.096 55.0738 322.275C55.0738 319.453 53.0353 317.415 50.2543 317.415ZM62.4204 319.791H55.6704V321.222H58.2084V327H59.8959V321.222H62.4204V319.791ZM66.5411 327.095C68.7821 327.095 70.3886 325.555 70.3886 323.395C70.3886 321.235 68.7821 319.71 66.5411 319.71C64.3271 319.71 62.7071 321.235 62.7071 323.395C62.7071 325.555 64.3271 327.095 66.5411 327.095ZM66.5411 325.65C65.3261 325.65 64.4081 324.772 64.4081 323.395C64.4081 322.018 65.3261 321.141 66.5411 321.141C67.7696 321.141 68.6876 322.018 68.6876 323.395C68.6876 324.772 67.7696 325.65 66.5411 325.65ZM79.0671 327.095C80.4711 327.095 81.5916 326.487 82.1451 325.407L80.8491 324.651C80.4171 325.339 79.7691 325.65 79.0536 325.65C77.8116 325.65 76.8666 324.799 76.8666 323.395C76.8666 322.005 77.8116 321.141 79.0536 321.141C79.7691 321.141 80.4171 321.451 80.8491 322.14L82.1451 321.384C81.5916 320.29 80.4711 319.71 79.0671 319.71C76.7856 319.71 75.1656 321.235 75.1656 323.395C75.1656 325.555 76.7856 327.095 79.0671 327.095ZM86.7384 327.095C88.9794 327.095 90.5859 325.555 90.5859 323.395C90.5859 321.235 88.9794 319.71 86.7384 319.71C84.5244 319.71 82.9044 321.235 82.9044 323.395C82.9044 325.555 84.5244 327.095 86.7384 327.095ZM86.7384 325.65C85.5234 325.65 84.6054 324.772 84.6054 323.395C84.6054 322.018 85.5234 321.141 86.7384 321.141C87.9669 321.141 88.8849 322.018 88.8849 323.395C88.8849 324.772 87.9669 325.65 86.7384 325.65ZM95.4659 327.095C97.7069 327.095 99.3134 325.555 99.3134 323.395C99.3134 321.235 97.7069 319.71 95.4659 319.71C93.2519 319.71 91.6319 321.235 91.6319 323.395C91.6319 325.555 93.2519 327.095 95.4659 327.095ZM95.4659 325.65C94.2509 325.65 93.3329 324.772 93.3329 323.395C93.3329 322.018 94.2509 321.141 95.4659 321.141C96.6944 321.141 97.6124 322.018 97.6124 323.395C97.6124 324.772 96.6944 325.65 95.4659 325.65ZM104.882 320.142C103.775 320.142 102.83 320.587 102.195 321.357C102.344 319.791 103.167 318.981 104.909 318.616L107.946 317.995L107.703 316.483L104.355 317.199C101.79 317.739 100.575 319.426 100.575 322.315C100.575 325.461 102.033 327.135 104.504 327.135C106.772 327.135 108.351 325.717 108.351 323.598C108.351 321.559 106.947 320.142 104.882 320.142ZM104.544 325.771C103.302 325.771 102.438 324.894 102.438 323.638C102.438 322.383 103.289 321.573 104.544 321.573C105.786 321.573 106.623 322.383 106.623 323.638C106.623 324.88 105.786 325.771 104.544 325.771ZM120.609 325.569V319.791H118.922V325.569H116.154V319.791H114.467V325.569H111.672V319.791H109.985V327H120.069V328.485H121.649V325.569H120.609ZM129.628 323.436C129.628 321.181 128.089 319.71 125.983 319.71C123.837 319.71 122.257 321.249 122.257 323.395C122.257 325.542 123.823 327.095 126.24 327.095C127.482 327.095 128.494 326.689 129.142 325.92L128.238 324.88C127.725 325.407 127.09 325.663 126.28 325.663C125.025 325.663 124.147 324.988 123.945 323.935H129.601C129.615 323.773 129.628 323.571 129.628 323.436ZM125.983 321.06C127.09 321.06 127.887 321.775 128.022 322.815H123.931C124.093 321.762 124.89 321.06 125.983 321.06ZM131.474 327H133.162V324.151H136.793V327H138.481V319.791H136.793V322.72H133.162V319.791H131.474V327ZM140.742 327H142.295L146.264 322.248V327H147.951V319.791H146.412L142.43 324.543V319.791H140.742V327ZM156.971 323.436C156.971 321.181 155.432 319.71 153.326 319.71C151.18 319.71 149.6 321.249 149.6 323.395C149.6 325.542 151.166 327.095 153.583 327.095C154.825 327.095 155.837 326.689 156.485 325.92L155.581 324.88C155.068 325.407 154.433 325.663 153.623 325.663C152.368 325.663 151.49 324.988 151.288 323.935H156.944C156.958 323.773 156.971 323.571 156.971 323.436ZM153.326 321.06C154.433 321.06 155.23 321.775 155.365 322.815H151.274C151.436 321.762 152.233 321.06 153.326 321.06ZM167.772 323.247C168.461 322.95 168.879 322.396 168.879 321.654C168.879 320.466 167.826 319.791 166.071 319.791H162.548V327H166.22C168.164 327 169.109 326.244 169.109 324.975C169.109 324.097 168.663 323.517 167.772 323.247ZM164.154 321.019H165.923C166.787 321.019 167.232 321.303 167.232 321.897C167.232 322.491 166.787 322.801 165.923 322.801H164.154V321.019ZM166.085 325.771H164.154V323.922H166.139C167.057 323.922 167.475 324.232 167.475 324.867C167.475 325.488 166.989 325.771 166.085 325.771ZM181.671 319.021V317.55H174.772V327H176.527V323.382H181.09V321.897H176.527V319.021H181.671ZM185.736 319.71C184.575 319.71 183.454 320.007 182.685 320.601L183.346 321.829C183.886 321.384 184.723 321.114 185.533 321.114C186.735 321.114 187.329 321.694 187.329 322.68V322.788H185.466C183.279 322.788 182.469 323.733 182.469 324.934C182.469 326.19 183.508 327.095 185.155 327.095C186.235 327.095 187.018 326.743 187.423 326.122V327H189.016V322.774C189.016 320.695 187.815 319.71 185.736 319.71ZM185.506 325.866C184.642 325.866 184.129 325.474 184.129 324.867C184.129 324.34 184.44 323.908 185.587 323.908H187.329V324.745C187.045 325.488 186.33 325.866 185.506 325.866ZM194.555 327.095C195.959 327.095 197.08 326.487 197.633 325.407L196.337 324.651C195.905 325.339 195.257 325.65 194.542 325.65C193.3 325.65 192.355 324.799 192.355 323.395C192.355 322.005 193.3 321.141 194.542 321.141C195.257 321.141 195.905 321.451 196.337 322.14L197.633 321.384C197.08 320.29 195.959 319.71 194.555 319.71C192.274 319.71 190.654 321.235 190.654 323.395C190.654 325.555 192.274 327.095 194.555 327.095ZM205.764 323.436C205.764 321.181 204.225 319.71 202.119 319.71C199.972 319.71 198.393 321.249 198.393 323.395C198.393 325.542 199.959 327.095 202.375 327.095C203.617 327.095 204.63 326.689 205.278 325.92L204.373 324.88C203.86 325.407 203.226 325.663 202.416 325.663C201.16 325.663 200.283 324.988 200.08 323.935H205.737C205.75 323.773 205.764 323.571 205.764 323.436ZM202.119 321.06C203.226 321.06 204.022 321.775 204.157 322.815H200.067C200.229 321.762 201.025 321.06 202.119 321.06ZM211.381 319.71C210.463 319.71 209.653 320.02 209.072 320.668V316.983H207.385V327H208.991V326.068C209.558 326.757 210.395 327.095 211.381 327.095C213.487 327.095 215.039 325.636 215.039 323.395C215.039 321.154 213.487 319.71 211.381 319.71ZM211.192 325.65C209.977 325.65 209.045 324.772 209.045 323.395C209.045 322.018 209.977 321.141 211.192 321.141C212.407 321.141 213.325 322.018 213.325 323.395C213.325 324.772 212.407 325.65 211.192 325.65ZM219.879 327.095C222.12 327.095 223.727 325.555 223.727 323.395C223.727 321.235 222.12 319.71 219.879 319.71C217.665 319.71 216.045 321.235 216.045 323.395C216.045 325.555 217.665 327.095 219.879 327.095ZM219.879 325.65C218.664 325.65 217.746 324.772 217.746 323.395C217.746 322.018 218.664 321.141 219.879 321.141C221.108 321.141 222.026 322.018 222.026 323.395C222.026 324.772 221.108 325.65 219.879 325.65ZM228.581 327.095C230.822 327.095 232.428 325.555 232.428 323.395C232.428 321.235 230.822 319.71 228.581 319.71C226.367 319.71 224.747 321.235 224.747 323.395C224.747 325.555 226.367 327.095 228.581 327.095ZM228.581 325.65C227.366 325.65 226.448 324.772 226.448 323.395C226.448 322.018 227.366 321.141 228.581 321.141C229.809 321.141 230.727 322.018 230.727 323.395C230.727 324.772 229.809 325.65 228.581 325.65ZM239.482 327H241.534L238.24 322.815L241.251 319.791H239.226L235.729 323.031V316.983H234.042V327H235.729V325.096L236.985 323.908L239.482 327ZM243.31 324.853C242.689 324.853 242.216 325.299 242.216 325.974C242.216 326.46 242.473 326.811 242.851 326.973L242.311 329.039H243.404L244.093 327.135C244.336 326.514 244.403 326.271 244.403 325.974C244.403 325.312 243.944 324.853 243.31 324.853ZM252.497 319.71C251.336 319.71 250.215 320.007 249.446 320.601L250.107 321.829C250.647 321.384 251.484 321.114 252.294 321.114C253.496 321.114 254.09 321.694 254.09 322.68V322.788H252.227C250.04 322.788 249.23 323.733 249.23 324.934C249.23 326.19 250.269 327.095 251.916 327.095C252.996 327.095 253.779 326.743 254.184 326.122V327H255.777V322.774C255.777 320.695 254.576 319.71 252.497 319.71ZM252.267 325.866C251.403 325.866 250.89 325.474 250.89 324.867C250.89 324.34 251.201 323.908 252.348 323.908H254.09V324.745C253.806 325.488 253.091 325.866 252.267 325.866ZM264.877 327.095C266.281 327.095 267.401 326.487 267.955 325.407L266.659 324.651C266.227 325.339 265.579 325.65 264.863 325.65C263.621 325.65 262.676 324.799 262.676 323.395C262.676 322.005 263.621 321.141 264.863 321.141C265.579 321.141 266.227 321.451 266.659 322.14L267.955 321.384C267.401 320.29 266.281 319.71 264.877 319.71C262.595 319.71 260.975 321.235 260.975 323.395C260.975 325.555 262.595 327.095 264.877 327.095ZM269.984 319.791L269.863 322.572C269.782 324.07 269.741 325.609 268.634 325.609C268.54 325.609 268.432 325.596 268.31 325.569L268.229 326.986C268.58 327.081 268.891 327.135 269.161 327.135C270.862 327.135 271.24 325.218 271.361 322.653L271.429 321.222H274.129V327H275.816V319.791H269.984ZM284.839 323.436C284.839 321.181 283.3 319.71 281.194 319.71C279.047 319.71 277.468 321.249 277.468 323.395C277.468 325.542 279.034 327.095 281.45 327.095C282.692 327.095 283.705 326.689 284.353 325.92L283.448 324.88C282.935 325.407 282.301 325.663 281.491 325.663C280.235 325.663 279.358 324.988 279.155 323.935H284.812C284.825 323.773 284.839 323.571 284.839 323.436ZM281.194 321.06C282.301 321.06 283.097 321.775 283.232 322.815H279.142C279.304 321.762 280.1 321.06 281.194 321.06ZM286.425 323.949H290.137V322.545H286.425V323.949ZM45.8174 341.569V335.791H39.8774L39.7829 338.261C39.7019 339.949 39.5264 341.528 38.5139 341.569H38.1764V344.607H39.7424V343H45.3044V344.607H46.8839V341.569H45.8174ZM41.3219 338.383L41.3624 337.222H44.1299V341.569H40.5794C41.1599 341.016 41.2679 339.733 41.3219 338.383ZM51.6041 343.095C53.8451 343.095 55.4516 341.555 55.4516 339.395C55.4516 337.235 53.8451 335.71 51.6041 335.71C49.3901 335.71 47.7701 337.235 47.7701 339.395C47.7701 341.555 49.3901 343.095 51.6041 343.095ZM51.6041 341.65C50.3891 341.65 49.4711 340.772 49.4711 339.395C49.4711 338.018 50.3891 337.141 51.6041 337.141C52.8326 337.141 53.7506 338.018 53.7506 339.395C53.7506 340.772 52.8326 341.65 51.6041 341.65ZM62.3431 339.247C63.0316 338.95 63.4501 338.396 63.4501 337.654C63.4501 336.466 62.3971 335.791 60.6421 335.791H57.1186V343H60.7906C62.7346 343 63.6796 342.244 63.6796 340.975C63.6796 340.097 63.2341 339.517 62.3431 339.247ZM58.7251 337.019H60.4936C61.3576 337.019 61.8031 337.303 61.8031 337.897C61.8031 338.491 61.3576 338.801 60.4936 338.801H58.7251V337.019ZM60.6556 341.771H58.7251V339.922H60.7096C61.6276 339.922 62.0461 340.232 62.0461 340.867C62.0461 341.488 61.5601 341.771 60.6556 341.771ZM68.1635 335.71C67.0025 335.71 65.882 336.007 65.1125 336.601L65.774 337.829C66.314 337.384 67.151 337.114 67.961 337.114C69.1625 337.114 69.7565 337.694 69.7565 338.68V338.788H67.8935C65.7065 338.788 64.8965 339.733 64.8965 340.934C64.8965 342.19 65.936 343.095 67.583 343.095C68.663 343.095 69.446 342.743 69.851 342.122V343H71.444V338.774C71.444 336.695 70.2425 335.71 68.1635 335.71ZM67.934 341.866C67.07 341.866 66.557 341.474 66.557 340.867C66.557 340.34 66.8675 339.908 68.015 339.908H69.7565V340.745C69.473 341.488 68.7575 341.866 67.934 341.866ZM79.2427 335.791H72.4927V337.222H75.0307V343H76.7182V337.222H79.2427V335.791ZM86.9004 339.436C86.9004 337.181 85.3614 335.71 83.2554 335.71C81.1089 335.71 79.5294 337.249 79.5294 339.395C79.5294 341.542 81.0954 343.095 83.5119 343.095C84.7539 343.095 85.7664 342.689 86.4144 341.92L85.5099 340.88C84.9969 341.407 84.3624 341.663 83.5524 341.663C82.2969 341.663 81.4194 340.988 81.2169 339.935H86.8734C86.8869 339.773 86.9004 339.571 86.9004 339.436ZM83.2554 337.06C84.3624 337.06 85.1589 337.775 85.2939 338.815H81.2034C81.3654 337.762 82.1619 337.06 83.2554 337.06ZM89.3558 335.791L89.2343 338.572C89.1533 340.07 89.1128 341.609 88.0058 341.609C87.9113 341.609 87.8033 341.596 87.6818 341.569L87.6008 342.986C87.9518 343.081 88.2623 343.135 88.5323 343.135C90.2333 343.135 90.6113 341.218 90.7328 338.653L90.8003 337.222H93.5003V343H95.1878V335.791H89.3558ZM101.078 338.167L99.1479 338.153V335.791H97.4604V343L100.835 343.014C102.806 343.027 103.927 342.122 103.927 340.543C103.927 339.044 102.928 338.167 101.078 338.167ZM100.687 341.771L99.1479 341.758V339.314L100.687 339.328C101.686 339.341 102.212 339.692 102.212 340.516C102.212 341.353 101.672 341.785 100.687 341.771ZM105.41 343H107.098V340.151H110.729V343H112.417V335.791H110.729V338.72H107.098V335.791H105.41V343ZM117.891 343.095C120.132 343.095 121.739 341.555 121.739 339.395C121.739 337.235 120.132 335.71 117.891 335.71C115.677 335.71 114.057 337.235 114.057 339.395C114.057 341.555 115.677 343.095 117.891 343.095ZM117.891 341.65C116.676 341.65 115.758 340.772 115.758 339.395C115.758 338.018 116.676 337.141 117.891 337.141C119.12 337.141 120.038 338.018 120.038 339.395C120.038 340.772 119.12 341.65 117.891 341.65ZM127.137 335.791V343H128.824V337.222H132.375V343H134.049V335.791H127.137ZM140.322 335.71C139.336 335.71 138.499 336.047 137.932 336.736V335.791H136.326V345.619H138.013V342.122C138.594 342.784 139.404 343.095 140.322 343.095C142.428 343.095 143.98 341.636 143.98 339.395C143.98 337.168 142.428 335.71 140.322 335.71ZM140.133 341.65C138.918 341.65 137.986 340.772 137.986 339.395C137.986 338.018 138.918 337.141 140.133 337.141C141.348 337.141 142.266 338.018 142.266 339.395C142.266 340.772 141.348 341.65 140.133 341.65ZM148.873 343.095C151.114 343.095 152.72 341.555 152.72 339.395C152.72 337.235 151.114 335.71 148.873 335.71C146.659 335.71 145.039 337.235 145.039 339.395C145.039 341.555 146.659 343.095 148.873 343.095ZM148.873 341.65C147.658 341.65 146.74 340.772 146.74 339.395C146.74 338.018 147.658 337.141 148.873 337.141C150.101 337.141 151.019 338.018 151.019 339.395C151.019 340.772 150.101 341.65 148.873 341.65ZM157.668 343.095C159.072 343.095 160.192 342.487 160.746 341.407L159.45 340.651C159.018 341.339 158.37 341.65 157.654 341.65C156.412 341.65 155.467 340.799 155.467 339.395C155.467 338.005 156.412 337.141 157.654 337.141C158.37 337.141 159.018 337.451 159.45 338.14L160.746 337.384C160.192 336.29 159.072 335.71 157.668 335.71C155.386 335.71 153.766 337.235 153.766 339.395C153.766 341.555 155.386 343.095 157.668 343.095ZM167.876 335.791H161.126V337.222H163.664V343H165.351V337.222H167.876V335.791ZM171.997 343.095C174.238 343.095 175.844 341.555 175.844 339.395C175.844 337.235 174.238 335.71 171.997 335.71C169.783 335.71 168.163 337.235 168.163 339.395C168.163 341.555 169.783 343.095 171.997 343.095ZM171.997 341.65C170.782 341.65 169.864 340.772 169.864 339.395C169.864 338.018 170.782 337.141 171.997 337.141C173.225 337.141 174.143 338.018 174.143 339.395C174.143 340.772 173.225 341.65 171.997 341.65ZM185.67 335.791V338.95C185.09 339.22 184.455 339.355 183.861 339.355C182.889 339.355 182.309 338.936 182.309 337.991V335.791H180.621V338.099C180.621 339.895 181.674 340.705 183.497 340.705C184.293 340.705 185.022 340.516 185.67 340.205V343H187.358V335.791H185.67ZM193.245 338.167L191.314 338.153V335.791H189.627V343L193.002 343.014C194.973 343.027 196.093 342.122 196.093 340.543C196.093 339.044 195.094 338.167 193.245 338.167ZM192.853 341.771L191.314 341.758V339.314L192.853 339.328C193.852 339.341 194.379 339.692 194.379 340.516C194.379 341.353 193.839 341.785 192.853 341.771ZM204.327 339.436C204.327 337.181 202.788 335.71 200.682 335.71C198.535 335.71 196.956 337.249 196.956 339.395C196.956 341.542 198.522 343.095 200.938 343.095C202.18 343.095 203.193 342.689 203.841 341.92L202.936 340.88C202.423 341.407 201.789 341.663 200.979 341.663C199.723 341.663 198.846 340.988 198.643 339.935H204.3C204.313 339.773 204.327 339.571 204.327 339.436ZM200.682 337.06C201.789 337.06 202.585 337.775 202.72 338.815H198.63C198.792 337.762 199.588 337.06 200.682 337.06ZM205.913 339.949H209.625V338.545H205.913V339.949ZM217.011 335.791H210.261V337.222H212.799V343H214.487V337.222H217.011V335.791ZM221.132 343.095C223.373 343.095 224.979 341.555 224.979 339.395C224.979 337.235 223.373 335.71 221.132 335.71C218.918 335.71 217.298 337.235 217.298 339.395C217.298 341.555 218.918 343.095 221.132 343.095ZM221.132 341.65C219.917 341.65 218.999 340.772 218.999 339.395C218.999 338.018 219.917 337.141 221.132 337.141C222.36 337.141 223.278 338.018 223.278 339.395C223.278 340.772 222.36 341.65 221.132 341.65ZM238.99 343L238.977 335.791H237.397L234.711 340.3L232.146 335.791H230.377V343H231.916V338.207L234.306 342.244H235.035L237.465 338.221V343H238.99ZM241.254 343H242.941V340.151H246.573V343H248.26V335.791H246.573V338.72H242.941V335.791H241.254V343ZM257.272 339.436C257.272 337.181 255.733 335.71 253.627 335.71C251.48 335.71 249.901 337.249 249.901 339.395C249.901 341.542 251.467 343.095 253.883 343.095C255.125 343.095 256.138 342.689 256.786 341.92L255.881 340.88C255.368 341.407 254.734 341.663 253.924 341.663C252.668 341.663 251.791 340.988 251.588 339.935H257.245C257.258 339.773 257.272 339.571 257.272 339.436ZM253.627 337.06C254.734 337.06 255.53 337.775 255.665 338.815H251.575C251.737 337.762 252.533 337.06 253.627 337.06ZM259.118 343H260.805V340.151H264.437V343H266.124V335.791H264.437V338.72H260.805V335.791H259.118V343ZM268.386 343H269.938L273.907 338.248V343H275.595V335.791H274.056L270.073 340.543V335.791H268.386V343ZM284.615 339.436C284.615 337.181 283.076 335.71 280.97 335.71C278.823 335.71 277.244 337.249 277.244 339.395C277.244 341.542 278.81 343.095 281.226 343.095C282.468 343.095 283.481 342.689 284.129 341.92L283.224 340.88C282.711 341.407 282.077 341.663 281.267 341.663C280.011 341.663 279.134 340.988 278.931 339.935H284.588C284.601 339.773 284.615 339.571 284.615 339.436ZM280.97 337.06C282.077 337.06 282.873 337.775 283.008 338.815H278.918C279.08 337.762 279.876 337.06 280.97 337.06ZM286.973 343.095C287.581 343.095 288.08 342.622 288.08 341.974C288.08 341.299 287.581 340.853 286.973 340.853C286.366 340.853 285.866 341.299 285.866 341.974C285.866 342.622 286.366 343.095 286.973 343.095ZM290.269 343.095C290.877 343.095 291.376 342.622 291.376 341.974C291.376 341.299 290.877 340.853 290.269 340.853C289.662 340.853 289.162 341.299 289.162 341.974C289.162 342.622 289.662 343.095 290.269 343.095ZM293.565 343.095C294.173 343.095 294.672 342.622 294.672 341.974C294.672 341.299 294.173 340.853 293.565 340.853C292.958 340.853 292.458 341.299 292.458 341.974C292.458 342.622 292.958 343.095 293.565 343.095ZM30.5244 349.55L33.7239 354.153L30.3084 359H32.3334L34.7769 355.557L37.2339 359H39.3129L35.8839 354.086L39.0564 349.55H37.0044L34.7769 352.709L32.5494 349.55H30.5244ZM43.0134 359.095C45.2544 359.095 46.8609 357.555 46.8609 355.395C46.8609 353.235 45.2544 351.71 43.0134 351.71C40.7994 351.71 39.1794 353.235 39.1794 355.395C39.1794 357.555 40.7994 359.095 43.0134 359.095ZM43.0134 357.65C41.7984 357.65 40.8804 356.772 40.8804 355.395C40.8804 354.018 41.7984 353.141 43.0134 353.141C44.2419 353.141 45.1599 354.018 45.1599 355.395C45.1599 356.772 44.2419 357.65 43.0134 357.65ZM52.1189 351.71C51.1334 351.71 50.2964 352.047 49.7294 352.736V351.791H48.1229V361.619H49.8104V358.122C50.3909 358.784 51.2009 359.095 52.1189 359.095C54.2249 359.095 55.7774 357.636 55.7774 355.395C55.7774 353.168 54.2249 351.71 52.1189 351.71ZM51.9299 357.65C50.7149 357.65 49.7834 356.772 49.7834 355.395C49.7834 354.018 50.7149 353.141 51.9299 353.141C53.1449 353.141 54.0629 354.018 54.0629 355.395C54.0629 356.772 53.1449 357.65 51.9299 357.65ZM60.2649 359.095C62.5059 359.095 64.1124 357.555 64.1124 355.395C64.1124 353.235 62.5059 351.71 60.2649 351.71C58.0509 351.71 56.4309 353.235 56.4309 355.395C56.4309 357.555 58.0509 359.095 60.2649 359.095ZM60.2649 357.65C59.0499 357.65 58.1319 356.772 58.1319 355.395C58.1319 354.018 59.0499 353.141 60.2649 353.141C61.4934 353.141 62.4114 354.018 62.4114 355.395C62.4114 356.772 61.4934 357.65 60.2649 357.65ZM74.3114 351.791V357.569H71.5439V351.791H69.8564V357.569H67.0619V351.791H65.3744V359H75.9989V351.791H74.3114ZM81.076 359.095C83.317 359.095 84.9235 357.555 84.9235 355.395C84.9235 353.235 83.317 351.71 81.076 351.71C78.862 351.71 77.242 353.235 77.242 355.395C77.242 357.555 78.862 359.095 81.076 359.095ZM81.076 357.65C79.861 357.65 78.943 356.772 78.943 355.395C78.943 354.018 79.861 353.141 81.076 353.141C82.3045 353.141 83.2225 354.018 83.2225 355.395C83.2225 356.772 82.3045 357.65 81.076 357.65ZM93.413 352.142C92.306 352.142 91.361 352.587 90.7265 353.357C90.875 351.791 91.6985 350.981 93.44 350.616L96.4775 349.995L96.2345 348.483L92.8865 349.199C90.3215 349.739 89.1065 351.426 89.1065 354.315C89.1065 357.461 90.5645 359.135 93.035 359.135C95.303 359.135 96.8825 357.717 96.8825 355.598C96.8825 353.559 95.4785 352.142 93.413 352.142ZM93.0755 357.771C91.8335 357.771 90.9695 356.894 90.9695 355.638C90.9695 354.383 91.82 353.573 93.0755 353.573C94.3175 353.573 95.1545 354.383 95.1545 355.638C95.1545 356.88 94.3175 357.771 93.0755 357.771ZM101.621 354.167L99.7984 354.153V351.791H98.1109V359L101.378 359.014C103.349 359.027 104.456 358.122 104.456 356.543C104.456 355.044 103.47 354.167 101.621 354.167ZM105.387 359H107.075V351.791H105.387V359ZM101.229 357.771L99.7984 357.758V355.314L101.229 355.328C102.228 355.341 102.755 355.692 102.755 356.516C102.755 357.353 102.215 357.785 101.229 357.771ZM112.264 351.791V359H113.952V353.222H117.502V359H119.176V351.791H112.264ZM124.261 359.095C126.502 359.095 128.109 357.555 128.109 355.395C128.109 353.235 126.502 351.71 124.261 351.71C122.047 351.71 120.427 353.235 120.427 355.395C120.427 357.555 122.047 359.095 124.261 359.095ZM124.261 357.65C123.046 357.65 122.128 356.772 122.128 355.395C122.128 354.018 123.046 353.141 124.261 353.141C125.49 353.141 126.408 354.018 126.408 355.395C126.408 356.772 125.49 357.65 124.261 357.65ZM129.371 359H130.923L134.892 354.248V359H136.58V351.791H135.041L131.058 356.543V351.791H129.371V359ZM141.725 359.095C143.129 359.095 144.25 358.487 144.803 357.407L143.507 356.651C143.075 357.339 142.427 357.65 141.712 357.65C140.47 357.65 139.525 356.799 139.525 355.395C139.525 354.005 140.47 353.141 141.712 353.141C142.427 353.141 143.075 353.451 143.507 354.14L144.803 353.384C144.25 352.29 143.129 351.71 141.725 351.71C139.444 351.71 137.824 353.235 137.824 355.395C137.824 357.555 139.444 359.095 141.725 359.095ZM151.055 359H153.039L150.245 355.26L152.864 351.791H151.055L148.922 354.707H147.572V351.791H145.884V359H147.572V356.111H148.881L151.055 359ZM156.379 351.71C155.218 351.71 154.097 352.007 153.328 352.601L153.989 353.829C154.529 353.384 155.366 353.114 156.176 353.114C157.378 353.114 157.972 353.694 157.972 354.68V354.788H156.109C153.922 354.788 153.112 355.733 153.112 356.934C153.112 358.19 154.151 359.095 155.798 359.095C156.878 359.095 157.661 358.743 158.066 358.122V359H159.659V354.774C159.659 352.695 158.458 351.71 156.379 351.71ZM156.149 357.866C155.285 357.866 154.772 357.474 154.772 356.867C154.772 356.34 155.083 355.908 156.23 355.908H157.972V356.745C157.688 357.488 156.973 357.866 156.149 357.866ZM167.053 351.791H160.303V353.222H162.841V359H164.529V353.222H167.053V351.791ZM171.49 354.167L169.56 354.153V351.791H167.872V359L171.247 359.014C173.218 359.027 174.339 358.122 174.339 356.543C174.339 355.044 173.34 354.167 171.49 354.167ZM171.099 357.771L169.56 357.758V355.314L171.099 355.328C172.098 355.341 172.624 355.692 172.624 356.516C172.624 357.353 172.084 357.785 171.099 357.771ZM185.371 357.569V351.791H179.431L179.337 354.261C179.256 355.949 179.08 357.528 178.068 357.569H177.73V360.607H179.296V359H184.858V360.607H186.438V357.569H185.371ZM180.876 354.383L180.916 353.222H183.684V357.569H180.133C180.714 357.016 180.822 355.733 180.876 354.383ZM191.536 351.71C190.55 351.71 189.713 352.047 189.146 352.736V351.791H187.54V361.619H189.227V358.122C189.808 358.784 190.618 359.095 191.536 359.095C193.642 359.095 195.194 357.636 195.194 355.395C195.194 353.168 193.642 351.71 191.536 351.71ZM191.347 357.65C190.132 357.65 189.2 356.772 189.2 355.395C189.2 354.018 190.132 353.141 191.347 353.141C192.562 353.141 193.48 354.018 193.48 355.395C193.48 356.772 192.562 357.65 191.347 357.65ZM201.455 351.791L199.174 357.123L196.906 351.791H195.151L198.296 359.027L198.175 359.311C197.851 360.026 197.5 360.31 196.906 360.31C196.447 360.31 195.988 360.121 195.664 359.81L194.989 361.052C195.448 361.471 196.204 361.714 196.919 361.714C198.121 361.714 199.039 361.214 199.7 359.581L203.075 351.791H201.455ZM209.377 351.791H203.842V359H205.53V353.222H209.377V351.791ZM210.2 359H211.753L215.722 354.248V359H217.409V351.791H215.87L211.888 356.543V351.791H210.2V359ZM226.024 355.436C226.024 353.181 224.485 351.71 222.379 351.71C220.233 351.71 218.653 353.249 218.653 355.395C218.653 357.542 220.219 359.095 222.636 359.095C223.878 359.095 224.89 358.689 225.538 357.92L224.634 356.88C224.121 357.407 223.486 357.663 222.676 357.663C221.421 357.663 220.543 356.988 220.341 355.935H225.997C226.011 355.773 226.024 355.571 226.024 355.436ZM222.379 353.06C223.486 353.06 224.283 353.775 224.418 354.815H220.327C220.489 353.762 221.286 353.06 222.379 353.06ZM230.791 359H232.344L236.313 354.248V359H238V351.791H236.461L232.479 356.543V351.791H230.791V359ZM243.146 359.095C244.55 359.095 245.67 358.487 246.224 357.407L244.928 356.651C244.496 357.339 243.848 357.65 243.132 357.65C241.89 357.65 240.945 356.799 240.945 355.395C240.945 354.005 241.89 353.141 243.132 353.141C243.848 353.141 244.496 353.451 244.928 354.14L246.224 353.384C245.67 352.29 244.55 351.71 243.146 351.71C240.864 351.71 239.244 353.235 239.244 355.395C239.244 357.555 240.864 359.095 243.146 359.095ZM252.949 351.791H246.199V353.222H248.737V359H250.424V353.222H252.949V351.791ZM256.665 359.095C258.906 359.095 260.512 357.555 260.512 355.395C260.512 353.235 258.906 351.71 256.665 351.71C254.451 351.71 252.831 353.235 252.831 355.395C252.831 357.555 254.451 359.095 256.665 359.095ZM256.665 357.65C255.45 357.65 254.532 356.772 254.532 355.395C254.532 354.018 255.45 353.141 256.665 353.141C257.893 353.141 258.811 354.018 258.811 355.395C258.811 356.772 257.893 357.65 256.665 357.65ZM266.202 351.791V354.95C265.622 355.22 264.987 355.355 264.393 355.355C263.421 355.355 262.841 354.936 262.841 353.991V351.791H261.153V354.099C261.153 355.895 262.206 356.705 264.029 356.705C264.825 356.705 265.554 356.516 266.202 356.205V359H267.89V351.791H266.202ZM269.754 359H271.441V356.151H275.073V359H276.76V351.791H275.073V354.72H271.441V351.791H269.754V359ZM278.617 359H280.169L284.138 354.248V359H285.826V351.791H284.287L280.304 356.543V351.791H278.617V359ZM292.861 359H294.846L292.051 355.26L294.67 351.791H292.861L290.728 354.707H289.378V351.791H287.691V359H289.378V356.111H290.688L292.861 359ZM295.631 359H297.184L301.153 354.248V359H302.84V351.791H301.301L297.319 356.543V351.791H295.631V359ZM305.218 359.095C305.826 359.095 306.325 358.622 306.325 357.974C306.325 357.299 305.826 356.853 305.218 356.853C304.611 356.853 304.111 357.299 304.111 357.974C304.111 358.622 304.611 359.095 305.218 359.095Z" fill="black"/>
<path d="M252 5C252 26.7477 243.361 47.6048 227.983 62.9828C212.605 78.3607 191.748 87 170 87C148.252 87 127.395 78.3607 112.017 62.9828C96.6393 47.6048 88 26.7478 88 5.00002L170 5H252Z" fill="white"/>
<path d="M48.032 423.216C48.032 414.96 35.328 417.52 35.328 414.096C35.328 412.976 36.288 412.08 38.944 412.08C40.896 412.08 43.008 412.656 45.152 413.808L47.104 409.104C45.312 408.048 42.976 407.408 40.608 407.216V403.76H36.768V407.28C31.584 407.92 29.056 410.896 29.056 414.416C29.056 422.736 41.792 420.144 41.792 423.696C41.792 424.784 40.768 425.52 38.144 425.52C35.552 425.52 32.736 424.624 30.752 423.312L28.672 427.984C30.528 429.264 33.568 430.192 36.768 430.416V433.84H40.608V430.288C45.6 429.552 48.032 426.608 48.032 423.216Z" fill="#00BCBC"/>
<path d="M60.14 412V414.6H62.94V426H66.18V412H60.14ZM74.612 426.24C78.072 426.24 80.612 423.62 80.612 419C80.612 414.38 78.072 411.76 74.612 411.76C71.172 411.76 68.612 414.38 68.612 419C68.612 423.62 71.172 426.24 74.612 426.24ZM74.612 423.5C73.012 423.5 71.892 422.18 71.892 419C71.892 415.82 73.012 414.5 74.612 414.5C76.232 414.5 77.352 415.82 77.352 419C77.352 422.18 76.232 423.5 74.612 423.5ZM93.8503 426.24C97.3103 426.24 99.8503 423.62 99.8503 419C99.8503 414.38 97.3103 411.76 93.8503 411.76C90.4103 411.76 87.8503 414.38 87.8503 419C87.8503 423.62 90.4103 426.24 93.8503 426.24ZM93.8503 423.5C92.2503 423.5 91.1303 422.18 91.1303 419C91.1303 415.82 92.2503 414.5 93.8503 414.5C95.4703 414.5 96.5903 415.82 96.5903 419C96.5903 422.18 95.4703 423.5 93.8503 423.5ZM107.425 426.24C110.885 426.24 113.425 423.62 113.425 419C113.425 414.38 110.885 411.76 107.425 411.76C103.985 411.76 101.425 414.38 101.425 419C101.425 423.62 103.985 426.24 107.425 426.24ZM107.425 423.5C105.825 423.5 104.705 422.18 104.705 419C104.705 415.82 105.825 414.5 107.425 414.5C109.045 414.5 110.165 415.82 110.165 419C110.165 422.18 109.045 423.5 107.425 423.5ZM120.999 426.24C124.459 426.24 126.999 423.62 126.999 419C126.999 414.38 124.459 411.76 120.999 411.76C117.559 411.76 114.999 414.38 114.999 419C114.999 423.62 117.559 426.24 120.999 426.24ZM120.999 423.5C119.399 423.5 118.279 422.18 118.279 419C118.279 415.82 119.399 414.5 120.999 414.5C122.619 414.5 123.739 415.82 123.739 419C123.739 422.18 122.619 423.5 120.999 423.5Z" fill="black"/>
<path d="M242.32 417.7L245.48 414.1V412H235.68V414.6H241.64L238.76 417.86V420H240.24C242.08 420 242.86 420.66 242.86 421.72C242.86 422.86 241.86 423.52 240.24 423.52C238.78 423.52 237.3 423.06 236.24 422.26L234.98 424.74C236.34 425.7 238.36 426.24 240.32 426.24C244.3 426.24 246.12 424.08 246.12 421.72C246.12 419.66 244.84 418.1 242.32 417.7ZM253.616 426.24C257.076 426.24 259.616 423.62 259.616 419C259.616 414.38 257.076 411.76 253.616 411.76C250.176 411.76 247.616 414.38 247.616 419C247.616 423.62 250.176 426.24 253.616 426.24ZM253.616 423.5C252.016 423.5 250.896 422.18 250.896 419C250.896 415.82 252.016 414.5 253.616 414.5C255.236 414.5 256.356 415.82 256.356 419C256.356 422.18 255.236 423.5 253.616 423.5ZM280.894 426L280.854 415.24H277.934L274.274 421.46L270.834 415.24H267.574V426H270.394V419.54L273.534 424.96H274.854L278.074 419.56V426H280.894ZM283.883 426H286.763L291.983 419.6V426H295.083V415.24H292.223L286.983 421.64V415.24H283.883V426ZM298.082 426H301.182V421.98H305.862V426H308.982V415.24H305.862V419.44H301.182V415.24H298.082V426Z" fill="black"/>
<path d="M216.5 406C209.595 406 204 411.595 204 418.5C204 425.405 209.595 431 216.5 431C223.405 431 229 425.405 229 418.5C229 411.595 223.405 406 216.5 406Z" fill="#00BCBC"/>
<path fill-rule="evenodd" clip-rule="evenodd" d="M215.961 410C214.878 410 214 410.878 214 411.961V419.153C214 419.311 214.019 419.464 214.054 419.611C214.047 420.263 214.376 420.901 214.974 421.262L220.414 424.535C221.313 425.077 222.481 424.786 223.022 423.887C223.563 422.988 223.273 421.82 222.374 421.279L217.923 418.6V411.961C217.923 410.878 217.045 410 215.961 410Z" fill="white"/>
<g filter="url(#filter0_d)">
<path d="M162.531 400.393L185.975 433.213C179.766 434.57 168.698 428.331 168.698 428.331C168.698 428.331 160.834 438.706 154.912 440L162.531 400.393Z" fill="white"/>
<path fill-rule="evenodd" clip-rule="evenodd" d="M154.912 440L158.469 421.51C161.522 424.284 164.956 426.604 168.698 428.331C168.698 428.331 160.834 438.706 154.912 440Z" fill="#BBFFF9"/>
</g>
<path d="M139.53 25.4V34.274H147.07V66H158.554V25.4H139.53ZM182.756 40.19H180.03L180.552 34.274H196.908V25.4H171.04L169.01 49.122H180.03C186.236 49.122 187.918 50.746 187.918 53.24C187.918 55.966 185.308 57.532 181.422 57.532C177.536 57.532 173.476 56.372 170.17 54.168L166.052 62.81C170.17 65.42 176.144 66.812 181.77 66.812C194.008 66.812 199.46 60.2 199.46 52.95C199.46 45.758 194.762 40.19 182.756 40.19Z" fill="#46BBCE"/>
<g filter="url(#filter1_di)">
<path d="M170 114C142.982 114 121 133.762 121 158.053C121 166.543 123.689 174.768 128.788 181.88C127.823 192.546 125.235 200.464 121.479 204.215C120.982 204.711 120.858 205.47 121.172 206.096C121.449 206.656 122.021 207 122.633 207C122.709 207 122.784 206.995 122.86 206.984C123.522 206.891 138.888 204.682 150.003 198.273C156.314 200.816 163.037 202.105 170 202.105C197.019 202.105 219 182.344 219 158.053C219 133.762 197.019 114 170 114ZM147.133 164.579C143.53 164.579 140.6 161.652 140.6 158.053C140.6 154.453 143.53 151.526 147.133 151.526C150.737 151.526 153.667 154.453 153.667 158.053C153.667 161.652 150.737 164.579 147.133 164.579ZM170 164.579C166.397 164.579 163.467 161.652 163.467 158.053C163.467 154.453 166.397 151.526 170 151.526C173.603 151.526 176.533 154.453 176.533 158.053C176.533 161.652 173.603 164.579 170 164.579ZM192.867 164.579C189.264 164.579 186.333 161.652 186.333 158.053C186.333 154.453 189.264 151.526 192.867 151.526C196.47 151.526 199.4 154.453 199.4 158.053C199.4 161.652 196.47 164.579 192.867 164.579Z" fill="white"/>
</g>
<defs>
<filter id="filter0_d" x="150.912" y="396.393" width="45.0628" height="53.6066" filterUnits="userSpaceOnUse" color-interpolation-filters="sRGB">
<feFlood flood-opacity="0" result="BackgroundImageFix"/>
<feColorMatrix in="SourceAlpha" type="matrix" values="0 0 0 0 0 0 0 0 0 0 0 0 0 0 0 0 0 0 127 0"/>
<feOffset dx="3" dy="3"/>
<feGaussianBlur stdDeviation="3.5"/>
<feColorMatrix type="matrix" values="0 0 0 0 0.279 0 0 0 0 0.9 0 0 0 0 0.840225 0 0 0 1 0"/>
<feBlend mode="normal" in2="BackgroundImageFix" result="effect1_dropShadow"/>
<feBlend mode="normal" in="SourceGraphic" in2="effect1_dropShadow" result="shape"/>
</filter>
<filter id="filter1_di" x="115" y="108" width="118" height="113" filterUnits="userSpaceOnUse" color-interpolation-filters="sRGB">
<feFlood flood-opacity="0" result="BackgroundImageFix"/>
<feColorMatrix in="SourceAlpha" type="matrix" values="0 0 0 0 0 0 0 0 0 0 0 0 0 0 0 0 0 0 127 0"/>
<feOffset dx="4" dy="4"/>
<feGaussianBlur stdDeviation="5"/>
<feColorMatrix type="matrix" values="0 0 0 0 0.1715 0 0 0 0 0.816667 0 0 0 0 0.816667 0 0 0 1 0"/>
<feBlend mode="normal" in2="BackgroundImageFix" result="effect1_dropShadow"/>
<feBlend mode="normal" in="SourceGraphic" in2="effect1_dropShadow" result="shape"/>
<feColorMatrix in="SourceAlpha" type="matrix" values="0 0 0 0 0 0 0 0 0 0 0 0 0 0 0 0 0 0 127 0" result="hardAlpha"/>
<feOffset dx="-4" dy="-4"/>
<feGaussianBlur stdDeviation="4.5"/>
<feComposite in2="hardAlpha" operator="arithmetic" k2="-1" k3="1"/>
<feColorMatrix type="matrix" values="0 0 0 0 0.441945 0 0 0 0 0.887146 0 0 0 0 0.895833 0 0 0 0.52 0"/>
<feBlend mode="normal" in2="shape" result="effect2_innerShadow"/>
</filter>
<linearGradient id="paint0_linear" x1="5.5" y1="-157" x2="289.5" y2="495.5" gradientUnits="userSpaceOnUse">
<stop stop-color="#00C2FF"/>
<stop offset="1" stop-color="#1EE7CF"/>
</linearGradient>
<linearGradient id="paint1_linear" x1="49" y1="11" x2="301.5" y2="474" gradientUnits="userSpaceOnUse">
<stop stop-color="#19D2EB"/>
<stop offset="1" stop-color="#55F5DF"/>
</linearGradient>
<linearGradient id="paint2_linear" x1="59.5" y1="-9" x2="291.5" y2="495.5" gradientUnits="userSpaceOnUse">
<stop stop-color="#00E0FF"/>
<stop offset="1" stop-color="#42F2D1"/>
</linearGradient>
<linearGradient id="paint3_linear" x1="51" y1="11" x2="303.5" y2="474" gradientUnits="userSpaceOnUse">
<stop stop-color="#B2F6FF"/>
<stop offset="1" stop-color="#28D7BE"/>
</linearGradient>
<linearGradient id="paint4_linear" x1="27" y1="473.49" x2="247.084" y2="60.8524" gradientUnits="userSpaceOnUse">
<stop stop-color="#73F5FF"/>
<stop offset="0.99" stop-color="#7AFFEC"/>
</linearGradient>
<linearGradient id="paint5_linear" x1="129.774" y1="288" x2="310" y2="288" gradientUnits="userSpaceOnUse">
<stop stop-color="white"/>
<stop offset="0.99" stop-color="white" stop-opacity="0.4"/>
</linearGradient>
<linearGradient id="paint6_linear" x1="59.8997" y1="86" x2="140" y2="86" gradientUnits="userSpaceOnUse">
<stop stop-color="white"/>
<stop offset="0.99" stop-color="white" stop-opacity="0.4"/>
</linearGradient>
</defs>
</svg>
