<svg width="338" height="474" viewBox="0 0 338 474" fill="none" xmlns="http://www.w3.org/2000/svg">
<rect x="2.5" y="2.5" width="331" height="469" rx="32.5" fill="url(#paint0_linear)" stroke="url(#paint1_linear)" stroke-width="5"/>
<mask id="mask0" mask-type="alpha" maskUnits="userSpaceOnUse" x="2" y="0" width="336" height="474">
<rect x="4.5" y="2.5" width="331" height="469" rx="41.5" fill="url(#paint2_linear)" stroke="url(#paint3_linear)" stroke-width="5"/>
</mask>
<g mask="url(#mask0)">
<path d="M198.89 5.0093C198.89 5.0093 97.8208 47.0947 93.9888 101.845C90.1568 156.595 112.775 152.615 106.069 185.086C99.3632 217.557 -10.9124 255.616 18.7856 356.766C48.4837 457.916 142.368 370.584 242 469H35C18.4315 469 5 455.569 5 439V35.0014C5 18.4323 18.4323 5.00064 35.0014 5.00144L198.89 5.0093Z" fill="url(#paint4_linear)" fill-opacity="0.5"/>
</g>
<path opacity="0.46" d="M219.887 378C202.092 377.978 184.702 372.68 169.917 362.777C155.131 352.875 143.613 338.811 136.819 322.363C130.024 305.916 128.258 287.824 131.743 270.373C135.229 252.922 143.809 236.896 156.4 224.321C168.992 211.745 185.028 203.185 202.483 199.721C219.939 196.258 238.029 198.046 254.468 204.862C270.906 211.677 284.956 223.212 294.84 238.01C304.724 252.808 310 270.204 310 288C309.958 311.876 300.447 334.761 283.553 351.633C266.66 368.506 243.763 377.988 219.887 378ZM219.887 222.747C206.985 222.764 194.378 226.607 183.659 233.788C172.94 240.969 164.59 251.166 159.665 263.091C154.74 275.016 153.461 288.134 155.989 300.786C158.517 313.438 164.739 325.056 173.868 334.173C182.998 343.29 194.625 349.496 207.28 352.006C219.936 354.517 233.051 353.219 244.97 348.278C256.888 343.336 267.074 334.972 274.24 324.243C281.406 313.515 285.231 300.902 285.231 288C285.177 270.703 278.27 254.132 266.022 241.918C253.774 229.704 237.184 222.843 219.887 222.837V222.747Z" fill="url(#paint5_linear)"/>
<path opacity="0.46" d="M99.9498 126C92.0407 125.99 84.3121 123.636 77.7407 119.234C71.1694 114.833 66.0503 108.583 63.0305 101.273C60.0106 93.9627 59.2257 85.9216 60.7747 78.1657C62.3238 70.4097 66.1374 63.2871 71.7335 57.698C77.3296 52.1089 84.457 48.3043 92.2148 46.7649C99.9727 45.2256 108.013 46.0207 115.319 49.0496C122.625 52.0786 128.869 57.2055 133.262 63.7824C137.655 70.3593 140 78.0909 140 86C139.981 96.6116 135.754 106.783 128.246 114.281C120.738 121.78 110.561 125.995 99.9498 126ZM99.9498 56.9985C94.2156 57.0064 88.6124 58.7141 83.8484 61.9056C79.0844 65.0972 75.3735 69.6294 73.1846 74.9294C70.9957 80.2294 70.4271 86.0594 71.5506 91.6825C72.6742 97.3056 75.4395 102.469 79.497 106.521C83.5545 110.573 88.7222 113.331 94.3468 114.447C99.9715 115.563 105.801 114.986 111.098 112.79C116.395 110.594 120.922 106.877 124.107 102.108C127.292 97.3398 128.991 91.7342 128.991 86C128.968 78.3124 125.898 70.9477 120.454 65.5193C115.011 60.0908 107.637 57.0412 99.9498 57.0386V56.9985Z" fill="url(#paint6_linear)"/>
<path d="M90.2648 228.2L86.2088 236.312L82.2968 228.2H77.2808L83.8088 240.296C83.1848 241.208 82.5128 241.592 81.5768 241.592C81.0728 241.592 80.5448 241.496 79.8968 241.304L78.7688 244.808C79.8008 245.216 80.7848 245.432 81.7448 245.432C84.2648 245.432 86.4488 243.992 87.9368 241.184L94.8968 228.2H90.2648Z" fill="black"/>
<path d="M104.371 245.336C107.467 245.336 109.963 244.208 111.595 242.168L108.571 239.432C107.515 240.704 106.219 241.4 104.611 241.4C101.851 241.4 99.9308 239.48 99.9308 236.6C99.9308 233.72 101.851 231.8 104.611 231.8C106.219 231.8 107.515 232.496 108.571 233.768L111.595 231.032C109.963 228.992 107.467 227.864 104.371 227.864C99.0428 227.864 95.1308 231.488 95.1308 236.6C95.1308 241.712 99.0428 245.336 104.371 245.336Z" fill="black"/>
<path d="M127.137 228.2H112.161V231.968H117.321V245H122.001V231.968H127.137V228.2Z" fill="black"/>
<path d="M141.396 245H146.34L138.9 228.2H134.22L126.804 245H131.652L132.972 241.736H140.076L141.396 245ZM134.364 238.232L136.524 232.856L138.684 238.232H134.364Z" fill="black"/>
<path d="M159.497 228.2V234.512H153.017V228.2H148.265V245H153.017V238.448H159.497V245H164.249V228.2H159.497Z" fill="black"/>
<path d="M176.115 245.336C181.491 245.336 185.451 241.64 185.451 236.6C185.451 231.56 181.491 227.864 176.115 227.864C170.739 227.864 166.779 231.56 166.779 236.6C166.779 241.64 170.739 245.336 176.115 245.336ZM176.115 241.4C173.571 241.4 171.579 239.504 171.579 236.6C171.579 233.696 173.571 231.8 176.115 231.8C178.659 231.8 180.651 233.696 180.651 236.6C180.651 239.504 178.659 241.4 176.115 241.4Z" fill="black"/>
<path d="M200.231 236.216C201.671 235.496 202.511 234.224 202.511 232.568C202.511 229.784 200.159 228.2 196.151 228.2H187.991V245H196.607C200.927 245 203.279 243.152 203.279 240.2C203.279 238.184 202.175 236.84 200.231 236.216ZM192.671 231.608H195.695C197.039 231.608 197.711 232.184 197.711 233.264C197.711 234.368 197.039 234.92 195.695 234.92H192.671V231.608ZM196.415 241.592H192.671V238.136H196.415C197.783 238.136 198.479 238.688 198.479 239.84C198.479 240.992 197.783 241.592 196.415 241.592Z" fill="black"/>
<path d="M205.851 245H210.339L217.251 235.16V245H221.931V228.2H217.467L210.531 238.064V228.2H205.851V245Z" fill="black"/>
<path d="M239.074 228.2H224.098V231.968H229.258V245H233.938V231.968H239.074V228.2Z" fill="black"/>
<path d="M249.833 233.552H245.945V228.2H241.265V245H249.209C253.577 245 256.289 242.96 256.289 239.024C256.289 235.352 253.913 233.552 249.833 233.552ZM248.897 241.592H245.945V236.936H248.897C250.505 236.936 251.513 237.536 251.513 239.12C251.513 240.704 250.481 241.592 248.897 241.592Z" fill="black"/>
<path d="M97.3483 256.2H89.6683V273H94.4203V268.608H97.3483C101.932 268.608 104.812 266.232 104.812 262.416C104.812 258.576 101.932 256.2 97.3483 256.2ZM97.0603 264.864H94.4203V259.944H97.0603C99.0283 259.944 100.012 260.856 100.012 262.416C100.012 263.952 99.0283 264.864 97.0603 264.864Z" fill="black"/>
<path d="M118.361 256.2V262.512H111.881V256.2H107.129V273H111.881V266.448H118.361V273H123.113V256.2H118.361Z" fill="black"/>
<path d="M134.937 273.336C140.313 273.336 144.273 269.64 144.273 264.6C144.273 259.56 140.313 255.864 134.937 255.864C129.561 255.864 125.601 259.56 125.601 264.6C125.601 269.64 129.561 273.336 134.937 273.336ZM134.937 269.4C132.393 269.4 130.401 267.504 130.401 264.6C130.401 261.696 132.393 259.8 134.937 259.8C137.481 259.8 139.473 261.696 139.473 264.6C139.473 267.504 137.481 269.4 134.937 269.4Z" fill="black"/>
<path d="M150.104 273H154.856V259.968H159.992V256.2H144.944V259.968H150.104V273Z" fill="black"/>
<path d="M170 273.336C175.376 273.336 179.336 269.64 179.336 264.6C179.336 259.56 175.376 255.864 170 255.864C164.624 255.864 160.664 259.56 160.664 264.6C160.664 269.64 164.624 273.336 170 273.336ZM170 269.4C167.456 269.4 165.464 267.504 165.464 264.6C165.464 261.696 167.456 259.8 170 259.8C172.544 259.8 174.536 261.696 174.536 264.6C174.536 267.504 172.544 269.4 170 269.4Z" fill="black"/>
<path d="M187.729 273.336C192.721 273.336 195.169 270.84 195.169 267.912C195.169 261.72 185.641 263.64 185.641 261.072C185.641 260.232 186.361 259.56 188.353 259.56C189.817 259.56 191.401 259.992 193.009 260.856L194.473 257.328C192.817 256.368 190.561 255.864 188.377 255.864C183.385 255.864 180.937 258.312 180.937 261.312C180.937 267.552 190.489 265.608 190.489 268.272C190.489 269.088 189.721 269.64 187.753 269.64C185.809 269.64 183.697 268.968 182.209 267.984L180.649 271.488C182.233 272.592 184.969 273.336 187.729 273.336Z" fill="black"/>
<path d="M208.596 256.2V262.512H202.116V256.2H197.364V273H202.116V266.448H208.596V273H213.348V256.2H208.596Z" fill="black"/>
<path d="M225.172 273.336C230.548 273.336 234.508 269.64 234.508 264.6C234.508 259.56 230.548 255.864 225.172 255.864C219.796 255.864 215.836 259.56 215.836 264.6C215.836 269.64 219.796 273.336 225.172 273.336ZM225.172 269.4C222.628 269.4 220.636 267.504 220.636 264.6C220.636 261.696 222.628 259.8 225.172 259.8C227.716 259.8 229.708 261.696 229.708 264.6C229.708 267.504 227.716 269.4 225.172 269.4Z" fill="black"/>
<path d="M244.676 256.2H236.996V273H241.748V268.608H244.676C249.26 268.608 252.14 266.232 252.14 262.416C252.14 258.576 249.26 256.2 244.676 256.2ZM244.388 264.864H241.748V259.944H244.388C246.356 259.944 247.34 260.856 247.34 262.416C247.34 263.952 246.356 264.864 244.388 264.864Z" fill="black"/>
<path fill-rule="evenodd" clip-rule="evenodd" d="M86.2808 225.179C87.2153 223.946 88.6833 223.2 90.2648 223.2H94.8968C96.0207 223.2 97.0919 223.577 97.9543 224.244C99.8886 223.35 102.071 222.864 104.371 222.864C106.266 222.864 108.097 223.172 109.786 223.799C110.493 223.417 111.301 223.2 112.161 223.2H127.137C128.52 223.2 129.773 223.762 130.678 224.67C131.6 223.746 132.866 223.2 134.22 223.2H138.9C140.878 223.2 142.67 224.366 143.471 226.175L143.586 226.434C144.3 224.544 146.125 223.2 148.265 223.2H153.017C154.253 223.2 155.384 223.649 156.257 224.392C157.13 223.649 158.261 223.2 159.497 223.2H164.249C165.825 223.2 167.231 223.929 168.147 225.069C170.438 223.654 173.185 222.864 176.115 222.864C179.047 222.864 181.797 223.656 184.089 225.074C185.006 223.931 186.413 223.2 187.991 223.2H196.151C198.269 223.2 200.498 223.535 202.469 224.517C203.359 223.699 204.547 223.2 205.851 223.2H210.531C211.877 223.2 213.1 223.732 213.999 224.598C214.922 223.71 216.161 223.2 217.467 223.2H221.931C222.303 223.2 222.666 223.241 223.015 223.318C223.364 223.241 223.726 223.2 224.098 223.2H239.074C239.451 223.2 239.817 223.242 240.17 223.32C240.522 223.242 240.889 223.2 241.265 223.2H245.945C248.706 223.2 250.945 225.439 250.945 228.2V228.587C253.299 228.735 255.755 229.392 257.769 231.051C260.27 233.11 261.289 236.04 261.289 239.024C261.289 242.233 260.124 245.253 257.554 247.357C255.137 249.336 252.089 250 249.209 250H241.265C239.818 250 238.515 249.385 237.602 248.403C236.689 249.385 235.385 250 233.938 250H229.258C227.811 250 226.508 249.385 225.595 248.403C224.682 249.385 223.378 250 221.931 250H217.251C215.91 250 214.693 249.472 213.795 248.613C212.873 249.495 211.639 250 210.339 250H205.851C204.629 250 203.509 249.561 202.64 248.833C200.762 249.681 198.665 250 196.607 250H187.991C186.413 250 185.006 249.269 184.089 248.126C181.797 249.544 179.047 250.336 176.115 250.336C173.185 250.336 170.438 249.546 168.147 248.131C167.231 249.271 165.825 250 164.249 250H159.497C158.261 250 157.13 249.552 156.257 248.808C155.384 249.552 154.253 250 153.017 250H148.265C147.935 250 147.612 249.968 147.3 249.907C146.987 249.968 146.665 250 146.34 250H141.396C139.358 250 137.524 248.764 136.76 246.875L136.704 246.736H136.343L136.287 246.875C135.523 248.764 133.689 250 131.652 250H126.804C125.951 250 125.128 249.783 124.403 249.386C123.69 249.777 122.872 250 122.001 250H117.321C115.526 250 113.951 249.054 113.07 247.633C110.609 249.451 107.581 250.336 104.371 250.336C99.2199 250.336 94.6565 247.9 92.1546 243.892C89.9833 247.747 86.3775 250.432 81.7448 250.432C80.0221 250.432 78.4095 250.043 76.9305 249.458C74.4798 248.489 73.2018 245.784 74.0093 243.276L75.1373 239.772C75.429 238.866 75.9555 238.099 76.6285 237.519L72.8807 230.575C72.0444 229.025 72.0848 227.15 72.987 225.638C73.8891 224.126 75.5201 223.2 77.2808 223.2H82.2968C83.8795 223.2 85.3471 223.947 86.2808 225.179ZM80.1281 241.37C80.0526 241.349 79.9756 241.327 79.8968 241.304L78.7688 244.808C78.7956 244.819 78.8224 244.829 78.8492 244.839C79.2535 244.996 79.6505 245.122 80.0417 245.218C80.5626 245.345 81.0732 245.417 81.5768 245.43C81.6328 245.431 81.6888 245.432 81.7448 245.432C82.5145 245.432 83.2529 245.298 83.9497 245.031C85.1324 244.578 86.1952 243.745 87.088 242.54C87.3912 242.13 87.6748 241.678 87.9368 241.184L94.8968 228.2H90.2648L86.2088 236.312L82.2968 228.2H77.2808L83.8088 240.296C83.7401 240.396 83.6709 240.49 83.6008 240.578C83.0725 241.239 82.4949 241.549 81.7448 241.588C81.6897 241.591 81.6337 241.592 81.5768 241.592C81.5227 241.592 81.4683 241.591 81.4135 241.589C81.0201 241.573 80.6063 241.5 80.1281 241.37ZM117.321 245H122.001V231.968H127.137V228.2H112.161V231.968H117.321V245ZM108.571 233.768L111.595 231.032C111.388 230.773 111.167 230.53 110.933 230.301C109.932 229.323 108.688 228.62 107.242 228.228C107.215 228.221 107.188 228.213 107.161 228.206C106.368 227.999 105.516 227.884 104.611 227.866C104.531 227.865 104.451 227.864 104.371 227.864C102.7 227.864 101.168 228.221 99.852 228.868C99.2405 229.169 98.6757 229.532 98.1654 229.952C96.2737 231.508 95.1308 233.837 95.1308 236.6C95.1308 237.124 95.1718 237.632 95.2512 238.122C95.9471 242.416 99.5886 245.336 104.371 245.336C104.451 245.336 104.531 245.335 104.611 245.334C105.547 245.316 106.426 245.193 107.242 244.972C108.688 244.58 109.932 243.878 110.933 242.899C111.167 242.67 111.388 242.427 111.595 242.168L108.571 239.432C108.518 239.496 108.464 239.559 108.409 239.62C108.33 239.708 108.25 239.794 108.169 239.876C107.19 240.865 106.02 241.4 104.611 241.4C104.53 241.4 104.45 241.398 104.371 241.395C101.74 241.287 99.9308 239.396 99.9308 236.6C99.9308 233.804 101.74 231.913 104.371 231.805C104.45 231.802 104.53 231.8 104.611 231.8C105.579 231.8 106.434 232.052 107.192 232.531C107.537 232.749 107.862 233.014 108.169 233.324C108.25 233.406 108.33 233.492 108.409 233.58C108.464 233.641 108.518 233.704 108.571 233.768ZM146.34 245L138.9 228.2H134.22L126.804 245H131.652L132.972 241.736H140.076L141.396 245H146.34ZM136.524 232.856L134.364 238.232H138.684L136.524 232.856ZM153.017 245V238.448H159.497V245H164.249V228.2H159.497V234.512H153.017V228.2H148.265V245H153.017ZM169.249 242.683C170.92 244.342 173.327 245.336 176.115 245.336C178.908 245.336 181.32 244.338 182.991 242.672C184.537 241.132 185.451 239.021 185.451 236.6C185.451 234.179 184.537 232.068 182.991 230.528C181.32 228.862 178.908 227.864 176.115 227.864C173.327 227.864 170.92 228.858 169.249 230.517C167.697 232.058 166.779 234.173 166.779 236.6C166.779 239.027 167.697 241.142 169.249 242.683ZM187.991 245H196.607C198.351 245 199.774 244.699 200.851 244.146C202.433 243.334 203.269 241.978 203.279 240.233C203.279 240.222 203.279 240.211 203.279 240.2C203.279 240.078 203.275 239.958 203.267 239.84C203.18 238.572 202.625 237.594 201.677 236.919C201.428 236.743 201.152 236.587 200.851 236.452C200.655 236.364 200.449 236.286 200.231 236.216C200.452 236.106 200.659 235.982 200.851 235.846C201.145 235.638 201.403 235.401 201.624 235.137C202.061 234.613 202.348 233.983 202.459 233.264C202.494 233.04 202.511 232.808 202.511 232.568C202.511 232.262 202.483 231.97 202.427 231.693C202.23 230.718 201.691 229.93 200.851 229.351C199.761 228.6 198.166 228.2 196.151 228.2H187.991V245ZM192.671 234.92H195.695C195.962 234.92 196.202 234.898 196.415 234.855C197.128 234.71 197.546 234.325 197.671 233.698C197.692 233.593 197.705 233.482 197.71 233.364C197.711 233.331 197.711 233.298 197.711 233.264C197.711 233.252 197.711 233.239 197.711 233.227C197.711 233.193 197.71 233.161 197.708 233.128C197.702 233.027 197.69 232.93 197.671 232.838C197.652 232.743 197.626 232.653 197.593 232.568C197.574 232.521 197.554 232.476 197.531 232.432C197.476 232.327 197.409 232.231 197.328 232.145C197.068 231.867 196.676 231.694 196.151 231.633C196.009 231.616 195.857 231.608 195.695 231.608H192.671V234.92ZM192.671 238.136V241.592H196.415C196.481 241.592 196.545 241.591 196.607 241.588C197.035 241.569 197.39 241.486 197.671 241.341C197.922 241.211 198.114 241.033 198.248 240.806C198.303 240.714 198.348 240.615 198.383 240.507C198.414 240.411 198.438 240.309 198.454 240.2C198.471 240.087 198.479 239.967 198.479 239.84C198.479 239.827 198.479 239.813 198.479 239.8C198.479 239.779 198.478 239.759 198.478 239.739C198.474 239.643 198.465 239.551 198.451 239.464C198.37 238.948 198.109 238.587 197.671 238.372C197.348 238.214 196.929 238.136 196.415 238.136H192.671ZM205.851 245H210.339L217.251 235.16V245H221.931V228.2H217.467L210.531 238.064V228.2H205.851V245ZM229.258 245H233.938V231.968H239.074V228.2H224.098V231.968H229.258V245ZM241.265 245H249.209C253.541 245 256.245 242.993 256.288 239.12C256.289 239.088 256.289 239.056 256.289 239.024C256.289 235.352 253.913 233.552 249.833 233.552H245.945V228.2H241.265V245ZM245.945 241.592H248.897C249.003 241.592 249.107 241.588 249.209 241.58C249.946 241.522 250.543 241.255 250.945 240.801C251.31 240.389 251.513 239.823 251.513 239.12C251.513 239.088 251.512 239.056 251.512 239.024C251.494 238.365 251.295 237.884 250.945 237.551C250.665 237.285 250.289 237.113 249.833 237.02C249.55 236.963 249.237 236.936 248.897 236.936H245.945V241.592ZM176.114 236.4C176.114 236.4 176.115 236.4 176.114 236.4C176.123 236.401 176.165 236.406 176.229 236.432C176.31 236.465 176.398 236.522 176.473 236.599C176.473 236.599 176.474 236.6 176.474 236.6C176.474 236.6 176.473 236.601 176.473 236.601C176.398 236.679 176.31 236.735 176.229 236.768C176.165 236.794 176.124 236.799 176.115 236.8C176.115 236.8 176.115 236.8 176.115 236.8M84.6683 256.2C84.6683 253.439 86.9069 251.2 89.6683 251.2H97.3483C99.5471 251.2 101.748 251.603 103.708 252.554C104.602 251.714 105.806 251.2 107.129 251.2H111.881C113.117 251.2 114.249 251.649 115.121 252.392C115.994 251.649 117.125 251.2 118.361 251.2H123.113C124.682 251.2 126.081 251.922 126.998 253.052C129.283 251.648 132.02 250.864 134.937 250.864C137.367 250.864 139.671 251.407 141.694 252.4C142.568 251.652 143.703 251.2 144.944 251.2H159.992C161.233 251.2 162.368 251.652 163.242 252.401C165.265 251.408 167.57 250.864 170 250.864C173.483 250.864 176.708 251.981 179.214 253.937C179.36 253.807 179.51 253.68 179.665 253.556C182.036 251.662 185.113 250.864 188.377 250.864C190.432 250.864 192.664 251.197 194.724 251.953C195.49 251.476 196.395 251.2 197.364 251.2H202.116C203.352 251.2 204.483 251.649 205.356 252.392C206.228 251.649 207.36 251.2 208.596 251.2H213.348C214.916 251.2 216.316 251.922 217.232 253.052C219.517 251.648 222.254 250.864 225.172 250.864C228.089 250.864 230.827 251.648 233.111 253.052C234.028 251.922 235.428 251.2 236.996 251.2H244.676C247.783 251.2 250.893 252.004 253.322 254.022C255.857 256.128 257.14 259.142 257.14 262.416C257.14 265.687 255.85 268.695 253.317 270.794C251.425 272.36 249.121 273.195 246.725 273.486C246.481 276.02 244.346 278 241.748 278H236.996C235.428 278 234.028 277.278 233.111 276.148C230.827 277.552 228.089 278.336 225.172 278.336C222.254 278.336 219.517 277.552 217.232 276.148C216.316 277.278 214.916 278 213.348 278H208.596C207.36 278 206.228 277.552 205.356 276.808C204.483 277.552 203.352 278 202.116 278H197.364C196.216 278 195.158 277.613 194.314 276.963C192.355 277.909 190.098 278.336 187.729 278.336C184.504 278.336 180.928 277.555 178.295 275.922C175.941 277.468 173.07 278.336 170 278.336C165.982 278.336 162.307 276.85 159.684 274.304C159.11 276.433 157.166 278 154.856 278H150.104C147.787 278 145.839 276.425 145.271 274.287C142.646 276.843 138.964 278.336 134.937 278.336C132.02 278.336 129.283 277.552 126.998 276.148C126.081 277.278 124.682 278 123.113 278H118.361C117.125 278 115.994 277.552 115.121 276.808C114.249 277.552 113.117 278 111.881 278H107.129C104.368 278 102.129 275.761 102.129 273V272.889C101.245 273.178 100.328 273.373 99.397 273.486C99.1525 276.02 97.0177 278 94.4203 278H89.6683C86.9069 278 84.6683 275.761 84.6683 273V256.2ZM89.6683 256.2V273H94.4203V268.608H97.3483C99.2705 268.608 100.893 268.19 102.129 267.424C103.841 266.362 104.812 264.632 104.812 262.416C104.812 260.186 103.841 258.45 102.129 257.386C100.893 256.618 99.2705 256.2 97.3483 256.2H89.6683ZM94.4203 259.944V264.864H97.0603C97.1588 264.864 97.2548 264.862 97.3483 264.857C98.2871 264.812 98.9778 264.54 99.4203 264.078C99.815 263.667 100.012 263.104 100.012 262.416C100.012 261.717 99.815 261.149 99.4203 260.734C98.9778 260.268 98.2871 259.996 97.3483 259.951C97.2548 259.946 97.1588 259.944 97.0603 259.944H94.4203ZM107.129 273H111.881V266.448H118.361V273H123.113V256.2H118.361V262.512H111.881V256.2H107.129V273ZM150.104 273H154.856V259.968H159.992V256.2H144.944V259.968H150.104V273ZM197.364 273H202.116V266.448H208.596V273H213.348V256.2H208.596V262.512H202.116V256.2H197.364V273ZM160.669 264.923C160.834 269.797 164.739 273.336 170 273.336C172.171 273.336 174.11 272.733 175.652 271.683C176.327 271.223 176.926 270.676 177.435 270.057C177.942 269.44 178.359 268.749 178.672 268C178.857 267.555 179.006 267.09 179.115 266.607C179.26 265.968 179.336 265.297 179.336 264.6C179.336 264.367 179.327 264.137 179.311 263.91C179.243 262.987 179.039 262.116 178.717 261.312C178.222 260.074 177.444 258.994 176.447 258.129C174.804 256.704 172.563 255.864 170 255.864C168.121 255.864 166.416 256.315 164.992 257.117C163.743 257.82 162.711 258.793 161.968 259.968C161.133 261.289 160.664 262.865 160.664 264.6C160.664 264.708 160.666 264.816 160.669 264.923ZM181.252 263.076C181.502 263.697 181.887 264.194 182.361 264.6C182.794 264.971 183.301 265.265 183.847 265.506C183.994 265.571 184.144 265.632 184.296 265.689C184.87 265.907 185.474 266.077 186.071 266.224C186.451 266.318 186.828 266.402 187.192 266.483C187.383 266.526 187.57 266.568 187.753 266.609C189.081 266.915 190.151 267.229 190.422 267.912C190.466 268.022 190.489 268.141 190.489 268.272C190.489 268.326 190.485 268.379 190.478 268.431C190.478 268.434 190.477 268.437 190.477 268.44C190.375 269.163 189.582 269.64 187.753 269.64C187.745 269.64 187.737 269.64 187.729 269.64C187.045 269.638 186.34 269.553 185.65 269.401C185.453 269.358 185.257 269.309 185.063 269.255C184.598 269.125 184.144 268.967 183.713 268.783C183.406 268.653 183.111 268.511 182.83 268.358C182.613 268.239 182.406 268.114 182.209 267.984L180.649 271.488C181.047 271.766 181.519 272.021 182.045 272.247C182.495 272.44 182.985 272.612 183.504 272.759C184.097 272.927 184.726 273.063 185.377 273.16C186.141 273.274 186.934 273.336 187.729 273.336C187.737 273.336 187.745 273.336 187.753 273.336C189.661 273.333 191.196 272.964 192.364 272.347C194.115 271.42 195.04 269.931 195.156 268.272C195.164 268.153 195.169 268.033 195.169 267.912C195.169 266.97 194.948 266.216 194.574 265.605C194.065 264.773 193.272 264.208 192.364 263.795C192.115 263.682 191.857 263.581 191.594 263.489C191.097 263.315 190.582 263.174 190.073 263.05C189.668 262.952 189.267 262.865 188.881 262.781C188.701 262.742 188.525 262.704 188.353 262.665C186.965 262.356 185.865 262.041 185.671 261.312C185.651 261.237 185.641 261.157 185.641 261.072C185.641 260.995 185.647 260.919 185.659 260.845C185.66 260.84 185.661 260.835 185.662 260.83C185.794 260.107 186.556 259.56 188.353 259.56C188.361 259.56 188.369 259.56 188.377 259.56C189.046 259.562 189.74 259.655 190.45 259.837C190.551 259.863 190.651 259.89 190.752 259.92C191.283 260.074 191.821 260.278 192.364 260.532C192.429 260.563 192.495 260.594 192.561 260.626C192.71 260.699 192.859 260.776 193.009 260.856L194.473 257.328C193.844 256.964 193.129 256.665 192.364 256.434C192.313 256.419 192.262 256.404 192.211 256.389C191.393 256.155 190.523 255.997 189.643 255.92C189.222 255.883 188.798 255.864 188.377 255.864C188.369 255.864 188.361 255.864 188.353 255.864C185.679 255.868 183.737 256.576 182.513 257.695C181.52 258.602 180.999 259.78 180.942 261.072C180.938 261.152 180.937 261.232 180.937 261.312C180.937 261.992 181.05 262.574 181.252 263.076ZM144.268 264.923C144.271 264.816 144.273 264.708 144.273 264.6C144.273 262.865 143.804 261.289 142.969 259.968C142.226 258.793 141.193 257.82 139.944 257.116C138.52 256.315 136.815 255.864 134.937 255.864C132.173 255.864 129.783 256.841 128.113 258.476C126.536 260.02 125.601 262.152 125.601 264.6C125.601 267.048 126.536 269.18 128.113 270.724C129.783 272.359 132.173 273.336 134.937 273.336C140.198 273.336 144.103 269.797 144.268 264.923ZM218.348 270.724C220.017 272.359 222.407 273.336 225.172 273.336C227.936 273.336 230.327 272.358 231.996 270.723C233.573 269.179 234.508 267.048 234.508 264.6C234.508 262.152 233.573 260.021 231.996 258.477C230.327 256.842 227.936 255.864 225.172 255.864C222.407 255.864 220.017 256.841 218.348 258.476C216.77 260.02 215.836 262.152 215.836 264.6C215.836 267.048 216.77 269.18 218.348 270.724ZM236.996 273H241.748V268.608H244.676C249.26 268.608 252.14 266.232 252.14 262.416C252.14 258.576 249.26 256.2 244.676 256.2H236.996V273ZM241.748 264.864H244.388C244.487 264.864 244.583 264.862 244.676 264.857C245.615 264.812 246.306 264.54 246.748 264.078C247.143 263.667 247.34 263.104 247.34 262.416C247.34 261.717 247.143 261.149 246.748 260.734C246.306 260.268 245.615 259.996 244.676 259.951C244.583 259.946 244.487 259.944 244.388 259.944H241.748V264.864ZM135.051 264.432C134.987 264.406 134.946 264.401 134.937 264.4C134.928 264.401 134.887 264.406 134.823 264.432C134.742 264.465 134.654 264.522 134.579 264.599C134.579 264.599 134.578 264.6 134.578 264.6C134.578 264.6 134.579 264.601 134.579 264.601C134.654 264.679 134.742 264.735 134.823 264.768C134.887 264.794 134.928 264.799 134.937 264.8M135.051 264.432C135.133 264.465 135.22 264.522 135.295 264.599ZM135.295 264.599C135.296 264.599 135.296 264.6 135.297 264.6ZM135.297 264.6C135.296 264.6 135.296 264.601 135.295 264.601ZM135.295 264.601C135.22 264.679 135.133 264.735 135.051 264.768ZM135.051 264.768C134.987 264.794 134.946 264.799 134.937 264.8ZM170.114 264.432C170.05 264.406 170.009 264.401 170 264.4C169.991 264.401 169.949 264.406 169.886 264.432C169.804 264.465 169.717 264.522 169.642 264.599C169.641 264.599 169.641 264.6 169.64 264.6C169.641 264.6 169.641 264.601 169.642 264.601C169.717 264.679 169.804 264.735 169.886 264.768C169.949 264.794 169.991 264.799 170 264.8C170.009 264.799 170.05 264.794 170.114 264.768C170.195 264.735 170.283 264.679 170.358 264.601C170.358 264.601 170.359 264.6 170.359 264.6C170.359 264.6 170.358 264.599 170.358 264.599C170.283 264.522 170.195 264.465 170.114 264.432ZM225.172 264.4C225.18 264.401 225.222 264.406 225.285 264.432ZM225.285 264.432C225.367 264.465 225.454 264.522 225.53 264.599ZM225.53 264.599C225.53 264.599 225.531 264.6 225.531 264.6ZM225.531 264.6C225.531 264.6 225.53 264.601 225.53 264.601ZM225.53 264.601C225.454 264.679 225.367 264.735 225.285 264.768ZM225.285 264.768C225.222 264.794 225.18 264.799 225.172 264.8ZM225.172 264.8C225.163 264.799 225.121 264.794 225.058 264.768ZM225.058 264.768C224.976 264.735 224.889 264.679 224.813 264.601ZM224.813 264.601C224.813 264.601 224.813 264.6 224.812 264.6ZM224.812 264.6C224.813 264.6 224.813 264.599 224.813 264.599ZM224.813 264.599C224.889 264.522 224.976 264.465 225.058 264.432ZM225.058 264.432C225.121 264.406 225.162 264.401 225.172 264.4ZM171.579 236.6C171.579 239.504 173.571 241.4 176.115 241.4C178.659 241.4 180.651 239.504 180.651 236.6C180.651 233.696 178.659 231.8 176.115 231.8C173.571 231.8 171.579 233.696 171.579 236.6ZM130.401 264.6C130.401 267.504 132.393 269.4 134.937 269.4C137.481 269.4 139.473 267.504 139.473 264.6C139.473 261.696 137.481 259.8 134.937 259.8C132.393 259.8 130.401 261.696 130.401 264.6ZM165.464 264.6C165.464 267.504 167.456 269.4 170 269.4C172.544 269.4 174.536 267.504 174.536 264.6C174.536 261.696 172.544 259.8 170 259.8C167.456 259.8 165.464 261.696 165.464 264.6ZM220.636 264.6C220.636 267.504 222.628 269.4 225.172 269.4C227.716 269.4 229.708 267.504 229.708 264.6C229.708 261.696 227.716 259.8 225.172 259.8C222.628 259.8 220.636 261.696 220.636 264.6Z" fill="white"/>
<g filter="url(#filter0_di)">
<path d="M134.766 195.197V167.012C136.269 167.159 138.042 167.235 139.977 167.235C151.77 167.235 161.305 164.124 167.555 158.236C172.674 153.372 175.495 146.126 175.495 137.834C175.495 129.779 172.126 122.497 166.259 117.857C160.491 113.243 152.014 111 140.345 111C130.237 111 121.696 111.581 114.956 112.729C114.404 112.822 114 113.301 114 113.861V195.197C114 195.831 114.514 196.345 115.148 196.345H133.618C134.252 196.345 134.766 195.831 134.766 195.197ZM134.766 150.34V127.864C135.894 127.648 138.012 127.362 141.323 127.362C149.843 127.362 154.73 131.357 154.73 138.322C154.73 146.027 149.17 150.628 139.855 150.628C137.621 150.628 136.029 150.54 134.766 150.34Z" fill="white"/>
<path d="M208.964 157.542C201.355 154.879 200.071 153.611 200.071 151.776C200.071 148.519 203.795 148.032 206.016 148.032C210.732 148.032 215.652 149.801 218.432 151.316C218.743 151.486 219.113 151.502 219.439 151.361C219.763 151.22 220.005 150.937 220.093 150.594L223.396 137.753C223.53 137.229 223.281 136.682 222.797 136.44C219.369 134.726 213 132.894 205.404 132.894C190.397 132.894 179.916 141.413 179.916 153.592C179.814 159.534 182.817 167.669 197.702 172.68C204.932 175.09 205.724 176.342 205.724 178.44C205.724 179.396 205.724 182.306 198.922 182.306C193.827 182.306 186.947 180.043 183.495 177.947C183.182 177.757 182.799 177.728 182.461 177.867C182.124 178.006 181.873 178.298 181.784 178.653L178.482 191.985C178.357 192.494 178.591 193.022 179.051 193.271C184.102 196.001 191.346 197.567 198.922 197.567C215.624 197.567 226 189.723 226 177.079C225.868 167.576 220.612 161.55 208.964 157.542Z" fill="white"/>
</g>
<rect x="16" y="297" width="304" height="76" rx="24" fill="white"/>
<rect x="16" y="397" width="125" height="43" rx="13" fill="white"/>
<rect x="195" y="397" width="125" height="43" rx="13" fill="white"/>
<path d="M50.1522 322.2L47.1702 327.954L44.2722 322.2H42.3262L46.2322 329.508L46.0782 329.746C45.6722 330.39 45.1962 330.656 44.6222 330.656C44.3282 330.656 44.0202 330.586 43.6702 330.474L43.2222 331.902C43.7122 332.112 44.2022 332.21 44.6642 332.21C45.8542 332.21 46.9322 331.538 47.6882 330.11L51.9442 322.2H50.1522ZM55.8553 332.098C57.3113 332.098 58.4733 331.468 59.0473 330.348L57.7033 329.564C57.2553 330.278 56.5833 330.6 55.8413 330.6C54.5533 330.6 53.5733 329.718 53.5733 328.262C53.5733 326.82 54.5533 325.924 55.8413 325.924C56.5833 325.924 57.2553 326.246 57.7033 326.96L59.0473 326.176C58.4733 325.042 57.3113 324.44 55.8553 324.44C53.4893 324.44 51.8093 326.022 51.8093 328.262C51.8093 330.502 53.4893 332.098 55.8553 332.098ZM66.4418 324.524H59.4418V326.008H62.0738V332H63.8238V326.008H66.4418V324.524ZM70.4972 324.44C69.2932 324.44 68.1312 324.748 67.3332 325.364L68.0192 326.638C68.5792 326.176 69.4472 325.896 70.2872 325.896C71.5332 325.896 72.1492 326.498 72.1492 327.52V327.632H70.2172C67.9492 327.632 67.1092 328.612 67.1092 329.858C67.1092 331.16 68.1872 332.098 69.8952 332.098C71.0152 332.098 71.8272 331.734 72.2472 331.09V332H73.8992V327.618C73.8992 325.462 72.6532 324.44 70.4972 324.44ZM70.2592 330.824C69.3632 330.824 68.8312 330.418 68.8312 329.788C68.8312 329.242 69.1532 328.794 70.3432 328.794H72.1492V329.662C71.8552 330.432 71.1132 330.824 70.2592 330.824ZM76.0647 332H77.8147V329.046H81.5807V332H83.3307V324.524H81.5807V327.562H77.8147V324.524H76.0647V332ZM89.008 332.098C91.332 332.098 92.998 330.502 92.998 328.262C92.998 326.022 91.332 324.44 89.008 324.44C86.712 324.44 85.032 326.022 85.032 328.262C85.032 330.502 86.712 332.098 89.008 332.098ZM89.008 330.6C87.748 330.6 86.796 329.69 86.796 328.262C86.796 326.834 87.748 325.924 89.008 325.924C90.282 325.924 91.234 326.834 91.234 328.262C91.234 329.69 90.282 330.6 89.008 330.6ZM100.145 328.108C100.859 327.8 101.293 327.226 101.293 326.456C101.293 325.224 100.201 324.524 98.3808 324.524H94.7268V332H98.5348C100.551 332 101.531 331.216 101.531 329.9C101.531 328.99 101.069 328.388 100.145 328.108ZM96.3928 325.798H98.2268C99.1228 325.798 99.5848 326.092 99.5848 326.708C99.5848 327.324 99.1228 327.646 98.2268 327.646H96.3928V325.798ZM98.3948 330.726H96.3928V328.808H98.4508C99.4028 328.808 99.8368 329.13 99.8368 329.788C99.8368 330.432 99.3328 330.726 98.3948 330.726ZM103.395 332H105.005L109.121 327.072V332H110.871V324.524H109.275L105.145 329.452V324.524H103.395V332ZM119.147 324.524H112.147V326.008H114.779V332H116.529V326.008H119.147V324.524ZM124.168 326.988L122.166 326.974V324.524H120.416V332L123.916 332.014C125.96 332.028 127.122 331.09 127.122 329.452C127.122 327.898 126.086 326.988 124.168 326.988ZM123.762 330.726L122.166 330.712V328.178L123.762 328.192C124.798 328.206 125.344 328.57 125.344 329.424C125.344 330.292 124.784 330.74 123.762 330.726ZM132.53 332H134.14L138.256 327.072V332H140.006V324.524H138.41L134.28 329.452V324.524H132.53V332ZM151.647 328.108C152.361 327.8 152.795 327.226 152.795 326.456C152.795 325.224 151.703 324.524 149.883 324.524H146.229V332H150.037C152.053 332 153.033 331.216 153.033 329.9C153.033 328.99 152.571 328.388 151.647 328.108ZM147.895 325.798H149.729C150.625 325.798 151.087 326.092 151.087 326.708C151.087 327.324 150.625 327.646 149.729 327.646H147.895V325.798ZM149.897 330.726H147.895V328.808H149.953C150.905 328.808 151.339 329.13 151.339 329.788C151.339 330.432 150.835 330.726 149.897 330.726ZM158.537 326.988L156.647 326.974V324.524H154.897V332L158.285 332.014C160.329 332.028 161.477 331.09 161.477 329.452C161.477 327.898 160.455 326.988 158.537 326.988ZM162.443 332H164.193V324.524H162.443V332ZM158.131 330.726L156.647 330.712V328.178L158.131 328.192C159.167 328.206 159.713 328.57 159.713 329.424C159.713 330.292 159.153 330.74 158.131 330.726ZM170.591 324.888C169.443 324.888 168.463 325.35 167.805 326.148C167.959 324.524 168.813 323.684 170.619 323.306L173.769 322.662L173.517 321.094L170.045 321.836C167.385 322.396 166.125 324.146 166.125 327.142C166.125 330.404 167.637 332.14 170.199 332.14C172.551 332.14 174.189 330.67 174.189 328.472C174.189 326.358 172.733 324.888 170.591 324.888ZM170.241 330.726C168.953 330.726 168.057 329.816 168.057 328.514C168.057 327.212 168.939 326.372 170.241 326.372C171.529 326.372 172.397 327.212 172.397 328.514C172.397 329.802 171.529 330.726 170.241 330.726ZM180.027 324.44C179.005 324.44 178.137 324.79 177.549 325.504V324.524H175.883V334.716H177.633V331.09C178.235 331.776 179.075 332.098 180.027 332.098C182.211 332.098 183.821 330.586 183.821 328.262C183.821 325.952 182.211 324.44 180.027 324.44ZM179.831 330.6C178.571 330.6 177.605 329.69 177.605 328.262C177.605 326.834 178.571 325.924 179.831 325.924C181.091 325.924 182.043 326.834 182.043 328.262C182.043 329.69 181.091 330.6 179.831 330.6ZM188.253 324.44C187.049 324.44 185.887 324.748 185.089 325.364L185.775 326.638C186.335 326.176 187.203 325.896 188.043 325.896C189.289 325.896 189.905 326.498 189.905 327.52V327.632H187.973C185.705 327.632 184.865 328.612 184.865 329.858C184.865 331.16 185.943 332.098 187.651 332.098C188.771 332.098 189.583 331.734 190.003 331.09V332H191.655V327.618C191.655 325.462 190.409 324.44 188.253 324.44ZM188.015 330.824C187.119 330.824 186.587 330.418 186.587 329.788C186.587 329.242 186.909 328.794 188.099 328.794H189.905V329.662C189.611 330.432 188.869 330.824 188.015 330.824ZM199.743 324.524H192.743V326.008H195.375V332H197.125V326.008H199.743V324.524ZM204.764 326.988L202.762 326.974V324.524H201.012V332L204.512 332.014C206.556 332.028 207.718 331.09 207.718 329.452C207.718 327.898 206.682 326.988 204.764 326.988ZM204.358 330.726L202.762 330.712V328.178L204.358 328.192C205.394 328.206 205.94 328.57 205.94 329.424C205.94 330.292 205.38 330.74 204.358 330.726ZM217.297 322.2H213.265V332H215.085V329.172H217.297C219.873 329.172 221.469 327.842 221.469 325.686C221.469 323.516 219.873 322.2 217.297 322.2ZM217.213 327.632H215.085V323.74H217.213C218.809 323.74 219.635 324.454 219.635 325.686C219.635 326.918 218.809 327.632 217.213 327.632ZM227.497 324.44C226.461 324.44 225.579 324.776 225.005 325.392V321.612H223.255V332H225.005V328.22C225.005 326.722 225.845 325.966 227.091 325.966C228.211 325.966 228.869 326.61 228.869 327.94V332H230.619V327.716C230.619 325.462 229.289 324.44 227.497 324.44ZM236.268 332.098C238.592 332.098 240.258 330.502 240.258 328.262C240.258 326.022 238.592 324.44 236.268 324.44C233.972 324.44 232.292 326.022 232.292 328.262C232.292 330.502 233.972 332.098 236.268 332.098ZM236.268 330.6C235.008 330.6 234.056 329.69 234.056 328.262C234.056 326.834 235.008 325.924 236.268 325.924C237.542 325.924 238.494 326.834 238.494 328.262C238.494 329.69 237.542 330.6 236.268 330.6ZM245.935 330.348C245.669 330.558 245.319 330.656 244.955 330.656C244.283 330.656 243.919 330.264 243.919 329.536V325.98H245.921V324.58H243.919V322.872H242.169V324.58H240.937V325.98H242.169V329.578C242.169 331.23 243.107 332.098 244.745 332.098C245.375 332.098 246.005 331.93 246.425 331.594L245.935 330.348ZM250.979 332.098C253.303 332.098 254.969 330.502 254.969 328.262C254.969 326.022 253.303 324.44 250.979 324.44C248.683 324.44 247.003 326.022 247.003 328.262C247.003 330.502 248.683 332.098 250.979 332.098ZM250.979 330.6C249.719 330.6 248.767 329.69 248.767 328.262C248.767 326.834 249.719 325.924 250.979 325.924C252.253 325.924 253.205 326.834 253.205 328.262C253.205 329.69 252.253 330.6 250.979 330.6ZM258.952 332.098C261.052 332.098 262.34 331.188 262.34 329.788C262.34 326.862 257.72 328.206 257.72 326.694C257.72 326.204 258.224 325.854 259.288 325.854C260.002 325.854 260.716 325.994 261.43 326.414L262.102 325.084C261.43 324.678 260.296 324.44 259.302 324.44C257.286 324.44 256.012 325.364 256.012 326.778C256.012 329.76 260.632 328.416 260.632 329.844C260.632 330.362 260.17 330.67 259.064 330.67C258.126 330.67 257.118 330.362 256.46 329.928L255.788 331.258C256.46 331.734 257.706 332.098 258.952 332.098ZM268.089 324.44C267.053 324.44 266.171 324.776 265.597 325.392V321.612H263.847V332H265.597V328.22C265.597 326.722 266.437 325.966 267.683 325.966C268.803 325.966 269.461 326.61 269.461 327.94V332H271.211V327.716C271.211 325.462 269.881 324.44 268.089 324.44ZM276.86 332.098C279.184 332.098 280.85 330.502 280.85 328.262C280.85 326.022 279.184 324.44 276.86 324.44C274.564 324.44 272.884 326.022 272.884 328.262C272.884 330.502 274.564 332.098 276.86 332.098ZM276.86 330.6C275.6 330.6 274.648 329.69 274.648 328.262C274.648 326.834 275.6 325.924 276.86 325.924C278.134 325.924 279.086 326.834 279.086 328.262C279.086 329.69 278.134 330.6 276.86 330.6ZM286.667 324.44C285.645 324.44 284.777 324.79 284.189 325.504V324.524H282.523V334.716H284.273V331.09C284.875 331.776 285.715 332.098 286.667 332.098C288.851 332.098 290.461 330.586 290.461 328.262C290.461 325.952 288.851 324.44 286.667 324.44ZM286.471 330.6C285.211 330.6 284.245 329.69 284.245 328.262C284.245 326.834 285.211 325.924 286.471 325.924C287.731 325.924 288.683 326.834 288.683 328.262C288.683 329.69 287.731 330.6 286.471 330.6ZM81.5608 340.524V348H83.3108V342.008H86.9928V348H88.7288V340.524H81.5608ZM94.4221 348.098C96.7461 348.098 98.4121 346.502 98.4121 344.262C98.4121 342.022 96.7461 340.44 94.4221 340.44C92.1261 340.44 90.4461 342.022 90.4461 344.262C90.4461 346.502 92.1261 348.098 94.4221 348.098ZM94.4221 346.6C93.1621 346.6 92.2101 345.69 92.2101 344.262C92.2101 342.834 93.1621 341.924 94.4221 341.924C95.6961 341.924 96.6481 342.834 96.6481 344.262C96.6481 345.69 95.6961 346.6 94.4221 346.6ZM104.01 340.524V348H105.76V342.008H109.442V348H111.178V340.524H104.01ZM117.683 340.44C116.661 340.44 115.793 340.79 115.205 341.504V340.524H113.539V350.716H115.289V347.09C115.891 347.776 116.731 348.098 117.683 348.098C119.867 348.098 121.477 346.586 121.477 344.262C121.477 341.952 119.867 340.44 117.683 340.44ZM117.487 346.6C116.227 346.6 115.261 345.69 115.261 344.262C115.261 342.834 116.227 341.924 117.487 341.924C118.747 341.924 119.699 342.834 119.699 344.262C119.699 345.69 118.747 346.6 117.487 346.6ZM123.219 348H124.829L128.945 343.072V348H130.695V340.524H129.099L124.969 345.452V340.524H123.219V348ZM138.411 348H140.469L137.571 344.122L140.287 340.524H138.411L136.199 343.548H134.799V340.524H133.049V348H134.799V345.004H136.157L138.411 348ZM144.353 340.44C143.149 340.44 141.987 340.748 141.189 341.364L141.875 342.638C142.435 342.176 143.303 341.896 144.143 341.896C145.389 341.896 146.005 342.498 146.005 343.52V343.632H144.073C141.805 343.632 140.965 344.612 140.965 345.858C140.965 347.16 142.043 348.098 143.751 348.098C144.871 348.098 145.683 347.734 146.103 347.09V348H147.755V343.618C147.755 341.462 146.509 340.44 144.353 340.44ZM144.115 346.824C143.219 346.824 142.687 346.418 142.687 345.788C142.687 345.242 143.009 344.794 144.199 344.794H146.005V345.662C145.711 346.432 144.969 346.824 144.115 346.824ZM154.29 344.108C155.06 343.8 155.55 343.198 155.55 342.47C155.55 341.238 154.15 340.412 152.232 340.412C151.252 340.412 150.286 340.622 149.264 341.098L149.712 342.386C150.538 342.022 151.322 341.84 152.078 341.84C153.128 341.84 153.758 342.176 153.758 342.722C153.758 343.268 153.24 343.576 152.358 343.576H151.042V344.752H152.498C153.436 344.752 153.968 345.074 153.968 345.662C153.968 346.306 153.254 346.684 152.092 346.684C151.168 346.684 150.216 346.446 149.488 346.04L148.984 347.342C149.88 347.846 151.028 348.126 152.176 348.126C154.262 348.126 155.76 347.188 155.76 345.802C155.76 344.976 155.214 344.374 154.29 344.108ZM162.939 340.524L160.573 346.054L158.221 340.524H156.401L159.663 348.028L159.537 348.322C159.201 349.064 158.837 349.358 158.221 349.358C157.745 349.358 157.269 349.162 156.933 348.84L156.233 350.128C156.709 350.562 157.493 350.814 158.235 350.814C159.481 350.814 160.433 350.296 161.119 348.602L164.619 340.524H162.939ZM169.703 348H171.453V345.046H175.219V348H176.969V340.524H175.219V343.562H171.453V340.524H169.703V348ZM182.101 340.44C180.897 340.44 179.735 340.748 178.937 341.364L179.623 342.638C180.183 342.176 181.051 341.896 181.891 341.896C183.137 341.896 183.753 342.498 183.753 343.52V343.632H181.821C179.553 343.632 178.713 344.612 178.713 345.858C178.713 347.16 179.791 348.098 181.499 348.098C182.619 348.098 183.431 347.734 183.851 347.09V348H185.503V343.618C185.503 341.462 184.257 340.44 182.101 340.44ZM181.863 346.824C180.967 346.824 180.435 346.418 180.435 345.788C180.435 345.242 180.757 344.794 181.947 344.794H183.753V345.662C183.459 346.432 182.717 346.824 181.863 346.824ZM192.26 340.524V343.8C191.658 344.08 191 344.22 190.384 344.22C189.376 344.22 188.774 343.786 188.774 342.806V340.524H187.024V342.918C187.024 344.78 188.116 345.62 190.006 345.62C190.832 345.62 191.588 345.424 192.26 345.102V348H194.01V340.524H192.26ZM199.15 340.44C197.946 340.44 196.784 340.748 195.986 341.364L196.672 342.638C197.232 342.176 198.1 341.896 198.94 341.896C200.186 341.896 200.802 342.498 200.802 343.52V343.632H198.87C196.602 343.632 195.762 344.612 195.762 345.858C195.762 347.16 196.84 348.098 198.548 348.098C199.668 348.098 200.48 347.734 200.9 347.09V348H202.552V343.618C202.552 341.462 201.306 340.44 199.15 340.44ZM198.912 346.824C198.016 346.824 197.484 346.418 197.484 345.788C197.484 345.242 197.806 344.794 198.996 344.794H200.802V345.662C200.508 346.432 199.766 346.824 198.912 346.824ZM205.445 340.524L205.319 343.408C205.235 344.962 205.193 346.558 204.045 346.558C203.947 346.558 203.835 346.544 203.709 346.516L203.625 347.986C203.989 348.084 204.311 348.14 204.591 348.14C206.355 348.14 206.747 346.152 206.873 343.492L206.943 342.008H209.743V348H211.493V340.524H205.445ZM217.602 342.988L215.6 342.974V340.524H213.85V348L217.35 348.014C219.394 348.028 220.556 347.09 220.556 345.452C220.556 343.898 219.52 342.988 217.602 342.988ZM217.196 346.726L215.6 346.712V344.178L217.196 344.192C218.232 344.206 218.778 344.57 218.778 345.424C218.778 346.292 218.218 346.74 217.196 346.726ZM225.496 348.098C226.952 348.098 228.114 347.468 228.688 346.348L227.344 345.564C226.896 346.278 226.224 346.6 225.482 346.6C224.194 346.6 223.214 345.718 223.214 344.262C223.214 342.82 224.194 341.924 225.482 341.924C226.224 341.924 226.896 342.246 227.344 342.96L228.688 342.176C228.114 341.042 226.952 340.44 225.496 340.44C223.13 340.44 221.45 342.022 221.45 344.262C221.45 346.502 223.13 348.098 225.496 348.098ZM236.082 340.524H229.082V342.008H231.714V348H233.464V342.008H236.082V340.524ZM242.77 344.108C243.484 343.8 243.918 343.226 243.918 342.456C243.918 341.224 242.826 340.524 241.006 340.524H237.352V348H241.16C243.176 348 244.156 347.216 244.156 345.9C244.156 344.99 243.694 344.388 242.77 344.108ZM239.018 341.798H240.852C241.748 341.798 242.21 342.092 242.21 342.708C242.21 343.324 241.748 343.646 240.852 343.646H239.018V341.798ZM241.02 346.726H239.018V344.808H241.076C242.028 344.808 242.462 345.13 242.462 345.788C242.462 346.432 241.958 346.726 241.02 346.726ZM248.806 340.44C247.602 340.44 246.44 340.748 245.642 341.364L246.328 342.638C246.888 342.176 247.756 341.896 248.596 341.896C249.842 341.896 250.458 342.498 250.458 343.52V343.632H248.526C246.258 343.632 245.418 344.612 245.418 345.858C245.418 347.16 246.496 348.098 248.204 348.098C249.324 348.098 250.136 347.734 250.556 347.09V348H252.208V343.618C252.208 341.462 250.962 340.44 248.806 340.44ZM248.568 346.824C247.672 346.824 247.14 346.418 247.14 345.788C247.14 345.242 247.462 344.794 248.652 344.794H250.458V345.662C250.164 346.432 249.422 346.824 248.568 346.824ZM254.905 348.098C255.535 348.098 256.053 347.608 256.053 346.936C256.053 346.236 255.535 345.774 254.905 345.774C254.275 345.774 253.757 346.236 253.757 346.936C253.757 347.608 254.275 348.098 254.905 348.098Z" fill="black"/>
<path d="M252 5C252 26.7477 243.361 47.6048 227.983 62.9828C212.605 78.3607 191.748 87 170 87C148.252 87 127.395 78.3607 112.017 62.9828C96.6393 47.6048 88 26.7478 88 5.00002L170 5H252Z" fill="white"/>
<path d="M48.032 423.216C48.032 414.96 35.328 417.52 35.328 414.096C35.328 412.976 36.288 412.08 38.944 412.08C40.896 412.08 43.008 412.656 45.152 413.808L47.104 409.104C45.312 408.048 42.976 407.408 40.608 407.216V403.76H36.768V407.28C31.584 407.92 29.056 410.896 29.056 414.416C29.056 422.736 41.792 420.144 41.792 423.696C41.792 424.784 40.768 425.52 38.144 425.52C35.552 425.52 32.736 424.624 30.752 423.312L28.672 427.984C30.528 429.264 33.568 430.192 36.768 430.416V433.84H40.608V430.288C45.6 429.552 48.032 426.608 48.032 423.216Z" fill="#00BCBC"/>
<path d="M69.6 420.42H67.32V417.8H64.26V420.42H60.5L66.62 412H63.22L56.62 420.88V423.06H64.16V426H67.32V423.06H69.6V420.42ZM76.5691 426.24C80.0291 426.24 82.5691 423.62 82.5691 419C82.5691 414.38 80.0291 411.76 76.5691 411.76C73.1291 411.76 70.5691 414.38 70.5691 419C70.5691 423.62 73.1291 426.24 76.5691 426.24ZM76.5691 423.5C74.9691 423.5 73.8491 422.18 73.8491 419C73.8491 415.82 74.9691 414.5 76.5691 414.5C78.1891 414.5 79.3091 415.82 79.3091 419C79.3091 422.18 78.1891 423.5 76.5691 423.5ZM95.8073 426.24C99.2673 426.24 101.807 423.62 101.807 419C101.807 414.38 99.2673 411.76 95.8073 411.76C92.3673 411.76 89.8073 414.38 89.8073 419C89.8073 423.62 92.3673 426.24 95.8073 426.24ZM95.8073 423.5C94.2073 423.5 93.0873 422.18 93.0873 419C93.0873 415.82 94.2073 414.5 95.8073 414.5C97.4273 414.5 98.5473 415.82 98.5473 419C98.5473 422.18 97.4273 423.5 95.8073 423.5ZM109.382 426.24C112.842 426.24 115.382 423.62 115.382 419C115.382 414.38 112.842 411.76 109.382 411.76C105.942 411.76 103.382 414.38 103.382 419C103.382 423.62 105.942 426.24 109.382 426.24ZM109.382 423.5C107.782 423.5 106.662 422.18 106.662 419C106.662 415.82 107.782 414.5 109.382 414.5C111.002 414.5 112.122 415.82 112.122 419C112.122 422.18 111.002 423.5 109.382 423.5ZM122.956 426.24C126.416 426.24 128.956 423.62 128.956 419C128.956 414.38 126.416 411.76 122.956 411.76C119.516 411.76 116.956 414.38 116.956 419C116.956 423.62 119.516 426.24 122.956 426.24ZM122.956 423.5C121.356 423.5 120.236 422.18 120.236 419C120.236 415.82 121.356 414.5 122.956 414.5C124.576 414.5 125.696 415.82 125.696 419C125.696 422.18 124.576 423.5 122.956 423.5Z" fill="black"/>
<path d="M242.32 417.7L245.48 414.1V412H235.68V414.6H241.64L238.76 417.86V420H240.24C242.08 420 242.86 420.66 242.86 421.72C242.86 422.86 241.86 423.52 240.24 423.52C238.78 423.52 237.3 423.06 236.24 422.26L234.98 424.74C236.34 425.7 238.36 426.24 240.32 426.24C244.3 426.24 246.12 424.08 246.12 421.72C246.12 419.66 244.84 418.1 242.32 417.7ZM252.221 417.26H251.081L251.301 414.6H257.141V412H248.601L247.881 419.88H251.461C254.001 419.88 254.721 420.6 254.721 421.7C254.721 422.84 253.721 423.52 252.101 423.52C250.641 423.52 249.181 423.06 248.121 422.26L246.841 424.74C248.201 425.7 250.241 426.24 252.181 426.24C256.181 426.24 258.001 424.08 258.001 421.6C258.001 419.12 256.361 417.26 252.221 417.26ZM279.019 426L278.979 415.24H276.059L272.399 421.46L268.959 415.24H265.699V426H268.519V419.54L271.659 424.96H272.979L276.199 419.56V426H279.019ZM282.008 426H284.888L290.108 419.6V426H293.208V415.24H290.348L285.108 421.64V415.24H282.008V426ZM296.207 426H299.307V421.98H303.987V426H307.107V415.24H303.987V419.44H299.307V415.24H296.207V426Z" fill="black"/>
<path d="M216.5 406C209.595 406 204 411.595 204 418.5C204 425.405 209.595 431 216.5 431C223.405 431 229 425.405 229 418.5C229 411.595 223.405 406 216.5 406Z" fill="#00BCBC"/>
<path fill-rule="evenodd" clip-rule="evenodd" d="M215.961 410C214.878 410 214 410.878 214 411.961V419.153C214 419.311 214.019 419.464 214.054 419.611C214.047 420.263 214.376 420.901 214.974 421.262L220.414 424.535C221.313 425.077 222.481 424.786 223.022 423.887C223.563 422.988 223.273 421.82 222.374 421.279L217.923 418.6V411.961C217.923 410.878 217.045 410 215.961 410Z" fill="white"/>
<g filter="url(#filter1_d)">
<path d="M162.531 400.393L185.975 433.213C179.766 434.57 168.698 428.331 168.698 428.331C168.698 428.331 160.834 438.706 154.912 440L162.531 400.393Z" fill="white"/>
<path fill-rule="evenodd" clip-rule="evenodd" d="M154.912 440L158.469 421.51C161.522 424.284 164.956 426.604 168.698 428.331C168.698 428.331 160.834 438.706 154.912 440Z" fill="#BBFFF9"/>
</g>
<path d="M138.822 25.4V34.274H146.362V66H157.846V25.4H138.822ZM166.214 25.4V40.77H176.016V34.506H186.688L173 66H185.528L199.854 32.592V25.4H166.214Z" fill="#46BBCE"/>
<defs>
<filter id="filter0_di" x="108" y="105" width="132" height="106.567" filterUnits="userSpaceOnUse" color-interpolation-filters="sRGB">
<feFlood flood-opacity="0" result="BackgroundImageFix"/>
<feColorMatrix in="SourceAlpha" type="matrix" values="0 0 0 0 0 0 0 0 0 0 0 0 0 0 0 0 0 0 127 0"/>
<feOffset dx="4" dy="4"/>
<feGaussianBlur stdDeviation="5"/>
<feColorMatrix type="matrix" values="0 0 0 0 0.1715 0 0 0 0 0.816667 0 0 0 0 0.816667 0 0 0 1 0"/>
<feBlend mode="normal" in2="BackgroundImageFix" result="effect1_dropShadow"/>
<feBlend mode="normal" in="SourceGraphic" in2="effect1_dropShadow" result="shape"/>
<feColorMatrix in="SourceAlpha" type="matrix" values="0 0 0 0 0 0 0 0 0 0 0 0 0 0 0 0 0 0 127 0" result="hardAlpha"/>
<feOffset dx="-4" dy="-4"/>
<feGaussianBlur stdDeviation="4.5"/>
<feComposite in2="hardAlpha" operator="arithmetic" k2="-1" k3="1"/>
<feColorMatrix type="matrix" values="0 0 0 0 0.441945 0 0 0 0 0.887146 0 0 0 0 0.895833 0 0 0 0.52 0"/>
<feBlend mode="normal" in2="shape" result="effect2_innerShadow"/>
</filter>
<filter id="filter1_d" x="150.912" y="396.393" width="45.0628" height="53.6066" filterUnits="userSpaceOnUse" color-interpolation-filters="sRGB">
<feFlood flood-opacity="0" result="BackgroundImageFix"/>
<feColorMatrix in="SourceAlpha" type="matrix" values="0 0 0 0 0 0 0 0 0 0 0 0 0 0 0 0 0 0 127 0"/>
<feOffset dx="3" dy="3"/>
<feGaussianBlur stdDeviation="3.5"/>
<feColorMatrix type="matrix" values="0 0 0 0 0.279 0 0 0 0 0.9 0 0 0 0 0.840225 0 0 0 1 0"/>
<feBlend mode="normal" in2="BackgroundImageFix" result="effect1_dropShadow"/>
<feBlend mode="normal" in="SourceGraphic" in2="effect1_dropShadow" result="shape"/>
</filter>
<linearGradient id="paint0_linear" x1="5.5" y1="-157" x2="289.5" y2="495.5" gradientUnits="userSpaceOnUse">
<stop stop-color="#00C2FF"/>
<stop offset="1" stop-color="#1EE7CF"/>
</linearGradient>
<linearGradient id="paint1_linear" x1="49" y1="11" x2="301.5" y2="474" gradientUnits="userSpaceOnUse">
<stop stop-color="#19D2EB"/>
<stop offset="1" stop-color="#55F5DF"/>
</linearGradient>
<linearGradient id="paint2_linear" x1="59.5" y1="-9" x2="291.5" y2="495.5" gradientUnits="userSpaceOnUse">
<stop stop-color="#00E0FF"/>
<stop offset="1" stop-color="#42F2D1"/>
</linearGradient>
<linearGradient id="paint3_linear" x1="51" y1="11" x2="303.5" y2="474" gradientUnits="userSpaceOnUse">
<stop stop-color="#B2F6FF"/>
<stop offset="1" stop-color="#28D7BE"/>
</linearGradient>
<linearGradient id="paint4_linear" x1="27" y1="473.49" x2="247.084" y2="60.8524" gradientUnits="userSpaceOnUse">
<stop stop-color="#73F5FF"/>
<stop offset="0.99" stop-color="#7AFFEC"/>
</linearGradient>
<linearGradient id="paint5_linear" x1="129.774" y1="288" x2="310" y2="288" gradientUnits="userSpaceOnUse">
<stop stop-color="white"/>
<stop offset="0.99" stop-color="white" stop-opacity="0.4"/>
</linearGradient>
<linearGradient id="paint6_linear" x1="59.8997" y1="86" x2="140" y2="86" gradientUnits="userSpaceOnUse">
<stop stop-color="white"/>
<stop offset="0.99" stop-color="white" stop-opacity="0.4"/>
</linearGradient>
</defs>
</svg>
