<svg width="338" height="474" viewBox="0 0 338 474" fill="none" xmlns="http://www.w3.org/2000/svg">
<rect x="2.5" y="2.5" width="331" height="469" rx="32.5" fill="url(#paint0_linear)" stroke="url(#paint1_linear)" stroke-width="5"/>
<mask id="mask0" mask-type="alpha" maskUnits="userSpaceOnUse" x="2" y="0" width="336" height="474">
<rect x="4.5" y="2.5" width="331" height="469" rx="41.5" fill="url(#paint2_linear)" stroke="url(#paint3_linear)" stroke-width="5"/>
</mask>
<g mask="url(#mask0)">
<path d="M198.89 5.0093C198.89 5.0093 97.8208 47.0947 93.9888 101.845C90.1568 156.595 112.775 152.615 106.069 185.086C99.3632 217.557 -10.9124 255.616 18.7856 356.766C48.4837 457.916 142.368 370.584 242 469H35C18.4315 469 5 455.569 5 439V35.0014C5 18.4323 18.4323 5.00064 35.0014 5.00144L198.89 5.0093Z" fill="url(#paint4_linear)" fill-opacity="0.5"/>
</g>
<path opacity="0.46" d="M219.887 378C202.092 377.978 184.702 372.68 169.917 362.777C155.131 352.875 143.613 338.811 136.819 322.363C130.024 305.916 128.258 287.824 131.743 270.373C135.229 252.922 143.809 236.896 156.4 224.321C168.992 211.745 185.028 203.185 202.483 199.721C219.939 196.258 238.029 198.046 254.468 204.862C270.906 211.677 284.956 223.212 294.84 238.01C304.724 252.808 310 270.204 310 288C309.958 311.876 300.447 334.761 283.553 351.633C266.66 368.506 243.763 377.988 219.887 378ZM219.887 222.747C206.985 222.764 194.378 226.607 183.659 233.788C172.94 240.969 164.59 251.166 159.665 263.091C154.74 275.016 153.461 288.134 155.989 300.786C158.517 313.438 164.739 325.056 173.868 334.173C182.998 343.29 194.625 349.496 207.28 352.006C219.936 354.517 233.051 353.219 244.97 348.278C256.888 343.336 267.074 334.972 274.24 324.243C281.406 313.515 285.231 300.902 285.231 288C285.177 270.703 278.27 254.132 266.022 241.918C253.774 229.704 237.184 222.843 219.887 222.837V222.747Z" fill="url(#paint5_linear)"/>
<path opacity="0.46" d="M99.9498 126C92.0407 125.99 84.3121 123.636 77.7407 119.234C71.1694 114.833 66.0503 108.583 63.0305 101.273C60.0106 93.9627 59.2257 85.9216 60.7747 78.1657C62.3238 70.4097 66.1374 63.2871 71.7335 57.698C77.3296 52.1089 84.457 48.3043 92.2148 46.7649C99.9727 45.2256 108.013 46.0207 115.319 49.0496C122.625 52.0786 128.869 57.2055 133.262 63.7824C137.655 70.3593 140 78.0909 140 86C139.981 96.6116 135.754 106.783 128.246 114.281C120.738 121.78 110.561 125.995 99.9498 126ZM99.9498 56.9985C94.2156 57.0064 88.6124 58.7141 83.8484 61.9056C79.0844 65.0972 75.3735 69.6294 73.1846 74.9294C70.9957 80.2294 70.4271 86.0594 71.5506 91.6825C72.6742 97.3056 75.4395 102.469 79.497 106.521C83.5545 110.573 88.7222 113.331 94.3468 114.447C99.9715 115.563 105.801 114.986 111.098 112.79C116.395 110.594 120.922 106.877 124.107 102.108C127.292 97.3398 128.991 91.7342 128.991 86C128.968 78.3124 125.898 70.9477 120.454 65.5193C115.011 60.0908 107.637 57.0412 99.9498 57.0386V56.9985Z" fill="url(#paint6_linear)"/>
<path d="M59.0654 245H63.5534L70.4654 235.16V245H75.1454V228.2H70.6814L63.7454 238.064V228.2H59.0654V245Z" fill="black"/>
<path d="M86.9369 245.336C90.0329 245.336 92.5289 244.208 94.1609 242.168L91.1369 239.432C90.0809 240.704 88.7849 241.4 87.1769 241.4C84.4169 241.4 82.4969 239.48 82.4969 236.6C82.4969 233.72 84.4169 231.8 87.1769 231.8C88.7849 231.8 90.0809 232.496 91.1369 233.768L94.1609 231.032C92.5289 228.992 90.0329 227.864 86.9369 227.864C81.6089 227.864 77.6969 231.488 77.6969 236.6C77.6969 241.712 81.6089 245.336 86.9369 245.336Z" fill="black"/>
<path d="M96.3076 228.2V245H100.988V231.968H107.372V245H112.076V228.2H96.3076Z" fill="black"/>
<path d="M123.923 245.336C129.299 245.336 133.259 241.64 133.259 236.6C133.259 231.56 129.299 227.864 123.923 227.864C118.547 227.864 114.587 231.56 114.587 236.6C114.587 241.64 118.547 245.336 123.923 245.336ZM123.923 241.4C121.379 241.4 119.387 239.504 119.387 236.6C119.387 233.696 121.379 231.8 123.923 231.8C126.467 231.8 128.459 233.696 128.459 236.6C128.459 239.504 126.467 241.4 123.923 241.4Z" fill="black"/>
<path d="M137.467 228.2L137.227 234.896C137.083 238.688 136.723 241.184 134.779 241.184C134.563 241.184 134.347 241.16 134.131 241.112L133.867 245C134.659 245.192 135.379 245.288 136.027 245.288C140.299 245.288 141.187 241.256 141.403 234.704L141.499 231.968H146.323V245H151.003V228.2H137.467Z" fill="black"/>
<path d="M163.165 233.552H159.277V228.2H154.597V245H162.541C166.909 245 169.621 242.96 169.621 239.024C169.621 235.352 167.245 233.552 163.165 233.552ZM162.229 241.592H159.277V236.936H162.229C163.837 236.936 164.845 237.536 164.845 239.12C164.845 240.704 163.813 241.592 162.229 241.592Z" fill="black"/>
<path d="M181.934 236.264C183.35 235.568 184.238 234.296 184.238 232.712C184.238 229.592 180.638 227.816 176.558 227.816C174.59 227.816 172.502 228.224 170.654 229.112L172.046 232.712C173.486 231.944 175.142 231.56 176.51 231.56C178.166 231.56 179.438 232.136 179.438 233.264C179.438 234.128 178.718 234.68 177.422 234.68H173.51V238.16H177.806C179.15 238.16 180.11 238.592 180.11 239.624C180.11 240.92 178.526 241.592 176.51 241.592C174.974 241.592 173.174 241.208 171.614 240.416L170.198 243.728C172.382 244.832 174.806 245.36 177.038 245.36C181.31 245.36 184.91 243.488 184.91 240.272C184.91 238.424 183.782 236.96 181.934 236.264Z" fill="black"/>
<path d="M195.735 245.336C201.111 245.336 205.071 241.64 205.071 236.6C205.071 231.56 201.111 227.864 195.735 227.864C190.359 227.864 186.399 231.56 186.399 236.6C186.399 241.64 190.359 245.336 195.735 245.336ZM195.735 241.4C193.191 241.4 191.199 239.504 191.199 236.6C191.199 233.696 193.191 231.8 195.735 231.8C198.279 231.8 200.271 233.696 200.271 236.6C200.271 239.504 198.279 241.4 195.735 241.4Z" fill="black"/>
<path d="M219.852 236.216C221.292 235.496 222.132 234.224 222.132 232.568C222.132 229.784 219.78 228.2 215.772 228.2H207.612V245H216.228C220.548 245 222.9 243.152 222.9 240.2C222.9 238.184 221.796 236.84 219.852 236.216ZM212.292 231.608H215.316C216.66 231.608 217.332 232.184 217.332 233.264C217.332 234.368 216.66 234.92 215.316 234.92H212.292V231.608ZM216.036 241.592H212.292V238.136H216.036C217.404 238.136 218.1 238.688 218.1 239.84C218.1 240.992 217.404 241.592 216.036 241.592Z" fill="black"/>
<path d="M238.384 245H243.328L235.888 228.2H231.208L223.792 245H228.64L229.96 241.736H237.064L238.384 245ZM231.352 238.232L233.512 232.856L235.672 238.232H231.352Z" fill="black"/>
<path d="M257.945 228.2H242.969V231.968H248.129V245H252.809V231.968H257.945V228.2Z" fill="black"/>
<path d="M268.704 233.552H264.816V228.2H260.136V245H268.08C272.448 245 275.16 242.96 275.16 239.024C275.16 235.352 272.784 233.552 268.704 233.552ZM267.768 241.592H264.816V236.936H267.768C269.376 236.936 270.384 237.536 270.384 239.12C270.384 240.704 269.352 241.592 267.768 241.592Z" fill="black"/>
<path d="M142.973 259.872V256.2H129.797V273H134.549V267.24H141.965V263.568H134.549V259.872H142.973Z" fill="black"/>
<path d="M145.195 273H149.947V256.2H145.195V273Z" fill="black"/>
<path d="M164.584 268.848C163.744 269.232 162.904 269.4 162.016 269.4C159.184 269.4 157.264 267.432 157.264 264.6C157.264 261.696 159.184 259.8 162.064 259.8C163.672 259.8 164.992 260.4 166.144 261.672L169.168 258.936C167.512 256.944 164.968 255.864 161.824 255.864C156.376 255.864 152.464 259.488 152.464 264.6C152.464 269.712 156.376 273.336 161.728 273.336C164.176 273.336 166.84 272.592 168.784 271.2V264.24H164.584V268.848Z" fill="black"/>
<path d="M191.333 273L191.285 256.2H187.373L181.613 265.896L175.709 256.2H171.797V273H176.189V264.336L180.485 271.344H182.597L186.917 264.096L186.965 273H191.333Z" fill="black"/>
<path d="M207.271 273H212.215L204.775 256.2H200.095L192.679 273H197.527L198.847 269.736H205.951L207.271 273ZM200.239 266.232L202.399 260.856L204.559 266.232H200.239Z" fill="black"/>
<path fill-rule="evenodd" clip-rule="evenodd" d="M59.0654 250C56.304 250 54.0654 247.761 54.0654 245L54.0654 228.2C54.0654 225.439 56.304 223.2 59.0654 223.2H63.7454C65.0921 223.2 66.3144 223.732 67.2134 224.598C68.1362 223.71 69.3761 223.2 70.6814 223.2H75.1454C76.7113 223.2 78.109 223.92 79.0258 225.047C81.2969 223.644 84.0229 222.864 86.9369 222.864C89.197 222.864 91.3667 223.303 93.3118 224.197C94.1468 223.571 95.1839 223.2 96.3076 223.2H112.076C113.648 223.2 115.051 223.926 115.968 225.061C118.256 223.651 120.999 222.864 123.923 222.864C127.363 222.864 130.552 223.953 133.045 225.865C133.885 224.276 135.554 223.2 137.467 223.2H151.003C151.636 223.2 152.242 223.318 152.8 223.533C153.357 223.318 153.963 223.2 154.597 223.2H159.277C162.038 223.2 164.277 225.439 164.277 228.2V228.587C164.738 228.616 165.203 228.664 165.667 228.736C165.799 227.006 166.829 225.403 168.488 224.605C171.095 223.353 173.938 222.816 176.558 222.816C179.235 222.816 182.097 223.385 184.473 224.791C185.098 225.16 185.712 225.606 186.281 226.129C188.819 224.054 192.14 222.864 195.735 222.864C198.668 222.864 201.418 223.656 203.71 225.074C204.626 223.931 206.034 223.2 207.612 223.2H215.772C218.328 223.2 221.046 223.688 223.276 225.212C224.354 225.948 225.226 226.867 225.866 227.921L226.634 226.181C227.433 224.369 229.227 223.2 231.208 223.2H235.888C237.241 223.2 238.507 223.746 239.429 224.67C240.334 223.762 241.586 223.2 242.969 223.2H257.945C258.321 223.2 258.688 223.242 259.04 223.32C259.393 223.242 259.759 223.2 260.136 223.2H264.816C267.577 223.2 269.816 225.439 269.816 228.2V228.587C272.17 228.735 274.625 229.392 276.64 231.051C279.141 233.11 280.16 236.041 280.16 239.024C280.16 242.233 278.995 245.253 276.425 247.357C274.008 249.336 270.96 250 268.08 250H260.136C258.689 250 257.385 249.385 256.472 248.403C255.559 249.385 254.256 250 252.809 250H248.129C247.259 250 246.44 249.778 245.727 249.387C245.003 249.783 244.18 250 243.328 250H238.384C236.346 250 234.512 248.764 233.748 246.875L233.692 246.736H233.331L233.275 246.875C232.511 248.764 230.677 250 228.64 250H223.792C222.853 250 221.949 249.736 221.173 249.259C219.59 249.791 217.896 250 216.228 250H207.612C206.034 250 204.626 249.269 203.71 248.126C201.418 249.544 198.668 250.336 195.735 250.336C192.272 250.336 189.063 249.232 186.563 247.296C186.118 247.672 185.649 248.006 185.169 248.297C182.751 249.764 179.819 250.36 177.038 250.36C174.379 250.36 171.545 249.805 168.896 248.641C166.902 249.635 164.675 250 162.541 250H154.597C153.963 250 153.357 249.882 152.8 249.667C152.242 249.882 151.636 250 151.003 250H146.323C144.689 250 143.237 249.216 142.325 248.003C142.07 248.231 141.796 248.449 141.503 248.654C139.82 249.83 137.912 250.288 136.027 250.288C134.896 250.288 133.773 250.122 132.689 249.859C131.912 249.671 131.217 249.308 130.64 248.819C128.627 249.8 126.337 250.336 123.923 250.336C120.999 250.336 118.256 249.549 115.968 248.139C115.051 249.274 113.648 250 112.076 250H107.372C106.158 250 105.046 249.568 104.18 248.849C103.314 249.568 102.201 250 100.988 250H96.3076C95.1839 250 94.1468 249.629 93.3118 249.004C91.3667 249.898 89.197 250.336 86.9369 250.336C84.0229 250.336 81.2969 249.556 79.0258 248.153C78.109 249.28 76.7113 250 75.1454 250H70.4654C69.1248 250 67.9073 249.472 67.0095 248.613C66.0879 249.495 64.8532 250 63.5534 250H59.0654ZM70.4654 245H75.1454V228.2H70.6814L63.7454 238.064V228.2H59.0654V245H63.5534L70.4654 235.16V245ZM96.3076 245H100.988V231.968H107.372V245H112.076V228.2H96.3076V245ZM80.1454 242.717C81.7985 244.364 84.1778 245.336 86.9369 245.336C87.0173 245.336 87.0973 245.335 87.1769 245.334C88.113 245.316 88.9925 245.193 89.8078 244.972C90.3352 244.829 90.8359 244.645 91.3076 244.421C92.1294 244.031 92.8636 243.521 93.4993 242.899C93.7334 242.67 93.9541 242.427 94.1609 242.168L91.1369 239.432C91.0838 239.496 91.03 239.559 90.9756 239.62C90.8966 239.708 90.8164 239.794 90.7348 239.876C89.7563 240.865 88.5865 241.4 87.1769 241.4C87.0962 241.4 87.0162 241.398 86.9369 241.395C84.3063 241.287 82.4969 239.396 82.4969 236.6C82.4969 233.804 84.3063 231.913 86.9369 231.805C87.0162 231.802 87.0962 231.8 87.1769 231.8C88.5865 231.8 89.7563 232.335 90.7348 233.324C90.8164 233.406 90.8966 233.492 90.9756 233.58C91.03 233.641 91.0838 233.704 91.1369 233.768L94.1609 231.032C93.9541 230.773 93.7334 230.53 93.4993 230.301C92.8636 229.679 92.1294 229.169 91.3076 228.779C90.8359 228.555 90.3352 228.371 89.8078 228.228C88.9925 228.007 88.113 227.884 87.1769 227.866C87.0973 227.865 87.0173 227.864 86.9369 227.864C84.1778 227.864 81.7985 228.836 80.1454 230.483C78.6064 232.016 77.6969 234.135 77.6969 236.6C77.6969 239.065 78.6064 241.184 80.1454 242.717ZM87.084 236.806C87.084 236.806 87.0845 236.806 87.0855 236.806ZM146.323 245H151.003V228.2H137.467L137.227 234.896C137.204 235.498 137.176 236.068 137.137 236.6C136.995 238.52 136.711 239.952 136.027 240.669C135.756 240.954 135.422 241.126 135.009 241.172C134.939 241.179 134.867 241.184 134.792 241.184C134.788 241.184 134.783 241.184 134.779 241.184C134.563 241.184 134.347 241.16 134.131 241.112L133.867 245C134.182 245.077 134.486 245.138 134.779 245.184C134.929 245.207 135.076 245.227 135.22 245.243C135.501 245.273 135.77 245.288 136.027 245.288C136.368 245.288 136.687 245.262 136.986 245.212C137.759 245.081 138.396 244.785 138.924 244.336C140.513 242.981 141.097 240.237 141.323 236.467C141.35 236.011 141.373 235.54 141.391 235.054C141.391 235.051 141.391 235.048 141.391 235.045C141.395 234.932 141.399 234.819 141.403 234.704L141.499 231.968H146.323V245ZM117.076 242.701C118.746 244.35 121.146 245.336 123.923 245.336C125.795 245.336 127.496 244.888 128.917 244.09C130.262 243.336 131.357 242.27 132.111 240.975C132.848 239.709 133.259 238.224 133.259 236.6C133.259 236.592 133.259 236.585 133.259 236.577C133.259 236.447 133.256 236.318 133.25 236.19C133.229 235.694 133.169 235.213 133.072 234.747C133.071 234.744 133.071 234.741 133.07 234.738C132.91 233.971 132.652 233.249 132.307 232.582C130.822 229.715 127.727 227.864 123.923 227.864C121.146 227.864 118.746 228.85 117.076 230.499C115.512 232.041 114.587 234.164 114.587 236.6C114.587 239.036 115.512 241.159 117.076 242.701ZM186.696 238.918C186.821 239.389 186.984 239.841 187.183 240.272C187.705 241.408 188.472 242.397 189.431 243.192C191.061 244.544 193.246 245.336 195.735 245.336C198.529 245.336 200.94 244.338 202.612 242.672C204.158 241.132 205.071 239.021 205.071 236.6C205.071 234.179 204.158 232.068 202.612 230.528C200.94 228.862 198.529 227.864 195.735 227.864C192.991 227.864 190.615 228.827 188.947 230.441C188.269 231.098 187.707 231.862 187.286 232.712C187.153 232.981 187.034 233.258 186.929 233.543C186.585 234.483 186.399 235.51 186.399 236.6C186.399 237.411 186.502 238.187 186.696 238.918ZM159.277 228.2H154.597V245H162.541C163.549 245 164.469 244.891 165.288 244.676C166.552 244.343 167.574 243.755 168.308 242.92C168.789 242.372 169.146 241.717 169.365 240.958C169.49 240.524 169.57 240.057 169.603 239.556C169.613 239.414 169.618 239.268 169.62 239.12C169.62 239.088 169.621 239.056 169.621 239.024C169.621 238.724 169.605 238.436 169.573 238.16C169.521 237.699 169.424 237.273 169.286 236.882C169.198 236.631 169.092 236.394 168.97 236.172C168.836 235.93 168.683 235.704 168.51 235.496C168.198 235.119 167.823 234.798 167.389 234.531C166.322 233.877 164.897 233.552 163.165 233.552H159.277V228.2ZM159.277 236.936V241.592H162.229C162.335 241.592 162.439 241.588 162.541 241.58C163.278 241.522 163.875 241.255 164.277 240.801C164.641 240.389 164.845 239.823 164.845 239.12C164.845 239.088 164.844 239.056 164.843 239.024C164.826 238.365 164.626 237.884 164.277 237.551C163.997 237.285 163.621 237.113 163.165 237.02C162.882 236.963 162.569 236.936 162.229 236.936H159.277ZM173.51 238.16H177.806C178.981 238.16 179.862 238.49 180.066 239.263C180.095 239.374 180.11 239.494 180.11 239.624C180.11 239.636 180.11 239.649 180.11 239.661C180.109 239.664 180.109 239.667 180.109 239.67C180.103 239.889 180.051 240.09 179.958 240.272C179.945 240.299 179.93 240.325 179.915 240.35C179.841 240.478 179.746 240.595 179.632 240.703C179.225 241.091 178.583 241.354 177.806 241.488C177.562 241.53 177.305 241.56 177.038 241.576C176.866 241.587 176.69 241.592 176.51 241.592C176.236 241.592 175.953 241.58 175.665 241.555C175.252 241.52 174.828 241.459 174.401 241.373C174.104 241.313 173.806 241.24 173.51 241.155C173.288 241.092 173.066 241.021 172.846 240.943C172.498 240.819 172.154 240.678 171.821 240.518C171.751 240.485 171.682 240.451 171.614 240.416L170.198 243.728C170.763 244.013 171.343 244.26 171.933 244.47C172.314 244.605 172.7 244.725 173.086 244.829C173.723 245 174.363 245.13 174.999 245.218C175.507 245.288 176.012 245.332 176.51 245.35C176.687 245.357 176.863 245.36 177.038 245.36C179.532 245.36 181.796 244.722 183.25 243.552C184.272 242.729 184.892 241.642 184.91 240.328C184.91 240.31 184.91 240.291 184.91 240.272C184.91 240.05 184.894 239.834 184.862 239.624C184.699 238.545 184.126 237.63 183.239 236.968C183.06 236.835 182.869 236.712 182.666 236.6C182.437 236.474 182.192 236.361 181.934 236.264C182.48 235.996 182.947 235.642 183.315 235.218C183.789 234.672 184.099 234.01 184.201 233.264C184.225 233.085 184.238 232.901 184.238 232.712C184.238 232.377 184.196 232.057 184.117 231.754C183.941 231.076 183.576 230.479 183.067 229.967C181.681 228.573 179.222 227.816 176.558 227.816C176.542 227.816 176.526 227.816 176.51 227.816C176.185 227.817 175.857 227.829 175.528 227.853C174.504 227.926 173.466 228.11 172.46 228.414C171.842 228.6 171.236 228.832 170.654 229.112L172.046 232.712C172.136 232.664 172.226 232.618 172.317 232.573C172.38 232.542 172.443 232.512 172.506 232.483C172.834 232.33 173.171 232.197 173.51 232.082C173.75 232.001 173.992 231.929 174.233 231.866C174.413 231.82 174.593 231.778 174.772 231.742C175.376 231.621 175.966 231.56 176.51 231.56C176.526 231.56 176.542 231.56 176.558 231.56C176.861 231.562 177.151 231.584 177.422 231.625C178.067 231.722 178.605 231.928 178.963 232.242C179.078 232.342 179.173 232.454 179.248 232.576C179.275 232.62 179.3 232.665 179.321 232.712C179.397 232.878 179.438 233.062 179.438 233.264C179.438 233.273 179.438 233.281 179.438 233.29C179.437 233.319 179.436 233.348 179.434 233.377C179.432 233.394 179.431 233.41 179.429 233.426C179.353 234.111 178.784 234.57 177.806 234.663C177.684 234.674 177.556 234.68 177.422 234.68H173.51V238.16ZM207.612 245H216.228C217.182 245 218.041 244.91 218.799 244.738C219.695 244.534 220.452 244.215 221.061 243.795C222.261 242.968 222.891 241.747 222.9 240.233C222.9 240.222 222.9 240.211 222.9 240.2C222.9 240.078 222.896 239.958 222.888 239.84C222.815 238.781 222.416 237.925 221.735 237.278C221.6 237.15 221.454 237.031 221.297 236.919C220.887 236.628 220.404 236.393 219.852 236.216C220.411 235.936 220.88 235.574 221.244 235.137C221.682 234.613 221.969 233.983 222.08 233.264C222.115 233.04 222.132 232.808 222.132 232.568C222.132 232.262 222.104 231.97 222.048 231.693C221.594 229.455 219.339 228.2 215.772 228.2H207.612V245ZM212.292 234.92H215.316C215.583 234.92 215.823 234.898 216.036 234.855C216.749 234.71 217.167 234.325 217.292 233.698C217.313 233.593 217.326 233.482 217.33 233.364C217.332 233.331 217.332 233.298 217.332 233.264C217.332 233.252 217.332 233.239 217.332 233.227C217.332 233.194 217.33 233.161 217.329 233.128C217.323 233.027 217.311 232.93 217.292 232.838C217.273 232.743 217.247 232.653 217.214 232.568C217.195 232.521 217.175 232.476 217.152 232.432C217.097 232.327 217.029 232.231 216.949 232.145C216.689 231.867 216.297 231.694 215.772 231.633C215.63 231.616 215.478 231.608 215.316 231.608H212.292V234.92ZM212.292 238.136V241.592H216.036C216.102 241.592 216.166 241.591 216.228 241.588C216.656 241.569 217.011 241.486 217.292 241.341C217.543 241.211 217.735 241.033 217.869 240.806C217.924 240.714 217.968 240.615 218.004 240.507C218.035 240.411 218.059 240.309 218.075 240.2C218.092 240.087 218.1 239.967 218.1 239.84C218.1 239.827 218.1 239.813 218.1 239.8C218.1 239.779 218.099 239.759 218.098 239.739C218.095 239.643 218.086 239.551 218.072 239.464C217.99 238.948 217.729 238.587 217.292 238.372C216.969 238.214 216.55 238.136 216.036 238.136H212.292ZM243.328 245L235.888 228.2H231.208L223.792 245H228.64L229.96 241.736H237.064L238.384 245H243.328ZM231.352 238.232L233.512 232.856L235.672 238.232H231.352ZM248.129 245H252.809V231.968H257.945V228.2H242.969V231.968H248.129V245ZM260.136 245H268.08C272.412 245 275.115 242.993 275.159 239.12C275.16 239.088 275.16 239.056 275.16 239.024C275.16 235.352 272.784 233.552 268.704 233.552H264.816V228.2H260.136V245ZM264.816 241.592H267.768C267.874 241.592 267.978 241.588 268.08 241.58C268.817 241.522 269.414 241.255 269.816 240.801C270.18 240.389 270.384 239.823 270.384 239.12C270.384 239.088 270.383 239.056 270.382 239.024C270.365 238.365 270.165 237.884 269.816 237.551C269.536 237.285 269.16 237.113 268.704 237.02C268.421 236.963 268.108 236.936 267.768 236.936H264.816V241.592ZM123.923 236.4C123.914 236.401 123.873 236.406 123.809 236.432C123.728 236.465 123.64 236.522 123.565 236.599C123.564 236.599 123.564 236.6 123.564 236.6C123.564 236.6 123.564 236.601 123.565 236.601C123.64 236.679 123.728 236.735 123.809 236.768C123.873 236.794 123.914 236.799 123.923 236.8C123.932 236.799 123.973 236.794 124.037 236.768C124.118 236.735 124.206 236.679 124.281 236.601C124.282 236.601 124.282 236.6 124.282 236.6C124.282 236.6 124.282 236.599 124.281 236.599C124.206 236.522 124.118 236.465 124.037 236.432C123.973 236.406 123.932 236.401 123.923 236.4ZM195.849 236.432C195.786 236.406 195.744 236.401 195.735 236.4C195.727 236.401 195.685 236.406 195.622 236.432C195.54 236.465 195.453 236.522 195.377 236.599C195.377 236.599 195.376 236.6 195.376 236.6C195.376 236.6 195.377 236.601 195.377 236.601C195.453 236.679 195.54 236.735 195.622 236.768C195.685 236.794 195.727 236.799 195.735 236.8C195.744 236.799 195.786 236.794 195.849 236.768C195.931 236.735 196.018 236.679 196.094 236.601C196.094 236.601 196.095 236.6 196.095 236.6C196.095 236.6 196.094 236.599 196.094 236.599C196.018 236.522 195.931 236.465 195.849 236.432ZM141.965 263.568H134.549V259.872H142.973V256.2H129.797V273H134.549V267.24H141.965V263.568ZM139.549 272.24V273C139.549 275.761 137.31 278 134.549 278H129.797C127.036 278 124.797 275.761 124.797 273V256.2C124.797 253.439 127.036 251.2 129.797 251.2H142.973C143.355 251.2 143.727 251.243 144.084 251.324C144.442 251.243 144.814 251.2 145.195 251.2H149.947C151.513 251.2 152.91 251.919 153.827 253.045C156.12 251.641 158.875 250.864 161.824 250.864C164.225 250.864 166.555 251.334 168.63 252.33C169.493 251.624 170.595 251.2 171.797 251.2H175.709C177.454 251.2 179.072 252.109 179.98 253.6L181.56 256.195L183.074 253.646C183.975 252.13 185.609 251.2 187.373 251.2H191.285C193.19 251.2 194.847 252.266 195.691 253.834C196.557 252.221 198.244 251.2 200.095 251.2H204.775C206.754 251.2 208.546 252.367 209.347 254.175L216.787 270.975C217.472 272.522 217.329 274.31 216.406 275.727C215.483 277.145 213.907 278 212.215 278H207.271C205.234 278 203.4 276.764 202.636 274.875L202.58 274.736H202.219L202.163 274.875C201.399 276.764 199.565 278 197.527 278H192.679C192.452 278 192.228 277.985 192.006 277.955C191.784 277.985 191.559 278 191.333 278H186.965C185.471 278 184.13 277.345 183.214 276.306C183.011 276.331 182.805 276.344 182.597 276.344H180.485C180.299 276.344 180.115 276.334 179.933 276.314C179.017 277.348 177.679 278 176.189 278H171.797C170.629 278 169.554 277.599 168.703 276.928C166.448 277.88 163.997 278.336 161.728 278.336C158.815 278.336 156.09 277.561 153.818 276.165C152.901 277.285 151.508 278 149.947 278H145.195C142.434 278 140.195 275.761 140.195 273V272.24H139.549ZM145.195 273H149.947V256.2H145.195V273ZM171.797 273H176.189V264.336L180.485 271.344H182.597L186.917 264.096L186.965 273H191.333V272.976L191.285 256.2H187.373L181.613 265.896L175.709 256.2H171.797V273ZM169.168 258.936C169.168 258.936 169.167 258.935 169.167 258.934C169.026 258.765 168.878 258.601 168.724 258.445C168.162 257.874 167.517 257.393 166.797 257.007C166.163 256.667 165.472 256.4 164.728 256.21C163.902 255.999 163.011 255.883 162.064 255.866C161.985 255.865 161.905 255.864 161.824 255.864C159.015 255.864 156.614 256.828 154.947 258.462C153.382 259.997 152.464 262.124 152.464 264.6C152.464 267.082 153.386 269.213 154.947 270.749C156.602 272.377 158.975 273.336 161.728 273.336C161.824 273.336 161.92 273.335 162.016 273.333C163.431 273.299 164.906 273.022 166.262 272.518C166.443 272.451 166.621 272.38 166.797 272.305C167.51 272.001 168.182 271.631 168.784 271.2V264.24H164.584V268.848C164.318 268.97 164.052 269.07 163.784 269.15C163.207 269.322 162.623 269.4 162.016 269.4C161.919 269.4 161.823 269.398 161.728 269.393C160.951 269.356 160.248 269.166 159.642 268.848C159.622 268.838 159.603 268.828 159.584 268.817C158.141 268.034 157.264 266.514 157.264 264.6C157.264 261.777 159.078 259.907 161.824 259.804C161.903 259.802 161.983 259.8 162.064 259.8C162.135 259.8 162.206 259.801 162.276 259.804C163.12 259.832 163.883 260.032 164.584 260.414C165.096 260.693 165.575 261.069 166.028 261.547C166.067 261.588 166.106 261.629 166.144 261.672L169.168 258.936ZM204.775 256.2H200.095L192.681 272.996L192.679 273H197.527L198.847 269.736H205.951L207.271 273H212.215L204.775 256.2ZM200.239 266.232L202.399 260.856L204.559 266.232H200.239ZM119.387 236.6C119.387 239.504 121.379 241.4 123.923 241.4C126.467 241.4 128.459 239.504 128.459 236.6C128.459 233.696 126.467 231.8 123.923 231.8C121.379 231.8 119.387 233.696 119.387 236.6ZM191.199 236.6C191.199 239.504 193.191 241.4 195.735 241.4C198.279 241.4 200.271 239.504 200.271 236.6C200.271 233.696 198.279 231.8 195.735 231.8C193.191 231.8 191.199 233.696 191.199 236.6Z" fill="white"/>
<rect x="16" y="297" width="304" height="76" rx="24" fill="white"/>
<rect x="16" y="397" width="125" height="43" rx="13" fill="white"/>
<rect x="195" y="397" width="125" height="43" rx="13" fill="white"/>
<path d="M46.7366 324H48.4306L53.6946 317.056V324H55.4866V314.2H53.7926L48.5286 321.158V314.2H46.7366V324ZM61.4403 324.098C62.8963 324.098 64.0583 323.468 64.6323 322.348L63.2883 321.564C62.8403 322.278 62.1683 322.6 61.4263 322.6C60.1383 322.6 59.1583 321.718 59.1583 320.262C59.1583 318.82 60.1383 317.924 61.4263 317.924C62.1683 317.924 62.8403 318.246 63.2883 318.96L64.6323 318.176C64.0583 317.042 62.8963 316.44 61.4403 316.44C59.0743 316.44 57.3943 318.022 57.3943 320.262C57.3943 322.502 59.0743 324.098 61.4403 324.098ZM66.1731 316.524V324H67.9231V318.008H71.6051V324H73.3411V316.524H66.1731ZM79.0344 324.098C81.3584 324.098 83.0244 322.502 83.0244 320.262C83.0244 318.022 81.3584 316.44 79.0344 316.44C76.7384 316.44 75.0584 318.022 75.0584 320.262C75.0584 322.502 76.7384 324.098 79.0344 324.098ZM79.0344 322.6C77.7744 322.6 76.8224 321.69 76.8224 320.262C76.8224 318.834 77.7744 317.924 79.0344 317.924C80.3084 317.924 81.2604 318.834 81.2604 320.262C81.2604 321.69 80.3084 322.6 79.0344 322.6ZM85.3991 316.524L85.2731 319.408C85.1891 320.962 85.1471 322.558 83.9991 322.558C83.9011 322.558 83.7891 322.544 83.6631 322.516L83.5791 323.986C83.9431 324.084 84.2651 324.14 84.5451 324.14C86.3091 324.14 86.7011 322.152 86.8271 319.492L86.8971 318.008H89.6971V324H91.4471V316.524H85.3991ZM97.5559 318.988L95.5539 318.974V316.524H93.8039V324L97.3039 324.014C99.3479 324.028 100.51 323.09 100.51 321.452C100.51 319.898 99.4739 318.988 97.5559 318.988ZM97.1499 322.726L95.5539 322.712V320.178L97.1499 320.192C98.1859 320.206 98.7319 320.57 98.7319 321.424C98.7319 322.292 98.1719 322.74 97.1499 322.726ZM106.377 320.108C107.147 319.8 107.637 319.198 107.637 318.47C107.637 317.238 106.237 316.412 104.319 316.412C103.339 316.412 102.373 316.622 101.351 317.098L101.799 318.386C102.625 318.022 103.409 317.84 104.165 317.84C105.215 317.84 105.845 318.176 105.845 318.722C105.845 319.268 105.327 319.576 104.445 319.576H103.129V320.752H104.585C105.523 320.752 106.055 321.074 106.055 321.662C106.055 322.306 105.341 322.684 104.179 322.684C103.255 322.684 102.303 322.446 101.575 322.04L101.071 323.342C101.967 323.846 103.115 324.126 104.263 324.126C106.349 324.126 107.847 323.188 107.847 321.802C107.847 320.976 107.301 320.374 106.377 320.108ZM112.982 324.098C115.306 324.098 116.972 322.502 116.972 320.262C116.972 318.022 115.306 316.44 112.982 316.44C110.686 316.44 109.006 318.022 109.006 320.262C109.006 322.502 110.686 324.098 112.982 324.098ZM112.982 322.6C111.722 322.6 110.77 321.69 110.77 320.262C110.77 318.834 111.722 317.924 112.982 317.924C114.256 317.924 115.208 318.834 115.208 320.262C115.208 321.69 114.256 322.6 112.982 322.6ZM124.118 320.108C124.832 319.8 125.266 319.226 125.266 318.456C125.266 317.224 124.174 316.524 122.354 316.524H118.7V324H122.508C124.524 324 125.504 323.216 125.504 321.9C125.504 320.99 125.042 320.388 124.118 320.108ZM120.366 317.798H122.2C123.096 317.798 123.558 318.092 123.558 318.708C123.558 319.324 123.096 319.646 122.2 319.646H120.366V317.798ZM122.368 322.726H120.366V320.808H122.424C123.376 320.808 123.81 321.13 123.81 321.788C123.81 322.432 123.306 322.726 122.368 322.726ZM130.154 316.44C128.95 316.44 127.788 316.748 126.99 317.364L127.676 318.638C128.236 318.176 129.104 317.896 129.944 317.896C131.19 317.896 131.806 318.498 131.806 319.52V319.632H129.874C127.606 319.632 126.766 320.612 126.766 321.858C126.766 323.16 127.844 324.098 129.552 324.098C130.672 324.098 131.484 323.734 131.904 323.09V324H133.556V319.618C133.556 317.462 132.31 316.44 130.154 316.44ZM129.916 322.824C129.02 322.824 128.488 322.418 128.488 321.788C128.488 321.242 128.81 320.794 130 320.794H131.806V321.662C131.512 322.432 130.77 322.824 129.916 322.824ZM141.644 316.524H134.644V318.008H137.276V324H139.026V318.008H141.644V316.524ZM146.665 318.988L144.663 318.974V316.524H142.913V324L146.413 324.014C148.457 324.028 149.619 323.09 149.619 321.452C149.619 319.898 148.583 318.988 146.665 318.988ZM146.259 322.726L144.663 322.712V320.178L146.259 320.192C147.295 320.206 147.841 320.57 147.841 321.424C147.841 322.292 147.281 322.74 146.259 322.726ZM162.321 315.726V314.2H155.167V324H156.987V320.248H161.719V318.708H156.987V315.726H162.321ZM164.658 315.292C165.316 315.292 165.778 314.816 165.778 314.2C165.778 313.626 165.302 313.192 164.658 313.192C164.014 313.192 163.538 313.654 163.538 314.242C163.538 314.83 164.014 315.292 164.658 315.292ZM163.776 324H165.526V316.524H163.776V324ZM173.577 316.524V317.518C172.961 316.776 172.037 316.44 170.987 316.44C168.845 316.44 167.207 317.868 167.207 320.038C167.207 322.208 168.845 323.664 170.987 323.664C171.995 323.664 172.877 323.342 173.493 322.67V323.062C173.493 324.574 172.765 325.33 171.113 325.33C170.077 325.33 169.013 324.98 168.355 324.434L167.571 325.75C168.425 326.45 169.811 326.814 171.211 326.814C173.829 326.814 175.243 325.582 175.243 322.866V316.524H173.577ZM171.253 322.18C169.923 322.18 168.971 321.312 168.971 320.038C168.971 318.778 169.923 317.924 171.253 317.924C172.569 317.924 173.521 318.778 173.521 320.038C173.521 321.312 172.569 322.18 171.253 322.18ZM186.98 316.44C185.79 316.44 184.782 316.916 184.18 317.686C183.662 316.846 182.752 316.44 181.66 316.44C180.638 316.44 179.77 316.804 179.21 317.476V316.524H177.544V324H179.294V320.206C179.294 318.722 180.078 317.966 181.24 317.966C182.304 317.966 182.92 318.61 182.92 319.94V324H184.67V320.206C184.67 318.722 185.468 317.966 186.616 317.966C187.68 317.966 188.296 318.61 188.296 319.94V324H190.046V319.716C190.046 317.462 188.786 316.44 186.98 316.44ZM195.138 316.44C193.934 316.44 192.772 316.748 191.974 317.364L192.66 318.638C193.22 318.176 194.088 317.896 194.928 317.896C196.174 317.896 196.79 318.498 196.79 319.52V319.632H194.858C192.59 319.632 191.75 320.612 191.75 321.858C191.75 323.16 192.828 324.098 194.536 324.098C195.656 324.098 196.468 323.734 196.888 323.09V324H198.54V319.618C198.54 317.462 197.294 316.44 195.138 316.44ZM194.9 322.824C194.004 322.824 193.472 322.418 193.472 321.788C193.472 321.242 193.794 320.794 194.984 320.794H196.79V321.662C196.496 322.432 195.754 322.824 194.9 322.824ZM204.683 316.524V324H206.433V318.008H210.115V324H211.851V316.524H204.683ZM217.544 324.098C219.868 324.098 221.534 322.502 221.534 320.262C221.534 318.022 219.868 316.44 217.544 316.44C215.248 316.44 213.568 318.022 213.568 320.262C213.568 322.502 215.248 324.098 217.544 324.098ZM217.544 322.6C216.284 322.6 215.332 321.69 215.332 320.262C215.332 318.834 216.284 317.924 217.544 317.924C218.818 317.924 219.77 318.834 219.77 320.262C219.77 321.69 218.818 322.6 217.544 322.6ZM227.132 316.524V324H228.882V318.008H232.564V324H234.3V316.524H227.132ZM240.805 316.44C239.783 316.44 238.915 316.79 238.327 317.504V316.524H236.661V326.716H238.411V323.09C239.013 323.776 239.853 324.098 240.805 324.098C242.989 324.098 244.599 322.586 244.599 320.262C244.599 317.952 242.989 316.44 240.805 316.44ZM240.609 322.6C239.349 322.6 238.383 321.69 238.383 320.262C238.383 318.834 239.349 317.924 240.609 317.924C241.869 317.924 242.821 318.834 242.821 320.262C242.821 321.69 241.869 322.6 240.609 322.6ZM246.341 324H247.951L252.067 319.072V324H253.817V316.524H252.221L248.091 321.452V316.524H246.341V324ZM261.533 324H263.591L260.693 320.122L263.409 316.524H261.533L259.321 319.548H257.921V316.524H256.171V324H257.921V321.004H259.279L261.533 324ZM267.475 316.44C266.271 316.44 265.109 316.748 264.311 317.364L264.997 318.638C265.557 318.176 266.425 317.896 267.265 317.896C268.511 317.896 269.127 318.498 269.127 319.52V319.632H267.195C264.927 319.632 264.087 320.612 264.087 321.858C264.087 323.16 265.165 324.098 266.873 324.098C267.993 324.098 268.805 323.734 269.225 323.09V324H270.877V319.618C270.877 317.462 269.631 316.44 267.475 316.44ZM267.237 322.824C266.341 322.824 265.809 322.418 265.809 321.788C265.809 321.242 266.131 320.794 267.321 320.794H269.127V321.662C268.833 322.432 268.091 322.824 267.237 322.824ZM277.413 320.108C278.183 319.8 278.673 319.198 278.673 318.47C278.673 317.238 277.273 316.412 275.355 316.412C274.375 316.412 273.409 316.622 272.387 317.098L272.835 318.386C273.661 318.022 274.445 317.84 275.201 317.84C276.251 317.84 276.881 318.176 276.881 318.722C276.881 319.268 276.363 319.576 275.481 319.576H274.165V320.752H275.621C276.559 320.752 277.091 321.074 277.091 321.662C277.091 322.306 276.377 322.684 275.215 322.684C274.291 322.684 273.339 322.446 272.611 322.04L272.107 323.342C273.003 323.846 274.151 324.126 275.299 324.126C277.385 324.126 278.883 323.188 278.883 321.802C278.883 320.976 278.337 320.374 277.413 320.108ZM286.061 316.524L283.695 322.054L281.343 316.524H279.523L282.785 324.028L282.659 324.322C282.323 325.064 281.959 325.358 281.343 325.358C280.867 325.358 280.391 325.162 280.055 324.84L279.355 326.128C279.831 326.562 280.615 326.814 281.357 326.814C282.603 326.814 283.555 326.296 284.241 324.602L287.741 316.524H286.061ZM79.5237 340H81.2737V337.046H85.0397V340H86.7897V332.524H85.0397V335.562H81.2737V332.524H79.5237V340ZM91.921 332.44C90.717 332.44 89.555 332.748 88.757 333.364L89.443 334.638C90.003 334.176 90.871 333.896 91.711 333.896C92.957 333.896 93.573 334.498 93.573 335.52V335.632H91.641C89.373 335.632 88.533 336.612 88.533 337.858C88.533 339.16 89.611 340.098 91.319 340.098C92.439 340.098 93.251 339.734 93.671 339.09V340H95.323V335.618C95.323 333.462 94.077 332.44 91.921 332.44ZM91.683 338.824C90.787 338.824 90.255 338.418 90.255 337.788C90.255 337.242 90.577 336.794 91.767 336.794H93.573V337.662C93.279 338.432 92.537 338.824 91.683 338.824ZM102.081 332.524V335.8C101.479 336.08 100.821 336.22 100.205 336.22C99.1965 336.22 98.5945 335.786 98.5945 334.806V332.524H96.8445V334.918C96.8445 336.78 97.9365 337.62 99.8265 337.62C100.653 337.62 101.409 337.424 102.081 337.102V340H103.831V332.524H102.081ZM108.97 332.44C107.766 332.44 106.604 332.748 105.806 333.364L106.492 334.638C107.052 334.176 107.92 333.896 108.76 333.896C110.006 333.896 110.622 334.498 110.622 335.52V335.632H108.69C106.422 335.632 105.582 336.612 105.582 337.858C105.582 339.16 106.66 340.098 108.368 340.098C109.488 340.098 110.3 339.734 110.72 339.09V340H112.372V335.618C112.372 333.462 111.126 332.44 108.97 332.44ZM108.732 338.824C107.836 338.824 107.304 338.418 107.304 337.788C107.304 337.242 107.626 336.794 108.816 336.794H110.622V337.662C110.328 338.432 109.586 338.824 108.732 338.824ZM115.265 332.524L115.139 335.408C115.055 336.962 115.013 338.558 113.865 338.558C113.767 338.558 113.655 338.544 113.529 338.516L113.445 339.986C113.809 340.084 114.131 340.14 114.411 340.14C116.175 340.14 116.567 338.152 116.693 335.492L116.763 334.008H119.563V340H121.313V332.524H115.265ZM127.422 334.988L125.42 334.974V332.524H123.67V340L127.17 340.014C129.214 340.028 130.376 339.09 130.376 337.452C130.376 335.898 129.34 334.988 127.422 334.988ZM127.016 338.726L125.42 338.712V336.178L127.016 336.192C128.052 336.206 128.598 336.57 128.598 337.424C128.598 338.292 128.038 338.74 127.016 338.726ZM135.316 340.098C136.772 340.098 137.934 339.468 138.508 338.348L137.164 337.564C136.716 338.278 136.044 338.6 135.302 338.6C134.014 338.6 133.034 337.718 133.034 336.262C133.034 334.82 134.014 333.924 135.302 333.924C136.044 333.924 136.716 334.246 137.164 334.96L138.508 334.176C137.934 333.042 136.772 332.44 135.316 332.44C132.95 332.44 131.27 334.022 131.27 336.262C131.27 338.502 132.95 340.098 135.316 340.098ZM145.903 332.524H138.903V334.008H141.535V340H143.285V334.008H145.903V332.524ZM152.59 336.108C153.304 335.8 153.738 335.226 153.738 334.456C153.738 333.224 152.646 332.524 150.826 332.524H147.172V340H150.98C152.996 340 153.976 339.216 153.976 337.9C153.976 336.99 153.514 336.388 152.59 336.108ZM148.838 333.798H150.672C151.568 333.798 152.03 334.092 152.03 334.708C152.03 335.324 151.568 335.646 150.672 335.646H148.838V333.798ZM150.84 338.726H148.838V336.808H150.896C151.848 336.808 152.282 337.13 152.282 337.788C152.282 338.432 151.778 338.726 150.84 338.726ZM158.626 332.44C157.422 332.44 156.26 332.748 155.462 333.364L156.148 334.638C156.708 334.176 157.576 333.896 158.416 333.896C159.662 333.896 160.278 334.498 160.278 335.52V335.632H158.346C156.078 335.632 155.238 336.612 155.238 337.858C155.238 339.16 156.316 340.098 158.024 340.098C159.144 340.098 159.956 339.734 160.376 339.09V340H162.028V335.618C162.028 333.462 160.782 332.44 158.626 332.44ZM158.388 338.824C157.492 338.824 156.96 338.418 156.96 337.788C156.96 337.242 157.282 336.794 158.472 336.794H160.278V337.662C159.984 338.432 159.242 338.824 158.388 338.824ZM164.74 337.774C164.096 337.774 163.606 338.236 163.606 338.936C163.606 339.44 163.872 339.804 164.264 339.972L163.704 342.114H164.838L165.552 340.14C165.804 339.496 165.874 339.244 165.874 338.936C165.874 338.25 165.398 337.774 164.74 337.774ZM177.403 332.524H170.403V334.008H173.035V340H174.785V334.008H177.403V332.524ZM181.458 332.44C180.254 332.44 179.092 332.748 178.294 333.364L178.98 334.638C179.54 334.176 180.408 333.896 181.248 333.896C182.494 333.896 183.11 334.498 183.11 335.52V335.632H181.178C178.91 335.632 178.07 336.612 178.07 337.858C178.07 339.16 179.148 340.098 180.856 340.098C181.976 340.098 182.788 339.734 183.208 339.09V340H184.86V335.618C184.86 333.462 183.614 332.44 181.458 332.44ZM181.22 338.824C180.324 338.824 179.792 338.418 179.792 337.788C179.792 337.242 180.114 336.794 181.304 336.794H183.11V337.662C182.816 338.432 182.074 338.824 181.22 338.824ZM192.388 340H194.446L191.548 336.122L194.264 332.524H192.388L190.176 335.548H188.776V332.524H187.026V340H188.776V337.004H190.134L192.388 340ZM204.911 340H206.969L204.071 336.122L206.787 332.524H204.911L202.699 335.548H201.299V332.524H199.549V340H201.299V337.004H202.657L204.911 340ZM210.853 332.44C209.649 332.44 208.487 332.748 207.689 333.364L208.375 334.638C208.935 334.176 209.803 333.896 210.643 333.896C211.889 333.896 212.505 334.498 212.505 335.52V335.632H210.573C208.305 335.632 207.465 336.612 207.465 337.858C207.465 339.16 208.543 340.098 210.251 340.098C211.371 340.098 212.183 339.734 212.603 339.09V340H214.255V335.618C214.255 333.462 213.009 332.44 210.853 332.44ZM210.615 338.824C209.719 338.824 209.187 338.418 209.187 337.788C209.187 337.242 209.509 336.794 210.699 336.794H212.505V337.662C212.211 338.432 211.469 338.824 210.615 338.824ZM221.782 340H223.84L220.942 336.122L223.658 332.524H221.782L219.57 335.548H218.17V332.524H216.42V340H218.17V337.004H219.528L221.782 340ZM232.276 340.098C234.6 340.098 236.266 338.502 236.266 336.262C236.266 334.022 234.6 332.44 232.276 332.44C229.98 332.44 228.3 334.022 228.3 336.262C228.3 338.502 229.98 340.098 232.276 340.098ZM232.276 338.6C231.016 338.6 230.064 337.69 230.064 336.262C230.064 334.834 231.016 333.924 232.276 333.924C233.55 333.924 234.502 334.834 234.502 336.262C234.502 337.69 233.55 338.6 232.276 338.6ZM237.994 340H239.744V337.046H243.51V340H245.26V332.524H243.51V335.562H239.744V332.524H237.994V340ZM250.392 332.44C249.188 332.44 248.026 332.748 247.228 333.364L247.914 334.638C248.474 334.176 249.342 333.896 250.182 333.896C251.428 333.896 252.044 334.498 252.044 335.52V335.632H250.112C247.844 335.632 247.004 336.612 247.004 337.858C247.004 339.16 248.082 340.098 249.79 340.098C250.91 340.098 251.722 339.734 252.142 339.09V340H253.794V335.618C253.794 333.462 252.548 332.44 250.392 332.44ZM250.154 338.824C249.258 338.824 248.726 338.418 248.726 337.788C248.726 337.242 249.048 336.794 250.238 336.794H252.044V337.662C251.75 338.432 251.008 338.824 250.154 338.824ZM44.8958 348.524L42.5298 354.054L40.1778 348.524H38.3578L41.6198 356.028L41.4938 356.322C41.1578 357.064 40.7938 357.358 40.1778 357.358C39.7018 357.358 39.2258 357.162 38.8898 356.84L38.1897 358.128C38.6658 358.562 39.4498 358.814 40.1917 358.814C41.4378 358.814 42.3898 358.296 43.0758 356.602L46.5757 348.524H44.8958ZM54.2004 354.516V348.524H48.0404L47.9424 351.086C47.8584 352.836 47.6764 354.474 46.6264 354.516H46.2764V357.666H47.9004V356H53.6684V357.666H55.3064V354.516H54.2004ZM49.5384 351.212L49.5804 350.008H52.4504V354.516H48.7684C49.3704 353.942 49.4824 352.612 49.5384 351.212ZM60.2014 356.098C62.5254 356.098 64.1914 354.502 64.1914 352.262C64.1914 350.022 62.5254 348.44 60.2014 348.44C57.9054 348.44 56.2254 350.022 56.2254 352.262C56.2254 354.502 57.9054 356.098 60.2014 356.098ZM60.2014 354.6C58.9414 354.6 57.9894 353.69 57.9894 352.262C57.9894 350.834 58.9414 349.924 60.2014 349.924C61.4754 349.924 62.4274 350.834 62.4274 352.262C62.4274 353.69 61.4754 354.6 60.2014 354.6ZM71.3381 352.108C72.0521 351.8 72.4861 351.226 72.4861 350.456C72.4861 349.224 71.3941 348.524 69.5741 348.524H65.9201V356H69.7281C71.7441 356 72.7241 355.216 72.7241 353.9C72.7241 352.99 72.2621 352.388 71.3381 352.108ZM67.5861 349.798H69.4201C70.3161 349.798 70.7781 350.092 70.7781 350.708C70.7781 351.324 70.3161 351.646 69.4201 351.646H67.5861V349.798ZM69.5881 354.726H67.5861V352.808H69.6441C70.5961 352.808 71.0301 353.13 71.0301 353.788C71.0301 354.432 70.5261 354.726 69.5881 354.726ZM75.3161 348.524L75.1901 351.408C75.1061 352.962 75.0641 354.558 73.9161 354.558C73.8181 354.558 73.7061 354.544 73.5801 354.516L73.4961 355.986C73.8601 356.084 74.1821 356.14 74.4621 356.14C76.2261 356.14 76.6181 354.152 76.7441 351.492L76.8141 350.008H79.6141V356H81.3641V348.524H75.3161ZM90.7209 352.304C90.7209 349.966 89.1249 348.44 86.9409 348.44C84.7149 348.44 83.0769 350.036 83.0769 352.262C83.0769 354.488 84.7009 356.098 87.2069 356.098C88.4949 356.098 89.5449 355.678 90.2169 354.88L89.2789 353.802C88.7469 354.348 88.0889 354.614 87.2489 354.614C85.9469 354.614 85.0369 353.914 84.8269 352.822H90.6929C90.7069 352.654 90.7209 352.444 90.7209 352.304ZM86.9409 349.84C88.0889 349.84 88.9149 350.582 89.0549 351.66H84.8129C84.9809 350.568 85.8069 349.84 86.9409 349.84ZM98.2835 348.524H91.2835V350.008H93.9155V356H95.6655V350.008H98.2835V348.524ZM104.971 352.108C105.685 351.8 106.119 351.226 106.119 350.456C106.119 349.224 105.027 348.524 103.207 348.524H99.553V356H103.361C105.377 356 106.357 355.216 106.357 353.9C106.357 352.99 105.895 352.388 104.971 352.108ZM101.219 349.798H103.053C103.949 349.798 104.411 350.092 104.411 350.708C104.411 351.324 103.949 351.646 103.053 351.646H101.219V349.798ZM103.221 354.726H101.219V352.808H103.277C104.229 352.808 104.663 353.13 104.663 353.788C104.663 354.432 104.159 354.726 103.221 354.726ZM111.553 356.098C113.877 356.098 115.543 354.502 115.543 352.262C115.543 350.022 113.877 348.44 111.553 348.44C109.257 348.44 107.577 350.022 107.577 352.262C107.577 354.502 109.257 356.098 111.553 356.098ZM111.553 354.6C110.293 354.6 109.341 353.69 109.341 352.262C109.341 350.834 110.293 349.924 111.553 349.924C112.827 349.924 113.779 350.834 113.779 352.262C113.779 353.69 112.827 354.6 111.553 354.6ZM121.416 348.44C120.394 348.44 119.526 348.79 118.938 349.504V348.524H117.272V358.716H119.022V355.09C119.624 355.776 120.464 356.098 121.416 356.098C123.6 356.098 125.21 354.586 125.21 352.262C125.21 349.952 123.6 348.44 121.416 348.44ZM121.22 354.6C119.96 354.6 118.994 353.69 118.994 352.262C118.994 350.834 119.96 349.924 121.22 349.924C122.48 349.924 123.432 350.834 123.432 352.262C123.432 353.69 122.48 354.6 121.22 354.6ZM129.589 348.524C127.503 348.524 126.173 349.462 126.173 351.212C126.173 352.36 126.775 353.144 127.839 353.508L126.075 356H127.951L129.477 353.746H131.451V356H133.019V348.524H129.589ZM129.645 349.994H131.451V352.528H129.589C128.511 352.528 127.951 352.136 127.951 351.268C127.951 350.372 128.567 349.994 129.645 349.994ZM142.373 352.304C142.373 349.966 140.777 348.44 138.593 348.44C136.367 348.44 134.729 350.036 134.729 352.262C134.729 354.488 136.353 356.098 138.859 356.098C140.147 356.098 141.197 355.678 141.869 354.88L140.931 353.802C140.399 354.348 139.741 354.614 138.901 354.614C137.599 354.614 136.689 353.914 136.479 352.822H142.345C142.359 352.654 142.373 352.444 142.373 352.304ZM138.593 349.84C139.741 349.84 140.567 350.582 140.707 351.66H136.465C136.633 350.568 137.459 349.84 138.593 349.84ZM149.936 348.524H142.936V350.008H145.568V356H147.318V350.008H149.936V348.524ZM160.492 352.108C161.206 351.8 161.64 351.226 161.64 350.456C161.64 349.224 160.548 348.524 158.728 348.524H155.074V356H158.882C160.898 356 161.878 355.216 161.878 353.9C161.878 352.99 161.416 352.388 160.492 352.108ZM156.74 349.798H158.574C159.47 349.798 159.932 350.092 159.932 350.708C159.932 351.324 159.47 351.646 158.574 351.646H156.74V349.798ZM158.742 354.726H156.74V352.808H158.798C159.75 352.808 160.184 353.13 160.184 353.788C160.184 354.432 159.68 354.726 158.742 354.726ZM167.144 356.098C168.6 356.098 169.762 355.468 170.336 354.348L168.992 353.564C168.544 354.278 167.872 354.6 167.13 354.6C165.842 354.6 164.862 353.718 164.862 352.262C164.862 350.82 165.842 349.924 167.13 349.924C167.872 349.924 168.544 350.246 168.992 350.96L170.336 350.176C169.762 349.042 168.6 348.44 167.144 348.44C164.778 348.44 163.098 350.022 163.098 352.262C163.098 354.502 164.778 356.098 167.144 356.098ZM178.768 352.304C178.768 349.966 177.172 348.44 174.988 348.44C172.762 348.44 171.124 350.036 171.124 352.262C171.124 354.488 172.748 356.098 175.254 356.098C176.542 356.098 177.592 355.678 178.264 354.88L177.326 353.802C176.794 354.348 176.136 354.614 175.296 354.614C173.994 354.614 173.084 353.914 172.874 352.822H178.74C178.754 352.654 178.768 352.444 178.768 352.304ZM174.988 349.84C176.136 349.84 176.962 350.582 177.102 351.66H172.86C173.028 350.568 173.854 349.84 174.988 349.84ZM189.614 356L189.6 348.524H187.962L185.176 353.2L182.516 348.524H180.682V356H182.278V351.03L184.756 355.216H185.512L188.032 351.044V356H189.614ZM201.752 348.524H194.752V350.008H197.384V356H199.134V350.008H201.752V348.524ZM207.166 348.44C206.144 348.44 205.276 348.79 204.688 349.504V348.524H203.022V358.716H204.772V355.09C205.374 355.776 206.214 356.098 207.166 356.098C209.35 356.098 210.96 354.586 210.96 352.262C210.96 349.952 209.35 348.44 207.166 348.44ZM206.97 354.6C205.71 354.6 204.744 353.69 204.744 352.262C204.744 350.834 205.71 349.924 206.97 349.924C208.23 349.924 209.182 350.834 209.182 352.262C209.182 353.69 208.23 354.6 206.97 354.6ZM219.701 352.304C219.701 349.966 218.105 348.44 215.921 348.44C213.695 348.44 212.057 350.036 212.057 352.262C212.057 354.488 213.681 356.098 216.187 356.098C217.475 356.098 218.525 355.678 219.197 354.88L218.259 353.802C217.727 354.348 217.069 354.614 216.229 354.614C214.927 354.614 214.017 353.914 213.807 352.822H219.673C219.687 352.654 219.701 352.444 219.701 352.304ZM215.921 349.84C217.069 349.84 217.895 350.582 218.035 351.66H213.793C213.961 350.568 214.787 349.84 215.921 349.84ZM225.661 348.888C224.513 348.888 223.533 349.35 222.875 350.148C223.029 348.524 223.883 347.684 225.689 347.306L228.839 346.662L228.587 345.094L225.115 345.836C222.455 346.396 221.195 348.146 221.195 351.142C221.195 354.404 222.707 356.14 225.269 356.14C227.621 356.14 229.259 354.67 229.259 352.472C229.259 350.358 227.803 348.888 225.661 348.888ZM225.311 354.726C224.023 354.726 223.127 353.816 223.127 352.514C223.127 351.212 224.009 350.372 225.311 350.372C226.599 350.372 227.467 351.212 227.467 352.514C227.467 353.802 226.599 354.726 225.311 354.726ZM234.285 356.098C236.609 356.098 238.275 354.502 238.275 352.262C238.275 350.022 236.609 348.44 234.285 348.44C231.989 348.44 230.309 350.022 230.309 352.262C230.309 354.502 231.989 356.098 234.285 356.098ZM234.285 354.6C233.025 354.6 232.073 353.69 232.073 352.262C232.073 350.834 233.025 349.924 234.285 349.924C235.559 349.924 236.511 350.834 236.511 352.262C236.511 353.69 235.559 354.6 234.285 354.6ZM245.422 352.108C246.136 351.8 246.57 351.226 246.57 350.456C246.57 349.224 245.478 348.524 243.658 348.524H240.004V356H243.812C245.828 356 246.808 355.216 246.808 353.9C246.808 352.99 246.346 352.388 245.422 352.108ZM241.67 349.798H243.504C244.4 349.798 244.862 350.092 244.862 350.708C244.862 351.324 244.4 351.646 243.504 351.646H241.67V349.798ZM243.672 354.726H241.67V352.808H243.728C244.68 352.808 245.114 353.13 245.114 353.788C245.114 354.432 244.61 354.726 243.672 354.726ZM251.458 348.44C250.254 348.44 249.092 348.748 248.294 349.364L248.98 350.638C249.54 350.176 250.408 349.896 251.248 349.896C252.494 349.896 253.11 350.498 253.11 351.52V351.632H251.178C248.91 351.632 248.07 352.612 248.07 353.858C248.07 355.16 249.148 356.098 250.856 356.098C251.976 356.098 252.788 355.734 253.208 355.09V356H254.86V351.618C254.86 349.462 253.614 348.44 251.458 348.44ZM251.22 354.824C250.324 354.824 249.792 354.418 249.792 353.788C249.792 353.242 250.114 352.794 251.304 352.794H253.11V353.662C252.816 354.432 252.074 354.824 251.22 354.824ZM257.026 356H258.776V353.046H262.542V356H264.292V348.524H262.542V351.562H258.776V348.524H257.026V356ZM266.637 356H268.247L272.363 351.072V356H274.113V348.524H272.517L268.387 353.452V348.524H266.637V356ZM279.351 348.524C277.265 348.524 275.935 349.462 275.935 351.212C275.935 352.36 276.537 353.144 277.601 353.508L275.837 356H277.713L279.239 353.746H281.213V356H282.781V348.524H279.351ZM279.407 349.994H281.213V352.528H279.351C278.273 352.528 277.713 352.136 277.713 351.268C277.713 350.372 278.329 349.994 279.407 349.994ZM294.067 356L294.053 348.524H292.415L289.629 353.2L286.969 348.524H285.135V356H286.731V351.03L289.209 355.216H289.965L292.485 351.044V356H294.067ZM296.946 356.098C297.576 356.098 298.094 355.608 298.094 354.936C298.094 354.236 297.576 353.774 296.946 353.774C296.316 353.774 295.798 354.236 295.798 354.936C295.798 355.608 296.316 356.098 296.946 356.098Z" fill="black"/>
<path d="M252 5C252 26.7477 243.361 47.6048 227.983 62.9828C212.605 78.3607 191.748 87 170 87C148.252 87 127.395 78.3607 112.017 62.9828C96.6393 47.6048 88 26.7478 88 5.00002L170 5H252Z" fill="white"/>
<path d="M48.032 423.216C48.032 414.96 35.328 417.52 35.328 414.096C35.328 412.976 36.288 412.08 38.944 412.08C40.896 412.08 43.008 412.656 45.152 413.808L47.104 409.104C45.312 408.048 42.976 407.408 40.608 407.216V403.76H36.768V407.28C31.584 407.92 29.056 410.896 29.056 414.416C29.056 422.736 41.792 420.144 41.792 423.696C41.792 424.784 40.768 425.52 38.144 425.52C35.552 425.52 32.736 424.624 30.752 423.312L28.672 427.984C30.528 429.264 33.568 430.192 36.768 430.416V433.84H40.608V430.288C45.6 429.552 48.032 426.608 48.032 423.216Z" fill="#00BCBC"/>
<path d="M61.58 417.26H60.44L60.66 414.6H66.5V412H57.96L57.24 419.88H60.82C63.36 419.88 64.08 420.6 64.08 421.7C64.08 422.84 63.08 423.52 61.46 423.52C60 423.52 58.54 423.06 57.48 422.26L56.2 424.74C57.56 425.7 59.6 426.24 61.54 426.24C65.54 426.24 67.36 424.08 67.36 421.6C67.36 419.12 65.72 417.26 61.58 417.26ZM74.6745 426.24C78.1345 426.24 80.6745 423.62 80.6745 419C80.6745 414.38 78.1345 411.76 74.6745 411.76C71.2345 411.76 68.6745 414.38 68.6745 419C68.6745 423.62 71.2345 426.24 74.6745 426.24ZM74.6745 423.5C73.0745 423.5 71.9545 422.18 71.9545 419C71.9545 415.82 73.0745 414.5 74.6745 414.5C76.2945 414.5 77.4145 415.82 77.4145 419C77.4145 422.18 76.2945 423.5 74.6745 423.5ZM93.9128 426.24C97.3728 426.24 99.9128 423.62 99.9128 419C99.9128 414.38 97.3728 411.76 93.9128 411.76C90.4728 411.76 87.9128 414.38 87.9128 419C87.9128 423.62 90.4728 426.24 93.9128 426.24ZM93.9128 423.5C92.3128 423.5 91.1928 422.18 91.1928 419C91.1928 415.82 92.3128 414.5 93.9128 414.5C95.5328 414.5 96.6528 415.82 96.6528 419C96.6528 422.18 95.5328 423.5 93.9128 423.5ZM107.487 426.24C110.947 426.24 113.487 423.62 113.487 419C113.487 414.38 110.947 411.76 107.487 411.76C104.047 411.76 101.487 414.38 101.487 419C101.487 423.62 104.047 426.24 107.487 426.24ZM107.487 423.5C105.887 423.5 104.767 422.18 104.767 419C104.767 415.82 105.887 414.5 107.487 414.5C109.107 414.5 110.227 415.82 110.227 419C110.227 422.18 109.107 423.5 107.487 423.5ZM121.061 426.24C124.521 426.24 127.061 423.62 127.061 419C127.061 414.38 124.521 411.76 121.061 411.76C117.621 411.76 115.061 414.38 115.061 419C115.061 423.62 117.621 426.24 121.061 426.24ZM121.061 423.5C119.461 423.5 118.341 422.18 118.341 419C118.341 415.82 119.461 414.5 121.061 414.5C122.681 414.5 123.801 415.82 123.801 419C123.801 422.18 122.681 423.5 121.061 423.5Z" fill="black"/>
<path d="M248.6 420.42H246.32V417.8H243.26V420.42H239.5L245.62 412H242.22L235.62 420.88V423.06H243.16V426H246.32V423.06H248.6V420.42ZM255.569 426.24C259.029 426.24 261.569 423.62 261.569 419C261.569 414.38 259.029 411.76 255.569 411.76C252.129 411.76 249.569 414.38 249.569 419C249.569 423.62 252.129 426.24 255.569 426.24ZM255.569 423.5C253.969 423.5 252.849 422.18 252.849 419C252.849 415.82 253.969 414.5 255.569 414.5C257.189 414.5 258.309 415.82 258.309 419C258.309 422.18 257.189 423.5 255.569 423.5ZM282.847 426L282.807 415.24H279.887L276.227 421.46L272.787 415.24H269.527V426H272.347V419.54L275.487 424.96H276.807L280.027 419.56V426H282.847ZM285.836 426H288.716L293.936 419.6V426H297.036V415.24H294.176L288.936 421.64V415.24H285.836V426ZM300.035 426H303.135V421.98H307.815V426H310.935V415.24H307.815V419.44H303.135V415.24H300.035V426Z" fill="black"/>
<path d="M216.5 406C209.595 406 204 411.595 204 418.5C204 425.405 209.595 431 216.5 431C223.405 431 229 425.405 229 418.5C229 411.595 223.405 406 216.5 406Z" fill="#00BCBC"/>
<path fill-rule="evenodd" clip-rule="evenodd" d="M215.961 410C214.878 410 214 410.878 214 411.961V419.153C214 419.311 214.019 419.464 214.054 419.611C214.047 420.263 214.376 420.901 214.974 421.262L220.414 424.535C221.313 425.077 222.481 424.786 223.022 423.887C223.563 422.988 223.273 421.82 222.374 421.279L217.923 418.6V411.961C217.923 410.878 217.045 410 215.961 410Z" fill="white"/>
<g filter="url(#filter0_d)">
<path d="M162.531 400.393L185.975 433.213C179.766 434.57 168.698 428.331 168.698 428.331C168.698 428.331 160.834 438.706 154.912 440L162.531 400.393Z" fill="white"/>
<path fill-rule="evenodd" clip-rule="evenodd" d="M154.912 440L158.469 421.51C161.522 424.284 164.956 426.604 168.698 428.331C168.698 428.331 160.834 438.706 154.912 440Z" fill="#BBFFF9"/>
</g>
<path d="M137.746 25.4V34.274H145.286V66H156.77V25.4H137.746ZM195.008 44.598C197.734 42.684 199.358 39.9 199.358 36.42C199.358 29.228 192.746 24.588 183.176 24.588C173.606 24.588 166.994 29.228 166.994 36.42C166.994 39.9 168.618 42.684 171.344 44.598C167.69 46.686 165.544 49.876 165.544 54.052C165.544 61.824 172.678 66.812 183.176 66.812C193.674 66.812 200.808 61.824 200.808 54.052C200.808 49.876 198.662 46.686 195.008 44.598ZM183.176 32.65C186.018 32.65 188.048 34.216 188.048 36.942C188.048 39.61 186.076 41.176 183.176 41.176C180.276 41.176 178.362 39.61 178.362 36.942C178.362 34.216 180.334 32.65 183.176 32.65ZM183.176 58.75C179.522 58.75 177.086 56.836 177.086 53.704C177.086 50.572 179.522 48.658 183.176 48.658C186.83 48.658 189.266 50.572 189.266 53.704C189.266 56.836 186.83 58.75 183.176 58.75Z" fill="#46BBCE"/>
<g filter="url(#filter1_di)">
<path d="M151.858 207.587C161.164 207.587 168.717 200.012 168.717 190.678V173.769H151.858C142.553 173.769 135 181.344 135 190.678C135 200.012 142.553 207.587 151.858 207.587Z" fill="white"/>
<path d="M135 155.293C135 145.96 142.553 138.385 151.858 138.385H168.717V172.202H151.858C142.553 172.202 135 164.627 135 155.293Z" fill="white"/>
<path d="M135 119.909C135 110.575 142.553 103 151.859 103H168.717V136.818H151.859C142.553 136.818 135 129.243 135 119.909Z" fill="white"/>
<path d="M170.283 103H187.141C196.447 103 204 110.575 204 119.909C204 129.243 196.447 136.818 187.141 136.818H170.283V103Z" fill="white"/>
<path d="M204 155.293C204 164.627 196.447 172.202 187.141 172.202C177.836 172.202 170.283 164.627 170.283 155.293C170.283 145.96 177.836 138.385 187.141 138.385C196.447 138.385 204 145.96 204 155.293Z" fill="white"/>
</g>
<defs>
<filter id="filter0_d" x="150.912" y="396.393" width="45.0628" height="53.6066" filterUnits="userSpaceOnUse" color-interpolation-filters="sRGB">
<feFlood flood-opacity="0" result="BackgroundImageFix"/>
<feColorMatrix in="SourceAlpha" type="matrix" values="0 0 0 0 0 0 0 0 0 0 0 0 0 0 0 0 0 0 127 0"/>
<feOffset dx="3" dy="3"/>
<feGaussianBlur stdDeviation="3.5"/>
<feColorMatrix type="matrix" values="0 0 0 0 0.279 0 0 0 0 0.9 0 0 0 0 0.840225 0 0 0 1 0"/>
<feBlend mode="normal" in2="BackgroundImageFix" result="effect1_dropShadow"/>
<feBlend mode="normal" in="SourceGraphic" in2="effect1_dropShadow" result="shape"/>
</filter>
<filter id="filter1_di" x="129" y="97" width="88.9998" height="124.587" filterUnits="userSpaceOnUse" color-interpolation-filters="sRGB">
<feFlood flood-opacity="0" result="BackgroundImageFix"/>
<feColorMatrix in="SourceAlpha" type="matrix" values="0 0 0 0 0 0 0 0 0 0 0 0 0 0 0 0 0 0 127 0"/>
<feOffset dx="4" dy="4"/>
<feGaussianBlur stdDeviation="5"/>
<feColorMatrix type="matrix" values="0 0 0 0 0.1715 0 0 0 0 0.816667 0 0 0 0 0.816667 0 0 0 1 0"/>
<feBlend mode="normal" in2="BackgroundImageFix" result="effect1_dropShadow"/>
<feBlend mode="normal" in="SourceGraphic" in2="effect1_dropShadow" result="shape"/>
<feColorMatrix in="SourceAlpha" type="matrix" values="0 0 0 0 0 0 0 0 0 0 0 0 0 0 0 0 0 0 127 0" result="hardAlpha"/>
<feOffset dx="-4" dy="-4"/>
<feGaussianBlur stdDeviation="4.5"/>
<feComposite in2="hardAlpha" operator="arithmetic" k2="-1" k3="1"/>
<feColorMatrix type="matrix" values="0 0 0 0 0.441945 0 0 0 0 0.887146 0 0 0 0 0.895833 0 0 0 0.52 0"/>
<feBlend mode="normal" in2="shape" result="effect2_innerShadow"/>
</filter>
<linearGradient id="paint0_linear" x1="5.5" y1="-157" x2="289.5" y2="495.5" gradientUnits="userSpaceOnUse">
<stop stop-color="#00C2FF"/>
<stop offset="1" stop-color="#1EE7CF"/>
</linearGradient>
<linearGradient id="paint1_linear" x1="49" y1="11" x2="301.5" y2="474" gradientUnits="userSpaceOnUse">
<stop stop-color="#19D2EB"/>
<stop offset="1" stop-color="#55F5DF"/>
</linearGradient>
<linearGradient id="paint2_linear" x1="59.5" y1="-9" x2="291.5" y2="495.5" gradientUnits="userSpaceOnUse">
<stop stop-color="#00E0FF"/>
<stop offset="1" stop-color="#42F2D1"/>
</linearGradient>
<linearGradient id="paint3_linear" x1="51" y1="11" x2="303.5" y2="474" gradientUnits="userSpaceOnUse">
<stop stop-color="#B2F6FF"/>
<stop offset="1" stop-color="#28D7BE"/>
</linearGradient>
<linearGradient id="paint4_linear" x1="27" y1="473.49" x2="247.084" y2="60.8524" gradientUnits="userSpaceOnUse">
<stop stop-color="#73F5FF"/>
<stop offset="0.99" stop-color="#7AFFEC"/>
</linearGradient>
<linearGradient id="paint5_linear" x1="129.774" y1="288" x2="310" y2="288" gradientUnits="userSpaceOnUse">
<stop stop-color="white"/>
<stop offset="0.99" stop-color="white" stop-opacity="0.4"/>
</linearGradient>
<linearGradient id="paint6_linear" x1="59.8997" y1="86" x2="140" y2="86" gradientUnits="userSpaceOnUse">
<stop stop-color="white"/>
<stop offset="0.99" stop-color="white" stop-opacity="0.4"/>
</linearGradient>
</defs>
</svg>
