<svg width="338" height="474" viewBox="0 0 338 474" fill="none" xmlns="http://www.w3.org/2000/svg">
<rect x="2.5" y="2.5" width="331" height="469" rx="32.5" fill="url(#paint0_linear)" stroke="url(#paint1_linear)" stroke-width="5"/>
<mask id="mask0" mask-type="alpha" maskUnits="userSpaceOnUse" x="2" y="0" width="336" height="474">
<rect x="4.5" y="2.5" width="331" height="469" rx="41.5" fill="url(#paint2_linear)" stroke="url(#paint3_linear)" stroke-width="5"/>
</mask>
<g mask="url(#mask0)">
<path d="M198.89 5.0093C198.89 5.0093 97.8208 47.0947 93.9888 101.845C90.1568 156.595 112.775 152.615 106.069 185.086C99.3632 217.557 -10.9124 255.616 18.7856 356.766C48.4837 457.916 142.368 370.584 242 469H35C18.4315 469 5 455.569 5 439V35.0014C5 18.4323 18.4323 5.00064 35.0014 5.00144L198.89 5.0093Z" fill="url(#paint4_linear)" fill-opacity="0.5"/>
</g>
<path opacity="0.46" d="M219.887 378C202.092 377.978 184.702 372.68 169.917 362.777C155.131 352.875 143.613 338.811 136.819 322.363C130.024 305.916 128.258 287.824 131.743 270.373C135.229 252.922 143.809 236.896 156.4 224.321C168.992 211.745 185.028 203.185 202.483 199.721C219.939 196.258 238.029 198.046 254.468 204.862C270.906 211.677 284.956 223.212 294.84 238.01C304.724 252.808 310 270.204 310 288C309.958 311.876 300.447 334.761 283.553 351.633C266.66 368.506 243.763 377.988 219.887 378ZM219.887 222.747C206.985 222.764 194.378 226.607 183.659 233.788C172.94 240.969 164.59 251.166 159.665 263.091C154.74 275.016 153.461 288.134 155.989 300.786C158.517 313.438 164.739 325.056 173.868 334.173C182.998 343.29 194.625 349.496 207.28 352.006C219.936 354.517 233.051 353.219 244.97 348.278C256.888 343.336 267.074 334.972 274.24 324.243C281.406 313.515 285.231 300.902 285.231 288C285.177 270.703 278.27 254.132 266.022 241.918C253.774 229.704 237.184 222.843 219.887 222.837V222.747Z" fill="url(#paint5_linear)"/>
<path opacity="0.46" d="M99.9498 126C92.0407 125.99 84.3121 123.636 77.7407 119.234C71.1694 114.833 66.0503 108.583 63.0305 101.273C60.0106 93.9627 59.2257 85.9216 60.7747 78.1657C62.3238 70.4097 66.1374 63.2871 71.7335 57.698C77.3296 52.1089 84.457 48.3043 92.2148 46.7649C99.9727 45.2256 108.013 46.0207 115.319 49.0496C122.625 52.0786 128.869 57.2055 133.262 63.7824C137.655 70.3593 140 78.0909 140 86C139.981 96.6116 135.754 106.783 128.246 114.281C120.738 121.78 110.561 125.995 99.9498 126ZM99.9498 56.9985C94.2156 57.0064 88.6124 58.7141 83.8484 61.9056C79.0844 65.0972 75.3735 69.6294 73.1846 74.9294C70.9957 80.2294 70.4271 86.0594 71.5506 91.6825C72.6742 97.3056 75.4395 102.469 79.497 106.521C83.5545 110.573 88.7222 113.331 94.3468 114.447C99.9715 115.563 105.801 114.986 111.098 112.79C116.395 110.594 120.922 106.877 124.107 102.108C127.292 97.3398 128.991 91.7342 128.991 86C128.968 78.3124 125.898 70.9477 120.454 65.5193C115.011 60.0908 107.637 57.0412 99.9498 57.0386V56.9985Z" fill="url(#paint6_linear)"/>
<path d="M97.2489 228.2L93.1929 236.312L89.2809 228.2H84.2649L90.7929 240.296C90.1689 241.208 89.4969 241.592 88.5609 241.592C88.0569 241.592 87.5289 241.496 86.8809 241.304L85.7529 244.808C86.7849 245.216 87.7689 245.432 88.7289 245.432C91.2489 245.432 93.4329 243.992 94.9209 241.184L101.881 228.2H97.2489Z" fill="black"/>
<path d="M111.355 245.336C114.451 245.336 116.947 244.208 118.579 242.168L115.555 239.432C114.499 240.704 113.203 241.4 111.595 241.4C108.835 241.4 106.915 239.48 106.915 236.6C106.915 233.72 108.835 231.8 111.595 231.8C113.203 231.8 114.499 232.496 115.555 233.768L118.579 231.032C116.947 228.992 114.451 227.864 111.355 227.864C106.027 227.864 102.115 231.488 102.115 236.6C102.115 241.712 106.027 245.336 111.355 245.336Z" fill="black"/>
<path d="M134.121 228.2H119.145V231.968H124.305V245H128.985V231.968H134.121V228.2Z" fill="black"/>
<path d="M148.38 245H153.324L145.884 228.2H141.204L133.788 245H138.636L139.956 241.736H147.06L148.38 245ZM141.348 238.232L143.508 232.856L145.668 238.232H141.348Z" fill="black"/>
<path d="M166.481 228.2V234.512H160.001V228.2H155.249V245H160.001V238.448H166.481V245H171.233V228.2H166.481Z" fill="black"/>
<path d="M183.099 245.336C188.475 245.336 192.435 241.64 192.435 236.6C192.435 231.56 188.475 227.864 183.099 227.864C177.723 227.864 173.763 231.56 173.763 236.6C173.763 241.64 177.723 245.336 183.099 245.336ZM183.099 241.4C180.555 241.4 178.563 239.504 178.563 236.6C178.563 233.696 180.555 231.8 183.099 231.8C185.643 231.8 187.635 233.696 187.635 236.6C187.635 239.504 185.643 241.4 183.099 241.4Z" fill="black"/>
<path d="M207.216 236.216C208.656 235.496 209.496 234.224 209.496 232.568C209.496 229.784 207.144 228.2 203.136 228.2H194.976V245H203.592C207.912 245 210.264 243.152 210.264 240.2C210.264 238.184 209.16 236.84 207.216 236.216ZM199.656 231.608H202.68C204.024 231.608 204.696 232.184 204.696 233.264C204.696 234.368 204.024 234.92 202.68 234.92H199.656V231.608ZM203.4 241.592H199.656V238.136H203.4C204.768 238.136 205.464 238.688 205.464 239.84C205.464 240.992 204.768 241.592 203.4 241.592Z" fill="black"/>
<path d="M212.835 245H217.323L224.235 235.16V245H228.915V228.2H224.451L217.515 238.064V228.2H212.835V245Z" fill="black"/>
<path d="M246.058 228.2H231.082V231.968H236.242V245H240.922V231.968H246.058V228.2Z" fill="black"/>
<path d="M256.817 233.552H252.929V228.2H248.249V245H256.193C260.561 245 263.273 242.96 263.273 239.024C263.273 235.352 260.897 233.552 256.817 233.552ZM255.881 241.592H252.929V236.936H255.881C257.489 236.936 258.497 237.536 258.497 239.12C258.497 240.704 257.465 241.592 255.881 241.592Z" fill="black"/>
<path d="M46.5756 269.232V256.2H33.0396L32.8476 261.384C32.6796 265.872 32.1276 269.184 29.9916 269.232H29.3916V276.384H33.7596V273H44.5116V276.384H48.8556V269.232H46.5756ZM36.9996 261.792L37.0716 259.968H41.8956V269.232H35.5356C36.5196 267.816 36.8796 265.08 36.9996 261.792Z" fill="black"/>
<path d="M59.3839 273.336C64.7599 273.336 68.7199 269.64 68.7199 264.6C68.7199 259.56 64.7599 255.864 59.3839 255.864C54.0079 255.864 50.0479 259.56 50.0479 264.6C50.0479 269.64 54.0079 273.336 59.3839 273.336ZM59.3839 269.4C56.8399 269.4 54.8479 267.504 54.8479 264.6C54.8479 261.696 56.8399 259.8 59.3839 259.8C61.9279 259.8 63.9199 261.696 63.9199 264.6C63.9199 267.504 61.9279 269.4 59.3839 269.4Z" fill="black"/>
<path d="M79.4447 273.336C82.5407 273.336 85.0367 272.208 86.6687 270.168L83.6447 267.432C82.5887 268.704 81.2927 269.4 79.6847 269.4C76.9247 269.4 75.0047 267.48 75.0047 264.6C75.0047 261.72 76.9247 259.8 79.6847 259.8C81.2927 259.8 82.5887 260.496 83.6447 261.768L86.6687 259.032C85.0367 256.992 82.5407 255.864 79.4447 255.864C74.1167 255.864 70.2047 259.488 70.2047 264.6C70.2047 269.712 74.1167 273.336 79.4447 273.336Z" fill="black"/>
<path d="M102.211 256.2H87.2348V259.968H92.3948V273H97.0748V259.968H102.211V256.2Z" fill="black"/>
<path d="M115.003 256.2L110.947 264.312L107.035 256.2H102.019L108.547 268.296C107.923 269.208 107.251 269.592 106.315 269.592C105.811 269.592 105.283 269.496 104.635 269.304L103.507 272.808C104.539 273.216 105.523 273.432 106.483 273.432C109.003 273.432 111.187 271.992 112.675 269.184L119.635 256.2H115.003Z" fill="black"/>
<path d="M121.159 256.2V273H125.839V259.968H132.223V273H136.927V256.2H121.159Z" fill="black"/>
<path d="M147.503 256.2V273H152.183V259.968H158.567V273H163.271V256.2H147.503Z" fill="black"/>
<path d="M175.118 273.336C180.494 273.336 184.454 269.64 184.454 264.6C184.454 259.56 180.494 255.864 175.118 255.864C169.742 255.864 165.782 259.56 165.782 264.6C165.782 269.64 169.742 273.336 175.118 273.336ZM175.118 269.4C172.574 269.4 170.582 267.504 170.582 264.6C170.582 261.696 172.574 259.8 175.118 259.8C177.662 259.8 179.654 261.696 179.654 264.6C179.654 267.504 177.662 269.4 175.118 269.4Z" fill="black"/>
<path d="M202.163 273.336C205.259 273.336 207.755 272.208 209.387 270.168L206.363 267.432C205.307 268.704 204.011 269.4 202.403 269.4C199.643 269.4 197.723 267.48 197.723 264.6C197.723 261.72 199.643 259.8 202.403 259.8C204.011 259.8 205.307 260.496 206.363 261.768L209.387 259.032C207.755 256.992 205.259 255.864 202.163 255.864C196.835 255.864 192.923 259.488 192.923 264.6C192.923 269.712 196.835 273.336 202.163 273.336Z" fill="black"/>
<path d="M219.367 273.336C222.463 273.336 224.959 272.208 226.591 270.168L223.567 267.432C222.511 268.704 221.215 269.4 219.607 269.4C216.847 269.4 214.927 267.48 214.927 264.6C214.927 261.72 216.847 259.8 219.607 259.8C221.215 259.8 222.511 260.496 223.567 261.768L226.591 259.032C224.959 256.992 222.463 255.864 219.367 255.864C214.039 255.864 210.127 259.488 210.127 264.6C210.127 269.712 214.039 273.336 219.367 273.336Z" fill="black"/>
<path d="M237.305 261.552H233.417V256.2H228.737V273H236.681C241.049 273 243.761 270.96 243.761 267.024C243.761 263.352 241.385 261.552 237.305 261.552ZM245.609 273H250.289V256.2H245.609V273ZM236.369 269.592H233.417V264.936H236.369C237.977 264.936 238.985 265.536 238.985 267.12C238.985 268.704 237.953 269.592 236.369 269.592Z" fill="black"/>
<path d="M255.998 256.2L255.758 262.896C255.614 266.688 255.254 269.184 253.31 269.184C253.094 269.184 252.878 269.16 252.662 269.112L252.398 273C253.19 273.192 253.91 273.288 254.558 273.288C258.83 273.288 259.718 269.256 259.934 262.704L260.03 259.968H264.854V273H269.534V256.2H255.998Z" fill="black"/>
<path d="M283.736 273H289.088L283.784 264.312L289.04 256.2H284.048L280.04 262.728H277.76V256.2H273.032V273H277.76V266.568H279.92L283.736 273Z" fill="black"/>
<path d="M295.316 269.328V266.256H302.78V262.704H295.316V259.872H303.788V256.2H290.612V273H304.1V269.328H295.316Z" fill="black"/>
<path fill-rule="evenodd" clip-rule="evenodd" d="M93.2649 225.179C94.1994 223.946 95.6675 223.2 97.2489 223.2H101.881C103.005 223.2 104.076 223.577 104.938 224.244C106.873 223.35 109.055 222.864 111.355 222.864C113.25 222.864 115.081 223.172 116.77 223.799C117.477 223.417 118.285 223.2 119.145 223.2H134.121C135.505 223.2 136.757 223.762 137.662 224.67C138.584 223.746 139.85 223.2 141.204 223.2H145.884C147.862 223.2 149.654 224.366 150.456 226.175L150.57 226.434C151.284 224.544 153.109 223.2 155.249 223.2H160.001C161.237 223.2 162.368 223.649 163.241 224.392C164.114 223.649 165.245 223.2 166.481 223.2H171.233C172.809 223.2 174.215 223.929 175.132 225.069C177.422 223.654 180.169 222.864 183.099 222.864C186.031 222.864 188.782 223.656 191.073 225.074C191.99 223.931 193.397 223.2 194.976 223.2H203.136C205.253 223.2 207.483 223.535 209.453 224.517C210.343 223.699 211.531 223.2 212.835 223.2H217.515C218.862 223.2 220.084 223.732 220.983 224.598C221.906 223.71 223.146 223.2 224.451 223.2H228.915C229.287 223.2 229.65 223.241 229.999 223.318C230.348 223.241 230.71 223.2 231.082 223.2H246.058C246.435 223.2 246.801 223.242 247.154 223.32C247.506 223.242 247.873 223.2 248.249 223.2H252.929C255.69 223.2 257.929 225.439 257.929 228.2V228.587C260.283 228.735 262.739 229.392 264.753 231.051C267.254 233.11 268.273 236.04 268.273 239.024C268.273 242.233 267.108 245.253 264.538 247.357C262.121 249.336 259.073 250 256.193 250H248.249C246.802 250 245.499 249.385 244.586 248.403C243.673 249.385 242.369 250 240.922 250H236.242C234.795 250 233.492 249.385 232.579 248.403C231.666 249.385 230.362 250 228.915 250H224.235C222.894 250 221.677 249.472 220.779 248.613C219.857 249.495 218.623 250 217.323 250H212.835C211.613 250 210.493 249.561 209.624 248.833C207.746 249.681 205.649 250 203.592 250H194.976C193.397 250 191.99 249.269 191.073 248.126C188.782 249.544 186.031 250.336 183.099 250.336C180.169 250.336 177.422 249.546 175.132 248.131C174.215 249.271 172.809 250 171.233 250H166.481C165.245 250 164.114 249.552 163.241 248.808C162.368 249.552 161.237 250 160.001 250H155.249C154.919 250 154.596 249.968 154.284 249.907C153.971 249.968 153.649 250 153.324 250H148.38C146.342 250 144.508 248.764 143.744 246.875L143.688 246.736H143.327L143.271 246.875C142.507 248.764 140.673 250 138.636 250H133.788C132.936 250 132.112 249.783 131.387 249.386C130.674 249.777 129.856 250 128.985 250H124.305C122.51 250 120.936 249.054 120.054 247.633C117.593 249.451 114.565 250.336 111.355 250.336C106.204 250.336 101.641 247.9 99.1387 243.892C96.9674 247.747 93.3616 250.432 88.7289 250.432C87.0062 250.432 85.3936 250.043 83.9146 249.458C81.4639 248.489 80.1859 245.784 80.9934 243.276L82.1214 239.772C82.4131 238.866 82.9396 238.099 83.6126 237.519L79.8648 230.575C79.0286 229.025 79.0689 227.15 79.9711 225.638C80.8732 224.126 82.5042 223.2 84.2649 223.2H89.2809C90.8636 223.2 92.3312 223.947 93.2649 225.179ZM87.1122 241.37C87.0367 241.349 86.9597 241.327 86.8809 241.304L85.7529 244.808C85.7797 244.819 85.8066 244.829 85.8333 244.839C86.2376 244.996 86.6346 245.122 87.0258 245.218C87.5467 245.345 88.0573 245.417 88.5609 245.43C88.617 245.431 88.673 245.432 88.7289 245.432C89.4986 245.432 90.237 245.298 90.9338 245.031C92.1165 244.578 93.1793 243.745 94.0721 242.54C94.3753 242.13 94.6589 241.678 94.9209 241.184L101.881 228.2H97.2489L93.1929 236.312L89.2809 228.2H84.2649L90.7929 240.296C90.7242 240.396 90.655 240.49 90.5849 240.578C90.0566 241.239 89.479 241.549 88.7289 241.588C88.6738 241.591 88.6178 241.592 88.5609 241.592C88.5068 241.592 88.4524 241.591 88.3976 241.589C88.0042 241.573 87.5904 241.5 87.1122 241.37ZM124.305 245H128.985V231.968H134.121V228.2H119.145V231.968H124.305V245ZM115.555 233.768L118.579 231.032C118.372 230.773 118.151 230.53 117.917 230.301C116.917 229.323 115.672 228.62 114.226 228.228C114.199 228.221 114.172 228.213 114.145 228.206C113.352 227.999 112.5 227.884 111.595 227.866C111.515 227.865 111.435 227.864 111.355 227.864C109.684 227.864 108.152 228.221 106.836 228.868C106.225 229.169 105.66 229.532 105.15 229.952C103.258 231.508 102.115 233.837 102.115 236.6C102.115 237.124 102.156 237.632 102.235 238.122C102.931 242.416 106.573 245.336 111.355 245.336C111.435 245.336 111.515 245.335 111.595 245.334C112.531 245.316 113.41 245.193 114.226 244.972C115.672 244.58 116.917 243.878 117.917 242.899C118.151 242.67 118.372 242.427 118.579 242.168L115.555 239.432C115.502 239.496 115.448 239.559 115.394 239.62C115.315 239.708 115.234 239.794 115.153 239.876C114.174 240.865 113.004 241.4 111.595 241.4C111.514 241.4 111.434 241.398 111.355 241.395C108.724 241.287 106.915 239.396 106.915 236.6C106.915 233.804 108.724 231.913 111.355 231.805C111.434 231.802 111.514 231.8 111.595 231.8C112.563 231.8 113.418 232.052 114.176 232.531C114.522 232.749 114.847 233.014 115.153 233.324C115.234 233.406 115.315 233.492 115.394 233.58C115.448 233.641 115.502 233.704 115.555 233.768ZM153.324 245L145.884 228.2H141.204L133.788 245H138.636L139.956 241.736H147.06L148.38 245H153.324ZM143.508 232.856L141.348 238.232H145.668L143.508 232.856ZM160.001 245V238.448H166.481V245H171.233V228.2H166.481V234.512H160.001V228.2H155.249V245H160.001ZM176.233 242.683C177.904 244.342 180.311 245.336 183.099 245.336C185.892 245.336 188.304 244.338 189.976 242.672C191.521 241.132 192.435 239.021 192.435 236.6C192.435 234.179 191.521 232.068 189.976 230.528C188.304 228.862 185.892 227.864 183.099 227.864C180.311 227.864 177.904 228.858 176.233 230.517C174.681 232.058 173.763 234.173 173.763 236.6C173.763 239.027 174.681 241.142 176.233 242.683ZM194.976 245H203.592C205.335 245 206.758 244.699 207.835 244.146C209.417 243.334 210.253 241.978 210.263 240.233C210.264 240.222 210.264 240.211 210.264 240.2C210.264 240.078 210.259 239.958 210.251 239.84C210.164 238.572 209.609 237.594 208.661 236.919C208.412 236.743 208.136 236.587 207.835 236.452C207.639 236.364 207.433 236.286 207.216 236.216C207.436 236.106 207.643 235.982 207.835 235.846C208.129 235.638 208.387 235.401 208.608 235.137C209.045 234.613 209.332 233.983 209.443 233.264C209.478 233.04 209.496 232.808 209.496 232.568C209.496 232.262 209.467 231.97 209.411 231.693C209.214 230.718 208.675 229.93 207.835 229.351C206.746 228.6 205.15 228.2 203.136 228.2H194.976V245ZM199.656 234.92H202.68C202.946 234.92 203.186 234.898 203.4 234.855C204.112 234.71 204.53 234.325 204.656 233.698C204.676 233.593 204.689 233.482 204.694 233.364C204.695 233.331 204.696 233.298 204.696 233.264C204.696 233.252 204.695 233.239 204.695 233.227C204.695 233.193 204.694 233.161 204.692 233.128C204.686 233.027 204.674 232.93 204.656 232.838C204.636 232.743 204.61 232.653 204.577 232.568C204.559 232.521 204.538 232.476 204.515 232.432C204.46 232.327 204.393 232.231 204.312 232.145C204.052 231.867 203.66 231.694 203.136 231.633C202.993 231.616 202.841 231.608 202.68 231.608H199.656V234.92ZM199.656 238.136V241.592H203.4C203.465 241.592 203.529 241.591 203.592 241.588C204.019 241.569 204.374 241.486 204.656 241.341C204.906 241.211 205.098 241.033 205.233 240.806C205.287 240.714 205.332 240.615 205.367 240.507C205.398 240.411 205.422 240.309 205.438 240.2C205.455 240.087 205.464 239.967 205.464 239.84C205.464 239.827 205.463 239.813 205.463 239.8C205.463 239.779 205.462 239.759 205.462 239.739C205.458 239.643 205.449 239.551 205.436 239.464C205.354 238.948 205.093 238.587 204.656 238.372C204.333 238.214 203.913 238.136 203.4 238.136H199.656ZM212.835 245H217.323L224.235 235.16V245H228.915V228.2H224.451L217.515 238.064V228.2H212.835V245ZM236.242 245H240.922V231.968H246.058V228.2H231.082V231.968H236.242V245ZM248.249 245H256.193C260.525 245 263.229 242.993 263.272 239.12C263.273 239.088 263.273 239.056 263.273 239.024C263.273 235.352 260.897 233.552 256.817 233.552H252.929V228.2H248.249V245ZM252.929 241.592H255.881C255.988 241.592 256.092 241.588 256.193 241.58C256.93 241.522 257.527 241.255 257.929 240.801C258.294 240.389 258.497 239.823 258.497 239.12C258.497 239.088 258.497 239.056 258.496 239.024C258.478 238.365 258.279 237.884 257.929 237.551C257.649 237.285 257.273 237.113 256.817 237.02C256.534 236.963 256.221 236.936 255.881 236.936H252.929V241.592ZM183.213 236.432C183.149 236.406 183.108 236.401 183.099 236.4C183.09 236.401 183.048 236.406 182.985 236.432C182.903 236.465 182.816 236.522 182.741 236.599C182.74 236.599 182.74 236.6 182.739 236.6C182.74 236.6 182.74 236.601 182.741 236.601C182.816 236.679 182.903 236.735 182.985 236.768C183.048 236.794 183.09 236.799 183.099 236.8C183.099 236.8 183.099 236.8 183.099 236.8M183.458 236.6C183.458 236.6 183.457 236.601 183.457 236.601C183.382 236.679 183.294 236.735 183.213 236.768C183.15 236.794 183.109 236.799 183.099 236.8M183.213 236.432C183.294 236.465 183.382 236.522 183.457 236.599ZM183.457 236.599C183.457 236.599 183.458 236.6 183.458 236.6ZM41.8956 259.968H37.0716L36.9996 261.792C36.9756 262.45 36.9419 263.086 36.8956 263.694C36.8817 263.876 36.8667 264.055 36.8505 264.232C36.7149 265.709 36.4941 266.997 36.1398 268C35.9706 268.479 35.7709 268.893 35.5356 269.232H41.8956V259.968ZM33.7596 273V276.384H29.3916V269.232H29.9916C30.186 269.228 30.3674 269.196 30.5365 269.139C30.5643 269.13 30.5919 269.12 30.6191 269.109C30.8627 269.013 31.0801 268.862 31.274 268.661C31.6614 268.259 31.9555 267.659 32.1796 266.9C32.5739 265.564 32.7511 263.738 32.8375 261.64C32.8377 261.636 32.8379 261.632 32.838 261.628C32.8414 261.547 32.8445 261.466 32.8476 261.384L33.0396 256.2H46.5756V269.232H48.8556V276.384H44.5116V273H33.7596ZM38.4927 278C37.8208 279.968 35.9555 281.384 33.7596 281.384H29.3916C26.6302 281.384 24.3916 279.145 24.3916 276.384V269.232C24.3916 267.111 25.7124 265.298 27.5764 264.572C27.6065 264.381 27.6359 264.165 27.6638 263.924C27.752 263.159 27.8116 262.252 27.851 261.199C27.851 261.199 27.8511 261.198 27.8511 261.198C27.8511 261.198 27.8511 261.198 27.8511 261.198L28.043 256.015C28.1426 253.327 30.3502 251.2 33.0396 251.2H46.5756C48.3376 251.2 49.8867 252.111 50.7773 253.489C53.1873 251.811 56.1765 250.864 59.3839 250.864C63.2668 250.864 66.8299 252.252 69.4327 254.644C72.0161 252.247 75.5636 250.864 79.4447 250.864C81.3397 250.864 83.1712 251.172 84.86 251.799C85.5665 251.417 86.3753 251.2 87.2348 251.2H107.035C108.618 251.2 110.085 251.947 111.019 253.179C111.953 251.946 113.421 251.2 115.003 251.2H119.635C119.892 251.2 120.146 251.22 120.395 251.258C120.644 251.22 120.899 251.2 121.159 251.2H136.927C139.689 251.2 141.927 253.439 141.927 256.2V273C141.927 275.761 139.689 278 136.927 278H132.223C131.01 278 129.897 277.568 129.031 276.849C128.165 277.568 127.053 278 125.839 278H121.159C118.421 278 116.196 275.798 116.16 273.068C113.951 276.282 110.628 278.432 106.483 278.432C104.76 278.432 103.147 278.043 101.668 277.458C101.203 277.274 100.779 277.027 100.404 276.73C99.5201 277.52 98.3535 278 97.0748 278H92.3948C90.5996 278 89.0255 277.054 88.1436 275.633C85.6829 277.451 82.6549 278.336 79.4447 278.336C75.5636 278.336 72.0161 276.953 69.4327 274.557C66.8299 276.948 63.2668 278.336 59.3839 278.336C57.4014 278.336 55.5022 277.974 53.7716 277.302C53.3407 279.625 51.3036 281.384 48.8556 281.384H44.5116C42.3157 281.384 40.4504 279.968 39.7785 278H38.4927ZM50.0505 264.376C50.0488 264.45 50.0479 264.525 50.0479 264.6C50.0479 266.335 50.5174 267.911 51.3525 269.232C51.9895 270.239 52.8392 271.098 53.8556 271.766C55.3766 272.765 57.2709 273.336 59.3839 273.336C62.2899 273.336 64.7821 272.256 66.4588 270.468C67.884 268.948 68.7199 266.916 68.7199 264.6C68.7199 262.284 67.884 260.252 66.4588 258.732C64.7821 256.944 62.2899 255.864 59.3839 255.864C56.0179 255.864 53.207 257.313 51.5756 259.634C50.6403 260.964 50.0927 262.581 50.0505 264.376ZM92.3948 273H97.0748V259.968H102.211V256.556L108.547 268.296C108.478 268.396 108.409 268.49 108.339 268.578C107.811 269.239 107.233 269.549 106.483 269.588C106.428 269.591 106.372 269.592 106.315 269.592C106.261 269.592 106.206 269.591 106.152 269.589C105.758 269.573 105.344 269.5 104.866 269.37C104.791 269.349 104.714 269.327 104.635 269.304L103.507 272.808C103.534 272.819 103.56 272.829 103.587 272.839C103.992 272.996 104.389 273.122 104.78 273.218C105.301 273.345 105.811 273.417 106.315 273.43C106.371 273.431 106.427 273.432 106.483 273.432C107.253 273.432 107.991 273.298 108.688 273.031C109.87 272.578 110.933 271.745 111.826 270.54C112.129 270.13 112.413 269.678 112.675 269.184L119.635 256.2H115.003L110.947 264.312L107.035 256.2H87.2348V259.968H92.3948V273ZM83.6447 261.768L86.6687 259.032C86.4619 258.773 86.2412 258.53 86.0071 258.301C85.0064 257.323 83.7619 256.62 82.3156 256.228C82.2887 256.221 82.2618 256.213 82.2348 256.206C81.4423 255.999 80.59 255.884 79.6847 255.866C79.6051 255.865 79.5251 255.864 79.4447 255.864C76.5606 255.864 74.0914 256.926 72.433 258.711C71.0278 260.224 70.2047 262.255 70.2047 264.6C70.2047 266.945 71.0278 268.977 72.433 270.489C74.0914 272.274 76.5606 273.336 79.4447 273.336C79.5251 273.336 79.6051 273.335 79.6847 273.334C80.6208 273.316 81.5002 273.193 82.3156 272.972C83.7619 272.58 85.0064 271.878 86.0071 270.899C86.2412 270.67 86.4619 270.427 86.6687 270.168L83.6447 267.432C83.5916 267.496 83.5378 267.559 83.4834 267.62C83.4044 267.708 83.3242 267.794 83.2426 267.876C82.2641 268.865 81.0943 269.4 79.6847 269.4C79.604 269.4 79.524 269.398 79.4447 269.395C76.8141 269.287 75.0047 267.396 75.0047 264.6C75.0047 261.804 76.8141 259.913 79.4447 259.805C79.524 259.802 79.604 259.8 79.6847 259.8C80.6531 259.8 81.5083 260.052 82.2661 260.531C82.6113 260.749 82.9363 261.014 83.2426 261.324C83.3242 261.406 83.4044 261.492 83.4834 261.58C83.5378 261.641 83.5916 261.704 83.6447 261.768ZM121.159 273H125.839V259.968H132.223V273H136.927V256.2H121.159V273ZM27.3158 265.681C27.3157 265.681 27.3185 265.674 27.3249 265.661C27.3191 265.675 27.316 265.681 27.3158 265.681ZM59.4978 264.432C59.4341 264.406 59.3928 264.401 59.3839 264.4C59.375 264.401 59.3337 264.406 59.27 264.432C59.1886 264.465 59.101 264.522 59.0258 264.599C59.0253 264.599 59.0249 264.6 59.0245 264.6C59.0249 264.6 59.0253 264.601 59.0258 264.601C59.101 264.679 59.1886 264.735 59.27 264.768C59.3337 264.794 59.3751 264.799 59.3839 264.8C59.3928 264.799 59.4341 264.794 59.4978 264.768C59.5792 264.735 59.6668 264.679 59.7421 264.601C59.7425 264.601 59.7429 264.6 59.7434 264.6C59.7429 264.6 59.7425 264.599 59.7421 264.599C59.6668 264.522 59.5792 264.465 59.4978 264.432ZM142.503 256.2C142.503 253.439 144.741 251.2 147.503 251.2H163.271C164.844 251.2 166.247 251.926 167.163 253.061C169.451 251.651 172.194 250.864 175.118 250.864C181.336 250.864 186.734 254.423 188.682 259.964C190.603 254.401 195.957 250.864 202.163 250.864C205.333 250.864 208.326 251.727 210.77 253.499C213.168 251.812 216.153 250.864 219.367 250.864C221.627 250.864 223.796 251.303 225.741 252.197C226.576 251.571 227.614 251.2 228.737 251.2H233.417C236.179 251.2 238.417 253.439 238.417 256.2V256.587C239.144 256.632 239.88 256.727 240.609 256.884V256.2C240.609 253.439 242.848 251.2 245.609 251.2H250.289C251.35 251.2 252.334 251.531 253.144 252.094C253.954 251.53 254.939 251.2 255.998 251.2H269.534C270.15 251.2 270.739 251.311 271.283 251.514C271.827 251.311 272.417 251.2 273.032 251.2H277.76C278.951 251.2 280.045 251.617 280.904 252.312C281.781 251.603 282.887 251.2 284.048 251.2H289.04C289.305 251.2 289.567 251.221 289.824 251.262C290.081 251.221 290.344 251.2 290.612 251.2H303.788C306.55 251.2 308.788 253.439 308.788 256.2V259.872C308.788 261.003 308.413 262.046 307.78 262.883V265.943C308.6 266.834 309.1 268.022 309.1 269.328V273C309.1 275.761 306.862 278 304.1 278H290.612C290.352 278 290.097 277.98 289.848 277.942C289.599 277.98 289.345 278 289.088 278H283.736C282.642 278 281.598 277.642 280.748 277.009C279.915 277.632 278.88 278 277.76 278H273.032C272.417 278 271.827 277.889 271.283 277.686C270.739 277.889 270.15 278 269.534 278H264.854C263.22 278 261.769 277.216 260.856 276.003C260.601 276.231 260.328 276.449 260.034 276.654C258.352 277.83 256.443 278.288 254.558 278.288C253.47 278.288 252.389 278.134 251.344 277.889C251.004 277.962 250.651 278 250.289 278H245.609C244.425 278 243.336 277.588 242.48 276.9C240.633 277.699 238.619 278 236.681 278H228.737C227.614 278 226.576 277.629 225.741 277.004C223.796 277.898 221.627 278.336 219.367 278.336C216.153 278.336 213.168 277.388 210.77 275.701C208.326 277.473 205.333 278.336 202.163 278.336C195.957 278.336 190.603 274.8 188.682 269.236C186.734 274.777 181.336 278.336 175.118 278.336C172.194 278.336 169.451 277.549 167.163 276.139C166.247 277.274 164.844 278 163.271 278H158.567C157.353 278 156.241 277.568 155.375 276.849C154.509 277.568 153.396 278 152.183 278H147.503C144.741 278 142.503 275.761 142.503 273V256.2ZM158.567 273H163.271V256.2H147.503V273H152.183V259.968H158.567V273ZM168.271 270.701C169.942 272.35 172.341 273.336 175.118 273.336C180.494 273.336 184.454 269.64 184.454 264.6C184.454 259.56 180.494 255.864 175.118 255.864C172.341 255.864 169.942 256.85 168.271 258.499C166.708 260.041 165.782 262.164 165.782 264.6C165.782 267.036 166.708 269.159 168.271 270.701ZM228.737 273H236.681C238.208 273 239.532 272.751 240.609 272.259C242.589 271.354 243.732 269.628 243.761 267.12C243.761 267.088 243.761 267.056 243.761 267.024C243.761 264.499 242.638 262.859 240.609 262.081C239.688 261.728 238.58 261.552 237.305 261.552H233.417V256.2H228.737V273ZM233.417 269.592H236.369C236.476 269.592 236.58 269.588 236.681 269.58C237.418 269.522 238.016 269.255 238.417 268.801C238.782 268.389 238.985 267.823 238.985 267.12C238.985 267.088 238.985 267.056 238.984 267.024C238.966 266.365 238.767 265.884 238.417 265.551C238.137 265.285 237.761 265.113 237.305 265.02C237.023 264.963 236.709 264.936 236.369 264.936H233.417V269.592ZM210.139 265.095C210.2 266.308 210.485 267.43 210.96 268.43C211.643 269.87 212.717 271.058 214.077 271.905C215.55 272.821 217.358 273.336 219.367 273.336C219.447 273.336 219.527 273.335 219.607 273.334C220.543 273.316 221.422 273.193 222.237 272.972C222.765 272.829 223.266 272.645 223.737 272.421C224.559 272.031 225.293 271.521 225.929 270.899C226.163 270.67 226.384 270.427 226.591 270.168L223.567 267.432C223.513 267.496 223.46 267.559 223.405 267.62C223.326 267.708 223.246 267.794 223.165 267.876C222.186 268.865 221.016 269.4 219.607 269.4C219.526 269.4 219.446 269.398 219.367 269.395C216.736 269.287 214.927 267.396 214.927 264.6C214.927 261.804 216.736 259.913 219.367 259.805C219.446 259.802 219.526 259.8 219.607 259.8C221.016 259.8 222.186 260.335 223.164 261.324C223.246 261.406 223.326 261.492 223.405 261.58C223.46 261.641 223.513 261.704 223.567 261.768L226.591 259.032C226.384 258.773 226.163 258.53 225.929 258.301C225.293 257.679 224.559 257.169 223.737 256.779C223.266 256.555 222.765 256.371 222.237 256.228C221.422 256.007 220.543 255.884 219.607 255.866C219.527 255.865 219.447 255.864 219.367 255.864C217.358 255.864 215.55 256.379 214.077 257.295C212.717 258.142 211.643 259.33 210.96 260.77C210.485 261.77 210.2 262.892 210.139 264.105C210.131 264.268 210.127 264.433 210.127 264.6C210.127 264.767 210.131 264.932 210.139 265.095ZM208.726 270.899C208.96 270.67 209.181 270.427 209.387 270.168L206.363 267.432C206.31 267.496 206.257 267.559 206.202 267.62C206.123 267.708 206.043 267.794 205.961 267.876C205.838 268.002 205.711 268.119 205.581 268.23C204.683 268.992 203.635 269.4 202.403 269.4C202.323 269.4 202.243 269.398 202.163 269.395C199.533 269.287 197.723 267.396 197.723 264.6C197.723 261.804 199.533 259.913 202.163 259.805C202.243 259.802 202.323 259.8 202.403 259.8C203.635 259.8 204.683 260.208 205.581 260.97C205.711 261.081 205.838 261.198 205.961 261.324C206.043 261.406 206.123 261.492 206.202 261.58C206.257 261.641 206.31 261.704 206.363 261.768L209.387 259.032C209.181 258.773 208.96 258.53 208.726 258.301C208.279 257.864 207.785 257.483 207.245 257.159C206.575 256.758 205.836 256.445 205.034 256.228C204.219 256.007 203.34 255.884 202.403 255.866C202.324 255.865 202.244 255.864 202.163 255.864C196.835 255.864 192.923 259.488 192.923 264.6C192.923 269.712 196.835 273.336 202.163 273.336C202.244 273.336 202.324 273.335 202.403 273.334C203.34 273.316 204.219 273.193 205.034 272.972C205.836 272.755 206.575 272.442 207.245 272.041C207.785 271.717 208.279 271.336 208.726 270.899ZM250.289 273V256.2H245.609V273H250.289ZM264.854 273H269.534V256.2H255.998L255.758 262.896C255.692 264.64 255.58 266.11 255.289 267.189C255.117 267.828 254.883 268.329 254.558 268.669C254.287 268.954 253.953 269.126 253.54 269.172C253.47 269.179 253.398 269.184 253.323 269.184C253.319 269.184 253.315 269.184 253.31 269.184C253.094 269.184 252.878 269.16 252.662 269.112L252.398 273C252.714 273.076 253.018 273.138 253.31 273.184C253.752 273.253 254.168 273.288 254.558 273.288C254.812 273.288 255.053 273.274 255.283 273.246C255.363 273.236 255.441 273.225 255.517 273.212C256.29 273.081 256.928 272.785 257.455 272.336C259.045 270.981 259.628 268.237 259.854 264.467C259.882 264.011 259.904 263.54 259.922 263.054C259.922 263.051 259.922 263.048 259.922 263.045C259.927 262.932 259.931 262.819 259.934 262.704L260.03 259.968H264.854V273ZM289.088 273L283.784 264.312L289.04 256.2H284.048L280.04 262.728H277.76V256.2H273.032V273H277.76V266.568H279.92L283.736 273H289.088ZM290.612 273H304.1V269.328H295.316V266.256H302.78V262.704H295.316V259.872H303.788V256.2H290.612V273ZM175.232 264.432C175.169 264.406 175.127 264.401 175.118 264.4C175.109 264.401 175.068 264.406 175.004 264.432C174.923 264.465 174.835 264.522 174.76 264.599C174.76 264.599 174.759 264.6 174.759 264.6C174.759 264.6 174.76 264.601 174.76 264.601C174.835 264.679 174.923 264.735 175.004 264.768C175.068 264.794 175.109 264.799 175.118 264.8C175.127 264.799 175.169 264.794 175.232 264.768C175.314 264.735 175.401 264.679 175.476 264.601C175.477 264.601 175.477 264.6 175.478 264.6C175.477 264.6 175.477 264.599 175.476 264.599C175.401 264.522 175.314 264.465 175.232 264.432ZM178.563 236.6C178.563 239.504 180.555 241.4 183.099 241.4C185.643 241.4 187.635 239.504 187.635 236.6C187.635 233.696 185.643 231.8 183.099 231.8C180.555 231.8 178.563 233.696 178.563 236.6ZM54.8479 264.6C54.8479 267.504 56.8399 269.4 59.3839 269.4C61.9279 269.4 63.9199 267.504 63.9199 264.6C63.9199 261.696 61.9279 259.8 59.3839 259.8C56.8399 259.8 54.8479 261.696 54.8479 264.6ZM170.582 264.6C170.582 267.504 172.574 269.4 175.118 269.4C177.662 269.4 179.654 267.504 179.654 264.6C179.654 261.696 177.662 259.8 175.118 259.8C172.574 259.8 170.582 261.696 170.582 264.6Z" fill="white"/>
<rect x="16" y="297" width="304" height="76" rx="24" fill="white"/>
<rect x="16" y="397" width="125" height="43" rx="13" fill="white"/>
<rect x="195" y="397" width="125" height="43" rx="13" fill="white"/>
<path d="M63.3172 322.2L60.3352 327.954L57.4372 322.2H55.4912L59.3972 329.508L59.2432 329.746C58.8372 330.39 58.3612 330.656 57.7872 330.656C57.4932 330.656 57.1852 330.586 56.8352 330.474L56.3872 331.902C56.8772 332.112 57.3672 332.21 57.8292 332.21C59.0192 332.21 60.0972 331.538 60.8532 330.11L65.1092 322.2H63.3172ZM69.0204 332.098C70.4764 332.098 71.6384 331.468 72.2124 330.348L70.8684 329.564C70.4204 330.278 69.7484 330.6 69.0064 330.6C67.7184 330.6 66.7384 329.718 66.7384 328.262C66.7384 326.82 67.7184 325.924 69.0064 325.924C69.7484 325.924 70.4204 326.246 70.8684 326.96L72.2124 326.176C71.6384 325.042 70.4764 324.44 69.0204 324.44C66.6544 324.44 64.9744 326.022 64.9744 328.262C64.9744 330.502 66.6544 332.098 69.0204 332.098ZM79.6068 324.524H72.6068V326.008H75.2388V332H76.9888V326.008H79.6068V324.524ZM83.6622 324.44C82.4582 324.44 81.2962 324.748 80.4982 325.364L81.1842 326.638C81.7442 326.176 82.6122 325.896 83.4522 325.896C84.6982 325.896 85.3142 326.498 85.3142 327.52V327.632H83.3822C81.1142 327.632 80.2742 328.612 80.2742 329.858C80.2742 331.16 81.3522 332.098 83.0602 332.098C84.1802 332.098 84.9922 331.734 85.4122 331.09V332H87.0642V327.618C87.0642 325.462 85.8182 324.44 83.6622 324.44ZM83.4242 330.824C82.5282 330.824 81.9962 330.418 81.9962 329.788C81.9962 329.242 82.3182 328.794 83.5082 328.794H85.3142V329.662C85.0202 330.432 84.2782 330.824 83.4242 330.824ZM89.2297 332H90.9797V329.046H94.7457V332H96.4957V324.524H94.7457V327.562H90.9797V324.524H89.2297V332ZM102.173 332.098C104.497 332.098 106.163 330.502 106.163 328.262C106.163 326.022 104.497 324.44 102.173 324.44C99.877 324.44 98.197 326.022 98.197 328.262C98.197 330.502 99.877 332.098 102.173 332.098ZM102.173 330.6C100.913 330.6 99.961 329.69 99.961 328.262C99.961 326.834 100.913 325.924 102.173 325.924C103.447 325.924 104.399 326.834 104.399 328.262C104.399 329.69 103.447 330.6 102.173 330.6ZM113.31 328.108C114.024 327.8 114.458 327.226 114.458 326.456C114.458 325.224 113.366 324.524 111.546 324.524H107.892V332H111.7C113.716 332 114.696 331.216 114.696 329.9C114.696 328.99 114.234 328.388 113.31 328.108ZM109.558 325.798H111.392C112.288 325.798 112.75 326.092 112.75 326.708C112.75 327.324 112.288 327.646 111.392 327.646H109.558V325.798ZM111.56 330.726H109.558V328.808H111.616C112.568 328.808 113.002 329.13 113.002 329.788C113.002 330.432 112.498 330.726 111.56 330.726ZM116.56 332H118.17L122.286 327.072V332H124.036V324.524H122.44L118.31 329.452V324.524H116.56V332ZM132.312 324.524H125.312V326.008H127.944V332H129.694V326.008H132.312V324.524ZM137.333 326.988L135.331 326.974V324.524H133.581V332L137.081 332.014C139.125 332.028 140.287 331.09 140.287 329.452C140.287 327.898 139.251 326.988 137.333 326.988ZM136.927 330.726L135.331 330.712V328.178L136.927 328.192C137.963 328.206 138.509 328.57 138.509 329.424C138.509 330.292 137.949 330.74 136.927 330.726ZM152.569 330.516V324.524H146.409L146.311 327.086C146.227 328.836 146.045 330.474 144.995 330.516H144.645V333.666H146.269V332H152.037V333.666H153.675V330.516H152.569ZM147.907 327.212L147.949 326.008H150.819V330.516H147.137C147.739 329.942 147.851 328.612 147.907 327.212ZM158.57 332.098C160.894 332.098 162.56 330.502 162.56 328.262C162.56 326.022 160.894 324.44 158.57 324.44C156.274 324.44 154.594 326.022 154.594 328.262C154.594 330.502 156.274 332.098 158.57 332.098ZM158.57 330.6C157.31 330.6 156.358 329.69 156.358 328.262C156.358 326.834 157.31 325.924 158.57 325.924C159.844 325.924 160.796 326.834 160.796 328.262C160.796 329.69 159.844 330.6 158.57 330.6ZM167.69 332.098C169.146 332.098 170.308 331.468 170.882 330.348L169.538 329.564C169.09 330.278 168.418 330.6 167.676 330.6C166.388 330.6 165.408 329.718 165.408 328.262C165.408 326.82 166.388 325.924 167.676 325.924C168.418 325.924 169.09 326.246 169.538 326.96L170.882 326.176C170.308 325.042 169.146 324.44 167.69 324.44C165.324 324.44 163.644 326.022 163.644 328.262C163.644 330.502 165.324 332.098 167.69 332.098ZM178.277 324.524H171.277V326.008H173.909V332H175.659V326.008H178.277V324.524ZM184.977 324.524L182.611 330.054L180.259 324.524H178.439L181.701 332.028L181.575 332.322C181.239 333.064 180.875 333.358 180.259 333.358C179.783 333.358 179.307 333.162 178.971 332.84L178.271 334.128C178.747 334.562 179.531 334.814 180.273 334.814C181.519 334.814 182.471 334.296 183.157 332.602L186.657 324.524H184.977ZM187.872 324.524V332H189.622V326.008H193.304V332H195.04V324.524H187.872ZM201.271 324.524V332H203.021V326.008H206.703V332H208.439V324.524H201.271ZM214.132 332.098C216.456 332.098 218.122 330.502 218.122 328.262C218.122 326.022 216.456 324.44 214.132 324.44C211.836 324.44 210.156 326.022 210.156 328.262C210.156 330.502 211.836 332.098 214.132 332.098ZM214.132 330.6C212.872 330.6 211.92 329.69 211.92 328.262C211.92 326.834 212.872 325.924 214.132 325.924C215.406 325.924 216.358 326.834 216.358 328.262C216.358 329.69 215.406 330.6 214.132 330.6ZM227.122 332.098C228.578 332.098 229.74 331.468 230.314 330.348L228.97 329.564C228.522 330.278 227.85 330.6 227.108 330.6C225.82 330.6 224.84 329.718 224.84 328.262C224.84 326.82 225.82 325.924 227.108 325.924C227.85 325.924 228.522 326.246 228.97 326.96L230.314 326.176C229.74 325.042 228.578 324.44 227.122 324.44C224.756 324.44 223.076 326.022 223.076 328.262C223.076 330.502 224.756 332.098 227.122 332.098ZM235.147 332.098C236.603 332.098 237.765 331.468 238.339 330.348L236.995 329.564C236.547 330.278 235.875 330.6 235.133 330.6C233.845 330.6 232.865 329.718 232.865 328.262C232.865 326.82 233.845 325.924 235.133 325.924C235.875 325.924 236.547 326.246 236.995 326.96L238.339 326.176C237.765 325.042 236.603 324.44 235.147 324.44C232.781 324.44 231.101 326.022 231.101 328.262C231.101 330.502 232.781 332.098 235.147 332.098ZM243.52 326.988L241.63 326.974V324.524H239.88V332L243.268 332.014C245.312 332.028 246.46 331.09 246.46 329.452C246.46 327.898 245.438 326.988 243.52 326.988ZM247.426 332H249.176V324.524H247.426V332ZM243.114 330.726L241.63 330.712V328.178L243.114 328.192C244.15 328.206 244.696 328.57 244.696 329.424C244.696 330.292 244.136 330.74 243.114 330.726ZM252.257 324.524L252.131 327.408C252.047 328.962 252.005 330.558 250.857 330.558C250.759 330.558 250.647 330.544 250.521 330.516L250.437 331.986C250.801 332.084 251.123 332.14 251.403 332.14C253.167 332.14 253.559 330.152 253.685 327.492L253.755 326.008H256.555V332H258.305V324.524H252.257ZM266.023 332H268.081L265.183 328.122L267.899 324.524H266.023L263.811 327.548H262.411V324.524H260.661V332H262.411V329.004H263.769L266.023 332ZM276.07 328.304C276.07 325.966 274.474 324.44 272.29 324.44C270.064 324.44 268.426 326.036 268.426 328.262C268.426 330.488 270.05 332.098 272.556 332.098C273.844 332.098 274.894 331.678 275.566 330.88L274.628 329.802C274.096 330.348 273.438 330.614 272.598 330.614C271.296 330.614 270.386 329.914 270.176 328.822H276.042C276.056 328.654 276.07 328.444 276.07 328.304ZM272.29 325.84C273.438 325.84 274.264 326.582 274.404 327.66H270.162C270.33 326.568 271.156 325.84 272.29 325.84ZM73.2021 348H75.2601L72.3621 344.122L75.0781 340.524H73.2021L70.9901 343.548H69.5901V340.524H67.8401V348H69.5901V345.004H70.9481L73.2021 348ZM87.2375 346.516V340.524H81.0775L80.9795 343.086C80.8955 344.836 80.7135 346.474 79.6635 346.516H79.3135V349.666H80.9375V348H86.7055V349.666H88.3435V346.516H87.2375ZM82.5755 343.212L82.6175 342.008H85.4875V346.516H81.8055C82.4075 345.942 82.5195 344.612 82.5755 343.212ZM93.2385 348.098C95.5625 348.098 97.2285 346.502 97.2285 344.262C97.2285 342.022 95.5625 340.44 93.2385 340.44C90.9425 340.44 89.2625 342.022 89.2625 344.262C89.2625 346.502 90.9425 348.098 93.2385 348.098ZM93.2385 346.6C91.9785 346.6 91.0265 345.69 91.0265 344.262C91.0265 342.834 91.9785 341.924 93.2385 341.924C94.5125 341.924 95.4645 342.834 95.4645 344.262C95.4645 345.69 94.5125 346.6 93.2385 346.6ZM104.319 348H106.377L103.479 344.122L106.195 340.524H104.319L102.107 343.548H100.707V340.524H98.9573V348H100.707V345.004H102.065L104.319 348ZM112.564 340.524L110.198 346.054L107.846 340.524H106.026L109.288 348.028L109.162 348.322C108.826 349.064 108.462 349.358 107.846 349.358C107.37 349.358 106.894 349.162 106.558 348.84L105.858 350.128C106.334 350.562 107.118 350.814 107.86 350.814C109.106 350.814 110.058 350.296 110.744 348.602L114.244 340.524H112.564ZM124.391 348L124.377 340.524H122.739L119.953 345.2L117.293 340.524H115.459V348H117.055V343.03L119.533 347.216H120.289L122.809 343.044V348H124.391ZM133.739 344.304C133.739 341.966 132.143 340.44 129.959 340.44C127.733 340.44 126.095 342.036 126.095 344.262C126.095 346.488 127.719 348.098 130.225 348.098C131.513 348.098 132.562 347.678 133.235 346.88L132.297 345.802C131.765 346.348 131.107 346.614 130.267 346.614C128.965 346.614 128.055 345.914 127.845 344.822H133.711C133.725 344.654 133.739 344.444 133.739 344.304ZM129.959 341.84C131.107 341.84 131.933 342.582 132.073 343.66H127.831C127.999 342.568 128.825 341.84 129.959 341.84ZM135.653 348H137.403V345.046H141.169V348H142.919V340.524H141.169V343.562H137.403V340.524H135.653V348ZM151.186 340.524H144.186V342.008H146.818V348H148.568V342.008H151.186V340.524ZM155.241 340.44C154.037 340.44 152.875 340.748 152.077 341.364L152.763 342.638C153.323 342.176 154.191 341.896 155.031 341.896C156.277 341.896 156.893 342.498 156.893 343.52V343.632H154.961C152.693 343.632 151.853 344.612 151.853 345.858C151.853 347.16 152.931 348.098 154.639 348.098C155.759 348.098 156.571 347.734 156.991 347.09V348H158.643V343.618C158.643 341.462 157.397 340.44 155.241 340.44ZM155.003 346.824C154.107 346.824 153.575 346.418 153.575 345.788C153.575 345.242 153.897 344.794 155.087 344.794H156.893V345.662C156.599 346.432 155.857 346.824 155.003 346.824ZM169.741 348L169.727 340.524H168.089L165.303 345.2L162.643 340.524H160.809V348H162.405V343.03L164.883 347.216H165.639L168.159 343.044V348H169.741ZM182.789 346.04C182.159 346.404 181.473 346.544 180.773 346.544C178.701 346.544 177.231 345.088 177.231 343.1C177.231 341.07 178.701 339.656 180.787 339.656C181.837 339.656 182.719 340.006 183.489 340.776L184.637 339.656C183.713 338.606 182.341 338.06 180.703 338.06C177.637 338.06 175.397 340.174 175.397 343.1C175.397 346.026 177.637 348.14 180.675 348.14C182.061 348.14 183.489 347.72 184.511 346.894V342.988H182.789V346.04ZM190.104 348.098C192.428 348.098 194.094 346.502 194.094 344.262C194.094 342.022 192.428 340.44 190.104 340.44C187.808 340.44 186.128 342.022 186.128 344.262C186.128 346.502 187.808 348.098 190.104 348.098ZM190.104 346.6C188.844 346.6 187.892 345.69 187.892 344.262C187.892 342.834 188.844 341.924 190.104 341.924C191.378 341.924 192.33 342.834 192.33 344.262C192.33 345.69 191.378 346.6 190.104 346.6ZM199.127 348.098C201.451 348.098 203.117 346.502 203.117 344.262C203.117 342.022 201.451 340.44 199.127 340.44C196.831 340.44 195.151 342.022 195.151 344.262C195.151 346.502 196.831 348.098 199.127 348.098ZM199.127 346.6C197.867 346.6 196.915 345.69 196.915 344.262C196.915 342.834 197.867 341.924 199.127 341.924C200.401 341.924 201.353 342.834 201.353 344.262C201.353 345.69 200.401 346.6 199.127 346.6ZM210.545 340.524V341.518C209.929 340.776 209.005 340.44 207.955 340.44C205.813 340.44 204.175 341.868 204.175 344.038C204.175 346.208 205.813 347.664 207.955 347.664C208.963 347.664 209.845 347.342 210.461 346.67V347.062C210.461 348.574 209.733 349.33 208.081 349.33C207.045 349.33 205.981 348.98 205.323 348.434L204.539 349.75C205.393 350.45 206.779 350.814 208.179 350.814C210.797 350.814 212.211 349.582 212.211 346.866V340.524H210.545ZM208.221 346.18C206.891 346.18 205.939 345.312 205.939 344.038C205.939 342.778 206.891 341.924 208.221 341.924C209.537 341.924 210.489 342.778 210.489 344.038C210.489 345.312 209.537 346.18 208.221 346.18ZM214.511 348H216.261V337.612H214.511V348ZM225.586 344.304C225.586 341.966 223.99 340.44 221.806 340.44C219.58 340.44 217.942 342.036 217.942 344.262C217.942 346.488 219.566 348.098 222.072 348.098C223.36 348.098 224.41 347.678 225.082 346.88L224.144 345.802C223.612 346.348 222.954 346.614 222.114 346.614C220.812 346.614 219.902 345.914 219.692 344.822H225.558C225.572 344.654 225.586 344.444 225.586 344.304ZM221.806 341.84C222.954 341.84 223.78 342.582 223.92 343.66H219.678C219.846 342.568 220.672 341.84 221.806 341.84ZM231.304 348H235.588C238.766 348 240.936 346.04 240.936 343.1C240.936 340.16 238.766 338.2 235.588 338.2H231.304V348ZM233.124 346.46V339.74H235.504C237.688 339.74 239.102 341.07 239.102 343.1C239.102 345.13 237.688 346.46 235.504 346.46H233.124ZM246.063 348.098C248.387 348.098 250.053 346.502 250.053 344.262C250.053 342.022 248.387 340.44 246.063 340.44C243.767 340.44 242.087 342.022 242.087 344.262C242.087 346.502 243.767 348.098 246.063 348.098ZM246.063 346.6C244.803 346.6 243.851 345.69 243.851 344.262C243.851 342.834 244.803 341.924 246.063 341.924C247.337 341.924 248.289 342.834 248.289 344.262C248.289 345.69 247.337 346.6 246.063 346.6ZM255.156 348.098C256.612 348.098 257.774 347.468 258.348 346.348L257.004 345.564C256.556 346.278 255.884 346.6 255.142 346.6C253.854 346.6 252.874 345.718 252.874 344.262C252.874 342.82 253.854 341.924 255.142 341.924C255.884 341.924 256.556 342.246 257.004 342.96L258.348 342.176C257.774 341.042 256.612 340.44 255.156 340.44C252.79 340.44 251.11 342.022 251.11 344.262C251.11 346.502 252.79 348.098 255.156 348.098ZM262.171 348.098C264.271 348.098 265.559 347.188 265.559 345.788C265.559 342.862 260.939 344.206 260.939 342.694C260.939 342.204 261.443 341.854 262.507 341.854C263.221 341.854 263.935 341.994 264.649 342.414L265.321 341.084C264.649 340.678 263.515 340.44 262.521 340.44C260.505 340.44 259.231 341.364 259.231 342.778C259.231 345.76 263.851 344.416 263.851 345.844C263.851 346.362 263.389 346.67 262.283 346.67C261.345 346.67 260.337 346.362 259.679 345.928L259.007 347.258C259.679 347.734 260.925 348.098 262.171 348.098ZM267.626 348.098C268.256 348.098 268.774 347.608 268.774 346.936C268.774 346.236 268.256 345.774 267.626 345.774C266.996 345.774 266.478 346.236 266.478 346.936C266.478 347.608 266.996 348.098 267.626 348.098Z" fill="black"/>
<g filter="url(#filter0_di)">
<path d="M123.442 203.05H179.721C184.376 203.05 188.163 199.263 188.163 194.608V135.14H168.465C163.81 135.14 160.023 131.353 160.023 126.698V107H123.442C118.787 107 115 110.787 115 115.442V194.608C115 199.263 118.787 203.05 123.442 203.05ZM134.698 146.583H168.465C170.02 146.583 171.279 147.842 171.279 149.397C171.279 150.952 170.02 152.211 168.465 152.211H134.698C133.142 152.211 131.884 150.952 131.884 149.397C131.884 147.842 133.142 146.583 134.698 146.583ZM134.698 157.839H168.465C170.02 157.839 171.279 159.097 171.279 160.653C171.279 162.208 170.02 163.467 168.465 163.467H134.698C133.142 163.467 131.884 162.208 131.884 160.653C131.884 159.097 133.142 157.839 134.698 157.839ZM134.698 169.095H168.465C170.02 169.095 171.279 170.353 171.279 171.909C171.279 173.464 170.02 174.722 168.465 174.722H134.698C133.142 174.722 131.884 173.464 131.884 171.909C131.884 170.353 133.142 169.095 134.698 169.095ZM134.698 180.35H157.209C158.765 180.35 160.023 181.609 160.023 183.164C160.023 184.72 158.765 185.978 157.209 185.978H134.698C133.142 185.978 131.884 184.72 131.884 183.164C131.884 181.609 133.142 180.35 134.698 180.35Z" fill="white"/>
<path d="M168.465 129.512H186.514L165.651 108.649V126.698C165.651 128.25 166.913 129.512 168.465 129.512Z" fill="white"/>
</g>
<g filter="url(#filter1_di)">
<path d="M202.81 181.476H231.671C234.058 181.476 236 179.353 236 176.744V143.409H225.898C223.511 143.409 221.569 141.286 221.569 138.677V127.636H202.81C200.422 127.636 198.48 129.758 198.48 132.368V176.744C198.48 179.353 200.422 181.476 202.81 181.476ZM208.582 149.824H225.898C226.696 149.824 227.342 150.529 227.342 151.401C227.342 152.273 226.696 152.978 225.898 152.978H208.582C207.784 152.978 207.139 152.273 207.139 151.401C207.139 150.529 207.784 149.824 208.582 149.824ZM208.582 156.133H225.898C226.696 156.133 227.342 156.839 227.342 157.71C227.342 158.582 226.696 159.288 225.898 159.288H208.582C207.784 159.288 207.139 158.582 207.139 157.71C207.139 156.839 207.784 156.133 208.582 156.133ZM208.582 162.443H225.898C226.696 162.443 227.342 163.148 227.342 164.02C227.342 164.892 226.696 165.597 225.898 165.597H208.582C207.784 165.597 207.139 164.892 207.139 164.02C207.139 163.148 207.784 162.443 208.582 162.443ZM208.582 168.752H220.126C220.924 168.752 221.569 169.457 221.569 170.329C221.569 171.201 220.924 171.907 220.126 171.907H208.582C207.784 171.907 207.139 171.201 207.139 170.329C207.139 169.457 207.784 168.752 208.582 168.752Z" fill="white"/>
</g>
<g filter="url(#filter2_di)">
<path d="M225.899 140.254H235.154L224.456 128.56V138.677C224.456 139.547 225.102 140.254 225.899 140.254Z" fill="white"/>
</g>
<path d="M252 5C252 26.7477 243.361 47.6048 227.983 62.9828C212.605 78.3607 191.748 87 170 87C148.252 87 127.395 78.3607 112.017 62.9828C96.6393 47.6048 88 26.7478 88 5.00002L170 5H252Z" fill="white"/>
<path d="M48.032 423.216C48.032 414.96 35.328 417.52 35.328 414.096C35.328 412.976 36.288 412.08 38.944 412.08C40.896 412.08 43.008 412.656 45.152 413.808L47.104 409.104C45.312 408.048 42.976 407.408 40.608 407.216V403.76H36.768V407.28C31.584 407.92 29.056 410.896 29.056 414.416C29.056 422.736 41.792 420.144 41.792 423.696C41.792 424.784 40.768 425.52 38.144 425.52C35.552 425.52 32.736 424.624 30.752 423.312L28.672 427.984C30.528 429.264 33.568 430.192 36.768 430.416V433.84H40.608V430.288C45.6 429.552 48.032 426.608 48.032 423.216Z" fill="#00BCBC"/>
<path d="M61.22 423.36L64.44 420.32C66.4 418.5 66.78 417.26 66.78 415.9C66.78 413.36 64.7 411.76 61.58 411.76C59.06 411.76 57.1 412.78 56.02 414.36L58.38 415.88C59.06 414.94 60.08 414.48 61.28 414.48C62.76 414.48 63.52 415.12 63.52 416.22C63.52 416.9 63.3 417.62 62.06 418.8L56.66 423.9V426H67.24V423.36H61.22ZM74.5378 426.24C77.9978 426.24 80.5378 423.62 80.5378 419C80.5378 414.38 77.9978 411.76 74.5378 411.76C71.0978 411.76 68.5378 414.38 68.5378 419C68.5378 423.62 71.0978 426.24 74.5378 426.24ZM74.5378 423.5C72.9378 423.5 71.8178 422.18 71.8178 419C71.8178 415.82 72.9378 414.5 74.5378 414.5C76.1578 414.5 77.2778 415.82 77.2778 419C77.2778 422.18 76.1578 423.5 74.5378 423.5ZM93.7761 426.24C97.2361 426.24 99.7761 423.62 99.7761 419C99.7761 414.38 97.2361 411.76 93.7761 411.76C90.3361 411.76 87.7761 414.38 87.7761 419C87.7761 423.62 90.3361 426.24 93.7761 426.24ZM93.7761 423.5C92.1761 423.5 91.0561 422.18 91.0561 419C91.0561 415.82 92.1761 414.5 93.7761 414.5C95.3961 414.5 96.5161 415.82 96.5161 419C96.5161 422.18 95.3961 423.5 93.7761 423.5ZM107.35 426.24C110.81 426.24 113.35 423.62 113.35 419C113.35 414.38 110.81 411.76 107.35 411.76C103.91 411.76 101.35 414.38 101.35 419C101.35 423.62 103.91 426.24 107.35 426.24ZM107.35 423.5C105.75 423.5 104.63 422.18 104.63 419C104.63 415.82 105.75 414.5 107.35 414.5C108.97 414.5 110.09 415.82 110.09 419C110.09 422.18 108.97 423.5 107.35 423.5ZM120.925 426.24C124.385 426.24 126.925 423.62 126.925 419C126.925 414.38 124.385 411.76 120.925 411.76C117.485 411.76 114.925 414.38 114.925 419C114.925 423.62 117.485 426.24 120.925 426.24ZM120.925 423.5C119.325 423.5 118.205 422.18 118.205 419C118.205 415.82 119.325 414.5 120.925 414.5C122.545 414.5 123.665 415.82 123.665 419C123.665 422.18 122.545 423.5 120.925 423.5Z" fill="black"/>
<path d="M236.14 412V414.6H238.94V426H242.18V412H236.14ZM250.612 426.24C254.072 426.24 256.612 423.62 256.612 419C256.612 414.38 254.072 411.76 250.612 411.76C247.172 411.76 244.612 414.38 244.612 419C244.612 423.62 247.172 426.24 250.612 426.24ZM250.612 423.5C249.012 423.5 247.892 422.18 247.892 419C247.892 415.82 249.012 414.5 250.612 414.5C252.232 414.5 253.352 415.82 253.352 419C253.352 422.18 252.232 423.5 250.612 423.5ZM277.89 426L277.85 415.24H274.93L271.27 421.46L267.83 415.24H264.57V426H267.39V419.54L270.53 424.96H271.85L275.07 419.56V426H277.89ZM280.879 426H283.759L288.979 419.6V426H292.079V415.24H289.219L283.979 421.64V415.24H280.879V426ZM295.078 426H298.178V421.98H302.858V426H305.978V415.24H302.858V419.44H298.178V415.24H295.078V426Z" fill="black"/>
<path d="M216.5 406C209.595 406 204 411.595 204 418.5C204 425.405 209.595 431 216.5 431C223.405 431 229 425.405 229 418.5C229 411.595 223.405 406 216.5 406Z" fill="#00BCBC"/>
<path fill-rule="evenodd" clip-rule="evenodd" d="M215.961 410C214.878 410 214 410.878 214 411.961V419.153C214 419.311 214.019 419.464 214.054 419.611C214.047 420.263 214.376 420.901 214.974 421.262L220.414 424.535C221.313 425.077 222.481 424.786 223.022 423.887C223.563 422.988 223.273 421.82 222.374 421.279L217.923 418.6V411.961C217.923 410.878 217.045 410 215.961 410Z" fill="white"/>
<g filter="url(#filter3_d)">
<path d="M162.531 400.393L185.975 433.213C179.766 434.57 168.698 428.331 168.698 428.331C168.698 428.331 160.834 438.706 154.912 440L162.531 400.393Z" fill="white"/>
<path fill-rule="evenodd" clip-rule="evenodd" d="M154.912 440L158.469 421.51C161.522 424.284 164.956 426.604 168.698 428.331C168.698 428.331 160.834 438.706 154.912 440Z" fill="#BBFFF9"/>
</g>
<path d="M138.812 25.4V34.274H146.352V66H157.836V25.4H138.812ZM181.69 24.588C172.874 24.588 165.798 29.982 165.798 38.45C165.798 46.222 172.12 51.268 179.776 51.268C183.604 51.268 186.62 50.224 188.882 48.31C188.244 54.458 184.416 57.706 178.674 57.706C176.064 57.706 173.512 57.242 171.192 55.618L167.016 63.854C169.974 65.768 174.382 66.812 178.906 66.812C191.782 66.812 200.54 58.75 200.54 44.598C200.54 31.432 193.116 24.588 181.69 24.588ZM182.502 43.032C179.196 43.032 176.934 41.06 176.934 37.928C176.934 34.738 179.196 32.766 182.444 32.766C185.924 32.766 188.128 34.854 188.128 37.87C188.128 40.944 185.808 43.032 182.502 43.032Z" fill="#46BBCE"/>
<defs>
<filter id="filter0_di" x="109" y="101" width="93.1628" height="116.05" filterUnits="userSpaceOnUse" color-interpolation-filters="sRGB">
<feFlood flood-opacity="0" result="BackgroundImageFix"/>
<feColorMatrix in="SourceAlpha" type="matrix" values="0 0 0 0 0 0 0 0 0 0 0 0 0 0 0 0 0 0 127 0"/>
<feOffset dx="4" dy="4"/>
<feGaussianBlur stdDeviation="5"/>
<feColorMatrix type="matrix" values="0 0 0 0 0.1715 0 0 0 0 0.816667 0 0 0 0 0.816667 0 0 0 1 0"/>
<feBlend mode="normal" in2="BackgroundImageFix" result="effect1_dropShadow"/>
<feBlend mode="normal" in="SourceGraphic" in2="effect1_dropShadow" result="shape"/>
<feColorMatrix in="SourceAlpha" type="matrix" values="0 0 0 0 0 0 0 0 0 0 0 0 0 0 0 0 0 0 127 0" result="hardAlpha"/>
<feOffset dx="-4" dy="-4"/>
<feGaussianBlur stdDeviation="4.5"/>
<feComposite in2="hardAlpha" operator="arithmetic" k2="-1" k3="1"/>
<feColorMatrix type="matrix" values="0 0 0 0 0.441945 0 0 0 0 0.887146 0 0 0 0 0.895833 0 0 0 0.52 0"/>
<feBlend mode="normal" in2="shape" result="effect2_innerShadow"/>
</filter>
<filter id="filter1_di" x="192.48" y="121.636" width="57.5194" height="73.8403" filterUnits="userSpaceOnUse" color-interpolation-filters="sRGB">
<feFlood flood-opacity="0" result="BackgroundImageFix"/>
<feColorMatrix in="SourceAlpha" type="matrix" values="0 0 0 0 0 0 0 0 0 0 0 0 0 0 0 0 0 0 127 0"/>
<feOffset dx="4" dy="4"/>
<feGaussianBlur stdDeviation="5"/>
<feColorMatrix type="matrix" values="0 0 0 0 0.1715 0 0 0 0 0.816667 0 0 0 0 0.816667 0 0 0 1 0"/>
<feBlend mode="normal" in2="BackgroundImageFix" result="effect1_dropShadow"/>
<feBlend mode="normal" in="SourceGraphic" in2="effect1_dropShadow" result="shape"/>
<feColorMatrix in="SourceAlpha" type="matrix" values="0 0 0 0 0 0 0 0 0 0 0 0 0 0 0 0 0 0 127 0" result="hardAlpha"/>
<feOffset dx="-4" dy="-4"/>
<feGaussianBlur stdDeviation="4.5"/>
<feComposite in2="hardAlpha" operator="arithmetic" k2="-1" k3="1"/>
<feColorMatrix type="matrix" values="0 0 0 0 0.441945 0 0 0 0 0.887146 0 0 0 0 0.895833 0 0 0 0.52 0"/>
<feBlend mode="normal" in2="shape" result="effect2_innerShadow"/>
</filter>
<filter id="filter2_di" x="218.456" y="122.56" width="30.6989" height="31.6946" filterUnits="userSpaceOnUse" color-interpolation-filters="sRGB">
<feFlood flood-opacity="0" result="BackgroundImageFix"/>
<feColorMatrix in="SourceAlpha" type="matrix" values="0 0 0 0 0 0 0 0 0 0 0 0 0 0 0 0 0 0 127 0"/>
<feOffset dx="4" dy="4"/>
<feGaussianBlur stdDeviation="5"/>
<feColorMatrix type="matrix" values="0 0 0 0 0.1715 0 0 0 0 0.816667 0 0 0 0 0.816667 0 0 0 1 0"/>
<feBlend mode="normal" in2="BackgroundImageFix" result="effect1_dropShadow"/>
<feBlend mode="normal" in="SourceGraphic" in2="effect1_dropShadow" result="shape"/>
<feColorMatrix in="SourceAlpha" type="matrix" values="0 0 0 0 0 0 0 0 0 0 0 0 0 0 0 0 0 0 127 0" result="hardAlpha"/>
<feOffset dx="-4" dy="-4"/>
<feGaussianBlur stdDeviation="4.5"/>
<feComposite in2="hardAlpha" operator="arithmetic" k2="-1" k3="1"/>
<feColorMatrix type="matrix" values="0 0 0 0 0.441945 0 0 0 0 0.887146 0 0 0 0 0.895833 0 0 0 0.52 0"/>
<feBlend mode="normal" in2="shape" result="effect2_innerShadow"/>
</filter>
<filter id="filter3_d" x="143" y="393" width="52.975" height="57" filterUnits="userSpaceOnUse" color-interpolation-filters="sRGB">
<feFlood flood-opacity="0" result="BackgroundImageFix"/>
<feColorMatrix in="SourceAlpha" type="matrix" values="0 0 0 0 0 0 0 0 0 0 0 0 0 0 0 0 0 0 127 0"/>
<feOffset dx="3" dy="3"/>
<feGaussianBlur stdDeviation="3.5"/>
<feColorMatrix type="matrix" values="0 0 0 0 0.279 0 0 0 0 0.9 0 0 0 0 0.840225 0 0 0 1 0"/>
<feBlend mode="normal" in2="BackgroundImageFix" result="effect1_dropShadow"/>
<feBlend mode="normal" in="SourceGraphic" in2="effect1_dropShadow" result="shape"/>
</filter>
<linearGradient id="paint0_linear" x1="5.5" y1="-157" x2="289.5" y2="495.5" gradientUnits="userSpaceOnUse">
<stop stop-color="#00C2FF"/>
<stop offset="1" stop-color="#1EE7CF"/>
</linearGradient>
<linearGradient id="paint1_linear" x1="49" y1="11" x2="301.5" y2="474" gradientUnits="userSpaceOnUse">
<stop stop-color="#19D2EB"/>
<stop offset="1" stop-color="#55F5DF"/>
</linearGradient>
<linearGradient id="paint2_linear" x1="59.5" y1="-9" x2="291.5" y2="495.5" gradientUnits="userSpaceOnUse">
<stop stop-color="#00E0FF"/>
<stop offset="1" stop-color="#42F2D1"/>
</linearGradient>
<linearGradient id="paint3_linear" x1="51" y1="11" x2="303.5" y2="474" gradientUnits="userSpaceOnUse">
<stop stop-color="#B2F6FF"/>
<stop offset="1" stop-color="#28D7BE"/>
</linearGradient>
<linearGradient id="paint4_linear" x1="27" y1="473.49" x2="247.084" y2="60.8524" gradientUnits="userSpaceOnUse">
<stop stop-color="#73F5FF"/>
<stop offset="0.99" stop-color="#7AFFEC"/>
</linearGradient>
<linearGradient id="paint5_linear" x1="129.774" y1="288" x2="310" y2="288" gradientUnits="userSpaceOnUse">
<stop stop-color="white"/>
<stop offset="0.99" stop-color="white" stop-opacity="0.4"/>
</linearGradient>
<linearGradient id="paint6_linear" x1="59.8997" y1="86" x2="140" y2="86" gradientUnits="userSpaceOnUse">
<stop stop-color="white"/>
<stop offset="0.99" stop-color="white" stop-opacity="0.4"/>
</linearGradient>
</defs>
</svg>
