<svg width="338" height="474" viewBox="0 0 338 474" fill="none" xmlns="http://www.w3.org/2000/svg">
<rect x="2.5" y="2.5" width="331" height="469" rx="32.5" fill="url(#paint0_linear)" stroke="url(#paint1_linear)" stroke-width="5"/>
<mask id="mask0" mask-type="alpha" maskUnits="userSpaceOnUse" x="2" y="0" width="336" height="474">
<rect x="-2.5" y="2.5" width="331" height="469" rx="41.5" transform="matrix(-1 0 0 1 333 0)" fill="url(#paint2_linear)" stroke="url(#paint3_linear)" stroke-width="5"/>
</mask>
<g mask="url(#mask0)">
<path d="M129.747 5.0093C129.747 5.0093 234.654 47.0947 238.632 101.845C242.609 156.595 219.132 152.615 226.093 185.086C233.053 217.557 347.517 255.616 316.691 356.766C285.865 457.916 188.416 370.584 85 469H301C317.569 469 331 455.569 331 439V35.0014C331 18.4323 317.568 5.00062 300.999 5.00139L129.747 5.0093Z" fill="url(#paint4_linear)" fill-opacity="0.5"/>
</g>
<path opacity="0.46" d="M114.88 323C95.8977 322.976 77.349 317.326 61.5777 306.763C45.8065 296.199 33.5206 281.198 26.2731 263.654C19.0255 246.11 17.1416 226.812 20.8594 208.198C24.5771 189.583 33.7297 172.489 47.1603 159.075C60.591 145.661 77.6967 136.53 96.3156 132.836C114.934 129.141 134.231 131.05 151.765 138.319C169.3 145.589 184.286 157.893 194.829 173.678C205.373 189.462 211 208.018 211 227C210.955 252.468 200.81 276.878 182.79 294.875C164.771 312.873 140.348 322.987 114.88 323ZM114.88 157.396C101.117 157.415 87.6698 161.514 76.2362 169.173C64.8026 176.833 55.8964 187.71 50.643 200.431C45.3896 213.151 44.025 227.143 46.7215 240.638C49.4181 254.133 56.0547 266.527 65.7928 276.251C75.5309 285.976 87.9332 292.595 101.432 295.273C114.931 297.951 128.921 296.567 141.634 291.296C154.347 286.025 165.212 277.104 172.856 265.66C180.5 254.215 184.58 240.762 184.58 227C184.522 208.55 177.154 190.874 164.09 177.846C151.026 164.818 133.33 157.499 114.88 157.493V157.396Z" fill="url(#paint5_linear)" fill-opacity="0.7"/>
<path opacity="0.46" d="M216.95 105C209.041 104.99 201.312 102.636 194.741 98.2344C188.169 93.8331 183.05 87.5825 180.03 80.2726C177.011 72.9627 176.226 64.9216 177.775 57.1657C179.324 49.4097 183.137 42.2871 188.733 36.698C194.33 31.1089 201.457 27.3043 209.215 25.7649C216.973 24.2256 225.013 25.0207 232.319 28.0496C239.625 31.0786 245.869 36.2055 250.262 42.7824C254.655 49.3593 257 57.0909 257 65C256.981 75.6116 252.754 85.7826 245.246 93.2815C237.738 100.78 227.561 104.995 216.95 105ZM216.95 35.9985C211.216 36.0064 205.612 37.7141 200.848 40.9056C196.084 44.0972 192.373 48.6294 190.185 53.9294C187.996 59.2294 187.427 65.0594 188.551 70.6825C189.674 76.3056 192.439 81.4694 196.497 85.5213C200.555 89.5732 205.722 92.3314 211.347 93.4472C216.971 94.5629 222.801 93.9863 228.098 91.79C233.395 89.5938 237.922 85.8766 241.107 81.1082C244.292 76.3398 245.991 70.7342 245.991 65C245.968 57.3124 242.898 49.9477 237.454 44.5193C232.011 39.0908 224.637 36.0412 216.95 36.0386V35.9985Z" fill="url(#paint6_linear)"/>
<path d="M98.6021 221.336C103.978 221.336 107.938 217.64 107.938 212.6C107.938 207.56 103.978 203.864 98.6021 203.864C93.2261 203.864 89.2661 207.56 89.2661 212.6C89.2661 217.64 93.2261 221.336 98.6021 221.336ZM98.6021 217.4C96.0581 217.4 94.0661 215.504 94.0661 212.6C94.0661 209.696 96.0581 207.8 98.6021 207.8C101.146 207.8 103.138 209.696 103.138 212.6C103.138 215.504 101.146 217.4 98.6021 217.4Z" fill="black"/>
<path d="M124.981 204.2H110.005V207.968H115.165V221H119.845V207.968H124.981V204.2Z" fill="black"/>
<path d="M138.979 221H144.331L139.027 212.312L144.283 204.2H139.291L135.283 210.728H133.003V204.2H128.275V221H133.003V214.568H135.163L138.979 221Z" fill="black"/>
<path d="M159.569 221H164.513L157.073 204.2H152.393L144.977 221H149.825L151.145 217.736H158.249L159.569 221ZM152.537 214.232L154.697 208.856L156.857 214.232H152.537Z" fill="black"/>
<path d="M178.03 212.264C179.446 211.568 180.334 210.296 180.334 208.712C180.334 205.592 176.734 203.816 172.654 203.816C170.686 203.816 168.598 204.224 166.75 205.112L168.142 208.712C169.582 207.944 171.238 207.56 172.606 207.56C174.262 207.56 175.534 208.136 175.534 209.264C175.534 210.128 174.814 210.68 173.518 210.68H169.606V214.16H173.902C175.246 214.16 176.206 214.592 176.206 215.624C176.206 216.92 174.622 217.592 172.606 217.592C171.07 217.592 169.27 217.208 167.71 216.416L166.294 219.728C168.478 220.832 170.902 221.36 173.134 221.36C177.406 221.36 181.006 219.488 181.006 216.272C181.006 214.424 179.878 212.96 178.03 212.264Z" fill="black"/>
<path d="M197.688 221H202.632L195.192 204.2H190.512L183.096 221H187.944L189.264 217.736H196.368L197.688 221ZM190.656 214.232L192.816 208.856L194.976 214.232H190.656Z" fill="black"/>
<path d="M218.449 204.2H203.473V207.968H208.633V221H213.313V207.968H218.449V204.2Z" fill="black"/>
<path d="M230.408 209.552H226.52V204.2H221.84V221H229.784C234.152 221 236.864 218.96 236.864 215.024C236.864 211.352 234.488 209.552 230.408 209.552ZM229.472 217.592H226.52V212.936H229.472C231.08 212.936 232.088 213.536 232.088 215.12C232.088 216.704 231.056 217.592 229.472 217.592Z" fill="black"/>
<path d="M99.6822 247.216C101.122 246.496 101.962 245.224 101.962 243.568C101.962 240.784 99.6102 239.2 95.6022 239.2H87.4422V256H96.0582C100.378 256 102.73 254.152 102.73 251.2C102.73 249.184 101.626 247.84 99.6822 247.216ZM92.1222 242.608H95.1462C96.4902 242.608 97.1622 243.184 97.1622 244.264C97.1622 245.368 96.4902 245.92 95.1462 245.92H92.1222V242.608ZM95.8662 252.592H92.1222V249.136H95.8662C97.2342 249.136 97.9302 249.688 97.9302 250.84C97.9302 251.992 97.2342 252.592 95.8662 252.592Z" fill="black"/>
<path d="M114.686 239.2V256H119.366V242.968H125.75V256H130.454V239.2H114.686Z" fill="black"/>
<path d="M143.501 256.336C148.877 256.336 152.837 252.64 152.837 247.6C152.837 242.56 148.877 238.864 143.501 238.864C138.125 238.864 134.165 242.56 134.165 247.6C134.165 252.64 138.125 256.336 143.501 256.336ZM143.501 252.4C140.957 252.4 138.965 250.504 138.965 247.6C138.965 244.696 140.957 242.8 143.501 242.8C146.045 242.8 148.037 244.696 148.037 247.6C148.037 250.504 146.045 252.4 143.501 252.4Z" fill="black"/>
<path d="M176.114 256L176.066 239.2H172.154L166.394 248.896L160.49 239.2H156.578V256H160.946V247.288L165.266 254.344H167.378L171.698 247.096L171.722 256H176.114Z" fill="black"/>
<path d="M189.144 256.336C194.52 256.336 198.48 252.64 198.48 247.6C198.48 242.56 194.52 238.864 189.144 238.864C183.768 238.864 179.808 242.56 179.808 247.6C179.808 252.64 183.768 256.336 189.144 256.336ZM189.144 252.4C186.6 252.4 184.608 250.504 184.608 247.6C184.608 244.696 186.6 242.8 189.144 242.8C191.688 242.8 193.68 244.696 193.68 247.6C193.68 250.504 191.688 252.4 189.144 252.4Z" fill="black"/>
<path d="M224.996 252.232V239.2H220.316V252.232H215.972V239.2H211.292V252.232H206.9V239.2H202.22V256H222.812V259.384H227.18V252.232H224.996Z" fill="black"/>
<path d="M230.655 256H235.143L242.055 246.16V256H246.735V239.2H242.271L235.335 249.064V239.2H230.655V256Z" fill="black"/>
<path fill-rule="evenodd" clip-rule="evenodd" d="M110.165 220.912C107.538 224.3 103.305 226.336 98.6021 226.336C90.7864 226.336 84.2661 220.713 84.2661 212.6C84.2661 204.487 90.7864 198.864 98.6021 198.864C101.402 198.864 104.035 199.585 106.262 200.884C107.178 199.851 108.515 199.2 110.005 199.2H124.981C125.558 199.2 126.112 199.298 126.628 199.478C127.144 199.298 127.698 199.2 128.275 199.2H133.003C134.194 199.2 135.288 199.617 136.147 200.312C137.024 199.603 138.13 199.2 139.291 199.2H144.283C145.902 199.2 147.406 199.982 148.338 201.274C149.265 199.989 150.766 199.2 152.393 199.2H157.073C159.051 199.2 160.844 200.366 161.645 202.175L162.115 203.237C162.567 202.12 163.421 201.164 164.585 200.605C167.192 199.353 170.035 198.816 172.654 198.816C175.332 198.816 178.194 199.385 180.57 200.79C182.187 201.747 183.734 203.219 184.607 205.196L185.938 202.181C186.737 200.369 188.531 199.2 190.512 199.2H195.192C196.869 199.2 198.413 200.039 199.332 201.397C200.232 200.071 201.751 199.2 203.473 199.2H218.449C219.044 199.2 219.615 199.304 220.145 199.495C220.674 199.304 221.245 199.2 221.84 199.2H226.52C229.281 199.2 231.52 201.439 231.52 204.2V204.586C233.874 204.735 236.33 205.392 238.344 207.051C240.845 209.11 241.864 212.04 241.864 215.024C241.864 218.233 240.699 221.253 238.129 223.357C235.712 225.336 232.664 226 229.784 226H221.84C220.036 226 218.456 225.045 217.577 223.614C216.697 225.045 215.117 226 213.313 226H208.633C207.507 226 206.468 225.628 205.632 225C204.779 225.64 203.729 226 202.632 226H197.688C195.65 226 193.816 224.764 193.053 222.875L192.996 222.736H192.635L192.579 222.875C191.815 224.764 189.981 226 187.944 226H183.096C181.971 226 180.897 225.622 180.033 224.952C177.886 225.944 175.457 226.36 173.134 226.36C171.115 226.36 168.995 226.04 166.932 225.376C166.202 225.779 165.372 226 164.513 226H159.569C157.531 226 155.698 224.764 154.934 222.875L154.878 222.736H154.516L154.46 222.875C153.696 224.764 151.863 226 149.825 226H144.977C144.869 226 144.761 225.996 144.654 225.99C144.547 225.996 144.439 226 144.331 226H138.979C137.885 226 136.841 225.642 135.991 225.009C135.158 225.632 134.123 226 133.003 226H128.275C126.504 226 124.948 225.079 124.06 223.69C123.172 225.079 121.616 226 119.845 226H115.165C112.403 226 110.165 223.761 110.165 221V220.912ZM115.165 221H119.845V207.968H124.981V204.2H110.005V207.968H115.165V221ZM128.275 221H133.003V214.568H135.163L138.979 221H144.331L139.027 212.312L144.283 204.2H139.291L135.283 210.728H133.003V204.2H128.275V221ZM181.006 216.328C181.006 216.31 181.006 216.291 181.006 216.272C181.006 216.05 180.99 215.834 180.958 215.624C180.891 215.179 180.754 214.761 180.553 214.378C180.268 213.833 179.856 213.357 179.335 212.968C178.955 212.685 178.518 212.448 178.03 212.264C178.576 211.996 179.043 211.642 179.412 211.218C179.885 210.672 180.195 210.01 180.297 209.264C180.322 209.085 180.334 208.901 180.334 208.712C180.334 208.377 180.293 208.057 180.214 207.754C179.556 205.231 176.296 203.816 172.654 203.816C172.638 203.816 172.622 203.816 172.606 203.816C172.282 203.817 171.954 203.829 171.624 203.853C170.601 203.926 169.562 204.11 168.557 204.413C167.938 204.6 167.332 204.832 166.75 205.112L168.142 208.712C168.232 208.664 168.322 208.618 168.413 208.573C168.801 208.382 169.202 208.219 169.606 208.082C169.847 208.001 170.088 207.929 170.329 207.866C170.51 207.82 170.69 207.778 170.868 207.742C171.472 207.621 172.062 207.56 172.606 207.56C172.622 207.56 172.638 207.56 172.654 207.56C172.957 207.562 173.247 207.584 173.518 207.625C174.163 207.722 174.702 207.928 175.059 208.242C175.174 208.342 175.27 208.454 175.345 208.576C175.372 208.62 175.396 208.665 175.417 208.712C175.494 208.878 175.534 209.062 175.534 209.264C175.534 209.273 175.534 209.281 175.534 209.29C175.534 209.319 175.532 209.348 175.53 209.377C175.529 209.394 175.527 209.41 175.525 209.426C175.449 210.111 174.88 210.569 173.902 210.662C173.781 210.674 173.653 210.68 173.518 210.68H169.606V214.16H173.902C175.077 214.16 175.959 214.49 176.162 215.263C176.191 215.374 176.206 215.494 176.206 215.624C176.206 215.636 176.206 215.648 176.206 215.661C176.206 215.664 176.206 215.667 176.206 215.67C176.199 215.889 176.147 216.09 176.054 216.272C176.041 216.299 176.027 216.325 176.012 216.35C175.937 216.478 175.842 216.595 175.729 216.703C175.322 217.091 174.68 217.354 173.902 217.488C173.659 217.53 173.402 217.559 173.134 217.576C172.962 217.587 172.786 217.592 172.606 217.592C172.332 217.592 172.05 217.58 171.762 217.555C171.062 217.495 170.33 217.363 169.606 217.155C169.384 217.092 169.162 217.021 168.942 216.943C168.629 216.832 168.319 216.706 168.017 216.565C167.984 216.55 167.95 216.534 167.917 216.518C167.848 216.485 167.779 216.451 167.71 216.416L166.294 219.728C166.467 219.815 166.642 219.899 166.817 219.979C167.215 220.161 167.62 220.324 168.029 220.47C168.519 220.644 169.015 220.792 169.512 220.914C170.04 221.044 170.569 221.145 171.095 221.218C171.604 221.288 172.109 221.332 172.606 221.35C172.783 221.357 172.959 221.36 173.134 221.36C175.018 221.36 176.772 220.996 178.143 220.313C178.656 220.058 179.115 219.758 179.508 219.416C180.433 218.611 180.99 217.571 181.006 216.328ZM195.192 204.2H190.512L183.096 221H187.944L189.264 217.736H196.368L197.688 221H202.632L195.192 204.2ZM192.816 208.856L190.656 214.232H194.976L192.816 208.856ZM157.073 204.2H152.393L144.977 221H149.825L151.145 217.736H158.249L159.569 221H164.513L157.073 204.2ZM154.697 208.856L152.537 214.232H156.857L154.697 208.856ZM107.938 212.522C107.924 210.818 107.456 209.269 106.634 207.968C106.189 207.265 105.641 206.634 105.005 206.09C103.365 204.689 101.142 203.864 98.6021 203.864C93.2261 203.864 89.2661 207.56 89.2661 212.6C89.2661 217.64 93.2261 221.336 98.6021 221.336C103.978 221.336 107.938 217.64 107.938 212.6C107.938 212.574 107.938 212.548 107.938 212.522ZM208.633 221H213.313V207.968H218.449V204.2H203.473V207.968H208.633V221ZM221.84 221H229.784C234.116 221 236.819 218.993 236.863 215.12C236.864 215.088 236.864 215.056 236.864 215.024C236.864 211.352 234.488 209.552 230.408 209.552H226.52V204.2H221.84V221ZM226.52 217.592H229.472C229.578 217.592 229.682 217.588 229.784 217.58C230.521 217.522 231.118 217.255 231.52 216.801C231.885 216.389 232.088 215.823 232.088 215.12C232.088 215.088 232.087 215.056 232.087 215.024C232.069 214.365 231.87 213.884 231.52 213.551C231.24 213.285 230.864 213.113 230.408 213.02C230.125 212.963 229.812 212.936 229.472 212.936H226.52V217.592ZM98.6021 212.4C98.5932 212.401 98.5519 212.406 98.4882 212.432C98.4068 212.465 98.3192 212.521 98.244 212.599C98.2435 212.599 98.2431 212.6 98.2427 212.6C98.2431 212.6 98.2435 212.601 98.244 212.601C98.3192 212.679 98.4068 212.735 98.4882 212.768C98.5519 212.794 98.5932 212.799 98.6021 212.8C98.611 212.799 98.6523 212.794 98.716 212.768C98.7974 212.735 98.885 212.679 98.9603 212.601C98.9607 212.601 98.9611 212.6 98.9616 212.6C98.9611 212.6 98.9607 212.599 98.9603 212.599C98.885 212.521 98.7974 212.465 98.716 212.432C98.6524 212.406 98.611 212.401 98.6021 212.4ZM96.7791 243.145C96.5191 242.867 96.1268 242.694 95.6022 242.633C95.4599 242.616 95.3079 242.608 95.1462 242.608H92.1222V245.92H95.1462C95.4126 245.92 95.6526 245.898 95.8662 245.855C96.5784 245.71 96.9971 245.325 97.1222 244.698C97.1431 244.593 97.1558 244.482 97.1603 244.364C97.1616 244.331 97.1622 244.298 97.1622 244.264C97.1622 244.252 97.1621 244.239 97.1619 244.227C97.1614 244.193 97.1603 244.161 97.1585 244.128C97.1529 244.027 97.1408 243.93 97.1222 243.838C97.1029 243.743 97.0767 243.653 97.0436 243.568C97.0252 243.521 97.0046 243.476 96.9819 243.432C96.9269 243.327 96.8593 243.231 96.7791 243.145ZM97.9022 250.464C97.8204 249.948 97.5593 249.587 97.1222 249.372C96.7992 249.214 96.3801 249.136 95.8662 249.136H92.1222V252.592H95.8662C95.9317 252.592 95.9957 252.591 96.0582 252.588C96.4855 252.569 96.8404 252.486 97.1222 252.34C97.3724 252.211 97.5649 252.033 97.6992 251.806C97.7536 251.714 97.7984 251.615 97.8336 251.507C97.8651 251.411 97.8889 251.309 97.905 251.2C97.9218 251.087 97.9302 250.967 97.9302 250.84C97.9302 250.827 97.9301 250.813 97.9299 250.8C97.9296 250.779 97.9291 250.759 97.9283 250.739C97.9248 250.643 97.9161 250.551 97.9022 250.464ZM87.4422 256V239.2H95.6022C99.169 239.2 101.424 240.454 101.878 242.693C101.934 242.97 101.962 243.262 101.962 243.568C101.962 243.808 101.945 244.04 101.91 244.264C101.799 244.983 101.512 245.613 101.074 246.137C100.71 246.574 100.241 246.936 99.6822 247.216C100.233 247.393 100.717 247.628 101.127 247.919C102.076 248.594 102.631 249.572 102.718 250.84C102.726 250.958 102.73 251.078 102.73 251.2C102.73 251.211 102.73 251.222 102.73 251.233C102.713 254.166 100.362 256 96.0582 256H87.4422ZM106.493 246.512C107.352 247.963 107.73 249.582 107.73 251.2C107.73 254.169 106.463 256.903 103.98 258.733C101.692 260.418 98.8388 261 96.0582 261H87.4422C84.6808 261 82.4422 258.761 82.4422 256V239.2C82.4422 236.439 84.6808 234.2 87.4422 234.2H95.6022C98.1574 234.2 100.876 234.688 103.106 236.212C105.576 237.899 106.962 240.546 106.962 243.568C106.962 244.612 106.798 245.599 106.493 246.512ZM109.686 239.2C109.686 236.439 111.925 234.2 114.686 234.2H130.454C132.265 234.2 133.852 235.163 134.729 236.606C137.167 234.855 140.22 233.864 143.501 233.864C146.792 233.864 149.853 234.861 152.294 236.62C153.169 235.17 154.76 234.2 156.578 234.2H160.49C162.235 234.2 163.853 235.109 164.761 236.6L166.341 239.195L167.855 236.646C168.756 235.13 170.39 234.2 172.154 234.2H176.066C177.884 234.2 179.475 235.17 180.35 236.621C182.792 234.861 185.853 233.864 189.144 233.864C192.434 233.864 195.495 234.861 197.936 236.62C198.812 235.17 200.403 234.2 202.22 234.2H206.9C207.688 234.2 208.433 234.382 209.096 234.707C209.759 234.382 210.504 234.2 211.292 234.2H215.972C216.751 234.2 217.487 234.378 218.144 234.695C218.801 234.378 219.538 234.2 220.316 234.2H224.996C226.046 234.2 227.021 234.524 227.826 235.077C228.63 234.524 229.605 234.2 230.655 234.2H235.335C236.681 234.2 237.904 234.732 238.803 235.598C239.725 234.71 240.965 234.2 242.271 234.2H246.735C249.496 234.2 251.735 236.439 251.735 239.2V256C251.735 258.761 249.496 261 246.735 261H242.055C240.714 261 239.497 260.472 238.599 259.613C237.677 260.495 236.442 261 235.143 261H231.913C231.242 262.968 229.376 264.384 227.18 264.384H222.812C220.616 264.384 218.751 262.968 218.079 261H202.22C200.403 261 198.812 260.03 197.936 258.58C195.495 260.339 192.434 261.336 189.144 261.336C185.868 261.336 182.819 260.348 180.383 258.603C180.179 258.937 179.936 259.249 179.655 259.53C178.717 260.471 177.443 261 176.114 261H171.722C170.23 261 168.89 260.346 167.973 259.309C167.777 259.332 167.578 259.344 167.378 259.344H165.266C165.073 259.344 164.882 259.333 164.693 259.311C163.777 260.347 162.438 261 160.946 261H156.578C154.76 261 153.169 260.03 152.294 258.58C149.853 260.339 146.792 261.336 143.501 261.336C140.22 261.336 137.167 260.345 134.729 258.594C133.852 260.037 132.265 261 130.454 261H125.75C124.536 261 123.424 260.568 122.558 259.849C121.692 260.568 120.579 261 119.366 261H114.686C111.925 261 109.686 258.761 109.686 256V239.2ZM125.75 256H130.454V239.2H114.686V256H119.366V242.968H125.75V256ZM135.454 252.207C137.041 254.736 139.965 256.336 143.501 256.336C147.06 256.336 149.998 254.716 151.578 252.159C152.385 250.854 152.837 249.304 152.837 247.6C152.837 245.896 152.385 244.346 151.578 243.041C149.998 240.484 147.06 238.864 143.501 238.864C139.965 238.864 137.041 240.464 135.454 242.993C134.629 244.309 134.165 245.876 134.165 247.6C134.165 249.324 134.629 250.891 135.454 252.207ZM156.578 256H160.946V247.288L165.266 254.344H167.378L171.698 247.096L171.722 256H176.114V255.988L176.066 239.2H172.154L166.394 248.896L160.49 239.2H156.578V256ZM181.103 252.218C182.692 254.741 185.612 256.336 189.144 256.336C192.702 256.336 195.641 254.716 197.22 252.159C198.027 250.854 198.48 249.304 198.48 247.6C198.48 245.896 198.027 244.346 197.22 243.041C195.641 240.484 192.702 238.864 189.144 238.864C185.593 238.864 182.659 240.477 181.077 243.024C180.264 244.333 179.808 245.889 179.808 247.6C179.808 249.329 180.274 250.9 181.103 252.218ZM202.22 256H222.812V259.384H227.18V252.232H224.996V239.2H220.316V252.232H215.972V239.2H211.292V252.232H206.9V239.2H202.22V256ZM230.655 256H235.143L242.055 246.16V256H246.735V239.2H242.271L235.335 249.064V239.2H230.655V256ZM143.615 247.432C143.552 247.406 143.51 247.401 143.501 247.4C143.492 247.401 143.451 247.406 143.387 247.432C143.306 247.465 143.218 247.521 143.143 247.599C143.143 247.599 143.142 247.6 143.142 247.6C143.142 247.6 143.143 247.601 143.143 247.601C143.218 247.679 143.306 247.735 143.387 247.768C143.451 247.794 143.492 247.799 143.501 247.8C143.51 247.799 143.552 247.794 143.615 247.768C143.697 247.735 143.784 247.679 143.859 247.601C143.86 247.601 143.86 247.6 143.861 247.6C143.86 247.6 143.86 247.599 143.859 247.599C143.784 247.521 143.697 247.465 143.615 247.432ZM189.143 247.4C189.134 247.401 189.093 247.406 189.03 247.432C188.948 247.465 188.861 247.521 188.785 247.599C188.785 247.599 188.784 247.6 188.784 247.6C188.784 247.6 188.785 247.601 188.785 247.601C188.861 247.679 188.948 247.735 189.03 247.768C189.093 247.794 189.135 247.799 189.144 247.8C189.152 247.799 189.194 247.794 189.257 247.768C189.339 247.735 189.426 247.679 189.502 247.601C189.502 247.601 189.503 247.6 189.503 247.6C189.503 247.6 189.502 247.599 189.502 247.599C189.426 247.521 189.339 247.465 189.257 247.432C189.194 247.406 189.152 247.401 189.143 247.4ZM94.0661 212.6C94.0661 215.504 96.0581 217.4 98.6021 217.4C101.146 217.4 103.138 215.504 103.138 212.6C103.138 209.696 101.146 207.8 98.6021 207.8C96.0581 207.8 94.0661 209.696 94.0661 212.6ZM138.965 247.6C138.965 250.504 140.957 252.4 143.501 252.4C146.045 252.4 148.037 250.504 148.037 247.6C148.037 244.696 146.045 242.8 143.501 242.8C140.957 242.8 138.965 244.696 138.965 247.6ZM184.608 247.6C184.608 250.504 186.6 252.4 189.144 252.4C191.688 252.4 193.68 250.504 193.68 247.6C193.68 244.696 191.688 242.8 189.144 242.8C186.6 242.8 184.608 244.696 184.608 247.6Z" fill="white"/>
<rect x="16" y="282" width="304" height="91" rx="24" fill="white"/>
<rect x="16" y="397" width="125" height="43" rx="13" fill="white"/>
<rect x="195" y="397" width="125" height="43" rx="13" fill="white"/>
<path d="M50.0887 324.14C53.1267 324.14 55.3667 322.012 55.3667 319.1C55.3667 316.188 53.1267 314.06 50.0887 314.06C47.0507 314.06 44.8107 316.202 44.8107 319.1C44.8107 321.998 47.0507 324.14 50.0887 324.14ZM50.0887 322.544C48.1147 322.544 46.6447 321.102 46.6447 319.1C46.6447 317.098 48.1147 315.656 50.0887 315.656C52.0627 315.656 53.5327 317.098 53.5327 319.1C53.5327 321.102 52.0627 322.544 50.0887 322.544ZM62.9681 316.524H55.9681V318.008H58.6001V324H60.3501V318.008H62.9681V316.524ZM69.5995 324H71.6575L68.7595 320.122L71.4755 316.524H69.5995L67.3875 319.548H65.9875V316.524H64.2375V324H65.9875V321.004H67.3455L69.5995 324ZM75.5411 316.44C74.3371 316.44 73.1751 316.748 72.3771 317.364L73.0631 318.638C73.6231 318.176 74.4911 317.896 75.3311 317.896C76.5771 317.896 77.1931 318.498 77.1931 319.52V319.632H75.2611C72.9931 319.632 72.1531 320.612 72.1531 321.858C72.1531 323.16 73.2311 324.098 74.9391 324.098C76.0591 324.098 76.8711 323.734 77.2911 323.09V324H78.9431V319.618C78.9431 317.462 77.6971 316.44 75.5411 316.44ZM75.3031 322.824C74.4071 322.824 73.8751 322.418 73.8751 321.788C73.8751 321.242 74.1971 320.794 75.3871 320.794H77.1931V321.662C76.8991 322.432 76.1571 322.824 75.3031 322.824ZM85.4789 320.108C86.2489 319.8 86.7389 319.198 86.7389 318.47C86.7389 317.238 85.3389 316.412 83.4209 316.412C82.4409 316.412 81.4749 316.622 80.4529 317.098L80.9009 318.386C81.7269 318.022 82.5109 317.84 83.2669 317.84C84.3169 317.84 84.9469 318.176 84.9469 318.722C84.9469 319.268 84.4289 319.576 83.5469 319.576H82.2309V320.752H83.6869C84.6249 320.752 85.1569 321.074 85.1569 321.662C85.1569 322.306 84.4429 322.684 83.2809 322.684C82.3569 322.684 81.4049 322.446 80.6769 322.04L80.1729 323.342C81.0689 323.846 82.2169 324.126 83.3649 324.126C85.4509 324.126 86.9489 323.188 86.9489 321.802C86.9489 320.976 86.4029 320.374 85.4789 320.108ZM91.5372 316.44C90.3332 316.44 89.1712 316.748 88.3732 317.364L89.0592 318.638C89.6192 318.176 90.4872 317.896 91.3272 317.896C92.5732 317.896 93.1892 318.498 93.1892 319.52V319.632H91.2572C88.9892 319.632 88.1492 320.612 88.1492 321.858C88.1492 323.16 89.2272 324.098 90.9352 324.098C92.0552 324.098 92.8672 323.734 93.2872 323.09V324H94.9392V319.618C94.9392 317.462 93.6932 316.44 91.5372 316.44ZM91.2992 322.824C90.4032 322.824 89.8712 322.418 89.8712 321.788C89.8712 321.242 90.1932 320.794 91.3832 320.794H93.1892V321.662C92.8952 322.432 92.1532 322.824 91.2992 322.824ZM103.027 316.524H96.0267V318.008H98.6587V324H100.409V318.008H103.027V316.524ZM108.048 318.988L106.046 318.974V316.524H104.296V324L107.796 324.014C109.84 324.028 111.002 323.09 111.002 321.452C111.002 319.898 109.966 318.988 108.048 318.988ZM107.642 322.726L106.046 322.712V320.178L107.642 320.192C108.678 320.206 109.224 320.57 109.224 321.424C109.224 322.292 108.664 322.74 107.642 322.726ZM121.827 320.108C122.541 319.8 122.975 319.226 122.975 318.456C122.975 317.224 121.883 316.524 120.063 316.524H116.409V324H120.217C122.233 324 123.213 323.216 123.213 321.9C123.213 320.99 122.751 320.388 121.827 320.108ZM118.075 317.798H119.909C120.805 317.798 121.267 318.092 121.267 318.708C121.267 319.324 120.805 319.646 119.909 319.646H118.075V317.798ZM120.077 322.726H118.075V320.808H120.133C121.085 320.808 121.519 321.13 121.519 321.788C121.519 322.432 121.015 322.726 120.077 322.726ZM128.947 316.524V324H130.697V318.008H134.379V324H136.115V316.524H128.947ZM141.808 324.098C144.132 324.098 145.798 322.502 145.798 320.262C145.798 318.022 144.132 316.44 141.808 316.44C139.512 316.44 137.832 318.022 137.832 320.262C137.832 322.502 139.512 324.098 141.808 324.098ZM141.808 322.6C140.548 322.6 139.596 321.69 139.596 320.262C139.596 318.834 140.548 317.924 141.808 317.924C143.082 317.924 144.034 318.834 144.034 320.262C144.034 321.69 143.082 322.6 141.808 322.6ZM156.459 324L156.445 316.524H154.807L152.021 321.2L149.361 316.524H147.527V324H149.123V319.03L151.601 323.216H152.357L154.877 319.044V324H156.459ZM162.138 324.098C164.462 324.098 166.128 322.502 166.128 320.262C166.128 318.022 164.462 316.44 162.138 316.44C159.842 316.44 158.162 318.022 158.162 320.262C158.162 322.502 159.842 324.098 162.138 324.098ZM162.138 322.6C160.878 322.6 159.926 321.69 159.926 320.262C159.926 318.834 160.878 317.924 162.138 317.924C163.412 317.924 164.364 318.834 164.364 320.262C164.364 321.69 163.412 322.6 162.138 322.6ZM178.875 322.516V316.524H177.125V322.516H174.255V316.524H172.505V322.516H169.607V316.524H167.857V324H178.315V325.54H179.953V322.516H178.875ZM181.228 324H182.838L186.954 319.072V324H188.704V316.524H187.108L182.978 321.452V316.524H181.228V324ZM191.604 321.774C190.96 321.774 190.47 322.236 190.47 322.936C190.47 323.44 190.736 323.804 191.128 323.972L190.568 326.114H191.702L192.416 324.14C192.668 323.496 192.738 323.244 192.738 322.936C192.738 322.25 192.262 321.774 191.604 321.774ZM201.747 324.098C203.203 324.098 204.365 323.468 204.939 322.348L203.595 321.564C203.147 322.278 202.475 322.6 201.733 322.6C200.445 322.6 199.465 321.718 199.465 320.262C199.465 318.82 200.445 317.924 201.733 317.924C202.475 317.924 203.147 318.246 203.595 318.96L204.939 318.176C204.365 317.042 203.203 316.44 201.747 316.44C199.381 316.44 197.701 318.022 197.701 320.262C197.701 322.502 199.381 324.098 201.747 324.098ZM209.702 324.098C212.026 324.098 213.692 322.502 213.692 320.262C213.692 318.022 212.026 316.44 209.702 316.44C207.406 316.44 205.726 318.022 205.726 320.262C205.726 322.502 207.406 324.098 209.702 324.098ZM209.702 322.6C208.442 322.6 207.49 321.69 207.49 320.262C207.49 318.834 208.442 317.924 209.702 317.924C210.976 317.924 211.928 318.834 211.928 320.262C211.928 321.69 210.976 322.6 209.702 322.6ZM218.823 324.098C220.279 324.098 221.441 323.468 222.015 322.348L220.671 321.564C220.223 322.278 219.551 322.6 218.809 322.6C217.521 322.6 216.541 321.718 216.541 320.262C216.541 318.82 217.521 317.924 218.809 317.924C219.551 317.924 220.223 318.246 220.671 318.96L222.015 318.176C221.441 317.042 220.279 316.44 218.823 316.44C216.457 316.44 214.777 318.022 214.777 320.262C214.777 322.502 216.457 324.098 218.823 324.098ZM224.12 316.524L223.994 319.408C223.91 320.962 223.868 322.558 222.72 322.558C222.622 322.558 222.51 322.544 222.384 322.516L222.3 323.986C222.664 324.084 222.986 324.14 223.266 324.14C225.03 324.14 225.422 322.152 225.548 319.492L225.618 318.008H228.418V324H230.168V316.524H224.12ZM235.311 316.44C234.107 316.44 232.945 316.748 232.147 317.364L232.833 318.638C233.393 318.176 234.261 317.896 235.101 317.896C236.347 317.896 236.963 318.498 236.963 319.52V319.632H235.031C232.763 319.632 231.923 320.612 231.923 321.858C231.923 323.16 233.001 324.098 234.709 324.098C235.829 324.098 236.641 323.734 237.061 323.09V324H238.713V319.618C238.713 317.462 237.467 316.44 235.311 316.44ZM235.073 322.824C234.177 322.824 233.645 322.418 233.645 321.788C233.645 321.242 233.967 320.794 235.157 320.794H236.963V321.662C236.669 322.432 235.927 322.824 235.073 322.824ZM246.296 320.108C247.01 319.8 247.444 319.226 247.444 318.456C247.444 317.224 246.352 316.524 244.532 316.524H240.878V324H244.686C246.702 324 247.682 323.216 247.682 321.9C247.682 320.99 247.22 320.388 246.296 320.108ZM242.544 317.798H244.378C245.274 317.798 245.736 318.092 245.736 318.708C245.736 319.324 245.274 319.646 244.378 319.646H242.544V317.798ZM244.546 322.726H242.544V320.808H244.602C245.554 320.808 245.988 321.13 245.988 321.788C245.988 322.432 245.484 322.726 244.546 322.726ZM258.814 316.524V322.516H255.944V316.524H254.194V322.516H251.296V316.524H249.546V324H260.564V316.524H258.814ZM262.917 324H264.527L268.643 319.072V324H270.393V316.524H268.797L264.667 321.452V316.524H262.917V324ZM276.149 324.098C277.605 324.098 278.767 323.468 279.341 322.348L277.997 321.564C277.549 322.278 276.877 322.6 276.135 322.6C274.847 322.6 273.867 321.718 273.867 320.262C273.867 318.82 274.847 317.924 276.135 317.924C276.877 317.924 277.549 318.246 277.997 318.96L279.341 318.176C278.767 317.042 277.605 316.44 276.149 316.44C273.783 316.44 272.103 318.022 272.103 320.262C272.103 322.502 273.783 324.098 276.149 324.098ZM284.634 318.988L282.632 318.974V316.524H280.882V324L284.382 324.014C286.426 324.028 287.588 323.09 287.588 321.452C287.588 319.898 286.552 318.988 284.634 318.988ZM284.228 322.726L282.632 322.712V320.178L284.228 320.192C285.264 320.206 285.81 320.57 285.81 321.424C285.81 322.292 285.25 322.74 284.228 322.726ZM75.51 340H77.26V337.046H81.026V340H82.776V332.524H81.026V335.562H77.26V332.524H75.51V340ZM87.9073 332.44C86.7033 332.44 85.5413 332.748 84.7433 333.364L85.4293 334.638C85.9893 334.176 86.8573 333.896 87.6973 333.896C88.9433 333.896 89.5593 334.498 89.5593 335.52V335.632H87.6273C85.3593 335.632 84.5193 336.612 84.5193 337.858C84.5193 339.16 85.5973 340.098 87.3053 340.098C88.4253 340.098 89.2373 339.734 89.6573 339.09V340H91.3093V335.618C91.3093 333.462 90.0633 332.44 87.9073 332.44ZM87.6693 338.824C86.7733 338.824 86.2413 338.418 86.2413 337.788C86.2413 337.242 86.5633 336.794 87.7533 336.794H89.5593V337.662C89.2653 338.432 88.5233 338.824 87.6693 338.824ZM97.344 332.524V340H99.094V334.008H102.776V340H104.512V332.524H97.344ZM107.601 332.524L107.475 335.408C107.391 336.962 107.349 338.558 106.201 338.558C106.103 338.558 105.991 338.544 105.865 338.516L105.781 339.986C106.145 340.084 106.467 340.14 106.747 340.14C108.511 340.14 108.903 338.152 109.029 335.492L109.099 334.008H111.899V340H113.649V332.524H107.601ZM119.338 340.098C121.662 340.098 123.328 338.502 123.328 336.262C123.328 334.022 121.662 332.44 119.338 332.44C117.042 332.44 115.362 334.022 115.362 336.262C115.362 338.502 117.042 340.098 119.338 340.098ZM119.338 338.6C118.078 338.6 117.126 337.69 117.126 336.262C117.126 334.834 118.078 333.924 119.338 333.924C120.612 333.924 121.564 334.834 121.564 336.262C121.564 337.69 120.612 338.6 119.338 338.6ZM131.461 340L128.535 336.178L131.335 332.524H129.445L127.611 334.974L125.777 332.524H123.831L126.617 336.206L123.705 340H125.637L127.569 337.41L129.487 340H131.461ZM135.799 340.098C138.123 340.098 139.789 338.502 139.789 336.262C139.789 334.022 138.123 332.44 135.799 332.44C133.503 332.44 131.823 334.022 131.823 336.262C131.823 338.502 133.503 340.098 135.799 340.098ZM135.799 338.6C134.539 338.6 133.587 337.69 133.587 336.262C133.587 334.834 134.539 333.924 135.799 333.924C137.073 333.924 138.025 334.834 138.025 336.262C138.025 337.69 137.073 338.6 135.799 338.6ZM148.518 336.304C148.518 333.966 146.922 332.44 144.738 332.44C142.512 332.44 140.874 334.036 140.874 336.262C140.874 338.488 142.498 340.098 145.004 340.098C146.292 340.098 147.342 339.678 148.014 338.88L147.076 337.802C146.544 338.348 145.886 338.614 145.046 338.614C143.744 338.614 142.834 337.914 142.624 336.822H148.49C148.504 336.654 148.518 336.444 148.518 336.304ZM144.738 333.84C145.886 333.84 146.712 334.582 146.852 335.66H142.61C142.778 334.568 143.604 333.84 144.738 333.84ZM157.703 340.098C159.159 340.098 160.321 339.468 160.895 338.348L159.551 337.564C159.103 338.278 158.431 338.6 157.689 338.6C156.401 338.6 155.421 337.718 155.421 336.262C155.421 334.82 156.401 333.924 157.689 333.924C158.431 333.924 159.103 334.246 159.551 334.96L160.895 334.176C160.321 333.042 159.159 332.44 157.703 332.44C155.337 332.44 153.657 334.022 153.657 336.262C153.657 338.502 155.337 340.098 157.703 340.098ZM165.222 332.44C164.018 332.44 162.856 332.748 162.058 333.364L162.744 334.638C163.304 334.176 164.172 333.896 165.012 333.896C166.258 333.896 166.874 334.498 166.874 335.52V335.632H164.942C162.674 335.632 161.834 336.612 161.834 337.858C161.834 339.16 162.912 340.098 164.62 340.098C165.74 340.098 166.552 339.734 166.972 339.09V340H168.624V335.618C168.624 333.462 167.378 332.44 165.222 332.44ZM164.984 338.824C164.088 338.824 163.556 338.418 163.556 337.788C163.556 337.242 163.878 336.794 165.068 336.794H166.874V337.662C166.58 338.432 165.838 338.824 164.984 338.824ZM179.721 340L179.707 332.524H178.069L175.283 337.2L172.623 332.524H170.789V340H172.385V335.03L174.863 339.216H175.619L178.139 335.044V340H179.721ZM185.401 340.098C187.725 340.098 189.391 338.502 189.391 336.262C189.391 334.022 187.725 332.44 185.401 332.44C183.105 332.44 181.425 334.022 181.425 336.262C181.425 338.502 183.105 340.098 185.401 340.098ZM185.401 338.6C184.141 338.6 183.189 337.69 183.189 336.262C183.189 334.834 184.141 333.924 185.401 333.924C186.675 333.924 187.627 334.834 187.627 336.262C187.627 337.69 186.675 338.6 185.401 338.6ZM195.711 332.524V335.8C195.109 336.08 194.451 336.22 193.835 336.22C192.827 336.22 192.225 335.786 192.225 334.806V332.524H190.475V334.918C190.475 336.78 191.567 337.62 193.457 337.62C194.283 337.62 195.039 337.424 195.711 337.102V340H197.461V332.524H195.711ZM205.191 332.524L202.825 338.054L200.473 332.524H198.653L201.915 340.028L201.789 340.322C201.453 341.064 201.089 341.358 200.473 341.358C199.997 341.358 199.521 341.162 199.185 340.84L198.485 342.128C198.961 342.562 199.745 342.814 200.487 342.814C201.733 342.814 202.685 342.296 203.371 340.602L206.871 332.524H205.191ZM213.504 336.108C214.218 335.8 214.652 335.226 214.652 334.456C214.652 333.224 213.56 332.524 211.74 332.524H208.086V340H211.894C213.91 340 214.89 339.216 214.89 337.9C214.89 336.99 214.428 336.388 213.504 336.108ZM209.752 333.798H211.586C212.482 333.798 212.944 334.092 212.944 334.708C212.944 335.324 212.482 335.646 211.586 335.646H209.752V333.798ZM211.754 338.726H209.752V336.808H211.81C212.762 336.808 213.196 337.13 213.196 337.788C213.196 338.432 212.692 338.726 211.754 338.726ZM220.156 340.098C221.612 340.098 222.774 339.468 223.348 338.348L222.004 337.564C221.556 338.278 220.884 338.6 220.142 338.6C218.854 338.6 217.874 337.718 217.874 336.262C217.874 334.82 218.854 333.924 220.142 333.924C220.884 333.924 221.556 334.246 222.004 334.96L223.348 334.176C222.774 333.042 221.612 332.44 220.156 332.44C217.79 332.44 216.11 334.022 216.11 336.262C216.11 338.502 217.79 340.098 220.156 340.098ZM230.743 332.524H223.743V334.008H226.375V340H228.125V334.008H230.743V332.524ZM237.43 336.108C238.144 335.8 238.578 335.226 238.578 334.456C238.578 333.224 237.486 332.524 235.666 332.524H232.012V340H235.82C237.836 340 238.816 339.216 238.816 337.9C238.816 336.99 238.354 336.388 237.43 336.108ZM233.678 333.798H235.512C236.408 333.798 236.87 334.092 236.87 334.708C236.87 335.324 236.408 335.646 235.512 335.646H233.678V333.798ZM235.68 338.726H233.678V336.808H235.736C236.688 336.808 237.122 337.13 237.122 337.788C237.122 338.432 236.618 338.726 235.68 338.726ZM240.68 340H242.29L246.406 335.072V340H248.156V332.524H246.56L242.43 337.452V332.524H240.68V340ZM257.51 336.304C257.51 333.966 255.914 332.44 253.73 332.44C251.504 332.44 249.866 334.036 249.866 336.262C249.866 338.488 251.49 340.098 253.996 340.098C255.284 340.098 256.334 339.678 257.006 338.88L256.068 337.802C255.536 338.348 254.878 338.614 254.038 338.614C252.736 338.614 251.826 337.914 251.616 336.822H257.482C257.496 336.654 257.51 336.444 257.51 336.304ZM253.73 333.84C254.878 333.84 255.704 334.582 255.844 335.66H251.602C251.77 334.568 252.596 333.84 253.73 333.84ZM259.956 340.098C260.586 340.098 261.104 339.608 261.104 338.936C261.104 338.236 260.586 337.774 259.956 337.774C259.326 337.774 258.808 338.236 258.808 338.936C258.808 339.608 259.326 340.098 259.956 340.098Z" fill="black"/>
<path d="M250 5C250 26.7477 241.361 47.6048 225.983 62.9828C210.605 78.3607 189.748 87 168 87C146.252 87 125.395 78.3607 110.017 62.9828C94.6393 47.6048 86 26.7478 86 5.00002L168 5H250Z" fill="white"/>
<path d="M48.032 423.216C48.032 414.96 35.328 417.52 35.328 414.096C35.328 412.976 36.288 412.08 38.944 412.08C40.896 412.08 43.008 412.656 45.152 413.808L47.104 409.104C45.312 408.048 42.976 407.408 40.608 407.216V403.76H36.768V407.28C31.584 407.92 29.056 410.896 29.056 414.416C29.056 422.736 41.792 420.144 41.792 423.696C41.792 424.784 40.768 425.52 38.144 425.52C35.552 425.52 32.736 424.624 30.752 423.312L28.672 427.984C30.528 429.264 33.568 430.192 36.768 430.416V433.84H40.608V430.288C45.6 429.552 48.032 426.608 48.032 423.216Z" fill="#2862F3"/>
<path d="M70.78 426.24C74.24 426.24 76.78 423.62 76.78 419C76.78 414.38 74.24 411.76 70.78 411.76C67.34 411.76 64.78 414.38 64.78 419C64.78 423.62 67.34 426.24 70.78 426.24ZM70.78 423.5C69.18 423.5 68.06 422.18 68.06 419C68.06 415.82 69.18 414.5 70.78 414.5C72.4 414.5 73.52 415.82 73.52 419C73.52 422.18 72.4 423.5 70.78 423.5ZM79.9603 422.28C78.8603 422.28 78.0203 423.04 78.0203 424.2C78.0203 425.02 78.4403 425.64 79.1003 425.9L78.2203 429.08H80.2003L81.3403 426.2C81.8003 425.1 81.8803 424.72 81.8803 424.2C81.8803 423.06 81.0803 422.28 79.9603 422.28ZM89.0808 426.24C92.5408 426.24 95.0808 423.62 95.0808 419C95.0808 414.38 92.5408 411.76 89.0808 411.76C85.6408 411.76 83.0808 414.38 83.0808 419C83.0808 423.62 85.6408 426.24 89.0808 426.24ZM89.0808 423.5C87.4808 423.5 86.3608 422.18 86.3608 419C86.3608 415.82 87.4808 414.5 89.0808 414.5C90.7008 414.5 91.8208 415.82 91.8208 419C91.8208 422.18 90.7008 423.5 89.0808 423.5ZM102.655 426.24C106.115 426.24 108.655 423.62 108.655 419C108.655 414.38 106.115 411.76 102.655 411.76C99.215 411.76 96.655 414.38 96.655 419C96.655 423.62 99.215 426.24 102.655 426.24ZM102.655 423.5C101.055 423.5 99.935 422.18 99.935 419C99.935 415.82 101.055 414.5 102.655 414.5C104.275 414.5 105.395 415.82 105.395 419C105.395 422.18 104.275 423.5 102.655 423.5Z" fill="black"/>
<path d="M238.22 423.36L241.44 420.32C243.4 418.5 243.78 417.26 243.78 415.9C243.78 413.36 241.7 411.76 238.58 411.76C236.06 411.76 234.1 412.78 233.02 414.36L235.38 415.88C236.06 414.94 237.08 414.48 238.28 414.48C239.76 414.48 240.52 415.12 240.52 416.22C240.52 416.9 240.3 417.62 239.06 418.8L233.66 423.9V426H244.24V423.36H238.22ZM251.538 426.24C254.998 426.24 257.538 423.62 257.538 419C257.538 414.38 254.998 411.76 251.538 411.76C248.098 411.76 245.538 414.38 245.538 419C245.538 423.62 248.098 426.24 251.538 426.24ZM251.538 423.5C249.938 423.5 248.818 422.18 248.818 419C248.818 415.82 249.938 414.5 251.538 414.5C253.158 414.5 254.278 415.82 254.278 419C254.278 422.18 253.158 423.5 251.538 423.5ZM278.816 426L278.776 415.24H275.856L272.196 421.46L268.756 415.24H265.496V426H268.316V419.54L271.456 424.96H272.776L275.996 419.56V426H278.816ZM281.805 426H284.685L289.905 419.6V426H293.005V415.24H290.145L284.905 421.64V415.24H281.805V426ZM296.004 426H299.104V421.98H303.784V426H306.904V415.24H303.784V419.44H299.104V415.24H296.004V426Z" fill="black"/>
<path d="M216.5 406C209.595 406 204 411.595 204 418.5C204 425.405 209.595 431 216.5 431C223.405 431 229 425.405 229 418.5C229 411.595 223.405 406 216.5 406Z" fill="#2862F3"/>
<path fill-rule="evenodd" clip-rule="evenodd" d="M215.961 410C214.878 410 214 410.878 214 411.961V419.153C214 419.311 214.019 419.464 214.054 419.611C214.047 420.263 214.376 420.901 214.974 421.262L220.414 424.535C221.313 425.077 222.481 424.786 223.022 423.887C223.563 422.988 223.273 421.82 222.374 421.279L217.923 418.6V411.961C217.923 410.878 217.045 410 215.961 410Z" fill="white"/>
<g filter="url(#filter0_d)">
<path d="M162.531 400.393L185.975 433.213C179.766 434.57 168.698 428.331 168.698 428.331C168.698 428.331 160.834 438.706 154.912 440L162.531 400.393Z" fill="white"/>
</g>
<path fill-rule="evenodd" clip-rule="evenodd" d="M154.912 440L158.469 421.51C161.522 424.284 164.956 426.604 168.698 428.331C168.698 428.331 160.834 438.706 154.912 440Z" fill="#AFD4FF"/>
<path d="M167.83 53.894L175.486 46.818C181.286 41.482 182.388 37.886 182.388 33.942C182.388 26.402 175.95 21.588 166.612 21.588C158.608 21.588 152.866 24.952 149.792 30.056L158.318 34.812C159.942 32.202 162.61 30.868 165.568 30.868C169.048 30.868 170.788 32.434 170.788 35.044C170.788 36.726 170.324 38.582 167.076 41.598L151.88 55.808V63H183.49V53.894H167.83Z" fill="#2862F3"/>
<g filter="url(#filter1_di)">
<path d="M182.026 143L203.064 121.963C205.645 119.381 205.645 115.195 203.064 112.612L198.388 107.936C195.807 105.355 191.621 105.355 189.037 107.936L168 128.974L146.963 107.936C144.381 105.355 140.195 105.355 137.612 107.936L132.936 112.612C130.355 115.193 130.355 119.379 132.936 121.963L153.974 143L132.936 164.037C130.355 166.619 130.355 170.805 132.936 173.388L137.612 178.064C140.193 180.645 144.381 180.645 146.963 178.064L168 157.026L189.037 178.064C191.619 180.645 195.807 180.645 198.388 178.064L203.064 173.388C205.645 170.807 205.645 166.621 203.064 164.037L182.026 143Z" fill="white"/>
</g>
<defs>
<filter id="filter0_d" x="150.912" y="396.393" width="45.0628" height="53.6066" filterUnits="userSpaceOnUse" color-interpolation-filters="sRGB">
<feFlood flood-opacity="0" result="BackgroundImageFix"/>
<feColorMatrix in="SourceAlpha" type="matrix" values="0 0 0 0 0 0 0 0 0 0 0 0 0 0 0 0 0 0 127 0"/>
<feOffset dx="3" dy="3"/>
<feGaussianBlur stdDeviation="3.5"/>
<feColorMatrix type="matrix" values="0 0 0 0 0.11124 0 0 0 0 0.205788 0 0 0 0 0.754167 0 0 0 0.66 0"/>
<feBlend mode="normal" in2="BackgroundImageFix" result="effect1_dropShadow"/>
<feBlend mode="normal" in="SourceGraphic" in2="effect1_dropShadow" result="shape"/>
</filter>
<filter id="filter1_di" x="125" y="100" width="94" height="94" filterUnits="userSpaceOnUse" color-interpolation-filters="sRGB">
<feFlood flood-opacity="0" result="BackgroundImageFix"/>
<feColorMatrix in="SourceAlpha" type="matrix" values="0 0 0 0 0 0 0 0 0 0 0 0 0 0 0 0 0 0 127 0"/>
<feOffset dx="4" dy="4"/>
<feGaussianBlur stdDeviation="5"/>
<feColorMatrix type="matrix" values="0 0 0 0 0.168813 0 0 0 0 0.394509 0 0 0 0 0.9125 0 0 0 1 0"/>
<feBlend mode="normal" in2="BackgroundImageFix" result="effect1_dropShadow"/>
<feBlend mode="normal" in="SourceGraphic" in2="effect1_dropShadow" result="shape"/>
<feColorMatrix in="SourceAlpha" type="matrix" values="0 0 0 0 0 0 0 0 0 0 0 0 0 0 0 0 0 0 127 0" result="hardAlpha"/>
<feOffset dx="-4" dy="-4"/>
<feGaussianBlur stdDeviation="4.5"/>
<feComposite in2="hardAlpha" operator="arithmetic" k2="-1" k3="1"/>
<feColorMatrix type="matrix" values="0 0 0 0 0.564167 0 0 0 0 0.713194 0 0 0 0 1 0 0 0 1 0"/>
<feBlend mode="normal" in2="shape" result="effect2_innerShadow"/>
</filter>
<linearGradient id="paint0_linear" x1="57.5" y1="-9" x2="289.5" y2="495.5" gradientUnits="userSpaceOnUse">
<stop stop-color="#3793FF"/>
<stop offset="1" stop-color="#141CE1"/>
</linearGradient>
<linearGradient id="paint1_linear" x1="49" y1="11" x2="301.5" y2="474" gradientUnits="userSpaceOnUse">
<stop stop-color="#6369FF"/>
<stop offset="1" stop-color="#51B5F4"/>
</linearGradient>
<linearGradient id="paint2_linear" x1="57.5" y1="-9" x2="289.5" y2="495.5" gradientUnits="userSpaceOnUse">
<stop stop-color="#00E0FF"/>
<stop offset="1" stop-color="#42F2D1"/>
</linearGradient>
<linearGradient id="paint3_linear" x1="49" y1="11" x2="301.5" y2="474" gradientUnits="userSpaceOnUse">
<stop stop-color="#51B5F5"/>
<stop offset="1" stop-color="#28D7BE"/>
</linearGradient>
<linearGradient id="paint4_linear" x1="308.165" y1="473.49" x2="92.7043" y2="54.1817" gradientUnits="userSpaceOnUse">
<stop stop-color="#73F5FF"/>
<stop offset="0.99" stop-color="#7AFFEC"/>
</linearGradient>
<linearGradient id="paint5_linear" x1="18.7592" y1="227" x2="211" y2="227" gradientUnits="userSpaceOnUse">
<stop stop-color="white"/>
<stop offset="0.99" stop-color="white" stop-opacity="0.4"/>
</linearGradient>
<linearGradient id="paint6_linear" x1="176.9" y1="65" x2="257" y2="65" gradientUnits="userSpaceOnUse">
<stop stop-color="white"/>
<stop offset="0.99" stop-color="white" stop-opacity="0.4"/>
</linearGradient>
</defs>
</svg>
