<svg width="338" height="474" viewBox="0 0 338 474" fill="none" xmlns="http://www.w3.org/2000/svg">
<rect x="2.5" y="2.5" width="331" height="469" rx="32.5" fill="url(#paint0_linear)" stroke="url(#paint1_linear)" stroke-width="5"/>
<mask id="mask0" mask-type="alpha" maskUnits="userSpaceOnUse" x="2" y="0" width="336" height="474">
<rect x="4.5" y="2.5" width="331" height="469" rx="41.5" fill="url(#paint2_linear)" stroke="url(#paint3_linear)" stroke-width="5"/>
</mask>
<g mask="url(#mask0)">
<path d="M198.89 5.0093C198.89 5.0093 97.8208 47.0947 93.9888 101.845C90.1568 156.595 112.775 152.615 106.069 185.086C99.3632 217.557 -10.9124 255.616 18.7856 356.766C48.4837 457.916 142.368 370.584 242 469H35C18.4315 469 5 455.569 5 439V35.0014C5 18.4323 18.4323 5.00064 35.0014 5.00144L198.89 5.0093Z" fill="url(#paint4_linear)" fill-opacity="0.5"/>
</g>
<path opacity="0.46" d="M219.887 378C202.092 377.978 184.702 372.68 169.917 362.777C155.131 352.875 143.613 338.811 136.819 322.363C130.024 305.916 128.258 287.824 131.743 270.373C135.229 252.922 143.809 236.896 156.4 224.321C168.992 211.745 185.028 203.185 202.483 199.721C219.939 196.258 238.029 198.046 254.468 204.862C270.906 211.677 284.956 223.212 294.84 238.01C304.724 252.808 310 270.204 310 288C309.958 311.876 300.447 334.761 283.553 351.633C266.66 368.506 243.763 377.988 219.887 378ZM219.887 222.747C206.985 222.764 194.378 226.607 183.659 233.788C172.94 240.969 164.59 251.166 159.665 263.091C154.74 275.016 153.461 288.134 155.989 300.786C158.517 313.438 164.739 325.056 173.868 334.173C182.998 343.29 194.625 349.496 207.28 352.006C219.936 354.517 233.051 353.219 244.97 348.278C256.888 343.336 267.074 334.972 274.24 324.243C281.406 313.515 285.231 300.902 285.231 288C285.177 270.703 278.27 254.132 266.022 241.918C253.774 229.704 237.184 222.843 219.887 222.837V222.747Z" fill="url(#paint5_linear)"/>
<path opacity="0.46" d="M99.9498 126C92.0407 125.99 84.3121 123.636 77.7407 119.234C71.1694 114.833 66.0503 108.583 63.0305 101.273C60.0106 93.9627 59.2257 85.9216 60.7747 78.1657C62.3238 70.4097 66.1374 63.2871 71.7335 57.698C77.3296 52.1089 84.457 48.3043 92.2148 46.7649C99.9727 45.2256 108.013 46.0207 115.319 49.0496C122.625 52.0786 128.869 57.2055 133.262 63.7824C137.655 70.3593 140 78.0909 140 86C139.981 96.6116 135.754 106.783 128.246 114.281C120.738 121.78 110.561 125.995 99.9498 126ZM99.9498 56.9985C94.2156 57.0064 88.6124 58.7141 83.8484 61.9056C79.0844 65.0972 75.3735 69.6294 73.1846 74.9294C70.9957 80.2294 70.4271 86.0594 71.5506 91.6825C72.6742 97.3056 75.4395 102.469 79.497 106.521C83.5545 110.573 88.7222 113.331 94.3468 114.447C99.9715 115.563 105.801 114.986 111.098 112.79C116.395 110.594 120.922 106.877 124.107 102.108C127.292 97.3398 128.991 91.7342 128.991 86C128.968 78.3124 125.898 70.9477 120.454 65.5193C115.011 60.0908 107.637 57.0412 99.9498 57.0386V56.9985Z" fill="url(#paint6_linear)"/>
<path d="M122.628 224.6V230.386H116.688V224.6H112.332V240H116.688V233.994H122.628V240H126.984V224.6H122.628Z" fill="black"/>
<path d="M143.229 240H147.761L140.941 224.6H136.651L129.853 240H134.297L135.507 237.008H142.019L143.229 240ZM136.783 233.796L138.763 228.868L140.743 233.796H136.783Z" fill="black"/>
<path d="M160.922 224.6V230.386H154.982V224.6H150.626V240H154.982V233.994H160.922V240H165.278V224.6H160.922Z" fill="black"/>
<path d="M175.649 224.6C171.425 224.6 168.763 226.822 168.763 230.452C168.763 232.85 169.907 234.588 171.931 235.49L168.807 240H173.383L175.913 236.128H178.289V240H182.579V224.6H175.649ZM175.737 228.032H178.289V232.762H175.693C174.043 232.762 173.163 231.926 173.163 230.386C173.163 228.824 174.043 228.032 175.737 228.032Z" fill="black"/>
<path d="M199.394 224.6H185.666V228.054H190.396V240H194.686V228.054H199.394V224.6Z" fill="black"/>
<path d="M210.356 229.506H206.792V224.6H202.502V240H209.784C213.788 240 216.274 238.13 216.274 234.522C216.274 231.156 214.096 229.506 210.356 229.506ZM209.498 236.876H206.792V232.608H209.498C210.972 232.608 211.896 233.158 211.896 234.61C211.896 236.062 210.95 236.876 209.498 236.876Z" fill="black"/>
<path d="M52.4024 250.6V256.386H46.4624V250.6H42.1064V266H46.4624V259.994H52.4024V266H56.7584V250.6H52.4024Z" fill="black"/>
<path d="M65.4794 262.634V259.818H72.3214V256.562H65.4794V253.966H73.2454V250.6H61.1674V266H73.5314V262.634H65.4794Z" fill="black"/>
<path d="M84.4611 249.676C87.6511 249.676 89.0151 248.4 89.0151 246.09H86.0891C86.0671 247.102 85.5611 247.608 84.4611 247.608C83.3611 247.608 82.8991 247.102 82.8771 246.09H79.9511C79.9511 248.4 81.2711 249.676 84.4611 249.676ZM77.1131 266H81.2271L87.5631 256.98V266H91.8531V250.6H87.7611L81.4031 259.642V250.6H77.1131V266Z" fill="black"/>
<path d="M103.3 250.6H96.26V266H100.616V261.974H103.3C107.502 261.974 110.142 259.796 110.142 256.298C110.142 252.778 107.502 250.6 103.3 250.6ZM103.036 258.542H100.616V254.032H103.036C104.84 254.032 105.742 254.868 105.742 256.298C105.742 257.706 104.84 258.542 103.036 258.542Z" fill="black"/>
<path d="M120.998 266.308C125.926 266.308 129.556 262.92 129.556 258.3C129.556 253.68 125.926 250.292 120.998 250.292C116.07 250.292 112.44 253.68 112.44 258.3C112.44 262.92 116.07 266.308 120.998 266.308ZM120.998 262.7C118.666 262.7 116.84 260.962 116.84 258.3C116.84 255.638 118.666 253.9 120.998 253.9C123.33 253.9 125.156 255.638 125.156 258.3C125.156 260.962 123.33 262.7 120.998 262.7Z" fill="black"/>
<path d="M151.949 258.256C151.949 254.23 149.155 251.81 143.941 251.458V249.874H139.959V251.458C134.745 251.854 131.951 254.23 131.951 258.256C131.951 262.26 134.745 264.658 139.959 265.032V266.726H143.941V265.032C149.177 264.724 151.949 262.26 151.949 258.256ZM143.941 261.644V254.868C146.493 255.154 147.725 256.21 147.725 258.234C147.725 260.258 146.559 261.358 143.941 261.644ZM136.175 258.256C136.175 256.21 137.319 255.176 139.959 254.868V261.622C137.473 261.314 136.175 260.28 136.175 258.256Z" fill="black"/>
<path d="M155.312 266H159.426L165.762 256.98V266H170.052V250.6H165.96L159.602 259.642V250.6H155.312V266Z" fill="black"/>
<path d="M183.985 257.992C185.283 257.354 186.097 256.188 186.097 254.736C186.097 251.876 182.797 250.248 179.057 250.248C177.253 250.248 175.339 250.622 173.645 251.436L174.921 254.736C176.241 254.032 177.759 253.68 179.013 253.68C180.531 253.68 181.697 254.208 181.697 255.242C181.697 256.034 181.037 256.54 179.849 256.54H176.263V259.73H180.201C181.433 259.73 182.313 260.126 182.313 261.072C182.313 262.26 180.861 262.876 179.013 262.876C177.605 262.876 175.955 262.524 174.525 261.798L173.227 264.834C175.229 265.846 177.451 266.33 179.497 266.33C183.413 266.33 186.713 264.614 186.713 261.666C186.713 259.972 185.679 258.63 183.985 257.992Z" fill="black"/>
<path d="M190.168 266H194.282L200.618 256.98V266H204.908V250.6H200.816L194.458 259.642V250.6H190.168V266Z" fill="black"/>
<path d="M216.883 266.308C221.811 266.308 225.441 262.92 225.441 258.3C225.441 253.68 221.811 250.292 216.883 250.292C211.955 250.292 208.325 253.68 208.325 258.3C208.325 262.92 211.955 266.308 216.883 266.308ZM216.883 262.7C214.551 262.7 212.725 260.962 212.725 258.3C212.725 255.638 214.551 253.9 216.883 253.9C219.215 253.9 221.041 255.638 221.041 258.3C221.041 260.962 219.215 262.7 216.883 262.7Z" fill="black"/>
<path d="M230.398 250.6L230.178 256.738C230.046 260.214 229.716 262.502 227.934 262.502C227.736 262.502 227.538 262.48 227.34 262.436L227.098 266C227.824 266.176 228.484 266.264 229.078 266.264C232.994 266.264 233.808 262.568 234.006 256.562L234.094 254.054H238.516V266H242.806V250.6H230.398Z" fill="black"/>
<path d="M254.769 266.308C259.697 266.308 263.327 262.92 263.327 258.3C263.327 253.68 259.697 250.292 254.769 250.292C249.841 250.292 246.211 253.68 246.211 258.3C246.211 262.92 249.841 266.308 254.769 266.308ZM254.769 262.7C252.437 262.7 250.611 260.962 250.611 258.3C250.611 255.638 252.437 253.9 254.769 253.9C257.101 253.9 258.927 255.638 258.927 258.3C258.927 260.962 257.101 262.7 254.769 262.7Z" fill="black"/>
<path d="M278.042 250.6H266.756V266H271.046V254.054H278.02L278.042 250.6Z" fill="black"/>
<path d="M289.897 266H294.429L287.609 250.6H283.319L276.521 266H280.965L282.175 263.008H288.687L289.897 266ZM283.451 259.796L285.431 254.868L287.411 259.796H283.451Z" fill="black"/>
<path fill-rule="evenodd" clip-rule="evenodd" d="M119.658 220.577C120.489 219.963 121.516 219.6 122.628 219.6H126.984C129.269 219.6 131.196 221.132 131.793 223.225L132.077 222.581C132.877 220.769 134.671 219.6 136.651 219.6H140.941C142.92 219.6 144.712 220.766 145.513 222.575L145.811 223.248C146.401 221.143 148.333 219.6 150.626 219.6H154.982C156.094 219.6 157.122 219.963 157.952 220.577C158.783 219.963 159.81 219.6 160.922 219.6H165.278C166.745 219.6 168.064 220.232 168.979 221.238C171.004 220.078 173.338 219.6 175.649 219.6H182.579C183.118 219.6 183.637 219.685 184.123 219.843C184.609 219.685 185.128 219.6 185.666 219.6H199.394C199.937 219.6 200.459 219.686 200.948 219.846C201.437 219.686 201.96 219.6 202.502 219.6H206.792C209.543 219.6 211.775 221.821 211.792 224.568C213.89 224.755 216.075 225.392 217.896 226.892C220.305 228.875 221.274 231.691 221.274 234.522C221.274 237.567 220.166 240.463 217.698 242.483C215.383 244.378 212.482 245 209.784 245H202.502C200.921 245 199.511 244.266 198.594 243.119C197.678 244.266 196.268 245 194.686 245H190.396C188.814 245 187.404 244.265 186.488 243.118C185.572 244.265 184.161 245 182.579 245H178.289C177.397 245 176.56 244.767 175.835 244.357C175.098 244.772 174.256 245 173.383 245H168.807C168.195 245 167.599 244.888 167.044 244.679C166.495 244.886 165.9 245 165.278 245H160.922C159.81 245 158.783 244.637 157.952 244.023C157.122 244.637 156.094 245 154.982 245H150.626C150.128 245 149.646 244.927 149.192 244.791C148.733 244.928 148.252 245 147.761 245H145.062C146.321 245.288 147.398 246.052 148.096 247.091C149.081 247.361 150.034 247.721 150.931 248.189C151.782 246.645 153.425 245.6 155.312 245.6H159.602C160.809 245.6 161.917 246.028 162.781 246.741C163.666 246.012 164.786 245.6 165.96 245.6H170.052C171.044 245.6 171.968 245.889 172.745 246.387C174.832 245.594 177.018 245.248 179.057 245.248C181.564 245.248 184.266 245.78 186.525 247.116C186.537 247.123 186.549 247.13 186.561 247.137C187.471 246.19 188.751 245.6 190.168 245.6H194.458C195.666 245.6 196.773 246.028 197.637 246.741C198.522 246.012 199.643 245.6 200.816 245.6H204.908C206.564 245.6 208.032 246.405 208.942 247.646C211.189 246.139 213.942 245.292 216.883 245.292C220.306 245.292 223.476 246.44 225.888 248.44C226.695 246.756 228.416 245.6 230.398 245.6H242.806C244.46 245.6 245.926 246.403 246.836 247.64C249.082 246.137 251.832 245.292 254.769 245.292C257.713 245.292 260.469 246.141 262.717 247.651C263.627 246.408 265.097 245.6 266.756 245.6H278.042C278.982 245.6 279.895 245.865 280.68 246.353C281.457 245.87 282.366 245.6 283.319 245.6H287.609C289.587 245.6 291.379 246.766 292.18 248.575L299 263.975C299.685 265.522 299.542 267.31 298.619 268.727C297.697 270.145 296.12 271 294.429 271H289.897C287.997 271 286.274 269.925 285.431 268.248C284.587 269.925 282.865 271 280.965 271H276.521C275.534 271 274.586 270.709 273.784 270.184C272.997 270.7 272.056 271 271.046 271H266.756C265.097 271 263.627 270.192 262.717 268.949C260.469 270.459 257.713 271.308 254.769 271.308C251.832 271.308 249.082 270.463 246.836 268.96C245.926 270.197 244.46 271 242.806 271H238.516C237.041 271 235.714 270.361 234.799 269.344C234.651 269.463 234.497 269.579 234.337 269.691C232.711 270.827 230.874 271.264 229.078 271.264C228.001 271.264 226.938 271.106 225.92 270.859C225.053 270.649 224.288 270.221 223.674 269.644C221.665 270.717 219.34 271.308 216.883 271.308C213.942 271.308 211.189 270.461 208.942 268.954C208.032 270.195 206.564 271 204.908 271H200.618C199.416 271 198.313 270.576 197.45 269.868C196.567 270.592 195.451 271 194.282 271H190.168C188.836 271 187.626 270.479 186.73 269.63C184.522 270.84 181.937 271.33 179.497 271.33C177.338 271.33 175.059 270.941 172.874 270.128C172.071 270.678 171.099 271 170.052 271H165.762C164.56 271 163.456 270.576 162.594 269.868C161.711 270.592 160.595 271 159.426 271H155.312C153.398 271 151.735 269.925 150.895 268.345C150.031 268.791 149.116 269.137 148.168 269.398C147.282 270.797 145.72 271.726 143.941 271.726H139.959C138.166 271.726 136.594 270.782 135.711 269.364C134.051 268.897 132.486 268.174 131.124 267.11C128.622 269.754 124.982 271.308 120.998 271.308C116.281 271.308 112.046 269.129 109.61 265.542C108.341 266.204 106.962 266.613 105.55 266.817C105.16 269.19 103.099 271 100.616 271H96.26C95.4692 271 94.7213 270.816 94.0565 270.49C93.3918 270.816 92.6439 271 91.8531 271H87.5631C86.3607 271 85.2575 270.576 84.395 269.868C83.5119 270.592 82.3958 271 81.2271 271H77.1131C76.482 271 75.8782 270.883 75.3222 270.67C74.7662 270.883 74.1625 271 73.5314 271H61.1674C60.3762 271 59.6279 270.816 58.9629 270.489C58.2979 270.816 57.5496 271 56.7584 271H52.4024C51.2903 271 50.2629 270.637 49.4324 270.023C48.602 270.637 47.5746 271 46.4624 271H42.1064C39.345 271 37.1064 268.761 37.1064 266V250.6C37.1064 247.839 39.345 245.6 42.1064 245.6H46.4624C47.5746 245.6 48.602 245.963 49.4324 246.577C50.2629 245.963 51.2903 245.6 52.4024 245.6H56.7584C57.5496 245.6 58.2979 245.784 58.9629 246.111C59.6279 245.784 60.3762 245.6 61.1674 245.6H73.2454C73.8457 245.6 74.4213 245.706 74.9546 245.9C75.0546 243.226 77.2534 241.09 79.9511 241.09H82.8771C83.4386 241.09 83.9788 241.183 84.4831 241.354C84.9874 241.183 85.5276 241.09 86.0891 241.09H89.0151C91.7765 241.09 94.0151 243.329 94.0151 246.09C94.0151 246.09 94.0151 246.09 94.0151 246.09C94.0289 246.097 94.0428 246.104 94.0565 246.11C94.7213 245.784 95.4692 245.6 96.26 245.6H103.3C106.215 245.6 109.17 246.355 111.491 248.283C111.607 248.379 111.72 248.477 111.831 248.577C114.262 246.492 117.497 245.292 120.998 245.292C124.954 245.292 128.569 246.824 131.071 249.433C132.467 248.329 134.08 247.586 135.791 247.112C136.686 245.763 138.219 244.874 139.959 244.874H142.113C140.674 244.544 139.438 243.589 138.763 242.248C137.92 243.925 136.197 245 134.297 245H129.853C129.362 245 128.88 244.928 128.421 244.791C127.966 244.927 127.484 245 126.984 245H122.628C121.516 245 120.489 244.637 119.658 244.023C118.828 244.637 117.801 245 116.688 245H112.332C109.571 245 107.332 242.761 107.332 240V224.6C107.332 221.839 109.571 219.6 112.332 219.6H116.688C117.801 219.6 118.828 219.963 119.658 220.577ZM116.688 224.6H112.332V240H116.688V233.994H122.628V240H126.984V224.6H122.628V230.386H116.688V224.6ZM147.761 240L140.941 224.6H136.651L129.853 240H134.297L135.507 237.008H142.019L143.229 240H147.761ZM140.743 233.796L138.763 228.868L136.783 233.796H140.743ZM139.959 266.726H143.941V265.032C144.065 265.025 144.188 265.016 144.309 265.007C144.53 264.989 144.747 264.967 144.959 264.941C147.341 264.653 149.137 263.866 150.312 262.651C151.394 261.531 151.949 260.048 151.949 258.256C151.949 258.249 151.949 258.241 151.949 258.234C151.945 256.446 151.388 254.977 150.312 253.865C149.135 252.649 147.336 251.862 144.958 251.557C144.75 251.53 144.537 251.507 144.32 251.488C144.195 251.476 144.069 251.467 143.941 251.458V249.874H139.959V251.458C139.826 251.468 139.695 251.479 139.565 251.492C139.354 251.513 139.146 251.537 138.942 251.564C136.674 251.871 134.932 252.599 133.755 253.716C132.565 254.844 131.951 256.369 131.951 258.256C131.951 258.271 131.951 258.285 131.951 258.3C131.961 260.171 132.584 261.689 133.782 262.81C134.959 263.913 136.691 264.633 138.942 264.929C139.138 264.955 139.338 264.978 139.541 264.997C139.679 265.01 139.818 265.022 139.959 265.032V266.726ZM144.959 261.475C144.701 261.535 144.424 261.584 144.127 261.622C144.066 261.63 144.004 261.637 143.941 261.644V254.868C144.308 254.909 144.647 254.966 144.959 255.039C146.822 255.477 147.725 256.501 147.725 258.234C147.725 258.241 147.725 258.249 147.725 258.256C147.718 259.983 146.856 261.033 144.959 261.475ZM139.959 254.868C139.591 254.911 139.252 254.968 138.941 255.04C137.023 255.484 136.175 256.495 136.175 258.256C136.175 259.983 137.12 260.989 138.941 261.438C139.255 261.516 139.594 261.577 139.959 261.622V254.868ZM127.933 253.446C126.412 251.496 123.935 250.292 120.998 250.292C118.383 250.292 116.133 251.246 114.597 252.833C113.677 253.784 113.013 254.962 112.681 256.298C112.523 256.932 112.44 257.602 112.44 258.3C112.44 259.73 112.788 261.042 113.414 262.171C114.811 264.693 117.595 266.308 120.998 266.308C123.953 266.308 126.442 265.09 127.961 263.118C128.975 261.802 129.556 260.149 129.556 258.3C129.556 258.285 129.556 258.271 129.556 258.256C129.547 256.407 128.956 254.758 127.933 253.446ZM96.26 250.6V266H100.616V261.974H103.3C105.063 261.974 106.551 261.591 107.684 260.887C108.691 260.262 109.418 259.385 109.81 258.3C110.028 257.695 110.142 257.025 110.142 256.298C110.142 254.773 109.647 253.501 108.744 252.547C107.562 251.3 105.682 250.6 103.3 250.6H96.26ZM100.616 254.032V258.542H103.036C103.126 258.542 103.214 258.54 103.3 258.536C104.558 258.475 105.33 257.97 105.616 257.127C105.7 256.879 105.742 256.602 105.742 256.298C105.742 255.989 105.7 255.708 105.616 255.458C105.33 254.604 104.558 254.099 103.3 254.038C103.214 254.034 103.126 254.032 103.036 254.032H100.616ZM91.8531 250.6H87.7611L81.4031 259.642V250.6H77.1131V266H81.2271L87.5631 256.98V266H91.8531V250.6ZM73.2454 250.6H61.1674V266H73.5314V262.634H65.4794V259.818H72.3214V256.562H65.4794V253.966H73.2454V250.6ZM84.0177 246.09H84.9468C84.9455 246.083 84.9441 246.074 84.9423 246.065C84.9411 246.059 84.9397 246.052 84.9382 246.045C84.9261 245.989 84.9041 245.907 84.8646 245.806C84.7824 245.595 84.6515 245.372 84.4748 245.168C84.4702 245.173 84.4656 245.179 84.4611 245.184C84.307 245.369 84.1881 245.572 84.1095 245.768C84.0613 245.889 84.0372 245.984 84.0254 246.045C84.024 246.052 84.0228 246.059 84.0217 246.065C84.0201 246.075 84.0188 246.083 84.0177 246.09ZM83.8136 247.531C83.1756 247.355 82.8941 246.874 82.8771 246.09H79.9511C79.9511 246.111 79.9512 246.132 79.9514 246.154C79.9654 247.467 80.4148 248.439 81.4031 249.026C81.7032 249.204 82.0531 249.347 82.4556 249.453C82.5902 249.488 82.7306 249.519 82.8771 249.546C83.3432 249.632 83.8701 249.676 84.4611 249.676C85.069 249.676 85.6106 249.63 86.0891 249.539C86.1317 249.531 86.1739 249.522 86.2156 249.513C86.2377 249.509 86.2596 249.504 86.2814 249.499C86.8767 249.366 87.3677 249.159 87.7611 248.881C88.6063 248.285 89.0014 247.364 89.0147 246.154C89.015 246.132 89.0151 246.111 89.0151 246.09H86.0891C86.0738 246.795 85.8235 247.254 85.3011 247.468C85.0737 247.561 84.7947 247.608 84.4611 247.608C84.2137 247.608 83.9987 247.582 83.8136 247.531ZM46.4624 250.6H42.1064V266H46.4624V259.994H52.4024V266H56.7584V250.6H52.4024V256.386H46.4624V250.6ZM155.312 266H159.426L165.762 256.98V266H170.052V250.6H165.96L159.602 259.642V250.6H155.312V266ZM190.168 266H194.282L200.618 256.98V266H204.908V250.6H200.816L194.458 259.642V250.6H190.168V266ZM174.525 261.798C174.588 261.83 174.651 261.861 174.714 261.891C174.826 261.945 174.938 261.996 175.052 262.045C175.25 262.13 175.451 262.209 175.654 262.281C175.856 262.352 176.059 262.417 176.263 262.476C176.753 262.616 177.247 262.719 177.73 262.786C178.171 262.846 178.602 262.876 179.013 262.876C179.178 262.876 179.339 262.871 179.497 262.861C179.742 262.846 179.977 262.819 180.201 262.781C180.712 262.693 181.158 262.544 181.508 262.336C181.618 262.27 181.719 262.198 181.809 262.121C181.964 261.987 182.088 261.835 182.174 261.666C182.251 261.514 182.297 261.348 182.31 261.167C182.312 261.136 182.313 261.104 182.313 261.072C182.313 260.126 181.433 259.73 180.201 259.73H176.263V256.54H179.849C179.972 256.54 180.089 256.535 180.201 256.524C181.166 256.432 181.697 255.952 181.697 255.242C181.697 255.095 181.673 254.959 181.629 254.833C181.617 254.8 181.604 254.768 181.59 254.736C181.503 254.547 181.367 254.384 181.189 254.245C181.101 254.177 181.004 254.115 180.897 254.059C180.607 253.906 180.25 253.8 179.849 253.739C179.6 253.702 179.335 253.682 179.057 253.68C179.042 253.68 179.027 253.68 179.013 253.68C178.366 253.68 177.649 253.774 176.926 253.961C176.925 253.961 176.924 253.961 176.924 253.961C176.704 254.018 176.483 254.084 176.263 254.158C175.892 254.284 175.525 254.434 175.169 254.609C175.13 254.628 175.091 254.648 175.052 254.668C175.008 254.69 174.964 254.713 174.921 254.736L173.645 251.436C174.1 251.217 174.571 251.03 175.052 250.874C175.135 250.847 175.218 250.821 175.301 250.796C176.366 250.474 177.472 250.299 178.55 250.258C178.705 250.252 178.859 250.249 179.013 250.248C179.027 250.248 179.042 250.248 179.057 250.248C181.594 250.248 183.929 250.997 185.168 252.372C185.432 252.665 185.646 252.986 185.802 253.334C185.993 253.761 186.097 254.229 186.097 254.736C186.097 254.909 186.085 255.078 186.063 255.242C185.989 255.781 185.797 256.271 185.507 256.7C185.406 256.849 185.293 256.991 185.168 257.125C184.844 257.473 184.445 257.766 183.985 257.992C184.426 258.158 184.823 258.372 185.168 258.628C185.286 258.715 185.397 258.807 185.502 258.903C186.132 259.48 186.54 260.22 186.669 261.072C186.698 261.265 186.713 261.463 186.713 261.666C186.713 261.858 186.699 262.044 186.672 262.225C186.524 263.213 185.983 264.042 185.168 264.69C183.835 265.752 181.77 266.33 179.497 266.33C179.336 266.33 179.175 266.327 179.013 266.321C178.697 266.309 178.379 266.287 178.058 266.252C177.061 266.145 176.045 265.928 175.052 265.595C174.973 265.569 174.895 265.542 174.817 265.514C174.277 265.322 173.744 265.096 173.227 264.834L174.525 261.798ZM238.516 266H242.806V250.6H230.398L230.178 256.738C230.157 257.29 230.132 257.812 230.096 258.3C229.966 260.06 229.705 261.373 229.078 262.03C228.83 262.291 228.524 262.449 228.145 262.491C228.081 262.498 228.015 262.502 227.946 262.502C227.942 262.502 227.938 262.502 227.934 262.502C227.736 262.502 227.538 262.48 227.34 262.436L227.098 266C227.35 266.061 227.594 266.111 227.83 266.151C227.865 266.157 227.9 266.163 227.934 266.168C228.34 266.232 228.721 266.264 229.078 266.264C229.391 266.264 229.683 266.24 229.958 266.194C230.901 266.035 231.625 265.605 232.182 264.935C232.821 264.166 233.24 263.08 233.516 261.72C233.792 260.365 233.926 258.739 233.995 256.883C233.995 256.88 233.995 256.877 233.995 256.875C233.999 256.771 234.003 256.667 234.006 256.562L234.094 254.054H238.516V266ZM209.908 263.102C211.426 265.083 213.92 266.308 216.883 266.308C218.925 266.308 220.744 265.726 222.174 264.717C223.106 264.058 223.874 263.218 224.43 262.238C225.034 261.174 225.389 259.945 225.436 258.605C225.439 258.504 225.441 258.402 225.441 258.3C225.441 258.137 225.437 257.976 225.428 257.816C225.404 257.386 225.347 256.967 225.261 256.562C225.261 256.558 225.26 256.555 225.259 256.551C225.238 256.455 225.216 256.359 225.192 256.265C224.294 252.718 221.054 250.292 216.883 250.292C213.92 250.292 211.426 251.517 209.908 253.498C208.902 254.812 208.325 256.458 208.325 258.3C208.325 260.142 208.902 261.788 209.908 263.102ZM247.806 263.118C249.325 265.09 251.814 266.308 254.769 266.308C257.74 266.308 260.239 265.076 261.756 263.086C262.754 261.775 263.327 260.134 263.327 258.3C263.327 256.466 262.754 254.825 261.756 253.514C260.239 251.524 257.74 250.292 254.769 250.292C251.814 250.292 249.325 251.51 247.806 253.482C246.792 254.798 246.211 256.45 246.211 258.3C246.211 260.15 246.792 261.802 247.806 263.118ZM266.756 266H271.046V254.054H278.02L278.042 250.6H266.756V266ZM276.521 266H280.965L282.175 263.008H288.687L289.897 266H294.429L287.609 250.6H283.319L276.521 266ZM283.451 259.796H287.411L285.431 254.868L283.451 259.796ZM154.982 240V233.994H160.922V240H165.278V224.6H160.922V230.386H154.982V224.6H150.626V240H154.982ZM168.807 240H173.383L175.913 236.128H178.289V240H182.579V224.6H175.649C173.325 224.6 171.473 225.273 170.278 226.483C169.315 227.458 168.778 228.783 168.763 230.386C168.763 230.408 168.763 230.43 168.763 230.452C168.763 232.021 169.253 233.307 170.158 234.262C170.198 234.303 170.237 234.344 170.278 234.384C170.438 234.541 170.609 234.688 170.792 234.825C170.871 234.885 170.954 234.944 171.038 235C171.313 235.184 171.611 235.347 171.931 235.49L168.807 240ZM173.289 231.297C173.341 231.463 173.408 231.615 173.491 231.754C173.511 231.787 173.531 231.819 173.553 231.851C173.96 232.448 174.682 232.762 175.693 232.762H178.289V228.032H175.737C175.722 228.032 175.708 228.032 175.693 228.032C175.678 228.032 175.664 228.032 175.649 228.033C174.378 228.054 173.581 228.536 173.289 229.471C173.205 229.739 173.163 230.044 173.163 230.386C173.163 230.408 173.163 230.43 173.164 230.452C173.169 230.764 173.211 231.046 173.289 231.297ZM190.396 240H194.686V228.054H199.394V224.6H185.666V228.054H190.396V240ZM202.502 240H209.784C213.756 240 216.234 238.16 216.274 234.61C216.274 234.581 216.274 234.551 216.274 234.522C216.274 231.156 214.096 229.506 210.356 229.506H206.792V224.6H202.502V240ZM206.792 236.876H209.498C209.596 236.876 209.691 236.872 209.784 236.865C210.805 236.785 211.533 236.267 211.792 235.383C211.861 235.15 211.896 234.892 211.896 234.61C211.896 234.58 211.896 234.551 211.895 234.522C211.889 234.273 211.854 234.052 211.792 233.856C211.586 233.198 211.081 232.832 210.356 232.685C210.097 232.633 209.81 232.608 209.498 232.608H206.792V236.876ZM121.625 258.008C121.381 257.758 121.106 257.7 120.998 257.7C120.89 257.7 120.615 257.758 120.372 258.008C120.266 258.116 120.205 258.224 120.174 258.3C120.205 258.376 120.266 258.484 120.372 258.592C120.615 258.842 120.89 258.9 120.998 258.9C121.106 258.9 121.381 258.842 121.625 258.592C121.731 258.484 121.792 258.376 121.823 258.3C121.792 258.224 121.731 258.116 121.625 258.008ZM217.51 258.008C217.266 257.758 216.991 257.7 216.883 257.7C216.775 257.7 216.5 257.758 216.256 258.008C216.151 258.116 216.089 258.224 216.059 258.3C216.089 258.376 216.151 258.484 216.256 258.592C216.5 258.842 216.775 258.9 216.883 258.9C216.991 258.9 217.266 258.842 217.51 258.592C217.616 258.484 217.677 258.376 217.707 258.3C217.677 258.224 217.616 258.116 217.51 258.008ZM255.395 258.008C255.152 257.758 254.876 257.7 254.769 257.7C254.661 257.7 254.386 257.758 254.142 258.008C254.036 258.116 253.975 258.224 253.944 258.3C253.975 258.376 254.036 258.484 254.142 258.592C254.386 258.842 254.661 258.9 254.769 258.9C254.876 258.9 255.152 258.842 255.395 258.592C255.501 258.484 255.562 258.376 255.593 258.3C255.562 258.224 255.501 258.116 255.395 258.008ZM116.84 258.3C116.84 260.962 118.666 262.7 120.998 262.7C123.33 262.7 125.156 260.962 125.156 258.3C125.156 255.638 123.33 253.9 120.998 253.9C118.666 253.9 116.84 255.638 116.84 258.3ZM212.725 258.3C212.725 260.962 214.551 262.7 216.883 262.7C219.215 262.7 221.041 260.962 221.041 258.3C221.041 255.638 219.215 253.9 216.883 253.9C214.551 253.9 212.725 255.638 212.725 258.3ZM250.611 258.3C250.611 260.962 252.437 262.7 254.769 262.7C257.101 262.7 258.927 260.962 258.927 258.3C258.927 255.638 257.101 253.9 254.769 253.9C252.437 253.9 250.611 255.638 250.611 258.3Z" fill="white"/>
<rect x="16" y="291" width="304" height="82" rx="24" fill="white"/>
<rect x="16" y="397" width="125" height="43" rx="13" fill="white"/>
<rect x="195" y="397" width="125" height="43" rx="13" fill="white"/>
<path d="M43.5676 318.2V322.246H38.4996V318.2H36.6796V328H38.4996V323.8H43.5676V328H45.3876V318.2H43.5676ZM50.7266 320.44C49.5226 320.44 48.3606 320.748 47.5626 321.364L48.2486 322.638C48.8086 322.176 49.6766 321.896 50.5166 321.896C51.7626 321.896 52.3786 322.498 52.3786 323.52V323.632H50.4466C48.1786 323.632 47.3386 324.612 47.3386 325.858C47.3386 327.16 48.4166 328.098 50.1246 328.098C51.2446 328.098 52.0566 327.734 52.4766 327.09V328H54.1286V323.618C54.1286 321.462 52.8826 320.44 50.7266 320.44ZM50.4886 326.824C49.5926 326.824 49.0606 326.418 49.0606 325.788C49.0606 325.242 49.3826 324.794 50.5726 324.794H52.3786V325.662C52.0846 326.432 51.3426 326.824 50.4886 326.824ZM56.2942 328H58.0442V325.046H61.8102V328H63.5602V320.524H61.8102V323.562H58.0442V320.524H56.2942V328ZM68.7895 320.524C66.7035 320.524 65.3735 321.462 65.3735 323.212C65.3735 324.36 65.9755 325.144 67.0395 325.508L65.2755 328H67.1515L68.6775 325.746H70.6515V328H72.2195V320.524H68.7895ZM68.8455 321.994H70.6515V324.528H68.7895C67.7115 324.528 67.1515 324.136 67.1515 323.268C67.1515 322.372 67.7675 321.994 68.8455 321.994ZM80.4955 320.524H73.4955V322.008H76.1275V328H77.8775V322.008H80.4955V320.524ZM85.5169 322.988L83.5149 322.974V320.524H81.7649V328L85.2649 328.014C87.3089 328.028 88.4709 327.09 88.4709 325.452C88.4709 323.898 87.4349 322.988 85.5169 322.988ZM85.1109 326.726L83.5149 326.712V324.178L85.1109 324.192C86.1469 324.206 86.6929 324.57 86.6929 325.424C86.6929 326.292 86.1329 326.74 85.1109 326.726ZM96.2021 320.412C94.8441 320.412 93.7101 320.86 92.9541 321.714L93.9621 322.694C94.5501 322.092 95.2781 321.798 96.1321 321.798C97.3921 321.798 98.3441 322.498 98.6241 323.59H95.1801V324.85H98.6381C98.3861 325.97 97.4201 326.726 96.1321 326.726C95.2781 326.726 94.5501 326.432 93.9621 325.844L92.9541 326.824C93.7101 327.664 94.8441 328.126 96.2021 328.126C98.5821 328.126 100.318 326.502 100.318 324.262C100.318 322.022 98.5821 320.412 96.2021 320.412ZM107.375 328H109.433L106.535 324.122L109.251 320.524H107.375L105.163 323.548H103.763V320.524H102.013V328H103.763V325.004H105.121L107.375 328ZM113.823 328.098C115.279 328.098 116.441 327.468 117.015 326.348L115.671 325.564C115.223 326.278 114.551 326.6 113.809 326.6C112.521 326.6 111.541 325.718 111.541 324.262C111.541 322.82 112.521 321.924 113.809 321.924C114.551 321.924 115.223 322.246 115.671 322.96L117.015 322.176C116.441 321.042 115.279 320.44 113.823 320.44C111.457 320.44 109.777 322.022 109.777 324.262C109.777 326.502 111.457 328.098 113.823 328.098ZM118.556 320.524V328H120.306V322.008H123.988V328H125.724V320.524H118.556ZM135.085 324.304C135.085 321.966 133.489 320.44 131.305 320.44C129.079 320.44 127.441 322.036 127.441 324.262C127.441 326.488 129.065 328.098 131.571 328.098C132.859 328.098 133.909 327.678 134.581 326.88L133.643 325.802C133.111 326.348 132.453 326.614 131.613 326.614C130.311 326.614 129.401 325.914 129.191 324.822H135.057C135.071 324.654 135.085 324.444 135.085 324.304ZM131.305 321.84C132.453 321.84 133.279 322.582 133.419 323.66H129.177C129.345 322.568 130.171 321.84 131.305 321.84ZM141.143 320.44C140.121 320.44 139.253 320.79 138.665 321.504V320.524H136.999V330.716H138.749V327.09C139.351 327.776 140.191 328.098 141.143 328.098C143.327 328.098 144.937 326.586 144.937 324.262C144.937 321.952 143.327 320.44 141.143 320.44ZM140.947 326.6C139.687 326.6 138.721 325.69 138.721 324.262C138.721 322.834 139.687 321.924 140.947 321.924C142.207 321.924 143.159 322.834 143.159 324.262C143.159 325.69 142.207 326.6 140.947 326.6ZM152.327 320.524H145.327V322.008H147.959V328H149.709V322.008H152.327V320.524ZM156.383 320.44C155.179 320.44 154.017 320.748 153.219 321.364L153.905 322.638C154.465 322.176 155.333 321.896 156.173 321.896C157.419 321.896 158.035 322.498 158.035 323.52V323.632H156.103C153.835 323.632 152.995 324.612 152.995 325.858C152.995 327.16 154.073 328.098 155.781 328.098C156.901 328.098 157.713 327.734 158.133 327.09V328H159.785V323.618C159.785 321.462 158.539 320.44 156.383 320.44ZM156.145 326.824C155.249 326.824 154.717 326.418 154.717 325.788C154.717 325.242 155.039 324.794 156.229 324.794H158.035V325.662C157.741 326.432 156.999 326.824 156.145 326.824ZM171.238 324.108C171.952 323.8 172.386 323.226 172.386 322.456C172.386 321.224 171.294 320.524 169.474 320.524H165.82V328H169.628C171.644 328 172.624 327.216 172.624 325.9C172.624 324.99 172.162 324.388 171.238 324.108ZM167.486 321.798H169.32C170.216 321.798 170.678 322.092 170.678 322.708C170.678 323.324 170.216 323.646 169.32 323.646H167.486V321.798ZM169.488 326.726H167.486V324.808H169.544C170.496 324.808 170.93 325.13 170.93 325.788C170.93 326.432 170.426 326.726 169.488 326.726ZM181.689 328.098C184.013 328.098 185.679 326.502 185.679 324.262C185.679 322.022 184.013 320.44 181.689 320.44C179.393 320.44 177.713 322.022 177.713 324.262C177.713 326.502 179.393 328.098 181.689 328.098ZM181.689 326.6C180.429 326.6 179.477 325.69 179.477 324.262C179.477 322.834 180.429 321.924 181.689 321.924C182.963 321.924 183.915 322.834 183.915 324.262C183.915 325.69 182.963 326.6 181.689 326.6ZM191.453 320.888C190.305 320.888 189.325 321.35 188.667 322.148C188.821 320.524 189.675 319.684 191.481 319.306L194.631 318.662L194.379 317.094L190.907 317.836C188.247 318.396 186.987 320.146 186.987 323.142C186.987 326.404 188.499 328.14 191.061 328.14C193.413 328.14 195.051 326.67 195.051 324.472C195.051 322.358 193.595 320.888 191.453 320.888ZM191.103 326.726C189.815 326.726 188.919 325.816 188.919 324.514C188.919 323.212 189.801 322.372 191.103 322.372C192.391 322.372 193.259 323.212 193.259 324.514C193.259 325.802 192.391 326.726 191.103 326.726ZM197.391 320.524L197.265 323.408C197.181 324.962 197.139 326.558 195.991 326.558C195.893 326.558 195.781 326.544 195.655 326.516L195.571 327.986C195.935 328.084 196.257 328.14 196.537 328.14C198.301 328.14 198.693 326.152 198.819 323.492L198.889 322.008H201.689V328H203.439V320.524H197.391ZM208.582 320.44C207.378 320.44 206.216 320.748 205.418 321.364L206.104 322.638C206.664 322.176 207.532 321.896 208.372 321.896C209.618 321.896 210.234 322.498 210.234 323.52V323.632H208.302C206.034 323.632 205.194 324.612 205.194 325.858C205.194 327.16 206.272 328.098 207.98 328.098C209.1 328.098 209.912 327.734 210.332 327.09V328H211.984V323.618C211.984 321.462 210.738 320.44 208.582 320.44ZM208.344 326.824C207.448 326.824 206.916 326.418 206.916 325.788C206.916 325.242 207.238 324.794 208.428 324.794H210.234V325.662C209.94 326.432 209.198 326.824 208.344 326.824ZM217.552 328.098C219.008 328.098 220.17 327.468 220.744 326.348L219.4 325.564C218.952 326.278 218.28 326.6 217.538 326.6C216.25 326.6 215.27 325.718 215.27 324.262C215.27 322.82 216.25 321.924 217.538 321.924C218.28 321.924 218.952 322.246 219.4 322.96L220.744 322.176C220.17 321.042 219.008 320.44 217.552 320.44C215.186 320.44 213.506 322.022 213.506 324.262C213.506 326.502 215.186 328.098 217.552 328.098ZM228.138 320.524H221.138V322.008H223.77V328H225.52V322.008H228.138V320.524ZM229.407 328H231.017L235.133 323.072V328H236.883V320.524H235.287L231.157 325.452V320.524H229.407V328ZM247.251 320.44C246.229 320.44 245.361 320.79 244.773 321.504V320.524H243.107V330.716H244.857V327.09C245.459 327.776 246.299 328.098 247.251 328.098C249.435 328.098 251.045 326.586 251.045 324.262C251.045 321.952 249.435 320.44 247.251 320.44ZM247.055 326.6C245.795 326.6 244.829 325.69 244.829 324.262C244.829 322.834 245.795 321.924 247.055 321.924C248.315 321.924 249.267 322.834 249.267 324.262C249.267 325.69 248.315 326.6 247.055 326.6ZM255.477 320.44C254.273 320.44 253.111 320.748 252.313 321.364L252.999 322.638C253.559 322.176 254.427 321.896 255.267 321.896C256.513 321.896 257.129 322.498 257.129 323.52V323.632H255.197C252.929 323.632 252.089 324.612 252.089 325.858C252.089 327.16 253.167 328.098 254.875 328.098C255.995 328.098 256.807 327.734 257.227 327.09V328H258.879V323.618C258.879 321.462 257.633 320.44 255.477 320.44ZM255.239 326.824C254.343 326.824 253.811 326.418 253.811 325.788C253.811 325.242 254.133 324.794 255.323 324.794H257.129V325.662C256.835 326.432 256.093 326.824 255.239 326.824ZM265.09 320.888C263.942 320.888 262.962 321.35 262.304 322.148C262.458 320.524 263.312 319.684 265.118 319.306L268.268 318.662L268.016 317.094L264.544 317.836C261.884 318.396 260.624 320.146 260.624 323.142C260.624 326.404 262.136 328.14 264.698 328.14C267.05 328.14 268.688 326.67 268.688 324.472C268.688 322.358 267.232 320.888 265.09 320.888ZM264.74 326.726C263.452 326.726 262.556 325.816 262.556 324.514C262.556 323.212 263.438 322.372 264.74 322.372C266.028 322.372 266.896 323.212 266.896 324.514C266.896 325.802 266.028 326.726 264.74 326.726ZM273.714 328.098C276.038 328.098 277.704 326.502 277.704 324.262C277.704 322.022 276.038 320.44 273.714 320.44C271.418 320.44 269.738 322.022 269.738 324.262C269.738 326.502 271.418 328.098 273.714 328.098ZM273.714 326.6C272.454 326.6 271.502 325.69 271.502 324.262C271.502 322.834 272.454 321.924 273.714 321.924C274.988 321.924 275.94 322.834 275.94 324.262C275.94 325.69 274.988 326.6 273.714 326.6ZM285.081 320.524H278.081V322.008H280.713V328H282.463V322.008H285.081V320.524ZM289.991 322.988L288.101 322.974V320.524H286.351V328L289.739 328.014C291.783 328.028 292.931 327.09 292.931 325.452C292.931 323.898 291.909 322.988 289.991 322.988ZM293.897 328H295.647V320.524H293.897V328ZM289.585 326.726L288.101 326.712V324.178L289.585 324.192C290.621 324.206 291.167 324.57 291.167 325.424C291.167 326.292 290.607 326.74 289.585 326.726ZM107.315 344L107.301 336.524H105.663L102.877 341.2L100.217 336.524H98.383V344H99.979V339.03L102.457 343.216H103.213L105.733 339.044V344H107.315ZM112.994 344.098C115.318 344.098 116.984 342.502 116.984 340.262C116.984 338.022 115.318 336.44 112.994 336.44C110.698 336.44 109.018 338.022 109.018 340.262C109.018 342.502 110.698 344.098 112.994 344.098ZM112.994 342.6C111.734 342.6 110.782 341.69 110.782 340.262C110.782 338.834 111.734 337.924 112.994 337.924C114.268 337.924 115.22 338.834 115.22 340.262C115.22 341.69 114.268 342.6 112.994 342.6ZM123.07 340.108C123.84 339.8 124.33 339.198 124.33 338.47C124.33 337.238 122.93 336.412 121.012 336.412C120.032 336.412 119.066 336.622 118.044 337.098L118.492 338.386C119.318 338.022 120.102 337.84 120.858 337.84C121.908 337.84 122.538 338.176 122.538 338.722C122.538 339.268 122.02 339.576 121.138 339.576H119.822V340.752H121.278C122.216 340.752 122.748 341.074 122.748 341.662C122.748 342.306 122.034 342.684 120.872 342.684C119.948 342.684 118.996 342.446 118.268 342.04L117.764 343.342C118.66 343.846 119.808 344.126 120.956 344.126C123.042 344.126 124.54 343.188 124.54 341.802C124.54 340.976 123.994 340.374 123.07 340.108ZM132.082 336.524H126.342V344H128.092V338.008H132.082V336.524ZM136.142 336.44C134.938 336.44 133.776 336.748 132.978 337.364L133.664 338.638C134.224 338.176 135.092 337.896 135.932 337.896C137.178 337.896 137.794 338.498 137.794 339.52V339.632H135.862C133.594 339.632 132.754 340.612 132.754 341.858C132.754 343.16 133.832 344.098 135.54 344.098C136.66 344.098 137.472 343.734 137.892 343.09V344H139.544V339.618C139.544 337.462 138.298 336.44 136.142 336.44ZM135.904 342.824C135.008 342.824 134.476 342.418 134.476 341.788C134.476 341.242 134.798 340.794 135.988 340.794H137.794V341.662C137.5 342.432 136.758 342.824 135.904 342.824ZM145.578 344H147.188L151.304 339.072V344H153.054V336.524H151.458L147.328 341.452V336.524H145.578V344ZM159.278 344H160.888L165.004 339.072V344H166.754V336.524H165.158L161.028 341.452V336.524H159.278V344ZM169.108 344H170.858V341.046H174.624V344H176.374V336.524H174.624V339.562H170.858V336.524H169.108V344ZM184.641 336.524H177.641V338.008H180.273V344H182.023V338.008H184.641V336.524ZM192.582 340.304C192.582 337.966 190.986 336.44 188.802 336.44C186.576 336.44 184.938 338.036 184.938 340.262C184.938 342.488 186.562 344.098 189.068 344.098C190.356 344.098 191.406 343.678 192.078 342.88L191.14 341.802C190.608 342.348 189.95 342.614 189.11 342.614C187.808 342.614 186.898 341.914 186.688 340.822H192.554C192.568 340.654 192.582 340.444 192.582 340.304ZM188.802 337.84C189.95 337.84 190.776 338.582 190.916 339.66H186.674C186.842 338.568 187.668 337.84 188.802 337.84ZM195.129 336.524L195.003 339.408C194.919 340.962 194.877 342.558 193.729 342.558C193.631 342.558 193.519 342.544 193.393 342.516L193.309 343.986C193.673 344.084 193.995 344.14 194.275 344.14C196.039 344.14 196.431 342.152 196.557 339.492L196.627 338.008H199.427V344H201.177V336.524H195.129ZM210.533 340.304C210.533 337.966 208.937 336.44 206.753 336.44C204.527 336.44 202.889 338.036 202.889 340.262C202.889 342.488 204.513 344.098 207.019 344.098C208.307 344.098 209.357 343.678 210.029 342.88L209.091 341.802C208.559 342.348 207.901 342.614 207.061 342.614C205.759 342.614 204.849 341.914 204.639 340.822H210.505C210.519 340.654 210.533 340.444 210.533 340.304ZM206.753 337.84C207.901 337.84 208.727 338.582 208.867 339.66H204.625C204.793 338.568 205.619 337.84 206.753 337.84ZM217.809 344H219.867L216.969 340.122L219.685 336.524H217.809L215.597 339.548H214.197V336.524H212.447V344H214.197V341.004H215.555L217.809 344ZM226.928 336.524H219.928V338.008H222.56V344H224.31V338.008H226.928V336.524ZM230.983 336.44C229.779 336.44 228.617 336.748 227.819 337.364L228.505 338.638C229.065 338.176 229.933 337.896 230.773 337.896C232.019 337.896 232.635 338.498 232.635 339.52V339.632H230.703C228.435 339.632 227.595 340.612 227.595 341.858C227.595 343.16 228.673 344.098 230.381 344.098C231.501 344.098 232.313 343.734 232.733 343.09V344H234.385V339.618C234.385 337.462 233.139 336.44 230.983 336.44ZM230.745 342.824C229.849 342.824 229.317 342.418 229.317 341.788C229.317 341.242 229.639 340.794 230.829 340.794H232.635V341.662C232.341 342.432 231.599 342.824 230.745 342.824ZM237.083 344.098C237.713 344.098 238.231 343.608 238.231 342.936C238.231 342.236 237.713 341.774 237.083 341.774C236.453 341.774 235.935 342.236 235.935 342.936C235.935 343.608 236.453 344.098 237.083 344.098Z" fill="black"/>
<path d="M252 5C252 26.7477 243.361 47.6048 227.983 62.9828C212.605 78.3607 191.748 87 170 87C148.252 87 127.395 78.3607 112.017 62.9828C96.6393 47.6048 88 26.7478 88 5.00002L170 5H252Z" fill="white"/>
<path d="M48.032 423.216C48.032 414.96 35.328 417.52 35.328 414.096C35.328 412.976 36.288 412.08 38.944 412.08C40.896 412.08 43.008 412.656 45.152 413.808L47.104 409.104C45.312 408.048 42.976 407.408 40.608 407.216V403.76H36.768V407.28C31.584 407.92 29.056 410.896 29.056 414.416C29.056 422.736 41.792 420.144 41.792 423.696C41.792 424.784 40.768 425.52 38.144 425.52C35.552 425.52 32.736 424.624 30.752 423.312L28.672 427.984C30.528 429.264 33.568 430.192 36.768 430.416V433.84H40.608V430.288C45.6 429.552 48.032 426.608 48.032 423.216Z" fill="#00BCBC"/>
<path d="M62.32 417.7L65.48 414.1V412H55.68V414.6H61.64L58.76 417.86V420H60.24C62.08 420 62.86 420.66 62.86 421.72C62.86 422.86 61.86 423.52 60.24 423.52C58.78 423.52 57.3 423.06 56.24 422.26L54.98 424.74C56.34 425.7 58.36 426.24 60.32 426.24C64.3 426.24 66.12 424.08 66.12 421.72C66.12 419.66 64.84 418.1 62.32 417.7ZM72.2206 417.26H71.0806L71.3006 414.6H77.1406V412H68.6006L67.8806 419.88H71.4606C74.0006 419.88 74.7206 420.6 74.7206 421.7C74.7206 422.84 73.7206 423.52 72.1006 423.52C70.6406 423.52 69.1806 423.06 68.1206 422.26L66.8406 424.74C68.2006 425.7 70.2406 426.24 72.1806 426.24C76.1806 426.24 78.0006 424.08 78.0006 421.6C78.0006 419.12 76.3606 417.26 72.2206 417.26ZM90.9792 426.24C94.4392 426.24 96.9792 423.62 96.9792 419C96.9792 414.38 94.4392 411.76 90.9792 411.76C87.5392 411.76 84.9792 414.38 84.9792 419C84.9792 423.62 87.5392 426.24 90.9792 426.24ZM90.9792 423.5C89.3792 423.5 88.2592 422.18 88.2592 419C88.2592 415.82 89.3792 414.5 90.9792 414.5C92.5992 414.5 93.7192 415.82 93.7192 419C93.7192 422.18 92.5992 423.5 90.9792 423.5ZM104.553 426.24C108.013 426.24 110.553 423.62 110.553 419C110.553 414.38 108.013 411.76 104.553 411.76C101.113 411.76 98.5534 414.38 98.5534 419C98.5534 423.62 101.113 426.24 104.553 426.24ZM104.553 423.5C102.953 423.5 101.833 422.18 101.833 419C101.833 415.82 102.953 414.5 104.553 414.5C106.173 414.5 107.293 415.82 107.293 419C107.293 422.18 106.173 423.5 104.553 423.5ZM118.128 426.24C121.588 426.24 124.128 423.62 124.128 419C124.128 414.38 121.588 411.76 118.128 411.76C114.688 411.76 112.128 414.38 112.128 419C112.128 423.62 114.688 426.24 118.128 426.24ZM118.128 423.5C116.528 423.5 115.408 422.18 115.408 419C115.408 415.82 116.528 414.5 118.128 414.5C119.748 414.5 120.868 415.82 120.868 419C120.868 422.18 119.748 423.5 118.128 423.5Z" fill="black"/>
<path d="M238.22 423.36L241.44 420.32C243.4 418.5 243.78 417.26 243.78 415.9C243.78 413.36 241.7 411.76 238.58 411.76C236.06 411.76 234.1 412.78 233.02 414.36L235.38 415.88C236.06 414.94 237.08 414.48 238.28 414.48C239.76 414.48 240.52 415.12 240.52 416.22C240.52 416.9 240.3 417.62 239.06 418.8L233.66 423.9V426H244.24V423.36H238.22ZM251.538 426.24C254.998 426.24 257.538 423.62 257.538 419C257.538 414.38 254.998 411.76 251.538 411.76C248.098 411.76 245.538 414.38 245.538 419C245.538 423.62 248.098 426.24 251.538 426.24ZM251.538 423.5C249.938 423.5 248.818 422.18 248.818 419C248.818 415.82 249.938 414.5 251.538 414.5C253.158 414.5 254.278 415.82 254.278 419C254.278 422.18 253.158 423.5 251.538 423.5ZM278.816 426L278.776 415.24H275.856L272.196 421.46L268.756 415.24H265.496V426H268.316V419.54L271.456 424.96H272.776L275.996 419.56V426H278.816ZM281.805 426H284.685L289.905 419.6V426H293.005V415.24H290.145L284.905 421.64V415.24H281.805V426ZM296.004 426H299.104V421.98H303.784V426H306.904V415.24H303.784V419.44H299.104V415.24H296.004V426Z" fill="black"/>
<path d="M216.5 406C209.595 406 204 411.595 204 418.5C204 425.405 209.595 431 216.5 431C223.405 431 229 425.405 229 418.5C229 411.595 223.405 406 216.5 406Z" fill="#00BCBC"/>
<path fill-rule="evenodd" clip-rule="evenodd" d="M215.961 410C214.878 410 214 410.878 214 411.961V419.153C214 419.311 214.019 419.464 214.054 419.611C214.047 420.263 214.376 420.901 214.974 421.262L220.414 424.535C221.313 425.077 222.481 424.786 223.022 423.887C223.563 422.988 223.273 421.82 222.374 421.279L217.923 418.6V411.961C217.923 410.878 217.045 410 215.961 410Z" fill="white"/>
<g filter="url(#filter0_d)">
<path d="M162.531 400.393L185.975 433.213C179.766 434.57 168.698 428.331 168.698 428.331C168.698 428.331 160.834 438.706 154.912 440L162.531 400.393Z" fill="white"/>
<path fill-rule="evenodd" clip-rule="evenodd" d="M154.912 440L158.469 421.51C161.522 424.284 164.956 426.604 168.698 428.331C168.698 428.331 160.834 438.706 154.912 440Z" fill="#BBFFF9"/>
</g>
<path d="M175.82 41.64L184.23 32.592V25.4H154.882V34.274H170.89L163.64 42.104V49.354H168.454C172.862 49.354 174.66 50.862 174.66 53.298C174.66 56.024 172.108 57.532 168.222 57.532C164.394 57.532 160.218 56.372 156.97 54.168L152.794 62.81C156.97 65.42 162.944 66.812 168.57 66.812C180.808 66.812 186.26 60.2 186.26 53.298C186.26 47.498 182.664 43.09 175.82 41.64Z" fill="#46BBCE"/>
<g filter="url(#filter1_di)">
<path d="M164.967 159.517H167.733V153.984H156.667V145.684C156.667 144.159 155.426 142.917 153.9 142.917C152.375 142.917 151.134 144.159 151.134 145.684V153.984H131.24C126.019 162.891 130.261 174.736 140.501 178.017C138.071 188.745 146.203 198.434 156.667 198.434C160.915 198.434 164.795 196.83 167.733 194.194V176.117H164.967C160.391 176.117 156.667 172.393 156.667 167.817C156.667 163.241 160.391 159.517 164.967 159.517ZM209.76 153.984H195.4V156.75C195.4 161.326 191.676 165.05 187.1 165.05C182.524 165.05 178.8 161.326 178.8 156.75V153.984H173.267V165.05H164.967C163.441 165.05 162.2 166.292 162.2 167.817C162.2 169.342 163.441 170.584 164.967 170.584H173.267V194.194C176.205 196.83 180.085 198.434 184.333 198.434C194.788 198.434 202.931 188.754 200.499 178.017C210.732 174.738 214.985 162.897 209.76 153.984ZM200.499 124.418C202.929 113.69 194.797 104 184.333 104C180.085 104 176.205 105.605 173.267 108.24V126.317H176.033C180.609 126.317 184.333 130.041 184.333 134.617C184.333 139.193 180.609 142.917 176.033 142.917H173.267V148.45H184.333V156.75C184.333 158.276 185.574 159.517 187.1 159.517C188.625 159.517 189.866 158.276 189.866 156.75V148.45H209.76C214.981 139.544 210.739 127.698 200.499 124.418ZM176.033 131.851H167.733V108.24C164.795 105.605 160.915 104 156.667 104C146.212 104 138.069 113.68 140.501 124.418C130.268 127.696 126.015 139.537 131.24 148.45H145.6V145.684C145.6 141.108 149.324 137.384 153.9 137.384C158.476 137.384 162.2 141.108 162.2 145.684V148.45H167.733V137.384H176.033C177.559 137.384 178.8 136.143 178.8 134.617C178.8 133.092 177.559 131.851 176.033 131.851Z" fill="white"/>
</g>
<defs>
<filter id="filter0_d" x="150.912" y="396.393" width="45.0628" height="53.6066" filterUnits="userSpaceOnUse" color-interpolation-filters="sRGB">
<feFlood flood-opacity="0" result="BackgroundImageFix"/>
<feColorMatrix in="SourceAlpha" type="matrix" values="0 0 0 0 0 0 0 0 0 0 0 0 0 0 0 0 0 0 127 0"/>
<feOffset dx="3" dy="3"/>
<feGaussianBlur stdDeviation="3.5"/>
<feColorMatrix type="matrix" values="0 0 0 0 0.279 0 0 0 0 0.9 0 0 0 0 0.840225 0 0 0 1 0"/>
<feBlend mode="normal" in2="BackgroundImageFix" result="effect1_dropShadow"/>
<feBlend mode="normal" in="SourceGraphic" in2="effect1_dropShadow" result="shape"/>
</filter>
<filter id="filter1_di" x="123" y="98" width="103" height="114.434" filterUnits="userSpaceOnUse" color-interpolation-filters="sRGB">
<feFlood flood-opacity="0" result="BackgroundImageFix"/>
<feColorMatrix in="SourceAlpha" type="matrix" values="0 0 0 0 0 0 0 0 0 0 0 0 0 0 0 0 0 0 127 0"/>
<feOffset dx="4" dy="4"/>
<feGaussianBlur stdDeviation="5"/>
<feColorMatrix type="matrix" values="0 0 0 0 0.1715 0 0 0 0 0.816667 0 0 0 0 0.816667 0 0 0 1 0"/>
<feBlend mode="normal" in2="BackgroundImageFix" result="effect1_dropShadow"/>
<feBlend mode="normal" in="SourceGraphic" in2="effect1_dropShadow" result="shape"/>
<feColorMatrix in="SourceAlpha" type="matrix" values="0 0 0 0 0 0 0 0 0 0 0 0 0 0 0 0 0 0 127 0" result="hardAlpha"/>
<feOffset dx="-4" dy="-4"/>
<feGaussianBlur stdDeviation="4.5"/>
<feComposite in2="hardAlpha" operator="arithmetic" k2="-1" k3="1"/>
<feColorMatrix type="matrix" values="0 0 0 0 0.441945 0 0 0 0 0.887146 0 0 0 0 0.895833 0 0 0 0.52 0"/>
<feBlend mode="normal" in2="shape" result="effect2_innerShadow"/>
</filter>
<linearGradient id="paint0_linear" x1="5.5" y1="-157" x2="289.5" y2="495.5" gradientUnits="userSpaceOnUse">
<stop stop-color="#00C2FF"/>
<stop offset="1" stop-color="#1EE7CF"/>
</linearGradient>
<linearGradient id="paint1_linear" x1="49" y1="11" x2="301.5" y2="474" gradientUnits="userSpaceOnUse">
<stop stop-color="#19D2EB"/>
<stop offset="1" stop-color="#55F5DF"/>
</linearGradient>
<linearGradient id="paint2_linear" x1="59.5" y1="-9" x2="291.5" y2="495.5" gradientUnits="userSpaceOnUse">
<stop stop-color="#00E0FF"/>
<stop offset="1" stop-color="#42F2D1"/>
</linearGradient>
<linearGradient id="paint3_linear" x1="51" y1="11" x2="303.5" y2="474" gradientUnits="userSpaceOnUse">
<stop stop-color="#B2F6FF"/>
<stop offset="1" stop-color="#28D7BE"/>
</linearGradient>
<linearGradient id="paint4_linear" x1="27" y1="473.49" x2="247.084" y2="60.8524" gradientUnits="userSpaceOnUse">
<stop stop-color="#73F5FF"/>
<stop offset="0.99" stop-color="#7AFFEC"/>
</linearGradient>
<linearGradient id="paint5_linear" x1="129.774" y1="288" x2="310" y2="288" gradientUnits="userSpaceOnUse">
<stop stop-color="white"/>
<stop offset="0.99" stop-color="white" stop-opacity="0.4"/>
</linearGradient>
<linearGradient id="paint6_linear" x1="59.8997" y1="86" x2="140" y2="86" gradientUnits="userSpaceOnUse">
<stop stop-color="white"/>
<stop offset="0.99" stop-color="white" stop-opacity="0.4"/>
</linearGradient>
</defs>
</svg>
