<svg width="338" height="474" viewBox="0 0 338 474" fill="none" xmlns="http://www.w3.org/2000/svg">
<rect x="2.5" y="2.5" width="331" height="469" rx="32.5" fill="url(#paint0_linear)" stroke="url(#paint1_linear)" stroke-width="5"/>
<mask id="mask0" mask-type="alpha" maskUnits="userSpaceOnUse" x="2" y="0" width="336" height="474">
<rect x="4.5" y="2.5" width="331" height="469" rx="41.5" fill="url(#paint2_linear)" stroke="url(#paint3_linear)" stroke-width="5"/>
</mask>
<g mask="url(#mask0)">
<path d="M198.89 5.0093C198.89 5.0093 97.8208 47.0947 93.9888 101.845C90.1568 156.595 112.775 152.615 106.069 185.086C99.3632 217.557 -10.9124 255.616 18.7856 356.766C48.4837 457.916 142.368 370.584 242 469H35C18.4315 469 5 455.569 5 439V35.0014C5 18.4323 18.4323 5.00064 35.0014 5.00144L198.89 5.0093Z" fill="url(#paint4_linear)" fill-opacity="0.5"/>
</g>
<path opacity="0.46" d="M219.887 378C202.092 377.978 184.702 372.68 169.917 362.777C155.131 352.875 143.613 338.811 136.819 322.363C130.024 305.916 128.258 287.824 131.743 270.373C135.229 252.922 143.809 236.896 156.4 224.321C168.992 211.745 185.028 203.185 202.483 199.721C219.939 196.258 238.029 198.046 254.468 204.862C270.906 211.677 284.956 223.212 294.84 238.01C304.724 252.808 310 270.204 310 288C309.958 311.876 300.447 334.761 283.553 351.633C266.66 368.506 243.763 377.988 219.887 378ZM219.887 222.747C206.985 222.764 194.378 226.607 183.659 233.788C172.94 240.969 164.59 251.166 159.665 263.091C154.74 275.016 153.461 288.134 155.989 300.786C158.517 313.438 164.739 325.056 173.868 334.173C182.998 343.29 194.625 349.496 207.28 352.006C219.936 354.517 233.051 353.219 244.97 348.278C256.888 343.336 267.074 334.972 274.24 324.243C281.406 313.515 285.231 300.902 285.231 288C285.177 270.703 278.27 254.132 266.022 241.918C253.774 229.704 237.184 222.843 219.887 222.837V222.747Z" fill="url(#paint5_linear)"/>
<path opacity="0.46" d="M99.9498 126C92.0407 125.99 84.3121 123.636 77.7407 119.234C71.1694 114.833 66.0503 108.583 63.0305 101.273C60.0106 93.9627 59.2257 85.9216 60.7747 78.1657C62.3238 70.4097 66.1374 63.2871 71.7335 57.698C77.3296 52.1089 84.457 48.3043 92.2148 46.7649C99.9727 45.2256 108.013 46.0207 115.319 49.0496C122.625 52.0786 128.869 57.2055 133.262 63.7824C137.655 70.3593 140 78.0909 140 86C139.981 96.6116 135.754 106.783 128.246 114.281C120.738 121.78 110.561 125.995 99.9498 126ZM99.9498 56.9985C94.2156 57.0064 88.6124 58.7141 83.8484 61.9056C79.0844 65.0972 75.3735 69.6294 73.1846 74.9294C70.9957 80.2294 70.4271 86.0594 71.5506 91.6825C72.6742 97.3056 75.4395 102.469 79.497 106.521C83.5545 110.573 88.7222 113.331 94.3468 114.447C99.9715 115.563 105.801 114.986 111.098 112.79C116.395 110.594 120.922 106.877 124.107 102.108C127.292 97.3398 128.991 91.7342 128.991 86C128.968 78.3124 125.898 70.9477 120.454 65.5193C115.011 60.0908 107.637 57.0412 99.9498 57.0386V56.9985Z" fill="url(#paint6_linear)"/>
<path d="M59.3478 245.6V251.386H53.4078V245.6H49.0518V261H53.4078V254.994H59.3478V261H63.7038V245.6H59.3478Z" fill="black"/>
<path d="M79.9487 261H84.4807L77.6607 245.6H73.3707L66.5727 261H71.0167L72.2267 258.008H78.7387L79.9487 261ZM73.5027 254.796L75.4827 249.868L77.4627 254.796H73.5027Z" fill="black"/>
<path d="M97.6415 245.6V251.386H91.7015V245.6H87.3455V261H91.7015V254.994H97.6415V261H101.998V245.6H97.6415Z" fill="black"/>
<path d="M112.368 245.6C108.144 245.6 105.482 247.822 105.482 251.452C105.482 253.85 106.626 255.588 108.65 256.49L105.526 261H110.102L112.632 257.128H115.008V261H119.298V245.6H112.368ZM112.456 249.032H115.008V253.762H112.412C110.762 253.762 109.882 252.926 109.882 251.386C109.882 249.824 110.762 249.032 112.456 249.032Z" fill="black"/>
<path d="M136.114 245.6H122.386V249.054H127.116V261H131.406V249.054H136.114V245.6Z" fill="black"/>
<path d="M147.076 250.506H143.512V245.6H139.222V261H146.504C150.508 261 152.994 259.13 152.994 255.522C152.994 252.156 150.816 250.506 147.076 250.506ZM146.218 257.876H143.512V253.608H146.218C147.692 253.608 148.616 254.158 148.616 255.61C148.616 257.062 147.67 257.876 146.218 257.876Z" fill="black"/>
<path d="M181.585 261L181.541 245.6H177.955L172.675 254.488L167.263 245.6H163.677V261H167.703V253.058L171.641 259.482H173.577L177.537 252.838L177.581 261H181.585Z" fill="black"/>
<path d="M185.767 261H197.471V257.546H190.123V245.6H185.767V261Z" fill="black"/>
<path d="M199.918 256.336H206.342V253.124H199.918V256.336Z" fill="black"/>
<path d="M231.02 257.546V245.6H226.73V257.546H222.748V245.6H218.458V257.546H214.432V245.6H210.142V261H229.018V264.102H233.022V257.546H231.02Z" fill="black"/>
<path d="M236.206 261H240.32L246.656 251.98V261H250.946V245.6H246.854L240.496 254.642V245.6H236.206V261Z" fill="black"/>
<path d="M265.077 261H269.983L265.121 253.036L269.939 245.6H265.363L261.689 251.584H259.599V245.6H255.265V261H259.599V255.104H261.579L265.077 261Z" fill="black"/>
<path d="M283.951 261H288.483L281.663 245.6H277.373L270.575 261H275.019L276.229 258.008H282.741L283.951 261ZM277.505 254.796L279.485 249.868L281.465 254.796H277.505Z" fill="black"/>
<path fill-rule="evenodd" clip-rule="evenodd" d="M56.3778 241.577C57.2082 240.963 58.2356 240.6 59.3478 240.6H63.7038C65.9882 240.6 67.9149 242.132 68.5123 244.225L68.7965 243.581C69.5963 241.769 71.3902 240.6 73.3707 240.6H77.6607C79.639 240.6 81.4314 241.766 82.2324 243.575L82.5304 244.248C83.1201 242.143 85.0525 240.6 87.3455 240.6H91.7015C92.8137 240.6 93.841 240.963 94.6715 241.577C95.502 240.963 96.5293 240.6 97.6415 240.6H101.998C103.464 240.6 104.784 241.232 105.698 242.238C107.724 241.078 110.058 240.6 112.368 240.6H119.298C119.837 240.6 120.356 240.685 120.842 240.843C121.328 240.685 121.847 240.6 122.386 240.6H136.114C136.656 240.6 137.179 240.686 137.668 240.846C138.157 240.686 138.679 240.6 139.222 240.6H143.512C146.262 240.6 148.494 242.821 148.512 245.568C150.61 245.755 152.794 246.392 154.615 247.892C157.024 249.875 157.994 252.691 157.994 255.522C157.994 258.567 156.885 261.463 154.417 263.483C152.102 265.378 149.202 266 146.504 266H139.222C137.64 266 136.23 265.266 135.314 264.119C134.397 265.266 132.987 266 131.406 266H127.116C125.534 266 124.123 265.265 123.207 264.118C122.291 265.265 120.88 266 119.298 266H115.008C114.117 266 113.279 265.767 112.555 265.357C111.817 265.772 110.975 266 110.102 266H105.526C104.914 266 104.318 265.888 103.764 265.679C103.215 265.886 102.619 266 101.998 266H97.6415C96.5293 266 95.502 265.637 94.6715 265.023C93.841 265.637 92.8137 266 91.7015 266H87.3455C86.8469 266 86.3653 265.927 85.9109 265.791C85.4526 265.928 84.9715 266 84.4807 266H79.9487C78.0488 266 76.3261 264.925 75.4827 263.248C74.6392 264.925 72.9166 266 71.0167 266H66.5727C66.0812 266 65.5993 265.928 65.1404 265.791C64.6854 265.927 64.2031 266 63.7038 266H59.3478C58.2356 266 57.2082 265.637 56.3778 265.023C55.5473 265.637 54.5199 266 53.4078 266H49.0518C46.2903 266 44.0518 263.761 44.0518 261V245.6C44.0518 242.839 46.2903 240.6 49.0518 240.6H53.4078C54.5199 240.6 55.5473 240.963 56.3778 241.577ZM53.4078 245.6H49.0518V261H53.4078V254.994H59.3478V261H63.7038V245.6H59.3478V251.386H53.4078V245.6ZM84.4807 261L77.6607 245.6H73.3707L66.5727 261H71.0167L72.2267 258.008H78.7387L79.9487 261H84.4807ZM77.4627 254.796L75.4827 249.868L73.5027 254.796H77.4627ZM91.7015 261V254.994H97.6415V261H101.998V245.6H97.6415V251.386H91.7015V245.6H87.3455V261H91.7015ZM105.526 261H110.102L112.632 257.128H115.008V261H119.298V245.6H112.368C110.044 245.6 108.193 246.273 106.998 247.483C106.034 248.458 105.497 249.783 105.483 251.386C105.483 251.408 105.482 251.43 105.482 251.452C105.482 253.021 105.972 254.307 106.878 255.262C106.917 255.303 106.957 255.344 106.998 255.384C107.157 255.541 107.328 255.688 107.511 255.825C107.591 255.885 107.673 255.944 107.757 256C108.032 256.184 108.33 256.347 108.65 256.49L105.526 261ZM110.008 252.297C110.06 252.463 110.127 252.615 110.21 252.754C110.23 252.787 110.251 252.819 110.272 252.851C110.68 253.448 111.402 253.762 112.412 253.762H115.008V249.032H112.456C112.442 249.032 112.427 249.032 112.412 249.032C112.398 249.032 112.383 249.032 112.368 249.033C111.097 249.054 110.3 249.536 110.008 250.471C109.925 250.739 109.882 251.044 109.882 251.386C109.882 251.408 109.883 251.43 109.883 251.452C109.888 251.764 109.93 252.046 110.008 252.297ZM127.116 261H131.406V249.054H136.114V245.6H122.386V249.054H127.116V261ZM139.222 261H146.504C150.475 261 152.953 259.16 152.993 255.61C152.994 255.581 152.994 255.551 152.994 255.522C152.994 252.156 150.816 250.506 147.076 250.506H143.512V245.6H139.222V261ZM143.512 257.876H146.218C146.315 257.876 146.411 257.872 146.504 257.865C147.524 257.785 148.252 257.267 148.512 256.383C148.58 256.15 148.616 255.892 148.616 255.61C148.616 255.58 148.615 255.551 148.615 255.522C148.608 255.273 148.573 255.052 148.512 254.856C148.305 254.198 147.801 253.832 147.076 253.685C146.817 253.633 146.529 253.608 146.218 253.608H143.512V257.876ZM183.675 265.542C183.025 265.841 182.313 266 181.585 266H177.581C176.166 266 174.887 265.412 173.977 264.466C173.845 264.477 173.711 264.482 173.577 264.482H171.641C171.527 264.482 171.415 264.478 171.302 264.471C170.393 265.413 169.116 266 167.703 266H163.677C160.915 266 158.677 263.761 158.677 261V245.6C158.677 242.839 160.915 240.6 163.677 240.6H167.263C169.008 240.6 170.626 241.509 171.533 243L172.622 244.787L173.656 243.046C174.557 241.53 176.191 240.6 177.955 240.6H181.541C182.296 240.6 183.012 240.767 183.654 241.067C184.296 240.767 185.012 240.6 185.767 240.6H190.123C192.885 240.6 195.123 242.839 195.123 245.6V251.703C195.735 249.634 197.651 248.124 199.918 248.124H205.142V245.6C205.142 242.839 207.38 240.6 210.142 240.6H214.432C215.148 240.6 215.829 240.751 216.445 241.022C217.061 240.751 217.741 240.6 218.458 240.6H222.748C223.455 240.6 224.129 240.747 224.739 241.012C225.349 240.747 226.022 240.6 226.73 240.6H231.02C231.969 240.6 232.857 240.865 233.613 241.324C234.369 240.865 235.257 240.6 236.206 240.6H240.496C241.704 240.6 242.811 241.028 243.676 241.741C244.56 241.012 245.681 240.6 246.854 240.6H250.946C251.72 240.6 252.452 240.776 253.106 241.089C253.76 240.776 254.492 240.6 255.265 240.6H259.599C260.673 240.6 261.667 240.938 262.482 241.514C263.312 240.928 264.315 240.6 265.363 240.6H269.939C271.375 240.6 272.72 241.215 273.656 242.256C274.589 241.22 275.932 240.6 277.373 240.6H281.663C283.642 240.6 285.434 241.766 286.235 243.575L293.055 258.975C293.74 260.522 293.597 262.31 292.674 263.727C291.751 265.145 290.175 266 288.483 266H283.951C282.052 266 280.329 264.925 279.485 263.248C278.642 264.925 276.919 266 275.019 266H270.575C270.476 266 270.378 265.997 270.279 265.991C270.181 265.997 270.082 266 269.983 266H265.077C264.088 266 263.14 265.708 262.339 265.183C261.552 265.7 260.611 266 259.599 266H255.265C254.492 266 253.76 265.824 253.106 265.511C252.452 265.824 251.72 266 250.946 266H246.656C245.454 266 244.351 265.576 243.488 264.868C242.605 265.592 241.489 266 240.32 266H237.649C236.901 267.82 235.111 269.102 233.022 269.102H229.018C226.928 269.102 225.138 267.82 224.39 266H210.142C207.493 266 205.326 263.941 205.153 261.336H202.46C202.287 263.941 200.12 266 197.471 266H185.767C185.02 266 184.311 265.836 183.675 265.542ZM197.471 261V257.546H190.123V245.6H185.767V261H197.471ZM199.918 256.336H206.342V253.124H199.918V256.336ZM210.142 261H229.018V264.102H233.022V257.546H231.02V245.6H226.73V257.546H222.748V245.6H218.458V257.546H214.432V245.6H210.142V261ZM236.206 261H240.32L246.656 251.98V261H250.946V245.6H246.854L240.496 254.642V245.6H236.206V261ZM259.599 261V255.104H261.579L265.077 261H269.983L265.121 253.036L269.939 245.6H265.363L261.689 251.584H259.599V245.6H255.265V261H259.599ZM270.575 261H275.019L276.229 258.008H282.741L283.951 261H288.483L281.663 245.6H277.373L270.575 261ZM277.505 254.796H281.465L279.485 249.868L277.505 254.796ZM167.263 245.6H163.677V261H167.703V253.058L171.641 259.482H173.577L177.537 252.838L177.581 261H181.585V260.978L181.541 245.6H177.955L172.675 254.488L167.263 245.6Z" fill="white"/>
<rect x="16" y="291" width="304" height="82" rx="24" fill="white"/>
<rect x="16" y="397" width="125" height="43" rx="13" fill="white"/>
<rect x="195" y="397" width="125" height="43" rx="13" fill="white"/>
<path d="M111.818 318.2V322.246H106.75V318.2H104.93V328H106.75V323.8H111.818V328H113.638V318.2H111.818ZM118.977 320.44C117.773 320.44 116.611 320.748 115.813 321.364L116.499 322.638C117.059 322.176 117.927 321.896 118.767 321.896C120.013 321.896 120.629 322.498 120.629 323.52V323.632H118.697C116.429 323.632 115.589 324.612 115.589 325.858C115.589 327.16 116.667 328.098 118.375 328.098C119.495 328.098 120.307 327.734 120.727 327.09V328H122.379V323.618C122.379 321.462 121.133 320.44 118.977 320.44ZM118.739 326.824C117.843 326.824 117.311 326.418 117.311 325.788C117.311 325.242 117.633 324.794 118.823 324.794H120.629V325.662C120.335 326.432 119.593 326.824 118.739 326.824ZM124.544 328H126.294V325.046H130.06V328H131.81V320.524H130.06V323.562H126.294V320.524H124.544V328ZM137.039 320.524C134.953 320.524 133.623 321.462 133.623 323.212C133.623 324.36 134.225 325.144 135.289 325.508L133.525 328H135.401L136.927 325.746H138.901V328H140.469V320.524H137.039ZM137.095 321.994H138.901V324.528H137.039C135.961 324.528 135.401 324.136 135.401 323.268C135.401 322.372 136.017 321.994 137.095 321.994ZM148.745 320.524H141.745V322.008H144.377V328H146.127V322.008H148.745V320.524ZM153.767 322.988L151.765 322.974V320.524H150.015V328L153.515 328.014C155.559 328.028 156.721 327.09 156.721 325.452C156.721 323.898 155.685 322.988 153.767 322.988ZM153.361 326.726L151.765 326.712V324.178L153.361 324.192C154.397 324.206 154.943 324.57 154.943 325.424C154.943 326.292 154.383 326.74 153.361 326.726ZM164.452 320.412C163.094 320.412 161.96 320.86 161.204 321.714L162.212 322.694C162.8 322.092 163.528 321.798 164.382 321.798C165.642 321.798 166.594 322.498 166.874 323.59H163.43V324.85H166.888C166.636 325.97 165.67 326.726 164.382 326.726C163.528 326.726 162.8 326.432 162.212 325.844L161.204 326.824C161.96 327.664 163.094 328.126 164.452 328.126C166.832 328.126 168.568 326.502 168.568 324.262C168.568 322.022 166.832 320.412 164.452 320.412ZM175.625 328H177.683L174.785 324.122L177.501 320.524H175.625L173.413 323.548H172.013V320.524H170.263V328H172.013V325.004H173.371L175.625 328ZM182.073 328.098C183.529 328.098 184.691 327.468 185.265 326.348L183.921 325.564C183.473 326.278 182.801 326.6 182.059 326.6C180.771 326.6 179.791 325.718 179.791 324.262C179.791 322.82 180.771 321.924 182.059 321.924C182.801 321.924 183.473 322.246 183.921 322.96L185.265 322.176C184.691 321.042 183.529 320.44 182.073 320.44C179.707 320.44 178.027 322.022 178.027 324.262C178.027 326.502 179.707 328.098 182.073 328.098ZM186.806 320.524V328H188.556V322.008H192.238V328H193.974V320.524H186.806ZM203.335 324.304C203.335 321.966 201.739 320.44 199.555 320.44C197.329 320.44 195.691 322.036 195.691 324.262C195.691 326.488 197.315 328.098 199.821 328.098C201.109 328.098 202.159 327.678 202.831 326.88L201.893 325.802C201.361 326.348 200.703 326.614 199.863 326.614C198.561 326.614 197.651 325.914 197.441 324.822H203.307C203.321 324.654 203.335 324.444 203.335 324.304ZM199.555 321.84C200.703 321.84 201.529 322.582 201.669 323.66H197.427C197.595 322.568 198.421 321.84 199.555 321.84ZM209.393 320.44C208.371 320.44 207.503 320.79 206.915 321.504V320.524H205.249V330.716H206.999V327.09C207.601 327.776 208.441 328.098 209.393 328.098C211.577 328.098 213.187 326.586 213.187 324.262C213.187 321.952 211.577 320.44 209.393 320.44ZM209.197 326.6C207.937 326.6 206.971 325.69 206.971 324.262C206.971 322.834 207.937 321.924 209.197 321.924C210.457 321.924 211.409 322.834 211.409 324.262C211.409 325.69 210.457 326.6 209.197 326.6ZM220.577 320.524H213.577V322.008H216.209V328H217.959V322.008H220.577V320.524ZM224.633 320.44C223.429 320.44 222.267 320.748 221.469 321.364L222.155 322.638C222.715 322.176 223.583 321.896 224.423 321.896C225.669 321.896 226.285 322.498 226.285 323.52V323.632H224.353C222.085 323.632 221.245 324.612 221.245 325.858C221.245 327.16 222.323 328.098 224.031 328.098C225.151 328.098 225.963 327.734 226.383 327.09V328H228.035V323.618C228.035 321.462 226.789 320.44 224.633 320.44ZM224.395 326.824C223.499 326.824 222.967 326.418 222.967 325.788C222.967 325.242 223.289 324.794 224.479 324.794H226.285V325.662C225.991 326.432 225.249 326.824 224.395 326.824ZM230.746 325.774C230.102 325.774 229.612 326.236 229.612 326.936C229.612 327.44 229.878 327.804 230.27 327.972L229.71 330.114H230.844L231.558 328.14C231.81 327.496 231.88 327.244 231.88 326.936C231.88 326.25 231.404 325.774 230.746 325.774ZM80.4401 336.44C79.4181 336.44 78.5501 336.79 77.9621 337.504V336.524H76.2961V346.716H78.0461V343.09C78.6481 343.776 79.4881 344.098 80.4401 344.098C82.6241 344.098 84.2341 342.586 84.2341 340.262C84.2341 337.952 82.6241 336.44 80.4401 336.44ZM80.2441 342.6C78.9841 342.6 78.0181 341.69 78.0181 340.262C78.0181 338.834 78.9841 337.924 80.2441 337.924C81.5041 337.924 82.4561 338.834 82.4561 340.262C82.4561 341.69 81.5041 342.6 80.2441 342.6ZM88.6661 336.44C87.4621 336.44 86.3001 336.748 85.5021 337.364L86.1881 338.638C86.7481 338.176 87.6161 337.896 88.4561 337.896C89.7021 337.896 90.3181 338.498 90.3181 339.52V339.632H88.3861C86.1181 339.632 85.2781 340.612 85.2781 341.858C85.2781 343.16 86.3561 344.098 88.0641 344.098C89.1841 344.098 89.9961 343.734 90.4161 343.09V344H92.0681V339.618C92.0681 337.462 90.8221 336.44 88.6661 336.44ZM88.4281 342.824C87.5321 342.824 87.0001 342.418 87.0001 341.788C87.0001 341.242 87.3221 340.794 88.5121 340.794H90.3181V341.662C90.0241 342.432 89.2821 342.824 88.4281 342.824ZM98.6039 340.108C99.3739 339.8 99.8639 339.198 99.8639 338.47C99.8639 337.238 98.4639 336.412 96.5459 336.412C95.5659 336.412 94.5999 336.622 93.5779 337.098L94.0259 338.386C94.8519 338.022 95.6359 337.84 96.3919 337.84C97.4419 337.84 98.0719 338.176 98.0719 338.722C98.0719 339.268 97.5539 339.576 96.6719 339.576H95.3559V340.752H96.8119C97.7499 340.752 98.2819 341.074 98.2819 341.662C98.2819 342.306 97.5679 342.684 96.4059 342.684C95.4819 342.684 94.5299 342.446 93.8019 342.04L93.2979 343.342C94.1939 343.846 95.3419 344.126 96.4899 344.126C98.5759 344.126 100.074 343.188 100.074 341.802C100.074 340.976 99.5279 340.374 98.6039 340.108ZM105.922 336.888C104.774 336.888 103.794 337.35 103.136 338.148C103.29 336.524 104.144 335.684 105.95 335.306L109.1 334.662L108.848 333.094L105.376 333.836C102.716 334.396 101.456 336.146 101.456 339.142C101.456 342.404 102.968 344.14 105.53 344.14C107.882 344.14 109.52 342.67 109.52 340.472C109.52 338.358 108.064 336.888 105.922 336.888ZM105.572 342.726C104.284 342.726 103.388 341.816 103.388 340.514C103.388 339.212 104.27 338.372 105.572 338.372C106.86 338.372 107.728 339.212 107.728 340.514C107.728 341.802 106.86 342.726 105.572 342.726ZM111.214 344H112.824L116.94 339.072V344H118.69V336.524H117.094L112.964 341.452V336.524H111.214V344ZM125.188 336.44C124.166 336.44 123.298 336.79 122.71 337.504V336.524H121.044V346.716H122.794V343.09C123.396 343.776 124.236 344.098 125.188 344.098C127.372 344.098 128.982 342.586 128.982 340.262C128.982 337.952 127.372 336.44 125.188 336.44ZM124.992 342.6C123.732 342.6 122.766 341.69 122.766 340.262C122.766 338.834 123.732 337.924 124.992 337.924C126.252 337.924 127.204 338.834 127.204 340.262C127.204 341.69 126.252 342.6 124.992 342.6ZM133.414 336.44C132.21 336.44 131.048 336.748 130.25 337.364L130.936 338.638C131.496 338.176 132.364 337.896 133.204 337.896C134.45 337.896 135.066 338.498 135.066 339.52V339.632H133.134C130.866 339.632 130.026 340.612 130.026 341.858C130.026 343.16 131.104 344.098 132.812 344.098C133.932 344.098 134.744 343.734 135.164 343.09V344H136.816V339.618C136.816 337.462 135.57 336.44 133.414 336.44ZM133.176 342.824C132.28 342.824 131.748 342.418 131.748 341.788C131.748 341.242 132.07 340.794 133.26 340.794H135.066V341.662C134.772 342.432 134.03 342.824 133.176 342.824ZM145.814 336.44C143.868 336.44 142.37 337.63 142.02 339.422H140.732V336.524H138.982V344H140.732V341.004H141.992C142.314 342.852 143.826 344.098 145.814 344.098C148.068 344.098 149.706 342.502 149.706 340.262C149.706 338.008 148.068 336.44 145.814 336.44ZM145.814 342.614C144.596 342.614 143.672 341.704 143.672 340.262C143.672 338.82 144.596 337.924 145.814 337.924C147.032 337.924 147.97 338.82 147.97 340.262C147.97 341.704 147.032 342.614 145.814 342.614ZM162.441 342.516V336.524H160.691V342.516H157.821V336.524H156.071V342.516H153.173V336.524H151.423V344H161.881V345.54H163.519V342.516H162.441ZM171.794 340.304C171.794 337.966 170.198 336.44 168.014 336.44C165.788 336.44 164.15 338.036 164.15 340.262C164.15 342.488 165.774 344.098 168.28 344.098C169.568 344.098 170.618 343.678 171.29 342.88L170.352 341.802C169.82 342.348 169.162 342.614 168.322 342.614C167.02 342.614 166.11 341.914 165.9 340.822H171.766C171.78 340.654 171.794 340.444 171.794 340.304ZM168.014 337.84C169.162 337.84 169.988 338.582 170.128 339.66H165.886C166.054 338.568 166.88 337.84 168.014 337.84ZM179.448 336.524H173.708V344H175.458V338.008H179.448V336.524ZM183.726 344.098C186.05 344.098 187.716 342.502 187.716 340.262C187.716 338.022 186.05 336.44 183.726 336.44C181.43 336.44 179.75 338.022 179.75 340.262C179.75 342.502 181.43 344.098 183.726 344.098ZM183.726 342.6C182.466 342.6 181.514 341.69 181.514 340.262C181.514 338.834 182.466 337.924 183.726 337.924C185 337.924 185.952 338.834 185.952 340.262C185.952 341.69 185 342.6 183.726 342.6ZM192.847 344.098C194.303 344.098 195.465 343.468 196.039 342.348L194.695 341.564C194.247 342.278 193.575 342.6 192.833 342.6C191.545 342.6 190.565 341.718 190.565 340.262C190.565 338.82 191.545 337.924 192.833 337.924C193.575 337.924 194.247 338.246 194.695 338.96L196.039 338.176C195.465 337.042 194.303 336.44 192.847 336.44C190.481 336.44 188.801 338.022 188.801 340.262C188.801 342.502 190.481 344.098 192.847 344.098ZM200.258 336.524C198.172 336.524 196.842 337.462 196.842 339.212C196.842 340.36 197.444 341.144 198.508 341.508L196.744 344H198.62L200.146 341.746H202.12V344H203.688V336.524H200.258ZM200.314 337.994H202.12V340.528H200.258C199.18 340.528 198.62 340.136 198.62 339.268C198.62 338.372 199.236 337.994 200.314 337.994ZM215.329 340.108C216.043 339.8 216.477 339.226 216.477 338.456C216.477 337.224 215.385 336.524 213.565 336.524H209.911V344H213.719C215.735 344 216.715 343.216 216.715 341.9C216.715 340.99 216.253 340.388 215.329 340.108ZM211.577 337.798H213.411C214.307 337.798 214.769 338.092 214.769 338.708C214.769 339.324 214.307 339.646 213.411 339.646H211.577V337.798ZM213.579 342.726H211.577V340.808H213.635C214.587 340.808 215.021 341.13 215.021 341.788C215.021 342.432 214.517 342.726 213.579 342.726ZM229.42 344H231.548L227.18 338.582L231.296 334.2H229.252L224.408 339.226V334.2H222.588V344H224.408V341.494L225.962 339.898L229.42 344ZM239.32 340.304C239.32 337.966 237.724 336.44 235.54 336.44C233.314 336.44 231.676 338.036 231.676 340.262C231.676 342.488 233.3 344.098 235.806 344.098C237.094 344.098 238.144 343.678 238.816 342.88L237.878 341.802C237.346 342.348 236.688 342.614 235.848 342.614C234.546 342.614 233.636 341.914 233.426 340.822H239.292C239.306 340.654 239.32 340.444 239.32 340.304ZM235.54 337.84C236.688 337.84 237.514 338.582 237.654 339.66H233.412C233.58 338.568 234.406 337.84 235.54 337.84ZM242.667 337.616V336.524H241.001V344H242.751V340.374C242.751 338.848 243.591 338.064 244.921 338.064C245.047 338.064 245.173 338.078 245.327 338.106V336.44C244.081 336.44 243.171 336.832 242.667 337.616ZM249.626 336.44C248.422 336.44 247.26 336.748 246.462 337.364L247.148 338.638C247.708 338.176 248.576 337.896 249.416 337.896C250.662 337.896 251.278 338.498 251.278 339.52V339.632H249.346C247.078 339.632 246.238 340.612 246.238 341.858C246.238 343.16 247.316 344.098 249.024 344.098C250.144 344.098 250.956 343.734 251.376 343.09V344H253.028V339.618C253.028 337.462 251.782 336.44 249.626 336.44ZM249.388 342.824C248.492 342.824 247.96 342.418 247.96 341.788C247.96 341.242 248.282 340.794 249.472 340.794H251.278V341.662C250.984 342.432 250.242 342.824 249.388 342.824ZM257.584 344.098C259.684 344.098 260.972 343.188 260.972 341.788C260.972 338.862 256.352 340.206 256.352 338.694C256.352 338.204 256.856 337.854 257.92 337.854C258.634 337.854 259.348 337.994 260.062 338.414L260.734 337.084C260.062 336.678 258.928 336.44 257.934 336.44C255.918 336.44 254.644 337.364 254.644 338.778C254.644 341.76 259.264 340.416 259.264 341.844C259.264 342.362 258.802 342.67 257.696 342.67C256.758 342.67 255.75 342.362 255.092 341.928L254.42 343.258C255.092 343.734 256.338 344.098 257.584 344.098ZM263.039 344.098C263.669 344.098 264.187 343.608 264.187 342.936C264.187 342.236 263.669 341.774 263.039 341.774C262.409 341.774 261.891 342.236 261.891 342.936C261.891 343.608 262.409 344.098 263.039 344.098Z" fill="black"/>
<path d="M252 5C252 26.7477 243.361 47.6048 227.983 62.9828C212.605 78.3607 191.748 87 170 87C148.252 87 127.395 78.3607 112.017 62.9828C96.6393 47.6048 88 26.7478 88 5.00002L170 5H252Z" fill="white"/>
<path d="M48.032 423.216C48.032 414.96 35.328 417.52 35.328 414.096C35.328 412.976 36.288 412.08 38.944 412.08C40.896 412.08 43.008 412.656 45.152 413.808L47.104 409.104C45.312 408.048 42.976 407.408 40.608 407.216V403.76H36.768V407.28C31.584 407.92 29.056 410.896 29.056 414.416C29.056 422.736 41.792 420.144 41.792 423.696C41.792 424.784 40.768 425.52 38.144 425.52C35.552 425.52 32.736 424.624 30.752 423.312L28.672 427.984C30.528 429.264 33.568 430.192 36.768 430.416V433.84H40.608V430.288C45.6 429.552 48.032 426.608 48.032 423.216Z" fill="#00BCBC"/>
<path d="M60.58 417.26H59.44L59.66 414.6H65.5V412H56.96L56.24 419.88H59.82C62.36 419.88 63.08 420.6 63.08 421.7C63.08 422.84 62.08 423.52 60.46 423.52C59 423.52 57.54 423.06 56.48 422.26L55.2 424.74C56.56 425.7 58.6 426.24 60.54 426.24C64.54 426.24 66.36 424.08 66.36 421.6C66.36 419.12 64.72 417.26 60.58 417.26ZM72.3769 417.26H71.2369L71.4569 414.6H77.2969V412H68.7569L68.0369 419.88H71.6169C74.1569 419.88 74.8769 420.6 74.8769 421.7C74.8769 422.84 73.8769 423.52 72.2569 423.52C70.7969 423.52 69.3369 423.06 68.2769 422.26L66.9969 424.74C68.3569 425.7 70.3969 426.24 72.3369 426.24C76.3369 426.24 78.1569 424.08 78.1569 421.6C78.1569 419.12 76.5169 417.26 72.3769 417.26ZM91.1355 426.24C94.5955 426.24 97.1355 423.62 97.1355 419C97.1355 414.38 94.5955 411.76 91.1355 411.76C87.6955 411.76 85.1355 414.38 85.1355 419C85.1355 423.62 87.6955 426.24 91.1355 426.24ZM91.1355 423.5C89.5355 423.5 88.4155 422.18 88.4155 419C88.4155 415.82 89.5355 414.5 91.1355 414.5C92.7555 414.5 93.8755 415.82 93.8755 419C93.8755 422.18 92.7555 423.5 91.1355 423.5ZM104.71 426.24C108.17 426.24 110.71 423.62 110.71 419C110.71 414.38 108.17 411.76 104.71 411.76C101.27 411.76 98.7097 414.38 98.7097 419C98.7097 423.62 101.27 426.24 104.71 426.24ZM104.71 423.5C103.11 423.5 101.99 422.18 101.99 419C101.99 415.82 103.11 414.5 104.71 414.5C106.33 414.5 107.45 415.82 107.45 419C107.45 422.18 106.33 423.5 104.71 423.5ZM118.284 426.24C121.744 426.24 124.284 423.62 124.284 419C124.284 414.38 121.744 411.76 118.284 411.76C114.844 411.76 112.284 414.38 112.284 419C112.284 423.62 114.844 426.24 118.284 426.24ZM118.284 423.5C116.684 423.5 115.564 422.18 115.564 419C115.564 415.82 116.684 414.5 118.284 414.5C119.904 414.5 121.024 415.82 121.024 419C121.024 422.18 119.904 423.5 118.284 423.5Z" fill="black"/>
<path d="M246.6 420.42H244.32V417.8H241.26V420.42H237.5L243.62 412H240.22L233.62 420.88V423.06H241.16V426H244.32V423.06H246.6V420.42ZM252.33 417.26H251.19L251.41 414.6H257.25V412H248.71L247.99 419.88H251.57C254.11 419.88 254.83 420.6 254.83 421.7C254.83 422.84 253.83 423.52 252.21 423.52C250.75 423.52 249.29 423.06 248.23 422.26L246.95 424.74C248.31 425.7 250.35 426.24 252.29 426.24C256.29 426.24 258.11 424.08 258.11 421.6C258.11 419.12 256.47 417.26 252.33 417.26ZM279.129 426L279.089 415.24H276.169L272.509 421.46L269.069 415.24H265.809V426H268.629V419.54L271.769 424.96H273.089L276.309 419.56V426H279.129ZM282.117 426H284.997L290.217 419.6V426H293.317V415.24H290.457L285.217 421.64V415.24H282.117V426ZM296.316 426H299.416V421.98H304.096V426H307.216V415.24H304.096V419.44H299.416V415.24H296.316V426Z" fill="black"/>
<path d="M216.5 406C209.595 406 204 411.595 204 418.5C204 425.405 209.595 431 216.5 431C223.405 431 229 425.405 229 418.5C229 411.595 223.405 406 216.5 406Z" fill="#00BCBC"/>
<path fill-rule="evenodd" clip-rule="evenodd" d="M215.961 410C214.878 410 214 410.878 214 411.961V419.153C214 419.311 214.019 419.464 214.054 419.611C214.047 420.263 214.376 420.901 214.974 421.262L220.414 424.535C221.313 425.077 222.481 424.786 223.022 423.887C223.563 422.988 223.273 421.82 222.374 421.279L217.923 418.6V411.961C217.923 410.878 217.045 410 215.961 410Z" fill="white"/>
<g filter="url(#filter0_d)">
<path d="M162.531 400.393L185.975 433.213C179.766 434.57 168.698 428.331 168.698 428.331C168.698 428.331 160.834 438.706 154.912 440L162.531 400.393Z" fill="white"/>
<path fill-rule="evenodd" clip-rule="evenodd" d="M154.912 440L158.469 421.51C161.522 424.284 164.956 426.604 168.698 428.331C168.698 428.331 160.834 438.706 154.912 440Z" fill="#BBFFF9"/>
</g>
<path d="M187.446 49.122H181.414V42.22H170.568V49.122H162.332L178.862 25.4H166.972L148.76 50.746V58.228H170.22V66H181.414V58.228H187.446V49.122Z" fill="#46BBCE"/>
<g filter="url(#filter1_di)">
<path d="M202.427 174.125C200.547 174.125 199.021 175.651 199.021 177.531V182.073H196.75V173.262C195.478 172.763 194.297 172.081 193.207 171.173C191.936 170.038 185.396 164.27 179.537 155.958H163.823V146.198C167.147 144.849 169.5 141.593 169.5 137.792C169.5 132.782 165.426 128.708 160.417 128.708C155.407 128.708 151.333 132.782 151.333 137.792C151.333 141.593 153.686 144.849 157.01 146.198V155.958H136.573C129.67 155.958 124.083 161.545 124.083 168.448V182.073H121.812V177.531C121.812 175.651 120.286 174.125 118.406 174.125C116.526 174.125 115 175.651 115 177.531V193.427C115 195.307 116.526 196.833 118.406 196.833C120.286 196.833 121.812 195.307 121.812 193.427V188.885H124.083V202.51C124.083 209.414 129.67 215 136.573 215H184.26C191.164 215 196.75 209.414 196.75 202.51V188.885H199.021V193.427C199.021 195.307 200.547 196.833 202.427 196.833C204.307 196.833 205.833 195.307 205.833 193.427V177.531C205.833 175.651 204.307 174.125 202.427 174.125ZM137.708 178.667C137.708 173.671 141.796 169.583 146.792 169.583C151.787 169.583 155.875 173.671 155.875 178.667C155.875 183.663 151.787 187.75 146.792 187.75C141.796 187.75 137.708 183.663 137.708 178.667ZM170.635 201.375H150.198C148.336 201.375 146.792 199.831 146.792 197.969C146.792 196.107 148.336 194.563 150.198 194.563H170.635C172.497 194.563 174.042 196.107 174.042 197.969C174.042 199.831 172.497 201.375 170.635 201.375ZM174.042 187.75C169.046 187.75 164.958 183.663 164.958 178.667C164.958 173.671 169.046 169.583 174.042 169.583C179.037 169.583 183.125 173.671 183.125 178.667C183.125 183.663 179.037 187.75 174.042 187.75Z" fill="white"/>
<path d="M201.292 106C188.77 106 178.583 116.314 178.583 128.994C178.583 146.493 198.24 163.511 199.075 164.224C200.352 165.314 202.227 165.314 203.508 164.224C204.344 163.507 224 146.489 224 128.994C224 116.314 213.813 106 201.292 106V106ZM201.292 137.792C196.282 137.792 192.208 133.718 192.208 128.708C192.208 123.699 196.282 119.625 201.292 119.625C206.301 119.625 210.375 123.699 210.375 128.708C210.375 133.718 206.301 137.792 201.292 137.792Z" fill="white"/>
</g>
<defs>
<filter id="filter0_d" x="150.912" y="396.393" width="45.0628" height="53.6066" filterUnits="userSpaceOnUse" color-interpolation-filters="sRGB">
<feFlood flood-opacity="0" result="BackgroundImageFix"/>
<feColorMatrix in="SourceAlpha" type="matrix" values="0 0 0 0 0 0 0 0 0 0 0 0 0 0 0 0 0 0 127 0"/>
<feOffset dx="3" dy="3"/>
<feGaussianBlur stdDeviation="3.5"/>
<feColorMatrix type="matrix" values="0 0 0 0 0.279 0 0 0 0 0.9 0 0 0 0 0.840225 0 0 0 1 0"/>
<feBlend mode="normal" in2="BackgroundImageFix" result="effect1_dropShadow"/>
<feBlend mode="normal" in="SourceGraphic" in2="effect1_dropShadow" result="shape"/>
</filter>
<filter id="filter1_di" x="109" y="100" width="129" height="129" filterUnits="userSpaceOnUse" color-interpolation-filters="sRGB">
<feFlood flood-opacity="0" result="BackgroundImageFix"/>
<feColorMatrix in="SourceAlpha" type="matrix" values="0 0 0 0 0 0 0 0 0 0 0 0 0 0 0 0 0 0 127 0"/>
<feOffset dx="4" dy="4"/>
<feGaussianBlur stdDeviation="5"/>
<feColorMatrix type="matrix" values="0 0 0 0 0.1715 0 0 0 0 0.816667 0 0 0 0 0.816667 0 0 0 1 0"/>
<feBlend mode="normal" in2="BackgroundImageFix" result="effect1_dropShadow"/>
<feBlend mode="normal" in="SourceGraphic" in2="effect1_dropShadow" result="shape"/>
<feColorMatrix in="SourceAlpha" type="matrix" values="0 0 0 0 0 0 0 0 0 0 0 0 0 0 0 0 0 0 127 0" result="hardAlpha"/>
<feOffset dx="-4" dy="-4"/>
<feGaussianBlur stdDeviation="4.5"/>
<feComposite in2="hardAlpha" operator="arithmetic" k2="-1" k3="1"/>
<feColorMatrix type="matrix" values="0 0 0 0 0.441945 0 0 0 0 0.887146 0 0 0 0 0.895833 0 0 0 0.52 0"/>
<feBlend mode="normal" in2="shape" result="effect2_innerShadow"/>
</filter>
<linearGradient id="paint0_linear" x1="5.5" y1="-157" x2="289.5" y2="495.5" gradientUnits="userSpaceOnUse">
<stop stop-color="#00C2FF"/>
<stop offset="1" stop-color="#1EE7CF"/>
</linearGradient>
<linearGradient id="paint1_linear" x1="49" y1="11" x2="301.5" y2="474" gradientUnits="userSpaceOnUse">
<stop stop-color="#19D2EB"/>
<stop offset="1" stop-color="#55F5DF"/>
</linearGradient>
<linearGradient id="paint2_linear" x1="59.5" y1="-9" x2="291.5" y2="495.5" gradientUnits="userSpaceOnUse">
<stop stop-color="#00E0FF"/>
<stop offset="1" stop-color="#42F2D1"/>
</linearGradient>
<linearGradient id="paint3_linear" x1="51" y1="11" x2="303.5" y2="474" gradientUnits="userSpaceOnUse">
<stop stop-color="#B2F6FF"/>
<stop offset="1" stop-color="#28D7BE"/>
</linearGradient>
<linearGradient id="paint4_linear" x1="27" y1="473.49" x2="247.084" y2="60.8524" gradientUnits="userSpaceOnUse">
<stop stop-color="#73F5FF"/>
<stop offset="0.99" stop-color="#7AFFEC"/>
</linearGradient>
<linearGradient id="paint5_linear" x1="129.774" y1="288" x2="310" y2="288" gradientUnits="userSpaceOnUse">
<stop stop-color="white"/>
<stop offset="0.99" stop-color="white" stop-opacity="0.4"/>
</linearGradient>
<linearGradient id="paint6_linear" x1="59.8997" y1="86" x2="140" y2="86" gradientUnits="userSpaceOnUse">
<stop stop-color="white"/>
<stop offset="0.99" stop-color="white" stop-opacity="0.4"/>
</linearGradient>
</defs>
</svg>
