<svg width="338" height="474" viewBox="0 0 338 474" fill="none" xmlns="http://www.w3.org/2000/svg">
<rect x="2.5" y="2.5" width="331" height="469" rx="32.5" fill="url(#paint0_linear)" stroke="url(#paint1_linear)" stroke-width="5"/>
<mask id="mask0" mask-type="alpha" maskUnits="userSpaceOnUse" x="2" y="0" width="336" height="474">
<rect x="4.5" y="2.5" width="331" height="469" rx="41.5" fill="url(#paint2_linear)" stroke="url(#paint3_linear)" stroke-width="5"/>
</mask>
<g mask="url(#mask0)">
<path d="M198.89 5.0093C198.89 5.0093 97.8208 47.0947 93.9888 101.845C90.1568 156.595 112.775 152.615 106.069 185.086C99.3631 217.557 -10.9124 255.616 18.7856 356.766C48.4837 457.916 142.368 370.584 242 469H35C18.4315 469 5 455.569 5 439V35.0014C5 18.4323 18.4323 5.00064 35.0014 5.00144L198.89 5.0093Z" fill="url(#paint4_linear)" fill-opacity="0.5"/>
</g>
<path opacity="0.46" d="M219.887 378C202.092 377.978 184.702 372.68 169.917 362.777C155.131 352.875 143.613 338.811 136.819 322.363C130.024 305.916 128.258 287.824 131.743 270.373C135.229 252.922 143.809 236.896 156.4 224.321C168.992 211.745 185.028 203.185 202.483 199.721C219.939 196.258 238.029 198.046 254.468 204.862C270.906 211.677 284.956 223.212 294.84 238.01C304.724 252.808 310 270.204 310 288C309.958 311.876 300.447 334.761 283.553 351.633C266.66 368.506 243.763 377.988 219.887 378ZM219.887 222.747C206.985 222.764 194.378 226.607 183.659 233.788C172.94 240.969 164.59 251.166 159.665 263.091C154.74 275.016 153.461 288.134 155.989 300.786C158.517 313.438 164.739 325.056 173.868 334.173C182.998 343.29 194.625 349.496 207.28 352.006C219.936 354.517 233.051 353.219 244.97 348.278C256.888 343.336 267.074 334.972 274.24 324.243C281.406 313.515 285.231 300.902 285.231 288C285.177 270.703 278.27 254.132 266.022 241.918C253.774 229.704 237.184 222.843 219.887 222.837V222.747Z" fill="url(#paint5_linear)"/>
<path opacity="0.46" d="M99.9498 126C92.0407 125.99 84.3121 123.636 77.7407 119.234C71.1694 114.833 66.0503 108.583 63.0305 101.273C60.0106 93.9627 59.2257 85.9216 60.7747 78.1657C62.3238 70.4097 66.1374 63.2871 71.7335 57.698C77.3296 52.1089 84.457 48.3043 92.2148 46.7649C99.9727 45.2256 108.013 46.0207 115.319 49.0496C122.625 52.0786 128.869 57.2055 133.262 63.7824C137.655 70.3593 140 78.0909 140 86C139.981 96.6116 135.754 106.783 128.246 114.281C120.738 121.78 110.561 125.995 99.9498 126ZM99.9498 56.9985C94.2156 57.0064 88.6124 58.7141 83.8484 61.9056C79.0844 65.0972 75.3735 69.6294 73.1846 74.9294C70.9957 80.2294 70.4271 86.0594 71.5506 91.6825C72.6742 97.3056 75.4395 102.469 79.497 106.521C83.5545 110.573 88.7222 113.331 94.3468 114.447C99.9715 115.563 105.801 114.986 111.098 112.79C116.395 110.594 120.922 106.877 124.107 102.108C127.292 97.3398 128.991 91.7342 128.991 86C128.968 78.3124 125.898 70.9477 120.454 65.5193C115.011 60.0908 107.637 57.0412 99.9498 57.0386V56.9985Z" fill="url(#paint6_linear)"/>
<path d="M99.5861 235.216C101.026 234.496 101.866 233.224 101.866 231.568C101.866 228.784 99.5141 227.2 95.5061 227.2H87.3461V244H95.9621C100.282 244 102.634 242.152 102.634 239.2C102.634 237.184 101.53 235.84 99.5861 235.216ZM92.0261 230.608H95.0501C96.3941 230.608 97.0661 231.184 97.0661 232.264C97.0661 233.368 96.3941 233.92 95.0501 233.92H92.0261V230.608ZM95.7701 240.592H92.0261V237.136H95.7701C97.1381 237.136 97.8341 237.688 97.8341 238.84C97.8341 239.992 97.1381 240.592 95.7701 240.592Z" fill="black"/>
<path d="M111.109 240.328V237.256H118.573V233.704H111.109V230.872H119.581V227.2H106.405V244H119.893V240.328H111.109Z" fill="black"/>
<path d="M135.033 227.2V233.512H128.553V227.2H123.801V244H128.553V237.448H135.033V244H139.785V227.2H135.033Z" fill="black"/>
<path d="M144.595 244H149.083L155.994 234.16V244H160.675V227.2H156.211L149.275 237.064V227.2H144.595V244Z" fill="black"/>
<path d="M178.394 244H183.338L175.898 227.2H171.218L163.802 244H168.65L169.97 240.736H177.074L178.394 244ZM171.362 237.232L173.522 231.856L175.682 237.232H171.362Z" fill="black"/>
<path d="M205.999 244L205.951 227.2H202.039L196.279 236.896L190.375 227.2H186.463V244H190.831V235.288L195.151 242.344H197.263L201.583 235.096L201.607 244H205.999Z" fill="black"/>
<path d="M210.773 244H215.261L222.173 234.16V244H226.853V227.2H222.389L215.453 237.064V227.2H210.773V244Z" fill="black"/>
<path d="M242.892 227.2V233.512H236.412V227.2H231.66V244H236.412V237.448H242.892V244H247.644V227.2H242.892Z" fill="black"/>
<path d="M99.3182 257.2H87.0062V274H91.6862V260.968H99.2942L99.3182 257.2Z" fill="black"/>
<path d="M102.644 274H107.132L114.044 264.16V274H118.724V257.2H114.26L107.324 267.064V257.2H102.644V274Z" fill="black"/>
<path d="M134.763 257.2V263.512H128.283V257.2H123.531V274H128.283V267.448H134.763V274H139.515V257.2H134.763Z" fill="black"/>
<path d="M152.581 274.336C157.957 274.336 161.917 270.64 161.917 265.6C161.917 260.56 157.957 256.864 152.581 256.864C147.205 256.864 143.245 260.56 143.245 265.6C143.245 270.64 147.205 274.336 152.581 274.336ZM152.581 270.4C150.037 270.4 148.045 268.504 148.045 265.6C148.045 262.696 150.037 260.8 152.581 260.8C155.125 260.8 157.117 262.696 157.117 265.6C157.117 268.504 155.125 270.4 152.581 270.4Z" fill="black"/>
<path d="M180.957 270.232V257.2H167.421L167.229 262.384C167.061 266.872 166.509 270.184 164.373 270.232H163.773V277.384H168.141V274H178.893V277.384H183.237V270.232H180.957ZM171.381 262.792L171.453 260.968H176.277V270.232H169.917C170.901 268.816 171.261 266.08 171.381 262.792Z" fill="black"/>
<path d="M206.245 274L206.197 257.2H202.285L196.525 266.896L190.621 257.2H186.709V274H191.077V265.288L195.397 272.344H197.509L201.829 265.096L201.853 274H206.245Z" fill="black"/>
<path d="M223.931 274H228.875L221.435 257.2H216.755L209.339 274H214.187L215.507 270.736H222.611L223.931 274ZM216.899 267.232L219.059 261.856L221.219 267.232H216.899Z" fill="black"/>
<path d="M243.232 257.2V263.512H236.752V257.2H232V274H236.752V267.448H243.232V274H247.984V257.2H243.232Z" fill="black"/>
<path fill-rule="evenodd" clip-rule="evenodd" d="M96.683 231.145C96.423 230.867 96.0307 230.694 95.5061 230.633C95.3638 230.616 95.2118 230.608 95.0501 230.608H92.0261V233.92H95.0501C95.3165 233.92 95.5565 233.898 95.7701 233.855C96.4823 233.71 96.9009 233.325 97.0261 232.698C97.047 232.593 97.0597 232.482 97.0642 232.363C97.0654 232.331 97.0661 232.298 97.0661 232.264C97.0661 232.251 97.066 232.239 97.0658 232.227C97.0653 232.193 97.0642 232.161 97.0624 232.128C97.0568 232.027 97.0447 231.93 97.0261 231.838C97.0068 231.742 96.9806 231.653 96.9474 231.568C96.929 231.521 96.9085 231.476 96.8858 231.432C96.8308 231.327 96.7632 231.231 96.683 231.145ZM97.8061 238.464C97.7243 237.948 97.4632 237.587 97.0261 237.372C96.7031 237.214 96.284 237.136 95.7701 237.136H92.0261V240.592H95.7701C95.8356 240.592 95.8996 240.591 95.9621 240.588C96.3893 240.569 96.7443 240.486 97.0261 240.34C97.2763 240.211 97.4688 240.033 97.6031 239.806C97.6574 239.714 97.7022 239.615 97.7375 239.507C97.7689 239.411 97.7927 239.309 97.8088 239.2C97.8257 239.087 97.8341 238.967 97.8341 238.84C97.8341 238.827 97.834 238.813 97.8338 238.8C97.8335 238.779 97.833 238.759 97.8322 238.739C97.8286 238.643 97.8199 238.551 97.8061 238.464ZM87.3461 244V227.2H95.5061C98.4767 227.2 100.538 228.07 101.405 229.654C101.58 229.972 101.706 230.319 101.781 230.693C101.838 230.97 101.866 231.261 101.866 231.568C101.866 231.808 101.848 232.04 101.814 232.264C101.744 232.713 101.606 233.128 101.405 233.504C101.285 233.729 101.142 233.941 100.978 234.137C100.614 234.574 100.145 234.936 99.5861 235.216C100.137 235.393 100.621 235.628 101.031 235.919C101.164 236.014 101.289 236.114 101.405 236.22C102.126 236.873 102.547 237.749 102.622 238.84C102.63 238.957 102.634 239.077 102.634 239.2C102.634 239.211 102.634 239.222 102.634 239.233C102.627 240.465 102.208 241.503 101.405 242.292C100.297 243.383 98.4583 244 95.9621 244H87.3461ZM102.778 247.441C100.71 248.585 98.3103 249 95.9621 249H87.3461C84.5846 249 82.3461 246.761 82.3461 244L82.3461 227.2C82.3461 224.439 84.5846 222.2 87.3461 222.2H95.5061C97.9089 222.2 100.456 222.632 102.606 223.95C103.523 222.879 104.885 222.2 106.405 222.2H119.581C120.335 222.2 121.05 222.367 121.691 222.665C122.332 222.367 123.047 222.2 123.801 222.2H128.553C129.789 222.2 130.92 222.648 131.793 223.392C132.665 222.648 133.797 222.2 135.033 222.2H139.785C140.656 222.2 141.476 222.423 142.19 222.815C142.903 222.423 143.723 222.2 144.595 222.2H149.275C150.621 222.2 151.843 222.732 152.742 223.598C153.665 222.71 154.905 222.2 156.211 222.2H160.675C163.436 222.2 165.675 224.439 165.675 227.2V227.377L166.644 225.181C167.444 223.369 169.237 222.2 171.218 222.2H175.898C177.876 222.2 179.669 223.366 180.47 225.175L181.463 227.419V227.2C181.463 224.439 183.702 222.2 186.463 222.2H190.375C192.12 222.2 193.738 223.109 194.646 224.6L196.226 227.195L197.741 224.646C198.642 223.13 200.275 222.2 202.039 222.2H205.951C206.825 222.2 207.647 222.424 208.362 222.818C209.077 222.424 209.899 222.2 210.773 222.2H215.453C216.799 222.2 218.022 222.732 218.921 223.598C219.843 222.71 221.083 222.2 222.389 222.2H226.853C227.724 222.2 228.543 222.423 229.256 222.815C229.97 222.423 230.789 222.2 231.66 222.2H236.412C237.648 222.2 238.779 222.648 239.652 223.392C240.525 222.648 241.656 222.2 242.892 222.2H247.644C250.406 222.2 252.644 224.439 252.644 227.2V244C252.644 246.761 250.406 249 247.644 249H242.892C241.656 249 240.525 248.551 239.652 247.808C238.779 248.551 237.648 249 236.412 249H231.66C230.789 249 229.97 248.777 229.256 248.385C228.543 248.777 227.724 249 226.853 249H222.173C220.832 249 219.615 248.472 218.717 247.613C217.795 248.495 216.56 249 215.261 249H210.773C209.908 249 209.094 248.78 208.385 248.394C207.659 248.788 206.84 249 205.999 249H201.607C200.115 249 198.775 248.346 197.858 247.308C197.662 247.332 197.464 247.344 197.263 247.344H195.151C194.958 247.344 194.767 247.333 194.578 247.311C193.662 248.347 192.323 249 190.831 249H186.463C185.917 249 185.391 248.912 184.899 248.75C184.401 248.914 183.876 249 183.338 249H178.394C176.356 249 174.523 247.763 173.759 245.875L173.703 245.736H173.341L173.285 245.875C172.521 247.763 170.688 249 168.65 249H163.802C163.264 249 162.738 248.913 162.24 248.75C161.748 248.912 161.221 249 160.675 249H155.994C154.654 249 153.436 248.472 152.539 247.613C151.617 248.495 150.382 249 149.083 249H144.595C143.723 249 142.903 248.777 142.19 248.385C141.476 248.777 140.656 249 139.785 249H135.033C133.797 249 132.665 248.551 131.793 247.808C130.92 248.551 129.789 249 128.553 249H123.801C123.108 249 122.447 248.859 121.847 248.604C121.247 248.859 120.587 249 119.893 249H106.405C104.977 249 103.689 248.401 102.778 247.441ZM106.405 244H119.893V240.328H111.109V237.256H118.573V233.704H111.109V230.872H119.581V227.2H106.405V244ZM123.801 244H128.553V237.448H135.033V244H139.785V227.2H135.033V233.512H128.553V227.2H123.801V244ZM155.994 244H160.675V227.2H156.211L149.275 237.064V227.2H144.595V244H149.083L155.994 234.16V244ZM183.338 244L175.898 227.2H171.218L163.802 244H168.65L169.97 240.736H177.074L178.394 244H183.338ZM173.522 231.856L171.362 237.232H175.682L173.522 231.856ZM190.831 244V235.288L195.151 242.344H197.263L201.583 235.096L201.607 244H205.999V243.988L205.951 227.2H202.039L196.279 236.896L190.375 227.2H186.463V244H190.831ZM215.261 244L222.173 234.16V244H226.853V227.2H222.389L215.453 237.064V227.2H210.773V244H215.261ZM242.892 244H247.644V227.2H242.892V233.512H236.412V227.2H231.66V244H236.412V237.448H242.892V244ZM102.644 257.2H107.324V267.064L114.26 257.2H118.724V274H114.044V264.16L107.132 274H102.644V257.2ZM99.2942 260.968L99.3182 257.2H87.0062V274H91.6862V260.968H99.2942ZM96.6862 265.968H97.6437V274C97.6437 276.761 99.8823 279 102.644 279H107.132C108.431 279 109.666 278.495 110.588 277.613C111.486 278.472 112.703 279 114.044 279H118.724C119.595 279 120.414 278.777 121.127 278.385C121.841 278.777 122.66 279 123.531 279H128.283C129.519 279 130.651 278.551 131.523 277.808C132.396 278.551 133.527 279 134.763 279H139.515C141.331 279 142.92 278.033 143.796 276.585C146.236 278.341 149.294 279.336 152.581 279.336C154.804 279.336 156.923 278.881 158.816 278.043C159.139 280.493 161.235 282.384 163.773 282.384H168.141C170.337 282.384 172.202 280.968 172.874 279H174.16C174.832 280.968 176.697 282.384 178.893 282.384H183.237C185.433 282.384 187.298 280.968 187.97 279H191.077C192.569 279 193.908 278.347 194.824 277.311C195.013 277.333 195.204 277.344 195.397 277.344H197.509C197.71 277.344 197.908 277.332 198.104 277.308C199.021 278.346 200.361 279 201.853 279H206.245C206.776 279 207.297 278.916 207.792 278.755C208.285 278.915 208.806 279 209.339 279H214.187C216.224 279 218.058 277.763 218.822 275.875L218.878 275.736H219.239L219.295 275.875C220.059 277.763 221.893 279 223.931 279H228.875C229.412 279 229.938 278.914 230.435 278.75C230.927 278.912 231.453 279 232 279H236.752C237.988 279 239.119 278.551 239.992 277.808C240.865 278.551 241.996 279 243.232 279H247.984C250.745 279 252.984 276.761 252.984 274V257.2C252.984 254.439 250.745 252.2 247.984 252.2H243.232C241.996 252.2 240.865 252.648 239.992 253.392C239.119 252.648 237.988 252.2 236.752 252.2H232C229.239 252.2 227 254.439 227 257.2V257.419L226.006 255.175C225.205 253.366 223.413 252.2 221.435 252.2H216.755C214.774 252.2 212.98 253.369 212.181 255.181L211.198 257.407L211.197 257.186C211.189 254.43 208.953 252.2 206.197 252.2H202.285C200.521 252.2 198.888 253.13 197.987 254.646L196.472 257.195L194.892 254.6C193.985 253.109 192.366 252.2 190.621 252.2H186.709C185.639 252.2 184.647 252.536 183.833 253.109C183.02 252.536 182.028 252.2 180.957 252.2H167.421C165.2 252.2 163.307 253.651 162.659 255.671C160.054 253.262 156.479 251.864 152.581 251.864C149.294 251.864 146.236 252.859 143.796 254.615C142.92 253.167 141.331 252.2 139.515 252.2H134.763C133.527 252.2 132.396 252.648 131.523 253.392C130.651 252.648 129.519 252.2 128.283 252.2H123.531C122.66 252.2 121.841 252.423 121.127 252.815C120.414 252.423 119.595 252.2 118.724 252.2H114.26C112.954 252.2 111.714 252.71 110.792 253.598C109.893 252.732 108.67 252.2 107.324 252.2H102.644C102.06 252.2 101.5 252.3 100.979 252.484C100.45 252.298 99.8894 252.2 99.3182 252.2H87.0062C84.2448 252.2 82.0062 254.439 82.0062 257.2L82.0062 274C82.0062 276.761 84.2448 279 87.0062 279H91.6862C94.4476 279 96.6862 276.761 96.6862 274V265.968ZM123.531 257.2V274H128.283V267.448H134.763V274H139.515V257.2H134.763V263.512H128.283V257.2H123.531ZM164.373 270.232H163.773V277.384H168.141V274H178.893V277.384H183.237V270.232H180.957V257.2H167.421L167.229 262.384C167.226 262.466 167.223 262.547 167.219 262.628C167.219 262.632 167.219 262.636 167.219 262.64C167.163 264.009 167.068 265.262 166.899 266.339C166.809 266.912 166.698 267.436 166.561 267.9C166.337 268.659 166.043 269.259 165.655 269.661C165.462 269.862 165.244 270.013 165.001 270.109C164.973 270.12 164.946 270.13 164.918 270.139C164.749 270.196 164.567 270.228 164.373 270.232ZM169.917 270.232C170.152 269.893 170.352 269.479 170.521 269C170.875 267.997 171.096 266.709 171.232 265.232C171.248 265.055 171.263 264.876 171.277 264.694C171.323 264.086 171.357 263.45 171.381 262.792L171.391 262.54L171.391 262.538L171.453 260.968H176.277V270.232H169.917ZM186.709 274H191.077V265.288L195.397 272.344H197.509L201.829 265.096L201.853 274H206.245V273.988L206.197 257.2H202.285L196.525 266.896L190.621 257.2H186.709V274ZM161.884 266.387C161.9 266.204 161.91 266.018 161.914 265.831C161.916 265.754 161.917 265.677 161.917 265.6C161.917 265.596 161.917 265.592 161.917 265.588C161.911 260.554 157.953 256.864 152.581 256.864C149.031 256.864 146.098 258.476 144.515 261.023C143.702 262.332 143.245 263.889 143.245 265.6C143.245 267.311 143.702 268.868 144.515 270.177C146.098 272.724 149.031 274.336 152.581 274.336C155.013 274.336 157.156 273.579 158.773 272.284C159.499 271.702 160.12 271.011 160.612 270.232C161.319 269.114 161.764 267.813 161.884 266.387ZM228.875 274L221.435 257.2H216.755L209.339 274H214.187L215.507 270.736H222.611L223.931 274H228.875ZM219.059 261.856L216.899 267.232H221.219L219.059 261.856ZM232 274H236.752V267.448H243.232V274H247.984V257.2H243.232V263.512H236.752V257.2H232V274ZM152.581 265.4C152.572 265.401 152.53 265.406 152.467 265.432C152.386 265.465 152.298 265.521 152.223 265.599C152.222 265.599 152.222 265.6 152.222 265.6C152.222 265.6 152.222 265.601 152.223 265.601C152.298 265.678 152.386 265.735 152.467 265.768C152.531 265.794 152.572 265.799 152.581 265.8C152.59 265.799 152.631 265.794 152.695 265.768C152.776 265.735 152.864 265.678 152.939 265.601C152.94 265.601 152.94 265.6 152.94 265.6C152.94 265.6 152.94 265.599 152.939 265.599C152.864 265.521 152.776 265.465 152.695 265.432C152.631 265.406 152.59 265.401 152.581 265.4ZM148.045 265.6C148.045 268.504 150.037 270.4 152.581 270.4C155.125 270.4 157.117 268.504 157.117 265.6C157.117 262.696 155.125 260.8 152.581 260.8C150.037 260.8 148.045 262.696 148.045 265.6Z" fill="white"/>
<rect x="16" y="291" width="304" height="82" rx="24" fill="white"/>
<rect x="16" y="397" width="125" height="43" rx="13" fill="white"/>
<rect x="195" y="397" width="125" height="43" rx="13" fill="white"/>
<path d="M31.2423 321.14C32.8523 321.14 34.2243 320.566 35.1343 319.502L33.9583 318.382C33.2443 319.166 32.3623 319.544 31.3403 319.544C29.3103 319.544 27.8403 318.116 27.8403 316.1C27.8403 314.084 29.3103 312.656 31.3403 312.656C32.3623 312.656 33.2443 313.034 33.9583 313.804L35.1343 312.698C34.2243 311.634 32.8523 311.06 31.2563 311.06C28.2463 311.06 26.0063 313.174 26.0063 316.1C26.0063 319.026 28.2463 321.14 31.2423 321.14ZM36.6281 313.524V321H38.3781V315.008H42.0601V321H43.7961V313.524H36.6281ZM46.1574 321H47.7674L51.8834 316.072V321H53.6334V313.524H52.0374L47.9074 318.452V313.524H46.1574V321ZM61.3495 321H63.4075L60.5095 317.122L63.2255 313.524H61.3495L59.1375 316.548H57.7375V313.524H55.9875V321H57.7375V318.004H59.0955L61.3495 321ZM71.3957 317.304C71.3957 314.966 69.7997 313.44 67.6157 313.44C65.3897 313.44 63.7517 315.036 63.7517 317.262C63.7517 319.488 65.3757 321.098 67.8817 321.098C69.1697 321.098 70.2197 320.678 70.8917 319.88L69.9537 318.802C69.4217 319.348 68.7637 319.614 67.9237 319.614C66.6217 319.614 65.7117 318.914 65.5017 317.822H71.3677C71.3817 317.654 71.3957 317.444 71.3957 317.304ZM67.6157 314.84C68.7637 314.84 69.5897 315.582 69.7297 316.66H65.4877C65.6557 315.568 66.4817 314.84 67.6157 314.84ZM77.4538 313.44C76.4318 313.44 75.5638 313.79 74.9758 314.504V313.524H73.3098V323.716H75.0598V320.09C75.6618 320.776 76.5018 321.098 77.4538 321.098C79.6378 321.098 81.2478 319.586 81.2478 317.262C81.2478 314.952 79.6378 313.44 77.4538 313.44ZM77.2578 319.6C75.9978 319.6 75.0318 318.69 75.0318 317.262C75.0318 315.834 75.9978 314.924 77.2578 314.924C78.5178 314.924 79.4698 315.834 79.4698 317.262C79.4698 318.69 78.5178 319.6 77.2578 319.6ZM86.8586 321H88.4686L92.5846 316.072V321H94.3346V313.524H92.7386L88.6086 318.452V313.524H86.8586V321ZM101.059 317.108C101.829 316.8 102.319 316.198 102.319 315.47C102.319 314.238 100.919 313.412 99.001 313.412C98.021 313.412 97.055 313.622 96.033 314.098L96.481 315.386C97.307 315.022 98.091 314.84 98.847 314.84C99.897 314.84 100.527 315.176 100.527 315.722C100.527 316.268 100.009 316.576 99.127 316.576H97.811V317.752H99.267C100.205 317.752 100.737 318.074 100.737 318.662C100.737 319.306 100.023 319.684 98.861 319.684C97.937 319.684 96.985 319.446 96.257 319.04L95.753 320.342C96.649 320.846 97.797 321.126 98.945 321.126C101.031 321.126 102.529 320.188 102.529 318.802C102.529 317.976 101.983 317.374 101.059 317.108ZM109.558 311.2L109.418 315.26C109.32 318.018 108.956 319.474 107.766 319.474C107.612 319.474 107.486 319.46 107.346 319.418L107.22 321C107.598 321.084 107.906 321.14 108.214 321.14C110.328 321.14 110.902 319.054 111.028 315.19L111.112 312.74H114.976V321H116.768V311.2H109.558ZM122.115 313.44C120.911 313.44 119.749 313.748 118.951 314.364L119.637 315.638C120.197 315.176 121.065 314.896 121.905 314.896C123.151 314.896 123.767 315.498 123.767 316.52V316.632H121.835C119.567 316.632 118.727 317.612 118.727 318.858C118.727 320.16 119.805 321.098 121.513 321.098C122.633 321.098 123.445 320.734 123.865 320.09V321H125.517V316.618C125.517 314.462 124.271 313.44 122.115 313.44ZM121.877 319.824C120.981 319.824 120.449 319.418 120.449 318.788C120.449 318.242 120.771 317.794 121.961 317.794H123.767V318.662C123.473 319.432 122.731 319.824 121.877 319.824ZM131.729 313.888C130.581 313.888 129.601 314.35 128.943 315.148C129.097 313.524 129.951 312.684 131.757 312.306L134.907 311.662L134.655 310.094L131.183 310.836C128.523 311.396 127.263 313.146 127.263 316.142C127.263 319.404 128.775 321.14 131.337 321.14C133.689 321.14 135.327 319.67 135.327 317.472C135.327 315.358 133.871 313.888 131.729 313.888ZM131.379 319.726C130.091 319.726 129.195 318.816 129.195 317.514C129.195 316.212 130.077 315.372 131.379 315.372C132.667 315.372 133.535 316.212 133.535 317.514C133.535 318.802 132.667 319.726 131.379 319.726ZM140.353 321.098C142.677 321.098 144.343 319.502 144.343 317.262C144.343 315.022 142.677 313.44 140.353 313.44C138.057 313.44 136.377 315.022 136.377 317.262C136.377 319.502 138.057 321.098 140.353 321.098ZM140.353 319.6C139.093 319.6 138.141 318.69 138.141 317.262C138.141 315.834 139.093 314.924 140.353 314.924C141.627 314.924 142.579 315.834 142.579 317.262C142.579 318.69 141.627 319.6 140.353 319.6ZM150.216 313.44C149.194 313.44 148.326 313.79 147.738 314.504V313.524H146.072V323.716H147.822V320.09C148.424 320.776 149.264 321.098 150.216 321.098C152.4 321.098 154.01 319.586 154.01 317.262C154.01 314.952 152.4 313.44 150.216 313.44ZM150.02 319.6C148.76 319.6 147.794 318.69 147.794 317.262C147.794 315.834 148.76 314.924 150.02 314.924C151.28 314.924 152.232 315.834 152.232 317.262C152.232 318.69 151.28 319.6 150.02 319.6ZM158.441 313.44C157.237 313.44 156.075 313.748 155.277 314.364L155.963 315.638C156.523 315.176 157.391 314.896 158.231 314.896C159.477 314.896 160.093 315.498 160.093 316.52V316.632H158.161C155.893 316.632 155.053 317.612 155.053 318.858C155.053 320.16 156.131 321.098 157.839 321.098C158.959 321.098 159.771 320.734 160.191 320.09V321H161.843V316.618C161.843 314.462 160.597 313.44 158.441 313.44ZM158.203 319.824C157.307 319.824 156.775 319.418 156.775 318.788C156.775 318.242 157.097 317.794 158.287 317.794H160.093V318.662C159.799 319.432 159.057 319.824 158.203 319.824ZM169.931 313.524H162.931V315.008H165.563V321H167.313V315.008H169.931V313.524ZM174.204 321.098C176.528 321.098 178.194 319.502 178.194 317.262C178.194 315.022 176.528 313.44 174.204 313.44C171.908 313.44 170.228 315.022 170.228 317.262C170.228 319.502 171.908 321.098 174.204 321.098ZM174.204 319.6C172.944 319.6 171.992 318.69 171.992 317.262C171.992 315.834 172.944 314.924 174.204 314.924C175.478 314.924 176.43 315.834 176.43 317.262C176.43 318.69 175.478 319.6 174.204 319.6ZM184.067 313.44C183.045 313.44 182.177 313.79 181.589 314.504V313.524H179.923V323.716H181.673V320.09C182.275 320.776 183.115 321.098 184.067 321.098C186.251 321.098 187.861 319.586 187.861 317.262C187.861 314.952 186.251 313.44 184.067 313.44ZM183.871 319.6C182.611 319.6 181.645 318.69 181.645 317.262C181.645 315.834 182.611 314.924 183.871 314.924C185.131 314.924 186.083 315.834 186.083 317.262C186.083 318.69 185.131 319.6 183.871 319.6ZM189.603 321H191.213L195.329 316.072V321H197.079V313.524H195.483L191.353 318.452V313.524H189.603V321ZM199.433 321H201.043L205.159 316.072V321H206.909V313.524H205.313L201.183 318.452V313.524H199.433V321ZM219.81 321H221.868L218.396 315.946L221.742 311.2H219.81L216.996 315.302H215.12V311.2H213.328V321H215.12V316.87H216.94L219.81 321ZM225.789 313.44C224.585 313.44 223.423 313.748 222.625 314.364L223.311 315.638C223.871 315.176 224.739 314.896 225.579 314.896C226.825 314.896 227.441 315.498 227.441 316.52V316.632H225.509C223.241 316.632 222.401 317.612 222.401 318.858C222.401 320.16 223.479 321.098 225.187 321.098C226.307 321.098 227.119 320.734 227.539 320.09V321H229.191V316.618C229.191 314.462 227.945 313.44 225.789 313.44ZM225.551 319.824C224.655 319.824 224.123 319.418 224.123 318.788C224.123 318.242 224.445 317.794 225.635 317.794H227.441V318.662C227.147 319.432 226.405 319.824 225.551 319.824ZM234.759 321.098C236.215 321.098 237.377 320.468 237.951 319.348L236.607 318.564C236.159 319.278 235.487 319.6 234.745 319.6C233.457 319.6 232.477 318.718 232.477 317.262C232.477 315.82 233.457 314.924 234.745 314.924C235.487 314.924 236.159 315.246 236.607 315.96L237.951 315.176C237.377 314.042 236.215 313.44 234.759 313.44C232.393 313.44 230.713 315.022 230.713 317.262C230.713 319.502 232.393 321.098 234.759 321.098ZM239.491 313.524V321H241.241V315.008H244.923V321H246.659V313.524H239.491ZM256.021 317.304C256.021 314.966 254.425 313.44 252.241 313.44C250.015 313.44 248.377 315.036 248.377 317.262C248.377 319.488 250.001 321.098 252.507 321.098C253.795 321.098 254.845 320.678 255.517 319.88L254.579 318.802C254.047 319.348 253.389 319.614 252.549 319.614C251.247 319.614 250.337 318.914 250.127 317.822H255.993C256.007 317.654 256.021 317.444 256.021 317.304ZM252.241 314.84C253.389 314.84 254.215 315.582 254.355 316.66H250.113C250.281 315.568 251.107 314.84 252.241 314.84ZM262.079 313.44C261.057 313.44 260.189 313.79 259.601 314.504V313.524H257.935V323.716H259.685V320.09C260.287 320.776 261.127 321.098 262.079 321.098C264.263 321.098 265.873 319.586 265.873 317.262C265.873 314.952 264.263 313.44 262.079 313.44ZM261.883 319.6C260.623 319.6 259.657 318.69 259.657 317.262C259.657 315.834 260.623 314.924 261.883 314.924C263.143 314.924 264.095 315.834 264.095 317.262C264.095 318.69 263.143 319.6 261.883 319.6ZM271.016 321.098C272.472 321.098 273.634 320.468 274.208 319.348L272.864 318.564C272.416 319.278 271.744 319.6 271.002 319.6C269.714 319.6 268.734 318.718 268.734 317.262C268.734 315.82 269.714 314.924 271.002 314.924C271.744 314.924 272.416 315.246 272.864 315.96L274.208 315.176C273.634 314.042 272.472 313.44 271.016 313.44C268.65 313.44 266.97 315.022 266.97 317.262C266.97 319.502 268.65 321.098 271.016 321.098ZM281.111 321H283.169L280.271 317.122L282.987 313.524H281.111L278.899 316.548H277.499V313.524H275.749V321H277.499V318.004H278.857L281.111 321ZM287.489 321.098C289.813 321.098 291.479 319.502 291.479 317.262C291.479 315.022 289.813 313.44 287.489 313.44C285.193 313.44 283.513 315.022 283.513 317.262C283.513 319.502 285.193 321.098 287.489 321.098ZM287.489 319.6C286.229 319.6 285.277 318.69 285.277 317.262C285.277 315.834 286.229 314.924 287.489 314.924C288.763 314.924 289.715 315.834 289.715 317.262C289.715 318.69 288.763 319.6 287.489 319.6ZM298.948 313.524H293.208V321H294.958V315.008H298.948V313.524ZM303.226 321.098C305.55 321.098 307.216 319.502 307.216 317.262C307.216 315.022 305.55 313.44 303.226 313.44C300.93 313.44 299.25 315.022 299.25 317.262C299.25 319.502 300.93 321.098 303.226 321.098ZM303.226 319.6C301.966 319.6 301.014 318.69 301.014 317.262C301.014 315.834 301.966 314.924 303.226 314.924C304.5 314.924 305.452 315.834 305.452 317.262C305.452 318.69 304.5 319.6 303.226 319.6ZM47.763 329.888C46.615 329.888 45.635 330.35 44.977 331.148C45.131 329.524 45.985 328.684 47.791 328.306L50.941 327.662L50.689 326.094L47.217 326.836C44.557 327.396 43.297 329.146 43.297 332.142C43.297 335.404 44.809 337.14 47.371 337.14C49.723 337.14 51.361 335.67 51.361 333.472C51.361 331.358 49.905 329.888 47.763 329.888ZM47.413 335.726C46.125 335.726 45.229 334.816 45.229 333.514C45.229 332.212 46.111 331.372 47.413 331.372C48.701 331.372 49.569 332.212 49.569 333.514C49.569 334.802 48.701 335.726 47.413 335.726ZM56.6949 331.988L54.8049 331.974V329.524H53.0549V337L56.4429 337.014C58.4869 337.028 59.6349 336.09 59.6349 334.452C59.6349 332.898 58.6129 331.988 56.6949 331.988ZM60.6009 337H62.3509V329.524H60.6009V337ZM56.2889 335.726L54.8049 335.712V333.178L56.2889 333.192C57.3249 333.206 57.8709 333.57 57.8709 334.424C57.8709 335.292 57.3109 335.74 56.2889 335.726ZM65.4313 329.524L65.3053 332.408C65.2213 333.962 65.1793 335.558 64.0313 335.558C63.9333 335.558 63.8213 335.544 63.6953 335.516L63.6113 336.986C63.9753 337.084 64.2973 337.14 64.5773 337.14C66.3413 337.14 66.7333 335.152 66.8593 332.492L66.9293 331.008H69.7293V337H71.4793V329.524H65.4313ZM77.7053 337H79.4553V334.046H83.2213V337H84.9713V329.524H83.2213V332.562H79.4553V329.524H77.7053V337ZM90.1026 329.44C88.8986 329.44 87.7366 329.748 86.9386 330.364L87.6246 331.638C88.1846 331.176 89.0526 330.896 89.8926 330.896C91.1386 330.896 91.7546 331.498 91.7546 332.52V332.632H89.8226C87.5546 332.632 86.7146 333.612 86.7146 334.858C86.7146 336.16 87.7926 337.098 89.5006 337.098C90.6206 337.098 91.4326 336.734 91.8526 336.09V337H93.5046V332.618C93.5046 330.462 92.2586 329.44 90.1026 329.44ZM89.8646 335.824C88.9686 335.824 88.4366 335.418 88.4366 334.788C88.4366 334.242 88.7586 333.794 89.9486 333.794H91.7546V334.662C91.4606 335.432 90.7186 335.824 89.8646 335.824ZM103.767 327.2H99.7353V337H101.555V334.172H103.767C106.343 334.172 107.939 332.842 107.939 330.686C107.939 328.516 106.343 327.2 103.767 327.2ZM103.683 332.632H101.555V328.74H103.683C105.279 328.74 106.105 329.454 106.105 330.686C106.105 331.918 105.279 332.632 103.683 332.632ZM109.675 337H111.369L116.633 330.056V337H118.425V327.2H116.731L111.467 334.158V327.2H109.675V337ZM132.373 332.086C132.373 329.51 130.511 327.97 127.207 327.802V326.808H125.527V327.802C122.223 327.97 120.347 329.496 120.347 332.086C120.347 334.662 122.223 336.188 125.527 336.356V337.392H127.207V336.356C130.511 336.216 132.373 334.662 132.373 332.086ZM127.207 334.928V329.244C129.419 329.398 130.623 330.35 130.623 332.072C130.623 333.794 129.447 334.76 127.207 334.928ZM122.125 332.086C122.125 330.35 123.273 329.412 125.527 329.244V334.928C123.357 334.746 122.125 333.808 122.125 332.086ZM141.088 333.304C141.088 330.966 139.492 329.44 137.308 329.44C135.082 329.44 133.444 331.036 133.444 333.262C133.444 335.488 135.068 337.098 137.574 337.098C138.862 337.098 139.912 336.678 140.584 335.88L139.646 334.802C139.114 335.348 138.456 335.614 137.616 335.614C136.314 335.614 135.404 334.914 135.194 333.822H141.06C141.074 333.654 141.088 333.444 141.088 333.304ZM137.308 330.84C138.456 330.84 139.282 331.582 139.422 332.66H135.18C135.348 331.568 136.174 330.84 137.308 330.84ZM143.534 337.098C144.164 337.098 144.682 336.608 144.682 335.936C144.682 335.236 144.164 334.774 143.534 334.774C142.904 334.774 142.386 335.236 142.386 335.936C142.386 336.608 142.904 337.098 143.534 337.098ZM155.637 331.89C156.547 331.512 157.107 330.756 157.107 329.776C157.107 328.04 155.245 327.018 153.089 327.018C151.997 327.018 150.835 327.27 149.799 327.83L150.373 329.3C151.227 328.796 152.207 328.558 153.047 328.558C154.279 328.558 155.259 329.062 155.259 330C155.259 330.77 154.615 331.246 153.523 331.246H151.381V332.674H153.663C154.895 332.674 155.665 333.108 155.665 333.99C155.665 335.04 154.489 335.614 153.089 335.614C152.095 335.614 150.989 335.32 150.107 334.718L149.519 336.048C150.667 336.79 152.039 337.14 153.313 337.14C155.553 337.14 157.513 336.076 157.513 334.256C157.513 333.122 156.799 332.254 155.637 331.89ZM162.167 329.44C160.963 329.44 159.801 329.748 159.003 330.364L159.689 331.638C160.249 331.176 161.117 330.896 161.957 330.896C163.203 330.896 163.819 331.498 163.819 332.52V332.632H161.887C159.619 332.632 158.779 333.612 158.779 334.858C158.779 336.16 159.857 337.098 161.565 337.098C162.685 337.098 163.497 336.734 163.917 336.09V337H165.569V332.618C165.569 330.462 164.323 329.44 162.167 329.44ZM161.929 335.824C161.033 335.824 160.501 335.418 160.501 334.788C160.501 334.242 160.823 333.794 162.013 333.794H163.819V334.662C163.525 335.432 162.783 335.824 161.929 335.824ZM176.196 329.524V332.8C175.594 333.08 174.936 333.22 174.32 333.22C173.312 333.22 172.71 332.786 172.71 331.806V329.524H170.96V331.918C170.96 333.78 172.052 334.62 173.942 334.62C174.768 334.62 175.524 334.424 176.196 334.102V337H177.946V329.524H176.196ZM186.221 329.524H179.221V331.008H181.853V337H183.603V331.008H186.221V329.524ZM190.494 337.098C192.818 337.098 194.484 335.502 194.484 333.262C194.484 331.022 192.818 329.44 190.494 329.44C188.198 329.44 186.518 331.022 186.518 333.262C186.518 335.502 188.198 337.098 190.494 337.098ZM190.494 335.6C189.234 335.6 188.282 334.69 188.282 333.262C188.282 331.834 189.234 330.924 190.494 330.924C191.768 330.924 192.72 331.834 192.72 333.262C192.72 334.69 191.768 335.6 190.494 335.6ZM203.414 337.098C205.738 337.098 207.404 335.502 207.404 333.262C207.404 331.022 205.738 329.44 203.414 329.44C201.118 329.44 199.438 331.022 199.438 333.262C199.438 335.502 201.118 337.098 203.414 337.098ZM203.414 335.6C202.154 335.6 201.202 334.69 201.202 333.262C201.202 331.834 202.154 330.924 203.414 330.924C204.688 330.924 205.64 331.834 205.64 333.262C205.64 334.69 204.688 335.6 203.414 335.6ZM209.133 337H210.883V334.046H214.649V337H216.399V329.524H214.649V332.562H210.883V329.524H209.133V337ZM225.946 337.098C228.27 337.098 229.936 335.502 229.936 333.262C229.936 331.022 228.27 329.44 225.946 329.44C223.65 329.44 221.97 331.022 221.97 333.262C221.97 335.502 223.65 337.098 225.946 337.098ZM225.946 335.6C224.686 335.6 223.734 334.69 223.734 333.262C223.734 331.834 224.686 330.924 225.946 330.924C227.22 330.924 228.172 331.834 228.172 333.262C228.172 334.69 227.22 335.6 225.946 335.6ZM237.313 329.524H230.313V331.008H232.945V337H234.695V331.008H237.313V329.524ZM244 333.108C244.714 332.8 245.148 332.226 245.148 331.456C245.148 330.224 244.056 329.524 242.236 329.524H238.582V337H242.39C244.406 337 245.386 336.216 245.386 334.9C245.386 333.99 244.924 333.388 244 333.108ZM240.248 330.798H242.082C242.978 330.798 243.44 331.092 243.44 331.708C243.44 332.324 242.978 332.646 242.082 332.646H240.248V330.798ZM242.25 335.726H240.248V333.808H242.306C243.258 333.808 243.692 334.13 243.692 334.788C243.692 335.432 243.188 335.726 242.25 335.726ZM254.25 333.304C254.25 330.966 252.654 329.44 250.47 329.44C248.244 329.44 246.606 331.036 246.606 333.262C246.606 335.488 248.23 337.098 250.736 337.098C252.024 337.098 253.074 336.678 253.746 335.88L252.808 334.802C252.276 335.348 251.618 335.614 250.778 335.614C249.476 335.614 248.566 334.914 248.356 333.822H254.222C254.236 333.654 254.25 333.444 254.25 333.304ZM250.47 330.84C251.618 330.84 252.444 331.582 252.584 332.66H248.342C248.51 331.568 249.336 330.84 250.47 330.84ZM260.756 329.524V332.8C260.154 333.08 259.496 333.22 258.88 333.22C257.872 333.22 257.27 332.786 257.27 331.806V329.524H255.52V331.918C255.52 333.78 256.612 334.62 258.502 334.62C259.328 334.62 260.084 334.424 260.756 334.102V337H262.506V329.524H260.756ZM267.646 329.44C266.442 329.44 265.28 329.748 264.482 330.364L265.168 331.638C265.728 331.176 266.596 330.896 267.436 330.896C268.682 330.896 269.298 331.498 269.298 332.52V332.632H267.366C265.098 332.632 264.258 333.612 264.258 334.858C264.258 336.16 265.336 337.098 267.044 337.098C268.164 337.098 268.976 336.734 269.396 336.09V337H271.048V332.618C271.048 330.462 269.802 329.44 267.646 329.44ZM267.408 335.824C266.512 335.824 265.98 335.418 265.98 334.788C265.98 334.242 266.302 333.794 267.492 333.794H269.298V334.662C269.004 335.432 268.262 335.824 267.408 335.824ZM280.213 333.304C280.213 330.966 278.617 329.44 276.433 329.44C274.207 329.44 272.569 331.036 272.569 333.262C272.569 335.488 274.193 337.098 276.699 337.098C277.987 337.098 279.037 336.678 279.709 335.88L278.771 334.802C278.239 335.348 277.581 335.614 276.741 335.614C275.439 335.614 274.529 334.914 274.319 333.822H280.185C280.199 333.654 280.213 333.444 280.213 333.304ZM276.433 330.84C277.581 330.84 278.407 331.582 278.547 332.66H274.305C274.473 331.568 275.299 330.84 276.433 330.84ZM287.776 329.524H280.776V331.008H283.408V337H285.158V331.008H287.776V329.524ZM288.894 334.774C288.25 334.774 287.76 335.236 287.76 335.936C287.76 336.44 288.026 336.804 288.418 336.972L287.858 339.114H288.992L289.706 337.14C289.958 336.496 290.028 336.244 290.028 335.936C290.028 335.25 289.552 334.774 288.894 334.774ZM46.2962 345.524H39.2962V347.008H41.9282V353H43.6782V347.008H46.2962V345.524ZM50.3516 345.44C49.1476 345.44 47.9856 345.748 47.1876 346.364L47.8736 347.638C48.4336 347.176 49.3016 346.896 50.1416 346.896C51.3876 346.896 52.0036 347.498 52.0036 348.52V348.632H50.0716C47.8036 348.632 46.9636 349.612 46.9636 350.858C46.9636 352.16 48.0416 353.098 49.7496 353.098C50.8696 353.098 51.6816 352.734 52.1016 352.09V353H53.7536V348.618C53.7536 346.462 52.5076 345.44 50.3516 345.44ZM50.1136 351.824C49.2176 351.824 48.6856 351.418 48.6856 350.788C48.6856 350.242 49.0076 349.794 50.1976 349.794H52.0036V350.662C51.7096 351.432 50.9676 351.824 50.1136 351.824ZM61.2812 353H63.3392L60.4412 349.122L63.1572 345.524H61.2812L59.0692 348.548H57.6692V345.524H55.9192V353H57.6692V350.004H59.0272L61.2812 353ZM68.4426 353H70.0526L74.1686 348.072V353H75.9186V345.524H74.3226L70.1926 350.452V345.524H68.4426V353ZM82.1418 353H83.8918V350.046H87.6578V353H89.4078V345.524H87.6578V348.562H83.8918V345.524H82.1418V353ZM98.7531 349.304C98.7531 346.966 97.1571 345.44 94.9731 345.44C92.7471 345.44 91.1091 347.036 91.1091 349.262C91.1091 351.488 92.7331 353.098 95.2391 353.098C96.5271 353.098 97.5771 352.678 98.2491 351.88L97.3111 350.802C96.7791 351.348 96.1211 351.614 95.2811 351.614C93.9791 351.614 93.0691 350.914 92.8591 349.822H98.7251C98.7391 349.654 98.7531 349.444 98.7531 349.304ZM94.9731 346.84C96.1211 346.84 96.9471 347.582 97.0871 348.66H92.8451C93.0131 347.568 93.8391 346.84 94.9731 346.84ZM108.68 345.44C107.658 345.44 106.79 345.79 106.202 346.504V345.524H104.536V355.716H106.286V352.09C106.888 352.776 107.728 353.098 108.68 353.098C110.864 353.098 112.474 351.586 112.474 349.262C112.474 346.952 110.864 345.44 108.68 345.44ZM108.484 351.6C107.224 351.6 106.258 350.69 106.258 349.262C106.258 347.834 107.224 346.924 108.484 346.924C109.744 346.924 110.696 347.834 110.696 349.262C110.696 350.69 109.744 351.6 108.484 351.6ZM116.906 345.44C115.702 345.44 114.54 345.748 113.742 346.364L114.428 347.638C114.988 347.176 115.856 346.896 116.696 346.896C117.942 346.896 118.558 347.498 118.558 348.52V348.632H116.626C114.358 348.632 113.518 349.612 113.518 350.858C113.518 352.16 114.596 353.098 116.304 353.098C117.424 353.098 118.236 352.734 118.656 352.09V353H120.308V348.618C120.308 346.462 119.062 345.44 116.906 345.44ZM116.668 351.824C115.772 351.824 115.24 351.418 115.24 350.788C115.24 350.242 115.562 349.794 116.752 349.794H118.558V350.662C118.264 351.432 117.522 351.824 116.668 351.824ZM126.844 349.108C127.614 348.8 128.104 348.198 128.104 347.47C128.104 346.238 126.704 345.412 124.786 345.412C123.806 345.412 122.84 345.622 121.818 346.098L122.266 347.386C123.092 347.022 123.876 346.84 124.632 346.84C125.682 346.84 126.312 347.176 126.312 347.722C126.312 348.268 125.794 348.576 124.912 348.576H123.596V349.752H125.052C125.99 349.752 126.522 350.074 126.522 350.662C126.522 351.306 125.808 351.684 124.646 351.684C123.722 351.684 122.77 351.446 122.042 351.04L121.538 352.342C122.434 352.846 123.582 353.126 124.73 353.126C126.816 353.126 128.314 352.188 128.314 350.802C128.314 349.976 127.768 349.374 126.844 349.108ZM133.448 353.098C135.772 353.098 137.438 351.502 137.438 349.262C137.438 347.022 135.772 345.44 133.448 345.44C131.152 345.44 129.472 347.022 129.472 349.262C129.472 351.502 131.152 353.098 133.448 353.098ZM133.448 351.6C132.188 351.6 131.236 350.69 131.236 349.262C131.236 347.834 132.188 346.924 133.448 346.924C134.722 346.924 135.674 347.834 135.674 349.262C135.674 350.69 134.722 351.6 133.448 351.6ZM143.213 345.888C142.065 345.888 141.085 346.35 140.427 347.148C140.581 345.524 141.435 344.684 143.241 344.306L146.391 343.662L146.139 342.094L142.667 342.836C140.007 343.396 138.747 345.146 138.747 348.142C138.747 351.404 140.259 353.14 142.821 353.14C145.173 353.14 146.811 351.67 146.811 349.472C146.811 347.358 145.355 345.888 143.213 345.888ZM142.863 351.726C141.575 351.726 140.679 350.816 140.679 349.514C140.679 348.212 141.561 347.372 142.863 347.372C144.151 347.372 145.019 348.212 145.019 349.514C145.019 350.802 144.151 351.726 142.863 351.726ZM152.649 345.44C151.627 345.44 150.759 345.79 150.171 346.504V345.524H148.505V355.716H150.255V352.09C150.857 352.776 151.697 353.098 152.649 353.098C154.833 353.098 156.443 351.586 156.443 349.262C156.443 346.952 154.833 345.44 152.649 345.44ZM152.453 351.6C151.193 351.6 150.227 350.69 150.227 349.262C150.227 347.834 151.193 346.924 152.453 346.924C153.713 346.924 154.665 347.834 154.665 349.262C154.665 350.69 153.713 351.6 152.453 351.6ZM160.875 345.44C159.671 345.44 158.509 345.748 157.711 346.364L158.397 347.638C158.957 347.176 159.825 346.896 160.665 346.896C161.911 346.896 162.527 347.498 162.527 348.52V348.632H160.595C158.327 348.632 157.487 349.612 157.487 350.858C157.487 352.16 158.565 353.098 160.273 353.098C161.393 353.098 162.205 352.734 162.625 352.09V353H164.277V348.618C164.277 346.462 163.031 345.44 160.875 345.44ZM160.637 351.824C159.741 351.824 159.209 351.418 159.209 350.788C159.209 350.242 159.531 349.794 160.721 349.794H162.527V350.662C162.233 351.432 161.491 351.824 160.637 351.824ZM167.171 345.524L167.045 348.408C166.961 349.962 166.919 351.558 165.771 351.558C165.673 351.558 165.561 351.544 165.435 351.516L165.351 352.986C165.715 353.084 166.037 353.14 166.317 353.14C168.081 353.14 168.473 351.152 168.599 348.492L168.669 347.008H171.469V353H173.219V345.524H167.171ZM178.977 353.098C180.433 353.098 181.595 352.468 182.169 351.348L180.825 350.564C180.377 351.278 179.705 351.6 178.963 351.6C177.675 351.6 176.695 350.718 176.695 349.262C176.695 347.82 177.675 346.924 178.963 346.924C179.705 346.924 180.377 347.246 180.825 347.96L182.169 347.176C181.595 346.042 180.433 345.44 178.977 345.44C176.611 345.44 174.931 347.022 174.931 349.262C174.931 351.502 176.611 353.098 178.977 353.098ZM186.389 345.524C184.303 345.524 182.973 346.462 182.973 348.212C182.973 349.36 183.575 350.144 184.639 350.508L182.875 353H184.751L186.277 350.746H188.251V353H189.819V345.524H186.389ZM186.445 346.994H188.251V349.528H186.389C185.311 349.528 184.751 349.136 184.751 348.268C184.751 347.372 185.367 346.994 186.445 346.994ZM192.705 353.098C193.335 353.098 193.853 352.608 193.853 351.936C193.853 351.236 193.335 350.774 192.705 350.774C192.075 350.774 191.557 351.236 191.557 351.936C191.557 352.608 192.075 353.098 192.705 353.098ZM196.123 353.098C196.753 353.098 197.271 352.608 197.271 351.936C197.271 351.236 196.753 350.774 196.123 350.774C195.493 350.774 194.975 351.236 194.975 351.936C194.975 352.608 195.493 353.098 196.123 353.098ZM209.962 343.2V347.246H204.894V343.2H203.074V353H204.894V348.8H209.962V353H211.782V343.2H209.962ZM217.667 353.098C219.991 353.098 221.657 351.502 221.657 349.262C221.657 347.022 219.991 345.44 217.667 345.44C215.371 345.44 213.691 347.022 213.691 349.262C213.691 351.502 215.371 353.098 217.667 353.098ZM217.667 351.6C216.407 351.6 215.455 350.69 215.455 349.262C215.455 347.834 216.407 346.924 217.667 346.924C218.941 346.924 219.893 347.834 219.893 349.262C219.893 350.69 218.941 351.6 217.667 351.6ZM232.673 349.108C233.387 348.8 233.821 348.226 233.821 347.456C233.821 346.224 232.729 345.524 230.909 345.524H227.255V353H231.063C233.079 353 234.059 352.216 234.059 350.9C234.059 349.99 233.597 349.388 232.673 349.108ZM228.921 346.798H230.755C231.651 346.798 232.113 347.092 232.113 347.708C232.113 348.324 231.651 348.646 230.755 348.646H228.921V346.798ZM230.923 351.726H228.921V349.808H230.979C231.931 349.808 232.365 350.13 232.365 350.788C232.365 351.432 231.861 351.726 230.923 351.726ZM240.067 345.44C239.045 345.44 238.177 345.79 237.589 346.504V345.524H235.923V355.716H237.673V352.09C238.275 352.776 239.115 353.098 240.067 353.098C242.251 353.098 243.861 351.586 243.861 349.262C243.861 346.952 242.251 345.44 240.067 345.44ZM239.871 351.6C238.611 351.6 237.645 350.69 237.645 349.262C237.645 347.834 238.611 346.924 239.871 346.924C241.131 346.924 242.083 347.834 242.083 349.262C242.083 350.69 241.131 351.6 239.871 351.6ZM248.935 353.098C251.259 353.098 252.925 351.502 252.925 349.262C252.925 347.022 251.259 345.44 248.935 345.44C246.639 345.44 244.959 347.022 244.959 349.262C244.959 351.502 246.639 353.098 248.935 353.098ZM248.935 351.6C247.675 351.6 246.723 350.69 246.723 349.262C246.723 347.834 247.675 346.924 248.935 346.924C250.209 346.924 251.161 347.834 251.161 349.262C251.161 350.69 250.209 351.6 248.935 351.6ZM261.446 351.516V345.524H255.286L255.188 348.086C255.104 349.836 254.922 351.474 253.872 351.516H253.522V354.666H255.146V353H260.914V354.666H262.552V351.516H261.446ZM256.784 348.212L256.826 347.008H259.696V351.516H256.014C256.616 350.942 256.728 349.612 256.784 348.212ZM271.114 349.304C271.114 346.966 269.518 345.44 267.334 345.44C265.108 345.44 263.47 347.036 263.47 349.262C263.47 351.488 265.094 353.098 267.6 353.098C268.888 353.098 269.938 352.678 270.61 351.88L269.672 350.802C269.14 351.348 268.482 351.614 267.642 351.614C266.34 351.614 265.43 350.914 265.22 349.822H271.086C271.1 349.654 271.114 349.444 271.114 349.304ZM267.334 346.84C268.482 346.84 269.308 347.582 269.448 348.66H265.206C265.374 347.568 266.2 346.84 267.334 346.84ZM280.23 353.098C282.554 353.098 284.22 351.502 284.22 349.262C284.22 347.022 282.554 345.44 280.23 345.44C277.934 345.44 276.254 347.022 276.254 349.262C276.254 351.502 277.934 353.098 280.23 353.098ZM280.23 351.6C278.97 351.6 278.018 350.69 278.018 349.262C278.018 347.834 278.97 346.924 280.23 346.924C281.504 346.924 282.456 347.834 282.456 349.262C282.456 350.69 281.504 351.6 280.23 351.6ZM285.948 353H287.698V350.046H291.464V353H293.214V345.524H291.464V348.562H287.698V345.524H285.948V353ZM296.092 353.098C296.722 353.098 297.24 352.608 297.24 351.936C297.24 351.236 296.722 350.774 296.092 350.774C295.462 350.774 294.944 351.236 294.944 351.936C294.944 352.608 295.462 353.098 296.092 353.098Z" fill="black"/>
<path d="M252 5C252 26.7477 243.361 47.6048 227.983 62.9828C212.605 78.3607 191.748 87 170 87C148.252 87 127.395 78.3607 112.017 62.9828C96.6393 47.6048 88 26.7478 88 5.00002L170 5H252Z" fill="white"/>
<path d="M48.032 423.216C48.032 414.96 35.328 417.52 35.328 414.096C35.328 412.976 36.288 412.08 38.944 412.08C40.896 412.08 43.008 412.656 45.152 413.808L47.104 409.104C45.312 408.048 42.976 407.408 40.608 407.216V403.76H36.768V407.28C31.584 407.92 29.056 410.896 29.056 414.416C29.056 422.736 41.792 420.144 41.792 423.696C41.792 424.784 40.768 425.52 38.144 425.52C35.552 425.52 32.736 424.624 30.752 423.312L28.672 427.984C30.528 429.264 33.568 430.192 36.768 430.416V433.84H40.608V430.288C45.6 429.552 48.032 426.608 48.032 423.216Z" fill="#00BCBC"/>
<path d="M68.6 420.42H66.32V417.8H63.26V420.42H59.5L65.62 412H62.22L55.62 420.88V423.06H63.16V426H66.32V423.06H68.6V420.42ZM75.5691 426.24C79.0291 426.24 81.5691 423.62 81.5691 419C81.5691 414.38 79.0291 411.76 75.5691 411.76C72.1291 411.76 69.5691 414.38 69.5691 419C69.5691 423.62 72.1291 426.24 75.5691 426.24ZM75.5691 423.5C73.9691 423.5 72.8491 422.18 72.8491 419C72.8491 415.82 73.9691 414.5 75.5691 414.5C77.1891 414.5 78.3091 415.82 78.3091 419C78.3091 422.18 77.1891 423.5 75.5691 423.5ZM94.8073 426.24C98.2673 426.24 100.807 423.62 100.807 419C100.807 414.38 98.2673 411.76 94.8073 411.76C91.3673 411.76 88.8073 414.38 88.8073 419C88.8073 423.62 91.3673 426.24 94.8073 426.24ZM94.8073 423.5C93.2073 423.5 92.0873 422.18 92.0873 419C92.0873 415.82 93.2073 414.5 94.8073 414.5C96.4273 414.5 97.5473 415.82 97.5473 419C97.5473 422.18 96.4273 423.5 94.8073 423.5ZM108.382 426.24C111.842 426.24 114.382 423.62 114.382 419C114.382 414.38 111.842 411.76 108.382 411.76C104.942 411.76 102.382 414.38 102.382 419C102.382 423.62 104.942 426.24 108.382 426.24ZM108.382 423.5C106.782 423.5 105.662 422.18 105.662 419C105.662 415.82 106.782 414.5 108.382 414.5C110.002 414.5 111.122 415.82 111.122 419C111.122 422.18 110.002 423.5 108.382 423.5ZM121.956 426.24C125.416 426.24 127.956 423.62 127.956 419C127.956 414.38 125.416 411.76 121.956 411.76C118.516 411.76 115.956 414.38 115.956 419C115.956 423.62 118.516 426.24 121.956 426.24ZM121.956 423.5C120.356 423.5 119.236 422.18 119.236 419C119.236 415.82 120.356 414.5 121.956 414.5C123.576 414.5 124.696 415.82 124.696 419C124.696 422.18 123.576 423.5 121.956 423.5Z" fill="black"/>
<path d="M240.32 417.7L243.48 414.1V412H233.68V414.6H239.64L236.76 417.86V420H238.24C240.08 420 240.86 420.66 240.86 421.72C240.86 422.86 239.86 423.52 238.24 423.52C236.78 423.52 235.3 423.06 234.24 422.26L232.98 424.74C234.34 425.7 236.36 426.24 238.32 426.24C242.3 426.24 244.12 424.08 244.12 421.72C244.12 419.66 242.84 418.1 240.32 417.7ZM250.221 417.26H249.081L249.301 414.6H255.141V412H246.601L245.881 419.88H249.461C252.001 419.88 252.721 420.6 252.721 421.7C252.721 422.84 251.721 423.52 250.101 423.52C248.641 423.52 247.181 423.06 246.121 422.26L244.841 424.74C246.201 425.7 248.241 426.24 250.181 426.24C254.181 426.24 256.001 424.08 256.001 421.6C256.001 419.12 254.361 417.26 250.221 417.26ZM277.019 426L276.979 415.24H274.059L270.399 421.46L266.959 415.24H263.699V426H266.519V419.54L269.659 424.96H270.979L274.199 419.56V426H277.019ZM280.008 426H282.888L288.108 419.6V426H291.208V415.24H288.348L283.108 421.64V415.24H280.008V426ZM294.207 426H297.307V421.98H301.987V426H305.107V415.24H301.987V419.44H297.307V415.24H294.207V426Z" fill="black"/>
<path d="M216.5 406C209.595 406 204 411.595 204 418.5C204 425.405 209.595 431 216.5 431C223.405 431 229 425.405 229 418.5C229 411.595 223.405 406 216.5 406Z" fill="#00BCBC"/>
<path fill-rule="evenodd" clip-rule="evenodd" d="M215.961 410C214.878 410 214 410.878 214 411.961V419.153C214 419.311 214.019 419.464 214.054 419.611C214.047 420.263 214.376 420.901 214.974 421.262L220.414 424.535C221.313 425.077 222.481 424.786 223.022 423.887C223.563 422.988 223.273 421.82 222.374 421.279L217.923 418.6V411.961C217.923 410.878 217.045 410 215.961 410Z" fill="white"/>
<g filter="url(#filter0_d)">
<path d="M162.531 400.393L185.975 433.213C179.766 434.57 168.698 428.331 168.698 428.331C168.698 428.331 160.834 438.706 154.912 440L162.531 400.393Z" fill="white"/>
<path fill-rule="evenodd" clip-rule="evenodd" d="M154.912 440L158.469 421.51C161.522 424.284 164.956 426.604 168.698 428.331C168.698 428.331 160.834 438.706 154.912 440Z" fill="#BBFFF9"/>
</g>
<path d="M150.511 25.4V40.77H160.313V34.506H170.985L157.297 66H169.825L184.151 32.592V25.4H150.511Z" fill="#46BBCE"/>
<g filter="url(#filter1_di)">
<path d="M170.5 96C138.325 96 112 122.325 112 154.5C112 186.675 138.325 213 170.5 213C202.675 213 229 186.675 229 154.5C229 122.325 202.675 96 170.5 96ZM209.987 186.675C207.794 185.944 206.331 184.481 204.138 184.481L188.05 181.556C186.587 181.556 185.125 179.362 185.125 177.9V174.244C185.856 172.781 187.319 170.588 188.05 169.125C188.781 167.662 190.244 165.469 190.975 164.737C193.9 161.812 197.556 158.156 198.288 153.038C199.019 148.65 198.287 146.456 197.556 144.262C197.556 139.875 197.556 134.025 196.094 129.637C196.094 123.787 194.631 120.863 192.438 117.938C190.244 115.744 188.05 115.744 185.856 115.012C185.125 115.012 183.663 115.013 183.663 114.281C178.544 112.087 174.888 110.625 170.5 110.625C160.994 111.356 148.562 117.206 144.906 128.175C143.444 131.1 143.444 136.95 144.175 141.337V144.262C142.713 145.725 141.981 147.919 142.712 152.306C143.444 156.694 147.1 160.35 150.025 164.006C150.756 164.738 151.487 166.931 152.95 168.394C153.681 170.587 155.144 172.05 155.875 173.513V177.169C155.875 178.631 154.412 180.094 152.95 180.825L136.863 183.75C134.669 184.481 132.475 185.213 131.012 185.944C123.7 177.9 119.312 166.931 119.312 154.5C119.312 125.981 141.981 103.312 170.5 103.312C199.019 103.312 221.688 125.981 221.688 154.5C221.688 166.931 217.3 177.9 209.987 186.675Z" fill="white"/>
</g>
<defs>
<filter id="filter0_d" x="143" y="393" width="52.975" height="57" filterUnits="userSpaceOnUse" color-interpolation-filters="sRGB">
<feFlood flood-opacity="0" result="BackgroundImageFix"/>
<feColorMatrix in="SourceAlpha" type="matrix" values="0 0 0 0 0 0 0 0 0 0 0 0 0 0 0 0 0 0 127 0"/>
<feOffset dx="3" dy="3"/>
<feGaussianBlur stdDeviation="3.5"/>
<feColorMatrix type="matrix" values="0 0 0 0 0.279 0 0 0 0 0.9 0 0 0 0 0.840225 0 0 0 1 0"/>
<feBlend mode="normal" in2="BackgroundImageFix" result="effect1_dropShadow"/>
<feBlend mode="normal" in="SourceGraphic" in2="effect1_dropShadow" result="shape"/>
</filter>
<filter id="filter1_di" x="106" y="90" width="137" height="137" filterUnits="userSpaceOnUse" color-interpolation-filters="sRGB">
<feFlood flood-opacity="0" result="BackgroundImageFix"/>
<feColorMatrix in="SourceAlpha" type="matrix" values="0 0 0 0 0 0 0 0 0 0 0 0 0 0 0 0 0 0 127 0"/>
<feOffset dx="4" dy="4"/>
<feGaussianBlur stdDeviation="5"/>
<feColorMatrix type="matrix" values="0 0 0 0 0.1715 0 0 0 0 0.816667 0 0 0 0 0.816667 0 0 0 1 0"/>
<feBlend mode="normal" in2="BackgroundImageFix" result="effect1_dropShadow"/>
<feBlend mode="normal" in="SourceGraphic" in2="effect1_dropShadow" result="shape"/>
<feColorMatrix in="SourceAlpha" type="matrix" values="0 0 0 0 0 0 0 0 0 0 0 0 0 0 0 0 0 0 127 0" result="hardAlpha"/>
<feOffset dx="-4" dy="-4"/>
<feGaussianBlur stdDeviation="4.5"/>
<feComposite in2="hardAlpha" operator="arithmetic" k2="-1" k3="1"/>
<feColorMatrix type="matrix" values="0 0 0 0 0.441945 0 0 0 0 0.887146 0 0 0 0 0.895833 0 0 0 0.52 0"/>
<feBlend mode="normal" in2="shape" result="effect2_innerShadow"/>
</filter>
<linearGradient id="paint0_linear" x1="5.5" y1="-157" x2="289.5" y2="495.5" gradientUnits="userSpaceOnUse">
<stop stop-color="#00C2FF"/>
<stop offset="1" stop-color="#1EE7CF"/>
</linearGradient>
<linearGradient id="paint1_linear" x1="49" y1="11" x2="301.5" y2="474" gradientUnits="userSpaceOnUse">
<stop stop-color="#19D2EB"/>
<stop offset="1" stop-color="#55F5DF"/>
</linearGradient>
<linearGradient id="paint2_linear" x1="59.5" y1="-9" x2="291.5" y2="495.5" gradientUnits="userSpaceOnUse">
<stop stop-color="#00E0FF"/>
<stop offset="1" stop-color="#42F2D1"/>
</linearGradient>
<linearGradient id="paint3_linear" x1="51" y1="11" x2="303.5" y2="474" gradientUnits="userSpaceOnUse">
<stop stop-color="#B2F6FF"/>
<stop offset="1" stop-color="#28D7BE"/>
</linearGradient>
<linearGradient id="paint4_linear" x1="27" y1="473.49" x2="247.084" y2="60.8524" gradientUnits="userSpaceOnUse">
<stop stop-color="#73F5FF"/>
<stop offset="0.99" stop-color="#7AFFEC"/>
</linearGradient>
<linearGradient id="paint5_linear" x1="129.774" y1="288" x2="310" y2="288" gradientUnits="userSpaceOnUse">
<stop stop-color="white"/>
<stop offset="0.99" stop-color="white" stop-opacity="0.4"/>
</linearGradient>
<linearGradient id="paint6_linear" x1="59.8997" y1="86" x2="140" y2="86" gradientUnits="userSpaceOnUse">
<stop stop-color="white"/>
<stop offset="0.99" stop-color="white" stop-opacity="0.4"/>
</linearGradient>
</defs>
</svg>
